<?xml version="1.0" encoding="UTF-8"?>
<svg version="1.1" xmlns="http://www.w3.org/2000/svg" width="2651" height="2644">
<path d="M0 0 C0.87601868 0.16888733 1.75203735 0.33777466 2.65460205 0.51177979 C96.04347598 18.59423322 187.37988552 47.28246917 311 102 C312.12664062 102.53173828 313.25328125 103.06347656 314.4140625 103.61132812 C341.1895588 116.29524612 367.63325968 129.63901554 393.29931641 144.45263672 C396.05670033 146.03248659 398.82816998 147.58436109 401.60546875 149.12890625 C465.45594735 184.68904839 525.64048023 227.32510724 582.19580078 273.52783203 C583.78273046 274.82271511 585.37348737 276.11290478 586.96484375 277.40234375 C593.20018523 282.46569741 599.31522114 287.65830564 605.3984375 292.90234375 C607.74782976 294.92744119 610.1067514 296.9402473 612.4765625 298.94140625 C619.38497504 304.78856032 626.10232953 310.79415624 632.67553711 317.01708984 C635.6507439 319.83038907 638.65504089 322.58987975 641.75097656 325.27026367 C656.15741086 337.84798324 669.62312813 351.46162454 683.12402344 364.99365234 C685.6472369 367.52263245 688.17501358 370.04699698 690.70407295 372.57012939 C692.68776379 374.55018571 694.6690415 376.53264294 696.64962387 378.51580811 C698.02574605 379.89290208 699.40384691 381.26801788 700.78201294 382.64306641 C705.19651315 387.07402392 709.46819603 391.5649661 713.54489136 396.30908203 C715.28702638 398.33354077 717.09698464 400.28359107 718.9375 402.21875 C719.60523437 402.92386719 720.27296875 403.62898438 720.9609375 404.35546875 C721.63382813 405.06316406 722.30671875 405.77085937 723 406.5 C728.12949517 411.89481389 733.14257924 417.35846729 738 423 C738.73162354 423.84836426 738.73162354 423.84836426 739.47802734 424.71386719 C740.88406065 426.34847229 742.2864454 427.98612623 743.6875 429.625 C744.72910899 430.84249726 745.77077741 432.05994368 746.8125 433.27734375 C747.3384375 433.89206543 747.864375 434.50678711 748.40625 435.14013672 C749.97623688 436.97226908 751.54997431 438.80110477 753.125 440.62890625 C759.18863443 447.67042204 765.14590887 454.78249677 771 462 C772.00721634 463.22575053 773.01507076 464.45097692 774.0234375 465.67578125 C779.99421838 472.94705712 785.80584104 480.30216028 791.40942383 487.86035156 C794.61588806 492.17898434 797.88964166 496.43597992 801.21362305 500.66479492 C807.3507074 508.47265582 813.23484494 516.40333537 818.90234375 524.55786133 C820.83501111 527.33580685 822.77888086 530.10485217 824.74169922 532.86157227 C831.78807039 542.76024641 838.62673189 552.78374311 845.35449219 562.90136719 C846.99590851 565.36884941 848.64223864 567.83299949 850.2890625 570.296875 C861.10795046 586.51659936 871.52269752 602.96224336 881.4375 619.75 C881.84108734 620.43177307 882.24467468 621.11354614 882.66049194 621.815979 C905.81635754 660.94596199 927.64519368 701.03806175 946.40087891 742.47802734 C947.76439664 745.48109709 949.14132048 748.47749332 950.52615356 751.47077942 C985.39799294 826.89246272 1011.75616778 906.17866001 1063.3125 1185.125 C1063.4255397 1186.4606752 1063.4255397 1186.4606752 1063.54086304 1187.82333374 C1064.09995561 1194.54443689 1064.56367173 1201.26991424 1065 1208 C1065.08613556 1209.28529602 1065.17227112 1210.57059204 1065.26101685 1211.89483643 C1067.04308794 1238.85734093 1067.36297634 1265.77411586 1067.31785583 1292.78939438 C1067.31242038 1296.17458965 1067.31004983 1299.55977795 1067.3079834 1302.94497681 C1067.2779716 1334.48959532 1066.9650808 1365.90265992 1064.22784424 1397.34851074 C1063.99506668 1400.05741046 1063.77668604 1402.76714806 1063.56201172 1405.47753906 C1056.34082508 1496.09340541 1039.69584787 1586.19083047 900.62353516 1941.14697266 C899.02962194 1943.94794556 897.45491744 1946.75878035 895.88671875 1949.57421875 C873.61644791 1989.49341783 848.62511916 2027.85754971 822 2065 C821.48808105 2065.71768555 820.97616211 2066.43537109 820.44873047 2067.17480469 C812.98907475 2077.62964235 805.3350743 2087.91310922 797.48291016 2098.07617188 C796.12125376 2099.84269351 794.76763852 2101.61493774 793.41796875 2103.390625 C787.27139021 2111.45366502 780.91473657 2119.33088346 774.49267578 2127.17529297 C773.17813798 2128.78223696 771.86801698 2130.39279191 770.55859375 2132.00390625 C766.13031867 2137.44616918 761.6302035 2142.82175466 757.08325195 2148.16479492 C754.19081537 2151.56982797 751.36171074 2155.01743763 748.5625 2158.5 C744.1854888 2163.88285937 739.50445873 2168.94271342 734.7734375 2174.01171875 C732.63645686 2176.3035841 730.54776652 2178.62758757 728.5 2181 C724.57057669 2185.53540667 720.49103556 2189.93079236 716.40673828 2194.32617188 C714.30101541 2196.59379115 712.20279866 2198.86781817 710.11303711 2201.15014648 C700.08937232 2212.04836746 689.63719953 2222.51712529 679.15722656 2232.97314453 C676.612503 2235.51211754 674.07237254 2238.05563144 671.53349495 2240.60044861 C669.54485691 2242.59272257 667.55381608 2244.58258158 665.56206894 2246.57174683 C664.17611543 2247.95672746 662.79214208 2249.34368876 661.40823364 2250.73071289 C656.95937163 2255.16317584 652.45214172 2259.45450627 647.68844604 2263.54736328 C645.66465776 2265.28850816 643.71557085 2267.09778173 641.78125 2268.9375 C641.07613281 2269.60523437 640.37101562 2270.27296875 639.64453125 2270.9609375 C638.93683594 2271.63382813 638.22914063 2272.30671875 637.5 2273 C632.1052328 2278.12945078 626.64241348 2283.14364516 621 2288 C620.43974121 2288.48243164 619.87948242 2288.96486328 619.30224609 2289.46191406 C617.68285648 2290.85219546 616.06069474 2292.23916375 614.4375 2293.625 C610.69291792 2296.82366679 606.95679789 2300.03043042 603.25390625 2303.27734375 C596.76933179 2308.95778706 590.22387015 2314.49134233 583.40576172 2319.76806641 C578.72964133 2323.39489827 574.17308874 2327.15188799 569.625 2330.9375 C562.99142843 2336.43918215 556.21290136 2341.68453687 549.28515625 2346.80859375 C546.16209542 2349.1213469 543.07277161 2351.47354992 539.99609375 2353.84765625 C529.97591691 2361.57450567 519.83444983 2368.98956266 509.33984375 2376.05859375 C505.54764835 2378.61397036 501.82655737 2381.2532399 498.125 2383.9375 C455.44844094 2414.69470292 409.47516002 2441.4397845 363 2466 C361.94586914 2466.55864746 360.89173828 2467.11729492 359.80566406 2467.69287109 C300.70036484 2498.93887582 239.28360466 2525.41571316 176 2547 C175.13107117 2547.29694763 174.26214233 2547.59389526 173.36688232 2547.89984131 C102.59463534 2572.0360042 29.90207085 2590.04244893 -43.9375 2601.875 C-45.11992279 2602.06636536 -45.11992279 2602.06636536 -46.32623291 2602.26159668 C-50.36717986 2602.90899346 -54.41114742 2603.51203985 -58.4654541 2604.0697937 C-61.8538322 2604.54029492 -65.23228157 2605.0378989 -68.60864067 2605.58878326 C-100.60923164 2610.8045453 -132.61820803 2610.77591047 -164.94052629 2610.74002218 C-170.50351201 2610.73401107 -176.06642384 2610.73748558 -181.62940407 2610.74695587 C-182.43296445 2610.74829948 -183.23652482 2610.74964309 -184.06443552 2610.75102742 C-185.69897941 2610.75377179 -187.33352328 2610.75652427 -188.96806715 2610.75928476 C-204.17181536 2610.7836821 -219.37542099 2610.77641129 -234.57917003 2610.75871471 C-248.34377989 2610.74365554 -262.1079878 2610.76775919 -275.87252834 2610.81074712 C-290.16083686 2610.8550159 -304.44895921 2610.87227403 -318.7373355 2610.86197114 C-326.69692624 2610.85665758 -334.65619298 2610.86075107 -342.61572838 2610.89293671 C-379.74639201 2611.0341545 -415.76787594 2609.43723758 -452.52150822 2603.40380776 C-456.21491592 2602.80206008 -459.91371698 2602.2367285 -463.61282349 2601.67127991 C-469.6541194 2600.74166418 -475.67203266 2599.70802694 -481.6875 2598.625 C-482.73723999 2598.43924408 -483.78697998 2598.25348816 -484.86853027 2598.06210327 C-552.10300468 2586.1532185 -618.32866228 2568.9820352 -682.87731934 2546.72991943 C-684.98479427 2546.00522874 -687.09411786 2545.2861979 -689.20410156 2544.56884766 C-759.01699543 2520.80485916 -827.82061758 2490.36410922 -892 2454 C-893.05977051 2453.40300293 -894.11954102 2452.80600586 -895.21142578 2452.19091797 C-968.36693612 2410.93672037 -1038.15436077 2363.54510663 -1102.16113281 2309.08666992 C-1105.589839 2306.17470858 -1109.05942694 2303.32262002 -1112.5625 2300.5 C-1117.63607493 2296.37309794 -1122.43741142 2291.99897442 -1127.23046875 2287.5546875 C-1129.45918393 2285.49886278 -1131.70767919 2283.48383043 -1134 2281.5 C-1138.88720024 2277.25770866 -1143.63509448 2272.86428751 -1148.39257812 2268.47802734 C-1149.99161403 2267.00771092 -1151.59664257 2265.5442042 -1153.203125 2264.08203125 C-1159.45653063 2258.37355174 -1165.52370688 2252.52600913 -1171.47631836 2246.50439453 C-1174.23536614 2243.72479128 -1177.01211102 2241.03688687 -1180 2238.5 C-1187.90542875 2231.76947574 -1195.22526169 2224.20634926 -1201.9296875 2216.2890625 C-1204.99445366 2212.90047199 -1208.25449058 2209.71462214 -1211.5 2206.5 C-1215.84941895 2202.18774662 -1220.12372514 2197.89250041 -1224.07421875 2193.20703125 C-1226.91719545 2189.94885308 -1229.90735901 2186.83192505 -1232.875 2183.6875 C-1237.74372028 2178.51344887 -1242.3577115 2173.23013866 -1246.79296875 2167.67578125 C-1249.25980779 2164.6850118 -1251.86006199 2161.83673174 -1254.5 2159 C-1258.67636525 2154.50083084 -1262.64517518 2149.88248824 -1266.49609375 2145.1015625 C-1268.99293735 2142.00874844 -1271.52191745 2138.94491771 -1274.05737305 2135.88378906 C-1280.33446119 2128.29900935 -1286.50382046 2120.64329615 -1292.54443359 2112.86914062 C-1294.1241809 2110.84053523 -1295.712145 2108.81852574 -1297.30078125 2106.796875 C-1309.48649588 2091.2576079 -1321.15221856 2075.36418088 -1332.46826172 2059.18212891 C-1334.03360712 2056.95212297 -1335.61131271 2054.73129442 -1337.19140625 2052.51171875 C-1357.90666648 2023.31581641 -1377.02926202 1992.95055063 -1395 1962 C-1395.50096191 1961.13842285 -1396.00192383 1960.2768457 -1396.51806641 1959.38916016 C-1420.97247121 1917.23215207 -1443.58582571 1873.71918613 -1463 1829 C-1463.31239624 1828.28046143 -1463.62479248 1827.56092285 -1463.94665527 1826.81958008 C-1498.6209882 1746.79249342 -1526.13675412 1663.67906007 -1573 1355 C-1573.03760437 1354.24682495 -1573.07520874 1353.4936499 -1573.11395264 1352.71765137 C-1573.60189166 1342.81440203 -1573.87829321 1332.9137784 -1574 1323 C-1574.01095703 1322.11322571 -1574.02191406 1321.22645142 -1574.03320312 1320.31280518 C-1575.19016863 1220.00347027 -1566.50885933 1119.94606163 -1502.72991943 867.12268066 C-1502.00522874 865.01520573 -1501.2861979 862.90588214 -1500.56884766 860.79589844 C-1476.80485916 790.98300457 -1446.36410922 722.17938242 -1410 658 C-1409.40300293 656.94022949 -1408.80600586 655.88045898 -1408.19091797 654.78857422 C-1370.05517796 587.16298253 -1326.59869788 522.94086292 -1277.4765625 462.80859375 C-1276.16952459 461.2076452 -1274.86576644 459.60402024 -1273.5625 458 C-1268.27148373 451.49960858 -1262.8844207 445.08526689 -1257.45019531 438.70458984 C-1255.98196961 436.97880671 -1254.51826467 435.24925728 -1253.0546875 433.51953125 C-1247.59522377 427.08733257 -1242.03930739 420.77173071 -1236.27172852 414.61328125 C-1233.65851995 411.81996259 -1231.10361562 408.98841646 -1228.59375 406.1015625 C-1225.0831125 402.07091931 -1221.47202866 398.14550249 -1217.8125 394.25 C-1216.84183594 393.21456055 -1216.84183594 393.21456055 -1215.8515625 392.15820312 C-1211.3227859 387.34915842 -1206.69574995 382.65479209 -1201.99511719 378.0144043 C-1199.40595968 375.44680844 -1196.9243849 372.84016904 -1194.5625 370.0625 C-1187.80174512 362.14181169 -1180.23063776 354.79530602 -1172.2890625 348.0703125 C-1168.90047213 345.00554647 -1165.71462021 341.74551122 -1162.5 338.5 C-1158.16952575 334.13216232 -1153.85420065 329.83855897 -1149.15234375 325.8671875 C-1146.02812454 323.15688481 -1143.02209693 320.32317609 -1140 317.5 C-1135.07401707 312.9088989 -1130.11722306 308.37827388 -1125 304 C-1123.96605322 303.11208701 -1122.93220867 302.22405495 -1121.8984375 301.3359375 C-1119.50504964 299.28098118 -1117.10873322 297.22949804 -1114.7109375 295.1796875 C-1112.2917862 293.11029302 -1109.88061267 291.03222693 -1107.4765625 288.9453125 C-1101.25762379 283.5575446 -1094.95904845 278.32513729 -1088.45654297 273.28271484 C-1083.76642702 269.63571182 -1079.19152099 265.86258654 -1074.625 262.0625 C-1067.31199213 255.99871551 -1059.81037245 250.25117316 -1052.16894531 244.60986328 C-1049.8191213 242.86574582 -1047.48278118 241.10462228 -1045.1484375 239.33984375 C-1035.28143535 231.88452117 -1025.32646013 224.59329245 -1015.17919922 217.52441406 C-1012.91531553 215.94076072 -1010.66200834 214.34289595 -1008.41015625 212.7421875 C-994.84541375 203.12697141 -980.97599771 194.00256731 -967 185 C-965.73422119 184.18450684 -965.73422119 184.18450684 -964.44287109 183.35253906 C-941.7514871 168.78113434 -918.63846916 154.97606079 -895 142 C-893.11977581 140.96226831 -891.23956714 139.9245085 -889.359375 138.88671875 C-876.3433258 131.72442998 -863.21946726 124.77901092 -850 118 C-848.82743652 117.39671875 -847.65487305 116.7934375 -846.44677734 116.171875 C-827.30735577 106.34328483 -807.89652089 97.29793425 -788.17419434 88.70193481 C-783.97173074 86.86932945 -779.7838889 85.00901591 -775.609375 83.11328125 C-744.85009709 69.19476572 -713.05405646 57.63050818 -681.12091064 46.72735596 C-679.08735845 46.02995915 -677.0565877 45.32512797 -675.02685547 44.61669922 C-578.9087164 11.07958383 -477.74553124 -9.04743859 -310 -23 C-309.31858948 -23.02922546 -308.63717896 -23.05845093 -307.93511963 -23.08856201 C-216.21253691 -26.96939542 -123.83997153 -21.25535284 0 0 Z M-331.48297119 51.81640625 C-334.17759147 52.01295364 -336.87269795 52.20181885 -339.56787109 52.390625 C-439.92794316 59.52356541 -538.58760312 78.5705653 -735.0524292 146.17370605 C-736.95413766 146.98054203 -738.85780089 147.78256279 -740.76220703 148.58300781 C-776.74329421 163.73947373 -812.1049221 180.62004474 -846.27636719 199.50585938 C-848.93748588 200.96570577 -851.61031898 202.40091745 -854.2890625 203.828125 C-867.61553612 210.95182442 -880.53261157 218.65456015 -893.39395142 226.5776825 C-896.77236184 228.65363685 -900.16757218 230.69750421 -903.58105469 232.71533203 C-915.0686071 239.51611988 -926.27151614 246.65792827 -937.35449219 254.09912109 C-939.99582325 255.87219623 -942.64201899 257.63781105 -945.2890625 259.40234375 C-960.71429952 269.7066847 -976.04871786 280.17974847 -990.9375 291.25 C-991.71633545 291.82661377 -992.4951709 292.40322754 -993.29760742 292.99731445 C-999.92776363 297.9188015 -1006.49018944 302.92037509 -1013 308 C-1013.54398438 308.42313477 -1014.08796875 308.84626953 -1014.6484375 309.28222656 C-1023.59517647 316.24480971 -1032.41651198 323.35561446 -1041.19580078 330.52783203 C-1042.78273046 331.82271511 -1044.37348737 333.11290478 -1045.96484375 334.40234375 C-1052.20018523 339.46569741 -1058.31522114 344.65830564 -1064.3984375 349.90234375 C-1066.74782976 351.92744119 -1069.1067514 353.9402473 -1071.4765625 355.94140625 C-1079.02741651 362.33198369 -1086.31602415 368.95110013 -1093.515625 375.734375 C-1096.47005642 378.51520544 -1099.47043544 381.2384334 -1102.5 383.9375 C-1105.84933415 386.92758214 -1109.04649564 390.01372605 -1112.18763733 393.22007751 C-1113.97936402 394.97973339 -1115.83231984 396.61569576 -1117.73999023 398.24829102 C-1121.8358965 401.81201756 -1125.70332703 405.55833239 -1129.53515625 409.40234375 C-1130.21750839 410.08373917 -1130.89986053 410.76513458 -1131.60289001 411.46717834 C-1133.03344437 412.89705741 -1134.46275767 414.32817911 -1135.89086914 415.76049805 C-1138.05699074 417.93197711 -1140.22840174 420.09806325 -1142.40039062 422.26367188 C-1143.79979987 423.66374202 -1145.19889884 425.06412238 -1146.59765625 426.46484375 C-1147.55575951 427.41991066 -1147.55575951 427.41991066 -1148.53321838 428.39427185 C-1152.35306342 432.23371723 -1155.98418154 436.18832482 -1159.5153656 440.29518127 C-1161.25590406 442.29385688 -1163.09373558 444.15946884 -1165 446 C-1168.14920881 449.10713922 -1171.07976967 452.32490304 -1173.9609375 455.6796875 C-1176.03564374 458.04056012 -1178.16511178 460.33969449 -1180.31005859 462.63647461 C-1185.35630754 468.04092064 -1190.15722358 473.55141566 -1194.7890625 479.3203125 C-1197.1093495 482.13253315 -1199.53071134 484.81797263 -1202 487.5 C-1206.89506128 492.82631088 -1211.4617902 498.36940695 -1216 504 C-1217.4575077 505.77151295 -1218.91584922 507.54234017 -1220.375 509.3125 C-1225.15249743 515.15441396 -1229.81689455 521.08056708 -1234.45947266 527.02978516 C-1236.08669948 529.1108819 -1237.72088808 531.18639425 -1239.35546875 533.26171875 C-1246.31163298 542.11793735 -1253.06304171 551.08971776 -1259.6027832 560.2578125 C-1261.72660643 563.22921681 -1263.86259623 566.19077002 -1266.01757812 569.13964844 C-1273.94089798 579.99443116 -1281.51392509 591.04878134 -1288.9375 602.25 C-1289.78432343 603.52443466 -1289.78432343 603.52443466 -1290.64825439 604.82461548 C-1303.56899902 624.27003742 -1316.17281355 643.86600953 -1328 664 C-1328.57862793 664.98452148 -1329.15725586 665.96904297 -1329.75341797 666.98339844 C-1339.21240727 683.12479523 -1348.26363382 699.45703659 -1357 716 C-1357.56541504 717.06766602 -1358.13083008 718.13533203 -1358.71337891 719.23535156 C-1385.75391298 770.41729202 -1409.00545284 823.34293896 -1428.27203369 877.9397583 C-1429.04458046 880.12616864 -1429.82179952 882.31088847 -1430.59912109 884.49560547 C-1451.4651841 943.29246962 -1467.43635955 1003.70066165 -1479 1065 C-1479.15921936 1065.84054932 -1479.31843872 1066.68109863 -1479.48248291 1067.54711914 C-1489.66891633 1121.47330258 -1496.29069606 1176.1795306 -1499 1231 C-1499.08688587 1232.49748358 -1499.17388968 1233.99496031 -1499.26098633 1235.49243164 C-1500.25318829 1253.74302125 -1500.1873855 1272.00943511 -1500.18530273 1290.28100586 C-1500.18522215 1294.02161566 -1500.1920708 1297.76210123 -1500.20581055 1301.50268555 C-1500.30049595 1327.73053211 -1499.6584423 1353.82265157 -1498 1380 C-1497.92665436 1381.15974335 -1497.85330872 1382.31948669 -1497.77774048 1383.51437378 C-1497.36274466 1389.84980294 -1496.86843364 1396.17547567 -1496.3125 1402.5 C-1496.23140991 1403.43827637 -1496.15031982 1404.37655273 -1496.06677246 1405.34326172 C-1488.5158362 1491.74332942 -1472.17297379 1577.01009498 -1447 1660 C-1446.64838806 1661.1624826 -1446.64838806 1661.1624826 -1446.28967285 1662.34844971 C-1421.1204729 1745.4523919 -1387.54467413 1828.44611168 -1343.49804688 1903.4140625 C-1341.25307524 1907.289346 -1339.10393658 1911.21635113 -1336.94165039 1915.13818359 C-1329.07425073 1929.3750563 -1320.64191178 1943.22249893 -1312 1957 C-1311.41782715 1957.93376465 -1310.8356543 1958.8675293 -1310.23583984 1959.82958984 C-1284.54231626 2001.01185421 -1256.18364098 2040.86666869 -1225.34863281 2078.3515625 C-1223.49996708 2080.61119158 -1221.68711681 2082.89851035 -1219.875 2085.1875 C-1216.38179651 2089.57055112 -1212.77033076 2093.84569867 -1209.13623047 2098.11181641 C-1206.20623318 2101.55595484 -1203.33675907 2105.040656 -1200.5 2108.5625 C-1196.37309794 2113.63607493 -1191.99897442 2118.43741142 -1187.5546875 2123.23046875 C-1185.49886278 2125.45918393 -1183.48383043 2127.70767919 -1181.5 2130 C-1177.80104663 2134.25860589 -1173.99660957 2138.41828332 -1170.17041016 2142.5625 C-1168.16810568 2144.73144912 -1166.17168056 2146.90554676 -1164.17944336 2149.08374023 C-1153.9990205 2160.15421708 -1143.374371 2170.77976079 -1132.72998047 2181.40039062 C-1130.12472358 2183.99989821 -1127.52405734 2186.60394544 -1124.92464638 2189.20929718 C-1122.88968486 2191.24789385 -1120.85232134 2193.28407664 -1118.81425095 2195.31956482 C-1117.39505843 2196.7377839 -1115.97784711 2198.15798467 -1114.56069946 2199.57824707 C-1110.0833854 2204.03943474 -1105.5625205 2208.38078145 -1100.75534058 2212.48620605 C-1097.5795013 2215.22502856 -1094.55137638 2218.12422808 -1091.5 2221 C-1086.41400209 2225.76652725 -1081.30341454 2230.47506833 -1076 2235 C-1074.96722944 2235.88646428 -1073.93470072 2236.77321035 -1072.90234375 2237.66015625 C-1070.51258666 2239.71218259 -1068.12037501 2241.76130016 -1065.7265625 2243.80859375 C-1063.25825626 2245.92030934 -1060.79496691 2248.0376464 -1058.3359375 2250.16015625 C-1051.66217366 2255.91527166 -1044.91569003 2261.53600001 -1038 2267 C-1036.83515156 2267.93391639 -1035.67115093 2268.86889082 -1034.5078125 2269.8046875 C-1008.17481436 2290.98097747 -981.01364077 2311.10296271 -953 2330 C-952.16597656 2330.56332031 -951.33195313 2331.12664063 -950.47265625 2331.70703125 C-912.59981259 2357.24381929 -873.40960689 2380.70021153 -833 2402 C-831.8356543 2402.61375488 -830.67130859 2403.22750977 -829.47167969 2403.85986328 C-749.83167849 2445.75032522 -665.50425139 2478.71100309 -571 2504 C-569.82428436 2504.31133881 -569.82428436 2504.31133881 -568.62481689 2504.62896729 C-479.12456388 2528.27254642 -386.91952499 2541.22806694 -267 2545 C-265.15849365 2545.02489502 -265.15849365 2545.02489502 -263.27978516 2545.05029297 C-255.18463685 2545.14150274 -247.09480739 2545.10943236 -239 2545 C-238.33663635 2544.99139954 -237.67327271 2544.98279907 -236.98980713 2544.97393799 C-142.19694952 2543.69710797 -47.67366413 2531.72880568 320.19042969 2405.50048828 C322.84029616 2404.08529195 325.49644208 2402.68248011 328.15498352 2401.28366089 C343.71336741 2393.09592795 359.06756287 2384.6590711 374.18261719 2375.67041016 C376.98160473 2374.01090645 379.78990075 2372.36839203 382.6015625 2370.73046875 C424.80924733 2346.0928818 465.69126051 2318.38197937 504.25244141 2288.35742188 C506.23032172 2286.82109684 508.21468985 2285.29335127 510.19921875 2283.765625 C523.56806729 2273.45164252 536.61581703 2262.77667711 549.4699707 2251.82910156 C552.77239971 2249.02024634 556.12141696 2246.2789976 559.5 2243.5625 C564.88285937 2239.1854888 569.94271342 2234.50445873 575.01171875 2229.7734375 C577.3035841 2227.63645686 579.62758757 2225.54776652 582 2223.5 C587.14511733 2219.04089831 592.11735115 2214.39421152 597.10427856 2209.76028442 C598.3239091 2208.62778858 599.54443852 2207.4962596 600.76608276 2206.36593628 C611.13246548 2196.7699565 621.22860163 2186.92880417 631.20336914 2176.92700195 C633.58820255 2174.53673893 635.97843105 2172.15196242 638.36914062 2169.76757812 C639.91438372 2168.22167518 641.45931709 2166.67546257 643.00390625 2165.12890625 C643.70504044 2164.4297963 644.40617462 2163.73068634 645.1285553 2163.01039124 C649.05066533 2159.06978947 652.79651609 2155.03378829 656.4080658 2150.80601501 C658.03706741 2148.95794783 659.74126333 2147.22434964 661.5 2145.5 C664.49234375 2142.55399785 667.25324172 2139.47016993 669.9921875 2136.2890625 C671.94355185 2134.06435528 673.94168456 2131.88846735 675.9543457 2129.71923828 C680.76558918 2124.53179343 685.325289 2119.21911226 689.76171875 2113.703125 C692.04815705 2110.94184175 694.43608218 2108.31461778 696.875 2105.6875 C701.11620981 2101.07919939 704.99478028 2096.28429105 708.8215332 2091.33496094 C711.96790157 2087.27691422 715.21864945 2083.333946 718.5625 2079.4375 C723.40785577 2073.76873934 727.99568518 2067.92842731 732.49511719 2061.98193359 C734.23057784 2059.69632853 735.97825436 2057.4203234 737.7265625 2055.14453125 C746.3512253 2043.90205913 754.80992681 2032.56301516 763 2021 C763.87978516 2019.7615332 763.87978516 2019.7615332 764.77734375 2018.49804688 C781.71111681 1994.60102042 797.89506502 1970.09513854 813 1945 C813.92474121 1943.46496826 813.92474121 1943.46496826 814.86816406 1941.89892578 C858.38436378 1869.46834323 894.52188194 1793.54855883 935 1678 C935.24665405 1677.23210144 935.49330811 1676.46420288 935.74743652 1675.67303467 C948.17217098 1636.97246616 958.35169975 1597.71040571 967 1558 C967.15664124 1557.28080383 967.31328247 1556.56160767 967.47467041 1555.82061768 C980.37659394 1496.29152824 987.97108141 1435.74468395 992 1375 C992.06058594 1374.08891479 992.12117188 1373.17782959 992.18359375 1372.23913574 C997.97699463 1283.47538331 993.28570285 1193.67243262 903 828 C902.71638611 827.29568848 902.43277222 826.59137695 902.14056396 825.86572266 C883.89046132 780.57828046 863.05455643 735.63586774 838.41503906 693.46728516 C836.44152852 690.02624003 834.57627331 686.53066944 832.70605469 683.03271484 C818.1216737 655.78603929 801.34849947 629.55708233 784 604 C783.26015869 602.90872803 783.26015869 602.90872803 782.50537109 601.79541016 C766.59063899 578.35165376 750.13925755 555.35893451 732.62988281 533.07519531 C731.08040732 531.102376 729.53555489 529.12603699 727.9921875 527.1484375 C720.22488508 517.20778283 712.26060329 507.44651022 704.0859375 497.83789062 C701.17412087 494.40959255 698.32236523 490.94025685 695.5 487.4375 C691.3754401 482.36680449 687.00383401 477.56807521 682.5625 472.77734375 C679.89266441 469.88366523 677.2972541 466.93613472 674.71484375 463.96484375 C664.02570192 451.71737601 652.93174513 439.82876406 641.37109375 428.40234375 C639.36241694 426.36719344 637.47598654 424.30183258 635.625 422.125 C628.81481558 414.16610977 621.21012884 406.77036392 613.22265625 400.00390625 C610.02704038 397.12279739 607.02610157 394.05739651 604 391 C599.84416306 386.80557742 595.68680056 382.7100615 591.17578125 378.89453125 C588.10326528 376.21918072 585.15663841 373.4140347 582.1875 370.625 C577.16557024 365.92273859 572.01669042 361.47822791 566.64453125 357.17578125 C563.84160752 354.869683 561.16996725 352.45848469 558.5 350 C553.68809567 345.58118081 548.71730367 341.42766238 543.6328125 337.328125 C541.78569216 335.82568262 539.95472155 334.30483137 538.125 332.78125 C529.66592736 325.74535584 521.08430849 318.922633 512.3125 312.28125 C508.61777049 309.48160068 504.96467775 306.63212201 501.31860352 303.76953125 C491.72896692 296.24808487 481.94270337 289.04658737 472 282 C470.83694336 281.17314697 470.83694336 281.17314697 469.65039062 280.32958984 C441.55530771 260.38576256 412.69060963 241.48316471 383 224 C382.07396973 223.45134277 381.14793945 222.90268555 380.19384766 222.33740234 C360.62856779 210.74981715 340.69153231 199.91038098 320.5390625 189.3828125 C317.54250778 187.81599487 314.55956161 186.22707784 311.5859375 184.6171875 C299.38876667 178.04426767 286.88665468 172.19020293 274.28913879 166.43218994 C270.50157966 164.69834303 266.73209151 162.93064014 262.97265625 161.13671875 C217.51582911 139.55147242 169.89388574 122.31872504 122 107 C121.32078491 106.78255127 120.64156982 106.56510254 119.94177246 106.34106445 C95.87091974 98.65588818 71.49950178 92.16520144 47 86 C46.19433594 85.79654968 45.38867188 85.59309937 44.55859375 85.38348389 C-26.42565644 67.48601065 -99.04040055 57.20854076 -172 52 C-173.25873932 51.90751984 -173.25873932 51.90751984 -174.54290771 51.81317139 C-226.35481079 48.01796945 -279.67098002 48.03153537 -331.48297119 51.81640625 Z " fill="#A930D0" transform="translate(1579,34)"/>
<path d="M0 0 C29.74927461 -0.06890416 59.49854649 -0.12176657 89.24788409 -0.15319599 C92.78512924 -0.1569467 96.32237423 -0.16082981 99.85961914 -0.16479492 C100.56362134 -0.16558185 101.26762355 -0.16636878 101.99295915 -0.16717956 C113.29140707 -0.18012232 124.58980771 -0.20371233 135.88822787 -0.23145839 C147.53998076 -0.25982676 159.19170944 -0.27624137 170.84349543 -0.28226548 C177.36345783 -0.28612723 183.8833142 -0.29499608 190.40324211 -0.31719017 C274.44418611 -0.59172062 358.27172191 8.38547563 456 48 C456.95890137 48.42490723 457.91780273 48.84981445 458.90576172 49.28759766 C473.09232337 55.65074344 486.59643593 63.13735616 500 71 C501.20849609 71.70576172 501.20849609 71.70576172 502.44140625 72.42578125 C519.83623826 82.63899057 536.42388691 94.18100622 552 107 C552.81404297 107.65959717 552.81404297 107.65959717 553.64453125 108.33251953 C562.91203234 115.88271143 571.40929263 124.20192737 579.875 132.625 C580.40920563 133.1539386 580.94341125 133.6828772 581.49380493 134.22784424 C588.46759132 141.14840789 594.90649452 148.27581606 601 156 C601.9288227 157.13458986 602.85945337 158.26770553 603.79296875 159.3984375 C655.29329866 223.41679214 679.29970951 304.89203456 679.1875 386.3125 C679.18689575 387.13393494 679.1862915 387.95536987 679.18566895 388.80169678 C678.99274748 486.31879303 645.95476742 572.61324991 577.3203125 641.73046875 C575.00762755 644.02903827 572.66905542 646.25755542 570.1875 648.375 C568.0473092 650.21409932 565.93330621 652.06205209 563.8671875 653.984375 C556.03785337 661.2563667 547.56530858 667.63112993 539 674 C538.39639648 674.45020508 537.79279297 674.90041016 537.17089844 675.36425781 C522.89623912 685.95408217 507.75870421 695.377182 492.13574219 703.84179688 C490.65948237 704.64236576 489.18635974 705.44873704 487.71582031 706.25976562 C466.29514674 718.04855866 443.79768049 727.40583864 420.6887207 735.3425293 C418.99392624 735.87194462 418.99392624 735.87194462 418 737 C418.59087402 737.10957031 419.18174805 737.21914062 419.79052734 737.33203125 C489.73552559 750.53477022 550.08886842 785.89527005 600.08666992 835.90136719 C601.55955972 837.3720641 603.04030265 838.83453534 604.52148438 840.296875 C610.79068862 846.52963872 616.49500448 853.07854342 622 860 C622.86335829 861.02757521 623.73174922 862.05098942 624.609375 863.06640625 C691.19897844 940.71377231 720.44168854 1045.23975441 712.984375 1146.22192383 C706.10330647 1229.44550511 673.83070059 1309.67574334 616.6640625 1371.11328125 C614.35026117 1373.6204648 612.11051799 1376.17354394 609.875 1378.75 C584.42886387 1407.06908698 551.94902594 1430.27700734 519 1449 C517.84056885 1449.65983887 517.84056885 1449.65983887 516.65771484 1450.33300781 C492.65055143 1463.90126325 467.91736777 1475.56399872 442 1485 C441.376698 1485.22709656 440.753396 1485.45419312 440.11120605 1485.68817139 C376.95141774 1508.60681961 309.5656903 1518.91466613 242.54833984 1520.55540466 C241.28922134 1520.5868907 241.28922134 1520.5868907 240.00466609 1520.61901283 C215.75737769 1521.20698832 191.5051946 1521.1353307 167.25241399 1521.11606562 C161.01745975 1521.11162131 154.78250507 1521.11303149 148.54754973 1521.11374746 C135.82980343 1521.11504762 123.1120624 1521.11177313 110.39431763 1521.10573006 C97.83399428 1521.09977732 85.27367314 1521.09595698 72.71334839 1521.09487724 C71.92726666 1521.0948085 71.14118492 1521.09473976 70.33128253 1521.09466894 C66.33785533 1521.09433053 62.34442812 1521.09402917 58.35100091 1521.09374207 C30.19379729 1521.09165139 2.03659654 1521.0849415 -26.12060547 1521.07543945 C-53.44514959 1521.06622916 -80.76969292 1521.05917523 -108.09423828 1521.05493164 C-109.81771235 1521.054661 -111.54118641 1521.05439029 -113.26466048 1521.05411953 C-127.2725451 1521.0519302 -141.28042974 1521.04988784 -155.28831439 1521.04788104 C-219.85887897 1521.03852501 -284.42943607 1521.01844639 -349 1521 C-349 1398.9 -349 1276.8 -349 1151 C-345.7 1151 -342.4 1151 -339 1151 C-338.84144531 1152.3303125 -338.68289063 1153.660625 -338.51953125 1155.03125 C-335.4740169 1179.19068102 -328.7335362 1198.71776637 -311 1216 C-310.34515625 1216.66386719 -309.6903125 1217.32773438 -309.015625 1218.01171875 C-292.60729493 1233.61365653 -268.23675866 1240.45678732 -246.06640625 1240.1484375 C-225.21913425 1239.13927019 -204.97863226 1232.77146711 -189 1219 C-188.33742188 1218.48050781 -187.67484375 1217.96101563 -186.9921875 1217.42578125 C-170.58432648 1204.13863105 -161.34523539 1182.81118461 -159.02099609 1162.25512695 C-158.6347455 1158.50640839 -158.30434513 1154.75625966 -158 1151 C-155.36 1151 -152.72 1151 -150 1151 C-150 1218.65 -150 1286.3 -150 1356 C-84.25974362 1355.88020321 -84.25974362 1355.88020321 -18.51953125 1355.7421875 C-9.63232454 1355.72218296 -0.74511758 1355.70229908 8.14208984 1355.68261719 C9.25577906 1355.68014575 10.36946829 1355.67767431 11.51690567 1355.67512798 C29.43814196 1355.6355337 47.35938446 1355.60273652 65.28063871 1355.57250018 C83.70678426 1355.54125882 102.13290374 1355.50259647 120.55901992 1355.45720994 C131.90607833 1355.42948922 143.25311794 1355.40738609 154.60020088 1355.39273749 C162.40764226 1355.38210084 170.21504699 1355.36418135 178.02246059 1355.34083296 C182.51012772 1355.32761822 186.99774407 1355.31732687 191.48543167 1355.31578636 C217.47311386 1355.30383943 243.47425657 1354.89092247 269.25 1351.1875 C270.47775146 1351.01573242 271.70550293 1350.84396484 272.97045898 1350.66699219 C330.4925759 1342.38445929 387.4283943 1323.47755468 432 1285 C432.77988281 1284.33097656 433.55976562 1283.66195313 434.36328125 1282.97265625 C436.95559305 1280.69430692 439.48487971 1278.36343702 442 1276 C442.55703613 1275.47696289 443.11407227 1274.95392578 443.68798828 1274.41503906 C453.58438821 1265.0428636 462.08609567 1255.08846815 470 1244 C470.44682129 1243.38189453 470.89364258 1242.76378906 471.35400391 1242.12695312 C510.06309101 1188.17149459 520.71395633 1113.36214254 510.96875 1048.6953125 C510.6516348 1046.79589731 510.32864201 1044.89745475 510 1043 C509.83371094 1041.9903418 509.66742187 1040.98068359 509.49609375 1039.94042969 C499.25836619 979.06386823 467.48695598 922.50131564 417 886 C415.88730645 885.17022794 414.77533486 884.33948692 413.6640625 883.5078125 C339.29722337 828.47399647 249.15566293 821.07984727 159.8137331 820.69667697 C154.8437217 820.67443224 149.87373712 820.64723647 144.90374756 820.62062073 C135.54071313 820.57120322 126.17766342 820.52608099 116.81459975 820.48259836 C106.13457115 820.43278331 95.4545695 820.37803304 84.77456713 820.32291877 C62.84973666 820.20988339 40.92488032 820.10288138 19 820 C19.32068354 818.55285311 19.6416127 817.10576064 19.96264648 815.65869141 C20.23068336 814.44990829 20.23068336 814.44990829 20.50413513 813.21670532 C20.85922597 811.62931366 21.22495987 810.04428812 21.59765625 808.4609375 C27.36558531 782.57796173 21.70067335 757.7824747 9 735 C8.64389648 734.35788574 8.28779297 733.71577148 7.92089844 733.05419922 C0.96910201 720.66798768 -7.29901933 709.69168739 -16.9375 699.25 C-18.75057094 697.27210442 -20.47039014 695.24803183 -22.1875 693.1875 C-30.89069702 683.26944023 -41.04185575 674.90470171 -51.66552734 667.13793945 C-52.3611377 666.62448975 -53.05674805 666.11104004 -53.7734375 665.58203125 C-54.39653809 665.13061768 -55.01963867 664.6792041 -55.66162109 664.21411133 C-56.10328613 663.81345459 -56.54495117 663.41279785 -57 663 C-57 662.34 -57 661.68 -57 661 C-44.09148304 655.3314061 -31.98981699 655.29557531 -18.08349609 655.37231445 C-15.69486434 655.3671272 -13.30623653 655.35972069 -10.9176178 655.35028076 C-5.79732147 655.3347814 -0.6773528 655.33484305 4.4429512 655.34728432 C11.87727717 655.36527802 19.31129723 655.35503682 26.74561112 655.33680775 C38.85321124 655.3077321 50.96072896 655.29928854 63.06835938 655.30541992 C74.74773098 655.31126312 86.42707469 655.31237751 98.10644531 655.3034668 C98.82389568 655.30292423 99.54134604 655.30238165 100.28053732 655.30182264 C108.14994757 655.2956284 116.01935089 655.2868423 123.88875389 655.27447033 C124.58499237 655.27337784 125.28123084 655.27228536 125.99856745 655.27115976 C128.78599561 655.2667361 131.5734236 655.26226034 134.36085109 655.25743415 C143.09790714 655.2423374 151.83482074 655.23903484 160.57188958 655.24773705 C197.33545853 655.38146751 197.33545853 655.38146751 234 653 C234.81808419 652.91789937 235.63616838 652.83579874 236.47904301 652.75121021 C240.77060938 652.31189876 245.041119 651.79203858 249.3125 651.1875 C250.54701904 651.01645752 251.78153809 650.84541504 253.0534668 650.66918945 C301.81459119 643.66831691 351.04457984 628.0522342 390 597 C390.88558594 596.30648437 391.77117188 595.61296875 392.68359375 594.8984375 C403.16942139 586.52803808 413.57905151 577.48859209 422 567 C422.804375 566.03320312 423.60875 565.06640625 424.4375 564.0703125 C460.08162763 520.61854649 474.26108434 465.85790481 474.1875 410.5 C474.18689575 409.65895721 474.1862915 408.81791443 474.18566895 407.9513855 C474.16083283 395.20394861 473.85941441 382.63189138 472 370 C471.87109375 369.09894531 471.7421875 368.19789063 471.609375 367.26953125 C465.21885868 323.89686029 448.77242259 282.67525999 419 250 C417.97770706 248.85691169 416.95557671 247.71367796 415.93359375 246.5703125 C410.6086234 240.66089418 405.21010135 234.99200792 399 230 C397.98550781 229.17113281 396.97101562 228.34226562 395.92578125 227.48828125 C346.31485279 187.4004354 282.82444822 170.17181222 220 166 C218.70968872 165.91011307 217.41937744 165.82022614 216.08996582 165.72761536 C204.72584888 164.99637303 193.506808 165.07191445 182.13108253 165.4426403 C175.93008046 165.62226993 169.72655845 165.68961132 163.52361012 165.77020931 C158.13022531 165.84619605 152.74492502 165.96611406 147.35522461 166.18286133 C108.04156522 167.70734596 108.04156522 167.70734596 96.2865057 157.47446918 C90.77011244 152.22160847 86.36240613 146.22614539 82 140 C80.21795423 137.64918952 78.40040819 135.32662544 76.58227539 133.00366211 C72.84177615 128.1968497 69.59191359 123.38148277 66.75 118 C66.3372583 117.22930176 65.9245166 116.45860352 65.49926758 115.66455078 C64.6870566 114.13566432 63.88115694 112.60340325 63.08251953 111.06738281 C62.15580889 109.29756195 61.18920424 107.54872882 60.21484375 105.8046875 C56.03703539 97.7909886 54.53356161 89.6116472 52.81201172 80.79760742 C51.29262195 73.10622301 49.39666207 66.10055991 46 59 C45.6690332 58.30132813 45.33806641 57.60265625 44.99707031 56.8828125 C34.81876893 35.68768184 20.62063105 17.46768109 2.203125 2.828125 C1.47609375 2.22484375 0.7490625 1.6215625 0 1 C0 0.67 0 0.34 0 0 Z " fill="#A72ECE" transform="translate(1304,571)"/>
<path d="M0 0 C13.27565905 11.32938187 23.1978222 26.80275291 24.60961914 44.52563477 C24.7095667 47.24075151 24.73401067 49.94328078 24.71875 52.66015625 C24.71746094 53.61680176 24.71617187 54.57344727 24.71484375 55.55908203 C24.61004974 63.34396726 23.55800519 70.46712923 21.40625 77.97265625 C28.64318811 71.23906005 34.96899593 64.70801438 40.0871582 56.22192383 C52.59356131 35.71302209 74.97108563 14.25724249 98.59375 8.16015625 C123.28785069 3.47447084 145.28834917 8.54002476 166.21875 21.91015625 C188.69555135 37.75094959 207.24603773 59.6187603 213.40625 86.97265625 C213.60927734 88.73802734 213.60927734 88.73802734 213.81640625 90.5390625 C216.65786759 114.58403371 232.65389105 141.18858601 248.40625 158.97265625 C249.51419922 160.24496094 249.51419922 160.24496094 250.64453125 161.54296875 C257.03928029 168.70263992 263.81833701 175.48812931 270.59375 182.28515625 C271.06710785 182.76119293 271.5404657 183.23722961 272.02816772 183.72769165 C277.1015893 188.8228541 282.21504728 193.80501711 287.67456055 198.48608398 C290.07678123 200.54827513 292.39341241 202.69952168 294.71875 204.84765625 C299.20854374 208.94219992 303.81905767 212.8298857 308.55078125 216.640625 C311.03685809 218.67097777 313.46802386 220.75189975 315.89013672 222.85766602 C336.97235423 241.08696977 360.93420794 255.85267227 385.84375 268.22265625 C386.50608643 268.55249512 387.16842285 268.88233398 387.85083008 269.22216797 C390.70075094 270.6387094 393.55357056 272.04298133 396.42578125 273.4140625 C408.07450332 279.26342079 416.75002785 288.59171975 424.40625 298.97265625 C422.50854474 304.12198514 418.51340963 305.3031959 413.796875 307.52734375 C405.39073094 311.11060792 396.68507444 313.22907958 387.78125 315.16015625 C387.01804443 315.32725098 386.25483887 315.4943457 385.46850586 315.66650391 C376.01720927 317.62430849 366.49946601 318.13153364 356.8671875 318.2109375 C355.90205231 318.21900925 354.93691711 318.22708099 353.9425354 318.23539734 C351.91401909 318.24912082 349.88548083 318.25989446 347.85693359 318.26782227 C345.81714935 318.27931811 343.77739462 318.29973172 341.73779297 318.3293457 C325.74084118 318.56060514 310.97808049 317.54826808 296.28125 310.66015625 C295.64509766 310.3674585 295.00894531 310.07476074 294.35351562 309.77319336 C292.36403506 308.85401226 290.3854948 307.91364027 288.40625 306.97265625 C286.96169209 306.30175826 285.51636977 305.63250387 284.0703125 304.96484375 C280.50793763 303.31678313 276.95487886 301.65009719 273.40625 299.97265625 C273.97432373 300.40497559 274.54239746 300.83729492 275.12768555 301.28271484 C279.72522861 304.78210828 284.32090688 308.28391182 288.9140625 311.7890625 C292.02540921 314.16256345 295.1409501 316.52947957 298.2734375 318.875 C321.20357836 336.10395876 321.20357836 336.10395876 324.40625 345.97265625 C324.515625 348.73046875 324.515625 348.73046875 324.40625 350.97265625 C312.85631581 356.74762335 292.04171441 349.69698789 280.40625 345.97265625 C279.47167969 345.68471191 278.53710938 345.39676758 277.57421875 345.10009766 C261.93371385 340.27009246 247.02997026 334.32520564 232.40625 326.97265625 C233.02113281 327.90207031 233.63601563 328.83148437 234.26953125 329.7890625 C235.08622549 331.03757208 235.90261552 332.28628069 236.71875 333.53515625 C237.12287109 334.14423828 237.52699219 334.75332031 237.94335938 335.38085938 C241.44169396 340.7563491 244.88868936 346.14901246 244.65625 352.78515625 C244.64078125 353.53410156 244.6253125 354.28304688 244.609375 355.0546875 C244.40625 356.97265625 244.40625 356.97265625 243.40625 358.97265625 C203.53919637 357.19123167 167.11844917 336.79642195 140.39453125 307.75390625 C138.90349373 306.08279174 137.42618357 304.39915372 135.97265625 302.6953125 C134.50261716 300.87046947 134.50261716 300.87046947 132.40625 299.97265625 C132.78434814 300.92519287 133.16244629 301.87772949 133.55200195 302.85913086 C134.96902191 306.43090955 136.38279858 310.00396486 137.7956543 313.57739258 C138.40481143 315.1167992 139.01481969 316.65586932 139.62573242 318.19458008 C148.85133872 341.43586625 148.85133872 341.43586625 147.40625 345.97265625 C136.96215639 346.67307982 127.78896972 339.05360334 120.21264648 332.49902344 C79.2781095 295.57357079 47.08140848 232.84716648 39.74609375 178.375 C38.42400197 168.77272906 35.82097967 163.34451049 28.40625 156.97265625 C27.58253906 156.2559375 26.75882813 155.53921875 25.91015625 154.80078125 C23.46511808 152.771514 20.95211741 150.87286226 18.40625 148.97265625 C17.75785156 148.40417969 17.10945313 147.83570313 16.44140625 147.25 C9.05303171 141.29540903 -0.47754454 141.02987642 -9.59375 139.97265625 C-5.42666319 151.03131923 -5.42666319 151.03131923 0.37109375 161.2890625 C3.63264739 166.59370257 4.28175436 172.91863673 3.40625 178.97265625 C1.58250548 185.1521401 -1.16036997 190.99344354 -3.75390625 196.87890625 C-29.19519628 254.8004936 -21.25248846 319.07317359 -6.77832031 379.14477539 C-6.49311523 380.37188232 -6.20791016 381.59898926 -5.9140625 382.86328125 C-5.65898926 383.90516602 -5.40391602 384.94705078 -5.14111328 386.02050781 C-3.57095852 397.35755747 -4.75924096 409.07076796 -5.38818359 420.46362305 C-5.47392068 422.06716264 -5.55933481 423.67071953 -5.64445496 425.27429199 C-5.87459308 429.59144539 -6.10939947 433.90833283 -6.3452487 438.22517753 C-6.5936211 442.78343724 -6.83809997 447.34190611 -7.0831604 451.90034485 C-7.49584663 459.56562447 -7.91154408 467.23073623 -8.32910156 474.89575195 C-8.80781403 483.68397281 -9.28198851 492.47242923 -9.75361955 501.26103276 C-10.21130766 509.78806579 -10.67212941 518.3149268 -11.13435745 526.84171486 C-11.32903987 530.43380535 -11.52271987 534.02594763 -11.71552658 537.61813927 C-12.79760006 557.7551523 -13.98473773 577.86954373 -15.59375 597.97265625 C-14.52545959 597.67268738 -13.45716919 597.37271851 -12.35650635 597.06365967 C-2.77962487 594.37749327 6.81959905 591.77956215 16.4296875 589.21484375 C131.76443552 560.10978027 131.76443552 560.10978027 241.40625 514.97265625 C242.42332031 514.46089844 243.44039062 513.94914062 244.48828125 513.421875 C251.11548916 509.98314195 256.78437638 505.87849089 262.40625 500.97265625 C263.02113281 500.45316406 263.63601563 499.93367188 264.26953125 499.3984375 C272.54923972 491.84201391 280.06359975 479.6621732 283.40625 468.97265625 C283.55283066 464.50194597 282.70887654 462.05081486 280.03125 458.59765625 C277.22911198 455.79551823 275.87069133 455.01306065 271.94628906 454.90478516 C261.5503886 455.48718384 252.07743934 458.36157466 242.15625 461.34765625 C211.06935913 470.6514282 211.06935913 470.6514282 195.78125 470.34765625 C194.99258545 470.33750488 194.2039209 470.32735352 193.39135742 470.31689453 C171.74763823 469.75324463 151.47823132 460.97988012 134.40625 447.97265625 C136.00983962 444.12768569 138.59305139 441.34434533 141.40625 438.34765625 C141.89754395 437.82059082 142.38883789 437.29352539 142.89501953 436.75048828 C144.39253987 435.15188171 145.89863398 433.56173784 147.40625 431.97265625 C148.22867188 431.09609375 149.05109375 430.21953125 149.8984375 429.31640625 C170.34021966 408.13737949 196.49037684 393.833568 226.17578125 392.97265625 C254.87175612 392.66674066 286.07879791 398.39829215 307.40625 418.97265625 C324.25988826 437.10117963 330.49241963 457.59171752 329.78125 482.03515625 C328.62775779 504.93197672 315.36820917 525.45726528 299.79443359 541.52880859 C298.48355795 542.89224837 297.20356789 544.28518964 295.92578125 545.6796875 C278.66994207 563.95214976 255.91022081 576.32448714 233.40625 586.97265625 C232.31618652 587.49375977 232.31618652 587.49375977 231.20410156 588.02539062 C176.12550591 614.19065952 114.80298191 629.80191454 56.23999023 646.14428711 C55.56852463 646.33269165 54.89705902 646.52109619 54.20524597 646.71520996 C52.43482607 647.21134145 50.66326015 647.70337848 48.89160156 648.19506836 C46.48820295 648.7361334 46.48820295 648.7361334 45.40625 649.97265625 C46.04312744 650.26809326 46.68000488 650.56353027 47.33618164 650.86791992 C63.11525157 658.22339623 78.41135462 666.12718261 93.40625 674.97265625 C94.25396973 675.47216797 95.10168945 675.97167969 95.97509766 676.48632812 C105.10599379 681.89696341 113.99990334 687.47192837 122.40625 693.97265625 C123.20804688 694.58238281 124.00984375 695.19210937 124.8359375 695.8203125 C149.8712969 715.29670232 176.96572918 743.46159842 182.40625 775.97265625 C182.68829057 779.29103461 182.7408104 782.58095417 182.71875 785.91015625 C182.71137817 787.22947144 182.71137817 787.22947144 182.70385742 788.57543945 C182.59147731 794.78746606 182.05722903 800.2767776 179.40625 805.97265625 C179.05433594 806.73449219 178.70242188 807.49632812 178.33984375 808.28125 C170.73601253 823.16267546 157.72194008 830.40919544 142.40625 835.97265625 C129.39263424 840.14603682 115.9421002 841.50107334 102.40625 842.97265625 C103.26605469 843.50632812 104.12585937 844.04 105.01171875 844.58984375 C126.37310696 857.98870594 149.14771421 874.78024531 155.29296875 900.71484375 C157.64252408 915.35092729 154.7737456 926.55869972 146.50390625 938.78515625 C140.5608997 946.57636037 133.36312515 952.37787839 125.40625 957.97265625 C124.8582373 958.36163086 124.31022461 958.75060547 123.74560547 959.15136719 C96.76362741 977.85303277 59.26992358 987.69564266 27.40454102 994.48291016 C25.35098786 994.90801592 25.35098786 994.90801592 23.40625 995.97265625 C24.19386719 996.61589844 24.98148438 997.25914062 25.79296875 997.921875 C37.84773991 1007.87658994 48.88918003 1018.52843593 58.40625 1030.97265625 C59.16542725 1031.95782227 59.16542725 1031.95782227 59.93994141 1032.96289062 C86.79750596 1067.97882247 105.83619403 1107.93662641 123.02449036 1148.38676453 C124.62696124 1152.15650678 126.24816056 1155.91738538 127.88699341 1159.67146301 C129.19224514 1162.66459076 130.48557103 1165.66287489 131.78125 1168.66015625 C132.26416504 1169.7591626 132.74708008 1170.85816895 133.24462891 1171.99047852 C133.67694824 1172.99908936 134.10926758 1174.0077002 134.5546875 1175.046875 C135.12968994 1176.37078247 135.12968994 1176.37078247 135.71630859 1177.72143555 C136.40625 1179.97265625 136.40625 1179.97265625 135.40625 1182.97265625 C130.47712925 1178.32882223 126.17311796 1173.33810826 121.9296875 1168.06640625 C119.12562357 1164.62860651 116.24358787 1161.26705105 113.34375 1157.91015625 C109.3473505 1153.2728658 105.44810681 1148.58207699 101.6484375 1143.78125 C93.82253603 1133.9784222 85.78971843 1124.34203813 77.5859375 1114.85375977 C74.701231 1111.51086571 71.90558631 1108.11631626 69.15625 1104.66015625 C63.30183015 1097.44818976 56.81174698 1090.82003308 50.41210938 1084.09619141 C47.93320897 1081.47186379 45.49466456 1078.81229559 43.05761719 1076.14916992 C38.73953294 1071.43847452 34.44929511 1066.87825509 29.52734375 1062.78515625 C27.30745088 1060.88823122 25.19970729 1058.89101407 23.08520508 1056.87817383 C15.57936018 1049.77137098 7.56479598 1043.48119683 -0.74462891 1037.34277344 C-2.25110425 1036.22654164 -3.74302786 1035.09069191 -5.23046875 1033.94921875 C-13.84101536 1027.54766053 -24.38316858 1021.37618339 -34.59375 1017.97265625 C-34.58106079 1018.67081955 -34.56837158 1019.36898285 -34.55529785 1020.08830261 C-34.47318134 1028.2673168 -34.98728107 1036.31534745 -35.6875 1044.4609375 C-35.8001125 1045.81703019 -35.91220321 1047.1731663 -36.02380371 1048.52934265 C-36.3156015 1052.06306719 -36.61272068 1055.59632028 -36.91156006 1059.12945557 C-37.39075367 1064.79935144 -37.86402763 1070.46973032 -38.33283997 1076.14049339 C-38.49641566 1078.105382 -38.66387489 1080.06994608 -38.8314209 1082.03450012 C-39.30308254 1087.69811721 -39.74115631 1093.28856377 -39.59375 1098.97265625 C-38.84351563 1099.19179687 -38.09328125 1099.4109375 -37.3203125 1099.63671875 C-23.80468603 1103.82417985 -13.08096388 1110.05496517 -6.29150391 1122.7878418 C0.75239206 1136.72334194 2.88478274 1150.69025689 -1.55859375 1166.06640625 C-6.56879457 1180.13278138 -14.27984475 1190.01763112 -27.59375 1196.97265625 C-42.49521348 1203.41494467 -60.02643814 1204.53678488 -75.51953125 1199.29296875 C-90.40988062 1192.89787588 -99.53699735 1182.70348402 -105.59375 1167.97265625 C-110.13170958 1155.28458197 -109.3260678 1138.16267774 -103.59375 1125.97265625 C-101.82737198 1122.75248958 -99.85322521 1119.8638739 -97.59375 1116.97265625 C-97.15417969 1116.3590625 -96.71460938 1115.74546875 -96.26171875 1115.11328125 C-90.54769349 1107.67022817 -82.60850529 1103.36511812 -73.72265625 1100.765625 C-72.56967041 1100.42426514 -71.41668457 1100.08290527 -70.22875977 1099.73120117 C-69.35920654 1099.48088135 -68.48965332 1099.23056152 -67.59375 1098.97265625 C-67.66891846 1098.04637421 -67.74408691 1097.12009216 -67.8215332 1096.16574097 C-68.53030673 1087.42641067 -69.23677141 1078.68689744 -69.94065857 1069.94717216 C-70.30259388 1065.45426091 -70.66541416 1060.96142482 -71.03027344 1056.46875 C-71.3825024 1052.13119104 -71.73238509 1047.79344856 -72.08065796 1043.45557022 C-72.21378442 1041.80255542 -72.34774895 1040.14960789 -72.48257446 1038.4967308 C-72.67160741 1036.17751906 -72.85762998 1033.8580837 -73.04296875 1031.53857422 C-73.1271254 1030.51897362 -73.1271254 1030.51897362 -73.21298218 1029.47877502 C-73.51667269 1025.63302807 -73.64629218 1021.82989521 -73.59375 1017.97265625 C-103.90866182 1031.47787763 -128.1590764 1053.50724477 -151.46875 1076.72265625 C-152.26555176 1077.51478516 -153.06235352 1078.30691406 -153.88330078 1079.12304688 C-158.10025692 1083.351503 -162.15703807 1087.6594147 -166.05224609 1092.18603516 C-168.13723806 1094.60256529 -170.30313076 1096.94089166 -172.46875 1099.28515625 C-176.53915056 1103.74788457 -180.39551909 1108.33523625 -184.1875 1113.03515625 C-186.89153543 1116.33618652 -189.67479569 1119.56036893 -192.46875 1122.78515625 C-196.45633128 1127.39731364 -200.30113933 1132.08767546 -204.03125 1136.91015625 C-208.46389859 1142.63713822 -213.12410124 1148.12528345 -217.89379883 1153.57348633 C-221.06583413 1157.19954786 -224.17957631 1160.8583872 -227.21875 1164.59765625 C-230.63660847 1168.8018124 -234.06428897 1172.99640958 -237.53125 1177.16015625 C-238.00449707 1177.73781738 -238.47774414 1178.31547852 -238.96533203 1178.91064453 C-240.13056168 1180.30290548 -241.35731684 1181.6432264 -242.59375 1182.97265625 C-243.25375 1182.97265625 -243.91375 1182.97265625 -244.59375 1182.97265625 C-241.94832732 1174.38461741 -238.39997904 1166.21138767 -234.84375 1157.97265625 C-234.35304016 1156.83215317 -234.35304016 1156.83215317 -233.85241699 1155.66860962 C-216.75839578 1115.96391672 -199.3311254 1075.98874209 -173.59375 1040.97265625 C-173.17432129 1040.39918457 -172.75489258 1039.82571289 -172.32275391 1039.23486328 C-167.21482871 1032.29945774 -161.76651752 1025.77126801 -155.89453125 1019.4609375 C-153.89722565 1017.30086337 -151.98831662 1015.0971768 -150.09375 1012.84765625 C-144.60510188 1006.52660652 -138.14808104 1001.15081102 -131.59375 995.97265625 C-136.0957515 994.35133243 -140.63207983 993.2163167 -145.28100586 992.12207031 C-183.01112081 983.16926576 -233.30651869 969.7288935 -256.46875 935.59765625 C-263.2784563 924.10325838 -265.3322267 912.85088807 -263.00390625 899.62109375 C-256.66628816 875.61407961 -235.07007054 857.71186087 -214.53125 845.66015625 C-212.8876874 844.76016363 -211.24226369 843.86354757 -209.59375 842.97265625 C-210.27252197 842.90272461 -210.95129395 842.83279297 -211.65063477 842.76074219 C-237.16920079 840.07389529 -265.32267838 836.21453228 -282.59375 814.97265625 C-290.69888371 802.4983489 -292.53132623 787.51221704 -289.56347656 773.10327148 C-281.43951541 738.41598411 -251.91218279 708.57407804 -223.59375 688.97265625 C-222.93938965 688.51665039 -222.2850293 688.06064453 -221.61083984 687.59082031 C-200.24982005 672.87110695 -176.84906608 661.34563684 -153.59375 649.97265625 C-156.4537552 648.44687785 -159.21983538 647.40225874 -162.33496094 646.51489258 C-163.28272903 646.24253784 -164.23049713 645.97018311 -165.20698547 645.6895752 C-166.23696152 645.39756226 -167.26693756 645.10554932 -168.328125 644.8046875 C-170.5728912 644.16010681 -172.81759889 643.51532231 -175.06225586 642.87036133 C-176.24818329 642.53098541 -177.43411072 642.1916095 -178.65597534 641.84194946 C-205.16797011 634.24449606 -231.53125053 626.23301574 -257.80804443 617.85870361 C-260.57086628 616.97993486 -263.33520779 616.10612494 -266.10009766 615.23388672 C-309.01708869 601.68433192 -354.18459578 586.80441171 -389.59375 557.97265625 C-390.12548828 557.54098145 -390.65722656 557.10930664 -391.20507812 556.66455078 C-411.6595802 539.97268162 -427.99905974 520.66057919 -435.59375 494.97265625 C-435.83867188 494.17214844 -436.08359375 493.37164063 -436.3359375 492.546875 C-441.1966999 473.27028988 -436.79343024 451.15004103 -426.96484375 434.15625 C-412.22320733 412.30032037 -392.83174505 401.35134058 -367.59375 395.97265625 C-365.96759766 395.62074219 -365.96759766 395.62074219 -364.30859375 395.26171875 C-333.84526362 389.72293145 -305.06255241 393.45979758 -279.4140625 411.16796875 C-272.76331441 416.02487639 -266.5310145 421.27076579 -260.59375 426.97265625 C-259.56749512 427.95806396 -259.56749512 427.95806396 -258.52050781 428.96337891 C-256.17903035 431.22561096 -253.85298052 433.50267099 -251.53125 435.78515625 C-250.7678833 436.52701172 -250.0045166 437.26886719 -249.21801758 438.03320312 C-248.14910278 439.09571289 -248.14910278 439.09571289 -247.05859375 440.1796875 C-246.415271 440.81366455 -245.77194824 441.4476416 -245.10913086 442.10083008 C-243.49982458 444.08867465 -242.99576463 445.47227068 -242.59375 447.97265625 C-265.15357697 464.95887891 -290.36170508 472.8835146 -318.61889648 469.40283203 C-330.18138526 467.67088344 -341.38537959 463.96776898 -352.53930664 460.55322266 C-369.2655428 454.50772811 -369.2655428 454.50772811 -385.96875 456.72265625 C-389.11403191 459.35163432 -389.11403191 459.35163432 -390.59375 462.97265625 C-391.09245147 469.49791909 -389.94749492 473.49084409 -386.78125 479.16015625 C-386.1766394 480.26327148 -386.1766394 480.26327148 -385.55981445 481.38867188 C-366.67288603 514.65447821 -325.55423024 527.77840056 -291.59375 540.53515625 C-290.95183716 540.77894012 -290.30992432 541.022724 -289.64855957 541.27389526 C-261.36268846 551.96241722 -232.07492797 559.98495661 -202.9237442 567.91217422 C-199.48991132 568.84716376 -196.05753582 569.78744747 -192.62508774 570.72750568 C-166.94313979 577.75927527 -141.22523547 584.65659474 -115.47367001 591.42896938 C-113.52023879 591.942757 -111.56702379 592.45736642 -109.61381531 592.97200012 C-107.25490801 593.59309958 -104.89549086 594.21226706 -102.53547668 594.82914734 C-100.99641914 595.23433342 -100.99641914 595.23433342 -99.42626953 595.64770508 C-98.53505402 595.88113113 -97.6438385 596.11455719 -96.72561646 596.35505676 C-94.59375 596.97265625 -94.59375 596.97265625 -92.59375 597.97265625 C-92.6392118 597.15103374 -92.6846736 596.32941124 -92.73151302 595.48289108 C-93.84238214 575.40569987 -94.95266159 555.32847612 -96.06230068 535.25121689 C-96.5989475 525.54164835 -97.13578718 515.83209054 -97.6730957 506.12255859 C-98.14191524 497.65066023 -98.61035782 489.17874112 -99.07836491 480.70679784 C-99.32572647 476.22924789 -99.5732651 471.75170791 -99.82125664 467.27419281 C-101.76297161 432.21213677 -101.76297161 432.21213677 -102.59375 414.97265625 C-102.65647598 413.72872101 -102.71920197 412.48478577 -102.78382874 411.20315552 C-103.52577797 396.00185265 -101.95893348 382.08098107 -98.5168457 367.32983398 C-94.21796875 348.76180867 -91.91736306 329.87352485 -89.59375 310.97265625 C-89.44534668 309.77898437 -89.29694336 308.5853125 -89.14404297 307.35546875 C-88.37293452 300.89910404 -87.86733407 294.4686873 -87.59375 287.97265625 C-87.53928711 286.77157227 -87.48482422 285.57048828 -87.42871094 284.33300781 C-86.61409898 263.46562103 -88.52691903 244.25271085 -93.59375 223.97265625 C-93.79097656 223.18310547 -93.98820312 222.39355469 -94.19140625 221.58007812 C-95.91139487 215.06323234 -98.54375055 209.05303412 -101.28125 202.91796875 C-102.01758667 201.26643799 -102.01758667 201.26643799 -102.76879883 199.58154297 C-103.75039824 197.40158418 -104.74681377 195.22821388 -105.76049805 193.06298828 C-110.50220036 182.70444554 -112.90915959 174.49581466 -109.08203125 163.52734375 C-106.7701768 158.00559166 -104.08630289 152.70166346 -101.30078125 147.40625 C-99.98315253 144.75591672 -99.21453066 142.79063823 -98.59375 139.97265625 C-109.80917253 141.2681671 -118.54914558 142.73697271 -127.59375 149.97265625 C-128.53863281 150.6790625 -129.48351562 151.38546875 -130.45703125 152.11328125 C-141.07120181 160.32885034 -146.23563663 167.0887077 -148.28485107 180.52844238 C-148.81704076 183.98572994 -149.44675359 187.42540505 -150.0703125 190.8671875 C-150.25565048 191.90285355 -150.25565048 191.90285355 -150.44473267 192.95944214 C-159.40224493 242.02285623 -193.36923006 307.88019179 -234.53125 337.72265625 C-248.32929465 346.92850564 -248.32929465 346.92850564 -255.59375 345.97265625 C-255.20733773 337.50838758 -252.30959285 330.25502749 -249.21875 322.47265625 C-248.22811881 319.94282543 -247.24306916 317.41083405 -246.2578125 314.87890625 C-245.79536133 313.69425781 -245.33291016 312.50960938 -244.85644531 311.2890625 C-243.30667656 307.21867219 -241.91937098 303.12085795 -240.59375 298.97265625 C-241.29757812 299.74867188 -242.00140625 300.5246875 -242.7265625 301.32421875 C-265.31151797 326.09556538 -265.31151797 326.09556538 -276.59375 332.97265625 C-277.16867187 333.3377832 -277.74359375 333.70291016 -278.3359375 334.07910156 C-289.19228058 340.9640171 -300.44915959 346.28767383 -312.36914062 351.07421875 C-314.15749722 351.79646988 -315.93268319 352.55129069 -317.703125 353.31640625 C-327.19379913 357.20699316 -340.30583363 360.04398598 -350.59375 358.97265625 C-353.1324379 355.1646244 -352.8689148 353.34765696 -352.33203125 348.9296875 C-350.22401641 340.48647463 -344.84278909 332.81231324 -339.59375 325.97265625 C-340.43292969 326.45734375 -341.27210938 326.94203125 -342.13671875 327.44140625 C-359.84384257 337.41296903 -379.11791906 343.44112879 -398.59375 348.97265625 C-399.25487793 349.17584473 -399.91600586 349.3790332 -400.59716797 349.58837891 C-406.67896121 351.33391822 -412.80035291 351.41698456 -419.09375 351.59765625 C-420.20234375 351.63632812 -421.3109375 351.675 -422.453125 351.71484375 C-425.16650797 351.80840868 -427.87989661 351.89415108 -430.59375 351.97265625 C-432.62158203 348.21044922 -432.62158203 348.21044922 -432.37109375 346.0703125 C-426.73637258 332.41594166 -412.30582318 323.0662101 -400.81054688 314.60742188 C-397.75946519 312.35741715 -394.73288731 310.07536752 -391.7043457 307.79516602 C-388.6726017 305.51412011 -385.63338264 303.24317592 -382.59375 300.97265625 C-383.40042114 301.34233521 -383.40042114 301.34233521 -384.22338867 301.71948242 C-406.3206643 311.82156565 -424.88670741 318.51249411 -449.42431641 318.30883789 C-452.4563268 318.28525289 -455.48745216 318.28829733 -458.51953125 318.29492188 C-473.9157897 318.27416584 -488.60412017 317.11547164 -503.59375 313.34765625 C-504.60759766 313.0954834 -505.62144531 312.84331055 -506.66601562 312.58349609 C-515.64503241 310.21363843 -523.58161498 306.61498154 -531.59375 301.97265625 C-530.57049218 293.35248434 -522.77958354 286.73945043 -516.53125 281.28515625 C-510.44881191 276.53193699 -503.83206914 273.37124748 -496.89794922 270.08105469 C-476.99587929 260.50748005 -458.29056892 249.17487631 -440.59375 235.97265625 C-440.05057129 235.56837402 -439.50739258 235.1640918 -438.94775391 234.74755859 C-431.1431095 228.90969383 -423.64594847 222.75142041 -416.25732422 216.39794922 C-414.57576608 214.95724825 -412.88482961 213.5282898 -411.19140625 212.1015625 C-403.65623046 205.7323549 -396.38255307 199.13009851 -389.203125 192.36328125 C-385.90840806 189.25803685 -382.56946024 186.20468556 -379.21875 183.16015625 C-371.56848431 176.15682578 -364.2195621 168.96103455 -357.59375 160.97265625 C-357.18898438 160.48700195 -356.78421875 160.00134766 -356.3671875 159.50097656 C-349.18982859 150.82833455 -342.93829731 141.8841424 -337.59375 131.97265625 C-337.07989746 131.03292969 -336.56604492 130.09320312 -336.03662109 129.125 C-328.55467688 115.23461736 -323.48050188 102.24993866 -320.62597656 86.72021484 C-318.79709739 77.02440502 -315.71076481 69.35327893 -310.59375 60.97265625 C-310.06265625 60.02390625 -309.5315625 59.07515625 -308.984375 58.09765625 C-301.61119431 45.54134854 -291.27291067 34.57372487 -279.59375 25.97265625 C-278.8203125 25.37324219 -278.046875 24.77382813 -277.25 24.15625 C-257.33043052 9.31617074 -235.13103709 4.33661756 -210.57421875 7.41015625 C-196.84195796 9.87610656 -185.83840634 16.78191312 -175.59375 25.97265625 C-174.75199219 26.70613281 -173.91023438 27.43960938 -173.04296875 28.1953125 C-170.52301052 30.41742186 -168.05168568 32.68221856 -165.59375 34.97265625 C-164.77003906 35.730625 -163.94632813 36.48859375 -163.09765625 37.26953125 C-154.80719221 45.18491969 -148.57839603 54.31631653 -142.40625 63.91015625 C-138.9582482 69.16052263 -134.82093367 73.48786714 -129.59375 76.97265625 C-129.91859375 75.37550781 -129.91859375 75.37550781 -130.25 73.74609375 C-134.09240071 54.08512642 -133.7196631 34.86905305 -122.92578125 17.25 C-121.22249746 14.75711446 -119.44477859 12.3573147 -117.59375 9.97265625 C-117.14515625 9.3590625 -116.6965625 8.74546875 -116.234375 8.11328125 C-105.24590965 -5.97780962 -87.52155666 -13.43732059 -70.421875 -16.6171875 C-44.74962222 -19.36778601 -20.77132058 -16.23541473 0 0 Z M-380.59375 297.97265625 C-380.92375 298.63265625 -381.25375 299.29265625 -381.59375 299.97265625 C-380.60375 299.64265625 -379.61375 299.31265625 -378.59375 298.97265625 C-379.25375 298.64265625 -379.91375 298.31265625 -380.59375 297.97265625 Z M-100.71875 697.47265625 C-101.85948975 697.95822998 -103.00022949 698.44380371 -104.17553711 698.9440918 C-142.31842691 715.40796772 -182.18061277 734.13580967 -212.59375 762.97265625 C-213.068125 763.41448242 -213.5425 763.85630859 -214.03125 764.31152344 C-222.89842492 772.60718122 -232.52962515 782.28283477 -236.59375 793.97265625 C-229.03900609 799.75926861 -220.73961463 801.18513432 -211.59375 802.97265625 C-210.5315625 803.18921875 -209.469375 803.40578125 -208.375 803.62890625 C-193.14716845 806.35388663 -177.79155305 806.20460906 -162.42578125 805.05859375 C-146.38055854 803.92859221 -130.33713418 803.3653159 -114.26074219 802.90820312 C-110.66524495 802.80475958 -107.06993921 802.69501863 -103.47460938 802.5859375 C-96.51449055 802.37563369 -89.55419711 802.1718278 -82.59375 801.97265625 C-82.83403242 792.8785362 -83.07731814 783.78450253 -83.32424068 774.69056034 C-83.43885683 770.4660253 -83.55251103 766.24146933 -83.66381836 762.0168457 C-83.77165502 757.92538805 -83.88221224 753.83401146 -83.99450874 749.74267387 C-84.03649616 748.19653258 -84.07756977 746.65036614 -84.1176281 745.10417366 C-84.36427232 735.61251113 -84.76662142 726.14510856 -85.36291504 716.66870117 C-85.6700399 711.75113025 -85.91780783 706.83144621 -86.15625 701.91015625 C-86.19943359 701.03294922 -86.24261719 700.15574219 -86.28710938 699.25195312 C-86.39004692 697.15888965 -86.49201603 695.06577857 -86.59375 692.97265625 C-91.68102976 692.97265625 -96.08720002 695.50025775 -100.71875 697.47265625 Z M-20.59375 692.97265625 C-21.79674391 700.93835666 -22.02327895 708.95372058 -22.34765625 716.9921875 C-22.41335563 718.57517537 -22.47918987 720.15815765 -22.54515076 721.74113464 C-22.68273223 725.06374219 -22.81767234 728.38644478 -22.95092773 731.70922852 C-23.08555326 735.05934534 -23.22418182 738.40925329 -23.36694336 741.7590332 C-24.22256206 761.84352771 -24.83870027 781.86592589 -24.59375 801.97265625 C-23.88584824 801.99327118 -23.17794647 802.01388611 -22.44859314 802.03512573 C-13.47588923 802.29771697 -4.50347481 802.56923359 4.46875 802.84765625 C5.18007584 802.86969872 5.89140167 802.89174118 6.62428284 802.9144516 C25.38369796 803.49805981 44.11036846 804.17680792 62.828125 805.60546875 C82.93425476 807.04331645 110.06439467 806.3539237 127.40625 794.97265625 C127.73625 793.98265625 128.06625 792.99265625 128.40625 791.97265625 C114.72838536 766.0567022 89.87246433 748.64652117 65.40625 733.97265625 C64.6239502 733.50037598 63.84165039 733.0280957 63.03564453 732.54150391 C41.43086276 719.58751656 18.68444521 708.50574509 -4.40625 698.47265625 C-5.05616913 698.188992 -5.70608826 697.90532776 -6.3757019 697.61306763 C-13.24706341 694.28282257 -13.24706341 694.28282257 -20.59375 692.97265625 Z M-95.94921875 846.0390625 C-96.64029724 846.15305389 -97.33137573 846.26704529 -98.043396 846.38449097 C-100.29088412 846.75955281 -102.53621089 847.14571525 -104.78125 847.53515625 C-105.55397247 847.66826202 -106.32669495 847.8013678 -107.12283325 847.93850708 C-135.06782545 852.78957087 -162.53929523 859.33292155 -187.59375 872.97265625 C-188.50979004 873.46185547 -188.50979004 873.46185547 -189.44433594 873.9609375 C-204.64528426 882.10923014 -222.70681531 892.93785206 -228.359375 910.328125 C-229.13062131 914.47714448 -228.78590067 917.34021446 -226.71875 921.03515625 C-209.38394556 944.7416726 -173.61599588 951.05034095 -146.56835938 955.37060547 C-123.57054133 958.91559863 -100.79325213 959.39274195 -77.59375 958.97265625 C-77.49010772 949.33023057 -77.81838026 939.72113027 -78.21484375 930.08984375 C-78.27992322 928.46535078 -78.34478353 926.84084901 -78.40943909 925.21633911 C-78.57958198 920.95529699 -78.75253212 916.69437355 -78.92614746 912.43347168 C-79.09883495 908.18487811 -79.2691009 903.93618774 -79.43945312 899.6875 C-79.63819027 894.73376422 -79.83709309 889.78003561 -80.03720093 884.82635498 C-80.57355723 871.54245067 -81.09079811 858.25787109 -81.59375 844.97265625 C-86.51749739 844.86471575 -91.09273261 845.23647447 -95.94921875 846.0390625 Z M-25.59375 844.97265625 C-26.62086736 848.05400832 -26.77174457 850.31653033 -26.85913086 853.55004883 C-26.89271194 854.70422302 -26.92629303 855.85839722 -26.96089172 857.04754639 C-26.99313339 858.30802795 -27.02537506 859.56850952 -27.05859375 860.8671875 C-27.11621445 862.8834414 -27.17384132 864.89969514 -27.23173428 866.91594124 C-27.29270047 869.06388536 -27.35160445 871.21187761 -27.40997314 873.3598938 C-27.61153824 880.75720507 -27.83020472 888.15401585 -28.05078125 895.55078125 C-28.07274818 896.2908246 -28.09471512 897.03086796 -28.11734772 897.79333687 C-28.53760147 911.87900189 -29.0835311 925.95746803 -29.71875 940.03515625 C-29.76313202 941.02045319 -29.80751404 942.00575012 -29.85324097 943.02090454 C-30.09403645 948.33844799 -30.34073502 953.65568069 -30.59375 958.97265625 C16.32257453 959.78877429 79.2033005 959.79620851 115.46875 925.22265625 C118.82837047 921.83839309 120.26747568 919.12250058 120.84375 914.34765625 C120.58501348 906.14418673 115.38484575 899.08896667 109.9375 893.31640625 C78.10642449 863.84318818 33.596439 853.64619982 -7.84375 846.59765625 C-8.82537109 846.42983643 -9.80699219 846.2620166 -10.81835938 846.08911133 C-15.81310991 845.27951784 -20.53446115 844.79096908 -25.59375 844.97265625 Z " fill="#AF35D6" transform="translate(1109.59375,573.02734375)"/>
</svg>
