<?xml version="1.0" encoding="UTF-8"?>
<svg version="1.1" xmlns="http://www.w3.org/2000/svg" width="2651" height="2651">
<path d="M0 0 C0.62783386 0.26878967 1.25566772 0.53757935 1.90252686 0.81451416 C42.53022899 18.21804045 82.86923362 36.86468297 121.41113281 58.54736328 C124.26403292 60.14815125 127.12755329 61.72890582 129.9921875 63.30859375 C144.867665 71.53765515 159.49407617 80.13722575 174 89 C175.38662842 89.84256348 175.38662842 89.84256348 176.80126953 90.70214844 C190.73901447 99.19075538 204.35661668 108.14327941 217.9375 117.1875 C219.16741669 118.00560654 219.16741669 118.00560654 220.42218018 118.84024048 C231.74555073 126.38031083 242.92493529 134.10009235 254 142 C254.88357178 142.62737061 255.76714355 143.25474121 256.67749023 143.90112305 C278.79739926 159.6352913 300.17830127 176.35763945 321.19580078 193.52783203 C322.78273046 194.82271511 324.37348737 196.11290478 325.96484375 197.40234375 C332.81473779 202.96473935 339.51405482 208.69145495 346.19726562 214.45166016 C347.97485913 215.97840691 349.75952015 217.49641708 351.546875 219.01171875 C357.95463465 224.45258769 364.25081731 229.98176213 370.38696289 235.72851562 C373.18287081 238.34411676 376.01705263 240.90151893 378.90625 243.4140625 C382.88954219 246.8837022 386.77371258 250.44732166 390.625 254.0625 C391.31013672 254.70445312 391.99527344 255.34640625 392.70117188 256.0078125 C397.99389933 260.99322029 403.14381762 266.10696725 408.2565918 271.27587891 C411.80269594 274.84716188 415.439186 278.23680724 419.2734375 281.5 C423.5832073 285.2442344 427.48005374 289.35316557 431.18359375 293.69140625 C435.08662102 298.17315648 439.26170593 302.33752514 443.5 306.5 C448.29116741 311.20545779 452.92209611 315.95727485 457.30273438 321.04882812 C460.11421453 324.28089795 463.06235885 327.38297645 466 330.5 C470.76652725 335.58599791 475.47506833 340.69658546 480 346 C480.88646428 347.03277056 481.77321035 348.06529928 482.66015625 349.09765625 C484.71650221 351.49227264 486.76933468 353.88984739 488.8203125 356.2890625 C490.88970698 358.7082138 492.96777307 361.11938733 495.0546875 363.5234375 C500.4424554 369.74237621 505.67486271 376.04095155 510.71728516 382.54345703 C514.36428542 387.23356943 518.13731426 391.80856428 521.9375 396.375 C528.0538946 403.74859806 533.84953263 411.31742586 539.53662109 419.02490234 C541.48937903 421.66050657 543.46703096 424.27695328 545.44384766 426.89453125 C564.30417498 451.90188256 582.04485943 477.66716938 599 504 C599.82709473 505.28318115 599.82709473 505.28318115 600.67089844 506.59228516 C625.24984964 544.83227042 647.28685614 584.55785999 668 625 C668.56831543 626.10263184 669.13663086 627.20526367 669.72216797 628.34130859 C679.22841749 646.81950489 687.79990226 665.62740183 696.10546875 684.66845703 C697.57666166 688.03879065 699.06379659 691.40163842 700.5604248 694.76074219 C714.69698058 726.50390894 726.84470385 759.09961948 738 792 C738.27114624 792.79905762 738.54229248 793.59811523 738.82165527 794.42138672 C771.42549242 890.71217046 792.53352893 990.31031711 807 1161 C807.05784668 1162.30952637 807.11569336 1163.61905273 807.17529297 1164.96826172 C811.29598003 1262.70313309 803.91252655 1360.74542955 771 1531 C770.79266235 1531.86824402 770.58532471 1532.73648804 770.3717041 1533.63104248 C754.2251871 1600.9826344 732.29783298 1667.34551046 705 1731 C704.59681549 1731.94175079 704.59681549 1731.94175079 704.18548584 1732.90252686 C686.78195955 1773.53022899 668.13531703 1813.86923362 646.45263672 1852.41113281 C644.85184875 1855.26403292 643.27109418 1858.12755329 641.69140625 1860.9921875 C633.46234485 1875.867665 624.86277425 1890.49407617 616 1905 C615.43829102 1905.92441895 614.87658203 1906.84883789 614.29785156 1907.80126953 C605.80924462 1921.73901447 596.85672059 1935.35661668 587.8125 1948.9375 C586.99439346 1950.16741669 586.99439346 1950.16741669 586.15975952 1951.42218018 C578.61968917 1962.74555073 570.89990765 1973.92493529 563 1985 C562.37262939 1985.88357178 561.74525879 1986.76714355 561.09887695 1987.67749023 C545.3647087 2009.79739926 528.64236055 2031.17830127 511.47216797 2052.19580078 C510.17728489 2053.78273046 508.88709522 2055.37348737 507.59765625 2056.96484375 C502.03526065 2063.81473779 496.30854505 2070.51405482 490.54833984 2077.19726562 C489.02159309 2078.97485913 487.50358292 2080.75952015 485.98828125 2082.546875 C480.54741231 2088.95463465 475.01823787 2095.25081731 469.27148438 2101.38696289 C466.657127 2104.1815413 464.10101051 2107.01436177 461.58984375 2109.90234375 C458.09970425 2113.9093116 454.51235433 2117.81410459 450.875 2121.6875 C450.23046875 2122.37521484 449.5859375 2123.06292969 448.921875 2123.77148438 C444.16549218 2128.82164378 439.2958228 2133.74298048 434.36181641 2138.61889648 C430.96419186 2141.99054855 427.77169162 2145.46529996 424.66796875 2149.10546875 C420.19705212 2154.18367617 415.33652298 2158.86356939 410.21484375 2163.27734375 C405.93973662 2166.99320287 401.96463948 2170.95792615 398 2175 C393.4680552 2179.62045934 388.87334803 2184.06068802 383.96875 2188.28515625 C380.73229441 2191.10421181 377.62306486 2194.05666522 374.5 2197 C369.41400209 2201.76652725 364.30341454 2206.47506833 359 2211 C357.96722944 2211.88646428 356.93470072 2212.77321035 355.90234375 2213.66015625 C353.50772736 2215.71650221 351.11015261 2217.76933468 348.7109375 2219.8203125 C346.2917862 2221.88970698 343.88061267 2223.96777307 341.4765625 2226.0546875 C335.25762379 2231.4424554 328.95904845 2236.67486271 322.45654297 2241.71728516 C317.76642702 2245.36428818 313.19152099 2249.13741346 308.625 2252.9375 C301.31199213 2259.00128449 293.81037245 2264.74882684 286.16894531 2270.39013672 C283.8191213 2272.13425418 281.48278118 2273.89537772 279.1484375 2275.66015625 C269.28143535 2283.11547883 259.32646013 2290.40670755 249.17919922 2297.47558594 C246.91531553 2299.05923928 244.66200834 2300.65710405 242.41015625 2302.2578125 C228.84535299 2311.87307165 214.97540896 2320.99643769 201 2330 C200.14019531 2330.55429688 199.28039063 2331.10859375 198.39453125 2331.6796875 C168.72653267 2350.7485153 138.14370109 2368.46100287 107 2385 C105.63174072 2385.72751465 105.63174072 2385.72751465 104.23583984 2386.46972656 C97.51715282 2390.03199152 90.76638259 2393.52929915 84 2397 C82.83033691 2397.60183105 81.66067383 2398.20366211 80.45556641 2398.82373047 C61.32054263 2408.65010062 41.91429648 2417.69413155 22.19685364 2426.28900146 C17.92922857 2428.14997328 13.67542457 2430.0377137 9.43359375 2431.95703125 C-76.29108207 2470.627147 -168.98333922 2497.82725952 -456 2538 C-456.67905396 2538.02922546 -457.35810791 2538.05845093 -458.05773926 2538.08856201 C-558.54341467 2542.35885763 -659.8523239 2535.17733269 -989 2451 C-989.72737366 2450.7150769 -990.45474731 2450.43015381 -991.2041626 2450.13659668 C-1015.10315573 2440.76365895 -1038.6423823 2430.64620308 -1062 2420 C-1062.9948642 2419.54720673 -1062.9948642 2419.54720673 -1064.00982666 2419.08526611 C-1090.86567382 2406.85283932 -1117.42625246 2393.94161331 -1143.20068359 2379.55566406 C-1146.24665647 2377.8629256 -1149.30419885 2376.1923608 -1152.36328125 2374.5234375 C-1167.78177727 2366.08045695 -1182.83123933 2357.15080393 -1197.80566406 2347.95117188 C-1201.61980375 2345.62141 -1205.45802759 2343.3343623 -1209.30151367 2341.0534668 C-1217.73328917 2336.04686952 -1225.96188224 2330.82483081 -1234.06787109 2325.30810547 C-1236.911339 2323.38299793 -1239.77462753 2321.48808984 -1242.63623047 2319.59008789 C-1258.00170456 2309.39045163 -1273.10638233 2298.87732621 -1288 2288 C-1288.78310547 2287.42846191 -1289.56621094 2286.85692383 -1290.37304688 2286.26806641 C-1305.23121341 2275.40947572 -1319.94981027 2264.40055517 -1334.18774414 2252.73632812 C-1338.45463556 2249.24211429 -1342.76963919 2245.82052392 -1347.125 2242.4375 C-1353.67256561 2237.3336379 -1359.96904842 2231.96653615 -1366.23681641 2226.52490234 C-1368.0192578 2224.98334475 -1369.81065059 2223.4529043 -1371.60546875 2221.92578125 C-1378.02390994 2216.46235113 -1384.34582607 2210.92386037 -1390.55859375 2205.2265625 C-1392.66154833 2203.30866793 -1394.78669156 2201.42623955 -1396.9375 2199.5625 C-1401.21487209 2195.83928138 -1405.39797201 2192.01543801 -1409.56420898 2188.16870117 C-1411.72647279 2186.17253434 -1413.89408904 2184.18250257 -1416.06616211 2182.19702148 C-1427.29298721 2171.87726634 -1438.0588858 2161.09502564 -1448.82763672 2150.30273438 C-1451.48767886 2147.63694412 -1454.15225946 2144.97574218 -1456.81814575 2142.31579781 C-1458.90306516 2140.23451283 -1460.98557169 2138.15082659 -1463.06738281 2136.06643295 C-1464.04889939 2135.08425775 -1465.03113569 2134.10280116 -1466.01416016 2133.12213516 C-1471.56311443 2127.58360257 -1476.8959101 2121.94941103 -1482 2116 C-1483.22954633 2114.65740533 -1484.46656465 2113.32150538 -1485.71875 2112 C-1486.34136719 2111.34 -1486.96398438 2110.68 -1487.60546875 2110 C-1488.23066406 2109.34 -1488.85585937 2108.68 -1489.5 2108 C-1496.44087739 2100.67272325 -1503.07245608 2093.11177377 -1509.625 2085.4375 C-1513.41933267 2080.998252 -1517.23383242 2076.57786755 -1521.07177734 2072.17626953 C-1525.77942605 2066.77281473 -1530.41707497 2061.34292377 -1534.8515625 2055.7109375 C-1537.09954219 2052.87439586 -1539.38449369 2050.07071793 -1541.67504883 2047.26855469 C-1547.40847087 2040.24978555 -1553.03160295 2033.16840445 -1558.51416016 2025.95117188 C-1560.27818222 2023.63469729 -1562.05126629 2021.32527135 -1563.82421875 2019.015625 C-1570.93910815 2009.7333972 -1577.96929846 2000.4191146 -1584.69537354 1990.85112 C-1585.98515088 1989.02106926 -1587.28117316 1987.19561465 -1588.57910156 1985.37133789 C-1596.07272731 1974.8240379 -1603.39547613 1964.16686865 -1610.63623047 1953.44458008 C-1612.49339357 1950.69727292 -1614.35795453 1947.95508463 -1616.22265625 1945.21289062 C-1623.28795261 1934.78003945 -1630.02144016 1924.21535754 -1636.41479492 1913.35717773 C-1638.79904514 1909.30947252 -1641.28405745 1905.33380774 -1643.8125 1901.375 C-1655.17787918 1883.35099106 -1665.39617855 1864.62767688 -1675.45898438 1845.85546875 C-1676.95045181 1843.09181172 -1678.46249295 1840.34075712 -1679.984375 1837.59375 C-1693.08183753 1813.93088561 -1704.8521653 1789.63528953 -1716 1765 C-1716.29390625 1764.35138 -1716.5878125 1763.70276001 -1716.890625 1763.03448486 C-1750.28820177 1689.25835984 -1776.53214295 1612.59749308 -1796 1534 C-1796.19682373 1533.20646118 -1796.39364746 1532.41292236 -1796.59643555 1531.59533691 C-1812.85316504 1465.81899525 -1823.31867293 1398.72215733 -1829.1875 1331.25 C-1829.26640472 1330.35838165 -1829.34530945 1329.46676331 -1829.42660522 1328.54812622 C-1830.02529033 1321.70357494 -1830.53438463 1314.85483607 -1831 1308 C-1831.08827057 1306.71216614 -1831.17654114 1305.42433228 -1831.26748657 1304.09747314 C-1833.09401016 1276.83310879 -1833.36328297 1249.60294928 -1833.31805801 1222.28469467 C-1833.31241733 1218.82428694 -1833.30959713 1215.36388411 -1833.30697632 1211.9034729 C-1833.27201773 1180.15851671 -1833.09115869 1148.51393856 -1830.25646973 1116.87268066 C-1829.98396678 1113.82041418 -1829.72337625 1110.76726452 -1829.46386719 1107.71386719 C-1821.25578673 1012.17886231 -1803.48702193 917.60821676 -1775 826 C-1774.74710205 825.18499023 -1774.4942041 824.36998047 -1774.23364258 823.53027344 C-1747.32841038 737.00616711 -1711.50226663 652.31819558 -1666.48730469 573.61914062 C-1664.67861203 570.43403641 -1662.91089815 567.22768926 -1661.1484375 564.0168457 C-1655.37561984 553.50822259 -1649.25390452 543.22845555 -1643 533 C-1642.49533203 532.17016602 -1641.99066406 531.34033203 -1641.47070312 530.48535156 C-1632.38939455 515.59223453 -1622.82896023 501.01330557 -1613.25 486.4375 C-1612.62884308 485.48987793 -1612.00768616 484.54225586 -1611.3677063 483.56591797 C-1603.87206623 472.14012747 -1596.17783333 460.94686105 -1588 450 C-1586.87656368 448.4488833 -1585.75724776 446.8947621 -1584.64453125 445.3359375 C-1569.33583808 423.91744964 -1553.12526807 403.18874188 -1536.47216797 382.80419922 C-1535.17728489 381.21726954 -1533.88709522 379.62651263 -1532.59765625 378.03515625 C-1527.53430259 371.79981477 -1522.34169436 365.68477886 -1517.09765625 359.6015625 C-1515.07255881 357.25217024 -1513.0597527 354.8932486 -1511.05859375 352.5234375 C-1505.21143968 345.61502496 -1499.20584376 338.89767047 -1492.98291016 332.32446289 C-1490.16898578 329.34859497 -1487.40886858 326.3436024 -1484.7277832 323.24707031 C-1472.01804848 308.6896695 -1458.25256168 295.09147467 -1444.57910156 281.44873047 C-1441.98958833 278.86498223 -1439.40468767 276.27667256 -1436.82102203 273.68707848 C-1434.79464226 271.65706491 -1432.76586231 269.62946345 -1430.7363739 267.60255814 C-1429.32604091 266.19319753 -1427.91768718 264.78185715 -1426.50939941 263.37045288 C-1421.49604992 258.37529465 -1416.36767909 253.60965481 -1411 249 C-1409.65740533 247.77045367 -1408.32150538 246.53343535 -1407 245.28125 C-1406.34 244.65863281 -1405.68 244.03601563 -1405 243.39453125 C-1404.34 242.76933594 -1403.68 242.14414062 -1403 241.5 C-1395.67274148 234.55913988 -1388.11199668 227.92726105 -1380.4375 221.375 C-1376.69291792 218.17633321 -1372.95679789 214.96956958 -1369.25390625 211.72265625 C-1362.76933179 206.04221294 -1356.22387015 200.50865767 -1349.40576172 195.23193359 C-1344.72964133 191.60510173 -1340.17308874 187.84811201 -1335.625 184.0625 C-1328.99142843 178.56081785 -1322.21290136 173.31546313 -1315.28515625 168.19140625 C-1312.16209542 165.8786531 -1309.07277161 163.52645008 -1305.99609375 161.15234375 C-1296.02758478 153.46562667 -1285.94978773 146.07082742 -1275.4921875 139.0625 C-1272.1608845 136.82043416 -1268.90923695 134.4889056 -1265.671875 132.11328125 C-1260.01205332 127.97336305 -1254.22083572 124.05878476 -1248.375 120.1875 C-1247.32594482 119.49100342 -1246.27688965 118.79450684 -1245.19604492 118.0769043 C-1164.04623712 64.28528791 -1077.67701517 19.58696012 -942 -32 C-941.13107117 -32.29694763 -940.26214233 -32.59389526 -939.36688232 -32.89984131 C-842.45259985 -65.95148243 -741.8769431 -87.48920659 -570 -102 C-568.95598022 -102.0438382 -568.95598022 -102.0438382 -567.89086914 -102.08856201 C-467.05583689 -106.24565209 -365.75135898 -98.93895501 0 0 Z M-591.47973633 -27.18359375 C-594.18079315 -26.98682975 -596.8823503 -26.79803853 -599.58398438 -26.609375 C-673.39942987 -21.38020123 -746.97627692 -10.06087918 -818.66571045 8.3996582 C-821.04464851 9.01148288 -823.42483119 9.61828216 -825.80517578 10.22460938 C-903.16734515 29.99572975 -977.88705224 57.80578356 -1050 92 C-1050.61117676 92.28979736 -1051.22235352 92.57959473 -1051.85205078 92.87817383 C-1066.57226809 99.86407203 -1081.23248165 106.94379491 -1095.57128906 114.68994141 C-1098.25886893 116.13963517 -1100.95358989 117.57558313 -1103.6484375 119.01171875 C-1133.48859745 134.97409535 -1162.78487368 152.2999878 -1191 171 C-1191.88010742 171.58040039 -1192.76021484 172.16080078 -1193.66699219 172.75878906 C-1231.23193074 197.54377219 -1267.34790033 224.0589287 -1302.19580078 252.52783203 C-1303.78273046 253.82271511 -1305.37348737 255.11290478 -1306.96484375 256.40234375 C-1317.13718627 264.66270412 -1327.07744554 273.19020626 -1336.78125 281.99609375 C-1338.79308393 283.81311982 -1340.82660434 285.59944392 -1342.875 287.375 C-1347.27352384 291.2082517 -1351.56431366 295.1570836 -1355.85546875 299.109375 C-1357.91250699 301.00386451 -1359.97736732 302.88907528 -1362.05078125 304.765625 C-1367.95287347 310.11797513 -1373.67029898 315.59282223 -1379.234375 321.296875 C-1381.38430189 323.39821597 -1383.55159053 325.37063077 -1385.82421875 327.33203125 C-1390.08613845 331.02622995 -1394.0871589 334.93902404 -1398.0625 338.9375 C-1398.73087891 339.60201172 -1399.39925781 340.26652344 -1400.08789062 340.95117188 C-1403.99851317 344.86939524 -1407.69829694 348.90562586 -1411.31420898 353.09594727 C-1413.91295583 356.0311575 -1416.69741382 358.76122422 -1419.5 361.5 C-1423.51977611 365.47492268 -1427.41171769 369.47519698 -1431.0703125 373.7890625 C-1433.76011348 376.87089925 -1436.57475557 379.8311967 -1439.375 382.8125 C-1444.07724004 387.83445231 -1448.52177005 392.98330703 -1452.82421875 398.35546875 C-1455.130317 401.15839248 -1457.54151531 403.83003275 -1460 406.5 C-1464.41881919 411.31190433 -1468.57233762 416.28269633 -1472.671875 421.3671875 C-1474.17431738 423.21430784 -1475.69516863 425.04527845 -1477.21875 426.875 C-1484.25464416 435.33407264 -1491.077367 443.91569151 -1497.71875 452.6875 C-1500.51839932 456.38222951 -1503.36787799 460.03532225 -1506.23046875 463.68139648 C-1513.75191513 473.27103308 -1520.95341263 483.05729663 -1528 493 C-1528.82685303 494.16305664 -1528.82685303 494.16305664 -1529.67041016 495.34960938 C-1580.06547111 566.34167101 -1623.88404884 642.74867449 -1658.08184814 722.85375977 C-1659.00127543 725.0029814 -1659.92727149 727.14926345 -1660.85498047 729.29492188 C-1699.86000337 819.65058243 -1727.29586165 915.05137159 -1759 1157 C-1759.04236786 1157.9053952 -1759.08473572 1158.81079041 -1759.12838745 1159.74362183 C-1760.00146777 1178.97686745 -1760.2029126 1198.18900179 -1760.1875 1217.4375 C-1760.18723312 1218.18905869 -1760.18696625 1218.94061737 -1760.18669128 1219.71495056 C-1760.17523614 1245.52236876 -1759.73608671 1271.24364078 -1758 1297 C-1757.90878876 1298.38832031 -1757.90878876 1298.38832031 -1757.81573486 1299.8046875 C-1751.13501076 1401.03791207 -1732.13550024 1500.61962551 -1600.72607422 1828.98925781 C-1598.85525888 1832.25246782 -1597.00647213 1835.52755725 -1595.16015625 1838.8046875 C-1582.59806632 1861.06489849 -1569.04836952 1882.64848882 -1555 1904 C-1554.6179541 1904.58136719 -1554.2359082 1905.16273437 -1553.84228516 1905.76171875 C-1543.95166414 1920.78544688 -1533.60888242 1935.47686818 -1523 1950 C-1522.41250977 1950.804375 -1521.82501953 1951.60875 -1521.21972656 1952.4375 C-1513.93931268 1962.39146771 -1506.58678988 1972.27712365 -1499 1982 C-1498.57686523 1982.54398438 -1498.15373047 1983.08796875 -1497.71777344 1983.6484375 C-1487.23137324 1997.12319008 -1476.48817565 2010.38730385 -1465.39453125 2023.3671875 C-1463.92660401 2025.08593704 -1462.46321759 2026.80848996 -1461 2028.53125 C-1455.51438387 2034.97606129 -1449.94705759 2041.32053006 -1444.2265625 2047.55859375 C-1442.30866793 2049.66154833 -1440.42623955 2051.78669156 -1438.5625 2053.9375 C-1433.81548042 2059.38941344 -1428.90634755 2064.69204097 -1424 2070 C-1423.4766658 2070.56690048 -1422.9533316 2071.13380096 -1422.41413879 2071.71788025 C-1412.67035729 2082.25274524 -1402.65965582 2092.49736284 -1392.49975586 2102.63061523 C-1390.03706613 2105.08787782 -1387.57985798 2107.55053317 -1385.12304688 2110.01367188 C-1383.531571 2111.60448787 -1381.93978546 2113.19499413 -1380.34765625 2114.78515625 C-1379.62667252 2115.50816422 -1378.90568878 2116.23117218 -1378.16285706 2116.97608948 C-1374.1687968 2120.95194959 -1370.08475764 2124.75606498 -1365.79832458 2128.41575623 C-1363.95250218 2130.04184347 -1362.22183191 2131.74384929 -1360.5 2133.5 C-1357.55399785 2136.49234375 -1354.47016993 2139.25324172 -1351.2890625 2141.9921875 C-1349.06426861 2143.94362787 -1346.88829499 2145.94183648 -1344.71899414 2147.95458984 C-1339.51292706 2152.78304485 -1334.1818402 2157.3650513 -1328.6484375 2161.8203125 C-1326.02724881 2163.97757399 -1323.50845719 2166.21311 -1321 2168.5 C-1316.35562677 2172.72281823 -1311.54608208 2176.69597656 -1306.66650391 2180.64257812 C-1304.76215888 2182.19372936 -1302.87076869 2183.75988929 -1300.98046875 2185.328125 C-1293.07553529 2191.88372014 -1285.12425932 2198.33138922 -1276.93505859 2204.53027344 C-1274.62379414 2206.28573799 -1272.32173029 2208.05297651 -1270.01953125 2209.8203125 C-1260.73976521 2216.9346878 -1251.42726821 2223.96337851 -1241.86100769 2230.68795776 C-1240.00086174 2231.99939246 -1238.14595286 2233.31792383 -1236.29223633 2234.63842773 C-1225.63196016 2242.21997053 -1214.82897134 2249.56780013 -1203.9375 2256.8125 C-1203.08793732 2257.37826752 -1202.23837463 2257.94403503 -1201.36306763 2258.52694702 C-1165.05330528 2282.68992602 -1127.50756473 2304.53415724 -1089 2325 C-1087.96617187 2325.55187988 -1086.93234375 2326.10375977 -1085.8671875 2326.67236328 C-1070.61921589 2334.79576841 -1055.13586396 2342.26192349 -1039.41845703 2349.43115234 C-1036.17421931 2350.92004476 -1032.94266772 2352.43293653 -1029.71484375 2353.95703125 C-938.23005599 2397.03415437 -839.93138949 2426.59167727 -499 2466 C-498.33663635 2465.99139954 -497.67327271 2465.98279907 -496.98980713 2465.97393799 C-406.12670865 2464.75004059 -315.46601218 2453.78295016 -227 2433 C-226.17324768 2432.80577454 -225.34649536 2432.61154907 -224.49468994 2432.41143799 C-137.18121782 2411.81588723 -52.73128149 2381.34545868 96.89257812 2306.77441406 C100.19774872 2304.88708063 103.5121919 2303.01679172 106.828125 2301.1484375 C122.14555719 2292.50148714 137.17962807 2283.48041612 152 2274 C152.78938965 2273.49629883 153.5787793 2272.99259766 154.39208984 2272.47363281 C159.28270633 2269.34797885 164.14929847 2266.18720447 169 2263 C169.69158203 2262.54625 170.38316406 2262.0925 171.09570312 2261.625 C196.37683827 2245.00178785 221.07667158 2227.5231856 245 2209 C246.1461377 2208.11513916 246.1461377 2208.11513916 247.31542969 2207.21240234 C256.31496625 2200.26294608 265.23994859 2193.24969772 274 2186 C275.77068118 2184.56231259 277.54151892 2183.12481798 279.3125 2181.6875 C285.35972775 2176.73976821 291.27926347 2171.64901791 297.19726562 2166.54833984 C298.97485913 2165.02159309 300.75952015 2163.50358292 302.546875 2161.98828125 C308.95463465 2156.54741231 315.25081731 2151.01823787 321.38696289 2145.27148438 C324.12206952 2142.71276347 326.89336172 2140.21048059 329.72363281 2137.75708008 C344.13502221 2125.16481037 357.61366427 2111.54786114 371.12402344 2098.00634766 C373.6472369 2095.47736755 376.17501358 2092.95300302 378.70407295 2090.42987061 C380.68776379 2088.44981429 382.6690415 2086.46735706 384.64962387 2084.48419189 C386.02574605 2083.10709792 387.40384691 2081.73198212 388.78201294 2080.35693359 C393.17180401 2075.95077733 397.43444979 2071.49447259 401.4760437 2066.76550293 C404.21945234 2063.58726482 407.12091806 2060.55488852 410 2057.5 C414.76652725 2052.41400209 419.47506833 2047.30341454 424 2042 C424.88646428 2040.96722944 425.77321035 2039.93470072 426.66015625 2038.90234375 C428.71650221 2036.50772736 430.76933468 2034.11015261 432.8203125 2031.7109375 C434.88970698 2029.2917862 436.96777307 2026.88061267 439.0546875 2024.4765625 C444.46590926 2018.23068696 449.72624098 2011.90549165 454.79418945 2005.37744141 C457.68840114 2001.65256473 460.63867575 1997.98234494 463.63525391 1994.33935547 C471.12358601 1985.22972134 478.2033791 1975.84307868 485.23046875 1966.375 C486.8511186 1964.19982316 488.48401534 1962.03485642 490.125 1959.875 C532.27839936 1904.35945324 568.47636593 1843.96673766 600.03710938 1781.89001465 C601.00693148 1779.98639451 601.98132683 1778.08518142 602.95703125 1776.18457031 C613.75927135 1755.12619205 623.65199333 1733.74164671 633 1712 C633.32246704 1711.25087341 633.64493408 1710.50174683 633.97717285 1709.72991943 C667.93079661 1630.74120759 693.77507008 1548.0868105 730.25 1324.0625 C730.36569839 1322.76051163 730.36569839 1322.76051163 730.48373413 1321.43222046 C733.34496296 1288.75668326 734.34624597 1256.00434306 734.26074219 1223.21557617 C734.24934006 1218.81465968 734.25615943 1214.41398513 734.26761913 1210.01307678 C734.33931517 1177.48166771 733.08357222 1145.03365602 730.1875 1112.625 C730.10351959 1111.66482971 730.01953918 1110.70465942 729.93301392 1109.71539307 C721.54591241 1014.21788586 702.517219 919.97871125 627 711 C626.23526367 709.30713867 626.23526367 709.30713867 625.45507812 707.58007812 C609.89571632 673.2442693 593.36339468 639.35905627 574.54101562 606.68359375 C573.02031968 604.0353856 571.51558124 601.37875146 570.015625 598.71875 C542.29754552 549.65192985 510.67199857 502.43401758 476 458 C475.57686523 457.45601562 475.15373047 456.91203125 474.71777344 456.3515625 C467.75519029 447.40482353 460.64438554 438.58348802 453.47216797 429.80419922 C452.17728489 428.21726954 450.88709522 426.62651263 449.59765625 425.03515625 C444.53313894 418.79838177 439.33945138 412.68187754 434.09375 406.59765625 C432.08054875 404.2621662 430.08071839 401.91643598 428.09375 399.55859375 C422.04437959 392.39942476 415.7970688 385.47378187 409.33862305 378.68017578 C406.26605763 375.44426936 403.25661734 372.17552982 400.33203125 368.8046875 C397.82463585 365.91593785 395.24717539 363.16517015 392.5 360.5 C389.90874819 357.98609899 387.48561765 355.4103649 385.15234375 352.66015625 C379.77688996 346.4679221 373.89819605 340.7495617 368.09399414 334.96362305 C366.0673702 332.94235732 364.04614453 330.91580426 362.02539062 328.88867188 C353.50511761 320.36070235 353.50511761 320.36070235 344.53295898 312.31469727 C342.40390249 310.48877447 340.45208367 308.51214778 338.5 306.5 C335.21145472 303.17230537 331.83618376 300.04663559 328.28515625 297.00390625 C325.93521916 294.94319219 323.64966874 292.82525813 321.36572266 290.69213867 C315.96074678 285.64492597 310.44939205 280.84342492 304.6796875 276.2109375 C301.86746685 273.8906505 299.18202737 271.46928866 296.5 269 C291.17025607 264.10625769 285.63229749 259.53892684 280 255 C278.78172437 254.00231195 277.56432693 253.00355089 276.34765625 252.00390625 C268.14352137 245.27551202 259.81489135 238.74225035 251.36328125 232.328125 C247.58585189 229.45772238 243.84617771 226.54154364 240.11254883 223.61450195 C232.50503761 217.65430237 224.81121229 211.89099026 216.90124512 206.33891296 C215.02469639 205.01739193 213.1540266 203.68796738 211.28491211 202.35595703 C201.33695372 195.27787404 191.26498904 188.40567278 181.09863281 181.64550781 C178.63115059 180.00409149 176.16700051 178.35776136 173.703125 176.7109375 C158.25649946 166.4079472 142.63060519 156.41469967 126.625 147 C125.4676764 146.31732797 124.31036883 145.63462877 123.15307617 144.9519043 C53.23232925 103.76047351 -19.63175006 69.42006709 -96 42 C-96.69146118 41.75096924 -97.38292236 41.50193848 -98.09533691 41.24536133 C-185.78221901 9.70302087 -277.50842714 -10.66066396 -428.375 -26.75 C-429.24178375 -26.80925659 -430.1085675 -26.86851318 -431.00161743 -26.92956543 C-436.99877967 -27.33202387 -442.99777343 -27.6823786 -449 -28 C-450.34464828 -28.0725853 -450.34464828 -28.0725853 -451.71646118 -28.14663696 C-471.78242662 -29.19210683 -491.85040976 -29.20143725 -511.9375 -29.1875 C-512.80029823 -29.18723312 -513.66309647 -29.18696625 -514.5520401 -29.18669128 C-540.23086268 -29.17673119 -565.8564357 -29.05447667 -591.47973633 -27.18359375 Z " fill="#000000" transform="translate(1838,107)"/>
<path d="M0 0 C29.74927461 -0.06890416 59.49854649 -0.12176657 89.24788409 -0.15319599 C92.78512924 -0.1569467 96.32237423 -0.16082981 99.85961914 -0.16479492 C100.56362134 -0.16558185 101.26762355 -0.16636878 101.99295915 -0.16717956 C113.29140707 -0.18012232 124.58980771 -0.20371233 135.88822787 -0.23145839 C147.53998076 -0.25982676 159.19170944 -0.27624137 170.84349543 -0.28226548 C177.36345783 -0.28612723 183.8833142 -0.29499608 190.40324211 -0.31719017 C275.73338028 -0.59593131 358.33499781 9.48980635 504 73 C504.8029248 73.48533203 505.60584961 73.97066406 506.43310547 74.47070312 C522.42825259 84.19657268 537.71386574 94.88876976 552 107 C552.98742188 107.8146875 553.97484375 108.629375 554.9921875 109.46875 C572.61073346 124.05778875 588.84309931 140.01000345 603 158 C604.16402344 159.4540625 604.16402344 159.4540625 605.3515625 160.9375 C616.4728877 175.05981772 626.01710378 190.16240438 634.78759766 205.83789062 C635.85928 207.74905027 636.94869619 209.64861381 638.04296875 211.546875 C685.49466262 296.47073125 690.61896963 406.02053045 664.99316406 498.57568359 C660.04591912 515.63321986 653.70535552 532.01086144 646 548 C645.66645508 548.7027002 645.33291016 549.40540039 644.98925781 550.12939453 C632.80028948 575.73835636 616.84067138 599.54672828 597.484375 620.3046875 C595.52798563 622.4271854 593.6337155 624.57601505 591.75 626.76171875 C587.7615771 631.33433714 583.54145949 635.6501533 579.25 639.9375 C578.06192749 641.12545166 578.06192749 641.12545166 576.84985352 642.33740234 C571.886284 647.25286053 566.85885843 651.84351615 561.3515625 656.14453125 C559.07002379 657.94474867 556.94714883 659.84174742 554.8125 661.8125 C517.15711879 695.52875445 468.38355646 719.0437224 421.01171875 735.23486328 C419.03334665 735.83013865 419.03334665 735.83013865 418 737 C418.9895166 737.17837402 418.9895166 737.17837402 419.99902344 737.36035156 C449.86470136 742.89707506 478.91462377 752.15399061 506 766 C506.92377441 766.46873535 507.84754883 766.9374707 508.79931641 767.42041016 C527.27343247 776.89308289 544.66933783 788.18130819 561 801 C561.80824219 801.62777344 562.61648438 802.25554688 563.44921875 802.90234375 C572.80307611 810.26794157 582.19390017 817.86745549 590.45703125 826.45703125 C592.0829797 828.0829797 593.79537814 829.52925078 595.5625 831 C663.37970986 889.63499576 705.74686897 988.24403881 713 1076 C713.08685059 1077.04051514 713.17370117 1078.08103027 713.26318359 1079.15307617 C714.07117801 1089.87387096 714.24295765 1100.56492599 714.25 1111.3125 C714.25101212 1112.71571503 714.25101212 1112.71571503 714.25204468 1114.14727783 C714.2202464 1142.1790918 711.57540479 1169.49466971 706 1197 C705.79568359 1198.02222656 705.59136719 1199.04445313 705.38085938 1200.09765625 C694.23418221 1254.38020475 669.63969974 1306.82690499 635 1350 C634.57348145 1350.53689453 634.14696289 1351.07378906 633.70751953 1351.62695312 C629.03701586 1357.50060886 624.15133897 1363.14493675 619.09375 1368.6875 C617.31095614 1370.65655591 615.58881553 1372.65890202 613.875 1374.6875 C605.67474868 1384.09762447 596.57671476 1393.00105817 587 1401 C585.68128906 1402.15242188 585.68128906 1402.15242188 584.3359375 1403.328125 C554.98499424 1428.85962141 521.67772824 1448.63006771 487 1466 C486.17967285 1466.41942871 485.3593457 1466.83885742 484.51416016 1467.27099609 C421.96444162 1499.23299062 349.6446424 1513.27814043 280.125 1518.75 C279.04224792 1518.83888489 279.04224792 1518.83888489 277.93762207 1518.92956543 C241.19128991 1521.8772672 204.07992753 1521.14531937 167.25241399 1521.11606562 C161.01745975 1521.11162131 154.78250507 1521.11303149 148.54754973 1521.11374746 C135.82980343 1521.11504762 123.1120624 1521.11177313 110.39431763 1521.10573006 C97.83399428 1521.09977732 85.27367314 1521.09595698 72.71334839 1521.09487724 C71.92726666 1521.0948085 71.14118492 1521.09473976 70.33128253 1521.09466894 C66.33785533 1521.09433053 62.34442812 1521.09402917 58.35100091 1521.09374207 C30.19379729 1521.09165139 2.03659654 1521.0849415 -26.12060547 1521.07543945 C-53.44514959 1521.06622916 -80.76969292 1521.05917523 -108.09423828 1521.05493164 C-109.81771235 1521.054661 -111.54118641 1521.05439029 -113.26466048 1521.05411953 C-127.2725451 1521.0519302 -141.28042974 1521.04988784 -155.28831439 1521.04788104 C-219.85887897 1521.03852501 -284.42943607 1521.01844639 -349 1521 C-349 1398.9 -349 1276.8 -349 1151 C-345.7 1151 -342.4 1151 -339 1151 C-338.84144531 1152.258125 -338.68289063 1153.51625 -338.51953125 1154.8125 C-335.6437472 1176.42014387 -329.85204152 1195.4808926 -315 1212 C-314.47148438 1212.60972656 -313.94296875 1213.21945312 -313.3984375 1213.84765625 C-297.48441791 1231.05517989 -273.86627988 1238.46353059 -251.12109375 1240.22265625 C-226.76029621 1241.00193072 -203.03691286 1232.36040494 -185 1216 C-166.5912506 1198.32086567 -159.90654804 1175.72275566 -157 1151 C-154.69 1151 -152.38 1151 -150 1151 C-150 1218.65 -150 1286.3 -150 1356 C-84.25974362 1355.88020321 -84.25974362 1355.88020321 -18.51953125 1355.7421875 C-9.63232454 1355.72218296 -0.74511758 1355.70229908 8.14208984 1355.68261719 C9.25577906 1355.68014575 10.36946829 1355.67767431 11.51690567 1355.67512798 C29.43814196 1355.6355337 47.35938446 1355.60273652 65.28063871 1355.57250018 C83.70678426 1355.54125882 102.13290374 1355.50259647 120.55901992 1355.45720994 C131.90607833 1355.42948922 143.25311794 1355.40738609 154.60020088 1355.39273749 C162.40764226 1355.38210084 170.21504699 1355.36418135 178.02246059 1355.34083296 C182.51012772 1355.32761822 186.99774407 1355.31732687 191.48543167 1355.31578636 C217.59057491 1355.30379094 243.64806531 1354.76232941 269.5625 1351.25 C270.82658691 1351.08153564 272.09067383 1350.91307129 273.39306641 1350.73950195 C334.30469056 1342.24697952 392.81816557 1320.98201047 438.6640625 1279.11328125 C440.7617099 1277.21557683 442.90103782 1275.3865007 445.0625 1273.5625 C489.47043527 1234.5400201 509.48146624 1171.68865938 513.3984375 1114.51953125 C517.45972395 1046.24823222 502.36918261 975.7531263 456.55859375 923.19921875 C455.06067657 921.52895239 453.55211981 919.86814402 452.03125 918.21875 C450.21041875 916.22984201 448.47912594 914.19317024 446.75 912.125 C437.73739156 901.82783588 426.93113599 893.1621044 416 885 C415.0416626 884.28094482 415.0416626 884.28094482 414.06396484 883.54736328 C339.58047331 828.10971179 249.18959639 821.0810042 159.71233916 820.69667697 C154.74500298 820.67441575 149.77769348 820.64722845 144.81037903 820.62062073 C135.45446103 820.57122454 126.0985278 820.52609489 116.74258071 820.48259836 C106.06978401 820.43276445 95.39701412 820.3780215 84.72424352 820.32291877 C62.81618746 820.20991634 40.90810566 820.10290784 19 820 C19.27714844 818.865625 19.55429688 817.73125 19.83984375 816.5625 C20.20595709 815.04172152 20.57182963 813.52088505 20.9375 812 C21.11990234 811.25621094 21.30230469 810.51242187 21.49023438 809.74609375 C28.1271705 781.99163361 21.20985575 754.33412853 6.80078125 730.23828125 C-7.61735204 706.97833284 -26.29933632 685.77218567 -48.3515625 669.51953125 C-49.18578735 668.90319824 -49.18578735 668.90319824 -50.03686523 668.27441406 C-51.60511973 667.12298449 -53.1831707 665.98493293 -54.76171875 664.84765625 C-55.50035156 664.23792969 -56.23898437 663.62820313 -57 663 C-57 662.34 -57 661.68 -57 661 C-44.09148304 655.3314061 -31.98981699 655.29557531 -18.08349609 655.37231445 C-15.69486434 655.3671272 -13.30623653 655.35972069 -10.9176178 655.35028076 C-5.79732147 655.3347814 -0.6773528 655.33484305 4.4429512 655.34728432 C11.87727717 655.36527802 19.31129723 655.35503682 26.74561112 655.33680775 C38.85321124 655.3077321 50.96072896 655.29928854 63.06835938 655.30541992 C74.74773098 655.31126312 86.42707469 655.31237751 98.10644531 655.3034668 C98.82389568 655.30292423 99.54134604 655.30238165 100.28053732 655.30182264 C108.14994757 655.2956284 116.01935089 655.2868423 123.88875389 655.27447033 C124.58499237 655.27337784 125.28123084 655.27228536 125.99856745 655.27115976 C128.78599561 655.2667361 131.5734236 655.26226034 134.36085109 655.25743415 C143.09790625 655.2423374 151.83481896 655.23903418 160.5718869 655.24773759 C197.33514827 655.37479958 197.33514827 655.37479958 234 653 C234.80582268 652.92034941 235.61164536 652.84069881 236.4418869 652.75863457 C240.64165722 652.33717281 244.8202257 651.83744805 249 651.25 C250.22235352 651.08081055 251.44470703 650.91162109 252.70410156 650.73730469 C319.5919835 641.08886053 387.00989521 614.15355343 428.76269531 558.64306641 C429.86916673 557.17373874 430.99210897 555.71684799 432.1171875 554.26171875 C456.35659648 522.18587434 468.08646873 483.4382554 473 444 C473.1045752 443.19699463 473.20915039 442.39398926 473.31689453 441.56665039 C474.44650413 431.41329904 474.24399375 421.13967398 474.25 410.9375 C474.25067474 409.91010712 474.25134949 408.88271423 474.25204468 407.82418823 C474.18576673 344.2723085 454.77978039 287.52438436 411 241 C410.38382813 240.34128906 409.76765625 239.68257812 409.1328125 239.00390625 C395.95345835 225.35160877 379.48804418 214.26361481 363 205 C362.29423828 204.5992627 361.58847656 204.19852539 360.86132812 203.78564453 C318.3368989 179.83994021 268.3603264 169.29523612 220 166 C218.78724396 165.9109288 217.57448792 165.8218576 216.32498169 165.73008728 C205.17593503 164.97035575 194.15475787 165.06184298 182.99048615 165.38150978 C176.69849469 165.54124175 170.40449623 165.59753558 164.11096573 165.66658497 C158.63297485 165.73217625 153.1615841 165.83801793 147.68652344 166.03198242 C107.69367305 167.3979769 107.69367305 167.3979769 96.67965126 157.82361889 C92.52167302 153.84620733 89.03513687 149.37933468 85.79638672 144.62904358 C83.73118923 141.60659071 81.43648027 138.89630743 79.0125885 136.16015625 C73.3061032 129.54901551 69.05666915 121.76652564 65.06298828 114.04443359 C64.36196504 112.69616336 63.64702389 111.35502652 62.91748047 110.02197266 C57.53779759 100.18156496 54.8643206 90.74091441 52.78100586 79.73779297 C46.92376487 49.28013984 27.05552549 24.40913471 4.43359375 4.1796875 C2.92066892 2.82461197 1.43617047 1.43617047 0 0 Z " fill="#000000" transform="translate(1303,565)"/>
<path d="M0 0 C3.50635188 2.83671777 6.77924953 5.84464547 10 9 C10.62777344 9.59167969 11.25554688 10.18335938 11.90234375 10.79296875 C24.167553 23.39192519 29.03465825 41.91348264 29 59 C28.36723102 66.48519408 27.02420947 73.77068046 25 81 C25.44730469 80.55269531 25.89460938 80.10539063 26.35546875 79.64453125 C26.96003906 79.03996094 27.56460938 78.43539062 28.1875 77.8125 C28.83074219 77.16539062 29.47398437 76.51828125 30.13671875 75.8515625 C31.56280799 74.43444237 33.02412051 73.05268853 34.5 71.6875 C38.13417572 67.7807611 40.98996816 63.39590067 44 59 C51.48560071 48.19266398 59.74523229 38.28613866 70 30 C70.95519531 29.20722656 71.91039062 28.41445313 72.89453125 27.59765625 C91.02586932 12.85459627 109.82034719 8.15169317 133 10 C138.51634975 10.77118569 143.71560783 12.23853594 149 14 C149.89332031 14.27714844 150.78664063 14.55429687 151.70703125 14.83984375 C173.28065315 22.40280975 193.35073271 41.77612025 205 61 C205.39348633 61.64598145 205.78697266 62.29196289 206.19238281 62.95751953 C212.99650297 74.35482872 216.26994825 85.13885707 218.55566406 98.16723633 C220.22249837 106.91326393 223.02449618 114.36613393 227 122.3125 C227.57524414 123.48167969 228.15048828 124.65085937 228.74316406 125.85546875 C235.68264091 139.71148202 243.72490289 152.36781459 254 164 C255.17369141 165.33804688 255.17369141 165.33804688 256.37109375 166.703125 C262.11291956 173.10041038 268.12275756 179.22169933 274.1875 185.3125 C275.30983032 186.4418396 275.30983032 186.4418396 276.45483398 187.59399414 C280.5765923 191.70393053 284.78784681 195.64441213 289.19799805 199.44311523 C291.61857772 201.53443573 293.96293722 203.70448633 296.3125 205.875 C300.78176658 209.95482841 305.37240643 213.82718873 310.1015625 217.6015625 C312.54352179 219.62226736 314.8943933 221.69708933 317.24609375 223.8203125 C321.79891276 227.88478972 326.54238009 231.60876401 331.4375 235.25 C332.30511963 235.89622314 333.17273926 236.54244629 334.06665039 237.20825195 C353.8056629 251.79655134 374.54735893 264.22657096 396.74267578 274.72851562 C408.57261127 280.44299306 421.97425426 289.94850851 428 302 C427.92578125 303.98046875 427.92578125 303.98046875 427 306 C408.50271183 318.05406613 381.88569662 321.06166586 360.4609375 321.23828125 C359.49580231 321.246353 358.53066711 321.25442474 357.5362854 321.26274109 C355.50776909 321.27646457 353.47923083 321.28723821 351.45068359 321.29516602 C349.41089935 321.30666186 347.37114462 321.32707547 345.33154297 321.35668945 C328.16704785 321.60482745 313.12382887 320.15515361 297.5 312.5 C295.88547477 311.73945998 294.27089181 310.9790425 292.65625 310.21875 C291.893125 309.85265625 291.13 309.4865625 290.34375 309.109375 C286.5943757 307.33467116 282.79880758 305.66566593 279 304 C280.91314424 305.49033387 282.82654923 306.98033139 284.74023438 308.4699707 C286.38377545 309.74935528 288.02700017 311.02914633 289.66992188 312.30932617 C293.34592372 315.17087374 297.02366072 318.02853045 300.73828125 320.83984375 C323.87404261 338.3539261 323.87404261 338.3539261 328 348 C328.1875 351.1875 328.1875 351.1875 328 354 C327 355 327 355 325.08007812 355.1328125 C308.37390822 355.08160585 293.83088035 352.19318485 278 347 C277.10796875 346.71850098 276.2159375 346.43700195 275.296875 346.14697266 C261.96087719 341.93148395 249.49316345 336.25984009 237 330 C239.10819863 334.31801794 241.70868492 338.23208571 244.34375 342.24609375 C247.12989825 346.87872233 248.26813798 350.32526289 248.1875 355.75 C248.18105469 356.71421875 248.17460938 357.6784375 248.16796875 358.671875 C248 361 248 361 247 362 C229.57320389 361.8979397 214.74266222 356.82873992 199 350 C198.23155762 349.66806641 197.46311523 349.33613281 196.67138672 348.99414062 C181.08991191 342.18085773 168.14207751 334.02323173 156 322 C155.26040039 321.2687793 154.52080078 320.53755859 153.75878906 319.78417969 C149.0463623 315.1132721 144.35834637 310.41875561 139.68896484 305.70483398 C138.46243776 304.46678272 137.23230264 303.23230264 136 302 C136.46055786 303.16233154 136.46055786 303.16233154 136.93041992 304.34814453 C138.09715355 307.29598194 139.26175834 310.24464997 140.42504883 313.19384766 C141.1652546 315.06865639 141.90778678 316.94254609 142.65039062 318.81640625 C143.86981114 321.90996969 145.07828949 325.00691436 146.27191162 328.11047363 C146.76433154 329.388396 147.2602392 330.66497904 147.75933838 331.94030762 C148.49454087 333.82756711 149.21043938 335.72231096 149.92578125 337.6171875 C150.34899658 338.72433105 150.77221191 339.83147461 151.20825195 340.97216797 C152.03647368 344.13948397 151.92934868 345.89880778 151 349 C138.34303282 348.75659679 127.78777843 339.32333395 119 331 C115.78673483 327.48369519 112.88563397 323.7870708 110 320 C109.29230469 319.12988281 108.58460938 318.25976562 107.85546875 317.36328125 C93.8853463 299.91847757 81.74027457 280.56737101 71 261 C70.57283691 260.23848633 70.14567383 259.47697266 69.70556641 258.69238281 C56.15559271 234.49924542 48.43345676 208.90433955 43.7355957 181.65356445 C41.27409177 167.78734275 33.57862193 159.87523744 22.52587891 151.76220703 C13.7036599 145.61407444 5.75758014 143.88178483 -5 144 C-2.16984976 151.76412898 0.9510016 159.20476082 4.765625 166.5390625 C7.80935948 172.60726732 8.33702145 178.61935248 6.33935547 185.16455078 C3.59087825 192.78930721 0.29699542 200.21249172 -3.1015625 207.56640625 C-26.72571475 259.50671415 -17.16388042 327.31956899 -3.27246094 381.03564453 C-1.73830655 387.49881415 -0.71186722 393.52079148 -0.77368164 400.17700195 C-0.7781257 401.01395001 -0.78256975 401.85089808 -0.78714848 402.7132082 C-0.97066952 417.48235747 -1.95992833 432.24414965 -2.78443027 446.98827147 C-3.03745065 451.5337407 -3.28423198 456.07954906 -3.53175354 460.62532043 C-4.00075137 469.22135182 -4.47530909 477.81706668 -4.9519015 486.41267997 C-5.49101781 496.14133543 -6.02349718 505.87035073 -6.55559242 515.59939229 C-7.3430567 529.99326744 -8.13293978 544.38701037 -8.92927933 558.78039742 C-9.01442303 560.31971071 -9.09947375 561.85902915 -9.18441582 563.39835358 C-9.41439308 567.5645309 -9.64749157 571.73051653 -9.88296008 575.89638686 C-10.00752343 578.13522217 -10.12658751 580.37431656 -10.24550056 582.61345863 C-10.3289718 584.13503718 -10.41254569 585.6566101 -10.49623108 587.17817688 C-10.53192371 587.87383387 -10.56761634 588.56949086 -10.60439056 589.28622836 C-10.82678218 593.25200042 -11.27152536 597.09553355 -12 601 C-9.32030004 600.2747856 -6.64061332 599.54952235 -3.9609375 598.82421875 C-3.08678696 598.58762039 -2.21263641 598.35102203 -1.31199646 598.10725403 C3.79525863 596.72474999 8.90229397 595.34143961 14.0090332 593.95703125 C16.28596486 593.3398246 18.56290189 592.72263775 20.83984375 592.10546875 C22.02896866 591.78315277 23.21809357 591.46083679 24.44325256 591.12875366 C31.10062545 589.32500389 37.75887315 587.52457043 44.41845703 585.72900391 C165.88032433 560.18711885 165.88032433 560.18711885 270 500 C270.97453125 499.05447266 270.97453125 499.05447266 271.96875 498.08984375 C276.01812858 493.90241817 278.94623189 489.06420113 281.875 484.0625 C282.26905029 483.40612549 282.66310059 482.74975098 283.0690918 482.07348633 C285.80669368 477.20309459 287.08377068 472.62080848 287 467 C285.73942346 462.9958157 284.71474363 461.4873252 281.25 459.125 C275.27566658 457.05696151 269.84387182 458.04997071 263.8125 459.5 C262.75192383 459.75414673 262.75192383 459.75414673 261.66992188 460.01342773 C255.619729 461.50512629 249.64683616 463.2443028 243.66650391 464.9921875 C208.77991389 475.17615411 181.74352532 475.93222636 148.9453125 458.28125 C145.07768305 456.12558455 141.55501787 453.6360968 138 451 C139.34713003 448.03019989 140.86548328 445.83869086 143.08984375 443.4609375 C143.70335693 442.80311279 144.31687012 442.14528809 144.94897461 441.4675293 C145.60518799 440.77699463 146.26140137 440.08645996 146.9375 439.375 C147.61627197 438.65932861 148.29504395 437.94365723 148.99438477 437.20629883 C170.37862273 414.83754277 196.19035986 397.32408181 228 396 C259.63232658 395.48143727 289.73401562 401.72313118 313.18359375 424.08203125 C327.4568834 439.0787235 334.68433404 460.18084168 334.25 480.703125 C333.3834646 492.13056056 331.12317311 502.68385579 326 513 C325.49597656 514.04542969 324.99195313 515.09085938 324.47265625 516.16796875 C315.69954922 533.44582895 302.31096395 548.27017188 287 560 C285.65035156 561.07314453 285.65035156 561.07314453 284.2734375 562.16796875 C257.04061127 583.36155941 224.76216015 596.83401003 192.4765625 608.265625 C191.8188662 608.49877663 191.16116989 608.73192825 190.4835434 608.97214508 C176.17872353 614.03193132 161.74309036 618.648191 147.24792099 623.13139725 C145.20829382 623.7629132 143.16943144 624.39684445 141.13076782 625.03146362 C117.81347567 632.28822784 94.42872933 639.30623862 70.98046875 646.12890625 C70.12492905 646.37800247 69.26938934 646.62709869 68.38792419 646.88374329 C62.99468693 648.44538926 57.58448707 649.92352803 52.1530304 651.34703064 C50.03959233 651.80325726 50.03959233 651.80325726 49 653 C49.57105469 653.26514404 50.14210938 653.53028809 50.73046875 653.8034668 C85.17653955 669.86620629 119.15046105 687.62923836 146.46484375 714.5 C147.77784768 715.78293513 149.12050431 717.03540272 150.46875 718.28125 C170.09159826 736.76654184 185.3540521 761.68795958 186.94091797 788.86376953 C187.27659803 801.00096186 183.34197175 812.47594994 175.5625 821.75 C157.72690573 840.11484039 130.29398853 843.79409423 106 846 C107.54107422 846.92619141 107.54107422 846.92619141 109.11328125 847.87109375 C117.59601842 853.02811317 125.62026894 858.31045961 133 865 C133.52190918 865.47276367 134.04381836 865.94552734 134.58154297 866.43261719 C147.37814733 878.18191952 158.74487133 892.50398835 160.203125 910.5078125 C160.47077895 925.45182446 154.7736276 937.66255258 144.65332031 948.51049805 C116.78892454 976.89516427 68.6007539 989.99233072 30.80224609 997.5703125 C28.91367615 997.94833389 28.91367615 997.94833389 27 999 C27.59683594 999.45246094 28.19367187 999.90492188 28.80859375 1000.37109375 C42.94632437 1011.48381217 55.43964503 1024.46140229 66 1039 C66.46680176 1039.63309082 66.93360352 1040.26618164 67.41455078 1040.91845703 C82.08264922 1060.86883166 94.0706405 1082.10749013 105.11193848 1104.22320557 C105.95636227 1105.91269154 106.80568578 1107.59972596 107.65527344 1109.28662109 C114.99596169 1123.91604811 121.60377486 1138.81471577 128 1153.875 C128.36357605 1154.73098785 128.7271521 1155.58697571 129.10174561 1156.46890259 C133.24549022 1166.24812576 137.27737192 1176.05136594 141 1186 C132.67087183 1182.10641225 127.04936528 1172.92039598 121.375 1165.90625 C118.83335338 1162.79607716 116.23417689 1159.74088007 113.625 1156.6875 C109.84186621 1152.25167025 106.19466405 1147.73398249 102.625 1143.125 C98.17050437 1137.38104511 93.49239002 1131.86990114 88.70239258 1126.40380859 C85.49695778 1122.74250461 82.36816869 1119.03859804 79.3125 1115.25 C75.4808131 1110.51839397 71.44148302 1106.01551136 67.3203125 1101.53515625 C65.42718797 1099.46674242 63.57748296 1097.37594124 61.75 1095.25 C51.34209016 1083.29197593 40.43145387 1071.31183793 28.35546875 1061.01953125 C26.48169084 1059.41299198 24.63759888 1057.78478937 22.80078125 1056.13671875 C7.94383195 1042.89298315 -8.25657616 1030.20132079 -26.72192383 1022.38720703 C-27.80368896 1021.92942871 -28.8854541 1021.47165039 -30 1021 C-30.78412878 1030.97032767 -31.56658671 1040.94078491 -32.34690857 1050.91141129 C-32.70929076 1055.54110356 -33.07224953 1060.17074913 -33.43652344 1064.80029297 C-33.78800908 1069.26758188 -34.13798349 1073.73498684 -34.48690796 1078.2024765 C-34.62033205 1079.90735855 -34.75430173 1081.612198 -34.88882446 1083.31699371 C-35.07706467 1085.70373185 -35.26336911 1088.09061375 -35.44921875 1090.47753906 C-35.50532318 1091.18316483 -35.56142761 1091.88879059 -35.61923218 1092.61579895 C-35.86230281 1095.76167982 -36 1098.84102575 -36 1102 C-35.24976563 1102.21914062 -34.49953125 1102.43828125 -33.7265625 1102.6640625 C-20.24080541 1106.84226936 -8.88275278 1113.38334892 -1.98535156 1126.16894531 C4.73532856 1139.5036281 6.52292387 1154.55614082 2.3125 1169.0625 C-2.62257339 1182.73676585 -10.73391903 1193.51932645 -24 1200 C-37.76884232 1206.3251255 -54.81315348 1207.41245884 -69.40625 1202.96484375 C-82.25717574 1198.1844542 -92.23310585 1190.07602653 -99 1178 C-105.21654591 1163.91800728 -106.5718912 1147.47529496 -101.25390625 1132.85546875 C-95.18824853 1119.04239774 -85.94369386 1109.9429439 -72 1104 C-69.34805247 1103.26418182 -66.67666177 1102.64345316 -64 1102 C-64.06041977 1101.22120483 -64.12083954 1100.44240967 -64.18309021 1099.64001465 C-64.75789613 1092.22815188 -65.33154048 1084.81620049 -65.90394497 1077.40415192 C-66.19812029 1073.59539541 -66.49271342 1069.78667227 -66.78833008 1065.97802734 C-67.07466743 1062.28872046 -67.35981766 1058.59932343 -67.64421272 1054.90986633 C-67.75182605 1053.51635093 -67.85983651 1052.12286613 -67.96829033 1050.72941589 C-68.73883097 1040.82444754 -69.40448162 1030.91670913 -70 1021 C-71.12644424 1021.54285141 -72.25288849 1022.08570282 -73.41346741 1022.64500427 C-74.04709229 1022.95035819 -74.68071718 1023.25571211 -75.33354282 1023.57031918 C-107.18265366 1038.98734312 -136.35650183 1065.07908245 -159.16796875 1091.88671875 C-161.04894563 1094.05645967 -162.98928109 1096.16470243 -164.94287109 1098.26904297 C-169.7000756 1103.39605403 -174.23170038 1108.63649386 -178.62109375 1114.0859375 C-181.35905374 1117.43982609 -184.17226739 1120.72183603 -187 1124 C-192.09996278 1129.92080323 -197.07987055 1135.92854227 -202 1142 C-207.23578648 1148.44331922 -212.52924516 1154.82990173 -217.90698242 1161.15478516 C-220.8763202 1164.65308011 -223.7960551 1168.18670473 -226.6875 1171.75 C-230.65474152 1176.62669942 -234.77905431 1181.34200816 -239 1186 C-239.66 1185.67 -240.32 1185.34 -241 1185 C-220.01477151 1134.7644223 -220.01477151 1134.7644223 -210 1114 C-209.46705322 1112.89446777 -209.46705322 1112.89446777 -208.92333984 1111.76660156 C-207.02898108 1107.8637993 -205.08177316 1103.99136173 -203.09423828 1100.13525391 C-201.838426 1097.6847108 -200.60588457 1095.22291847 -199.37109375 1092.76171875 C-188.80650228 1071.89633654 -176.75701195 1052.16884089 -162 1034 C-161.55269531 1033.43845215 -161.10539062 1032.8769043 -160.64453125 1032.29833984 C-154.92346338 1025.12767707 -148.70595439 1018.51436673 -142.25 1012 C-141.54069336 1011.28134766 -140.83138672 1010.56269531 -140.10058594 1009.82226562 C-135.98073482 1005.72750026 -131.8266601 1002.23462038 -127 999 C-127.8765625 998.79246094 -128.753125 998.58492187 -129.65625 998.37109375 C-230.27384281 973.93247111 -230.27384281 973.93247111 -252.9765625 937.859375 C-260.21106401 925.0575822 -262.00077858 913.29077964 -258.0390625 898.98046875 C-249.60605207 874.79104409 -227.11058077 858.49509588 -206 846 C-206.62753174 845.93530518 -207.25506348 845.87061035 -207.90161133 845.80395508 C-225.82352369 843.90223107 -243.91472999 841.69333363 -260 833 C-261.28777344 832.32324219 -261.28777344 832.32324219 -262.6015625 831.6328125 C-274.59113096 824.93169418 -280.39018668 816.28237712 -285.3125 803.625 C-289.37716659 782.1931216 -283.89896046 763.00975037 -272 745 C-265.10873983 734.95561647 -257.45939504 725.75278447 -249 717 C-247.69289063 715.61554688 -247.69289063 715.61554688 -246.359375 714.203125 C-225.10867139 692.20678266 -197.62302842 677.46888315 -170.75 663.5 C-169.61957275 662.91234863 -168.48914551 662.32469727 -167.32446289 661.71923828 C-161.29361193 658.61329388 -155.23396444 655.67458487 -149 653 C-154.65404867 650.80232177 -160.31087918 648.96117268 -166.1484375 647.3203125 C-167.95431247 646.80567023 -169.76013707 646.29085115 -171.56591797 645.77587891 C-172.98345367 645.37335907 -172.98345367 645.37335907 -174.42962646 644.96270752 C-195.88963372 638.85916607 -217.23244319 632.42375142 -238.51318359 625.72412109 C-242.30818847 624.52980494 -246.10557744 623.34347546 -249.90478516 622.16259766 C-300.07918216 606.56077219 -352.64213557 590.11193818 -393 555 C-393.98613281 554.14792969 -394.97226562 553.29585937 -395.98828125 552.41796875 C-414.52579439 536.10330626 -431.75404869 512.55222551 -433.90625 487.15625 C-433.9371875 486.4446875 -433.968125 485.733125 -434 485 C-434.0515625 483.9996875 -434.103125 482.999375 -434.15625 481.96875 C-434.68198428 462.51658157 -429.36776138 444.21389893 -417 429 C-415.98292969 427.73929688 -415.98292969 427.73929688 -414.9453125 426.453125 C-398.23475652 406.82862866 -373.50743834 398.8173708 -348.484375 396.796875 C-311.89957515 394.13987836 -286.65735609 403.72204795 -258.94482422 427.61914062 C-240.3884938 443.83451859 -240.3884938 443.83451859 -238 451 C-262.671564 467.89083304 -289.03988434 477.19080671 -319.15722656 471.55737305 C-328.94552075 469.52883346 -338.53695104 466.602319 -348.13183594 463.82373047 C-351.99342125 462.71469158 -355.86734163 461.65749511 -359.75 460.625 C-360.85859375 460.32851562 -361.9671875 460.03203125 -363.109375 459.7265625 C-369.37800535 458.15093379 -374.96230251 456.94848933 -381.25 459.125 C-384.71474363 461.4873252 -385.73942346 462.9958157 -387 467 C-388.04223246 477.1157856 -381.02022968 486.65354172 -375.125 494.25 C-338.51226353 537.60903724 -265.65683293 552.63872239 -212.67082596 567.12142563 C-209.53558281 567.9798241 -206.40205289 568.84438949 -203.26849461 569.70891476 C-178.65414262 576.49936069 -154.00626049 583.16585557 -129.33959961 589.76361084 C-119.96852496 592.27191766 -110.60775805 594.81751672 -101.25 597.375 C-100.54634308 597.56726166 -99.84268616 597.75952332 -99.1177063 597.95761108 C-95.41145985 598.97048486 -91.70554065 599.98454724 -88 601 C-88.1556115 600.31225526 -88.31122299 599.62451052 -88.47154999 598.91592503 C-89.05285283 595.70836432 -89.27693335 592.60057836 -89.4552002 589.34519958 C-89.51055144 588.36152982 -89.51055144 588.36152982 -89.56702089 587.35798794 C-89.68938476 585.16778869 -89.80659999 582.97734492 -89.92382812 580.78686523 C-90.01071339 579.21267011 -90.09791528 577.63849244 -90.18540955 576.06433105 C-90.42213526 571.78880115 -90.65438779 567.51303862 -90.8858242 563.23721957 C-91.12972501 558.74476356 -91.37765363 554.25252981 -91.62512207 549.76026917 C-92.0410186 542.20041482 -92.45429898 534.6404213 -92.86572266 527.08032227 C-93.44239105 516.48383191 -94.02365726 505.88759763 -94.60591602 495.29141319 C-95.06106836 487.00552133 -95.51506628 478.71956613 -95.96875 470.43359375 C-96.04073577 469.11890803 -96.04073577 469.11890803 -96.1141758 467.77766299 C-98.08556293 431.76081826 -98.08556293 431.76081826 -98.82252502 416.62698364 C-98.93487836 414.33086437 -99.05133936 412.03493926 -99.17346191 409.73931885 C-99.80091041 397.87249378 -98.44596094 387.35212916 -95.63330078 375.83081055 C-80.29458612 311.19795592 -77.79706454 250.00772619 -104.86425781 188.65698242 C-107.89866026 181.5582288 -108.20421653 174.31750338 -105.375 167.0625 C-103.22228189 162.24194909 -100.80840222 157.53942395 -98.3671875 152.859375 C-96.98011666 149.95841542 -95.95307118 147.0679815 -95 144 C-96.83391542 144.11614798 -98.66712628 144.24343233 -100.5 144.375 C-102.03140625 144.47941406 -102.03140625 144.47941406 -103.59375 144.5859375 C-111.02998619 145.48988364 -116.15042408 147.25436849 -122.125 151.8125 C-122.70636719 152.23853516 -123.28773438 152.66457031 -123.88671875 153.10351562 C-131.68170849 158.80539093 -131.68170849 158.80539093 -138.25 165.8125 C-138.72953125 166.41707031 -139.2090625 167.02164063 -139.703125 167.64453125 C-143.01641512 173.66234433 -143.65244082 181.22440962 -144.95239258 187.89648438 C-155.14767175 239.60764464 -181.0341626 284.33334298 -214 325 C-214.58910156 325.75667969 -215.17820312 326.51335937 -215.78515625 327.29296875 C-223.40318726 336.67044672 -234.63129029 344.88720208 -246 349 C-248.84375 349.1484375 -248.84375 349.1484375 -251 349 C-252.12678433 344.94055824 -251.83710974 342.60066695 -250.375 338.67578125 C-250.00109131 337.65476318 -249.62718262 336.63374512 -249.24194336 335.58178711 C-248.83210205 334.50292236 -248.42226074 333.42405762 -248 332.3125 C-247.59080322 331.20720947 -247.18160645 330.10191895 -246.76000977 328.96313477 C-243.27831806 319.6021549 -239.68674532 310.28206297 -236 301 C-236.59683594 301.66902344 -237.19367188 302.33804687 -237.80859375 303.02734375 C-250.37077362 316.93347154 -262.66005749 330.5304622 -279 340 C-280.11890625 340.66902344 -281.2378125 341.33804687 -282.390625 342.02734375 C-302.42216501 353.57777674 -323.89482232 360.9816867 -347 362 C-349.1770539 356.72923792 -349.15459277 353.30772487 -347.3359375 347.91015625 C-344.5688268 341.88238587 -340.74809176 336.45319849 -337 331 C-340.2100103 331.5865204 -342.83629041 332.88690401 -345.7199707 334.37426758 C-355.08998343 339.14007998 -364.85815176 342.51322769 -374.8125 345.8125 C-375.87493423 346.16680084 -375.87493423 346.16680084 -376.95883179 346.52825928 C-389.86211079 350.81499728 -402.00187375 354.39364767 -415.6875 354.75 C-416.76966797 354.79253906 -417.85183594 354.83507812 -418.96679688 354.87890625 C-424.722636 355.07426471 -424.722636 355.07426471 -427 355 C-428 354 -428 354 -428.4375 351.5 C-427.15574716 341.24597729 -416.95798749 333.09310436 -409.30859375 327.03515625 C-404.91928 323.62700169 -400.46629639 320.30630122 -396 317 C-394.69796631 316.03465332 -394.69796631 316.03465332 -393.36962891 315.04980469 C-387.92476358 311.01722906 -382.46798535 307.00116364 -377 303 C-377.49701416 303.24121582 -377.99402832 303.48243164 -378.50610352 303.73095703 C-395.28141436 311.84561573 -395.28141436 311.84561573 -403.8125 315.375 C-404.87082031 315.81585937 -405.92914062 316.25671875 -407.01953125 316.7109375 C-419.60361244 321.04729809 -431.658236 321.4455088 -444.83056641 321.33618164 C-447.8625768 321.31259664 -450.89370216 321.31564108 -453.92578125 321.32226562 C-468.83603055 321.30178629 -483.15989945 320.28856663 -497.6875 316.6875 C-498.57324707 316.4716626 -499.45899414 316.2558252 -500.37158203 316.03344727 C-510.14186362 313.57529641 -519.4229197 310.38560856 -528 305 C-527.50334865 300.49809582 -525.95052876 298.38818814 -522.875 295.125 C-521.64716797 293.82175781 -521.64716797 293.82175781 -520.39453125 292.4921875 C-519.60433594 291.66976563 -518.81414063 290.84734375 -518 290 C-517.40574219 289.34257813 -516.81148437 288.68515625 -516.19921875 288.0078125 C-508.72892114 279.98481984 -498.53631114 275.70033167 -488.8125 271 C-469.36401902 261.41443949 -451.25408431 250.11664684 -434 237 C-433.37303223 236.5246582 -432.74606445 236.04931641 -432.10009766 235.55957031 C-420.04430504 226.36899808 -408.60603969 216.46589541 -397.4375 206.22265625 C-395.35727275 204.32578236 -393.25443102 202.46607057 -391.125 200.625 C-376.10642684 187.52175095 -361.15515696 173.84937133 -349 158 C-348.30132813 157.15308594 -347.60265625 156.30617188 -346.8828125 155.43359375 C-339.17649183 145.79383676 -333.61487216 134.94367388 -328 124 C-327.59297852 123.22350098 -327.18595703 122.44700195 -326.76660156 121.64697266 C-321.45643601 111.39025755 -318.9386033 101.54843588 -316.92529297 90.19726562 C-315.12884433 80.56297811 -311.90944524 72.44795105 -307 64 C-306.05640625 62.37578125 -306.05640625 62.37578125 -305.09375 60.71875 C-300.24200109 53.00367386 -294.29142723 46.53376368 -288 40 C-287.36707031 39.29230469 -286.73414063 38.58460938 -286.08203125 37.85546875 C-272.49601592 23.12978767 -250.73707405 11.05077453 -230.63037109 9.85961914 C-202.84793022 8.84663871 -185.68978001 16.28355326 -165.1796875 34.97265625 C-162.72302549 37.25761608 -160.34053537 39.59620691 -158 42 C-157.49339844 42.46148438 -156.98679687 42.92296875 -156.46484375 43.3984375 C-150.62209452 48.85521924 -146.43464326 55.4114429 -142 62 C-137.0158167 69.35669282 -131.93195796 75.39987655 -125 81 C-125.20496094 80.33097656 -125.40992188 79.66195312 -125.62109375 78.97265625 C-131.11852514 59.37654913 -129.53807028 40.65864019 -120.3125 22.4375 C-116.96936157 16.5408086 -112.76882011 11.78479606 -108 7 C-107.32324219 6.30003906 -106.64648438 5.60007812 -105.94921875 4.87890625 C-79.10305702 -21.0572161 -29.49641059 -20.85986157 0 0 Z M-17 695 C-18.3169112 716.88570904 -19.31764583 738.77710161 -20.125 760.6875 C-20.16929138 761.86055695 -20.21358276 763.03361389 -20.25921631 764.24221802 C-20.76902262 777.8340822 -21.1388961 791.39810316 -21 805 C-20.29431885 805.02061493 -19.5886377 805.04122986 -18.86157227 805.06246948 C-10.63018879 805.3040886 -2.39904492 805.55311716 5.8319397 805.80791855 C7.2740536 805.85253866 8.71617192 805.89701614 10.15829468 805.94134903 C26.6229415 806.44822919 43.06858795 806.98307023 59.5 808.1875 C81.85859731 809.75766352 112.51764768 810.98823488 132 798 C130.61564795 786.61055812 118.66983163 775.88588322 111 768 C110.46358887 767.4416748 109.92717773 766.88334961 109.37451172 766.30810547 C105.29535254 762.12785758 101.02048728 758.41168325 96.375 754.875 C95.64917725 754.32223389 94.92335449 753.76946777 94.17553711 753.19995117 C80.4151753 742.92072408 65.39427757 734.3590441 50.28662109 726.23144531 C48.74767839 725.40265746 47.21158111 724.56856657 45.67822266 723.72949219 C34.33997812 717.53059982 22.76954057 711.94646305 11 706.625 C10.34963776 706.33008667 9.69927551 706.03517334 9.02920532 705.73132324 C0.45872864 701.85561909 -8.18094596 698.27740141 -17 695 Z M-210 767 C-211.23169922 768.13501953 -211.23169922 768.13501953 -212.48828125 769.29296875 C-219.8672194 776.32763296 -228.10676235 785.39385926 -232 795 C-232 795.99 -232 796.98 -232 798 C-212.6185119 810.44495552 -184.10123026 809.49710522 -162.01513672 808.22070312 C-154.36749519 807.78941129 -146.7137035 807.47077401 -139.06158447 807.13067627 C-137.10708848 807.04370236 -135.15262041 806.95609864 -133.19818115 806.86785889 C-115.13649577 806.05271449 -97.07428966 805.45098643 -79 805 C-78.81346225 790.53148065 -79.30118653 776.0748419 -79.74462891 761.61499023 C-79.83166024 758.7700325 -79.91497457 755.92500771 -79.99462891 753.07983398 C-80.53876209 733.6750249 -81.49621986 714.35711983 -83 695 C-120.68972497 695 -184.2519051 742.68002129 -210 767 Z M-92.49609375 849.1015625 C-93.19806381 849.21828812 -93.90003387 849.33501373 -94.62327576 849.45527649 C-96.89614958 849.83709352 -99.16695626 850.22957426 -101.4375 850.625 C-102.21700012 850.7597171 -102.99650024 850.8944342 -103.79962158 851.03323364 C-117.37310439 853.39342359 -130.75174235 856.18336091 -144 860 C-145.30735107 860.3719751 -145.30735107 860.3719751 -146.64111328 860.75146484 C-172.45062867 868.26135373 -206.10056838 881.67625324 -220.80859375 905.8125 C-224.52232367 912.58233201 -224.52232367 912.58233201 -224.5 920.125 C-221.24117065 929.99733597 -211.21517988 936.1234658 -202.515625 940.921875 C-168.39399674 957.95256682 -127.80245593 962.27361857 -90.1875 962.0625 C-88.6087254 962.05746947 -87.02994922 962.05290934 -85.45117188 962.04882812 C-81.6340748 962.03795816 -77.81705545 962.02078136 -74 962 C-73.86312471 949.83229383 -74.23164617 937.72474003 -74.79763794 925.5708313 C-75.03795545 920.40177637 -75.26592575 915.23218698 -75.4921875 910.0625 C-75.5597802 908.51986229 -75.5597802 908.51986229 -75.6287384 906.94606018 C-76.08533318 896.33692134 -76.40159811 885.7253198 -76.65795898 875.10961914 C-76.88892029 866.05393766 -77.38137302 857.03581574 -78 848 C-82.97570756 847.8869977 -87.5897431 848.28244433 -92.49609375 849.1015625 Z M-22 848 C-22.72028044 857.23820848 -23.2196679 866.45727827 -23.5 875.71875 C-23.54060547 876.97852661 -23.58121094 878.23830322 -23.62304688 879.53625488 C-23.72976249 882.85500797 -23.83431454 886.17381222 -23.9375 889.49267578 C-24.12147638 895.40147974 -24.30993277 901.31013922 -24.5 907.21875 C-24.54057022 908.48673431 -24.58114044 909.75471863 -24.62294006 911.06112671 C-24.90449941 919.65079329 -25.24996598 928.23540818 -25.68981934 936.81848145 C-26.10633324 945.21248153 -26.09335452 953.59809319 -26 962 C18.24825213 962.79641953 80.85761538 963.23237449 115.84765625 931.41015625 C122.28774343 925.48052967 122.28774343 925.48052967 124.375 917.4375 C124.23119505 908.3254956 118.71410062 901.95513036 112.6953125 895.5390625 C103.14642284 886.54373166 91.5703269 880.02980966 80 874 C79.09411133 873.52651123 79.09411133 873.52651123 78.16992188 873.04345703 C53.56242262 860.39531046 25.7176569 854.60224447 -1.375 850.0625 C-2.6343335 849.85093262 -3.89366699 849.63936523 -5.19116211 849.42138672 C-10.88696571 848.50915756 -16.22368189 847.96202 -22 848 Z " fill="#000000" transform="translate(1105,564)"/>
</svg>
