<?xml version="1.0" encoding="UTF-8"?>
<svg version="1.1" xmlns="http://www.w3.org/2000/svg" width="2669" height="2676">
<path d="M0 0 C0.33 0.66 0.66 1.32 1 2 C-0.05436609 4.33378694 -1.17186646 6.55628359 -2.375 8.8125 C-24.08961112 51.13726392 -35.39710559 97.82829581 -40 145 C-40.14356934 146.39206665 -40.14356934 146.39206665 -40.29003906 147.81225586 C-41.29077752 158.7889937 -41.24369863 169.79930905 -41.25 180.8125 C-41.25067474 181.87457672 -41.25134949 182.93665344 -41.25204468 184.03091431 C-41.1866073 249.15211722 -25.89973794 313.71440536 1.87744141 372.61083984 C3.04391503 375.0934651 4.18487745 377.58685011 5.32421875 380.08203125 C11.50041457 393.47655391 18.58557818 406.25646249 26 419 C26.86461939 420.49737501 27.72920543 421.99476929 28.59375 423.4921875 C32.91185635 430.93129281 37.3883069 438.26282831 41.9375 445.5625 C62.14047019 478.01209357 81.19003506 511.18070116 99 545 C99.59022949 546.11729492 100.18045898 547.23458984 100.78857422 548.38574219 C107.70647072 561.50398234 114.40522822 574.71840111 120.875 588.0625 C121.34209885 589.02215164 121.34209885 589.02215164 121.81863403 590.00119019 C122.69355875 591.80196393 123.56179027 593.60598504 124.4296875 595.41015625 C125.17581299 596.95908569 125.17581299 596.95908569 125.93701172 598.53930664 C127 601 127 601 127 603 C127.66 603 128.32 603 129 603 C129.32871094 601.83017578 129.32871094 601.83017578 129.6640625 600.63671875 C131.45395218 595.76424129 133.87548909 591.3540097 136.375 586.8125 C136.90810791 585.84143311 137.44121582 584.87036621 137.99047852 583.86987305 C143.28402121 574.33029787 148.99174193 565.10347944 155 556 C155.50611816 555.23123535 156.01223633 554.4624707 156.53369141 553.67041016 C169.53203205 534.03967747 183.95592706 515.45887903 199.3125 497.625 C200.0398938 496.77832764 200.0398938 496.77832764 200.78198242 495.91455078 C210.37324366 484.86016354 220.49320853 474.34149278 230.85595703 464.01367188 C232.76582994 462.10921495 234.67022149 460.19939181 236.57421875 458.2890625 C242.54695337 452.31273821 248.53297128 446.4460154 255 441 C256.19220408 439.95551705 257.38230563 438.90862943 258.5703125 437.859375 C266.246467 431.13018136 274.05664205 424.64467552 282.15039062 418.42431641 C284.09083873 416.93004842 286.02211104 415.4244036 287.953125 413.91796875 C305.26102217 400.47494182 323.23576448 388.31657503 342 377 C342.33 377.99 342.66 378.98 343 380 C341.4453125 382.13671875 341.4453125 382.13671875 339.125 384.6875 C307.37848764 422.19268205 303.4087182 477.29952944 306.9453125 524.09912109 C313.67933611 602.68823756 341.48890627 678.50283419 401.51757812 812.921875 C402.97306263 815.94406679 404.41804624 818.97103477 405.859375 822 C416.30593872 843.93068936 427.03708052 865.74327181 438.453125 887.1875 C441.03253276 892.03894647 443.54799525 896.92270857 446.06616211 901.80615234 C452.37905186 914.04339388 458.85331817 926.17568492 465.48925781 938.24023438 C467.06434891 941.11755011 468.62414123 944.00269897 470.1796875 946.890625 C475.49591078 956.75995435 480.87509898 966.57956278 486.4375 976.3125 C493.66922468 989.01448755 500.41871697 1001.95057372 507 1015 C507.77923828 1016.54228271 507.77923828 1016.54228271 508.57421875 1018.11572266 C545.0627014 1090.84646105 566.73567926 1171.80767775 577 1302 C577.03287109 1303.64621338 577.03287109 1303.64621338 577.06640625 1305.32568359 C578.40781119 1384.703321 566.01138394 1463.70659022 488.41064453 1654.55322266 C487.14806839 1656.74317386 485.92096055 1658.946573 484.71484375 1661.16796875 C478.16379753 1673.21740407 470.61525783 1684.60181887 463 1696 C462.43200684 1696.85062012 461.86401367 1697.70124023 461.27880859 1698.57763672 C449.77369958 1715.74122041 437.61820455 1732.34362559 424.43701172 1748.25878906 C422.35496868 1750.7815772 420.30593205 1753.3309177 418.25 1755.875 C414.65951125 1760.26118314 410.92161279 1764.48915411 407.10546875 1768.6796875 C405.27082315 1770.70154184 403.47231214 1772.74678522 401.6875 1774.8125 C392.83363135 1784.94944067 383.53038798 1794.63476114 373.99853516 1804.13183594 C372.23351456 1805.8914348 370.47398867 1807.65640397 368.71484375 1809.421875 C362.97665532 1815.16343484 357.18481703 1820.73620882 351 1826 C349.22429779 1827.61967817 347.45291693 1829.24411718 345.6875 1830.875 C340.28523429 1835.79624205 334.68694329 1840.4139906 329 1845 C327.81673451 1845.97407866 326.63449947 1846.94941 325.453125 1847.92578125 C254.67716064 1906.25662467 171.41588657 1950.04436811 -175.63583374 1998.96484375 C-252.91745128 1991.26085896 -327.48777687 1970.45115777 -398 1938 C-399.00933594 1937.5359375 -400.01867188 1937.071875 -401.05859375 1936.59375 C-415.36614537 1929.97580234 -429.2968881 1922.79142687 -443 1915 C-444.51424561 1914.14075928 -444.51424561 1914.14075928 -446.05908203 1913.26416016 C-472.39441006 1898.22062735 -497.96978492 1881.51814519 -522 1863 C-522.64404785 1862.50467773 -523.2880957 1862.00935547 -523.95166016 1861.49902344 C-528.00081796 1858.37346663 -532.0130042 1855.20438217 -536 1852 C-536.928125 1851.25492188 -537.85625 1850.50984375 -538.8125 1849.7421875 C-550.38907798 1840.35304431 -561.58075065 1830.58378807 -572.47363281 1820.41308594 C-573.88363599 1819.10772791 -575.3121441 1817.82243478 -576.7421875 1816.5390625 C-583.64533963 1810.33991455 -590.24330411 1803.86298185 -596.8125 1797.3125 C-598.15634766 1795.97554077 -598.15634766 1795.97554077 -599.52734375 1794.61157227 C-604.00136018 1790.12712203 -608.3384002 1785.5872523 -612.46459961 1780.78051758 C-614.70204195 1778.18588139 -617.03978751 1775.69452242 -619.375 1773.1875 C-623.66751208 1768.54095872 -627.73338031 1763.7590076 -631.69921875 1758.828125 C-633.73817628 1756.32183424 -635.823751 1753.86405682 -637.93310547 1751.41699219 C-644.68435652 1743.56403256 -650.87763006 1735.34815889 -657 1727 C-657.50756836 1726.31341309 -658.01513672 1725.62682617 -658.53808594 1724.91943359 C-711.02406499 1653.87295533 -749.21831298 1573.9554655 -790.203125 1377.87109375 C-790.26955704 1377.19708527 -790.33598907 1376.52307678 -790.4044342 1375.8286438 C-791.60017771 1363.18459811 -792.16651829 1350.59856124 -792.203125 1337.90234375 C-792.21014555 1336.39040599 -792.21723238 1334.87846854 -792.22438049 1333.36653137 C-792.24379826 1328.55684996 -792.24881491 1323.74721665 -792.25 1318.9375 C-792.25044186 1318.11838638 -792.25088371 1317.29927277 -792.25133896 1316.45533752 C-792.25809639 1292.57902334 -792.12539545 1268.8362945 -789.25323486 1245.09967041 C-788.98744914 1242.8959359 -788.73318234 1240.69105353 -788.47998047 1238.48583984 C-779.70469232 1162.99790448 -758.58741888 1090.10560547 -703.58105469 978.765625 C-700.7818031 973.86909598 -698.11185405 968.90302301 -695.4375 963.9375 C-694.89552979 962.93195068 -694.35355957 961.92640137 -693.79516602 960.89038086 C-692.71660703 958.8890997 -691.63823567 956.88771741 -690.56005859 954.88623047 C-688.61653634 951.29056222 -686.65273708 947.70625574 -684.68725586 944.12255859 C-665.22339722 908.60688516 -646.75533424 872.58268936 -628.60141373 836.38360596 C-627.70811889 834.60358613 -626.81323036 832.82436636 -625.91830444 831.04516602 C-586.55425964 752.73691152 -551.57169355 670.87012128 -524 462 C-524.11827148 461.16275391 -524.23654297 460.32550781 -524.35839844 459.46289062 C-528.81426033 429.59841171 -540.48212377 402.74086697 -559 379 C-558.67 378.34 -558.34 377.68 -558 377 C-541.03349179 387.11503895 -524.65770032 397.94726258 -509 410 C-507.95714844 410.78761719 -506.91429687 411.57523438 -505.83984375 412.38671875 C-499.07797518 417.50769103 -492.54628174 422.84507644 -486.10546875 428.36328125 C-483.34747097 430.72110229 -480.52553631 432.98890381 -477.6875 435.25 C-470.84359135 440.824314 -464.50730059 446.93136821 -458.11132812 453.00634766 C-455.99842251 455.00148956 -453.86955192 456.97794748 -451.734375 458.94921875 C-445.15558672 465.03310863 -438.76337127 471.10061103 -432.87890625 477.8671875 C-431.11247847 479.87232174 -429.28270827 481.75502662 -427.375 483.625 C-423.70484139 487.24499699 -420.35615086 491.08979767 -417 495 C-416.11645345 496.00831053 -415.23229234 497.01608274 -414.34765625 498.0234375 C-407.09305752 506.3279639 -400.2957507 514.91860594 -393.68847656 523.74511719 C-392.55314702 525.26129759 -391.41441322 526.77493423 -390.27246094 528.28613281 C-374.01757124 549.80502922 -360.36349558 572.60803339 -347 596 C-347.04789169 595.42689087 -347.09578339 594.85378174 -347.14512634 594.26330566 C-347.65403535 588.16136883 -348.15587203 582.05887654 -348.65405273 575.95605469 C-348.83950515 573.69484508 -349.02661325 571.43377051 -349.21557617 569.17285156 C-351.10330569 546.56036895 -352.21607794 524.00576224 -352.1875 501.3125 C-352.18689575 500.40200897 -352.1862915 499.49151794 -352.18566895 498.55343628 C-352.04261009 417.85515787 -338.66870071 337.98903702 -239.52734375 154.9296875 C-237.03670312 152.04254613 -234.63817759 149.09713333 -232.25 146.125 C-229.22823531 142.4096274 -226.09829616 138.97704742 -222.65625 135.65234375 C-220.96233581 133.96242464 -219.4225168 132.19940094 -217.875 130.375 C-210.888473 122.28450711 -203.16428524 114.65046478 -195.015625 107.734375 C-192.49770563 105.56779322 -190.06735991 103.31383735 -187.625 101.0625 C-182.58007898 96.47244891 -177.39141147 92.17470104 -172 88 C-171.41541016 87.54286621 -170.83082031 87.08573242 -170.22851562 86.61474609 C-151.00917403 71.59781362 -131.11171829 58.22501664 -110 46 C-109.17226074 45.52046875 -108.34452148 45.0409375 -107.49169922 44.546875 C-102.37695866 41.60376218 -97.21344767 38.76426694 -92 36 C-91.1965918 35.57299805 -90.39318359 35.14599609 -89.56542969 34.70605469 C-61.65500921 20.00563729 -30.88724349 7.03960223 0 0 Z M-167.58935547 756.34814453 C-178.40605625 769.01443001 -184.40449061 783.96607984 -184.375 800.625 C-184.37483887 801.48802734 -184.37467773 802.35105469 -184.37451172 803.24023438 C-184.21141889 812.53137543 -182.48689466 821.75381522 -178 830 C-178.66 830 -179.32 830 -180 830 C-180.23203125 829.42765625 -180.4640625 828.8553125 -180.703125 828.265625 C-182.31672742 825.44668101 -184.26857497 823.8404126 -186.75 821.75 C-192.07299788 817.05996605 -195.93372441 812.25908014 -199.71875 806.2890625 C-213.30596646 785.07295811 -234.9681875 763.50795313 -259.953125 757.26171875 C-281.51992063 753.02332442 -303.42084313 757.68810343 -321.6875 769.6875 C-328.73805172 774.49116255 -334.90806598 780.05225377 -341 786 C-341.72703125 786.66515625 -342.4540625 787.3303125 -343.203125 788.015625 C-357.28742223 801.21272241 -367.95855536 820.76264273 -370.37036133 839.94580078 C-371.39385553 847.91025306 -373.44650508 854.41213064 -376.9375 861.625 C-377.42476562 862.6547998 -377.91203125 863.68459961 -378.4140625 864.74560547 C-392.59151353 894.23488584 -412.97189721 919.02709343 -437.921875 940.203125 C-440.08121118 942.07022019 -442.17613861 943.99963163 -444.26806641 945.94165039 C-449.5061362 950.80296999 -454.86975296 955.42131196 -460.44140625 959.90234375 C-462.74134257 961.7879404 -464.93633394 963.73777152 -467.125 965.75 C-487.40023821 983.87591967 -511.18223292 999.31507056 -535.58203125 1011.25390625 C-536.72712158 1011.81456787 -537.87221191 1012.37522949 -539.05200195 1012.95288086 C-541.27885657 1014.03280207 -543.51269481 1015.09849237 -545.75463867 1016.14672852 C-555.53137042 1020.8537072 -563.8719891 1027.16730888 -571.125 1035.25 C-571.84945312 1036.03890625 -572.57390625 1036.8278125 -573.3203125 1037.640625 C-575.11660778 1040.16379325 -575.6432515 1041.95142188 -576 1045 C-554.01332896 1057.44596224 -528.89921669 1060.45085352 -504 1061 C-502.68684814 1061.03287109 -502.68684814 1061.03287109 -501.34716797 1061.06640625 C-470.33360045 1061.75674721 -446.7118721 1051.653598 -420 1037 C-428.42993574 1043.99975354 -436.95650464 1050.79458262 -445.8125 1057.25 C-452.72596827 1062.29899165 -459.55507315 1067.35403102 -466 1073 C-466.83144531 1073.72445313 -467.66289063 1074.44890625 -468.51953125 1075.1953125 C-473.94787207 1080.22902434 -476.88069232 1084.9010603 -479 1092 C-476.5070576 1094.4929424 -469.50160552 1093.43406007 -466.02880859 1093.453125 C-454.82658087 1093.26033472 -444.61710404 1090.36362372 -434 1087 C-433.03771484 1086.70029297 -432.07542969 1086.40058594 -431.08398438 1086.09179688 C-416.78861048 1081.57595442 -403.3727663 1075.74721099 -390 1069 C-388.80358479 1068.40194473 -387.60699935 1067.80422975 -386.41015625 1067.20703125 C-385.61480469 1066.80871094 -384.81945313 1066.41039062 -384 1066 C-384.85271484 1066.94746094 -384.85271484 1066.94746094 -385.72265625 1067.9140625 C-392.25676415 1075.48446464 -400.3308643 1085.32608637 -400.5 1095.8125 C-400.34371775 1098.85261086 -400.34371775 1098.85261086 -399 1100 C-373.18473366 1102.04883066 -341.60369193 1086.76208531 -321.73046875 1071.34375 C-310.03082583 1061.30113805 -298.07713944 1050.54349042 -289 1038 C-289.64908352 1041.77742503 -290.71916536 1045.14995867 -292.109375 1048.71875 C-292.53476563 1049.81703125 -292.96015625 1050.9153125 -293.3984375 1052.046875 C-293.84445312 1053.18640625 -294.29046875 1054.3259375 -294.75 1055.5 C-295.18054687 1056.60859375 -295.61109375 1057.7171875 -296.0546875 1058.859375 C-296.48523437 1059.96796875 -296.91578125 1061.0765625 -297.359375 1062.21875 C-297.79056641 1063.3325 -298.22175781 1064.44625 -298.66601562 1065.59375 C-299.57436037 1067.91315445 -300.5009071 1070.22549397 -301.44335938 1072.53125 C-301.90033203 1073.665625 -302.35730469 1074.8 -302.828125 1075.96875 C-303.45315918 1077.49145508 -303.45315918 1077.49145508 -304.09082031 1079.04492188 C-305.0569834 1082.18521134 -305.16900062 1084.73427571 -305 1088 C-294.32486972 1086.64219834 -285.89614816 1079.92574611 -278 1073 C-277.35804688 1072.44183594 -276.71609375 1071.88367187 -276.0546875 1071.30859375 C-247.00334809 1044.14133702 -221.74177562 999.48336062 -210 962 C-209.7431543 961.20029785 -209.48630859 960.4005957 -209.22167969 959.57666016 C-205.47589096 947.77811846 -202.83096502 935.90392651 -200.73583984 923.70483398 C-198.66860809 912.00523946 -193.66981032 905.78234942 -185 898 C-183.59427734 896.72769531 -183.59427734 896.72769531 -182.16015625 895.4296875 C-172.53503063 887.76500139 -161.94169074 886.47763751 -150 885 C-153.12942273 893.22305759 -156.34254436 901.11285139 -160.80078125 908.73046875 C-163.6597497 914.14108982 -163.81379308 920.02483675 -163 926 C-161.40064504 930.78289914 -159.40625886 935.32417327 -157.30145264 939.90310669 C-155.62728386 943.55867999 -154.03123223 947.24798087 -152.43359375 950.9375 C-152.12327209 951.65192764 -151.81295044 952.36635529 -151.4932251 953.10243225 C-148.12962932 960.90993229 -145.68066708 968.67067895 -144 977 C-143.81260254 977.8672168 -143.62520508 978.73443359 -143.43212891 979.62792969 C-134.15281412 1023.43475181 -141.32650613 1076.81749852 -153.17114258 1119.89550781 C-154.94020001 1126.9907405 -155.20346132 1133.78531076 -155.18969727 1141.06982422 C-155.1878968 1142.19314085 -155.18609632 1143.31645748 -155.18424129 1144.47381401 C-155.06838316 1160.14562919 -154.10387089 1175.78463275 -153.21556973 1191.42763758 C-152.96131948 1195.93209639 -152.71528706 1200.4370051 -152.46824646 1204.94186401 C-152.00061891 1213.4468868 -151.52570776 1221.95148604 -151.0480985 1230.45595348 C-150.50744507 1240.0902346 -149.97571332 1249.72500212 -149.44440758 1259.35980248 C-148.65821676 1273.6100359 -147.86904096 1287.86010736 -147.07072067 1302.10966682 C-146.98550115 1303.63166281 -146.90044674 1305.15366805 -146.81558418 1306.67568398 C-146.25153981 1316.78653857 -145.64316126 1326.89389166 -145 1337 C-180.04023257 1327.65378562 -215.04006722 1318.15931328 -250.00823975 1308.54721832 C-251.94886077 1308.01405005 -253.88971056 1307.48171466 -255.83056641 1306.94940186 C-408.66723963 1265.02104668 -408.66723963 1265.02104668 -432 1226 C-432.64066406 1224.93265625 -433.28132812 1223.8653125 -433.94140625 1222.765625 C-440.23222262 1211.73445609 -440.23222262 1211.73445609 -440 1205 C-438.8756762 1201.18979158 -437.85442339 1198.82772266 -435 1196.0625 C-426.84009023 1193.17253196 -418.18047063 1195.3318779 -410.125 1197.625 C-409.14047852 1197.89280273 -408.15595703 1198.16060547 -407.14160156 1198.43652344 C-401.22900283 1200.05592168 -395.34126363 1201.76173139 -389.453125 1203.4675293 C-377.87125061 1206.88702155 -377.87125061 1206.88702155 -366 1209 C-364.86949219 1209.13277344 -363.73898437 1209.26554687 -362.57421875 1209.40234375 C-337.78332501 1211.69350631 -313.27506689 1203.73474848 -294 1188 C-298.09599859 1182.2348366 -302.54339399 1177.10197995 -307.5625 1172.125 C-308.61304565 1171.08182617 -308.61304565 1171.08182617 -309.68481445 1170.01757812 C-332.91546259 1147.30105737 -358.88308135 1135.46019089 -391.3515625 1135.78515625 C-417.72314483 1136.39712292 -443.80269188 1143.01839197 -463 1162 C-477.67150243 1177.75828039 -484.66822906 1197.9423353 -484.26953125 1219.36328125 C-483.06568857 1247.71585199 -465.13122246 1270.85416436 -445.3125 1289.5625 C-433.98767818 1299.45357034 -421.08227902 1307.6458466 -408 1315 C-406.96963623 1315.58297852 -406.96963623 1315.58297852 -405.91845703 1316.17773438 C-344.57805646 1350.54939127 -270.37198695 1367.4249495 -203 1386 C-205.87531209 1388.29808245 -208.70961893 1389.92601555 -212.05078125 1391.4609375 C-213.54617432 1392.15799805 -213.54617432 1392.15799805 -215.07177734 1392.86914062 C-216.67593506 1393.61454102 -216.67593506 1393.61454102 -218.3125 1394.375 C-247.89145777 1408.36417776 -275.8772106 1424.95839797 -299.58056641 1447.64794922 C-300.82505342 1448.83335841 -302.08878072 1449.9985004 -303.35546875 1451.16015625 C-319.84391247 1466.74759212 -338.28141634 1491.56703852 -339.3359375 1514.953125 C-339.60153735 1530.372351 -337.77516839 1542.18560217 -327 1554 C-308.35536952 1571.21975628 -282.02876826 1573.61252623 -258 1576 C-259.38058594 1576.78310547 -259.38058594 1576.78310547 -260.7890625 1577.58203125 C-278.93139596 1588.05266655 -296.79194853 1601.28523898 -307 1620 C-307.40734375 1620.71929688 -307.8146875 1621.43859375 -308.234375 1622.1796875 C-313.90157422 1632.73381939 -314.88911561 1644.75449051 -311.4375 1656.25 C-309.20690842 1662.18242441 -305.93887851 1667.07026016 -302 1672 C-301.23429687 1672.97453125 -300.46859375 1673.9490625 -299.6796875 1674.953125 C-296.95779168 1678.19022397 -293.89836421 1680.79040999 -290.5625 1683.375 C-289.64452637 1684.08716675 -289.64452637 1684.08716675 -288.70800781 1684.8137207 C-261.67713713 1705.33600616 -214.9797637 1725 -181 1725 C-184.00807726 1728.1083465 -187.13014649 1731.01412082 -190.375 1733.875 C-202.03617854 1744.35441976 -212.74590012 1755.3272723 -222 1768 C-222.49097168 1768.66789551 -222.98194336 1769.33579102 -223.48779297 1770.02392578 C-230.56187312 1779.69609817 -237.06855417 1789.58981208 -243 1800 C-243.40460449 1800.70769531 -243.80920898 1801.41539063 -244.22607422 1802.14453125 C-249.75662507 1811.8575479 -255.00634604 1821.68042403 -259.89111328 1831.73339844 C-261.0764166 1834.15619808 -262.28620738 1836.5659521 -263.49609375 1838.9765625 C-270.64993486 1853.39604334 -277.01987308 1868.12602265 -283.3125 1882.9375 C-283.75067047 1883.96241547 -284.18884094 1884.98733093 -284.64028931 1886.04330444 C-285.89002156 1888.97187956 -287.12850822 1891.90493512 -288.36328125 1894.83984375 C-288.93731689 1896.18190887 -288.93731689 1896.18190887 -289.52294922 1897.55108643 C-289.86511475 1898.37203796 -290.20728027 1899.1929895 -290.55981445 1900.03881836 C-290.86337357 1900.75839218 -291.16693268 1901.477966 -291.47969055 1902.21934509 C-292.24279819 1904.08117513 -292.24279819 1904.08117513 -291 1906 C-285.23391681 1899.77648223 -279.66998191 1893.47521924 -274.33984375 1886.87109375 C-271.81266897 1883.77013638 -269.22392424 1880.72818197 -266.625 1877.6875 C-262.84180001 1873.25170624 -259.19493988 1868.73377363 -255.625 1864.125 C-250.20628331 1857.14530411 -244.44328385 1850.49857136 -238.61865234 1843.85693359 C-236.51781721 1841.44683525 -234.4464517 1839.01242202 -232.37548828 1836.57666016 C-227.26455477 1830.56761272 -222.03836162 1824.6924387 -216.66796875 1818.9140625 C-214.6649049 1816.72623581 -212.71850987 1814.51723072 -210.78515625 1812.26953125 C-206.47761071 1807.33094401 -201.8846005 1802.69271873 -197.25 1798.0625 C-195.91666626 1796.73037476 -195.91666626 1796.73037476 -194.55639648 1795.37133789 C-189.41195197 1790.27487996 -184.26801411 1785.41854807 -178.5390625 1780.984375 C-176.12600707 1779.09847937 -173.83163753 1777.11098509 -171.53564453 1775.08544922 C-140.57138491 1748 -140.57138491 1748 -127 1748 C-126.92705215 1748.92628204 -126.85410431 1749.85256409 -126.77894592 1750.80691528 C-126.09019737 1759.54664523 -125.39894717 1768.28617297 -124.7049036 1777.02548409 C-124.34819842 1781.51818408 -123.99245263 1786.01095571 -123.63891602 1790.50390625 C-123.29754334 1794.84181545 -122.9536288 1799.17951639 -122.60796928 1803.51708603 C-122.47669834 1805.16995998 -122.34633526 1806.82290629 -122.21690559 1808.47592545 C-122.03512674 1810.7955105 -121.85008849 1813.11481462 -121.66430664 1815.43408203 C-121.61179749 1816.11381577 -121.55928833 1816.7935495 -121.50518799 1817.49388123 C-121.19056886 1821.37241195 -120.69459435 1825.17142051 -120 1829 C-120.73863281 1829.13535156 -121.47726562 1829.27070313 -122.23828125 1829.41015625 C-133.70419565 1831.84320289 -143.82151247 1837.5498392 -151 1847 C-159.23522361 1861.06172569 -162.24424513 1874.6694032 -159.3125 1890.77734375 C-155.74609184 1903.27463233 -148.9264837 1914.01570317 -137.80078125 1921.01171875 C-121.57946215 1929.67640992 -105.55387662 1931.03594821 -88 1926 C-74.9566199 1920.75935621 -65.651237 1912.05506247 -59.41015625 1899.484375 C-53.86068573 1885.77210988 -53.67993939 1871.61721075 -58.76171875 1857.7578125 C-60.69231917 1853.45811566 -63.17156178 1849.75311995 -66 1846 C-66.86625 1844.700625 -66.86625 1844.700625 -67.75 1843.375 C-75.42619976 1835.27234469 -85.10876338 1830.73804273 -96 1829 C-95.87058014 1828.030625 -95.74116028 1827.06125 -95.6078186 1826.0625 C-94.34214009 1816.38975781 -93.41831685 1806.72914894 -92.7109375 1797 C-92.60204211 1795.5431055 -92.49279202 1794.08623748 -92.38320923 1792.62939453 C-92.10025258 1788.8552753 -91.82200746 1785.08082414 -91.54486084 1781.30627441 C-91.25940574 1777.43052646 -90.96933226 1773.5551242 -90.6796875 1769.6796875 C-90.11535975 1762.12011621 -89.55602627 1754.56018692 -89 1747 C-86.46029962 1748.2630545 -83.92135488 1749.5275906 -81.3828125 1750.79296875 C-80.6710083 1751.14677612 -79.9592041 1751.5005835 -79.22583008 1751.8651123 C-68.07502749 1757.42771864 -58.27398151 1763.79362437 -48.64453125 1771.65966797 C-47.14744968 1772.87982501 -45.63691587 1774.08342964 -44.125 1775.28515625 C-32.58098711 1784.53043401 -22.08705171 1794.82132698 -11.625 1805.25 C-11.15073578 1805.72158539 -10.67647156 1806.19317078 -10.18783569 1806.67904663 C-4.56542462 1812.27735905 0.84113439 1817.97354627 6 1824 C7.45445517 1825.60768373 8.91220895 1827.21239715 10.375 1828.8125 C14.25033743 1833.10608632 17.9222131 1837.53088002 21.55859375 1842.02734375 C24.2771903 1845.33750691 27.07066739 1848.57511252 29.875 1851.8125 C33.86253388 1856.42470129 37.70738691 1861.11501608 41.4375 1865.9375 C45.86662322 1871.6599272 50.52223753 1877.14454221 55.2890625 1882.58764648 C59.31271182 1887.1860167 63.20803641 1891.86529309 67.0546875 1896.61328125 C69.64633848 1899.79299761 72.31352372 1902.90021967 75 1906 C76.13566633 1902.59300102 75.93841113 1902.19575591 74.57568359 1899.06469727 C74.06717865 1897.87768219 74.06717865 1897.87768219 73.54840088 1896.66668701 C72.97916901 1895.37954803 72.97916901 1895.37954803 72.3984375 1894.06640625 C72.01057068 1893.16972229 71.62270386 1892.27303833 71.2230835 1891.34918213 C69.95051723 1888.41575875 68.66345188 1885.48897704 67.375 1882.5625 C66.49297787 1880.54336529 65.61130606 1878.52407751 64.72998047 1876.50463867 C45.46136799 1832.46428097 25.33050001 1788.18901132 -7 1752 C-7.49918945 1751.43909668 -7.99837891 1750.87819336 -8.51269531 1750.30029297 C-14.34289538 1743.78106926 -20.22145716 1737.55295808 -27 1732 C-27.86625 1731.24396484 -27.86625 1731.24396484 -28.75 1730.47265625 C-31.47882912 1727.82557633 -31.47882912 1727.82557633 -35 1727 C-35 1726.34 -35 1725.68 -35 1725 C-34.42096924 1724.96406738 -33.84193848 1724.92813477 -33.24536133 1724.89111328 C-26.1420388 1724.32934771 -19.54109984 1722.77909163 -12.6875 1720.875 C-11.54740479 1720.56151611 -10.40730957 1720.24803223 -9.23266602 1719.92504883 C47.33837602 1704.76373031 47.33837602 1704.76373031 90.03564453 1667.26513672 C96.48647358 1655.60719601 98.78825274 1644.98038351 96.421875 1631.7734375 C91.38935612 1614.80012382 78.68504037 1601.51685979 65 1591 C64.10023438 1590.30777344 63.20046875 1589.61554687 62.2734375 1588.90234375 C55.8061818 1584.06588019 49.04714403 1579.93557782 42 1576 C42.68811768 1575.93530518 43.37623535 1575.87061035 44.08520508 1575.80395508 C68.16661298 1573.46974756 97.02719094 1570.42834974 113.953125 1550.7265625 C122.96140053 1538.72814509 124.97110517 1525.7789321 123.31591797 1511.10205078 C119.78934488 1487.63698563 102.91886164 1467.4825607 87 1451 C86.08039807 1450.0172368 85.16113063 1449.0341605 84.2421875 1448.05078125 C63.29010125 1425.98987058 35.70001273 1411.67283927 9.0625 1397.6875 C8.12760742 1397.19572266 7.19271484 1396.70394531 6.22949219 1396.19726562 C-0.08588346 1392.90870657 -6.49033914 1389.88416657 -13 1387 C-9.08546582 1384.75205613 -4.80269122 1383.69701621 -0.48828125 1382.48828125 C1.2939837 1381.98084772 3.07620831 1381.47327244 4.85839844 1380.96557617 C5.80517456 1380.69732025 6.75195068 1380.42906433 7.72741699 1380.15267944 C148.6503587 1346.72453685 148.6503587 1346.72453685 258.29956055 1254.31298828 C268.05952986 1236.18265581 271.45696176 1214.7830386 265.97045898 1194.75439453 C260.53291081 1177.1199523 250.17424104 1162.59517633 235 1152 C234.26910156 1151.47019531 233.53820313 1150.94039062 232.78515625 1150.39453125 C210.52986925 1135.59571648 175.0484088 1132.13131637 149.375 1137.125 C131.41139069 1141.8626552 115.86872093 1150.71279988 102 1163 C101.03578125 1163.84304688 100.0715625 1164.68609375 99.078125 1165.5546875 C91.54281243 1172.24363807 84.72233617 1179.5029265 78 1187 C90.56356741 1200.84707528 112.54208976 1208.12811715 130.75390625 1209.87890625 C146.25591734 1210.58838885 161.19238012 1207.17477841 176 1203 C178.21219602 1202.38395812 180.42443792 1201.76808099 182.63671875 1201.15234375 C185.98955025 1200.21698703 189.34091111 1199.2775274 192.68847656 1198.32348633 C194.20199707 1197.89265747 194.20199707 1197.89265747 195.74609375 1197.453125 C196.63997803 1197.19692383 197.5338623 1196.94072266 198.45483398 1196.67675781 C205.16636505 1194.89216653 212.28995464 1193.57913156 218.9375 1196.125 C222.08706376 1198.98823978 223.79855246 1201.63884743 224.16796875 1205.96875 C223.58546414 1217.87773321 215.25714532 1228.17025836 208 1237 C207.20529297 1237.96873047 207.20529297 1237.96873047 206.39453125 1238.95703125 C169.88234819 1279.03595712 89.7542651 1293.44729772 39.80383301 1306.96893311 C35.71427333 1308.07744907 31.62600013 1309.1906108 27.53808594 1310.30517578 C8.29802013 1315.55034156 -10.94888209 1320.76991729 -30.20037842 1325.97296143 C-35.69764857 1327.45887479 -41.19451262 1328.94628826 -46.69140625 1330.43359375 C-54.79337303 1332.6257241 -62.89655706 1334.81333368 -71 1337 C-70.95835378 1336.33848088 -70.91670755 1335.67696177 -70.87379932 1334.99539661 C-68.33649468 1294.64557211 -65.94015893 1254.29017511 -63.76738346 1213.91902435 C-63.37548581 1206.63843393 -62.97644916 1199.35827738 -62.57187098 1192.07838076 C-62.2509354 1186.2954985 -61.9363271 1180.51229313 -61.62646085 1174.72880727 C-61.44439361 1171.33319921 -61.25983163 1167.93777756 -61.06838036 1164.54268456 C-60.85969803 1160.81422783 -60.66139816 1157.08535245 -60.46557617 1153.35620117 C-60.40280991 1152.27651566 -60.34004364 1151.19683014 -60.27537537 1150.08442688 C-59.79525791 1140.57542873 -60.25741828 1131.27047826 -62.41796875 1121.97265625 C-62.70003174 1120.70873047 -62.98209473 1119.44480469 -63.27270508 1118.14257812 C-63.49647324 1117.14979858 -63.49647324 1117.14979858 -63.72476196 1116.13696289 C-70.43520013 1086.05394865 -74.70435443 1054.80383313 -76 1024 C-76.05776611 1022.68418945 -76.05776611 1022.68418945 -76.11669922 1021.34179688 C-76.60697743 1008.31649514 -75.36118372 995.80625829 -73 983 C-72.84966309 982.15888672 -72.69932617 981.31777344 -72.54443359 980.45117188 C-69.80899039 965.73715755 -64.35150825 952.53720516 -58.27709961 938.91088867 C-53.39274692 927.77800068 -50.43038099 919.85142196 -55 908 C-56.41305881 905.50149098 -57.9453118 903.1129219 -59.50390625 900.703125 C-62.22124438 895.79346969 -63.56171864 890.39778533 -65 885 C-50.80254829 886.73556023 -40.82156359 889.53660836 -30 899 C-29.17886719 899.6703125 -28.35773437 900.340625 -27.51171875 901.03125 C-25.58988245 902.63336582 -23.75830814 904.22085882 -22 906 C-21.319375 906.66773438 -20.63875 907.33546875 -19.9375 908.0234375 C-17.11702138 912.35651151 -16.53290402 916.77399458 -15.625 921.8125 C-15.20160288 923.97989002 -14.77440849 926.14654112 -14.34375 928.3125 C-14.01503906 929.97539063 -14.01503906 929.97539063 -13.6796875 931.671875 C-3.36460743 982.18019808 26.09294683 1047.51711579 69 1079 C71.35517144 1080.55205103 73.75327584 1082.01304697 76.1875 1083.4375 C76.76991455 1083.78014893 77.3523291 1084.12279785 77.95239258 1084.47583008 C81.61635782 1086.52133109 84.83406074 1087.55116588 89 1088 C90.31612075 1084.05163775 89.34827619 1082.54330396 87.90234375 1078.671875 C87.67267914 1078.04989227 87.44301453 1077.42790955 87.20639038 1076.78707886 C86.45917952 1074.77120054 85.69869195 1072.760636 84.9375 1070.75 C84.42606418 1069.37962287 83.91523998 1068.00901733 83.4050293 1066.63818359 C80.06975187 1057.70635588 76.66068992 1048.80419095 73 1040 C73.33 1039.67 73.66 1039.34 74 1039 C74.57363281 1039.64582031 75.14726563 1040.29164063 75.73828125 1040.95703125 C94.7950042 1062.45745899 94.7950042 1062.45745899 118 1079 C119.27797919 1079.73587671 120.55529816 1080.47290094 121.83203125 1081.2109375 C140.63308594 1091.83643704 162.02787504 1101.23336252 184 1100 C185.18761224 1090.05924569 181.59999376 1082.58485252 175.59765625 1074.79296875 C173.44747687 1072.14685542 171.26063355 1069.5520041 169 1067 C172.89809202 1067.68121996 175.84398319 1069.54037389 179.25 1071.5 C197.8421225 1081.72578403 224.5765777 1093.22959155 246.08203125 1093.09765625 C247.01337891 1093.09443359 247.94472656 1093.09121094 248.90429688 1093.08789062 C249.86400391 1093.07951172 250.82371094 1093.07113281 251.8125 1093.0625 C253.28106445 1093.05573242 253.28106445 1093.05573242 254.77929688 1093.04882812 C257.18626111 1093.03708684 259.59309857 1093.02066419 262 1093 C263.26147504 1090.19839662 263.26147504 1090.19839662 262.41601562 1088.17016602 C259.98598611 1083.40822472 257.33018921 1079.65920758 253.5 1075.9375 C252.94957031 1075.39440186 252.39914062 1074.85130371 251.83203125 1074.29174805 C244.58831272 1067.36720096 236.41912035 1061.58785371 228.32958984 1055.70556641 C225.11773979 1053.3540694 221.9592803 1050.93755285 218.8125 1048.5 C217.81476562 1047.72914063 216.81703125 1046.95828125 215.7890625 1046.1640625 C207.77560976 1039.94634146 207.77560976 1039.94634146 204 1037 C205.33224609 1037.67482422 205.33224609 1037.67482422 206.69140625 1038.36328125 C210.25727991 1040.16360213 213.8353424 1041.93878064 217.41503906 1043.71142578 C219.19411556 1044.59827559 220.96930977 1045.49294253 222.74121094 1046.39404297 C240.52404157 1055.43196976 257.0086235 1061.24210775 277.1875 1061.125 C278.04682129 1061.12161621 278.90614258 1061.11823242 279.79150391 1061.11474609 C304.45566151 1060.92272024 329.20926388 1059.30550344 352.125 1049.375 C352.7938623 1049.0860083 353.46272461 1048.7970166 354.15185547 1048.49926758 C357.47079753 1046.97775836 358.92679884 1046.10980174 361 1043 C349.97551653 1028.76839407 339.01734872 1020.73433523 322.75 1012.9375 C303.30749776 1003.39441614 285.23794959 992.09526743 268 979 C267.37834961 978.52997559 266.75669922 978.05995117 266.11621094 977.57568359 C253.3561654 967.88011261 241.3783921 957.2755346 229.6171875 946.40234375 C227.50121368 944.46006928 225.36421155 942.56059299 223.1875 940.6875 C219.18631991 937.21588787 215.31272095 933.61073299 211.4375 930 C210.81190186 929.41822998 210.18630371 928.83645996 209.54174805 928.23706055 C202.66181232 921.80548221 196.03786072 915.23603541 190 908 C189.59233398 907.51144531 189.18466797 907.02289062 188.76464844 906.51953125 C173.58165767 888.17110349 157.82179477 864.24941195 154.625 840.3125 C151.88559407 822.31991942 143.36017787 807.04710689 132 793 C131.35160156 792.19691406 130.70320313 791.39382813 130.03515625 790.56640625 C124.97371727 784.59411527 119.20569009 779.74809481 113 775 C111.79537109 774.071875 111.79537109 774.071875 110.56640625 773.125 C92.9397169 760.15824002 71.72440386 753.42553128 49.8515625 756.53125 C42.49595251 757.72879492 35.52760054 759.28189786 29 763 C28.13117187 763.49371094 27.26234375 763.98742188 26.3671875 764.49609375 C20.45777399 768.05984869 15.36622185 772.11116413 10.33203125 776.8203125 C8.27148264 778.7462524 6.16126011 780.56456568 4 782.375 C-3.99354481 789.42530652 -10.20323553 797.0810587 -15.9375 806 C-21.75928642 815.04838657 -28.19803227 822.66339823 -37 829 C-36.73445313 828.34257813 -36.46890625 827.68515625 -36.1953125 827.0078125 C-29.14727757 808.02441914 -29.96514291 789.75443725 -38.20703125 771.296875 C-46.71307371 754.13771154 -62.74801575 742.04300981 -80.5546875 735.7421875 C-110.59593916 726.69701754 -145.96476752 732.86817125 -167.58935547 756.34814453 Z " fill="#000000" transform="translate(1445,336)"/>
<path d="M0 0 C1.43566126 0.00040031 1.43566126 0.00040031 2.90032578 0.00080872 C57.43941745 0.01990322 57.43941745 0.01990322 84.59545898 2.00390625 C87.32556902 2.20205727 90.05626278 2.39040949 92.78710938 2.578125 C193.28681757 9.57287458 292.94446109 27.37272468 571.125 127.1875 C572.27564941 127.73196777 573.42629883 128.27643555 574.61181641 128.83740234 C601.26604189 141.47006843 627.62107324 154.72195526 653.16552734 169.48486328 C656.44111989 171.36936934 659.72926082 173.2311501 663.01953125 175.08984375 C677.25565456 183.14246463 691.30302411 191.43891591 705.125 200.1875 C706.02943848 200.75710449 706.93387695 201.32670898 707.86572266 201.91357422 C720.4132345 209.8170895 732.84285247 217.87764554 745.125 226.1875 C746.27863037 226.96625488 746.27863037 226.96625488 747.45556641 227.76074219 C759.17515247 235.68296083 770.70893401 243.8345784 782.125 252.1875 C782.90375488 252.7561377 783.68250977 253.32477539 784.48486328 253.91064453 C803.50711334 267.81166879 822.30336613 282.03894222 840.4921875 297.01953125 C842.24229526 298.46064373 843.99749612 299.89559403 845.7578125 301.32421875 C851.56622409 306.04037801 857.27160334 310.8616455 862.93505859 315.74975586 C866.42628585 318.75606395 869.96326637 321.68525232 873.5625 324.5625 C879.54580106 329.41286832 885.09877513 334.69604198 890.69921875 339.9765625 C893.13158163 342.26715188 895.58932519 344.51090768 898.125 346.6875 C902.07181041 350.08782896 905.87698923 353.63620765 909.6875 357.1875 C910.31333984 357.76951172 910.93917969 358.35152344 911.58398438 358.95117188 C914.6432485 361.81098871 917.65150272 364.70336448 920.58984375 367.6875 C922.86358978 369.98107521 925.1905102 372.13319811 927.65234375 374.22265625 C933.63926349 379.3932434 939.15285616 385.06671575 944.73413086 390.66625977 C946.6829687 392.62045624 948.63709272 394.56925147 950.59179688 396.51757812 C956.15160009 402.07472008 961.66854786 407.61077133 966.76147461 413.60571289 C968.76114094 415.92546906 970.93176607 418.05198276 973.125 420.1875 C976.60933405 423.63526683 979.90712816 427.14663934 983.08984375 430.87109375 C985.27320175 433.3561826 987.52430807 435.76633657 989.78857422 438.17749023 C995.07199006 443.80383821 1000.12151532 449.51495881 1004.94921875 455.54296875 C1007.255317 458.34589248 1009.66651531 461.01753275 1012.125 463.6875 C1016.18483645 468.10390144 1020.01823821 472.64913522 1023.78515625 477.31640625 C1025.86237978 479.86525316 1027.97491091 482.37496325 1030.11083984 484.87426758 C1035.79789592 491.52982231 1041.25496544 498.33788802 1046.62109375 505.25390625 C1048.22012203 507.30979975 1049.82820039 509.35838838 1051.4375 511.40625 C1059.88456863 522.17685736 1068.07291797 533.11904601 1076.125 544.1875 C1076.95862061 545.3326709 1076.95862061 545.3326709 1077.80908203 546.50097656 C1081.60060901 551.71585635 1085.36883321 556.94710837 1089.125 562.1875 C1089.61145996 562.86425781 1090.09791992 563.54101562 1090.59912109 564.23828125 C1123.89210248 610.6255262 1153.45537337 659.7281375 1180.125 710.1875 C1180.67833008 711.23099609 1181.23166016 712.27449219 1181.80175781 713.34960938 C1198.19806294 744.34484041 1213.4158179 775.91273022 1227.125 808.1875 C1227.60616272 809.31934723 1227.60616272 809.31934723 1228.0970459 810.47406006 C1238.60653005 835.24140672 1248.24169312 860.28304597 1257.2232666 885.64306641 C1258.11165503 888.14984433 1259.00432196 890.65506759 1259.89746094 893.16015625 C1286.74904668 968.67250685 1305.91335516 1046.99776781 1318.125 1126.1875 C1318.25521545 1127.03066772 1318.38543091 1127.87383545 1318.51959229 1128.74255371 C1324.27579079 1166.22555876 1328.29814102 1203.91715713 1330.875 1241.75 C1330.96374893 1243.05044754 1330.96374893 1243.05044754 1331.05429077 1244.37716675 C1331.45263652 1250.31184326 1331.79937056 1256.2484342 1332.125 1262.1875 C1332.17305786 1263.01311432 1332.22111572 1263.83872864 1332.27062988 1264.68936157 C1333.52091072 1286.68368266 1333.37067706 1308.72807167 1333.375 1330.75 C1333.37544186 1331.78180767 1333.37588371 1332.81361534 1333.37633896 1333.87668991 C1333.38385573 1367.40609363 1332.88278084 1400.75285295 1330.125 1434.1875 C1329.9941803 1435.79431641 1329.9941803 1435.79431641 1329.86071777 1437.43359375 C1321.49040392 1539.42588682 1302.33293101 1640.01566869 1248.125 1804.1875 C1247.8083136 1805.00029419 1247.4916272 1805.81308838 1247.16534424 1806.6505127 C1225.02802594 1863.35210684 1200.42488256 1919.4537613 1170.58496094 1972.57958984 C1169.00281145 1975.40576389 1167.44212613 1978.24319833 1165.8828125 1981.08203125 C1157.6739657 1995.96497627 1148.993154 2010.52114506 1140.08691406 2024.99267578 C1138.35670042 2027.81019391 1136.64000878 2030.63522797 1134.9296875 2033.46484375 C1128.22945784 2044.49468712 1121.15984554 2055.26528392 1114 2066 C1113.54227203 2066.68629486 1113.08454407 2067.37258972 1112.61294556 2068.0796814 C1103.86677889 2081.17724117 1095.08170244 2094.26489446 1085.8125 2107 C1085.2774585 2107.73734375 1084.74241699 2108.4746875 1084.19116211 2109.234375 C1082.50532756 2111.5542007 1080.81555813 2113.87111493 1079.125 2116.1875 C1078.27566895 2117.35418213 1078.27566895 2117.35418213 1077.40917969 2118.54443359 C1069.37881346 2129.5652157 1061.15818212 2140.41692399 1052.73291016 2151.13867188 C1051.24769897 2153.03115476 1049.76901041 2154.92848713 1048.29296875 2156.828125 C1038.62179946 2169.2506963 1028.60317415 2181.38863785 1018.31054688 2193.30078125 C1015.36820922 2196.71184471 1012.50579015 2200.17232356 1009.6875 2203.6875 C1005.08465196 2209.36350751 1000.11114359 2214.65913217 995.11328125 2219.984375 C992.92039746 2222.32363092 990.77668627 2224.69202359 988.6875 2227.125 C984.29966349 2232.20281571 979.67856636 2237.0667482 975.08642578 2241.95898438 C972.62516266 2244.58313228 970.1705036 2247.21307009 967.72436523 2249.85131836 C958.97282365 2259.27106006 950.01107601 2268.45800692 940.90649414 2277.53637695 C938.6610842 2279.77635186 936.42117161 2282.02172696 934.18164062 2284.26757812 C932.72688354 2285.72167542 931.27181682 2287.17546303 929.81640625 2288.62890625 C929.16104385 2289.28629288 928.50568146 2289.9436795 927.83045959 2290.62098694 C923.96291389 2294.46923329 919.98463913 2298.1317704 915.84568787 2301.68699646 C913.66540116 2303.58828721 911.6387887 2305.61174857 909.625 2307.6875 C906.31513302 2311.03683729 902.91753051 2314.18675956 899.34375 2317.25 C897.14117415 2319.17337609 894.9922073 2321.14824688 892.84887695 2323.13720703 C887.68596418 2327.926828 882.39577912 2332.45813749 876.90625 2336.875 C873.88478554 2339.38722888 871.00084103 2342.01176168 868.125 2344.6875 C862.65219559 2349.77196865 856.9506891 2354.51006266 851.125 2359.1875 C849.39443612 2360.60245953 847.66529504 2362.01916079 845.9375 2363.4375 C845.03 2364.17871094 844.1225 2364.91992188 843.1875 2365.68359375 C840.93411343 2367.52596721 838.68474728 2369.37283027 836.4375 2371.22265625 C828.58132411 2377.67052113 820.6083431 2383.90703411 812.4453125 2389.9609375 C809.3112714 2392.28920744 806.20822926 2394.65400668 803.1171875 2397.0390625 C793.95937625 2404.09936002 784.7565319 2410.99708724 775.1315918 2417.41186523 C770.33261622 2420.62092845 765.6748865 2423.98398179 761.0390625 2427.421875 C753.33669936 2433.11602205 745.40446712 2438.40640766 737.375 2443.625 C735.9562043 2444.55079916 734.53750429 2445.47674499 733.11889648 2446.40283203 C698.69492419 2468.84799967 663.42371406 2489.90746668 627.125 2509.1875 C626.22346191 2509.66719238 625.32192383 2510.14688477 624.39306641 2510.64111328 C617.66491634 2514.2112769 610.90312795 2517.71327365 604.125 2521.1875 C603.52169861 2521.49751953 602.91839722 2521.80753906 602.29681396 2522.12695312 C581.28641628 2532.91946505 560.02248218 2542.92836339 538.35986328 2552.34130859 C535.0298026 2553.78963329 531.70851141 2555.25651221 528.39144897 2556.73432922 C496.64032777 2570.87798165 464.03497313 2583.02895136 431.125 2594.1875 C429.92641357 2594.59421936 429.92641357 2594.59421936 428.70361328 2595.00915527 C336.25537296 2626.31191609 240.6944026 2647.17938331 104.125 2661.1875 C103.12186768 2661.27213501 102.11873535 2661.35677002 101.08520508 2661.44396973 C68.7321903 2664.15716453 36.40210135 2664.47057375 3.95586777 2664.49712753 C0.80818895 2664.49994786 -2.33947731 2664.5054693 -5.4871521 2664.51113892 C-32.67274972 2664.54659996 -59.74272154 2663.92188081 -86.875 2662.1875 C-88.64837738 2662.0742186 -88.64837738 2662.0742186 -90.45758057 2661.95864868 C-97.06152025 2661.52209633 -103.65631132 2661.00720006 -110.25 2660.4375 C-111.22095612 2660.35513092 -112.19191223 2660.27276184 -113.19229126 2660.18789673 C-208.24340044 2652.0602706 -302.4896937 2634.1102183 -493.875 2570.1875 C-495.0123761 2569.73017487 -495.0123761 2569.73017487 -496.17272949 2569.26361084 C-529.34774266 2555.89795415 -561.7781833 2540.95286764 -593.875 2525.1875 C-594.93783203 2524.66704102 -596.00066406 2524.14658203 -597.09570312 2523.61035156 C-610.59571853 2516.98635521 -623.89742768 2510.06509106 -637.04150391 2502.76025391 C-639.96453573 2501.1378025 -642.8941722 2499.52771208 -645.82421875 2497.91796875 C-660.67948533 2489.71788052 -675.18660507 2481.02096892 -689.6484375 2472.15478516 C-693.47601458 2469.8210521 -697.32597898 2467.52692612 -701.1809082 2465.23876953 C-709.61066806 2460.23198317 -717.83821272 2455.01142532 -725.94287109 2449.49560547 C-728.786339 2447.57049793 -731.64962753 2445.67558984 -734.51123047 2443.77758789 C-749.09409269 2434.09745115 -763.43591272 2424.13320964 -777.59277344 2413.84033203 C-779.84961578 2412.20588374 -782.1146241 2410.58350099 -784.3828125 2408.96484375 C-794.37453891 2401.82324482 -804.13565008 2394.43254957 -813.78369141 2386.83349609 C-815.76230638 2385.27619722 -817.74541168 2383.72485583 -819.73046875 2382.17578125 C-825.9616146 2377.30788139 -832.13825295 2372.38276178 -838.2421875 2367.35546875 C-839.99229526 2365.91435627 -841.74749612 2364.47940597 -843.5078125 2363.05078125 C-849.31622409 2358.33462199 -855.02160334 2353.5133545 -860.68505859 2348.62524414 C-864.17628585 2345.61893605 -867.71326637 2342.68974768 -871.3125 2339.8125 C-877.29580106 2334.96213168 -882.84877513 2329.67895802 -888.44921875 2324.3984375 C-890.88158163 2322.10784812 -893.33932519 2319.86409232 -895.875 2317.6875 C-904.58152055 2310.183854 -912.95795211 2302.22638079 -921.00610352 2294.02392578 C-922.69899267 2292.36044933 -924.43512378 2290.83207359 -926.25 2289.3046875 C-931.97183328 2284.32846436 -937.27986442 2278.93191818 -942.62963867 2273.56323242 C-944.43362085 2271.75389067 -946.24288665 2269.94995681 -948.05273438 2268.14648438 C-953.36552693 2262.83643438 -958.6025023 2257.52647125 -963.47631836 2251.80444336 C-965.49082086 2249.47558141 -967.66978532 2247.33468272 -969.875 2245.1875 C-973.35590062 2241.74313057 -976.65003619 2238.23425105 -979.83203125 2234.515625 C-982.61446172 2231.3448247 -985.49606517 2228.27056864 -988.375 2225.1875 C-992.96601815 2220.26137104 -997.49593771 2215.30408857 -1001.875 2210.1875 C-1002.7746035 2209.14180999 -1003.67435733 2208.09624931 -1004.57421875 2207.05078125 C-1021.67767192 2187.15805525 -1038.46540829 2167.02331103 -1054.37304688 2146.15478516 C-1056.14559411 2143.83307098 -1057.92455141 2141.51631939 -1059.703125 2139.19921875 C-1066.81548098 2129.91850258 -1073.84401661 2120.6065283 -1080.56817627 2111.0405426 C-1081.86343377 2109.20390062 -1083.16643042 2107.37300858 -1084.47167969 2105.54345703 C-1091.86750605 2095.15637215 -1099.02276141 2084.62130982 -1106.08398438 2074.00439453 C-1107.87025714 2071.31962851 -1109.66144336 2068.63818981 -1111.453125 2065.95703125 C-1122.50978385 2049.3801516 -1133.17907843 2032.59468385 -1143.3125 2015.4375 C-1143.715755 2014.7563916 -1144.11901001 2014.0752832 -1144.53448486 2013.37353516 C-1151.81555106 2001.07177003 -1158.95977263 1988.69927855 -1165.875 1976.1875 C-1166.3812793 1975.27258789 -1166.88755859 1974.35767578 -1167.40917969 1973.41503906 C-1203.97314462 1907.12128011 -1234.66959359 1837.91554405 -1259.16003418 1766.27124023 C-1259.87637893 1764.18348116 -1260.59969097 1762.09826415 -1261.32519531 1760.01367188 C-1293.71818858 1666.83432834 -1313.67249182 1569.52149131 -1328.5625 1420.3125 C-1328.62343842 1419.39001465 -1328.68437683 1418.4675293 -1328.74716187 1417.51708984 C-1329.1666098 1411.0760783 -1329.53987424 1404.63344214 -1329.875 1398.1875 C-1329.94918655 1396.76318161 -1329.94918655 1396.76318161 -1330.02487183 1395.31008911 C-1331.04654781 1374.8381159 -1331.07659483 1354.36676765 -1331.0625 1333.875 C-1331.06223312 1333.00413506 -1331.06196625 1332.13327011 -1331.06169128 1331.23601532 C-1331.05104286 1303.51077212 -1330.79857752 1275.85722941 -1328.875 1248.1875 C-1328.80947937 1247.23490295 -1328.74395874 1246.28230591 -1328.67645264 1245.30084229 C-1322.24376977 1152.68039272 -1307.31678859 1060.79284598 -1198.27539062 751.07373047 C-1196.57897878 747.5773949 -1194.92957462 744.06052163 -1193.28613281 740.5390625 C-1188.9058849 731.16338519 -1184.20534466 721.99004657 -1179.31298828 712.87207031 C-1177.7409272 709.93720042 -1176.18107205 706.99599628 -1174.62109375 704.0546875 C-1167.29251462 690.28521336 -1159.67019205 676.72554808 -1151.71972656 663.30615234 C-1149.78081529 660.02827349 -1147.85461587 656.74313882 -1145.9296875 653.45703125 C-1122.75600077 613.98496664 -1097.22337642 575.88595555 -1069.875 539.1875 C-1069.36227539 538.4970459 -1068.84955078 537.8065918 -1068.32128906 537.09521484 C-1056.67717539 521.41694988 -1044.67901447 506.03091532 -1032.29882812 490.92724609 C-1031.02273696 489.36801673 -1029.75312619 487.803489 -1028.484375 486.23828125 C-1022.91936568 479.38210969 -1017.18779032 472.67837071 -1011.42333984 465.99023438 C-1009.89659309 464.21264087 -1008.37858292 462.42797985 -1006.86328125 460.640625 C-1001.42241231 454.23286535 -995.89323787 447.93668269 -990.14648438 441.80053711 C-987.5346144 439.00861756 -984.98106897 436.17852045 -982.47265625 433.29296875 C-978.94152255 429.23865056 -975.30670134 425.29260867 -971.625 421.375 C-970.9753125 420.68212891 -970.325625 419.98925781 -969.65625 419.27539062 C-964.93554553 414.2619653 -960.1009213 409.38738714 -955.203125 404.546875 C-953.24902643 402.56654692 -951.42054554 400.55950836 -949.625 398.4375 C-942.17287611 389.72230426 -933.79346185 381.50611666 -925.02734375 374.12109375 C-921.85145767 371.26798375 -918.87761117 368.22108614 -915.875 365.1875 C-911.74395391 361.01815354 -907.61092597 356.95096216 -903.12890625 353.15625 C-899.80062325 350.24904959 -896.59666403 347.21187136 -893.375 344.1875 C-888.2880399 339.42195171 -883.17846942 334.71247849 -877.875 330.1875 C-876.84222944 329.30103572 -875.80970072 328.41428965 -874.77734375 327.52734375 C-872.38758666 325.47531741 -869.99537501 323.42619984 -867.6015625 321.37890625 C-865.13325626 319.26719066 -862.66996691 317.1498536 -860.2109375 315.02734375 C-854.420554 310.03411874 -848.60755414 305.0983788 -842.60546875 300.359375 C-840.48995235 298.67664665 -838.39120175 296.97910237 -836.30078125 295.265625 C-826.6499071 287.35730325 -816.83406509 279.70321186 -806.875 272.1875 C-806.0804541 271.58647461 -805.2859082 270.98544922 -804.46728516 270.36621094 C-776.97835199 249.58572532 -748.85278823 229.84272847 -719.875 211.1875 C-719.03549805 210.64673828 -718.19599609 210.10597656 -717.33105469 209.54882812 C-685.30958223 188.98556105 -652.43683002 169.86840478 -618.74871826 152.171875 C-617.48099765 151.5058664 -616.21363264 150.83918055 -614.94659424 150.171875 C-534.95304816 108.04516979 -450.37896537 74.41215328 -88.4375 2.5 C-87.08324417 2.40859238 -87.08324417 2.40859238 -85.70162964 2.31533813 C-79.42822689 1.8977052 -73.15308839 1.5271492 -66.875 1.1875 C-65.98494263 1.1380423 -65.09488525 1.08858459 -64.17785645 1.03762817 C-42.8007714 -0.10844097 -21.40073104 -0.01335635 0 0 Z M-77.875 76.1875 C-78.80999329 76.2483075 -79.74498657 76.30911499 -80.70831299 76.37176514 C-187.18407328 83.35308458 -292.54524726 103.70158551 -535.875 194.1875 C-536.99487305 194.71730469 -538.11474609 195.24710937 -539.26855469 195.79296875 C-565.31200924 208.13502012 -591.03250727 221.09935023 -615.99121094 235.52490234 C-619.06279981 237.29577267 -622.14399844 239.04909165 -625.2265625 240.80078125 C-639.0202926 248.66354632 -652.5767536 256.8404844 -665.97998047 265.35107422 C-668.84772202 267.17019649 -671.72195124 268.97865523 -674.59765625 270.78515625 C-686.55148568 278.31467808 -698.27915486 286.1190623 -709.875 294.1875 C-711.52863519 295.33204663 -713.1822812 296.47657763 -714.8359375 297.62109375 C-726.33695284 305.60462409 -737.64966445 313.82174829 -748.875 322.1875 C-749.58672363 322.71617676 -750.29844727 323.24485352 -751.03173828 323.78955078 C-765.33313385 334.41487168 -779.27409145 345.44414555 -793.07080078 356.71533203 C-794.65773046 358.01021511 -796.24848737 359.30040478 -797.83984375 360.58984375 C-804.07518523 365.65319741 -810.19022114 370.84580564 -816.2734375 376.08984375 C-818.62282976 378.11494119 -820.9817514 380.1277473 -823.3515625 382.12890625 C-830.30295541 388.01243812 -837.04711606 394.06898663 -843.67578125 400.31445312 C-846.83824582 403.29344137 -850.01616636 406.23062041 -853.3125 409.0625 C-856.59093486 411.88067943 -859.62272482 414.8905007 -862.625 418 C-864.52650513 419.84868554 -866.46486574 421.56807055 -868.47631836 423.29321289 C-873.00391311 427.2448181 -877.26159788 431.42977534 -881.50390625 435.68359375 C-882.29723862 436.47596939 -883.09057098 437.26834503 -883.90794373 438.08473206 C-885.57389081 439.75000283 -887.23859256 441.41652029 -888.90209961 443.08422852 C-891.43036134 445.61784622 -893.96391661 448.14608167 -896.49804688 450.67382812 C-898.1253207 452.30176283 -899.75228425 453.93000775 -901.37890625 455.55859375 C-902.50106285 456.677714 -902.50106285 456.677714 -903.64588928 457.81944275 C-907.73467892 461.92627298 -911.65567216 466.12178423 -915.42881775 470.52113342 C-917.15411946 472.50911599 -918.98178996 474.35957306 -920.875 476.1875 C-924.04589998 479.31595964 -927.0006996 482.55605352 -929.90234375 485.93359375 C-931.8398538 488.14734286 -933.8264439 490.30992248 -935.82739258 492.46630859 C-940.65684895 497.67287199 -945.2394026 503.00485412 -949.6953125 508.5390625 C-951.85257399 511.16025119 -954.08811 513.67904281 -956.375 516.1875 C-960.59781823 520.83187323 -964.57097656 525.64141792 -968.51757812 530.52099609 C-970.06872936 532.42534112 -971.63488929 534.31673131 -973.203125 536.20703125 C-979.76343218 544.11764662 -986.21515891 552.07490134 -992.41845703 560.27001953 C-994.13418312 562.5287042 -995.86188728 564.77800237 -997.58984375 567.02734375 C-1005.69648636 577.59594571 -1013.65890031 588.24919292 -1021.38525391 599.09912109 C-1022.77447356 601.04657847 -1024.17311823 602.98686379 -1025.57421875 604.92578125 C-1058.03097382 650.10081057 -1086.95170733 698.0062573 -1112.875 747.1875 C-1113.48875488 748.3518457 -1114.10250977 749.51619141 -1114.73486328 750.71582031 C-1156.26199925 829.66421479 -1188.49414571 912.7409237 -1254.875 1254.1875 C-1254.92720703 1255.02641785 -1254.97941406 1255.86533569 -1255.03320312 1256.72967529 C-1260.54073573 1346.35669407 -1255.93731496 1436.43428004 -1194.875 1724.1875 C-1194.60643188 1725.00202637 -1194.33786377 1725.81655273 -1194.06115723 1726.65576172 C-1181.68569128 1764.18453973 -1167.74420118 1800.98318458 -1151.78015137 1837.13433838 C-1150.9032122 1839.12350606 -1150.03144715 1841.11485989 -1149.16113281 1843.10693359 C-1141.06378816 1861.60705776 -1132.25176307 1879.73698794 -1123.25 1897.8125 C-1122.47417572 1899.37606735 -1122.47417572 1899.37606735 -1121.68267822 1900.97122192 C-1115.09672146 1914.22090794 -1108.17821772 1927.21780868 -1100.80859375 1940.04882812 C-1098.38696168 1944.26598489 -1096.03769772 1948.51762555 -1093.72547913 1952.7956543 C-1079.23493435 1979.59972502 -1062.61383846 2005.14863076 -1045.75 2030.5 C-1045.25065948 2031.25173492 -1044.75131897 2032.00346985 -1044.23684692 2032.77798462 C-1034.85425494 2046.88996303 -1025.21001566 2060.81653532 -1015.125 2074.4375 C-1014.55483154 2075.20924561 -1013.98466309 2075.98099121 -1013.3972168 2076.77612305 C-996.02710901 2100.21391944 -978.13692055 2123.22683304 -959.05834961 2145.30297852 C-956.13528617 2148.69115249 -953.29524679 2152.12965456 -950.5 2155.625 C-945.64963168 2161.60830106 -940.36645802 2167.16127513 -935.0859375 2172.76171875 C-932.79534812 2175.19408163 -930.55159232 2177.65182519 -928.375 2180.1875 C-920.67057518 2189.12385062 -912.51525033 2197.76335646 -904.03515625 2205.96484375 C-902.16894628 2207.88504895 -900.42606622 2209.84729509 -898.6796875 2211.875 C-894.63008298 2216.53590634 -890.31302522 2220.89662934 -885.9375 2225.25 C-884.79764648 2226.3956543 -884.79764648 2226.3956543 -883.63476562 2227.56445312 C-879.46710513 2231.7249955 -875.20581537 2235.69507183 -870.74389648 2239.53686523 C-867.81807821 2242.12098769 -865.10204657 2244.89691632 -862.375 2247.6875 C-858.40007732 2251.70727611 -854.39980302 2255.59921769 -850.0859375 2259.2578125 C-847.00410075 2261.94761348 -844.0438033 2264.76225557 -841.0625 2267.5625 C-836.04054769 2272.26474004 -830.89169297 2276.70927005 -825.51953125 2281.01171875 C-822.71660752 2283.317817 -820.04496725 2285.72901531 -817.375 2288.1875 C-812.56309567 2292.60631919 -807.59230367 2296.75983762 -802.5078125 2300.859375 C-800.66069216 2302.36181738 -798.82972155 2303.88266863 -797 2305.40625 C-788.54092736 2312.44214416 -779.95930849 2319.264867 -771.1875 2325.90625 C-767.49277049 2328.70589932 -763.83967775 2331.55537799 -760.19360352 2334.41796875 C-750.60376997 2341.93956961 -740.81556378 2349.13761998 -730.875 2356.1875 C-729.7597998 2356.98244873 -729.7597998 2356.98244873 -728.62207031 2357.79345703 C-706.86918309 2373.28244834 -684.62073567 2388.19405752 -661.875 2402.1875 C-660.83698242 2402.82751953 -659.79896484 2403.46753906 -658.72949219 2404.12695312 C-642.9720218 2413.83058853 -627.07326055 2423.23354202 -610.875 2432.1875 C-609.9871582 2432.68024414 -609.09931641 2433.17298828 -608.18457031 2433.68066406 C-592.90352201 2442.14907427 -577.42492298 2450.2254405 -561.875 2458.1875 C-560.88306641 2458.69780762 -559.89113281 2459.20811523 -558.86914062 2459.73388672 C-478.83121965 2500.82309022 -392.94443286 2531.44218577 17.125 2591.1875 C18.49397307 2591.16763522 19.86295117 2591.14811498 21.23193359 2591.12890625 C119.2187443 2589.67658034 216.910048 2576.49279988 556.20721436 2462.13012695 C558.1842372 2461.15838383 560.16259179 2460.18939087 562.14111328 2459.22070312 C578.56587095 2451.17041353 594.70454014 2442.82011673 610.54589844 2433.66064453 C613.85639929 2431.76973558 617.20329698 2429.95110267 620.5559082 2428.13623047 C629.05177655 2423.53483219 637.39995891 2418.71694809 645.6875 2413.75 C646.64317871 2413.17781738 647.59885742 2412.60563477 648.58349609 2412.01611328 C664.48443546 2402.42131472 680.06875809 2392.34293826 695.51391602 2382.03344727 C698.18680836 2380.25046136 700.86376969 2378.47370567 703.54101562 2376.69726562 C714.21713836 2369.59263485 724.70111138 2362.27141374 735.04971313 2354.69822693 C738.02251132 2352.53414718 741.01490863 2350.39786622 744.00849915 2348.26268005 C753.20530914 2341.68964654 762.15405081 2334.82733675 771.03369141 2327.83349609 C773.01230638 2326.27619722 774.99541168 2324.72485583 776.98046875 2323.17578125 C783.2116146 2318.30788139 789.38825295 2313.38276178 795.4921875 2308.35546875 C797.24229526 2306.91435627 798.99749612 2305.47940597 800.7578125 2304.05078125 C811.03872894 2295.70315667 821.08991123 2287.09718151 830.8984375 2278.19921875 C832.95604391 2276.34015331 835.03346763 2274.50821642 837.125 2272.6875 C841.84095616 2268.57518623 846.48884916 2264.38942922 851.125 2260.1875 C851.61581055 2259.74325684 852.10662109 2259.29901367 852.61230469 2258.84130859 C858.26180826 2253.72155822 863.82432211 2248.55245449 869.16870117 2243.11132812 C870.86573658 2241.44246016 872.59462708 2239.91317062 874.41796875 2238.38671875 C880.62313662 2232.99210362 886.359614 2227.1015703 892.16137695 2221.28149414 C894.18264268 2219.2548702 896.20919574 2217.23364453 898.23632812 2215.21289062 C906.76429765 2206.69261761 906.76429765 2206.69261761 914.81030273 2197.72045898 C916.63622553 2195.59140249 918.61285222 2193.63958367 920.625 2191.6875 C923.95269463 2188.39895472 927.07836441 2185.02368376 930.12109375 2181.47265625 C932.18180781 2179.12271916 934.29974187 2176.83716874 936.43286133 2174.55322266 C941.48007403 2169.14824678 946.28157508 2163.63689205 950.9140625 2157.8671875 C953.2343495 2155.05496685 955.65571134 2152.36952737 958.125 2149.6875 C963.02006128 2144.36118912 967.5867902 2138.81809305 972.125 2133.1875 C973.5825077 2131.41598705 975.04084922 2129.64515983 976.5 2127.875 C981.2787742 2122.03152482 985.9448325 2116.10397126 990.58886719 2110.15332031 C992.20405741 2108.08632862 993.82458838 2106.02359217 995.4453125 2103.9609375 C1007.58196104 2088.47973208 1019.22223056 2072.65620063 1030.48535156 2056.52929688 C1032.27184865 2053.97776619 1034.06947514 2051.43426474 1035.8671875 2048.890625 C1045.0522884 2035.84728389 1053.79023085 2022.56557512 1062.30126953 2009.07373047 C1063.97178554 2006.42997675 1065.65308744 2003.79356691 1067.33984375 2001.16015625 C1116.61983241 1924.04987096 1156.7642032 1840.47850886 1187.125 1754.1875 C1187.40259155 1753.40091003 1187.68018311 1752.61432007 1187.96618652 1751.80389404 C1197.32113858 1725.27334256 1205.92094064 1698.60107803 1213.47906494 1671.50231934 C1214.09419675 1669.29788873 1214.7134901 1667.09466531 1215.33349609 1664.89160156 C1237.38880708 1586.22438625 1250.43078819 1504.91777295 1256.375 1423.5 C1256.45817474 1422.36498047 1256.54134949 1421.22996094 1256.62704468 1420.06054688 C1258.72269021 1391.08548859 1259.33207681 1362.2257686 1259.3125 1333.1875 C1259.31223312 1332.30009125 1259.31196625 1331.4126825 1259.31169128 1330.49838257 C1259.30201514 1304.85312284 1259.24442205 1279.25500392 1257.31182861 1253.66864014 C1257.10840719 1250.96714249 1256.91321773 1248.26510951 1256.71826172 1245.56298828 C1249.99077928 1153.38941623 1234.17001348 1062.11349651 1156.125 832.1875 C1155.3820166 830.48956299 1155.3820166 830.48956299 1154.62402344 828.75732422 C1146.54523805 810.36011505 1137.99310838 792.21609206 1129.125 774.1875 C1128.83046936 773.58748169 1128.53593872 772.98746338 1128.23248291 772.3692627 C1120.24328345 756.09417973 1111.97044748 740.01498469 1103.125 724.1875 C1102.61646484 723.27226563 1102.10792969 722.35703125 1101.58398438 721.4140625 C1089.44938966 699.59294823 1076.61541399 678.19678141 1063.125 657.1875 C1062.40570312 656.06625732 1062.40570312 656.06625732 1061.671875 654.92236328 C1048.40115514 634.2626707 1034.6088541 614.01531163 1020.125 594.1875 C1019.53750977 593.383125 1018.95001953 592.57875 1018.34472656 591.75 C1011.06431268 581.79603229 1003.71178988 571.91037635 996.125 562.1875 C995.70186523 561.64351562 995.27873047 561.09953125 994.84277344 560.5390625 C984.35765987 547.0659632 973.61587673 533.80328892 962.52392578 520.82470703 C961.04354166 519.09216674 959.56668642 517.35665339 958.08984375 515.62109375 C952.84870266 509.47276841 947.55527212 503.38533999 942.125 497.40234375 C940.32896471 495.41337498 938.56546697 493.40186806 936.8125 491.375 C932.81289159 486.78829311 928.68020254 482.32570034 924.53833008 477.86791992 C922.41363273 475.57982802 920.2958172 473.28579278 918.18530273 470.98461914 C908.57991327 460.55433013 898.60062394 450.50993029 888.56396484 440.49609375 C886.20145357 438.13809186 883.84232488 435.77681697 881.48504066 433.41359711 C879.1929898 431.11703761 876.89710505 428.82431854 874.6015625 426.53125 C873.76807281 425.69573608 872.93458313 424.86022217 872.07583618 423.99938965 C867.78503446 419.72559917 863.42059298 415.60890385 858.82983398 411.65875244 C856.83362273 409.93604471 854.91357363 408.14635864 853.01171875 406.3203125 C852.32682373 405.66699951 851.64192871 405.01368652 850.9362793 404.34057617 C849.88500854 403.33667847 849.88500854 403.33667847 848.8125 402.3125 C843.28264789 397.06576864 837.69987485 392.06542632 831.73046875 387.32421875 C828.75799441 384.8865224 825.93730117 382.30558644 823.125 379.6875 C818.54583324 375.43206081 813.83212544 371.41426146 808.9609375 367.4921875 C806.42260886 365.42935844 803.92641012 363.32878603 801.44042969 361.20385742 C794.78473957 355.51537842 787.97540817 350.05815232 781.05859375 344.69140625 C779.00270025 343.09237797 776.95411162 341.48429961 774.90625 339.875 C764.8774749 332.00972846 754.70914147 324.35860976 744.40722656 316.85498047 C742.29278496 315.31008999 740.18818582 313.75282505 738.0859375 312.19140625 C724.77175722 302.36706972 710.93908802 293.30192329 697.1431427 284.17477417 C693.81316832 281.97154976 690.48679449 279.76332059 687.16918945 277.54150391 C679.74026897 272.56638581 672.27578694 267.6680493 664.6875 262.9375 C663.67308838 262.30473145 662.65867676 261.67196289 661.61352539 261.02001953 C650.58386404 254.17800875 639.3831159 247.64466539 628.125 241.1875 C627.20992676 240.65979004 626.29485352 240.13208008 625.35205078 239.58837891 C557.3169361 200.39224775 485.63337247 167.86907223 402.125 139.1875 C401.3749469 138.9326886 400.6248938 138.6778772 399.85211182 138.41534424 C374.20801454 129.71816856 348.28871269 122.15810334 322.125 115.1875 C321.34336487 114.97909485 320.56172974 114.7706897 319.75640869 114.55596924 C242.57957525 94.04609722 163.38188101 81.86574105 83.75 76.5 C82.85152344 76.43906158 81.95304687 76.37812317 81.02734375 76.31533813 C54.96283347 74.57204609 28.9283268 73.97912204 2.8125 74 C1.68436134 74.00040031 1.68436134 74.00040031 0.53343201 74.00080872 C-25.64599342 74.0124236 -51.74557539 74.45491951 -77.875 76.1875 Z " fill="#000000" transform="translate(1335.875,4.8125)"/>
<path d="M0 0 C0.03092239 1.08372643 0.03092239 1.08372643 0.06246948 2.18934631 C0.32836674 11.48054452 0.59957074 20.77157995 0.875 30.0625 C0.89704247 30.8061657 0.91908493 31.54983139 0.94179535 32.31603241 C1.74135558 59.22101083 2.75022756 86.11180893 4 113 C-0.71016254 113.76922034 -5.14907261 114.09888379 -9.91796875 113.984375 C-10.5642926 113.96914795 -11.21061646 113.9539209 -11.87652588 113.93823242 C-13.98054539 113.88433302 -16.08392042 113.81889667 -18.1875 113.75 C-18.91486359 113.72699829 -19.64222717 113.70399658 -20.39163208 113.68029785 C-60.81543558 112.34488587 -109.18098023 108.42230965 -140.87109375 80.34375 C-144.66499871 76.1669739 -146.66801902 71.92541613 -146.40625 66.19921875 C-143.96238189 52.96943275 -132.58335102 44.01551178 -122.1796875 36.765625 C-90.0178295 15.1015676 -52.23925031 6.52994612 -14.4375 0.5625 C-13.33100098 0.38630127 -12.22450195 0.21010254 -11.08447266 0.02856445 C-10.06530762 -0.12394775 -9.04614258 -0.27645996 -7.99609375 -0.43359375 C-7.10075928 -0.56822021 -6.2054248 -0.70284668 -5.28295898 -0.84155273 C-3 -1 -3 -1 0 0 Z " fill="#000000" transform="translate(1311,1914)"/>
<path d="M0 0 C26.10904751 3.34008715 51.88250174 7.96347856 77 16 C77.69416016 16.22091309 78.38832031 16.44182617 79.10351562 16.66943359 C96.74084729 22.42689751 113.48385338 31.46971019 128 43 C128.94488281 43.75023437 129.88976563 44.50046875 130.86328125 45.2734375 C137.42887129 50.81771353 144.19925001 58.10829929 145.23828125 67.05078125 C145.42153065 72.63506556 144.73235865 75.59773082 141 80 C140.34064453 80.81210938 140.34064453 80.81210938 139.66796875 81.640625 C117.23229129 106.85946245 69.36884445 111.83375551 38.13037109 113.83251953 C31.27738197 114.19916674 24.42137938 114.46002482 17.5625 114.6875 C16.83341431 114.71259644 16.10432861 114.73769287 15.35314941 114.7635498 C13.25770852 114.83280199 11.16222708 114.89275975 9.06640625 114.94921875 C7.84896729 114.98362061 6.63152832 115.01802246 5.37719727 115.0534668 C2.14085591 115.00222999 -0.82884715 114.6236994 -4 114 C-4.12337135 100.6503062 -3.8187744 87.36477898 -3.20236206 74.02960205 C-2.96088193 68.79881479 -2.73334998 63.56743354 -2.5078125 58.3359375 C-2.4627507 57.29222992 -2.4176889 56.24852234 -2.3712616 55.17318726 C-1.89340448 43.86646153 -1.58698662 32.55614307 -1.34204102 21.2421875 C-1.17915373 14.12071573 -0.87814874 7.0736831 0 0 Z " fill="#000000" transform="translate(1364,1913)"/>
<path d="M0 0 C4.01888375 0.65109629 7.43925496 1.90664648 11.171875 3.51953125 C12.38093506 4.04095703 13.58999512 4.56238281 14.83569336 5.09960938 C16.1407628 5.66988558 17.44552444 6.24086662 18.75 6.8125 C19.41516632 7.10278076 20.08033264 7.39306152 20.76565552 7.69213867 C42.1462587 17.03366613 62.87728458 27.16486219 83 39 C84.23169922 39.71736328 84.23169922 39.71736328 85.48828125 40.44921875 C107.93573216 53.56499612 128.67820508 69.20994146 143.5625 90.8125 C144.01713623 91.45936768 144.47177246 92.10623535 144.94018555 92.77270508 C148.06104127 97.44150523 148.06104127 97.44150523 147.77294922 100.07739258 C146.45479447 103.35612556 144.0264488 104.34421303 141 106 C138.35159038 106.92808106 135.68155461 107.54791077 132.9375 108.125 C131.81758667 108.37310425 131.81758667 108.37310425 130.67504883 108.6262207 C111.87931422 112.69792681 93.63404674 113.58907206 74.5 112.125 C57.7066625 110.92958253 40.88688118 110.41413246 24.0625 109.875 C23.37076691 109.8527964 22.67903381 109.8305928 21.96633911 109.80771637 C13.31113848 109.53045034 4.65569714 109.26131322 -4 109 C-4.25879672 89.02389403 -3.5011954 69.12149312 -2.66760254 49.16778564 C-2.52633599 45.75007041 -2.39094417 42.33213239 -2.25558567 38.91417885 C-2.12320364 35.5853221 -1.98779454 32.25659391 -1.85142326 28.92789841 C-1.78727322 27.35644015 -1.72388346 25.78495064 -1.66131783 24.2134285 C-1.33660354 16.11158403 -0.92044271 8.06119261 0 0 Z " fill="#000000" transform="translate(1369,1764)"/>
<path d="M0 0 C0.80012149 4.32001439 1.20106358 8.51824824 1.38891602 12.90625 C1.41832275 13.57094803 1.44772949 14.23564606 1.47802734 14.92048645 C1.57389505 17.11350959 1.66418116 19.30671752 1.75390625 21.5 C1.81959195 23.05623988 1.88542642 24.6124735 1.95140076 26.16870117 C2.08925975 29.44358274 2.22415135 32.71857107 2.35717773 35.99365234 C2.49131293 39.28845825 2.62990367 42.58302103 2.77319336 45.87744141 C3.68856285 66.93301544 4.22354122 87.92282915 4 109 C3.31715439 109.02061493 2.63430878 109.04122986 1.93077087 109.06246948 C-6.7339081 109.32531152 -15.39829878 109.5968921 -24.0625 109.875 C-24.75036591 109.89704247 -25.43823181 109.91908493 -26.14694214 109.94179535 C-43.43632072 110.49786312 -60.7136498 111.07011546 -77.96508789 112.39013672 C-88.02334283 113.15502888 -97.96121818 113.35516659 -108 112.25 C-108.79253174 112.16347168 -109.58506348 112.07694336 -110.40161133 111.98779297 C-116.54102942 111.26748909 -122.61616877 110.28349524 -128.6875 109.125 C-129.50025391 108.97579102 -130.31300781 108.82658203 -131.15039062 108.67285156 C-137.34711838 107.41966716 -143.44008257 105.55991743 -148 101 C-146.41941155 86.55776041 -126.74558988 69.63205536 -116 61 C-94.80873008 44.66540421 -71.00875571 31.66955518 -47 20 C-46.06736328 19.54334961 -45.13472656 19.08669922 -44.17382812 18.61621094 C-33.25442701 13.27482129 -22.31678916 8.00047951 -11.125 3.25 C-10.34084717 2.91484375 -9.55669434 2.5796875 -8.7487793 2.234375 C-5.68770876 0.96095868 -3.34883406 0 0 0 Z " fill="#000000" transform="translate(1305,1764)"/>
</svg>
