<?xml version="1.0" encoding="UTF-8"?>
<svg version="1.1" xmlns="http://www.w3.org/2000/svg" width="2682" height="2682">
<path d="M0 0 C1 3 1 3 -0.265625 5.625 C-0.92046875 6.73875 -1.5753125 7.8525 -2.25 9 C-30.7103196 60.00979738 -41.27177328 123.40115318 -41.1875 181.3125 C-41.18689575 182.09069092 -41.1862915 182.86888184 -41.18566895 183.6706543 C-40.99184225 276.5278228 -8.69629801 363.56825623 39.88378906 441.59082031 C51.64116535 460.50403297 62.97513281 479.65042118 74 499 C74.5563916 499.97243652 75.1127832 500.94487305 75.68603516 501.94677734 C84.3870354 517.15739569 92.79892767 532.51420076 101 548 C101.31148987 548.58797363 101.62297974 549.17594727 101.94390869 549.78173828 C109.08410322 563.27246617 116.06241311 576.81361063 122.4375 590.6875 C122.90438232 591.70344238 123.37126465 592.71938477 123.85229492 593.76611328 C127 600.73261392 127 600.73261392 127 603 C127.66 603 128.32 603 129 603 C129.40617554 601.6838269 129.40617554 601.6838269 129.82055664 600.34106445 C130.93624041 597.18061477 132.24202091 594.46523649 133.87109375 591.54296875 C134.43981201 590.52130615 135.00853027 589.49964355 135.59448242 588.44702148 C136.20267822 587.37137939 136.81087402 586.2957373 137.4375 585.1875 C138.06567627 584.0725415 138.69385254 582.95758301 139.34106445 581.80883789 C144.55571957 572.63175931 150.08393134 563.73774751 156 555 C156.43344727 554.35337402 156.86689453 553.70674805 157.31347656 553.04052734 C170.93087238 532.74546703 185.54815763 513.14454771 202.0703125 495.109375 C203.85170396 493.16210498 205.5875977 491.18475529 207.3125 489.1875 C215.63720031 479.67624738 224.32628724 470.57575183 233.25 461.625 C234.08942139 460.78098633 234.92884277 459.93697266 235.79370117 459.06738281 C240.14675265 454.72507961 244.56801963 450.53188422 249.23095703 446.52392578 C251.64288165 444.44619552 253.97429114 442.28502498 256.3125 440.125 C260.74496474 436.08720678 265.27742177 432.22692566 269.9453125 428.46484375 C272.1831158 426.65914825 274.40481899 424.84020688 276.6171875 423.00390625 C290.29386663 411.69192684 304.63517422 401.50301639 319.375 391.625 C320.34888672 390.97104248 321.32277344 390.31708496 322.32617188 389.64331055 C329.07063464 385.16203286 335.96542964 381.00934865 343 377 C343 381.01218981 341.00301337 382.74117844 338.5625 385.6875 C323.0139231 405.29355199 314.9888419 428.72744317 310 453 C309.73098877 454.28559814 309.73098877 454.28559814 309.45654297 455.59716797 C303.63823213 485.09317275 305.45075942 518.44447719 310 548 C310.18804199 549.26231445 310.37608398 550.52462891 310.56982422 551.82519531 C321.58630737 624.76820863 348.05949847 694.91893935 378 762 C378.29672607 762.66521667 378.59345215 763.33043335 378.89916992 764.01580811 C393.56854716 796.85826444 409.50199733 829.07060078 425.5625 861.25 C426.06160889 862.25098724 426.56071777 863.25197449 427.07495117 864.28329468 C433.18437075 876.52698835 439.41020131 888.69825037 445.82583618 900.78430176 C447.34601545 903.65294622 448.8551768 906.52730616 450.36386108 909.40200806 C457.84959926 923.66150234 465.38259827 937.87668816 473.37597656 951.86010742 C478.33385954 960.53953458 483.08870401 969.32274 487.82421875 978.125 C489.8408276 981.87021826 491.88218091 985.59924531 493.95703125 989.3125 C513.46053862 1024.29995713 529.28265989 1061.02606434 542 1099 C542.40669922 1100.21204102 542.81339844 1101.42408203 543.23242188 1102.67285156 C561.23650169 1156.92383465 572.6192238 1213.8985588 576 1271 C576.06195053 1271.99265869 576.06195053 1271.99265869 576.12515259 1273.00537109 C577.02002263 1287.58706832 577.20157394 1302.14346277 577.1875 1316.75 C577.18689575 1317.91530243 577.1862915 1319.08060486 577.18566895 1320.28121948 C577.15949856 1338.93894799 576.74224415 1357.4152733 575 1376 C574.93683594 1376.68656677 574.87367187 1377.37313354 574.80859375 1378.08050537 C568.51901187 1446.12707549 552.68828527 1512.67064779 527 1576 C526.74387939 1576.63234558 526.48775879 1577.26469116 526.22387695 1577.91619873 C513.56899052 1609.0530251 498.51058589 1639.3129181 481 1668 C480.03770668 1669.6059592 479.07672576 1671.21270567 478.1171875 1672.8203125 C462.31188104 1699.16620598 444.3777605 1724.17223187 425 1748 C424.33097656 1748.83144531 423.66195313 1749.66289062 422.97265625 1750.51953125 C418.66908217 1755.83479544 414.27391282 1761.06705758 409.8125 1766.25 C409.11120972 1767.0702063 409.11120972 1767.0702063 408.39575195 1767.90698242 C397.44569056 1780.55235336 385.69629841 1792.46796649 373.85693359 1804.2734375 C371.60265829 1806.52228794 369.35386624 1808.77652448 367.10546875 1811.03125 C365.6461543 1812.48990452 364.18653015 1813.94824927 362.7265625 1815.40625 C361.73881332 1816.39703552 361.73881332 1816.39703552 360.73110962 1817.40783691 C356.31418153 1821.80283625 351.723625 1825.93835158 347 1830 C345.80867928 1831.04549038 344.61839434 1832.09216364 343.4296875 1833.140625 C336.28570649 1839.40254711 329.02742817 1845.44673888 321.515625 1851.26171875 C319.12739138 1853.11146826 316.76581407 1854.98896732 314.421875 1856.89453125 C301.15169413 1867.67932708 287.33994417 1877.68175562 273 1887 C271.73028929 1887.83566489 270.46077055 1888.67162151 269.19140625 1889.5078125 C200.36893405 1934.6575093 124.12423997 1967.70496223 -245.3425293 1988.51757812 C-334.31713841 1969.92127881 -418.93567158 1934.4066541 -494 1883 C-494.68980957 1882.52771973 -495.37961914 1882.05543945 -496.09033203 1881.56884766 C-512.24641421 1870.4512983 -528.000223 1858.63870099 -543 1846 C-544.05195884 1845.12224662 -545.10404993 1844.24465171 -546.15625 1843.3671875 C-552.404015 1838.13733226 -558.50763425 1832.78664477 -564.5078125 1827.2734375 C-566.70495068 1825.26915157 -568.93280081 1823.31386584 -571.1875 1821.375 C-574.62464584 1818.39287347 -577.80860747 1815.21000804 -581 1811.96875 C-582.93891002 1810.06013545 -584.93699551 1808.27289448 -587 1806.5 C-593.24437723 1801.11101691 -598.84768223 1795.24996977 -604.21875 1789 C-606.0742521 1786.91662922 -608.01223101 1784.95718793 -610 1783 C-613.1133812 1779.9222003 -616.05009058 1776.76145493 -618.90234375 1773.44140625 C-620.57012632 1771.50031852 -622.25086122 1769.57349044 -623.94140625 1767.65234375 C-630.27204662 1760.43784932 -636.38369087 1753.10990321 -642.2578125 1745.51953125 C-644.11876882 1743.11663337 -646.00970445 1740.74271641 -647.9296875 1738.38671875 C-655.40059195 1729.21538818 -662.3336907 1719.77063695 -669 1710 C-669.67337402 1709.01451172 -670.34674805 1708.02902344 -671.04052734 1707.01367188 C-686.09419268 1684.90139825 -700.0343514 1662.24299223 -712.60449219 1638.61474609 C-713.95427877 1636.08566732 -715.32299904 1633.56769022 -716.6953125 1631.05078125 C-752.22094012 1565.31249603 -774.42403495 1491.19857227 -789.80859375 1379.98822021 C-789.98768337 1378.12793816 -790.17328906 1376.26828664 -790.359375 1374.40869141 C-799.52999756 1278.81313927 -785.25602127 1180.38269565 -702.21875 976.64453125 C-697.15525084 967.81882758 -692.38076479 958.83478535 -687.55566406 949.87744141 C-685.63159484 946.31857765 -683.68591495 942.7718591 -681.73876953 939.22558594 C-665.59087771 909.78235696 -650.19850485 879.94183225 -635 850 C-634.61783325 849.24769104 -634.2356665 848.49538208 -633.84191895 847.72027588 C-624.74130311 829.79868871 -615.98420342 811.76203713 -607.61083984 793.48632812 C-605.97850501 789.95347855 -604.31638144 786.43618217 -602.64453125 782.921875 C-567.66943137 709.31715098 -537.18346526 630.47861455 -521.75 499.25 C-521.74932526 498.34092896 -521.74865051 497.43185791 -521.74795532 496.49523926 C-521.76483109 482.15115328 -522.28713651 468.12541704 -525 454 C-525.17160645 453.10522949 -525.34321289 452.21045898 -525.52001953 451.28857422 C-530.36682111 427.0718918 -539.41423702 403.3971286 -555 384 C-555.73476563 383.07960938 -556.46953125 382.15921875 -557.2265625 381.2109375 C-557.81179688 380.48132813 -558.39703125 379.75171875 -559 379 C-558.67 378.34 -558.34 377.68 -558 377 C-546.6108696 383.49800633 -535.68716345 390.40576241 -525 398 C-523.91501221 398.76401123 -523.91501221 398.76401123 -522.80810547 399.54345703 C-512.46412996 406.83386044 -502.4946043 414.46521314 -492.75732422 422.546875 C-490.23066633 424.63615921 -487.67532093 426.68971268 -485.125 428.75 C-480.7359539 432.34283234 -476.50519214 436.08306326 -472.3125 439.90234375 C-470.33615628 441.69507446 -468.3354327 443.44795227 -466.3125 445.1875 C-456.72135592 453.56773812 -447.52159609 462.38831394 -438.5 471.375 C-437.85417969 472.01622803 -437.20835937 472.65745605 -436.54296875 473.31811523 C-432.74629165 477.12707454 -429.14470397 481.05499911 -425.62988281 485.125 C-423.35314254 487.744138 -420.9903926 490.27307702 -418.625 492.8125 C-413.51070231 498.35649692 -408.69710479 504.09666592 -404 510 C-403.58814453 510.51224121 -403.17628906 511.02448242 -402.75195312 511.55224609 C-381.61316525 537.84858034 -362.62583164 566.08169231 -347 596 C-347.4398131 588.12531353 -347.93906181 580.27626214 -348.75390625 572.4296875 C-351.04842509 549.43422991 -351.33603478 526.45601762 -351.36970139 503.36740875 C-351.37489939 500.86101236 -351.38571827 498.35469844 -351.39797974 495.84832764 C-351.52731853 465.77992583 -349.95045763 435.85396426 -345.6875 406.0625 C-345.58395203 405.31791534 -345.48040405 404.57333069 -345.37371826 403.80618286 C-337.70141294 348.83428077 -321.95521928 296.03900302 -298 246 C-297.58927246 245.1347168 -297.17854492 244.26943359 -296.75537109 243.37792969 C-282.05814285 212.56287924 -263.10381013 183.04539865 -241 157 C-240.1294919 155.95632631 -239.25973651 154.91202447 -238.390625 153.8671875 C-228.53221883 142.07755726 -218.10273427 130.91590183 -207.23876953 120.0534668 C-205.49611683 118.30861192 -203.76166837 116.55586257 -202.02734375 114.80273438 C-195.32488204 108.0671139 -188.45469043 101.90369895 -181 96 C-179.9097834 95.07708045 -178.82516292 94.14744467 -177.75 93.20703125 C-128.13341216 50.00395122 -63.8884217 15.64429859 0 0 Z M-167 756 C-179.23921342 771.46956319 -186.26110623 788.97969183 -184 809 C-183.21021637 813.32622753 -182.08885633 817.54561375 -180.875 821.76953125 C-180 825 -180 825 -180 828 C-180.44730469 827.54109375 -180.89460938 827.0821875 -181.35546875 826.609375 C-185.22329511 822.66627095 -185.22329511 822.66627095 -189.5 819.1875 C-193.45775671 815.72446288 -196.09041909 811.35183007 -199 807 C-203.82610025 799.78319269 -209.01840057 793.29793402 -215 787 C-215.845625 786.10152344 -216.69125 785.20304687 -217.5625 784.27734375 C-234.0022176 767.28804257 -251.83616066 756.31147271 -276 755.625 C-303.50310162 756.34546849 -325.27641846 770.36102343 -344.31640625 789.3046875 C-350.5451631 795.91258607 -355.47487555 803.16854044 -360 811 C-360.64195312 812.10601563 -361.28390625 813.21203125 -361.9453125 814.3515625 C-365.9908131 822.10981691 -367.80928537 829.45466651 -369.3125 838.0625 C-371.57402896 850.80729765 -375.95673326 861.60088276 -382 873 C-382.45213867 873.85384277 -382.90427734 874.70768555 -383.37011719 875.58740234 C-394.48407168 896.2372089 -409.29550353 912.34753776 -425.75 928.875 C-426.63727783 929.76703125 -427.52455566 930.6590625 -428.4387207 931.578125 C-433.4665294 936.59322652 -438.6105463 941.37850138 -444 946 C-445.60768373 947.45445517 -447.21239715 948.91220895 -448.8125 950.375 C-453.21151118 954.34895335 -457.7564547 958.10357761 -462.3671875 961.828125 C-464.71041035 963.76111002 -466.95292844 965.75635431 -469.1875 967.8125 C-490.41959222 986.82350456 -515.69462572 1001.59764428 -541.16845703 1014.10009766 C-555.10904158 1020.94960374 -567.23778885 1028.80259555 -576 1042 C-576 1042.99 -576 1043.98 -576 1045 C-553.21958907 1056.65900087 -529.38741228 1060.44008648 -504 1061 C-502.68684814 1061.03287109 -502.68684814 1061.03287109 -501.34716797 1061.06640625 C-471.03091357 1061.74122549 -445.87716231 1052.3610441 -420 1037 C-426.58908181 1043.58908181 -434.61195441 1049.00504122 -442.0625 1054.5625 C-452.17892976 1062.09223419 -452.17892976 1062.09223419 -462 1070 C-462.85851562 1070.71285156 -463.71703125 1071.42570312 -464.6015625 1072.16015625 C-469.92013158 1076.7334981 -475.08015526 1081.49563042 -478 1088 C-478.19903846 1090.67771961 -478.19903846 1090.67771961 -478 1093 C-462.26423108 1093.87691592 -449.00742818 1091.64440959 -434 1087 C-432.25264757 1086.48813306 -430.50525287 1085.97641038 -428.7578125 1085.46484375 C-415.29149214 1081.37233884 -402.84916875 1075.43262397 -390.30224609 1069.10400391 C-388 1068 -388 1068 -385 1067 C-385.67546875 1067.9178125 -386.3509375 1068.835625 -387.046875 1069.78125 C-397.07414098 1083.03647069 -397.07414098 1083.03647069 -400 1099 C-398.46118968 1100.53881032 -397.08810403 1100.20691611 -394.9375 1100.25 C-363.35649271 1099.67094063 -330.06766397 1080.76229962 -308 1059 C-307.19852539 1058.21906982 -307.19852539 1058.21906982 -306.38085938 1057.42236328 C-297.16218195 1048.67821955 -297.16218195 1048.67821955 -289 1039 C-289 1038.34 -289 1037.68 -289 1037 C-288.34 1037 -287.68 1037 -287 1037 C-287.49814209 1038.2375 -287.49814209 1038.2375 -288.00634766 1039.5 C-291.1973959 1047.43390004 -294.37312276 1055.37373295 -297.53369141 1063.31982422 C-298.40965214 1065.51833107 -299.28851004 1067.71569219 -300.17333984 1069.91064453 C-301.06502965 1072.12345354 -301.94193344 1074.34131944 -302.8125 1076.5625 C-303.50279297 1078.29693359 -303.50279297 1078.29693359 -304.20703125 1080.06640625 C-305.05016028 1083.18556832 -304.92911624 1084.9390465 -304 1088 C-291.66105711 1086.50767947 -282.4274836 1077.47448247 -274 1069 C-273.16855469 1068.16855469 -272.33710937 1067.33710937 -271.48046875 1066.48046875 C-234.62327311 1027.71789305 -207.50803719 972.46962283 -199.53857422 919.9597168 C-198.7001935 914.51024215 -198.01535567 910.86370706 -194 906.8125 C-193.19691406 906.00039062 -192.39382813 905.18828125 -191.56640625 904.3515625 C-187.54242037 900.66443997 -183.44936988 897.16501569 -179 894 C-178.43812988 893.58419678 -177.87625977 893.16839355 -177.29736328 892.73999023 C-171.80135309 888.94146244 -166.53531378 887.72864309 -160 886.6875 C-159.03449219 886.51927734 -158.06898438 886.35105469 -157.07421875 886.17773438 C-154.71833445 885.7695366 -152.3609806 885.37738559 -150 885 C-153.15629521 893.81971854 -156.43702313 902.34079205 -160.80078125 910.64453125 C-163.55068307 916.0458042 -163.9215862 920.92055342 -162.19921875 926.67578125 C-160.23676276 931.87527804 -158.02175519 936.95646504 -155.8046875 942.05078125 C-155.41531006 942.94901611 -155.02593262 943.84725098 -154.62475586 944.77270508 C-153.85751888 946.53515711 -153.08279526 948.29437736 -152.29907227 950.04956055 C-143.15678926 970.90132926 -139.50894678 993.11753828 -139.5625 1015.75 C-139.56245972 1016.4422467 -139.56241943 1017.13449341 -139.56237793 1017.84771729 C-139.63272872 1038.62650095 -142.21822733 1059.22555188 -145.25 1079.75 C-145.40107208 1080.79150208 -145.55214417 1081.83300415 -145.70779419 1082.90606689 C-147.63760726 1096.16476421 -149.69925081 1109.31201947 -153.22167969 1122.25683594 C-154.69481045 1127.98163627 -155.16407118 1133.4150717 -155.11729431 1139.31425476 C-155.11375755 1140.1038388 -155.11022079 1140.89342285 -155.10657686 1141.70693368 C-155.04159245 1149.80162139 -154.64897543 1157.86820272 -154.18969727 1165.94848633 C-154.10222898 1167.55249271 -154.0151965 1169.15652291 -153.92855835 1170.76057434 C-153.69522789 1175.05854856 -153.45596565 1179.35617331 -153.21556973 1183.65375733 C-152.96281501 1188.19204227 -152.71584428 1192.73064214 -152.46824646 1197.26921082 C-151.99872359 1205.86051404 -151.52436598 1214.45154275 -151.0480985 1223.04247445 C-150.35222678 1235.59867435 -149.66384836 1248.15528551 -148.97525692 1260.71188641 C-148.87266326 1262.58247586 -148.77006605 1264.45306512 -148.66746521 1266.32365417 C-148.61727877 1267.23877154 -148.56709233 1268.1538889 -148.51538509 1269.09673709 C-148.22087846 1274.46396272 -147.92504029 1279.83111283 -147.62798995 1285.19819826 C-146.69099757 1302.12935623 -145.7575206 1319.05962427 -145 1336 C-156.77793571 1333.46958749 -168.4364203 1330.66005135 -180.0625 1327.5078125 C-181.64935093 1327.08062097 -183.23628252 1326.65372897 -184.82328796 1326.22711182 C-189.01903861 1325.09791329 -193.21333798 1323.96342105 -197.40719223 1322.82720184 C-200.02158527 1322.11915413 -202.63630797 1321.41233639 -205.25112915 1320.70587158 C-408.18855158 1265.86779696 -408.18855158 1265.86779696 -432.49609375 1224.69140625 C-432.99238281 1223.80324219 -433.48867188 1222.91507813 -434 1222 C-434.50660156 1221.14277344 -435.01320313 1220.28554687 -435.53515625 1219.40234375 C-438.58020573 1213.91446907 -440.13283124 1209.28659095 -439 1203 C-437.71380179 1199.88604643 -436.44877573 1198.39437867 -433.9375 1196.1875 C-426.23359231 1193.07315434 -417.92647864 1195.45020897 -410.25 1197.625 C-409.26427002 1197.89280273 -408.27854004 1198.16060547 -407.26293945 1198.43652344 C-404.17177859 1199.27878554 -401.08574111 1200.13811555 -398 1201 C-395.00893568 1201.8263457 -392.01709339 1202.64973767 -389.02441406 1203.47021484 C-387.19302572 1203.97361023 -385.36284546 1204.48143139 -383.53417969 1204.99462891 C-353.49634164 1213.32826237 -328.76886996 1209.23028662 -302.01855469 1194.18701172 C-299.26311302 1192.56667338 -296.62859144 1190.81817907 -294 1189 C-295.39493168 1184.75134745 -297.35115131 1182.25265221 -300.48046875 1179.0859375 C-301.38966064 1178.16514404 -302.29885254 1177.24435059 -303.2355957 1176.2956543 C-304.21830759 1175.32083485 -305.20230247 1174.34730728 -306.1875 1173.375 C-306.68486664 1172.88133942 -307.18223328 1172.38767883 -307.69467163 1171.87905884 C-330.38067403 1149.43402305 -355.15810813 1135.75809301 -387.62036133 1135.74902344 C-397.96752461 1135.84343317 -407.8734767 1136.91945564 -418 1139 C-419.01344482 1139.20085205 -419.01344482 1139.20085205 -420.04736328 1139.40576172 C-434.68400735 1142.41929587 -447.96815616 1148.90576314 -459 1159 C-460.02287109 1159.88558594 -460.02287109 1159.88558594 -461.06640625 1160.7890625 C-474.98158404 1173.58775832 -482.64433967 1192.37580928 -484 1211 C-484.05414062 1211.65097656 -484.10828125 1212.30195312 -484.1640625 1212.97265625 C-485.09740196 1234.9909827 -475.0363814 1257.03342712 -460.57763672 1273.18334961 C-458.57903092 1275.33235001 -456.53672656 1277.43293657 -454.46728516 1279.51367188 C-453.07158701 1280.92748391 -451.71236275 1282.37703009 -450.35546875 1283.828125 C-416.81937828 1319.02342234 -366.60392804 1335.67465834 -321.48504639 1350.19854736 C-318.97723697 1351.00734131 -316.47108475 1351.82108861 -313.96533203 1352.63623047 C-291.52918555 1359.92953358 -268.99619528 1366.86523911 -246.375 1373.5625 C-245.23500549 1373.90011353 -244.09501099 1374.23772705 -242.92047119 1374.58557129 C-229.6461366 1378.51082553 -216.35298974 1382.35078227 -203 1386 C-206.25812637 1388.64763227 -209.66459913 1390.4116526 -213.44140625 1392.23046875 C-214.74788258 1392.86635952 -216.05402046 1393.50294602 -217.35986328 1394.14013672 C-218.04502014 1394.47333923 -218.730177 1394.80654175 -219.43609619 1395.14984131 C-240.50597661 1405.43168169 -261.43993457 1416.56439355 -280 1431 C-280.92941406 1431.72058594 -281.85882812 1432.44117188 -282.81640625 1433.18359375 C-305.58219813 1451.35088998 -327.86736678 1474.64342612 -337 1503 C-337.22300781 1503.66257812 -337.44601562 1504.32515625 -337.67578125 1505.0078125 C-341.28093922 1517.90790157 -339.89148701 1532.78088616 -333.64453125 1544.5546875 C-323.64717361 1560.47541254 -306.80284845 1567.82619192 -289.05859375 1571.96875 C-278.47035393 1574.10562988 -267.74944275 1575.06382927 -257 1576 C-257.94746094 1576.47566406 -257.94746094 1576.47566406 -258.9140625 1576.9609375 C-281.4847458 1588.73411813 -303.36546873 1606.84622623 -311.875 1631.5390625 C-312.4270357 1633.70886948 -312.77490261 1635.77358218 -313 1638 C-313.08121094 1638.763125 -313.16242188 1639.52625 -313.24609375 1640.3125 C-313.94194746 1653.47046109 -307.96986624 1665.24269742 -299.453125 1674.8828125 C-293.79158125 1680.75226604 -287.93463357 1685.72138903 -281 1690 C-279.90945313 1690.68449219 -278.81890625 1691.36898437 -277.6953125 1692.07421875 C-252.63080612 1707.25791276 -210.9819609 1725 -181 1725 C-184.62857819 1728.68223554 -188.36873497 1732.20417474 -192.1875 1735.6875 C-201.86774697 1744.60733198 -210.68585748 1753.65796733 -218.61767578 1764.16894531 C-219.52245638 1765.36743604 -220.43211361 1766.56226454 -221.34716797 1767.75292969 C-247.98947203 1802.42588806 -266.04790747 1842.95280109 -283 1883 C-283.48259277 1884.13453613 -283.96518555 1885.26907227 -284.46240234 1886.43798828 C-285.77704439 1889.53774188 -287.07916986 1892.64234249 -288.375 1895.75 C-288.76260498 1896.66676514 -289.15020996 1897.58353027 -289.54956055 1898.52807617 C-289.89156494 1899.35927979 -290.23356934 1900.1904834 -290.5859375 1901.046875 C-290.8854834 1901.76713867 -291.1850293 1902.48740234 -291.49365234 1903.22949219 C-292.23973045 1905.08379956 -292.23973045 1905.08379956 -291 1907 C-284.67071047 1899.66402144 -278.38823031 1892.30434168 -272.28125 1884.78125 C-269.70157112 1881.63616205 -267.07368017 1878.53520324 -264.4375 1875.4375 C-261.23256144 1871.6691525 -258.07312111 1867.87753727 -255 1864 C-251.4715448 1859.54794099 -247.82014119 1855.21252232 -244.13671875 1850.88891602 C-241.20669636 1847.44441973 -238.33694139 1843.95957035 -235.5 1840.4375 C-231.36958445 1835.35960561 -226.99168232 1830.55436147 -222.54296875 1825.7578125 C-220.55011761 1823.59659452 -218.60292215 1821.41653031 -216.6875 1819.1875 C-213.21588787 1815.18631991 -209.61073299 1811.31272095 -206 1807.4375 C-205.41822998 1806.81190186 -204.83645996 1806.18630371 -204.23706055 1805.54174805 C-199.09328002 1800.03938492 -193.92342503 1794.51931075 -188.1875 1789.625 C-186.0473092 1787.78590068 -183.93330621 1785.93794791 -181.8671875 1784.015625 C-165.12181022 1768.46229153 -146.79181226 1756.33509938 -126 1747 C-125.95029053 1748.28938477 -125.90058105 1749.57876953 -125.84936523 1750.90722656 C-125.2971126 1764.45491466 -124.41548817 1777.95808013 -123.32543945 1791.47265625 C-123.05940803 1794.78853915 -122.80390597 1798.10513349 -122.54882812 1801.421875 C-122.37823508 1803.56775858 -122.2070337 1805.71359391 -122.03515625 1807.859375 C-121.96112076 1808.83243591 -121.88708527 1809.80549683 -121.81080627 1810.80804443 C-121.30085174 1816.98615044 -120.35128104 1822.95005258 -119 1829 C-119.63413818 1829.0812915 -120.26827637 1829.16258301 -120.92163086 1829.24633789 C-132.40578402 1830.84874909 -142.8003157 1836.95508768 -150 1846 C-158.61437831 1857.50591789 -161.24324484 1870.84849695 -160 1885 C-158.08634634 1898.06345389 -151.80653595 1909.18463001 -142 1918 C-132.81204274 1924.58408274 -123.21203979 1928.11015557 -112 1929 C-111.3503125 1929.05285156 -110.700625 1929.10570313 -110.03125 1929.16015625 C-95.90428982 1929.76635044 -82.07626329 1925.27323606 -71.1875 1916.3125 C-61.41998469 1907.00504882 -55.70298973 1894.40965568 -54.796875 1880.9921875 C-54.563191 1865.45220158 -59.06174722 1852.41979897 -69.80859375 1841 C-76.48793814 1834.90405646 -86.75859087 1829 -96 1829 C-95.67 1828.34 -95.34 1827.68 -95 1827 C-94.73401643 1824.76836878 -94.52261706 1822.53016676 -94.33569336 1820.29052734 C-94.27702591 1819.60082855 -94.21835846 1818.91112976 -94.15791321 1818.20053101 C-93.96443193 1815.91265849 -93.77699194 1813.62433613 -93.58984375 1811.3359375 C-93.4570176 1809.74368099 -93.32392157 1808.15144696 -93.19056702 1806.55923462 C-92.91143037 1803.21532123 -92.63521045 1799.87118321 -92.36108398 1796.52685547 C-92.010853 1792.25624473 -91.65405103 1787.98621488 -91.2950964 1783.71632957 C-91.01895277 1780.42384007 -90.74606178 1777.13108714 -90.47415352 1773.83824539 C-90.34391155 1772.26502436 -90.21274443 1770.69187962 -90.08061028 1769.11881638 C-89.89546507 1766.90807758 -89.71464302 1764.69702458 -89.53491211 1762.48583984 C-89.43133896 1761.23056488 -89.32776581 1759.97528992 -89.22105408 1758.68197632 C-88.98623422 1754.770711 -88.96292421 1750.91710506 -89 1747 C-75.87743996 1752.70420832 -64.35996582 1759.30027934 -53 1768 C-51.61941406 1769.04994141 -51.61941406 1769.04994141 -50.2109375 1770.12109375 C-47.76630294 1772.03619021 -45.37769698 1774.00243639 -43 1776 C-42.50532227 1776.41121094 -42.01064453 1776.82242188 -41.50097656 1777.24609375 C-27.08781662 1789.24981175 -13.48642269 1802.00176828 -1 1816 C0.00359091 1817.08344083 1.01020887 1818.16408404 2.01953125 1819.2421875 C7.43368699 1825.02529656 12.63593117 1830.88443775 17.59765625 1837.06640625 C20.44960008 1840.54902384 23.40803306 1843.92797273 26.375 1847.3125 C31.0449666 1852.65211454 35.4953767 1858.11030241 39.83105469 1863.72314453 C43.81049758 1868.83936528 48.02989704 1873.72280409 52.2980957 1878.59887695 C56.22285825 1883.08607748 60.03581275 1887.64898637 63.7890625 1892.28125 C66.3557159 1895.43741744 68.9555555 1898.56460253 71.5625 1901.6875 C72.00489014 1902.21754639 72.44728027 1902.74759277 72.90307617 1903.29370117 C73.93497667 1904.52947446 74.96742501 1905.76479025 76 1907 C76.33 1906.34 76.66 1905.68 77 1905 C76.08610803 1902.40869198 75.10200062 1899.9271753 74.01953125 1897.40625 C73.6954277 1896.63576828 73.37132416 1895.86528656 73.03739929 1895.07145691 C71.97084252 1892.54398211 70.89224426 1890.0218664 69.8125 1887.5 C69.0740675 1885.76153885 68.33578697 1884.02301313 67.59765625 1882.28442383 C62.06079548 1869.2885031 56.28829151 1856.417565 50.24609375 1843.64794922 C49.11444841 1841.24320287 48.0048343 1838.83014083 46.90625 1836.41015625 C34.70958373 1809.66573348 19.64590645 1783.76398472 1 1761 C0.4937207 1760.37947754 -0.01255859 1759.75895508 -0.53417969 1759.11962891 C-9.75135885 1747.90450628 -19.52205609 1737.30390018 -31.13671875 1728.5234375 C-33 1727 -33 1727 -34 1725 C-32.76507812 1724.89429687 -31.53015625 1724.78859375 -30.2578125 1724.6796875 C6.35573497 1720.55763249 52.43110698 1703.5971218 80 1679 C80.64324219 1678.45085938 81.28648437 1677.90171875 81.94921875 1677.3359375 C91.69015351 1668.44870264 97.66988954 1656.15302205 98.375 1643 C97.52622835 1625.21269842 86.75210873 1609.87000751 74.234375 1597.953125 C64.41546235 1589.3701594 53.68671225 1581.84335612 42 1576 C43.05574219 1575.89510254 43.05574219 1575.89510254 44.1328125 1575.78808594 C83.84847788 1571.77282271 83.84847788 1571.77282271 115.50390625 1549.12890625 C123.99359056 1537.04828497 125.7709896 1523.72681675 123.3828125 1509.26171875 C116.74881875 1481.46352368 95.87830262 1455.44415921 73.68359375 1438.09765625 C71.93423847 1436.73025627 70.21552068 1435.32243863 68.53515625 1433.87109375 C45.16843285 1413.74474802 15.52875966 1400.46290234 -12 1387 C-8.55657808 1384.70438539 -5.18011917 1383.78427329 -1.2421875 1382.70703125 C0.40563552 1382.24549186 2.05342004 1381.78381496 3.70117188 1381.32202148 C4.58087646 1381.07749237 5.46058105 1380.83296326 6.36694336 1380.58102417 C89.24322224 1358.19499524 89.24322224 1358.19499524 169 1327 C170.56814453 1326.27272705 170.56814453 1326.27272705 172.16796875 1325.53076172 C195.76104932 1314.47060717 217.11302652 1300.99384817 236 1283 C236.79277344 1282.27167969 237.58554688 1281.54335937 238.40234375 1280.79296875 C255.65109582 1264.45364122 267.43609562 1241.7472865 269 1218 C269.19708195 1196.91223087 261.98556073 1178.58717914 248 1163 C247.48308594 1162.39027344 246.96617187 1161.78054688 246.43359375 1161.15234375 C233.91168601 1147.37510691 215.69643355 1141.47504223 198 1138 C196.26363281 1137.65775391 196.26363281 1137.65775391 194.4921875 1137.30859375 C176.51744424 1134.38104445 157.38671018 1134.29233674 140 1140 C138.96488281 1140.33902344 137.92976563 1140.67804688 136.86328125 1141.02734375 C117.86320583 1148.15554294 102.95290033 1161.9433687 88.75 1175.9375 C87.90268311 1176.76693115 87.05536621 1177.5963623 86.18237305 1178.45092773 C85.39515869 1179.23927002 84.60794434 1180.0276123 83.796875 1180.83984375 C83.08885742 1181.54488037 82.38083984 1182.24991699 81.65136719 1182.97631836 C79.9607894 1185.04805096 79.39470145 1186.3856531 79 1189 C104.50959955 1204.95706866 129.23228168 1214.05886611 159.70996094 1207.40869141 C166.52261786 1205.78533529 173.26477783 1203.91619923 180 1202 C180.98693848 1201.7201123 181.97387695 1201.44022461 182.99072266 1201.15185547 C186.75089458 1200.08291441 190.51055895 1199.01301374 194.26293945 1197.91699219 C211.68322712 1192.84161356 211.68322712 1192.84161356 219.5 1196.75 C223.03202519 1199.92882267 223.85605494 1202.12193512 224.625 1206.8125 C224.37141852 1217.78895564 214.99235605 1229.23378636 208 1237 C207.40960937 1237.68320313 206.81921875 1238.36640625 206.2109375 1239.0703125 C154.03462888 1295.68715803 34.60200176 1308.89809348 -51.25 1331.6875 C-52.12666321 1331.91828247 -53.00332642 1332.14906494 -53.90655518 1332.38684082 C-56.29629832 1333.01483683 -58.68695773 1333.63917029 -61.078125 1334.26171875 C-61.76403717 1334.44194077 -62.44994934 1334.62216278 -63.15664673 1334.80784607 C-67.76775213 1336 -67.76775213 1336 -70 1336 C-68.85630109 1311.18105402 -67.54728748 1286.37180285 -66.18707943 1261.56395626 C-66.00986675 1258.33067338 -65.83303749 1255.09736956 -65.65619588 1251.86406636 C-64.87667229 1237.61314148 -64.09573103 1223.362296 -63.30810547 1209.11181641 C-62.89266914 1201.59494956 -62.48017915 1194.07792697 -62.07092297 1186.56072104 C-61.81488356 1181.86055932 -61.55539419 1177.16060617 -61.29317069 1172.46078563 C-61.13102219 1169.53866491 -60.9723577 1166.61636232 -60.81462479 1163.69400024 C-60.70765061 1161.73022586 -60.59666076 1159.76667146 -60.48547363 1157.8031311 C-59.37351935 1140.42868498 -59.37351935 1140.42868498 -61.57421875 1123.26953125 C-61.91330284 1121.72722544 -62.25233046 1120.18490722 -62.59130859 1118.64257812 C-62.77038757 1117.85568604 -62.94946655 1117.06879395 -63.13397217 1116.25805664 C-67.57411934 1096.64091947 -70.62162613 1076.9605345 -73 1057 C-73.13132324 1055.94570801 -73.26264648 1054.89141602 -73.39794922 1053.80517578 C-76.74066417 1026.30864958 -77.00639709 997.8950337 -70 971 C-69.8237207 970.27796387 -69.64744141 969.55592773 -69.46582031 968.81201172 C-66.10132669 955.24994612 -59.75962986 942.40413683 -54.13574219 929.65698242 C-50.84451746 921.95741261 -51.72358346 916.71604657 -54.65234375 909.10546875 C-56.69021159 904.40951243 -59.02648077 899.88431155 -61.4140625 895.359375 C-63.04919682 891.89578998 -64.05209948 888.69775054 -65 885 C-51.48672822 886.76126745 -41.49998844 888.87466185 -31 898 C-30.05382813 898.78375 -29.10765625 899.5675 -28.1328125 900.375 C-21.29236301 906.24390739 -16.96895756 911.238705 -15.2890625 920.3203125 C-15.15580063 921.01248367 -15.02253876 921.70465485 -14.88523865 922.4178009 C-14.60175771 923.89104728 -14.32365459 925.36533725 -14.05056763 926.84054565 C-13.33222929 930.69659822 -12.56017393 934.54171622 -11.78515625 938.38671875 C-11.6332634 939.14136917 -11.48137054 939.89601959 -11.32487488 940.67353821 C-3.02198275 981.38194168 19.27555262 1018.18391529 44 1051 C44.46809082 1051.62503418 44.93618164 1052.25006836 45.41845703 1052.89404297 C48.2281369 1056.63727134 51.08735513 1060.33587203 54 1064 C54.60070313 1064.75667969 55.20140625 1065.51335937 55.8203125 1066.29296875 C63.88372331 1075.98781384 76.15437169 1086.49880971 89 1088 C90.40644288 1084.23720718 89.55939115 1082.01590743 88.15625 1078.3359375 C87.73714355 1077.22130127 87.31803711 1076.10666504 86.88623047 1074.95825195 C86.42877441 1073.77577881 85.97131836 1072.59330566 85.5 1071.375 C84.81574951 1069.56938599 84.81574951 1069.56938599 84.11767578 1067.72729492 C82.75711009 1064.14679606 81.38114338 1060.57260491 80 1057 C79.61553711 1056.00081543 79.23107422 1055.00163086 78.83496094 1053.97216797 C76.91046448 1048.97325745 74.96689851 1043.98237537 73 1039 C76.32442463 1041.54795867 79.14640719 1044.14009993 81.875 1047.3125 C91.92133071 1058.59376173 102.0195399 1069.09687935 115 1077 C115.8979126 1077.55179932 115.8979126 1077.55179932 116.81396484 1078.11474609 C136.88295269 1090.32454989 160.15386773 1100.83023284 184 1100 C186.00820872 1092.30186659 183.20511865 1086.87227356 179.3828125 1080.16015625 C176.00094731 1074.68153464 172.33373308 1069.75653631 168 1065 C168.86496094 1065.53367187 169.72992187 1066.06734375 170.62109375 1066.6171875 C191.95461162 1079.39291374 221.93506014 1093.25348728 247.1796875 1093.09765625 C248.1078125 1093.09443359 249.0359375 1093.09121094 249.9921875 1093.08789062 C250.94351563 1093.07951172 251.89484375 1093.07113281 252.875 1093.0625 C254.33679687 1093.05573242 254.33679687 1093.05573242 255.828125 1093.04882812 C258.21881434 1093.03710906 260.6093744 1093.02070219 263 1093 C261.95791082 1082.37326344 254.70823605 1075.97926265 246.75878906 1069.40478516 C240.43804224 1064.35625973 233.89036272 1059.5932057 227.39111328 1054.77880859 C224.11301054 1052.3401465 220.86279211 1049.86683732 217.625 1047.375 C216.66851563 1046.64023438 215.71203125 1045.90546875 214.7265625 1045.1484375 C211.76949644 1042.81837112 208.88157539 1040.42256338 206 1038 C209.98861705 1039.44387937 213.6144839 1041.35929682 217.33154297 1043.37670898 C236.66575639 1053.85575117 255.37069667 1061.24935695 277.6875 1061.125 C278.5959668 1061.12089111 279.50443359 1061.11678223 280.44042969 1061.11254883 C296.19460262 1060.98646121 311.58490693 1060.45030964 327 1057 C328.15628906 1056.74476563 328.15628906 1056.74476563 329.3359375 1056.484375 C340.60662748 1053.93114426 350.7428084 1050.32024736 361 1045 C359.06531931 1039.5451442 355.89486881 1036.17478751 352 1032 C351.48566406 1031.40960937 350.97132813 1030.81921875 350.44140625 1030.2109375 C342.90039911 1021.97412671 332.73130968 1017.23633082 322.75 1012.625 C296.68204727 1000.57709143 272.89505482 983.46235555 251 965 C250.46697266 964.55188965 249.93394531 964.1037793 249.38476562 963.64208984 C242.30796729 957.68087574 235.36796117 951.59758819 228.61376953 945.2722168 C225.91961567 942.75172171 223.18931352 940.2981207 220.38671875 937.8984375 C214.57670848 932.83402678 209.13796081 927.38201877 203.6875 921.9375 C203.13063507 921.38130981 202.57377014 920.82511963 202.00003052 920.2520752 C186.09503605 904.31640654 174.18318002 887.13947015 164.01660156 867.01220703 C163.11574584 865.22910115 162.19595943 863.45558723 161.2734375 861.68359375 C157.66404304 854.14088482 156.10187057 846.88062981 154.625 838.6875 C149.4367478 810.32154669 131.34722665 787.10203827 107.84375 770.8125 C88.08288398 758.1501975 67.24233187 752.93841877 43.96533203 757.45751953 C27.76188595 761.08831347 14.11519032 772.05674392 3 784 C2.21625 784.763125 1.4325 785.52625 0.625 786.3125 C-5.49953862 792.58286097 -10.96307701 798.76316928 -15.625 806.1875 C-21.17830588 814.97580718 -28.44133548 821.93363327 -36 829 C-35.22768553 825.87635259 -34.37589164 822.78377693 -33.5 819.6875 C-28.53139201 801.29153188 -31.10428725 783.89348988 -40.03125 767.25 C-50.15575036 750.53653908 -66.58155378 739.17830391 -85.5 734.5078125 C-114.30720108 728.65634978 -146.26023939 733.74719635 -167 756 Z " fill="#FFFFFF" transform="translate(1452,330)"/>
<path d="M0 0 C2.13217909 -0.00297649 4.26435335 -0.00708915 6.39652991 -0.01150417 C13.14818127 -0.02513489 19.8998209 -0.03481601 26.65148503 -0.03870606 C33.53844339 -0.04270164 40.42526207 -0.05484221 47.3121736 -0.08106136 C81.73252927 -0.20918988 115.96846386 -0.04120884 150.28709197 3.01371098 C153.39957932 3.28887647 156.51371664 3.54395058 159.62760329 3.8027277 C165.28684854 4.28929945 170.93566473 4.85023019 176.58390212 5.45018864 C177.5660469 5.55245762 178.54819167 5.6547266 179.56009841 5.76009464 C218.75643903 9.8638461 257.70067369 15.74495992 296.39640212 23.20018864 C297.71203139 23.45351963 297.71203139 23.45351963 299.05423903 23.71196842 C390.25652058 41.36327362 479.43250969 69.17043437 588.39640212 116.20018864 C590.17264968 117.00045475 590.17264968 117.00045475 591.98478103 117.81688786 C622.87191699 131.82071055 653.62524758 146.66296301 682.91593337 163.77636051 C686.4131858 165.78383848 689.96300654 167.6880185 693.51554275 169.59545231 C706.74195304 176.69726599 719.59149417 184.36847825 732.39640212 192.20018864 C733.3092195 192.75416325 734.22203689 193.30813786 735.1625154 193.87889957 C749.63340396 202.67394591 763.74197587 212.00236196 777.83390212 221.38768864 C779.17145049 222.27754963 779.17145049 222.27754963 780.53602004 223.18538761 C795.46262293 233.12574603 810.23158051 243.27739819 824.64640212 253.95018864 C825.80402053 254.80544132 825.80402053 254.80544132 826.98502517 255.67797184 C849.76651732 272.56168256 872.22653602 289.91688953 893.81022048 308.31517887 C897.17528495 311.18101607 900.58287766 313.98560594 904.02140212 316.76268864 C908.78160265 320.63598136 913.32444996 324.70778856 917.84171462 328.86034489 C920.02338027 330.85853712 922.22651521 332.82167752 924.45890212 334.76268864 C933.24978948 342.41236547 941.83279478 350.29800297 950.39640212 358.20018864 C950.94928908 358.70950932 951.50217605 359.21882999 952.07181716 359.74358463 C963.22263199 370.03741137 974.0184855 380.66671287 984.73600173 391.40941715 C987.48298057 394.16181459 990.23534415 396.9087476 992.988199 399.65526676 C994.7613066 401.42903434 996.53410443 403.20311164 998.30655837 404.97753239 C999.52231299 406.19025066 999.52231299 406.19025066 1000.76262832 407.4274683 C1004.95313155 411.63515574 1008.99129674 415.91151008 1012.84292006 420.43262577 C1014.45731562 422.26949645 1016.15059617 423.98842923 1017.89640212 425.70018864 C1020.88874587 428.64619078 1023.64964385 431.73001871 1026.38858962 434.91112614 C1028.33995397 437.13583335 1030.33808668 439.31172129 1032.35074782 441.48095036 C1037.15877689 446.66492945 1041.71490313 451.97468989 1046.15030837 457.48534489 C1048.48470802 460.30692359 1050.9163081 463.00609575 1053.39640212 465.70018864 C1058.29140319 471.026434 1062.85916515 476.56886616 1067.39640212 482.20018864 C1068.8327839 483.95110658 1070.27029886 485.70109547 1071.70890212 487.45018864 C1080.270835 497.92140271 1088.70361811 508.48823398 1096.90323806 519.24608707 C1098.6479554 521.52939603 1100.4012678 523.80600444 1102.15421462 526.08300114 C1109.95767095 536.24174041 1117.57144952 546.49140764 1124.87491775 557.01513004 C1126.49214717 559.33769155 1128.12265779 561.65049419 1129.75577712 563.96190739 C1138.18093274 575.90294298 1146.36655336 587.99005216 1154.39640212 600.20018864 C1154.88205642 600.93833805 1155.36771071 601.67648746 1155.86808181 602.43700504 C1163.60030738 614.21931518 1171.0387088 626.18114544 1178.39640212 638.20018864 C1178.79536696 638.85132633 1179.19433181 639.50246403 1179.6053865 640.17333317 C1191.24101867 659.21963053 1202.26556699 678.64876803 1212.83341384 698.30516911 C1214.47815948 701.35162237 1216.14157372 704.3874103 1217.80655837 707.42284489 C1234.97447184 738.88144593 1250.23711921 771.28758514 1264.39640212 804.20018864 C1264.71095351 804.93005985 1265.0255049 805.65993107 1265.34958816 806.41191959 C1301.48362877 890.35386154 1328.59479087 978.16231912 1280.91593337 1818.43456364 C1261.05732924 1868.26660981 1238.86008426 1917.55060833 1212.878824 1964.50438786 C1211.41492959 1967.16649623 1209.97251862 1969.83907834 1208.53702712 1972.51659489 C1200.57853536 1987.33161259 1192.06234917 2001.79203127 1183.39640212 2016.20018864 C1182.79537673 2017.2022736 1182.19435134 2018.20435856 1181.57511306 2019.23680973 C1167.88894233 2042.02799019 1153.53990111 2064.35022479 1138.39640212 2086.20018864 C1137.80617263 2087.05451481 1137.21594314 2087.90884098 1136.6078279 2088.78905582 C1116.24799076 2118.23078445 1094.51221899 2146.67860201 1071.86857009 2174.39598942 C1070.57368701 2175.9829191 1069.28349734 2177.573676 1067.99405837 2179.16503239 C1062.43034054 2186.0165547 1056.7020603 2192.71717816 1050.94034743 2199.40184879 C1049.42604127 2201.16566588 1047.92142829 2202.93725754 1046.41983962 2204.71190739 C1040.77553911 2211.3698364 1035.00942567 2217.87752759 1029.02359939 2224.23143864 C1026.33597558 2227.08765877 1023.70426155 2229.9770996 1021.13590407 2232.94139957 C1008.28702591 2247.65193574 994.36765889 2261.3896314 980.54825759 2275.17870426 C977.89821118 2277.82298724 975.25277449 2280.47182995 972.60857558 2283.12195873 C970.53587236 2285.19829505 968.46076967 2287.27222023 966.38495803 2289.34544849 C965.40836521 2290.3213831 964.43248981 2291.29803626 963.45740676 2292.27547932 C958.46602162 2297.27632258 953.43399951 2302.15742721 948.07193923 2306.76046085 C946.05164492 2308.49642589 944.1075962 2310.30213308 942.17765212 2312.13768864 C941.47253493 2312.80542301 940.76741775 2313.47315739 940.04093337 2314.16112614 C939.33323806 2314.83401676 938.62554275 2315.50690739 937.89640212 2316.20018864 C932.50158823 2321.32968381 927.03793483 2326.34276787 921.39640212 2331.20018864 C920.83082595 2331.68793766 920.26524978 2332.17568668 919.68253493 2332.67821598 C918.04792983 2334.08424929 916.41027589 2335.48663404 914.77140212 2336.88768864 C913.55390486 2337.92929763 912.33645844 2338.97096605 911.11905837 2340.01268864 C910.19697585 2340.80159489 910.19697585 2340.80159489 909.2562654 2341.60643864 C907.42413304 2343.17642551 905.59529735 2344.75016295 903.76749587 2346.32518864 C896.72605078 2352.38876219 889.6158812 2358.34861086 882.39640212 2364.20018864 C881.1356239 2365.23099658 879.87523321 2366.26227862 878.61515212 2367.29393864 C870.94541308 2373.56488761 863.21957588 2379.73431402 855.32999587 2385.72753239 C853.06607152 2387.45177376 850.80943767 2389.18536458 848.55265212 2390.91893864 C837.30517779 2399.54492317 825.95465112 2407.99538228 814.39640212 2416.20018864 C813.64133376 2416.73788883 812.8862654 2417.27558903 812.10831618 2417.82958317 C773.55020401 2445.2406017 733.58549833 2470.85836735 692.14151931 2493.68358707 C689.65960524 2495.05477617 687.18613461 2496.43947396 684.71671462 2497.83300114 C674.08982261 2503.81916301 663.29705361 2509.46230187 652.45890212 2515.05565739 C648.88003809 2516.90447812 645.31368541 2518.77051818 641.77140212 2520.68846989 C589.86796865 2548.7416828 534.07287382 2570.9427905 478.39640212 2590.20018864 C477.68000564 2590.44837345 476.96360915 2590.69655827 476.22550368 2590.95226383 C391.20018071 2620.35733151 303.43585496 2641.24711798 151.77140212 2659.45018864 C150.87876662 2659.5273209 149.98613112 2659.60445316 149.06644607 2659.68392277 C142.18141993 2660.27040428 135.29217978 2660.75869139 128.39640212 2661.20018864 C127.73206664 2661.24293415 127.06773116 2661.28567966 126.3832643 2661.3297205 C99.62859829 2663.03452908 72.93830039 2663.52014999 46.13321853 2663.46093082 C40.93752828 2663.44953744 35.74204307 2663.45633015 30.54635978 2663.46780872 C4.10471757 2663.5173171 -22.21494351 2662.89812082 -48.60359788 2661.20018864 C-49.78458055 2661.12457706 -50.96556321 2661.04896549 -52.18233323 2660.97106266 C-58.78756006 2660.53454549 -65.38366056 2660.0203767 -71.97859788 2659.45018864 C-72.95121568 2659.36748722 -73.92383348 2659.2847858 -74.92592454 2659.19957829 C-178.7914394 2650.29510166 -280.9490907 2629.12124012 -592.56062913 2504.86425114 C-595.45205152 2503.28306251 -598.35340694 2501.72231073 -601.25984788 2500.16893864 C-615.967472 2492.28260461 -630.30588033 2483.79971042 -644.60359788 2475.20018864 C-645.60568284 2474.59916325 -646.6077678 2473.99813786 -647.64021897 2473.37889957 C-670.43139943 2459.69272884 -692.75363403 2445.34368762 -714.60359788 2430.20018864 C-715.45792405 2429.60995914 -716.31225022 2429.01972965 -717.19246507 2428.41161442 C-729.4999064 2419.90065012 -741.60586843 2411.14157174 -753.60359788 2402.20018864 C-754.31532151 2401.67151188 -755.02704515 2401.14283512 -755.76033616 2400.59813786 C-764.57396204 2394.04999346 -773.27546798 2387.37755075 -781.88142991 2380.55907536 C-783.62536313 2379.18301464 -785.37686386 2377.81719477 -787.13094163 2376.45409489 C-794.06673036 2371.05682847 -800.84687747 2365.51708902 -807.52937913 2359.80956364 C-810.31092875 2357.43749829 -813.13708449 2355.12526151 -815.97859788 2352.82518864 C-825.70704563 2344.9004093 -835.12416272 2336.59472592 -844.42000413 2328.16893864 C-846.42097773 2326.36484079 -848.44310098 2324.59011846 -850.47859788 2322.82518864 C-854.77620154 2319.07658025 -858.98398619 2315.23199648 -863.1734221 2311.36327457 C-865.31547437 2309.38568617 -867.46346011 2307.41497898 -869.61702561 2305.4499445 C-881.3136698 2294.7125025 -892.49964044 2283.45745358 -903.71297288 2272.22118473 C-906.55461859 2269.37379417 -909.4007995 2266.53098552 -912.24828935 2263.68944073 C-914.47217706 2261.46918544 -916.69365468 2259.24653097 -918.91443467 2257.02316761 C-919.96293697 2255.97400597 -921.012161 2254.92556502 -922.06217027 2253.87791157 C-927.79153334 2248.1586092 -933.33821441 2242.35196902 -938.60359788 2236.20018864 C-939.83314421 2234.85759397 -941.07016253 2233.52169402 -942.32234788 2232.20018864 C-942.94496507 2231.54018864 -943.56758225 2230.88018864 -944.20906663 2230.20018864 C-944.83426194 2229.54018864 -945.45945725 2228.88018864 -946.10359788 2228.20018864 C-951.06015308 2222.96770149 -955.89672373 2217.65876802 -960.60359788 2212.20018864 C-961.33618821 2211.35085758 -961.33618821 2211.35085758 -962.08357835 2210.48436832 C-963.48885521 2208.85032546 -964.89064075 2207.21336352 -966.29109788 2205.57518864 C-967.33270687 2204.35769138 -968.37437529 2203.14024496 -969.41609788 2201.92284489 C-970.20500413 2201.00076237 -970.20500413 2201.00076237 -971.00984788 2200.06005192 C-972.57983476 2198.22791956 -974.15357219 2196.39908387 -975.72859788 2194.57128239 C-981.79223231 2187.52976659 -987.74950675 2180.41769187 -993.60359788 2173.20018864 C-994.61081422 2171.9744381 -995.61866864 2170.74921172 -996.62703538 2169.52440739 C-1002.59781626 2162.25313152 -1008.40943892 2154.89802836 -1014.01302171 2147.33983707 C-1017.21948594 2143.0212043 -1020.49323954 2138.76420872 -1023.81722093 2134.53539371 C-1029.95547163 2126.72604893 -1035.84059661 2118.79380311 -1041.50911546 2110.63768864 C-1043.43108492 2107.87510799 -1045.36416465 2105.12139923 -1047.31673265 2102.38036442 C-1055.22747813 2091.27179891 -1062.86304135 2079.99182006 -1070.41609788 2068.63768864 C-1071.03054765 2067.71477024 -1071.64499742 2066.79185184 -1072.27806687 2065.84096622 C-1112.69450324 2005.08998365 -1148.14779231 1940.88133161 -1177.73048997 1874.16777897 C-1178.57731819 1872.25941117 -1179.42725678 1870.35245752 -1180.27791429 1868.44579411 C-1215.60139893 1789.1481217 -1242.64789999 1705.81402725 -1274.60359788 1552.20018864 C-1274.80955583 1550.98634495 -1274.80955583 1550.98634495 -1275.01967454 1549.74797916 C-1292.2960758 1447.71531132 -1296.60011676 1343.33252951 -1226.60359788 915.20018864 C-1226.33502976 914.38459476 -1226.06646165 913.56900089 -1225.78975511 912.72869205 C-1213.65869792 875.92413184 -1199.98436298 839.77004597 -1184.60359788 804.20018864 C-1184.11858811 803.07854313 -1183.63357835 801.95689762 -1183.13387132 800.80126286 C-1167.93017125 765.8142492 -1151.56144821 731.23621603 -1133.06990647 697.86376286 C-1131.61195658 695.21537236 -1130.17656015 692.55600805 -1128.74812913 689.89159489 C-1120.78879909 675.07370758 -1112.27104838 660.61084567 -1103.60359788 646.20018864 C-1103.00257249 645.19810368 -1102.4015471 644.19601871 -1101.78230882 643.16356754 C-1088.09613809 620.37238708 -1073.74709687 598.05015249 -1058.60359788 576.20018864 C-1058.01336839 575.34586246 -1057.4231389 574.49153629 -1056.81502366 573.61132145 C-1036.45518652 544.16959282 -1014.71941475 515.72177526 -992.07576585 488.00438786 C-990.78088277 486.41745818 -989.4906931 484.82670127 -988.20125413 483.23534489 C-983.13790047 477.00000341 -977.94529224 470.8849675 -972.70125413 464.80175114 C-970.67615669 462.45235887 -968.66335058 460.09343724 -966.66219163 457.72362614 C-960.81503756 450.8152136 -954.80944164 444.09785911 -948.58650804 437.52465153 C-945.77320881 434.54944474 -943.01371813 431.54514775 -940.33333421 428.44921207 C-927.75561464 414.04277778 -914.14197334 400.57706051 -900.60994554 387.0761652 C-898.08096543 384.55295173 -895.55660089 382.02517506 -893.03346848 379.49611568 C-891.05341217 377.51242485 -889.07095494 375.53114714 -887.08778977 373.55056477 C-885.7106958 372.17444259 -884.33558 370.79634172 -882.96053147 369.4181757 C-878.52957396 365.00367549 -874.03863178 360.73199261 -869.29451585 356.65529728 C-867.27005711 354.91316226 -865.32000681 353.103204 -863.38484788 351.26268864 C-862.67973069 350.59495426 -861.9746135 349.92721989 -861.24812913 349.23925114 C-860.54043382 348.56636051 -859.8327385 347.89346989 -859.10359788 347.20018864 C-853.70883068 342.07073786 -848.24601136 337.05654348 -842.60359788 332.20018864 C-842.04333909 331.717757 -841.4830803 331.23532536 -840.90584397 330.73827457 C-839.28645436 329.34799317 -837.66429262 327.96102488 -836.04109788 326.57518864 C-832.2965158 323.37652185 -828.56039577 320.16975822 -824.85750413 316.92284489 C-818.28359555 311.16457683 -811.64136576 305.56859319 -804.7281096 300.22118473 C-800.79858976 297.17251473 -796.99544736 294.00937345 -793.22859788 290.76268864 C-787.95192162 286.23419181 -782.48311145 282.02751134 -776.89485765 277.89183903 C-771.74902452 274.07995243 -766.69977542 270.15859066 -761.66609788 266.20018864 C-754.63112726 260.68912267 -747.44444965 255.45790015 -740.10603929 250.36010075 C-736.53525561 247.86725383 -733.00969715 245.31923804 -729.49655747 242.74607182 C-719.781248 235.6443537 -709.84142505 228.93077508 -699.77229905 222.3430109 C-697.16818656 220.63905533 -694.56821106 218.92893282 -691.96883225 217.21776676 C-676.25429073 206.89012166 -660.43881419 196.73546324 -644.22859788 187.20018864 C-643.07273496 186.51825608 -641.91689233 185.83628914 -640.76106858 185.1542902 C-615.77336234 170.43119472 -590.42252881 156.41376191 -564.60359788 143.20018864 C-563.93975083 142.85989628 -563.27590379 142.51960392 -562.59194016 142.16899967 C-539.6691094 130.42617953 -516.54395311 119.35948541 -492.88362718 109.18200016 C-490.58110867 108.19050448 -488.28066669 107.19431467 -485.980551 106.19725895 C-397.04900179 67.70627089 -303.8168383 39.66893999 -47.8560183 1.35051441 C-45.85699579 1.21710033 -43.858542 1.07522474 -41.86018968 0.93212223 C-27.91368329 0.02911724 -13.9711443 0.01860711 0 0 Z M-39.60359788 75.20018864 C-40.53812791 75.2633527 -41.47265794 75.32651676 -42.43550706 75.39159489 C-138.18716868 81.9659864 -232.91769027 98.7969347 -499.75734544 194.3193903 C-501.64100503 195.2180346 -503.52577163 196.114324 -505.41072679 197.01024723 C-519.47325098 203.69991566 -533.4708743 210.48691397 -547.17488694 217.89013004 C-549.86246681 219.33982381 -552.55718777 220.77577177 -555.25203538 222.21190739 C-569.57094782 229.87235601 -583.637497 237.91586643 -597.60359788 246.20018864 C-598.49063401 246.72499821 -599.37767015 247.24980778 -600.29158616 247.79052067 C-602.83573361 249.29768529 -605.37671882 250.81000557 -607.91609788 252.32518864 C-608.61831468 252.74292545 -609.32053147 253.16066227 -610.04402757 253.59105778 C-624.87995386 262.49761443 -639.38149448 271.94045123 -653.76570725 281.55468082 C-656.232815 283.20300618 -658.70319592 284.84633828 -661.17391038 286.48925114 C-671.77581416 293.55412047 -682.23229006 300.80157184 -692.60359788 308.20018864 C-693.50271897 308.83795231 -694.40184007 309.47571598 -695.32820725 310.13280582 C-705.95876089 317.68170376 -716.30854569 325.54678233 -726.55965257 333.60155582 C-729.5354217 335.92899685 -732.53846487 338.22009801 -735.54109788 340.51268864 C-741.32910162 344.95717833 -746.9777941 349.55314311 -752.60359788 354.20018864 C-754.3949365 355.65892491 -756.18660693 357.1172538 -757.97859788 358.57518864 C-763.6719888 363.23488589 -769.29359723 367.97562762 -774.8946135 372.74559879 C-776.04598646 373.72558166 -777.19835142 374.70440009 -778.35164475 375.68212223 C-785.68800356 381.90181427 -792.89118881 388.23106424 -799.95125413 394.76268864 C-802.07850322 396.71762742 -804.2263204 398.62900909 -806.41609788 400.51268864 C-815.39459708 408.30782916 -824.11538658 416.49369415 -832.38094163 425.04003239 C-834.2809865 426.88664893 -836.22044141 428.60737151 -838.22859788 430.33300114 C-843.266332 434.71001054 -847.95963643 439.40994703 -852.66609788 444.13768864 C-853.52525804 444.99298161 -854.38441819 445.84827457 -855.2696135 446.72948551 C-859.68958918 451.1562144 -863.94345652 455.65309508 -868.01936936 460.3976984 C-870.42078993 463.12996655 -873.00039863 465.6620586 -875.60359788 468.20018864 C-879.44630419 471.99616972 -883.13783431 475.83687622 -886.63875413 479.95409489 C-888.79376888 482.41758093 -891.02227663 484.8002363 -893.26277757 487.18578434 C-898.54806069 492.81324217 -903.59881837 498.52603068 -908.42781663 504.55565739 C-910.73391488 507.35858111 -913.14511319 510.03022139 -915.60359788 512.70018864 C-920.02241707 517.51209297 -924.17593549 522.48288496 -928.27547288 527.56737614 C-929.77791526 529.41449647 -931.29876651 531.24546708 -932.82234788 533.07518864 C-939.85824204 541.53426128 -946.68096488 550.11588015 -953.32234788 558.88768864 C-956.1219972 562.58241815 -958.97147587 566.23551088 -961.83406663 569.88158512 C-969.35566749 579.47141866 -976.55371786 589.25962486 -983.60359788 599.20018864 C-984.1335637 599.94365543 -984.66352952 600.68712223 -985.20955491 601.45311832 C-1000.69854622 623.20600555 -1015.6101554 645.45445296 -1029.60359788 668.20018864 C-1030.24361741 669.23820621 -1030.88363694 670.27622379 -1031.543051 671.34569645 C-1041.24668641 687.10316684 -1050.6496399 703.00192809 -1059.60359788 719.20018864 C-1060.09634202 720.08803043 -1060.58908616 720.97587223 -1061.09676194 721.89061832 C-1069.56517215 737.17166663 -1077.64153838 752.65026565 -1085.60359788 768.20018864 C-1086.1139055 769.19212223 -1086.62421311 770.18405582 -1087.1499846 771.20604801 C-1108.53307346 812.85830288 -1126.56240005 856.23985211 -1142.60359788 900.20018864 C-1143.01515122 901.32560062 -1143.01515122 901.32560062 -1143.43501878 902.47374821 C-1175.57623104 990.4793356 -1197.041329 1081.92993698 -1218.16609788 1297.63768864 C-1218.19736772 1298.86117008 -1218.19736772 1298.86117008 -1218.22926927 1300.10936832 C-1218.61513269 1315.47543953 -1218.80605419 1330.82923401 -1218.60359788 1346.20018864 C-1218.59069718 1347.20940372 -1218.59069718 1347.20940372 -1218.57753587 1348.239007 C-1217.55134749 1425.10741728 -1209.51730074 1501.79077485 -1194.60359788 1577.20018864 C-1194.43471055 1578.05558231 -1194.26582322 1578.91097599 -1194.09181809 1579.79229069 C-1185.14710788 1624.8925062 -1173.60227767 1669.408427 -1159.60359788 1713.20018864 C-1159.18304124 1714.51699619 -1159.18304124 1714.51699619 -1158.7539885 1715.86040592 C-1133.19910977 1795.68120061 -1099.87088266 1873.54981411 -1058.23152757 1946.33837223 C-1056.62348939 1949.16522038 -1055.03603013 1952.00260172 -1053.45516038 1954.84471989 C-1045.25439821 1969.56061668 -1036.54290593 1983.92237599 -1027.60359788 1998.20018864 C-1026.71221116 1999.62911442 -1026.71221116 1999.62911442 -1025.80281663 2001.08690739 C-1016.45149914 2016.05323718 -1006.6255517 2030.6758954 -996.60359788 2045.20018864 C-995.66701341 2046.55853825 -995.66701341 2046.55853825 -994.71150804 2047.94432926 C-976.77694913 2073.89880035 -957.83087365 2099.21218213 -937.77156663 2123.56737614 C-936.33045415 2125.3174839 -934.89550385 2127.07268476 -933.46687913 2128.83300114 C-927.81513884 2135.79367231 -922.00499876 2142.60650856 -916.15193772 2149.39745426 C-914.62519097 2151.17504777 -913.1071808 2152.95970878 -911.59187913 2154.74706364 C-906.15101019 2161.15482329 -900.62183575 2167.45100594 -894.87508225 2173.58715153 C-892.31636135 2176.32225816 -889.81407846 2179.09355035 -887.36067796 2181.92382145 C-874.76840825 2196.33521084 -861.15145902 2209.81385291 -847.60994554 2223.32421207 C-845.08096543 2225.84742554 -842.55660089 2228.37520222 -840.03346848 2230.90426159 C-838.05341217 2232.88795242 -836.07095494 2234.86923013 -834.08778977 2236.84981251 C-832.7106958 2238.22593469 -831.33558 2239.60403555 -829.96053147 2240.98220158 C-825.52520555 2245.40105398 -821.02996032 2249.67780918 -816.28108811 2253.75850773 C-814.3386399 2255.42790076 -812.46265415 2257.15739982 -810.60359788 2258.91893864 C-809.61359788 2259.85286442 -809.61359788 2259.85286442 -808.60359788 2260.80565739 C-807.27026455 2262.06867822 -805.93693121 2263.33169905 -804.60359788 2264.59471989 C-800.03016523 2268.90911045 -795.3650489 2273.09444075 -790.60359788 2277.20018864 C-790.03737718 2277.68858219 -789.47115647 2278.17697575 -788.88777757 2278.68016911 C-787.25373461 2280.08544605 -785.61679018 2281.48725168 -783.97859788 2282.88768864 C-782.76238944 2283.92798003 -781.54624552 2284.96834686 -780.33016038 2286.00878239 C-779.40831956 2286.79744694 -779.40831956 2286.79744694 -778.46785569 2287.60204411 C-776.62190508 2289.18449469 -774.78011378 2290.77165068 -772.93953538 2292.36034489 C-767.15055874 2297.35235672 -761.33962217 2302.28781162 -755.33797288 2307.02440739 C-753.20829084 2308.71902581 -751.09704586 2310.42974536 -748.99422288 2312.15721989 C-740.41920057 2319.19621133 -731.69849332 2325.97570508 -722.78426194 2332.57860661 C-720.44338563 2334.31932542 -718.11245246 2336.07274202 -715.78328538 2337.82909489 C-710.73535345 2341.63557888 -705.67307048 2345.42245172 -700.60359788 2349.20018864 C-699.90669847 2349.72129215 -699.20979905 2350.24239567 -698.49178147 2350.7792902 C-684.58328825 2361.14194897 -670.08540994 2370.64441723 -655.62477708 2380.21083927 C-652.27748009 2382.42545484 -648.93403371 2384.64542445 -645.59944749 2386.87914371 C-638.64672129 2391.53625744 -631.67240547 2396.13117722 -624.54109788 2400.51268864 C-623.66389085 2401.05336979 -622.78668382 2401.59405094 -621.88289475 2402.15111637 C-611.8681318 2408.30017372 -601.75836758 2414.28575119 -591.60359788 2420.20018864 C-590.74830491 2420.69873356 -589.89301194 2421.19727848 -589.011801 2421.71093082 C-519.89375019 2461.88414273 -447.13198294 2495.04169124 -371.60359788 2521.20018864 C-370.88248826 2521.45073002 -370.16137864 2521.7012714 -369.41841722 2521.95940495 C-274.4068904 2554.9378483 -174.82198341 2576.61826102 5.20890212 2589.76268864 C5.99732497 2589.78353519 6.78574782 2589.80438175 7.59806228 2589.82586002 C100.06945778 2592.22174342 192.42478489 2584.12522397 418.85569167 2532.01732731 C421.44084094 2531.1858963 424.02768091 2530.35987887 426.61466384 2529.53417301 C463.90371164 2517.59552698 500.47421645 2503.77050416 536.39640212 2488.20018864 C537.49242751 2487.72726383 538.5884529 2487.25433903 539.71769118 2486.76708317 C578.87491519 2469.8130762 617.4942209 2451.25368524 654.45011306 2429.89403629 C657.68528465 2428.03410751 660.93419277 2426.19978923 664.18546462 2424.36815739 C678.53598087 2416.27115718 692.64495849 2407.86389564 706.54679275 2399.01171207 C709.36017691 2397.22321734 712.18177492 2395.44842222 715.00577712 2393.67675114 C733.88761326 2381.79799043 752.25073767 2369.17097841 770.39640212 2356.20018864 C771.14405837 2355.66651676 771.89171462 2355.13284489 772.66202712 2354.58300114 C782.38599141 2347.63265082 791.9631812 2340.53981206 801.39640212 2333.20018864 C802.9669371 2332.00265572 804.53748038 2330.80513322 806.10880446 2329.6086359 C813.08002838 2324.28927508 819.88752777 2318.77930687 826.67765212 2313.23143864 C829.62751604 2310.82169065 832.5982029 2308.44048282 835.58390212 2306.07518864 C839.96775323 2302.58134757 844.24392348 2298.96946962 848.51041579 2295.33422184 C851.93141983 2292.42338074 855.39453654 2289.57641469 858.89640212 2286.76268864 C864.27926149 2282.38567744 869.33911554 2277.70464737 874.40812087 2272.97362614 C876.69998622 2270.83664549 879.02398969 2268.74795515 881.39640212 2266.70018864 C885.9290182 2262.77318305 890.3217649 2258.69618114 894.7147615 2254.61473942 C897.00936 2252.48405031 899.30974061 2250.36003012 901.6168611 2248.24291325 C911.89108128 2238.77735088 921.79492038 2228.95512107 931.66056228 2219.06639957 C934.41641567 2216.3051358 937.1776424 2213.54932504 939.93937087 2210.79393864 C941.71703571 2209.01561371 943.49439071 2207.236979 945.27140212 2205.45800114 C946.08504226 2204.64638523 946.89868239 2203.83476933 947.73697829 2202.998559 C951.95519116 2198.76312062 956.01291094 2194.44969564 959.91300368 2189.9193964 C961.66643173 2187.88723361 963.48426499 2185.9261884 965.33390212 2183.98143864 C966.0016365 2183.27632145 966.66937087 2182.57120426 967.35733962 2181.84471989 C968.71671462 2180.41503239 970.07608962 2178.98534489 971.43546462 2177.55565739 C975.8746278 2172.86796963 980.18404597 2168.09252681 984.39640212 2163.20018864 C985.12802566 2162.35182438 985.12802566 2162.35182438 985.87442946 2161.48632145 C987.28046314 2159.85171593 988.68292594 2158.21413025 990.08390212 2156.57518864 C993.19663853 2152.93389294 996.31075667 2149.29430145 999.45108962 2145.67675114 C1004.83645782 2139.46058234 1010.06639878 2133.16471176 1015.10709548 2126.66552067 C1018.82025414 2121.890986 1022.65754573 2117.2282297 1026.52140212 2112.57518864 C1031.56723666 2106.48033388 1036.46056411 2100.31360058 1041.13273025 2093.92479801 C1042.61481284 2091.90211033 1044.10700286 2089.88705847 1045.59952712 2087.87206364 C1062.66312873 2064.81352954 1079.62106216 2041.63049047 1094.99503493 2017.39940739 C1096.48934322 2015.05433263 1098.00047848 2012.72067124 1099.51358962 2010.38768864 C1119.63425439 1979.23844354 1138.02866992 1946.95158305 1155.39640212 1914.20018864 C1155.98211989 1913.09868473 1156.56783767 1911.99718082 1157.17130446 1910.86229801 C1165.5846014 1894.99762209 1173.39836817 1878.9262417 1180.84366775 1862.58641911 C1182.32530571 1859.35523695 1183.83176757 1856.13719214 1185.34952712 1852.92284489 C1227.4614523 1763.49399156 1257.14505639 1667.29603232 1293.64640212 1440.51268864 C1293.72362502 1439.65108128 1293.80084792 1438.78947392 1293.88041091 1437.90175724 C1294.45998283 1431.3394081 1294.94699886 1424.77265885 1295.39640212 1418.20018864 C1295.48360518 1416.94601139 1295.57080825 1415.69183414 1295.66065383 1414.39965153 C1297.44660641 1388.20700108 1297.7594553 1362.05756365 1297.71425796 1335.8106432 C1297.70882196 1332.5267637 1297.70645175 1329.24289141 1297.70438552 1325.95900822 C1297.67418747 1295.16284276 1297.34092218 1264.50303816 1294.62424636 1233.80669498 C1294.39167897 1231.14615641 1294.17325534 1228.48477238 1293.95841384 1225.82274723 C1286.10713083 1129.18968051 1266.5942495 1033.40089422 1146.02237868 731.13134098 C1144.25011996 727.9364854 1142.49093173 724.73461704 1140.73233962 721.53221989 C1109.66773509 665.09885124 1073.81061692 610.90532368 1034.00431228 560.24901676 C1032.51910109 558.35653388 1031.04041254 556.45920151 1029.56437087 554.55956364 C1019.29778476 541.37271243 1008.61102763 528.52196666 997.76603103 515.80809879 C996.33054791 514.12287744 994.90051722 512.43312055 993.47062087 510.74315739 C987.49163149 503.69812402 981.35442579 496.83614978 975.05655837 490.07518864 C973.00218718 487.85489907 970.99303563 485.61801557 969.02140212 483.32518864 C960.8898451 473.94718857 952.27731097 464.98775646 943.44669509 456.26976871 C940.20803526 453.05785212 937.19261405 449.72837578 934.23233962 446.26268864 C929.0941616 440.49043759 923.54174446 434.94645916 917.64640212 429.95018864 C913.50380571 426.42384623 909.72173707 422.56236395 905.89640212 418.70018864 C901.56593193 414.33234597 897.2506026 410.03874747 892.54874587 406.06737614 C889.42452666 403.35707344 886.41849905 400.52336473 883.39640212 397.70018864 C878.47038623 393.10905682 873.51298403 388.57924523 868.39640212 384.20018864 C867.35071211 383.30058514 866.30515143 382.4008313 865.25968337 381.50096989 C862.24337686 378.90735207 859.22088319 376.32106398 856.19571853 373.73778629 C855.03557952 372.74639478 853.87633117 371.75395959 852.71817946 370.76024723 C846.20269204 365.17022176 839.60125449 359.72780591 832.82462478 354.45678043 C829.08415772 351.54314808 825.39616061 348.57497265 821.73429275 345.56322575 C811.86124005 337.44988505 801.66585069 329.80219649 791.39640212 322.20018864 C789.76355212 320.98669742 788.13073905 319.77315652 786.49796462 318.55956364 C784.90194904 317.37681494 783.30560748 316.19450597 781.70890212 315.01268864 C781.02271804 314.50358952 780.33653396 313.99449039 779.62955642 313.46996403 C765.86288779 303.32134651 751.76576543 293.66225988 737.52140212 284.20018864 C736.34002166 283.41431873 736.34002166 283.41431873 735.13477492 282.61257267 C723.65624063 274.97973013 712.16802205 267.3763539 700.39640212 260.20018864 C699.45361403 259.62542789 698.51082595 259.05066715 697.53946853 258.45848942 C668.74834422 240.96014149 639.38432009 224.55705873 609.39640212 209.20018864 C608.7617604 208.87449894 608.12711867 208.54880924 607.47324538 208.21325016 C585.13433287 196.75494319 562.55920462 186.0374178 539.50003982 176.10649967 C537.46671644 175.23048218 535.4348586 174.35114272 533.40323806 173.47118473 C512.32874058 164.36090687 490.94409538 156.11933654 469.39640212 148.20018864 C468.32549331 147.80573551 468.32549331 147.80573551 467.23294997 147.40331364 C381.0512416 115.69696902 290.78876225 94.43068787 118.39640212 75.20018864 C117.49951674 75.13853519 116.60263137 75.07688175 115.67856765 75.01336002 C64.22573795 71.53923045 11.84103203 71.71602944 -39.60359788 75.20018864 Z " fill="#FFFFFF" transform="translate(1304.6035978794098,-0.20018863677978516)"/>
<path d="M0 0 C0.3746332 10.28643647 0.74855221 20.57289865 1.12164211 30.85939121 C1.29504007 35.63958989 1.46865359 40.41978051 1.64282227 45.19995117 C2.47818914 68.13184134 3.28735085 91.0639284 4 114 C-0.45754234 114.79216367 -4.54133026 115.08844871 -9.07421875 114.984375 C-9.74693314 114.96914795 -10.41964752 114.9539209 -11.11274719 114.93823242 C-13.3046743 114.88425141 -15.49599249 114.81887867 -17.6875 114.75 C-18.44264893 114.72699829 -19.19779785 114.70399658 -19.97583008 114.68029785 C-57.31477646 113.48921578 -104.49735785 110.24424422 -135 86 C-135.66644531 85.50757813 -136.33289062 85.01515625 -137.01953125 84.5078125 C-141.41692726 81.08247245 -144.46398209 77.43590755 -146 72 C-146.7789928 64.57270658 -143.32626615 58.77132825 -139 53 C-128.1582469 39.73003501 -112.19351601 30.8972452 -96.8203125 23.84082031 C-95.15953689 23.07369166 -93.51614856 22.26920317 -91.875 21.4609375 C-65.44888527 9.10672886 -29.30560237 0 0 0 Z " fill="#FFFFFF" transform="translate(1318,1907)"/>
<path d="M0 0 C3.6488958 0.46358563 7.29714748 0.93206812 10.9453125 1.40136719 C11.96794189 1.53123016 12.99057129 1.66109314 14.04418945 1.79489136 C22.78024425 2.92264454 31.38446776 4.42954581 40 6.25 C40.71548004 6.39895721 41.43096008 6.54791443 42.16812134 6.7013855 C77.02186451 13.99420603 119.44856564 26.53406115 141.5859375 56.75 C144.84128347 61.92977702 146.55772052 66.55682863 145.5 72.6875 C142.5819645 82.66752675 133.00473407 88.23103494 124.39453125 93.078125 C100.77151105 105.77896524 73.37190843 110.18013066 47 113 C46.17282471 113.0913623 45.34564941 113.18272461 44.4934082 113.27685547 C36.66925166 114.07102843 28.83017073 114.33084093 20.97338867 114.55761719 C18.67405046 114.62539646 16.37517864 114.70311063 14.07617188 114.78125 C12.59637229 114.82612242 11.11655495 114.87041403 9.63671875 114.9140625 C8.95848557 114.93796051 8.28025238 114.96185852 7.58146667 114.98648071 C3.5811159 115.09114223 -0.07045933 114.70513752 -4 114 C-4.18459349 101.86416853 -3.62045216 89.7594335 -3.125 77.63671875 C-3.03509329 75.39086291 -2.94541606 73.14499787 -2.85595703 70.89912415 C-2.62150545 65.02852178 -2.38396502 59.15804844 -2.14575195 53.28759766 C-1.90257152 47.28100018 -1.66235284 41.2742843 -1.421875 35.26757812 C-0.95079354 23.5116019 -0.47644448 11.75576001 0 0 Z " fill="#FFFFFF" transform="translate(1371,1907)"/>
<path d="M0 0 C1.63256048 20.93574648 2.43983772 41.82145193 2.88671875 62.81201172 C3.00641183 68.38669023 3.14283126 73.96091527 3.28125 79.53515625 C3.30485092 80.48636856 3.32845184 81.43758087 3.35276794 82.4176178 C3.39969569 84.30798398 3.4466467 86.19834959 3.49362183 88.0887146 C3.60303726 92.51482835 3.70986374 96.94100379 3.81640625 101.3671875 C3.83509766 102.14332901 3.85378906 102.91947052 3.87304688 103.71913147 C3.91541004 105.47941989 3.95771279 107.23970976 4 109 C3.31715439 109.02061493 2.63430878 109.04122986 1.93077087 109.06246948 C-6.73390813 109.32531152 -15.39829791 109.59691889 -24.0625 109.875 C-24.75051319 109.89704247 -25.43852638 109.91908493 -26.14738846 109.94179535 C-43.40726242 110.49676464 -60.65581945 111.06268862 -77.87719727 112.39013672 C-88.31968404 113.18668586 -98.70206959 113.40552265 -109.125 112.25 C-110.31307251 112.11911987 -110.31307251 112.11911987 -111.52514648 111.9855957 C-124.07815706 110.49575253 -137.11055617 108.83039665 -148 102 C-148.83112756 94.86285697 -143.15516636 89.33913943 -139 84 C-136.13369048 80.52706413 -133.1181003 77.24737478 -130 74 C-129.19175781 73.12859375 -128.38351562 72.2571875 -127.55078125 71.359375 C-108.21164458 51.12410494 -82.53822436 37.82782238 -58 25 C-57.1023291 24.52852539 -56.2046582 24.05705078 -55.27978516 23.57128906 C-10.13633339 0 -10.13633339 0 0 0 Z " fill="#FFFFFF" transform="translate(1313,1758)"/>
<path d="M0 0 C4.22218129 0.65104048 7.70774911 1.55224022 11.61328125 3.30078125 C13.21852661 4.01512329 13.21852661 4.01512329 14.85620117 4.74389648 C16.56706909 5.52035522 16.56706909 5.52035522 18.3125 6.3125 C19.50657471 6.85011963 20.70064941 7.38773926 21.9309082 7.94165039 C59.66742364 24.98609365 97.72758189 43.19376739 128 72 C128.71929688 72.65484375 129.43859375 73.3096875 130.1796875 73.984375 C136.05634058 79.50701284 147.74430022 91.50245464 148.125 99.6875 C148.08375 100.450625 148.0425 101.21375 148 102 C136.4683328 109.23323084 122.41323517 110.78614498 109.125 112.25 C108.4019165 112.33016357 107.67883301 112.41032715 106.93383789 112.49291992 C96.07616977 113.54177578 85.28566159 112.9611916 74.4375 112.125 C57.66515092 110.92674206 40.86612399 110.41335203 24.0625 109.875 C23.37070019 109.8527964 22.67890038 109.8305928 21.96613693 109.80771637 C13.3110033 109.5304621 4.65562984 109.26131119 -4 109 C-3.62226666 82.37084298 -2.71933644 55.78659205 -1.4375 29.1875 C-1.40248257 28.46072052 -1.36746513 27.73394104 -1.33138657 26.98513794 C-0.89709346 17.98961821 -0.45319144 8.99458857 0 0 Z " fill="#FFFFFF" transform="translate(1376,1758)"/>
</svg>
