<?xml version="1.0" encoding="UTF-8"?>
<svg version="1.1" xmlns="http://www.w3.org/2000/svg" width="2669" height="2663">
<path d="M0 0 C-1.25935832 3.24635381 -2.63431638 6.36304623 -4.21484375 9.46484375 C-21.32723334 43.6768976 -31.95275912 80.27847742 -38 118 C-38.10654907 118.65560913 -38.21309814 119.31121826 -38.32287598 119.98669434 C-44.5930094 159.03634563 -44.9018265 200.90259723 -39 240 C-38.83902832 241.13550293 -38.67805664 242.27100586 -38.51220703 243.44091797 C-30.98563193 295.6208339 -13.45266269 344.96092914 10 392 C10.44811035 392.90024902 10.8962207 393.80049805 11.35791016 394.72802734 C21.15108005 414.25268358 32.70358551 432.73568805 44.23046875 451.26879883 C50.31911514 461.08190296 56.1820969 471.02455428 62 481 C62.59039063 482.01191406 63.18078125 483.02382813 63.7890625 484.06640625 C82.17960135 515.64335274 99.37799312 547.71854209 115.75 580.375 C116.09465302 581.06153656 116.43930603 581.74807312 116.79440308 582.45541382 C117.77680095 584.41439586 118.75613987 586.374874 119.734375 588.3359375 C120.29350586 589.45532715 120.85263672 590.5747168 121.42871094 591.72802734 C123.05640719 595.11745948 124.54345798 598.53426418 126 602 C128.00707368 599.41963113 129.71123896 596.85926686 131.2421875 593.97265625 C131.66177734 593.19116211 132.08136719 592.40966797 132.51367188 591.60449219 C133.1875293 590.34620605 133.1875293 590.34620605 133.875 589.0625 C155.10035435 550.00612935 182.12819079 514.17887721 212.41308594 481.70458984 C213.55461978 480.47840687 214.69290608 479.2491976 215.82910156 478.01806641 C224.03243685 469.13009801 232.3626602 460.55577728 241.3671875 452.47998047 C243.10717018 450.902861 244.82129837 449.30101957 246.53125 447.69140625 C252.60314111 441.97678227 258.72748197 436.4441325 265.2421875 431.23046875 C267.72747153 429.22041609 270.15834504 427.15829018 272.57885742 425.07104492 C293.63771107 406.9589606 317.23766299 389.67532154 342 377 C340.74380523 380.50763563 339.34298616 383.04300921 336.9375 385.875 C304.62303408 426.5200143 301.34723208 483.58367587 306.52807617 533.17041016 C311.22343322 573.99982418 321.02109416 614.03696677 334 653 C334.43314678 654.31802269 334.86574652 655.63622526 335.29785156 656.95458984 C357.7649182 725.34367667 388.56450189 790.37061317 420.75146484 854.63330078 C422.43023085 857.98507972 424.10529394 861.33869443 425.77947712 864.69276428 C432.68286113 878.51949882 439.636487 892.3126005 446.90875244 905.95013428 C448.3486155 908.65486053 449.77522124 911.3664768 451.20193481 914.07815552 C458.39525576 927.74311407 465.66684947 941.34694391 473.32519531 954.75854492 C478.29352695 963.46866103 483.06525486 972.27936444 487.81640625 981.109375 C489.86061357 984.90567123 491.92894481 988.68652281 494.02734375 992.453125 C512.76401003 1026.14595663 527.6683167 1061.5036772 540 1098 C540.38494629 1099.13566406 540.76989258 1100.27132813 541.16650391 1101.44140625 C557.06254148 1148.69665662 566.99641054 1197.39468863 572.25 1246.9375 C572.33326538 1247.72061554 572.41653076 1248.50373108 572.50231934 1249.31057739 C574.20068487 1265.48795735 575.15432668 1281.58673281 575.203125 1297.85546875 C575.21015138 1299.31961597 575.21723816 1300.78376289 575.22438049 1302.24790955 C575.24374788 1306.8944443 575.24881427 1311.54092894 575.25 1316.1875 C575.25044186 1316.98007957 575.25088371 1317.77265915 575.25133896 1318.58925629 C575.25842609 1342.84494749 574.90270222 1366.89140705 572 1391 C571.8211009 1392.53448328 571.64239558 1394.06898917 571.46386719 1395.60351562 C565.90877103 1442.71178744 555.8327189 1488.94327808 541 1534 C540.66708954 1535.01163208 540.66708954 1535.01163208 540.32745361 1536.04370117 C529.9629912 1567.39379042 516.76868174 1597.49251536 502 1627 C501.47083984 1628.06621582 500.94167969 1629.13243164 500.39648438 1630.23095703 C492.37062296 1646.34015022 483.36319708 1661.71271498 473.87109375 1676.98486328 C472.2963602 1679.52243626 470.73665653 1682.0678757 469.1875 1684.62109375 C454.97729793 1707.92434521 438.47439633 1730.05523424 421 1751 C420.50870605 1751.59039063 420.01741211 1752.18078125 419.51123047 1752.7890625 C414.14302159 1759.22730427 408.6662928 1765.55397752 403.02734375 1771.7578125 C401.26032801 1773.71208424 399.53086471 1775.69059737 397.8125 1777.6875 C389.1169244 1787.63380907 379.94873001 1797.14442204 370.625 1806.5 C369.88854248 1807.2410498 369.15208496 1807.98209961 368.39331055 1808.74560547 C364.34498003 1812.78253224 360.20184654 1816.6421592 355.87109375 1820.37402344 C353.07590938 1822.80303282 350.38803532 1825.34196948 347.6875 1827.875 C342.86417577 1832.36189457 337.91844022 1836.62289013 332.77734375 1840.74609375 C330.35212269 1842.7142408 327.98220324 1844.73302157 325.62231445 1846.77856445 C316.46257321 1854.68527489 306.73830181 1861.8282058 297 1869 C295.86836426 1869.83966309 295.86836426 1869.83966309 294.71386719 1870.69628906 C268.38192498 1890.21925825 240.32967455 1907.29518751 211.41650391 1922.70361328 C209.27023276 1923.85502769 207.1386759 1925.02827111 205.01171875 1926.21484375 C181.43901985 1939.23796709 156.1892143 1949.58984022 131 1959 C129.32623291 1959.63131836 129.32623291 1959.63131836 127.61865234 1960.27539062 C64.83855953 1983.83488935 -1.21992666 1996.50881971 -68 2001 C-69.06395996 2001.07202637 -70.12791992 2001.14405273 -71.22412109 2001.21826172 C-139.56803595 2005.58458199 -208.56952234 1998.08050993 -275 1982 C-275.65381653 1981.84229126 -276.30763306 1981.68458252 -276.98126221 1981.52209473 C-318.24301595 1971.52677593 -358.51392213 1956.83613908 -397 1939 C-398.0513916 1938.51418457 -399.1027832 1938.02836914 -400.18603516 1937.52783203 C-441.84243558 1918.17696963 -481.21104372 1894.48644184 -518 1867 C-518.57814453 1866.56816406 -519.15628906 1866.13632813 -519.75195312 1865.69140625 C-537.22591934 1852.57060355 -554.0803963 1838.54343571 -570.0859375 1823.66796875 C-572.27276546 1821.66581929 -574.48002767 1819.71702158 -576.72485352 1817.78222656 C-580.74230563 1814.27113294 -584.55087541 1810.59433436 -588.31640625 1806.81640625 C-588.97656235 1806.15720688 -589.63671844 1805.49800751 -590.31687927 1804.8188324 C-591.70035506 1803.43603165 -593.08259083 1802.05198924 -594.46362305 1800.66674805 C-596.55731669 1798.56769657 -598.65629874 1796.4740406 -600.75585938 1794.38085938 C-602.10969571 1793.02636214 -603.46322175 1791.67155469 -604.81640625 1790.31640625 C-605.43326797 1789.70156876 -606.0501297 1789.08673126 -606.6856842 1788.45326233 C-610.4431644 1784.67585226 -614.01273245 1780.7792348 -617.49317932 1776.74493408 C-619.41317364 1774.52153512 -621.3929561 1772.35559783 -623.375 1770.1875 C-627.19914478 1765.9455915 -630.84889455 1761.59448903 -634.4375 1757.15234375 C-636.33020913 1754.81140119 -638.25250175 1752.49750788 -640.1875 1750.19140625 C-648.90713539 1739.77185612 -657.08531455 1729.04169287 -665 1718 C-665.5775 1717.19691406 -666.155 1716.39382813 -666.75 1715.56640625 C-719.64000618 1641.78012531 -757.3056746 1557.56437955 -793 1358 C-793.08459473 1356.58267578 -793.08459473 1356.58267578 -793.17089844 1355.13671875 C-797.99700246 1271.63655207 -787.25647131 1187.01356664 -738 1045 C-737.33218506 1043.47608643 -737.33218506 1043.47608643 -736.65087891 1041.92138672 C-725.93244559 1017.63923438 -713.9478773 993.99834993 -700.71289062 970.99804688 C-683.92003546 941.60576332 -668.29837598 911.54077782 -652.78808594 881.45849609 C-651.24831289 878.48028404 -649.70116733 875.50615358 -648.14985657 872.53395081 C-630.06908243 837.87948355 -612.68254167 802.81926177 -596.90576172 767.05114746 C-595.96629447 764.92367197 -595.02249388 762.79815539 -594.078125 760.67285156 C-571.02134588 708.70561234 -550.47907398 655.3108019 -537 600 C-536.70061523 598.77925781 -536.40123047 597.55851563 -536.09277344 596.30078125 C-530.36285262 572.59167147 -525.8388575 548.34559236 -524 524 C-523.94360352 523.25395508 -523.88720703 522.50791016 -523.82910156 521.73925781 C-523.45186964 516.49595737 -523.18206146 511.25360352 -523 506 C-522.97663574 505.32855957 -522.95327148 504.65711914 -522.92919922 503.96533203 C-521.66970189 460.77198241 -530.94615423 416.49365336 -558 382 C-558.66 381.34 -559.32 380.68 -560 380 C-559.67 379.01 -559.34 378.02 -559 377 C-544.57734892 385.80527272 -530.52982176 394.87364272 -517 405 C-515.90676485 405.80798874 -514.81305303 406.61533314 -513.71875 407.421875 C-498.05655585 419.04487171 -483.04104816 431.33517589 -468.6953125 444.55078125 C-467.29061918 445.82721997 -465.8815202 447.09997136 -464.4309082 448.32397461 C-457.57793584 454.13786145 -451.3035061 460.54611103 -444.96362305 466.90600586 C-442.94235732 468.9326298 -440.91580426 470.95385547 -438.88867188 472.97460938 C-432.71375818 479.14600514 -426.61687358 485.30892949 -421 492 C-419.95566593 493.19233449 -418.90876775 494.3824278 -417.859375 495.5703125 C-411.1049516 503.27509625 -404.57947678 511.10568567 -398.35058594 519.24169922 C-397.02849371 520.96290461 -395.69086364 522.67107588 -394.3515625 524.37890625 C-378.17583935 545.23753004 -364.09879703 567.70158926 -351.28662109 590.7487793 C-350.26197961 592.54161025 -349.14544355 594.28183468 -348 596 C-348.11593506 594.71125977 -348.23187012 593.42251953 -348.35131836 592.09472656 C-348.7895109 587.21193581 -349.22248251 582.32869264 -349.65405273 577.4453125 C-349.83985207 575.35078902 -350.02697897 573.25638278 -350.21557617 571.16210938 C-352.31657845 547.81016939 -353.20754788 524.70007732 -353.1875 501.25 C-353.18689575 499.94297119 -353.1862915 498.63594238 -353.18566895 497.28930664 C-353.16119536 477.77610197 -352.89053116 458.43188622 -351 439 C-350.93683594 438.33208435 -350.87367188 437.6641687 -350.80859375 436.97601318 C-344.64957362 371.94589347 -329.65659661 307.94986281 -301 249 C-300.26499268 247.47656982 -300.26499268 247.47656982 -299.51513672 245.92236328 C-280.90396678 207.48560119 -257.04804205 172.07039256 -228.265625 140.51171875 C-227.01081201 139.12060711 -225.76283051 137.7228845 -224.54467773 136.29956055 C-219.48649322 130.40417984 -214.06520261 124.91673693 -208.5625 119.4375 C-207.65951172 118.53064453 -206.75652344 117.62378906 -205.82617188 116.68945312 C-200.71201785 111.58270555 -195.49649239 106.69044984 -190 102 C-188.95156277 101.07468376 -187.9046104 100.1476815 -186.859375 99.21875 C-177.00646949 90.56271987 -166.56755709 82.75656003 -156 75 C-155.37125977 74.53352051 -154.74251953 74.06704102 -154.09472656 73.58642578 C-116.95648708 46.03464002 -49.12366688 0 0 0 Z M-164 752 C-165.04414062 752.90492188 -165.04414062 752.90492188 -166.109375 753.828125 C-178.28943615 765.06399536 -184.4642416 780.43143284 -185.9375 796.6875 C-186.34703721 808.15454187 -183.97049758 818.30278564 -180 829 C-188.0759537 822.29867672 -195.17177252 815.60122942 -200.875 806.75 C-215.19000434 784.56729173 -236.54285819 762.94015592 -263 757 C-285.6755221 752.91097142 -307.26979348 759.14687359 -326 772 C-329.45253021 774.53921553 -332.73965425 777.21990157 -336 780 C-336.79792969 780.64066406 -337.59585938 781.28132813 -338.41796875 781.94140625 C-354.93196361 795.777456 -367.46086734 816.35018095 -371.18359375 837.55859375 C-373.01973845 847.87501556 -375.96533298 856.91618908 -380.625 866.3125 C-381.15770508 867.40119385 -381.69041016 868.4898877 -382.23925781 869.61157227 C-390.5446834 886.38061017 -400.37502909 900.17060256 -413 914 C-414.54213635 915.7287478 -416.08380762 917.45791059 -417.625 919.1875 C-422.98030939 925.12753121 -428.51739521 930.64432844 -434.578125 935.859375 C-437.09605398 938.08489933 -439.54717799 940.37040803 -441.99682617 942.67041016 C-447.65026743 947.97797058 -453.38612599 953.05890079 -459.4453125 957.90625 C-461.92737309 959.94047703 -464.27466703 962.06585219 -466.625 964.25 C-489.30085182 984.84484011 -516.4021106 1001.54446428 -543.88574219 1014.85668945 C-552.0359912 1018.81079326 -559.35840833 1022.71420789 -566 1029 C-566.6496875 1029.58394531 -567.299375 1030.16789062 -567.96875 1030.76953125 C-572.16493522 1034.7079 -575.18026388 1038.99724236 -578 1044 C-556.85393227 1058.51200726 -529.85133626 1060.15012091 -505 1061 C-504.1327832 1061.03013184 -503.26556641 1061.06026367 -502.37207031 1061.09130859 C-473.89017288 1061.94696453 -452.48363047 1053.11182034 -427.47338867 1040.21166992 C-425 1039 -425 1039 -422 1038 C-423.65915364 1039.26991576 -425.31836182 1040.5397603 -426.9777832 1041.80932617 C-428.4752334 1042.95503854 -429.97245959 1044.10104373 -431.46948242 1045.24731445 C-435.76530183 1048.53446269 -440.06835856 1051.81155872 -444.3828125 1055.07421875 C-449.60634646 1059.02647847 -454.81060015 1063.00303944 -460 1067 C-460.65500488 1067.50192871 -461.31000977 1068.00385742 -461.98486328 1068.52099609 C-469.26830656 1074.14390276 -477.2344581 1080.47029743 -479.73828125 1089.73046875 C-479.82464844 1090.47941406 -479.91101563 1091.22835938 -480 1092 C-477.50779679 1094.49220321 -470.50796913 1093.43352728 -467.03540039 1093.45532227 C-455.84822632 1093.26894663 -445.6009915 1090.36713343 -435 1087 C-433.67838867 1086.58306885 -433.67838867 1086.58306885 -432.33007812 1086.15771484 C-416.24792878 1080.99363867 -400.61728655 1074.49991993 -386 1066 C-386.3403125 1066.42667969 -386.680625 1066.85335938 -387.03125 1067.29296875 C-397.24394939 1080.40987394 -397.24394939 1080.40987394 -402 1096 C-401.57463514 1098.17844964 -401.57463514 1098.17844964 -401 1100 C-373.3008095 1102.19641158 -341.21763013 1085.83299536 -320 1069 C-315.24077312 1064.83003894 -310.85094109 1060.27862967 -306.4375 1055.75 C-305.27888231 1054.57984973 -304.11938004 1053.41057464 -302.95898438 1052.2421875 C-301.84556427 1051.11536329 -300.73290502 1049.98778665 -299.62109375 1048.859375 C-299.11380234 1048.34469666 -298.60651093 1047.83001831 -298.08384705 1047.29974365 C-295.1954711 1044.33385414 -292.53101198 1041.27573593 -290 1038 C-292.03870748 1045.27119188 -294.5654812 1052.24447726 -297.375 1059.25 C-298.17317872 1061.27031875 -298.97005724 1063.29115167 -299.765625 1065.3125 C-300.14783203 1066.28316406 -300.53003906 1067.25382812 -300.92382812 1068.25390625 C-302.3560545 1071.90855287 -303.76016277 1075.56954007 -305.125 1079.25 C-305.51945312 1080.30703125 -305.91390625 1081.3640625 -306.3203125 1082.453125 C-307.27482727 1085.09243486 -307.27482727 1085.09243486 -306 1088 C-289.53946834 1085.84359847 -276.20797505 1071.38514311 -266.44189453 1058.88525391 C-254.2627105 1042.96116669 -243.01183115 1026.36874272 -233 1009 C-232.53835449 1008.20770996 -232.07670898 1007.41541992 -231.60107422 1006.59912109 C-216.26508689 980.11152833 -206.88818062 952.66605297 -201.73510742 922.56469727 C-201.45824097 920.99933228 -201.45824097 920.99933228 -201.17578125 919.40234375 C-201.02020752 918.47929443 -200.86463379 917.55624512 -200.7043457 916.60522461 C-198.30877714 907.74452717 -190.74504614 901.37934627 -183.5625 896.25 C-182.61793945 895.54810547 -182.61793945 895.54810547 -181.65429688 894.83203125 C-174.88510279 889.92036525 -168.25638445 887.59740219 -160.0625 886.3125 C-159.28326172 886.18294922 -158.50402344 886.05339844 -157.70117188 885.91992188 C-155.80207832 885.6053481 -153.90120644 885.30154118 -152 885 C-154.55805043 893.38723615 -157.32223358 901.00055317 -161.703125 908.64453125 C-164.93313979 914.51109426 -165.4946736 919.5536946 -164 926 C-162.46392204 930.21161303 -160.63945719 934.28272347 -158.8125 938.375 C-135.01494436 993.4006202 -139.08494093 1051.70894131 -151.98046875 1109.2734375 C-152.14412933 1110.01341476 -152.30778992 1110.75339203 -152.47640991 1111.51579285 C-153.23545223 1114.91847194 -154.0306703 1118.29795788 -154.90332031 1121.67407227 C-156.82361406 1129.86535879 -157.09582985 1137.293032 -156.70336914 1145.65673828 C-156.65432938 1146.82046243 -156.60528961 1147.98418657 -156.55476379 1149.18317509 C-155.86641476 1164.94767785 -154.98655281 1180.70366749 -154.1141758 1196.45882869 C-153.8661904 1200.94533203 -153.62072814 1205.4319736 -153.37487793 1209.91859436 C-152.96301794 1217.42783737 -152.54925822 1224.93697377 -152.13427734 1232.44604492 C-151.65634486 1241.09460112 -151.18135738 1249.74331529 -150.70793295 1258.39211935 C-150.24874398 1266.77982234 -149.78761906 1275.1674178 -149.32557678 1283.55496407 C-149.13042405 1287.09806657 -148.93591081 1290.64120329 -148.7419281 1294.18437004 C-148.51366365 1298.3519318 -148.28368343 1302.51939559 -148.05242729 1306.68679237 C-147.96840782 1308.20560914 -147.88494964 1309.72445709 -147.80212593 1311.24333954 C-147.33286421 1319.84147337 -146.77444943 1328.42320258 -146 1337 C-336.09298979 1286.6269337 -336.09298979 1286.6269337 -393 1259 C-393.85787109 1258.58476074 -394.71574219 1258.16952148 -395.59960938 1257.74169922 C-415.66187471 1247.91735223 -430.94275052 1233.84833745 -440.234375 1213.265625 C-441.74015852 1208.80973499 -441.40988569 1205.12179241 -439.8125 1200.75 C-437.6911324 1197.5313733 -436.60597575 1196.38101199 -433 1195 C-420.29936871 1192.93837448 -405.87119697 1199.00082172 -393.875 1202.5625 C-363.21402079 1211.64094395 -337.34624519 1212.09861091 -308.69921875 1197.0703125 C-303.86112412 1194.43271033 -299.36561664 1191.35816664 -295 1188 C-296.41480321 1186.34364503 -297.83112459 1184.68856918 -299.25390625 1183.0390625 C-300.33719279 1181.77401647 -301.40973405 1180.49957814 -302.46484375 1179.2109375 C-320.27432059 1157.91207206 -345.89646851 1139.53358151 -374 1136 C-394.39019906 1134.97244658 -414.58794036 1136.39433173 -434 1143 C-434.87527344 1143.28488281 -435.75054688 1143.56976562 -436.65234375 1143.86328125 C-455.56825778 1150.6467133 -469.8614258 1165.72862448 -478.5715332 1183.4206543 C-486.68764785 1200.91818655 -488.03529589 1221.74485765 -481.73193359 1240.06738281 C-475.47074177 1256.59960244 -465.24634589 1270.40868662 -453 1283 C-452.19864624 1283.8353125 -452.19864624 1283.8353125 -451.38110352 1284.6875 C-398.90185123 1338.52301597 -307.53521589 1356.1223316 -238.125 1376.4375 C-236.86444794 1376.80652435 -235.60389587 1377.17554871 -234.30514526 1377.55575562 C-230.72769618 1378.60124042 -227.14931434 1379.64343801 -223.5703125 1380.68359375 C-221.98641975 1381.14490692 -221.98641975 1381.14490692 -220.37052917 1381.61553955 C-214.93647477 1383.18792511 -209.49850226 1384.66982292 -204 1386 C-206.10182188 1388.10182188 -207.70029149 1388.91236462 -210.3828125 1390.14453125 C-211.29063477 1390.56726318 -212.19845703 1390.98999512 -213.13378906 1391.42553711 C-214.12088867 1391.88323486 -215.10798828 1392.34093262 -216.125 1392.8125 C-245.61837561 1406.73012205 -274.91554334 1422.72557663 -298.51708984 1445.56835938 C-300.06736285 1447.06503388 -301.63716113 1448.53954178 -303.20703125 1450.015625 C-316.07952604 1462.30083254 -325.82568556 1476.24270451 -334 1492 C-334.44085937 1492.81726562 -334.88171875 1493.63453125 -335.3359375 1494.4765625 C-342.28343609 1508.42379652 -342.50757055 1524.35440601 -338 1539 C-331.80741088 1553.11373293 -320.85037531 1561.11058237 -307 1567 C-291.48912846 1572.79848964 -275.3606436 1574.39131747 -259 1576 C-260.39798828 1576.80050781 -260.39798828 1576.80050781 -261.82421875 1577.6171875 C-270.76468622 1582.81219639 -278.99527417 1588.45942295 -287 1595 C-287.81082031 1595.64453125 -288.62164063 1596.2890625 -289.45703125 1596.953125 C-301.1162471 1606.67254136 -310.45691954 1620.15736565 -314 1635 C-315.37174585 1650.50391819 -311.63304166 1661.2108208 -302.10546875 1673.4296875 C-290.3773496 1687.39898712 -273.34048717 1696.64969223 -256.625 1703.3125 C-255.47016113 1703.77615967 -254.31532227 1704.23981934 -253.12548828 1704.7175293 C-218.4696863 1719.43959747 -218.4696863 1719.43959747 -182 1725 C-182 1725.66 -182 1726.32 -182 1727 C-182.51949219 1727.21269531 -183.03898437 1727.42539063 -183.57421875 1727.64453125 C-187.023924 1729.57214433 -189.84026751 1732.09888323 -192.8125 1734.6875 C-193.44051514 1735.23204834 -194.06853027 1735.77659668 -194.71557617 1736.33764648 C-202.69503873 1743.300617 -209.39473921 1750.70918622 -216 1759 C-216.88906358 1760.09786632 -217.77839406 1761.19551653 -218.66796875 1762.29296875 C-247.12635023 1797.6564701 -266.22259493 1839.80748487 -284 1881.25 C-284.45713379 1882.30839081 -284.91426758 1883.36678162 -285.38525391 1884.45724487 C-286.68433883 1887.47222009 -287.96949026 1890.49272147 -289.25 1893.515625 C-289.64501709 1894.42983719 -290.04003418 1895.34404938 -290.44702148 1896.28596497 C-290.79966064 1897.12777817 -291.1522998 1897.96959137 -291.515625 1898.83691406 C-291.82790039 1899.57169983 -292.14017578 1900.3064856 -292.46191406 1901.0635376 C-293.24703188 1903.19002409 -293.24703188 1903.19002409 -292 1906 C-286.23590749 1899.71809303 -280.71509144 1893.29350915 -275.35302734 1886.66650391 C-272.62544091 1883.30697576 -269.87473773 1879.96640185 -267.125 1876.625 C-266.52445801 1875.89514893 -265.92391602 1875.16529785 -265.30517578 1874.41333008 C-261.18690331 1869.41749321 -257.02529974 1864.46103549 -252.83032227 1859.52954102 C-250.03461864 1856.23838317 -247.28499371 1852.91438742 -244.5625 1849.5625 C-237.04343714 1840.33517063 -229.27938603 1831.30687667 -221.26806641 1822.50341797 C-219.84622574 1820.93403647 -218.43155403 1819.35809722 -217.02758789 1817.77270508 C-211.43761328 1811.47344059 -205.62484664 1805.4386022 -199.67138672 1799.48608398 C-198.1282647 1797.94076934 -196.59335694 1796.38759554 -195.05859375 1794.83398438 C-188.69692735 1788.4368159 -182.0695527 1782.62011313 -175 1777 C-173.93670685 1776.10211132 -172.87811906 1775.19856134 -171.828125 1774.28515625 C-159.61458181 1763.75560159 -146.53836665 1755.88926085 -132 1749 C-130.66534246 1748.33598834 -129.33169445 1747.66993441 -128 1747 C-127.92483154 1748.07854248 -127.84966309 1749.15708496 -127.7722168 1750.26831055 C-126.43890478 1769.35407299 -125.08790857 1788.43869877 -123.56802368 1807.51065063 C-123.43960176 1809.12527464 -123.31246022 1810.740001 -123.18661499 1812.35482788 C-123.0110967 1814.60016321 -122.83056913 1816.84503644 -122.6484375 1819.08984375 C-122.54708496 1820.35691162 -122.44573242 1821.62397949 -122.34130859 1822.92944336 C-122.10460386 1826.03533247 -122.10460386 1826.03533247 -121 1829 C-122.12535156 1829.22042969 -122.12535156 1829.22042969 -123.2734375 1829.4453125 C-136.60026746 1832.36580169 -146.75599237 1838.9293341 -154.39453125 1850.328125 C-162.35940507 1863.58353545 -163.36951886 1877.73115502 -159.97265625 1892.53515625 C-156.30757059 1905.59110397 -148.45756679 1915.01234382 -137 1922 C-136.06414062 1922.60134766 -136.06414062 1922.60134766 -135.109375 1923.21484375 C-122.69366933 1930.36736984 -107.01831893 1930.19274066 -93.5234375 1927.03125 C-80.10066848 1923.10263468 -69.54097136 1915.01988952 -62.47265625 1902.921875 C-56.08722941 1890.25264616 -54.42570147 1875.12933052 -58.625 1861.4375 C-63.86282678 1848.30630489 -72.0529814 1838.08778777 -85 1832 C-87.09352587 1831.38702631 -89.20448384 1830.83076516 -91.328125 1830.33203125 C-92.39450195 1830.07784424 -93.46087891 1829.82365723 -94.55957031 1829.56176758 C-95.36491211 1829.37638428 -96.17025391 1829.19100098 -97 1829 C-96.92483154 1828.25991699 -96.84966309 1827.51983398 -96.7722168 1826.75732422 C-95.21334174 1811.30054187 -93.76422109 1795.83657938 -92.51309204 1780.35162354 C-92.38089466 1778.71943943 -92.24696391 1777.08739465 -92.11117554 1775.45550537 C-91.3228534 1765.9414923 -90.8010081 1756.55371673 -91 1747 C-74.50151197 1753.48050561 -60.61241054 1762.72908282 -47 1774 C-46.4524707 1774.44988281 -45.90494141 1774.89976563 -45.34082031 1775.36328125 C-33.91196324 1784.77767509 -23.1185514 1794.80747663 -12.625 1805.25 C-11.97104248 1805.89928467 -11.31708496 1806.54856934 -10.64331055 1807.2175293 C-6.8015659 1811.07199658 -3.15043807 1815.0416218 0.40576172 1819.16064453 C2.51235689 1821.59113274 4.69260154 1823.95007203 6.875 1826.3125 C10.94220272 1830.77172225 14.79525045 1835.35595507 18.5859375 1840.05078125 C21.33862193 1843.4136886 24.16192121 1846.70920237 27 1850 C32.09989975 1855.92085922 37.07986864 1861.92853991 42 1868 C47.23241596 1874.43917135 52.51846187 1880.82532524 57.89819336 1887.14160156 C61.69699121 1891.61109018 65.38032348 1896.16324865 69.02734375 1900.7578125 C70.87840777 1902.86179418 72.69506951 1904.42212812 75 1906 C72.74781452 1898.90487973 70.04742523 1892.09395229 67.125 1885.25 C66.64377686 1884.12094238 66.16255371 1882.99188477 65.66674805 1881.82861328 C64.11965827 1878.21534602 62.5623791 1874.60668126 61 1871 C60.24468994 1869.25638184 60.24468994 1869.25638184 59.47412109 1867.47753906 C42.51742047 1828.54716972 23.95422925 1789.38160258 -4 1757 C-4.66902344 1756.22011719 -5.33804688 1755.44023437 -6.02734375 1754.63671875 C-10.70956368 1749.3092767 -15.64127486 1744.23118157 -20.625 1739.1875 C-21.24648926 1738.55295898 -21.86797852 1737.91841797 -22.50830078 1737.26464844 C-25.4858738 1734.28155409 -28.43599408 1731.58854461 -31.8984375 1729.17578125 C-35 1727 -35 1727 -36 1725 C-34.73285156 1724.88398438 -33.46570312 1724.76796875 -32.16015625 1724.6484375 C2.82504522 1720.71047325 49.69745312 1704.87595277 76 1681 C77.40572266 1679.73349609 77.40572266 1679.73349609 78.83984375 1678.44140625 C85.05981508 1672.64483822 89.5648804 1666.79328153 93 1659 C93.33773437 1658.27425781 93.67546875 1657.54851563 94.0234375 1656.80078125 C97.91571515 1647.14150507 96.90394024 1636.40518559 93.2421875 1626.859375 C92.83226562 1625.91578125 92.42234375 1624.9721875 92 1624 C91.61070312 1623.09765625 91.22140625 1622.1953125 90.8203125 1621.265625 C86.72230598 1612.87562348 80.5497205 1606.51640978 74 1600 C73.11054687 1599.11054687 72.22109375 1598.22109375 71.3046875 1597.3046875 C62.26242107 1588.69429051 51.84755939 1582.09132181 41 1576 C41.68811768 1575.93530518 42.37623535 1575.87061035 43.08520508 1575.80395508 C66.44764823 1573.53943671 93.47005825 1570.68009114 111 1553 C121.4814229 1540.15256742 122.86207265 1526.98939515 122 1511 C119.18985873 1486.88898786 99.92238581 1465.91018522 84 1449 C83.34386719 1448.28972656 82.68773437 1447.57945312 82.01171875 1446.84765625 C76.46612016 1441.0408089 70.18253192 1436.19237337 63.79394531 1431.35839844 C62.1540711 1430.11666461 60.52562943 1428.85986961 58.8984375 1427.6015625 C37.07967384 1411.30516582 11.04264513 1397.67895357 -14 1387 C-11.05650228 1385.42366648 -8.1896366 1384.37320801 -4.98339844 1383.45043945 C-3.97560333 1383.15807404 -2.96780823 1382.86570862 -1.92947388 1382.56448364 C-0.83384125 1382.25058685 0.26179138 1381.93669006 1.390625 1381.61328125 C3.77266737 1380.92292084 6.15466407 1380.23240287 8.53662109 1379.54174805 C9.79367859 1379.17866547 11.05073608 1378.81558289 12.34588623 1378.4414978 C18.96132669 1376.53000628 25.5711575 1374.59929305 32.1796875 1372.6640625 C33.18366262 1372.37006467 33.18366262 1372.37006467 34.20792007 1372.07012749 C137.01012198 1344.30204824 137.01012198 1344.30204824 227 1290 C227.98613281 1289.14792969 228.97226563 1288.29585937 229.98828125 1287.41796875 C250.15948717 1269.66910425 265.10713869 1246.36865815 267.31640625 1219.09375 C267.9200656 1199.30930173 261.46884553 1179.74367453 248 1165 C247.24976563 1164.16984375 246.49953125 1163.3396875 245.7265625 1162.484375 C227.24922733 1143.01614172 200.81526826 1136.68175276 174.78515625 1135.74609375 C162.24027188 1135.4469935 150.90411273 1135.81710325 139 1140 C137.96359375 1140.36222656 136.9271875 1140.72445313 135.859375 1141.09765625 C123.1627542 1146.00014727 112.16596054 1153.02006819 102 1162 C101.16984375 1162.72058594 100.3396875 1163.44117188 99.484375 1164.18359375 C87.07352828 1175.0602316 87.07352828 1175.0602316 77 1188 C98.60897581 1204.27028767 122.3264232 1212.25650506 149.44140625 1208.890625 C159.16642541 1207.46518406 168.57482507 1204.72632973 178 1202 C179.98158641 1201.43555008 181.96335682 1200.87174569 183.9453125 1200.30859375 C186.7203634 1199.5188004 189.49408 1198.72572942 192.26367188 1197.91699219 C198.06713228 1196.22565856 203.41447481 1194.85523543 209.5 1194.8125 C210.4178125 1194.79832031 211.335625 1194.78414062 212.28125 1194.76953125 C215.28929587 1195.02452364 217.34796241 1195.55343404 220 1197 C222.57135282 1200.91077133 223.41094534 1205.5884546 222.6875 1210.1875 C217.00493288 1230.04183511 200.7372852 1244.99459781 183.3125 1254.6875 C139.97109025 1278.04397561 92.16640149 1292.3819735 44.87925339 1305.28727722 C41.63524186 1306.17382852 38.39271705 1307.06575635 35.15011883 1307.9574604 C7.68573342 1315.50807964 -19.82228087 1322.89755907 -47.34765625 1330.22241211 C-48.07637153 1330.41640752 -48.8050868 1330.61040293 -49.55588436 1330.81027699 C-52.96213405 1331.71698188 -56.36864595 1332.62267121 -59.77577209 1333.52607727 C-60.95457443 1333.83941513 -62.13337677 1334.15275299 -63.34790039 1334.47558594 C-64.37331436 1334.74755798 -65.39872833 1335.01953003 -66.45521545 1335.29974365 C-68.31913887 1335.81264531 -70.16600144 1336.38866715 -72 1337 C-71.9545382 1336.1774557 -71.9090764 1335.3549114 -71.86223698 1334.50744152 C-70.7516893 1314.41389292 -69.64141863 1294.32032903 -68.53144932 1274.22674847 C-67.99465162 1264.50931253 -67.4577631 1254.79188163 -66.9206543 1245.07446289 C-66.45204487 1236.59633658 -65.98361245 1228.11820051 -65.51538509 1219.64005309 C-65.26788108 1215.15863056 -65.02029352 1210.67721267 -64.77249336 1206.1958065 C-63.44813038 1182.31741366 -63.44813038 1182.31741366 -62.17967224 1158.43600464 C-62.0610794 1156.16806628 -61.93792282 1153.90036137 -61.80992126 1151.63293457 C-61.0489695 1137.95680821 -62.6224804 1125.32196184 -65.5977478 1112.00979614 C-75.27288431 1068.71169624 -82.54206725 1020.76941216 -73 977 C-72.75975098 975.88915039 -72.75975098 975.88915039 -72.51464844 974.75585938 C-70.35132331 965.10127462 -66.85727381 956.08481219 -63 947 C-62.28992209 945.31268615 -61.58031045 943.62517602 -60.87109375 941.9375 C-59.7939559 939.37558085 -58.7149461 936.81458054 -57.62792969 934.25683594 C-57.30083008 933.48629883 -56.97373047 932.71576172 -56.63671875 931.921875 C-56.34498779 931.23706055 -56.05325684 930.55224609 -55.75268555 929.84667969 C-53.50306288 924.32733301 -52.8899548 918.571174 -54.68359375 912.80078125 C-55.71329694 910.48928986 -56.84290116 908.25050417 -58 906 C-59.0298037 903.81670861 -60.05010519 901.62891819 -61.0625 899.4375 C-61.54847656 898.40496094 -62.03445313 897.37242187 -62.53515625 896.30859375 C-64.18392978 892.58456394 -65.60067932 888.82425621 -67 885 C-51.19287192 886.58246138 -40.67573692 890.1515126 -29 901 C-27.55947266 902.29164063 -27.55947266 902.29164063 -26.08984375 903.609375 C-20.63513047 908.76152891 -18.22883184 912.85315952 -16.95703125 920.296875 C-16.77438721 921.32506348 -16.59174316 922.35325195 -16.40356445 923.41259766 C-16.20851318 924.51394043 -16.01346191 925.6152832 -15.8125 926.75 C-7.16688634 973.05213624 13.62449908 1014.13029786 42.56640625 1051.16064453 C44.01722158 1053.02209595 45.44741009 1054.89804027 46.875 1056.77734375 C56.92204869 1069.91752488 68.14436606 1081.96373234 84 1088 C85.32 1088 86.64 1088 88 1088 C87.56137528 1080.05491135 84.6341525 1073.15440611 81.75 1065.8125 C81.26609567 1064.56217041 80.78301755 1063.31152074 80.30078125 1062.06054688 C79.34688946 1059.59309508 78.38926126 1057.1270842 77.42773438 1054.66259766 C75.265559 1049.11592272 73.13319752 1043.55787907 71 1038 C74.61147134 1041.54884467 78.07569353 1045.21168608 81.51708984 1048.92529297 C105.15102691 1074.34207179 138.70731011 1098.31256229 174.8515625 1100.14453125 C177.25430656 1100.18175686 179.60628987 1100.21178917 182 1100 C183.34371775 1098.85261086 183.34371775 1098.85261086 183.5 1095.8125 C183.31823851 1084.54328745 174.13558651 1073.92842945 167 1066 C168.40185547 1066.72703125 168.40185547 1066.72703125 169.83203125 1067.46875 C188.30014007 1076.94275851 207.11354514 1084.05587684 227 1090 C228.23492188 1090.38542969 229.46984375 1090.77085937 230.7421875 1091.16796875 C240.60679967 1093.89675108 250.8543152 1093.28058552 261 1093 C262.26437345 1091.04532098 262.26437345 1091.04532098 261.390625 1089.00390625 C254.61265631 1074.49626778 240.89628689 1065.90310813 228.35742188 1056.73339844 C225.16376418 1054.38512072 222.01218473 1051.98548988 218.875 1049.5625 C217.87855469 1048.79292969 216.88210938 1048.02335937 215.85546875 1047.23046875 C211.53918253 1043.8589237 207.25985028 1040.44249752 203 1037 C203.804375 1037.44988281 204.60875 1037.89976562 205.4375 1038.36328125 C228.04535238 1050.81522384 250.00988711 1061.2814753 276.25 1061.125 C277.10770996 1061.12089111 277.96541992 1061.11678223 278.84912109 1061.11254883 C294.79755452 1060.97793235 310.35350602 1060.25084591 326 1057 C326.69464355 1056.85691406 327.38928711 1056.71382812 328.10498047 1056.56640625 C338.85887926 1054.28275003 349.7670992 1051.1552672 359 1045 C358.39073013 1041.31053244 356.8216696 1039.14287403 354.5 1036.25 C353.8709375 1035.45078125 353.241875 1034.6515625 352.59375 1033.828125 C345.89627101 1026.52545212 338.99641721 1021.49399772 330.125 1017.125 C329.11687256 1016.61163086 328.10874512 1016.09826172 327.07006836 1015.56933594 C323.21453826 1013.60616699 319.34627997 1011.66936926 315.47216797 1009.74316406 C296.82681606 1000.44178602 279.3491973 988.9169139 263 976 C262.195625 975.37480469 261.39125 974.74960938 260.5625 974.10546875 C250.15566495 965.91675719 240.19838423 957.17400956 230.44140625 948.2265625 C228.33845167 946.30866793 226.21330844 944.42623955 224.0625 942.5625 C209.74047999 930.06697242 195.60831645 917.10640797 184 902 C183.27683594 901.10539062 182.55367187 900.21078125 181.80859375 899.2890625 C175.10360975 890.77664803 169.93717633 881.62068587 165 872 C164.55414551 871.14051758 164.10829102 870.28103516 163.64892578 869.39550781 C157.99973752 858.33984614 154.23539638 848.14423547 152.39819336 835.85327148 C148.64919248 811.76805736 131.25278844 789.32280972 112.02734375 774.9375 C92.14903239 760.68494606 70.50968392 753.05402956 45.84667969 756.76879883 C26.51947542 760.15314725 12.750963 772.94065348 -1 786 C-1.96679688 786.87011719 -1.96679688 786.87011719 -2.953125 787.7578125 C-10.31586773 794.60447513 -15.78870487 803.52173112 -21.1875 811.9375 C-25.671315 818.73879242 -31.79782053 823.81042126 -38 829 C-37.72285156 828.11957031 -37.44570312 827.23914062 -37.16015625 826.33203125 C-36.79792969 825.17058594 -36.43570313 824.00914062 -36.0625 822.8125 C-35.70285156 821.66394531 -35.34320312 820.51539063 -34.97265625 819.33203125 C-29.93951761 802.08999407 -32.61207761 783.96486654 -41.05078125 768.328125 C-50.68496741 751.87857268 -66.60437299 740.021509 -85 735 C-112.51698731 727.96460891 -142.71223066 732.79634794 -164 752 Z M75 1906 C76 1908 76 1908 76 1908 Z " fill="#9A20C3" transform="translate(1441,330)"/>
<path d="M0 0 C2.14893004 -0.00297608 4.29785529 -0.00708868 6.44678283 -0.01150417 C13.25075991 -0.0251353 20.05472536 -0.03481628 26.85871512 -0.03870606 C33.80020456 -0.04270197 40.74155542 -0.05484594 47.68299842 -0.08106136 C82.20603943 -0.20848624 116.56491453 -0.10334741 150.98318839 3.00101566 C153.1004189 3.19171707 155.21809063 3.37623402 157.33604407 3.55870914 C165.40391202 4.26287969 173.45645884 5.07092749 181.50697303 5.95018864 C183.27113563 6.13960529 183.27113563 6.13960529 185.07093787 6.33284855 C280.77681417 16.65430479 375.53021318 37.09830653 473.08796668 70.47673893 C475.16293133 71.18935609 477.24001971 71.89536833 479.31800818 72.59911442 C543.4441505 94.33786134 606.76040447 121.71152938 666.19447303 154.20018864 C667.76527625 155.05532047 667.76527625 155.05532047 669.36781287 155.9277277 C712.23686147 179.29995456 754.05873485 204.36278735 794.19447303 232.20018864 C795.48393836 233.09350895 795.48393836 233.09350895 796.7994535 234.00487614 C814.57307923 246.3363597 832.08699749 258.95880926 849.19447303 272.20018864 C849.93197791 272.76882633 850.66948279 273.33746403 851.42933631 273.92333317 C861.5565289 281.73175388 871.56469179 289.66968946 881.45472693 297.77636051 C883.0139563 299.05245168 884.57848402 300.32206245 886.14369178 301.59081364 C892.99986334 307.15582296 899.70360232 312.88739832 906.39173865 318.65184879 C908.16933216 320.17859554 909.95399318 321.69660572 911.74134803 323.21190739 C918.14910768 328.65277633 924.44529034 334.18195077 930.58143592 339.92870426 C933.37601433 342.54306164 936.2088348 345.09917813 939.09681678 347.61034489 C943.10378463 351.10048439 947.00857762 354.68783431 950.88197303 358.32518864 C951.56968787 358.96971989 952.25740272 359.61425114 952.9659574 360.27831364 C958.01762816 365.03611989 962.94031181 369.90736315 967.81776404 374.84276676 C971.14501073 378.19558758 974.5742246 381.33822222 978.16712928 384.39940739 C983.93131345 389.51942454 989.46017521 395.06897347 994.44447303 400.95018864 C997.97081561 405.09278527 1001.83229996 408.87485146 1005.69447303 412.70018864 C1010.04057495 417.00914439 1014.31030631 421.30231845 1018.26087928 425.98143864 C1021.15342594 429.30056289 1024.18132154 432.49070511 1027.19447303 435.70018864 C1031.96004137 440.78712847 1036.66949565 445.89672052 1041.19447303 451.20018864 C1042.0809373 452.2329592 1042.96768338 453.26548792 1043.85462928 454.29784489 C1045.90782342 456.68901755 1047.95830074 459.08248468 1050.00697303 461.47753239 C1052.10679303 463.93182568 1054.2109994 466.38223243 1056.31947303 468.82909489 C1062.38310746 475.87061068 1068.3403819 482.9826854 1074.19447303 490.20018864 C1075.20168937 491.42593917 1076.20954379 492.65116556 1077.21791053 493.87596989 C1083.81100108 501.90522824 1090.1750781 510.06464207 1096.36634803 518.40721989 C1098.91007221 521.83298646 1101.51206097 525.20733394 1104.13197303 528.57518864 C1109.78915217 535.87771919 1115.15240129 543.38971576 1120.53431678 550.89598942 C1122.12856483 553.10871194 1123.73661625 555.31051788 1125.35072303 557.50878239 C1133.72655267 568.9433621 1141.60514865 580.67955841 1149.41273475 592.50780582 C1151.34666493 595.43016566 1153.29953292 598.33921312 1155.25697303 601.24584293 C1177.48796593 634.32267181 1197.51689617 669.01347624 1216.19447303 704.20018864 C1216.55067725 704.87056156 1216.90688148 705.54093449 1217.27387977 706.23162174 C1232.92287806 735.71489893 1247.98477535 765.53715637 1261.19447303 796.20018864 C1261.53180457 796.98184391 1261.86913611 797.76349918 1262.21668983 798.56884098 C1303.58199562 894.54538173 1334.16415015 994.64377636 1371.09446692 1263.92272282 C1371.166996 1265.5744469 1371.24242628 1267.22604441 1371.31962562 1268.8775568 C1372.25880162 1289.27820673 1372.39666585 1309.6577612 1372.38197303 1330.07518864 C1372.38170615 1330.90917934 1372.38143928 1331.74317005 1372.38116431 1332.6024332 C1372.37024975 1359.84559752 1372.05014118 1387.0101944 1370.19447303 1414.20018864 C1370.1289524 1415.17059086 1370.06343177 1416.14099308 1369.99592566 1417.14080143 C1363.66137797 1510.09392833 1348.72481981 1602.28029796 1204.81410193 1979.35936832 C1203.10970851 1982.34886514 1201.43562437 1985.35371543 1199.76869178 1988.36425114 C1191.92393084 2002.53034845 1183.77243424 2016.46511581 1175.19447303 2030.20018864 C1174.77782386 2030.86786259 1174.36117469 2031.53553654 1173.93189979 2032.22344303 C1166.74503003 2043.72287933 1159.37534724 2055.08835114 1151.83998084 2066.36229801 C1150.19165548 2068.82940576 1148.54832339 2071.29978667 1146.90541053 2073.77050114 C1139.84058335 2084.37234156 1132.59486803 2094.83019673 1125.19447303 2105.20018864 C1124.56734412 2106.08335758 1123.94021522 2106.96652653 1123.2940824 2107.87645817 C1107.56181104 2129.99563593 1090.83956898 2151.37494187 1073.67103553 2172.39159489 C1072.36399762 2173.99254343 1071.06023947 2175.5961684 1069.75697303 2177.20018864 C1064.46595676 2183.70058005 1059.07889372 2190.11492175 1053.64466834 2196.49559879 C1052.17644264 2198.22138193 1050.7127377 2199.95093136 1049.24916053 2201.68065739 C1043.27641817 2208.71758765 1037.14553163 2215.57170472 1030.85462928 2222.32518864 C1028.80025809 2224.54547821 1026.79110654 2226.7823617 1024.81947303 2229.07518864 C1017.05423827 2238.039467 1008.87894874 2246.7332727 1000.35462928 2254.97753239 C998.54693927 2256.83752446 996.87089566 2258.7308861 995.18666053 2260.70018864 C990.64711283 2265.92499677 985.75299238 2270.79164759 980.85194373 2275.67308903 C979.25988337 2277.2597881 977.67324313 2278.85176606 976.08705115 2280.44432926 C971.1626703 2285.37159319 966.19329746 2290.18791338 960.89540076 2294.71752262 C958.3621985 2296.92566635 956.04243844 2299.29564575 953.69447303 2301.70018864 C950.08374729 2305.35979995 946.39766129 2308.85458051 942.48744178 2312.19237614 C939.3260988 2314.96057084 936.26535312 2317.83239522 933.19447303 2320.70018864 C928.26839961 2325.29119885 923.31170146 2329.82191016 918.19447303 2334.20018864 C917.16052624 2335.08810163 916.1266817 2335.97613369 915.09291053 2336.86425114 C912.70438223 2338.91488842 910.31342908 2340.96265632 907.92103553 2343.00878239 C905.45272929 2345.12049798 902.98943993 2347.23783504 900.53041053 2349.36034489 C894.74143389 2354.35235672 888.93049732 2359.28781162 882.92884803 2364.02440739 C880.79916598 2365.71902581 878.68792101 2367.42974536 876.58509803 2369.15721989 C868.70271118 2375.62747181 860.71164741 2381.89292138 852.52259803 2387.96971989 C848.46851278 2390.98194679 844.46186834 2394.0537819 840.45594764 2397.129632 C831.19591079 2404.23360056 821.8216838 2411.11466458 812.23744178 2417.77343082 C810.18296887 2419.20822285 808.14030289 2420.65837961 806.10072303 2422.11425114 C794.96225142 2430.05809975 783.62408175 2437.68218565 772.19447303 2445.20018864 C771.46792518 2445.67810856 770.74137733 2446.15602848 769.99281287 2446.64843082 C726.56130435 2475.13785955 681.40146991 2500.51838878 635.19447303 2524.20018864 C634.27021522 2524.67665836 633.3459574 2525.15312809 632.39369178 2525.64403629 C615.93870144 2534.11226188 599.12036546 2541.75816545 582.2237699 2549.29461002 C580.29649563 2550.1546608 578.37039338 2551.01728711 576.44447303 2551.88036442 C492.01388065 2589.58734229 402.65287619 2617.67911636 111.19447303 2662.20018864 C110.40660155 2662.23959442 109.61873008 2662.27900021 108.80698371 2662.31960011 C94.74172026 2663.01216422 80.70952614 2663.37230894 66.62806678 2663.40331364 C64.63325456 2663.41034064 62.63844255 2663.41742741 60.64363074 2663.42456913 C54.30640815 2663.44395025 47.96922227 2663.44900358 41.63197303 2663.45018864 C40.55041057 2663.45063049 39.4688481 2663.45107235 38.35451102 2663.4515276 C4.53528722 2663.45876743 -29.08580639 2663.03034502 -62.80552697 2660.20018864 C-64.93784448 2660.02676624 -67.07016885 2659.85342827 -69.20249963 2659.68016911 C-117.39260476 2655.70409451 -165.30210765 2649.22468971 -212.80552697 2640.20018864 C-213.67107202 2640.03601444 -214.53661706 2639.87184025 -215.42839074 2639.70269108 C-265.20880644 2630.20764454 -314.51107623 2617.52886313 -362.80552697 2602.20018864 C-363.73653222 2601.90497318 -364.66753747 2601.60975773 -365.626755 2601.30559635 C-408.18562258 2587.77101628 -449.86141817 2572.02335578 -490.80552697 2554.20018864 C-491.46216332 2553.91506413 -492.11879968 2553.62993961 -492.7953341 2553.33617496 C-512.37894727 2544.82700912 -531.61586247 2535.6438709 -550.76475549 2526.20592594 C-552.78624227 2525.20969256 -554.80854504 2524.21513022 -556.8309176 2523.22069645 C-573.0264386 2515.24865847 -589.07155316 2507.05669188 -604.80552697 2498.20018864 C-605.87979943 2497.59594059 -606.95407189 2496.99169254 -608.06089807 2496.36913395 C-680.80303896 2455.34145261 -750.60795116 2408.30860209 -814.21934533 2354.0851984 C-817.5844098 2351.2193612 -820.99200251 2348.41477134 -824.43052697 2345.63768864 C-829.19359915 2341.76205931 -833.73916947 2337.68784575 -838.25865197 2333.53221989 C-840.39494446 2331.57613612 -842.55333355 2329.65831167 -844.74302697 2327.76268864 C-848.63755787 2324.3778714 -852.43642322 2320.89164301 -856.2317965 2317.39672184 C-859.50281787 2314.38649394 -862.80045446 2311.40924114 -866.11802697 2308.45018864 C-869.52845057 2305.39331773 -872.79420129 2302.24537054 -875.99841332 2298.9748621 C-877.75715447 2297.24769279 -879.57442701 2295.64655613 -881.44981408 2294.04760075 C-886.12280593 2289.98128247 -890.49881446 2285.65092141 -894.87193322 2281.26659489 C-895.70965768 2280.42982716 -896.54738214 2279.59305943 -897.41049218 2278.7309351 C-899.17059632 2276.9715076 -900.92945374 2275.2108321 -902.68711877 2273.44896793 C-905.36023669 2270.77049453 -908.03864948 2268.0973999 -910.71763635 2265.42479801 C-912.436056 2263.70571748 -914.15416539 2261.98632674 -915.87193322 2260.26659489 C-916.66378518 2259.47676716 -917.45563714 2258.68693943 -918.27148461 2257.87317753 C-922.46761129 2253.65951926 -926.5052141 2249.36754559 -930.37472558 2244.85117435 C-932.09389748 2242.86744113 -933.91754071 2241.02307192 -935.80552697 2239.20018864 C-938.95473578 2236.09304941 -941.88529664 2232.8752856 -944.76646447 2229.52050114 C-946.84117072 2227.15962851 -948.97063876 2224.86049415 -951.11558557 2222.56371403 C-956.16183452 2217.159268 -960.96275056 2211.64877298 -965.59458947 2205.87987614 C-967.91487648 2203.06765549 -970.33623831 2200.38221601 -972.80552697 2197.70018864 C-977.22434616 2192.8882843 -981.37786459 2187.91749231 -985.47740197 2182.83300114 C-986.97984435 2180.9858808 -988.5006956 2179.15491019 -990.02427697 2177.32518864 C-997.06017114 2168.86611599 -1003.88289397 2160.28449712 -1010.52427697 2151.51268864 C-1013.32403338 2147.81781779 -1016.17367996 2144.16462689 -1019.03623986 2140.51830387 C-1026.00450266 2131.63465822 -1032.67973614 2122.57483797 -1039.23619103 2113.38427067 C-1040.71975219 2111.31956343 -1042.22256111 2109.27098588 -1043.73521447 2107.22753239 C-1054.57070958 2092.53455118 -1064.55415064 2077.25508099 -1074.60447717 2062.02031803 C-1075.67132055 2060.40357159 -1076.7397731 2058.78788726 -1077.80845666 2057.17235661 C-1092.65850402 2034.69717264 -1106.5379277 2011.64065953 -1119.80552697 1988.20018864 C-1120.42282678 1987.11125309 -1121.04012658 1986.02231754 -1121.67613244 1984.90038395 C-1131.13557248 1968.16842986 -1140.13307482 1951.22101135 -1148.84263635 1934.09020329 C-1149.81245845 1932.18658315 -1150.7868538 1930.28537006 -1151.76255822 1928.38475895 C-1161.8564481 1908.70759843 -1171.12066503 1888.74471161 -1179.94322228 1868.46727848 C-1181.39918857 1865.1237848 -1182.87281773 1861.78862134 -1184.35690331 1858.45752811 C-1220.60806974 1777.0708965 -1246.98174292 1690.32040402 -1290.80552697 1402.20018864 C-1290.8451197 1401.41377113 -1290.88471242 1400.62735363 -1290.92550492 1399.81710529 C-1291.62777754 1385.65786825 -1291.96798736 1371.53601932 -1291.97349572 1357.36034489 C-1291.97672998 1355.33669864 -1291.98009543 1353.3130526 -1291.98358178 1351.28940678 C-1291.98950757 1347.07517299 -1291.99142883 1342.86095949 -1291.99082971 1338.64672184 C-1291.99074901 1334.42109182 -1291.99761241 1330.19557154 -1292.01133752 1325.96996403 C-1292.09965352 1298.31578261 -1291.59107679 1270.80009445 -1289.80552697 1243.20018864 C-1289.72982476 1242.02002171 -1289.65412255 1240.83985477 -1289.57612634 1239.62392521 C-1289.13965341 1233.01786026 -1288.62540927 1226.42098655 -1288.05552697 1219.82518864 C-1287.97315789 1218.85423252 -1287.89078881 1217.88327641 -1287.8059237 1216.88289738 C-1279.51871258 1119.96547071 -1260.8420327 1024.06273196 -1152.80552697 736.20018864 C-1152.28506799 735.13735661 -1151.764609 734.07452457 -1151.22837853 732.97948551 C-1144.60438218 719.47947011 -1137.68311803 706.17776096 -1130.37828088 693.03368473 C-1128.75582948 690.11065291 -1127.14573906 687.18101643 -1125.53599572 684.25096989 C-1117.33590749 669.3957033 -1108.63899589 654.88858357 -1099.77281213 640.42675114 C-1097.43923141 636.59942391 -1095.14523377 632.74972514 -1092.85728478 628.89501286 C-1087.87250944 620.5026124 -1082.67570239 612.31360462 -1077.18638635 604.24364567 C-1075.65451609 601.97671603 -1074.14276054 599.69717596 -1072.63365197 597.41503239 C-1059.54474159 577.63126279 -1046.00837213 558.20072107 -1031.80552697 539.20018864 C-1031.27443322 538.48749821 -1030.74333947 537.77480778 -1030.19615197 537.04052067 C-1026.74891521 532.41469585 -1023.28558783 527.80136793 -1019.80552697 523.20018864 C-1019.38352014 522.64170231 -1018.9615133 522.08321598 -1018.52671838 521.50780582 C-1012.46501202 513.50395276 -1006.1888013 505.69276323 -999.83677697 497.91893864 C-997.42702899 494.96907472 -995.04582116 491.99838786 -992.68052697 489.01268864 C-989.18732348 484.62963752 -985.57585773 480.35448996 -981.94175744 476.08837223 C-979.01176015 472.64423379 -976.14228605 469.15953264 -973.30552697 465.63768864 C-969.18096707 460.56699313 -964.80936098 455.76826384 -960.36802697 450.97753239 C-957.70066898 448.08653919 -955.10729094 445.14217221 -952.52818322 442.17284489 C-943.25839721 431.55778381 -933.78801153 421.0301821 -923.72839379 411.15549564 C-921.90806639 409.30445797 -920.21116324 407.3992555 -918.52403283 405.42699528 C-915.03935083 401.41945822 -911.38222714 397.6317369 -907.62193322 393.88378239 C-906.96273385 393.22362629 -906.30353448 392.56347019 -905.62435937 391.88330936 C-904.24155862 390.49983358 -902.85751622 389.1175978 -901.47227502 387.73656559 C-899.37322354 385.64287194 -897.27956757 383.54388989 -895.18638635 381.44432926 C-893.83188911 380.09049293 -892.47708166 378.73696688 -891.12193322 377.38378239 C-890.50709573 376.76692066 -889.89225823 376.15005894 -889.2587893 375.51450443 C-885.48695271 371.76256831 -881.59627179 368.20235842 -877.56076074 364.73523808 C-875.19404208 362.66541113 -872.99825397 360.45217853 -870.80552697 358.20018864 C-867.33644567 354.69425821 -863.8027337 351.372196 -860.05552697 348.16893864 C-857.71656599 346.12234777 -855.44473255 344.01597042 -853.17369103 341.89476871 C-847.79012304 336.86702923 -842.29945124 332.0908129 -836.55162072 327.47753239 C-833.54231119 324.98190301 -830.66652817 322.36213973 -827.80552697 319.70018864 C-823.30282001 315.52064246 -818.68142973 311.54847622 -813.89537072 307.69628239 C-811.5594153 305.80920841 -809.24184 303.90678136 -806.93443322 301.98534489 C-798.38762818 294.8756309 -789.71065232 287.9903043 -780.84849572 281.27831364 C-777.16901778 278.48896194 -773.54541374 275.63489868 -769.93052697 272.76268864 C-761.39483335 266.01005603 -752.59954885 259.61026744 -743.80552697 253.20018864 C-743.04691369 252.64540836 -742.28830041 252.09062809 -741.50669885 251.51903629 C-730.0959233 243.17905807 -718.51941956 235.10817681 -706.80552697 227.20018864 C-706.08461877 226.71227848 -705.36371057 226.22436832 -704.62095666 225.72167301 C-665.02612049 198.96302287 -624.04928238 174.52756513 -581.80552697 152.20018864 C-580.76203088 151.64685856 -579.71853478 151.09352848 -578.6434176 150.52343082 C-502.99588568 110.50630645 -423.17435587 77.86798192 -56.52427697 1.96190739 C-55.70421166 1.89865269 -54.88414636 1.83539799 -54.03923059 1.77022648 C-51.2954715 1.56652468 -48.55078747 1.38255701 -45.80552697 1.20018864 C-44.61043008 1.11356968 -43.41533319 1.02695072 -42.18402123 0.93770695 C-28.13481862 -0.0124882 -14.07541768 0.01859598 0 0 Z M-38.80552697 75.20018864 C-39.76406579 75.26570927 -40.72260461 75.3312299 -41.71019006 75.398736 C-137.41652806 82.02187089 -232.53111441 98.1667871 -352.35032678 135.39025211 C-354.7737232 136.18969701 -357.19828126 136.98554442 -359.62290978 137.78124332 C-405.09645089 152.74723731 -449.50693178 170.78862904 -492.80552697 191.20018864 C-493.79069299 191.6645734 -494.775859 192.12895817 -495.79087853 192.6074152 C-543.7417537 215.2870904 -590.12120343 240.60105386 -634.80552697 269.20018864 C-635.84193322 269.8622028 -635.84193322 269.8622028 -636.89927697 270.53759098 C-655.4541285 282.40645153 -673.86298476 294.5102635 -691.60044885 307.5761652 C-693.90952132 309.27677969 -696.22438073 310.96930479 -698.53990197 312.66112614 C-723.40106172 330.86160877 -747.74242402 349.78067117 -771.16831994 369.80126286 C-772.90086023 371.28164697 -774.63637358 372.75850221 -776.37193322 374.23534489 C-782.51885965 379.47529348 -788.60470061 384.76774231 -794.58677697 390.19628239 C-796.5986109 392.01330845 -798.63213131 393.79963256 -800.68052697 395.57518864 C-804.97396172 399.32016066 -809.17772492 403.16099407 -813.36363244 407.02538395 C-815.0297188 408.56344108 -816.69661568 410.10047366 -818.36901879 411.63166142 C-829.67158381 421.98110092 -840.52988956 432.76877929 -851.35142541 443.61571598 C-853.82986382 446.09990626 -856.31284443 448.57950086 -858.79712701 451.05784512 C-861.20862096 453.46483231 -863.61627272 455.87564773 -866.02427697 458.28612614 C-867.34316918 459.601982 -867.34316918 459.601982 -868.68870568 460.94442081 C-873.0720009 465.34432344 -877.30987539 469.80739218 -881.35862756 474.5174799 C-883.0300952 476.46135601 -884.76105998 478.33936128 -886.52427697 480.20018864 C-887.14689416 480.86018864 -887.76951135 481.52018864 -888.41099572 482.20018864 C-889.67401656 483.53352197 -890.93703739 484.8668553 -892.20005822 486.20018864 C-896.51444879 490.77362129 -900.69977909 495.43873761 -904.80552697 500.20018864 C-905.29392053 500.76640934 -905.78231408 501.33263004 -906.28550744 501.91600895 C-907.69078466 503.55005223 -909.09264824 505.18694595 -910.49302697 506.82518864 C-913.60576338 510.46648434 -916.71988152 514.10607582 -919.86021447 517.72362614 C-925.24798237 523.94256484 -930.48038968 530.24114018 -935.52281213 536.74364567 C-939.16981662 541.43376351 -942.9429909 546.00862391 -946.74302697 550.57518864 C-952.81939405 557.90489912 -958.60111196 565.41096495 -964.24302697 573.07860661 C-965.90359209 575.33334268 -967.57282052 577.58149285 -969.24302697 579.82909489 C-976.34872103 589.40837674 -983.32778184 599.06707831 -990.15708947 608.84520817 C-991.97050835 611.4358833 -993.79431602 614.01909325 -995.61802697 616.60253239 C-1004.15631851 628.73796494 -1012.32020924 641.05273193 -1020.19126916 653.63036442 C-1021.70879197 656.04619096 -1023.24157349 658.45132118 -1024.78208947 660.85253239 C-1038.62490809 682.47116906 -1051.43099423 704.71471351 -1063.80552697 727.20018864 C-1064.3429049 728.17053043 -1064.88028283 729.14087223 -1065.43394494 730.14061832 C-1082.87984913 761.70438219 -1098.78779843 794.07777797 -1113.07115197 827.18895817 C-1114.67140298 830.89801641 -1116.29864821 834.59476847 -1117.93052697 838.29003239 C-1154.42883886 921.44876638 -1180.2779007 1009.71882369 -1214.05552697 1225.70018864 C-1214.13265924 1226.59023594 -1214.2097915 1227.48028324 -1214.2892611 1228.39730167 C-1217.12442304 1261.60395725 -1218.19561676 1294.88514665 -1218.12358499 1328.2027216 C-1218.117898 1330.8860413 -1218.11510655 1333.56935456 -1218.11250329 1336.25267887 C-1217.97729386 1432.44773061 -1206.95256541 1528.46134374 -1056.46812463 1949.31639957 C-1054.69725431 1952.38798845 -1052.94393533 1955.46918708 -1051.19224572 1958.55175114 C-1043.32948065 1972.34548124 -1035.15254257 1985.90194224 -1026.64195275 1999.30516911 C-1024.82283048 2002.17291065 -1023.01437174 2005.04713987 -1021.20787072 2007.92284489 C-1013.67834889 2019.87667431 -1005.87396468 2031.60434349 -997.80552697 2043.20018864 C-996.66098034 2044.85382383 -995.51644935 2046.50746983 -994.37193322 2048.16112614 C-973.27386342 2078.55710054 -950.8696494 2108.17183512 -926.89366174 2136.36010075 C-923.96269036 2139.81158723 -921.08837947 2143.30237126 -918.24302697 2146.82518864 C-914.36973425 2151.58538917 -910.29792705 2156.12823647 -906.14537072 2160.64550114 C-904.14717849 2162.82716678 -902.18403808 2165.03030172 -900.24302697 2167.26268864 C-896.15482319 2171.96078762 -891.98811558 2176.58606311 -887.80552697 2181.20018864 C-887.35596642 2181.69631657 -886.90640588 2182.1924445 -886.44322228 2182.70360661 C-881.57844706 2188.06495923 -876.69960984 2193.38330184 -871.52417016 2198.44910526 C-869.78849892 2200.2175381 -868.17633924 2202.05031219 -866.56504846 2203.93236637 C-862.99843943 2208.03060523 -859.24978127 2211.90093717 -855.40318322 2215.73534489 C-854.72178781 2216.41769703 -854.04039239 2217.10004917 -853.33834863 2217.80307865 C-851.90846956 2219.233633 -850.47734786 2220.66294631 -849.04502892 2222.09105778 C-846.87354986 2224.25717938 -844.70746372 2226.42859038 -842.5418551 2228.60057926 C-841.14178495 2229.99998851 -839.74140459 2231.39908747 -838.34068322 2232.79784489 C-837.70397195 2233.43658039 -837.06726068 2234.0753159 -836.41125512 2234.73340702 C-832.57885236 2238.54624538 -828.63215668 2242.17077595 -824.531708 2245.69419193 C-822.34991434 2247.59768526 -820.3211239 2249.62257334 -818.30552697 2251.70018864 C-815.01698169 2255.02788327 -811.64171073 2258.15355305 -808.09068322 2261.19628239 C-805.74074613 2263.25699645 -803.45519571 2265.37493051 -801.17124963 2267.50804996 C-795.76627376 2272.55526267 -790.25491903 2277.35676371 -784.48521447 2281.98925114 C-781.67299383 2284.30953814 -778.98755435 2286.73089998 -776.30552697 2289.20018864 C-770.97578304 2294.09393095 -765.43782447 2298.66126179 -759.80552697 2303.20018864 C-758.58725134 2304.19787669 -757.3698539 2305.19663774 -756.15318322 2306.19628239 C-747.94904834 2312.92467662 -739.62041832 2319.45793829 -731.16880822 2325.87206364 C-727.39137886 2328.74246625 -723.65170469 2331.658645 -719.9180758 2334.58568668 C-712.30888456 2340.5472025 -704.61328705 2346.31157335 -696.70155358 2351.86484623 C-694.8405552 2353.17551879 -692.98555648 2354.49423395 -691.13218713 2355.81566715 C-679.97410204 2363.75783495 -668.64590807 2371.42720259 -657.24302697 2379.01268864 C-656.32010858 2379.6271384 -655.39719018 2380.24158817 -654.44630456 2380.87465763 C-613.96555216 2407.8057077 -572.101093 2432.17687675 -528.7527926 2454.20867252 C-526.76476388 2455.22094454 -524.77904578 2456.23763046 -522.79380822 2457.25536442 C-444.01645349 2497.60565847 -360.08416408 2528.42227389 24.19447303 2590.20018864 C25.45388709 2590.22355289 26.71330115 2590.24691715 28.01087928 2590.27098942 C129.92821702 2591.90639438 232.42642668 2579.55720482 520.19447303 2495.20018864 C520.90972144 2494.90390568 521.62496985 2494.60762272 522.36189246 2494.30236149 C564.04628469 2477.00691414 605.23840831 2457.72686891 644.61683631 2435.64501286 C647.29266612 2434.14514917 649.97577472 2432.65885926 652.65931678 2431.17284489 C666.97743823 2423.20272641 680.99323798 2414.76123487 694.95423865 2406.18700504 C697.82599827 2404.42612652 700.70398885 2402.67617467 703.58509803 2400.93065739 C726.02881638 2387.27011601 747.80651742 2372.45198781 769.19447303 2357.20018864 C770.30508094 2356.41152409 770.30508094 2356.41152409 771.43812537 2355.60692692 C797.30505546 2337.21605347 822.45669532 2317.6769784 846.61048865 2297.08300114 C849.95239391 2294.23634709 853.33865027 2291.45438012 856.75697303 2288.70018864 C861.82766853 2284.57562874 866.62639782 2280.20402264 871.41712928 2275.76268864 C874.3108078 2273.09285304 877.25833831 2270.49744274 880.22962928 2267.91503239 C892.19980067 2257.46790467 903.86149721 2246.6478112 915.02259803 2235.34081364 C916.91860976 2233.47208265 918.85107012 2231.73114494 920.88197303 2230.01268864 C929.63503321 2222.51006562 937.90041693 2214.09831737 945.32728553 2205.28612614 C947.9971471 2202.30347743 950.84891119 2199.51433198 953.69447303 2196.70018864 C957.69020493 2192.74415128 961.56023622 2188.76890812 965.19837928 2184.47753239 C968.07042715 2181.20081241 971.0793081 2178.0564236 974.06947303 2174.88768864 C978.95860362 2169.69150501 983.59868675 2164.38676554 988.05384803 2158.80956364 C990.34567768 2156.01587348 992.74679115 2153.35810086 995.19447303 2150.70018864 C999.61329222 2145.8882843 1003.76681064 2140.91749231 1007.86634803 2135.83300114 C1009.36879041 2133.9858808 1010.88964166 2132.15491019 1012.41322303 2130.32518864 C1019.44911719 2121.86611599 1026.27184003 2113.28449712 1032.91322303 2104.51268864 C1035.71287235 2100.81795912 1038.56235102 2097.16486639 1041.42494178 2093.51879215 C1048.94662039 2083.92885947 1056.14291984 2074.13966274 1063.19447303 2064.20018864 C1063.71380408 2063.47267399 1064.23313514 2062.74515934 1064.7682035 2061.99559879 C1080.97259314 2039.27537044 1096.62493732 2016.00514643 1111.19447303 1992.20018864 C1111.65901893 1991.44157536 1112.12356483 1990.68296207 1112.60218787 1989.90136051 C1130.25687693 1960.96315181 1146.73658242 1931.36524582 1162.19447303 1901.20018864 C1162.50556006 1900.59475224 1162.8166471 1899.98931583 1163.13716102 1899.36553288 C1173.94591617 1878.32283506 1183.9855987 1857.02912292 1193.40003943 1835.32714176 C1195.01527043 1831.60486781 1196.65530489 1827.89394941 1198.29994178 1824.18456364 C1220.06155815 1774.75346313 1237.52104734 1723.1467054 1252.19447303 1671.20018864 C1252.40743018 1670.44806095 1252.62038733 1669.69593327 1252.83979774 1668.92101383 C1276.39602642 1585.45420412 1290.41088313 1498.95911737 1295.94447303 1412.45018864 C1296.00372962 1411.52623295 1296.06298621 1410.60227726 1296.12403846 1409.65032291 C1297.73181107 1384.07801664 1298.40407739 1358.50848777 1298.38197303 1332.88768864 C1298.38106666 1330.91486408 1298.38106666 1330.91486408 1298.38014197 1328.90218449 C1298.28880417 1233.43820868 1287.50158003 1138.05304606 1185.05525184 809.06499577 C1184.15723507 807.11951564 1183.26284358 805.17239503 1182.36878943 803.22509098 C1168.97023006 774.08455066 1154.64247179 745.44176602 1138.60121131 717.65819645 C1136.81557817 714.53814187 1135.08276232 711.39076508 1133.35389686 708.239007 C1127.58128505 697.72143516 1121.45780988 687.43198467 1115.19447303 677.20018864 C1114.64194861 676.29591129 1114.0894242 675.39163395 1113.52015662 674.45995426 C1081.89150641 622.85578696 1046.50505113 573.15360737 1007.28260779 527.04027653 C1004.35163642 523.58879005 1001.47732552 520.09800601 998.63197303 516.57518864 C994.75868031 511.8149881 990.68687311 507.2721408 986.53431678 502.75487614 C984.53612454 500.57321049 982.57298414 498.37007555 980.63197303 496.13768864 C973.48329745 487.92254398 966.13734741 479.87848158 958.74623084 471.88134098 C957.7147687 470.76386957 956.68545513 469.64441099 955.65834022 468.52294254 C945.62747675 457.58715409 935.17682186 447.07538893 924.69447303 436.57518864 C923.99061469 435.8687421 923.28675635 435.16229557 922.56156898 434.43444157 C920.51507727 432.38202128 918.46481277 430.33344924 916.41322303 428.28612614 C915.80528403 427.67620823 915.19734504 427.06629032 914.57098365 426.43789005 C910.81200871 422.69874435 906.92956916 419.15419145 902.91041541 415.69594669 C900.90862857 413.95102284 899.0386492 412.11022824 897.19447303 410.20018864 C894.08733381 407.05097983 890.86956999 404.12041897 887.51478553 401.23925114 C885.15382614 399.16446864 882.85460755 397.03492379 880.55775428 394.8898859 C875.13134706 389.82318371 869.59933945 384.99642722 863.80775428 380.34471989 C861.19599679 378.20143908 858.69082001 375.97638534 856.19447303 373.70018864 C851.5500998 369.47737041 846.74055511 365.50421208 841.86097693 361.55761051 C839.95663191 360.00645928 838.06524171 358.44029935 836.17494178 356.87206364 C828.26432641 350.31175646 820.30707169 343.86002973 812.1119535 337.65673161 C809.85326883 335.94100552 807.60397065 334.21330136 805.35462928 332.48534489 C794.78602732 324.37870228 784.13278011 316.41628833 773.28285193 308.68993473 C771.33539456 307.30071508 769.39510923 305.90207041 767.45619178 304.50096989 C746.28282238 289.28860866 724.40406323 274.8509404 702.19447303 261.20018864 C700.65992469 260.252486 700.65992469 260.252486 699.09437537 259.28563786 C682.68781072 249.16837454 666.10351988 239.46107624 649.19447303 230.20018864 C648.21059608 229.65942692 647.22671912 229.1186652 646.21302772 228.56151676 C572.74452428 188.2325129 495.83865908 154.99092495 119.19447303 75.20018864 C118.28939002 75.1396027 117.38430701 75.07901676 116.45179725 75.01659489 C64.99385049 71.6256264 12.64199624 71.66780183 -38.80552697 75.20018864 Z " fill="#A328CD" transform="translate(1291.805526971817,-0.20018863677978516)"/>
<path d="M0 0 C44.33055917 3.1364366 93.96438935 15.540474 129 44 C129.67289063 44.50917969 130.34578125 45.01835938 131.0390625 45.54296875 C137.40188218 50.54633136 143.38873137 57.94365686 145 66 C145.62252646 71.70649254 144.54236465 75.55123395 141 80 C129.82441825 92.28647457 114.53857667 98.23917177 99 103 C98.27361328 103.22284668 97.54722656 103.44569336 96.79882812 103.67529297 C83.10368755 107.77359691 69.14485053 110.06774588 55 112 C54.16984375 112.11472656 53.3396875 112.22945312 52.484375 112.34765625 C40.74288259 113.90399501 28.95133888 114.31267513 17.125 114.6875 C16.37058624 114.7125058 15.61617249 114.7375116 14.83889771 114.76327515 C12.6661713 114.83260078 10.49340525 114.89266428 8.3203125 114.94921875 C7.05461426 114.98362061 5.78891602 115.01802246 4.48486328 115.0534668 C1.2012825 115.00308819 -1.77532806 114.57564605 -5 114 C-4.94695457 112.69504326 -4.94695457 112.69504326 -4.89283752 111.36372375 C-4.55219117 102.97242868 -4.21403395 94.58103724 -3.87835789 86.18954182 C-3.70590024 81.88029638 -3.53263257 77.57108742 -3.35717773 73.26196289 C-3.15340983 68.25417445 -2.95266736 63.24627081 -2.75390625 58.23828125 C-2.72088032 57.41001957 -2.68785439 56.58175789 -2.65382767 55.72839737 C-2.27823831 46.23997352 -1.95105314 36.75224954 -1.71435547 27.25927734 C-1.69258586 26.39389312 -1.67081625 25.52850889 -1.64838696 24.6369009 C-1.54552304 20.48921321 -1.44972714 16.34151068 -1.36390686 12.19343567 C-1.32984105 10.72034527 -1.29570126 9.24725659 -1.26147461 7.77416992 C-1.23476181 6.48588791 -1.20804901 5.1976059 -1.18052673 3.87028503 C-1 1 -1 1 0 0 Z " fill="#840BAA" transform="translate(1359,1907)"/>
<path d="M0 0 C0.8057913 8.57925707 1.24630247 17.13023762 1.5 25.7421875 C1.56210299 27.70719562 1.62420767 29.67220369 1.68640137 31.63720894 C1.77197475 34.36438589 1.85476014 37.09164453 1.9375 39.81890869 C2.12101115 45.85595954 2.30980917 51.89284387 2.5 57.9296875 C2.54057022 59.22572906 2.58114044 60.52177063 2.62294006 61.85708618 C2.90070053 70.51097153 3.24322007 79.15947719 3.68981934 87.80636597 C4.12565402 96.53641736 4.09081383 105.26169189 4 114 C-0.35485048 114.84767152 -4.3882621 115.09032043 -8.8203125 114.984375 C-9.7919207 114.96153442 -9.7919207 114.96153442 -10.78315735 114.93823242 C-12.89745799 114.88421406 -15.01113151 114.818821 -17.125 114.75 C-17.85486115 114.72699829 -18.58472229 114.70399658 -19.33670044 114.68029785 C-58.96448752 113.37474691 -111.81541973 110.13644265 -141.44140625 79.89453125 C-144.7338959 75.89238218 -145.51745856 72.58914873 -145.3671875 67.48828125 C-143.7326879 56.41193823 -134.74617823 47.6390498 -126.18359375 41.19848633 C-118.20010753 35.43300725 -109.72005038 30.55460123 -101 26 C-100.4013916 25.68434082 -99.8027832 25.36868164 -99.18603516 25.04345703 C-71.2725561 10.54083671 -31.78844451 0 0 0 Z " fill="#840BAA" transform="translate(1305,1907)"/>
<path d="M0 0 C1.47798158 17.81238585 2.4528264 35.59865991 3.00537109 53.46313477 C3.12547855 57.32789862 3.2554906 61.19223997 3.38671875 65.05664062 C3.86861997 79.70986497 4.11966506 94.33913019 4 109 C3.31715439 109.02061493 2.63430878 109.04122986 1.93077087 109.06246948 C-6.7339081 109.32531152 -15.39829878 109.5968921 -24.0625 109.875 C-24.75036591 109.89704247 -25.43823181 109.91908493 -26.14694214 109.94179535 C-43.43632072 110.49786312 -60.7136498 111.07011546 -77.96508789 112.39013672 C-99.98590342 114.06473626 -128.63737964 114.14519117 -148 102 C-147.5455956 96.81352218 -145.67358235 93.45822128 -142.625 89.375 C-141.95778931 88.46476074 -141.95778931 88.46476074 -141.27709961 87.53613281 C-123.92169751 64.29862219 -100.9226484 49.11903298 -76 35 C-75.07364746 34.47293457 -74.14729492 33.94586914 -73.19287109 33.40283203 C-52.72499655 21.83155582 -31.39779575 11.59651003 -9.6875 2.5625 C-9.02500244 2.28615723 -8.36250488 2.00981445 -7.67993164 1.72509766 C-4.93588327 0.6215008 -2.99281701 0 0 0 Z " fill="#8910B0" transform="translate(1300,1758)"/>
<path d="M0 0 C6.41409453 1.06694094 12.13674912 3.85935313 18.0625 6.4375 C18.71060638 6.71877747 19.35871277 7.00005493 20.02645874 7.28985596 C65.21743114 26.9860412 119.62597184 51.06187274 146 95 C147.25390625 98.390625 147.25390625 98.390625 148 101 C133.07392367 113.99925557 102.79829949 113.85019813 84.09204102 112.84350586 C80.89388735 112.61398348 77.69703297 112.36962607 74.5 112.125 C57.7066625 110.92958253 40.88688118 110.41413246 24.0625 109.875 C23.37076691 109.8527964 22.67903381 109.8305928 21.96633911 109.80771637 C13.31113848 109.53045034 4.65569714 109.26131322 -4 109 C-4.2190768 86.53297849 -3.66284207 64.16122666 -2.66760254 41.7177124 C-2.52483475 38.45055205 -2.39022286 35.18307422 -2.25558567 31.91557026 C-2.12397187 28.73873071 -1.98836401 25.562072 -1.85142326 22.38545799 C-1.787037 20.88523811 -1.72364854 19.38497504 -1.66131783 17.88466835 C-1.57444341 15.81264792 -1.48241535 13.74092014 -1.38891602 11.66918945 C-1.33784195 10.4977388 -1.28676788 9.32628815 -1.23414612 8.11933899 C-1.02464795 5.32836464 -0.62223044 2.72490028 0 0 Z " fill="#8910B0" transform="translate(1364,1758)"/>
</svg>
