<?xml version="1.0" encoding="UTF-8"?>
<svg version="1.1" xmlns="http://www.w3.org/2000/svg" width="2688" height="2682">
<path d="M0 0 C0.7500531 0.24063171 1.5001062 0.48126343 2.27288818 0.72918701 C56.24689841 18.12013705 107.57560919 41.43380973 156 71 C157.59666504 71.96969727 157.59666504 71.96969727 159.22558594 72.95898438 C171.79322679 80.61019817 183.99902025 88.5681299 195.79492188 97.36425781 C198.09539964 99.07076811 200.41263195 100.75224234 202.734375 102.4296875 C213.49775281 110.23095759 223.84979943 118.41853547 234 127 C234.93368408 127.78503906 234.93368408 127.78503906 235.88623047 128.5859375 C246.43263203 137.46237481 256.76855037 146.59197586 266.4140625 156.44921875 C268.10430308 158.10199094 269.87646093 159.60594478 271.6875 161.125 C276.58990193 165.34068415 280.82873714 170.14327903 285.171875 174.91796875 C287.32567198 177.28159733 289.52772331 179.57403635 291.8125 181.8125 C295.41932481 185.3675522 298.70493903 189.15680034 302 193 C302.90715539 194.0433138 303.81474081 195.08625379 304.72265625 196.12890625 C311.18251784 203.57222845 317.41437124 211.15319485 323.42626953 218.96240234 C325.16875069 221.21849104 326.92660968 223.46222148 328.68359375 225.70703125 C338.79684941 238.71246797 348.04648073 252.1753827 357 266 C357.54640137 266.83772949 358.09280273 267.67545898 358.65576172 268.53857422 C367.01092818 281.37355432 374.60646038 294.59191667 382 308 C382.58604004 309.05703125 383.17208008 310.1140625 383.77587891 311.203125 C406 351.38558563 406 351.38558563 406 358 C376.01272653 358.45675271 346.02557264 358.81044561 316.0355859 359.02130659 C312.49100337 359.0463192 308.94642772 359.07220579 305.40185547 359.09863281 C304.69622749 359.10387902 303.99059952 359.10912523 303.26358888 359.11453041 C291.853968 359.20144073 280.4463729 359.35905784 269.03795186 359.54305592 C257.32205196 359.73042984 245.60720892 359.84124421 233.88987231 359.8817699 C227.3112938 359.90781693 220.73730044 359.96886227 214.1601944 360.11460114 C207.96324213 360.25079854 201.77274108 360.29215957 195.57443428 360.26215363 C193.30541141 360.2676381 191.03616412 360.30720246 188.76843834 360.3841095 C174.81834346 360.83384008 174.81834346 360.83384008 169 358 C163.87900859 353.18433452 161.0583325 346.92301602 158.24104643 340.58952856 C156.21262705 336.3570923 153.59039927 332.54809595 150.9375 328.6875 C150.15076232 327.52240154 150.15076232 327.52240154 149.34813094 326.33376575 C130.27489175 298.10620731 108.18146862 271.07306793 82.640625 248.45361328 C81.52437256 247.46460033 80.4125429 246.47057798 79.3046875 245.47216797 C59.08007469 227.24847677 36.62264296 211.50492718 13 198 C12.2280127 197.55720703 11.45602539 197.11441406 10.66064453 196.65820312 C-52.51136166 160.68679714 -122.8453139 141.95834111 -195 136 C-196.09111084 135.90428711 -197.18222168 135.80857422 -198.30639648 135.70996094 C-212.9024675 134.60283015 -227.55785907 134.75409329 -242.1875 134.75 C-243.27240093 134.74933722 -243.27240093 134.74933722 -244.37921906 134.74866104 C-267.37398849 134.74130252 -290.15088458 135.19797299 -313 138 C-313.71109924 138.08485657 -314.42219849 138.16971313 -315.15484619 138.25714111 C-376.95976776 145.64505145 -438.64765415 161.83140808 -493.93798828 190.92626953 C-496.33068025 192.17219178 -498.74099046 193.38044385 -501.15234375 194.58984375 C-541.16944642 214.8327279 -580.6634023 241.73029716 -612.0390625 274.0390625 C-613.89097033 275.89097033 -615.80496831 277.57022858 -617.8125 279.25 C-623.14862881 283.83441225 -627.75744035 289.1091231 -632.46972656 294.31689453 C-633.93517017 295.92869547 -635.41353144 297.52722701 -636.8984375 299.12109375 C-642.86904014 305.53907638 -648.55179171 312.12977509 -654 319 C-654.49306641 319.61520508 -654.98613281 320.23041016 -655.49414062 320.86425781 C-714.06455455 394.05956953 -750.07436178 481.67141485 -775 644 C-775.09571289 645.2669873 -775.19142578 646.53397461 -775.29003906 647.83935547 C-776.35108943 663.19982636 -776.24578695 678.61046246 -776.25 694 C-776.25044186 694.74040401 -776.25088371 695.48080803 -776.25133896 696.24364853 C-776.25914968 721.260637 -775.70022066 746.10746131 -773 771 C-772.8691803 772.20707611 -772.8691803 772.20707611 -772.73571777 773.4385376 C-765.91653351 835.40064051 -751.40457517 896.92645765 -726 954 C-725.26958496 955.64597168 -725.26958496 955.64597168 -724.52441406 957.32519531 C-713.40260992 982.21417909 -700.77007325 1006.08254687 -686 1029 C-685.62182129 1029.5887793 -685.24364258 1030.17755859 -684.85400391 1030.78417969 C-682.62850381 1034.23141873 -680.33230408 1037.62429673 -678 1041 C-677.56365234 1041.63325195 -677.12730469 1042.26650391 -676.67773438 1042.91894531 C-669.78645583 1052.89218267 -662.61318682 1062.56747471 -655 1072 C-653.82630859 1073.46566406 -653.82630859 1073.46566406 -652.62890625 1074.9609375 C-648.34868363 1080.25743481 -643.93069404 1085.39190364 -639.3359375 1090.41796875 C-638.09124103 1091.79379545 -636.85169069 1093.17504259 -635.65234375 1094.59057617 C-630.13348353 1101.07024794 -624.12819769 1107.05789648 -618.11328125 1113.07202148 C-616.26271033 1114.92477468 -614.42029924 1116.78538706 -612.578125 1118.64648438 C-606.47051143 1124.78289197 -600.30650811 1130.60508647 -593.50878906 1135.98754883 C-591.06024401 1137.95167465 -588.73069111 1140.00067392 -586.40625 1142.109375 C-581.96437558 1146.0975944 -577.29548822 1149.6993709 -572.5 1153.25 C-571.62980225 1153.89694824 -570.75960449 1154.54389648 -569.86303711 1155.21044922 C-567.24754642 1157.14793799 -564.62549196 1159.07609136 -562 1161 C-561.26152832 1161.54237305 -560.52305664 1162.08474609 -559.76220703 1162.64355469 C-543.40615932 1174.59619722 -526.14734472 1185.15998495 -508.31298828 1194.75537109 C-506.73340406 1195.60535213 -505.15635688 1196.46006058 -503.58154297 1197.31884766 C-430.74082185 1236.98656547 -344.63023686 1257.92592868 -261.7421875 1258.203125 C-260.31730621 1258.21014806 -258.89242524 1258.21723487 -257.46754456 1258.22438049 C-252.93669177 1258.24378559 -248.40589015 1258.24881499 -243.875 1258.25 C-243.10268665 1258.25044186 -242.33037331 1258.25088371 -241.53465652 1258.25133896 C-218.6183949 1258.25821426 -195.84088389 1258.05474238 -173.06506348 1255.25323486 C-170.89938826 1254.98766217 -168.73256368 1254.73335595 -166.56542969 1254.47998047 C-84.43026292 1244.75186855 -0.47525265 1217.95747861 65.2578125 1166.36132812 C66.96115217 1165.03035531 68.6798118 1163.72269823 70.40625 1162.421875 C86.83585304 1150.01367288 101.97301386 1136.21442583 116.51928711 1121.66601562 C118.1917165 1119.99578905 119.87203669 1118.33377621 121.55273438 1116.671875 C127.42226024 1110.83245562 132.92569145 1104.88709713 138.08911133 1098.39892578 C139.69608071 1096.38153966 141.33744959 1094.42626797 143.046875 1092.49609375 C160.33475809 1072.97136006 175.12787231 1050.65257894 188 1028 C188.43989258 1027.2270459 188.87978516 1026.4540918 189.33300781 1025.65771484 C215.5503607 979.26971177 233.90040163 929.79440713 246 878 C246.28037109 876.8052002 246.56074219 875.61040039 246.84960938 874.37939453 C251.03704503 856.17955844 253.87685387 837.77588086 256.64111328 819.31689453 C256.7833432 818.37159882 256.92557312 817.4263031 257.07211304 816.45236206 C257.33757452 814.68208829 257.60019052 812.91138429 257.85928345 811.14016724 C257.98016327 810.33239838 258.10104309 809.52462952 258.22558594 808.69238281 C258.32740173 808.00041809 258.42921753 807.30845337 258.53411865 806.59552002 C258.97169216 804.15770876 259.48821409 801.75446847 260.02911758 799.33778 C260.21053873 798.52588801 260.39195988 797.71399602 260.57887864 796.87750125 C260.78733371 795.94813813 260.78733371 795.94813813 261 795 C260.37074256 795.00455664 259.74148511 795.00911329 259.09315926 795.01380801 C221.79134455 795.28239358 184.48967296 795.48826228 147.18708915 795.61278395 C142.70732538 795.62779228 138.22756358 795.64332417 133.74780273 795.65917969 C132.85596971 795.66232741 131.96413669 795.66547514 131.04527842 795.66871825 C116.60806693 795.72092272 102.17142931 795.8155303 87.73455817 795.92583355 C72.91895794 796.03808564 58.10365808 796.10471212 43.28765005 796.12906194 C34.1462967 796.14552139 25.00656535 796.1974844 15.86571138 796.2949976 C9.59587604 796.35847263 3.32687808 796.3775926 -2.94325518 796.36201653 C-6.56058307 796.35433496 -10.17507954 796.36602816 -13.79190254 796.4304657 C-36.65249136 796.81811052 -36.65249136 796.81811052 -41.64206123 792.36847687 C-44.07195421 789.53596684 -45.53446073 786.42646012 -47 783 C-48.50155387 780.89618137 -48.50155387 780.89618137 -49.9765625 779.2578125 C-50.41258789 778.73590332 -50.84861328 778.21399414 -51.29785156 777.67626953 C-51.73581055 777.16435059 -52.17376953 776.65243164 -52.625 776.125 C-53.10936523 775.55765137 -53.59373047 774.99030273 -54.09277344 774.40576172 C-60.20776751 767.40595525 -67.09624004 761.20583887 -74 755 C-71.3248294 752.3248294 -68.29544905 751.61944229 -64.7734375 750.49609375 C-63.26373896 750.00281067 -61.75405533 749.50948197 -60.24438477 749.01611328 C-59.45009064 748.75896545 -58.65579651 748.50181763 -57.83743286 748.23687744 C-53.6939229 746.8917734 -49.55992556 745.51810234 -45.42578125 744.14453125 C-44.60510666 743.87195496 -43.78443207 743.59937866 -42.93888855 743.31854248 C-10.5916205 732.5528527 20.68337184 718.65485242 48 698 C48.9075 697.31808594 49.815 696.63617187 50.75 695.93359375 C65.19102588 684.60856304 79.70635737 670.58728525 88 654 C213.4 654 338.8 654 468 654 C470.25614035 670.92105263 470.25614035 670.92105263 470.6328125 677.28515625 C470.67455597 677.98091766 470.71629944 678.67667908 470.75930786 679.39352417 C470.88913258 681.61615909 471.00860634 683.83912342 471.125 686.0625 C471.16669312 686.84134552 471.20838623 687.62019104 471.25134277 688.42263794 C474.78162322 755.51413696 466.90401948 822.81877049 451 888 C450.8287561 888.70582214 450.65751221 889.41164429 450.4810791 890.13885498 C429.28495036 977.26825086 390.33598493 1060.27147989 338 1133 C337.41718262 1133.81098145 336.83436523 1134.62196289 336.23388672 1135.45751953 C320.1607751 1157.74160445 302.43011072 1178.63945219 284 1199 C283.20585693 1199.88099365 282.41171387 1200.7619873 281.59350586 1201.66967773 C275.0785477 1208.84536707 268.36712072 1215.78918578 261.5012207 1222.62915039 C259.79976222 1224.32519726 258.10378737 1226.02659821 256.40820312 1227.72851562 C250.77215733 1233.36799738 245.07055535 1238.82508573 239 1244 C237.22429779 1245.61967817 235.45291693 1247.24411718 233.6875 1248.875 C228.80112002 1253.32688655 223.76464457 1257.5330313 218.61962891 1261.68066406 C216.81015192 1263.15464863 215.01966395 1264.64990254 213.23046875 1266.1484375 C191.02236985 1284.70868836 167.47584866 1301.56319377 143 1317 C142.2054541 1317.50354004 141.4109082 1318.00708008 140.59228516 1318.52587891 C58.99263849 1370.12682256 -30.68886679 1403.23896083 -166.5 1423.25 C-167.35237244 1423.33308411 -168.20474487 1423.41616821 -169.08294678 1423.50177002 C-171.56525409 1423.74080346 -174.04805038 1423.97355915 -176.53125 1424.203125 C-177.23553131 1424.26956207 -177.93981262 1424.33599915 -178.66543579 1424.40444946 C-192.75213053 1425.66812315 -206.80064504 1426.16643101 -220.9375 1426.203125 C-222.61788459 1426.21014558 -224.2982689 1426.21723241 -225.97865295 1426.22438049 C-231.31910586 1426.24378412 -236.6595154 1426.24881436 -242 1426.25 C-242.90922588 1426.25044186 -243.81845177 1426.25088371 -244.75522995 1426.25133896 C-270.83354097 1426.25798854 -296.79966844 1426.18628229 -322.74530029 1423.25323486 C-325.12369878 1422.98610687 -327.50328217 1422.73224429 -329.88330078 1422.47998047 C-408.88359651 1414.01337025 -486.11954502 1393.69000155 -577 1352 C-577.91378418 1351.56236328 -578.82756836 1351.12472656 -579.76904297 1350.67382812 C-593.52450533 1344.05551221 -606.7854463 1336.6324177 -620 1329 C-621.1461377 1328.34281982 -621.1461377 1328.34281982 -622.31542969 1327.67236328 C-641.86692972 1316.45494599 -660.70695686 1304.16381014 -679 1291 C-679.81098145 1290.41718262 -680.62196289 1289.83436523 -681.45751953 1289.23388672 C-703.74144672 1273.16088887 -724.6402241 1255.43075067 -745 1237 C-745.88679443 1236.20005615 -746.77358887 1235.4001123 -747.68725586 1234.57592773 C-754.7060521 1228.20030495 -761.5105309 1221.64634876 -768.2019043 1214.9284668 C-769.82552229 1213.29943428 -771.45449603 1211.67589272 -773.08398438 1210.05273438 C-778.06411464 1205.07576985 -782.95873879 1200.06677876 -787.53491211 1194.71020508 C-789.74243708 1192.13334915 -792.06230182 1189.67035165 -794.375 1187.1875 C-798.59274087 1182.61702095 -802.6095264 1177.9306113 -806.5078125 1173.08203125 C-808.37869084 1170.76835882 -810.26731879 1168.47813421 -812.1796875 1166.19921875 C-820.90245741 1155.77853805 -829.0754024 1145.03799759 -837 1134 C-837.53399414 1133.25685547 -838.06798828 1132.51371094 -838.61816406 1131.74804688 C-892.0614124 1057.15914177 -931.04742784 973.62292174 -971.80859375 765.20379639 C-971.98630821 763.15764329 -972.17248895 761.11223033 -972.359375 759.06689453 C-976.15124891 716.08668093 -975.92464347 670.95244992 -972 628 C-971.86928614 626.49499825 -971.73910128 624.98995048 -971.609375 623.48486328 C-965.06123333 548.44667315 -948.63158117 474.76171414 -920 405 C-919.5045166 403.78892578 -919.0090332 402.57785156 -918.49853516 401.33007812 C-906.5836722 372.46937547 -892.80144309 344.32708926 -876.59082031 317.63037109 C-875.02601986 315.04302301 -873.48958905 312.44087031 -871.9609375 309.83203125 C-864.75634499 297.58185795 -857.02833884 285.72492418 -849 274 C-848.24251465 272.89277588 -848.24251465 272.89277588 -847.46972656 271.76318359 C-836.39439107 255.65326841 -824.60579589 239.94621021 -812 225 C-811.154375 223.99324219 -810.30875 222.98648437 -809.4375 221.94921875 C-807.12342913 219.20048118 -804.79761409 216.46193856 -802.46777344 213.7265625 C-800.94552924 211.93592528 -799.42966056 210.14001437 -797.9140625 208.34375 C-793.09787075 202.65553107 -788.28066588 197.08987377 -782.90966797 191.91064453 C-781.14717682 190.14725208 -779.5327553 188.33480713 -777.921875 186.43359375 C-773.37338994 181.19810107 -768.4749847 176.32903594 -763.5625 171.4375 C-762.20801758 170.0772168 -762.20801758 170.0772168 -760.82617188 168.68945312 C-756.2789486 164.14881526 -751.68028921 159.74220057 -746.80297852 155.55786133 C-744.02516245 153.15769284 -741.36463701 150.63608353 -738.6875 148.125 C-733.86898289 143.64257726 -728.92817067 139.3856427 -723.79296875 135.265625 C-721.29734136 133.24119999 -718.85312473 131.16747613 -716.41943359 129.06933594 C-709.237922 122.89380333 -701.75988715 117.19245898 -694.13330078 111.58007812 C-692.00215246 110.00159427 -689.88850774 108.4019613 -687.77734375 106.796875 C-660.13065679 85.90813043 -630.27114992 67.68779182 -599.70068359 51.43847656 C-597.01902878 50.01013538 -594.34735829 48.56427135 -591.67578125 47.1171875 C-519.11016391 8.15981005 -438.31260337 -16.45628924 0 0 Z " fill="#FFFFFF" transform="translate(1589,636)"/>
<path d="M0 0 C1.05562637 -0.00058914 2.11125275 -0.00117828 3.1988678 -0.00178528 C37.06814675 -0.01511591 70.72374686 0.53161712 104.5 3.25 C106.37807888 3.39617056 108.25617124 3.5421679 110.13427734 3.68798828 C208.16196901 11.4210687 305.06129708 30.3098592 537.5 111.25 C538.11800476 111.52418762 538.73600952 111.79837524 539.3727417 112.08087158 C577.97771865 129.22122376 616.04326372 147.61166916 652.68945312 168.64550781 C655.5290843 170.26660372 658.37951586 171.86682912 661.234375 173.4609375 C674.85595524 181.07425274 688.24828163 189.00980677 701.5 197.25 C702.36318848 197.78641113 703.22637695 198.32282227 704.11572266 198.87548828 C735.41072811 218.39979933 765.92833159 239.20834986 795.5 261.25 C796.08749023 261.68683105 796.67498047 262.12366211 797.28027344 262.57373047 C805.08618535 268.37987799 812.81277965 274.28802373 820.5 280.25 C821.04881836 280.67506836 821.59763672 281.10013672 822.16308594 281.53808594 C835.02330926 291.5154571 847.57830121 301.86653707 859.96899414 312.42016602 C863.27183388 315.22916196 866.62110066 317.97074808 870 320.6875 C875.38142204 325.06334245 880.43998569 329.74308815 885.5078125 334.47265625 C887.82240262 336.63077719 890.16895746 338.7417381 892.5625 340.8125 C896.80590294 344.49011588 900.94541047 348.27837751 905.07055664 352.08764648 C907.21237052 354.06498407 909.36012018 356.03543926 911.51342773 358.00024414 C923.21007192 368.73768614 934.39604256 379.99273506 945.609375 391.22900391 C948.45102071 394.07639446 951.29720162 396.91920311 954.14469147 399.76074791 C956.36857918 401.98100319 958.5900568 404.20365767 960.81083679 406.42702103 C961.85933909 407.47618267 962.90856312 408.52462362 963.95857239 409.57227707 C969.68793546 415.29157944 975.23461653 421.09821962 980.5 427.25 C981.72954633 428.59259467 982.96656465 429.92849462 984.21875 431.25 C985.15267578 432.24 985.15267578 432.24 986.10546875 433.25 C986.73066406 433.91 987.35585937 434.57 988 435.25 C992.9565552 440.48248714 997.79312585 445.79142062 1002.5 451.25 C1002.98839355 451.8162207 1003.47678711 452.38244141 1003.97998047 452.96582031 C1005.38525733 454.59986317 1006.78704287 456.23682512 1008.1875 457.875 C1009.22910899 459.09249726 1010.27077741 460.30994368 1011.3125 461.52734375 C1011.8384375 462.14206543 1012.364375 462.75678711 1012.90625 463.39013672 C1014.47623688 465.22226908 1016.04997431 467.05110477 1017.625 468.87890625 C1023.68863443 475.92042204 1029.64590887 483.03249677 1035.5 490.25 C1036.50721634 491.47575053 1037.51507076 492.70097692 1038.5234375 493.92578125 C1044.49421838 501.19705712 1050.30584104 508.55216028 1055.90942383 516.11035156 C1059.11588806 520.42898434 1062.38964166 524.68597992 1065.71362305 528.91479492 C1071.8507074 536.72265582 1077.73484494 544.65333537 1083.40234375 552.80786133 C1085.33501111 555.58580685 1087.27888086 558.35485217 1089.24169922 561.11157227 C1096.28807039 571.01024641 1103.12673189 581.03374311 1109.85449219 591.15136719 C1111.49590851 593.61884941 1113.14223864 596.08299949 1114.7890625 598.546875 C1125.63431073 614.80606825 1136.06729215 631.29283086 1146 648.125 C1146.40519867 648.80999573 1146.81039734 649.49499146 1147.22787476 650.20074463 C1159.12072824 670.30655447 1170.56223522 690.60617357 1181.5 711.25 C1182.35464844 712.86237549 1182.35464844 712.86237549 1183.2265625 714.50732422 C1226.4372818 796.30432796 1261.01204266 883.03031048 1285.5 972.25 C1285.73120544 973.0903479 1285.96241089 973.9306958 1286.20062256 974.79650879 C1308.12035726 1054.63845655 1322.61252147 1136.01190149 1329.75 1218.5 C1329.86569839 1219.81588608 1329.86569839 1219.81588608 1329.98373413 1221.15835571 C1330.5641626 1227.85079642 1331.05084178 1234.54754588 1331.5 1241.25 C1331.6308046 1243.1649527 1331.6308046 1243.1649527 1331.76425171 1245.11859131 C1333.52767204 1271.44854709 1333.84503854 1297.73825947 1333.81567383 1324.12109375 C1333.81106662 1328.59873568 1333.81789833 1333.07610432 1333.83618164 1337.55371094 C1333.93649238 1362.4023815 1333.58636283 1387.15424456 1332.125 1411.96484375 C1332.03305327 1413.52944021 1332.03305327 1413.52944021 1331.93924904 1415.12564468 C1325.84357872 1516.49146717 1308.25898287 1617.82912603 1275.5 1725.25 C1275.20565063 1726.19172058 1274.91130127 1727.13344116 1274.60803223 1728.10369873 C1247.01470615 1816.12666318 1211.17216661 1902.47493742 1165.07226562 1982.50390625 C1163.46238019 1985.31570615 1161.87640561 1988.13979725 1160.296875 1990.96875 C1152.68215434 2004.59624388 1144.74327263 2017.9933294 1136.5 2031.25 C1135.96358887 2032.11318848 1135.42717773 2032.97637695 1134.87451172 2033.86572266 C1115.35020067 2065.16072811 1094.54165014 2095.67833159 1072.5 2125.25 C1072.06316895 2125.83749023 1071.62633789 2126.42498047 1071.17626953 2127.03027344 C1065.37012201 2134.83618535 1059.46197627 2142.56277965 1053.5 2150.25 C1053.07493164 2150.79881836 1052.64986328 2151.34763672 1052.21191406 2151.91308594 C1041.02193661 2166.33628487 1029.34591587 2180.36283874 1017.5 2194.25 C1017.00757812 2194.82878906 1016.51515625 2195.40757812 1016.0078125 2196.00390625 C1010.25760004 2202.76113561 1004.46373371 2209.46439965 998.5 2216.03515625 C996.70396471 2218.02412502 994.94046697 2220.03563194 993.1875 2222.0625 C988.74506767 2227.16003756 984.1320381 2232.10224089 979.52963257 2237.05487061 C977.99559972 2238.71398894 976.46823278 2240.37927401 974.94407654 2242.04747009 C968.02276413 2249.61251208 960.92976309 2256.96942015 953.671875 2264.2109375 C952.58703373 2265.29645563 951.50234065 2266.38212188 950.41778564 2267.46792603 C948.17076306 2269.71640453 945.92198933 2271.96311172 943.671875 2274.20849609 C940.80873997 2277.06590035 937.95016714 2279.92782019 935.09287643 2282.79106712 C932.86403935 2285.02353789 930.6328014 2287.25359693 928.40085602 2289.48295975 C927.34611201 2290.53704403 926.29208978 2291.59185112 925.23885345 2292.64744186 C920.01416451 2297.8812619 914.75958423 2303.02848341 909.14083862 2307.84274292 C907.16202569 2309.53986198 905.26696879 2311.31188502 903.38671875 2313.1171875 C902.70182373 2313.77050049 902.01692871 2314.42381348 901.3112793 2315.09692383 C900.61043213 2315.76618896 899.90958496 2316.4354541 899.1875 2317.125 C893.65764789 2322.37173136 888.07487485 2327.37207368 882.10546875 2332.11328125 C879.13299441 2334.5509776 876.31230117 2337.13191356 873.5 2339.75 C868.92563774 2344.00097436 864.21686457 2348.01471211 859.3515625 2351.93359375 C856.17380616 2354.51497664 853.05398462 2357.15785149 849.9375 2359.8125 C844.53964685 2364.39784083 839.06319398 2368.86587101 833.5 2373.25 C832.01886719 2374.425625 832.01886719 2374.425625 830.5078125 2375.625 C814.83477131 2388.03606738 798.90115684 2400.08958055 782.63574219 2411.71289062 C780.59176258 2413.18395779 778.56318517 2414.67364212 776.5390625 2416.171875 C761.25700761 2427.43865212 745.34922273 2437.80561699 729.5 2448.25 C728.1070874 2449.16821533 728.1070874 2449.16821533 726.68603516 2450.10498047 C721.98392171 2453.19583247 717.25703757 2456.2443961 712.5 2459.25 C711.75621094 2459.72066895 711.01242187 2460.19133789 710.24609375 2460.67626953 C679.35594791 2480.15840826 647.54782884 2498.16368251 615.09472656 2514.90185547 C612.67603868 2516.15853542 610.26928188 2517.43459917 607.8671875 2518.72265625 C529.85336552 2560.52001597 444.95081104 2592.04007091 112.9375 2659.5 C111.60481583 2659.61569839 111.60481583 2659.61569839 110.24520874 2659.73373413 C75.50104937 2662.70743006 40.71587098 2663.63309361 5.8582077 2663.56785583 C2.81816992 2663.56239797 -0.22186003 2663.56004284 -3.26190186 2663.5579834 C-35.43330164 2663.52407637 -67.41782021 2662.81907946 -99.5 2660.25 C-101.38101679 2660.10393505 -103.26203888 2659.95793836 -105.14306641 2659.81201172 C-194.85449179 2652.73567329 -284.16824091 2636.71153871 -370.5 2611.25 C-371.62876556 2610.91769379 -371.62876556 2610.91769379 -372.78033447 2610.57867432 C-432.84463425 2592.85646373 -491.49612842 2571.19251217 -548.5 2545.25 C-549.64952148 2544.72744629 -550.79904297 2544.20489258 -551.98339844 2543.66650391 C-580.41228113 2530.69116972 -608.63972278 2517.01717627 -635.89208984 2501.70996094 C-638.71826389 2500.12781145 -641.55569833 2498.56712613 -644.39453125 2497.0078125 C-659.27029963 2488.80239696 -673.79417795 2480.09415305 -688.2734375 2471.21728516 C-692.10051487 2468.88385678 -695.949948 2466.58998744 -699.80444336 2464.30224609 C-708.14390635 2459.34873658 -716.28087796 2454.18687814 -724.30126953 2448.734375 C-726.87720189 2446.99534894 -729.46709902 2445.27824824 -732.05859375 2443.5625 C-745.01094981 2434.98305523 -757.84078971 2426.25665657 -770.5 2417.25 C-771.27037598 2416.7024707 -772.04075195 2416.15494141 -772.83447266 2415.59082031 C-783.24252605 2408.17692474 -793.46442312 2400.54542826 -803.57617188 2392.73291016 C-805.34269351 2391.37125376 -807.11493774 2390.01763852 -808.890625 2388.66796875 C-816.30714597 2383.01424156 -823.56018322 2377.18145385 -830.78125 2371.28125 C-833.73111391 2368.87150201 -836.70180078 2366.49029419 -839.6875 2364.125 C-844.07055112 2360.63179651 -848.34569867 2357.02033076 -852.61181641 2353.38623047 C-856.05595484 2350.45623318 -859.540656 2347.58675907 -863.0625 2344.75 C-868.13319551 2340.6254401 -872.93192479 2336.25383401 -877.72265625 2331.8125 C-880.61364944 2329.145142 -883.55801642 2326.55176397 -886.52734375 2323.97265625 C-897.14240483 2314.70287024 -907.67000653 2305.23248456 -917.54469299 2295.17286682 C-919.39573067 2293.35253942 -921.30093313 2291.65563627 -923.27319336 2289.96850586 C-927.28073042 2286.48382386 -931.06845173 2282.82670016 -934.81640625 2279.06640625 C-935.47656235 2278.40720688 -936.13671844 2277.74800751 -936.81687927 2277.0688324 C-938.20035506 2275.68603165 -939.58259083 2274.30198924 -940.96362305 2272.91674805 C-943.05731669 2270.81769657 -945.15629874 2268.7240406 -947.25585938 2266.63085938 C-948.60969571 2265.27636214 -949.96322175 2263.92155469 -951.31640625 2262.56640625 C-951.93326797 2261.95156876 -952.5501297 2261.33673126 -953.1856842 2260.70326233 C-956.94462473 2256.92438419 -960.51144467 2253.02580477 -963.98631287 2248.98387146 C-965.89288538 2246.79996463 -967.91977559 2244.76812815 -970 2242.75 C-973.30607347 2239.48275625 -976.40745461 2236.12984369 -979.4296875 2232.6015625 C-981.62712919 2230.10560043 -983.88962332 2227.6817712 -986.16577148 2225.2578125 C-991.44825297 2219.63201876 -996.49716269 2213.92173288 -1001.32421875 2207.89453125 C-1003.630317 2205.09160752 -1006.04151531 2202.41996725 -1008.5 2199.75 C-1012.55983645 2195.33359856 -1016.39323821 2190.78836478 -1020.16015625 2186.12109375 C-1022.23737978 2183.57224684 -1024.34991091 2181.06253675 -1026.48583984 2178.56323242 C-1032.17289592 2171.90767769 -1037.62996544 2165.09961198 -1042.99609375 2158.18359375 C-1044.59512203 2156.12770025 -1046.20320039 2154.07911162 -1047.8125 2152.03125 C-1056.2596576 2141.26052919 -1064.44538533 2130.31672179 -1072.5 2119.25 C-1073.31766846 2118.12875732 -1073.31766846 2118.12875732 -1074.15185547 2116.98486328 C-1077.96012379 2111.75807507 -1081.73747383 2106.50978825 -1085.5 2101.25 C-1086.27102051 2100.17685547 -1086.27102051 2100.17685547 -1087.05761719 2099.08203125 C-1104.1913353 2075.17850967 -1120.28462846 2050.41523835 -1135.5 2025.25 C-1136.24968701 2024.02194429 -1136.99966889 2022.79406853 -1137.75 2021.56640625 C-1183.55350541 1946.27669811 -1221.90458636 1866.42695226 -1259.5 1760.25 C-1259.77716858 1759.43416443 -1260.05433716 1758.61832886 -1260.33990479 1757.777771 C-1293.99318273 1658.6796795 -1315.47063718 1555.60442141 -1327.5 1413.25 C-1327.56058594 1412.29895386 -1327.62117188 1411.34790771 -1327.68359375 1410.36804199 C-1331.00694837 1357.23360214 -1330.88437432 1303.37612584 -1327.5 1250.25 C-1327.40525391 1248.7576886 -1327.40525391 1248.7576886 -1327.30859375 1247.23522949 C-1320.65457936 1143.97161278 -1302.18264012 1042.36207823 -1272.5 943.25 C-1272.25056641 942.41660095 -1272.00113281 941.5832019 -1271.74414062 940.72454834 C-1253.17022454 878.83391943 -1229.32183922 818.55400235 -1201.5 760.25 C-1200.94924805 759.08823242 -1200.39849609 757.92646484 -1199.83105469 756.72949219 C-1187.74840379 731.26298184 -1174.97944933 706.2353741 -1160.94189453 681.78271484 C-1159.19589123 678.71582724 -1157.49787315 675.6244415 -1155.80444336 672.52832031 C-1145.47008553 653.66079059 -1134.13317487 635.34008537 -1122.5 617.25 C-1121.99823242 616.46915039 -1121.49646484 615.68830078 -1120.97949219 614.88378906 C-1117.18263786 608.98634362 -1113.35113717 603.11212254 -1109.5 597.25 C-1108.86513672 596.28336426 -1108.23027344 595.31672852 -1107.57617188 594.32080078 C-1098.85188818 581.06594454 -1089.91426374 568.02347629 -1080.5 555.25 C-1079.33438247 553.66034169 -1078.16902424 552.07049322 -1077.00390625 550.48046875 C-1062.43882364 530.63187598 -1047.55223043 511.12535966 -1031.9765625 492.05859375 C-1030.66952459 490.4576452 -1029.36576644 488.85402024 -1028.0625 487.25 C-1022.77280435 480.75123106 -1017.38730369 474.33820922 -1011.95458984 467.95898438 C-1010.97460698 466.80761142 -1009.99578855 465.65524646 -1009.01806641 464.50195312 C-1002.79837437 457.16559431 -996.4691244 449.96240907 -989.9375 442.90234375 C-987.98256122 440.77509466 -986.07117955 438.62727748 -984.1875 436.4375 C-979.08688235 430.56332897 -973.71273826 424.93584589 -968.38720703 419.26660156 C-966.61272506 417.37045395 -964.84967175 415.46442866 -963.08984375 413.5546875 C-953.95365516 403.68598164 -944.49957694 394.14187541 -935 384.625 C-934.34370605 383.96611786 -933.68741211 383.30723572 -933.01123047 382.62838745 C-920.39787126 369.97579877 -920.39787126 369.97579877 -914.05273438 364.58447266 C-911.91852322 362.75025911 -909.95862001 360.76888524 -908 358.75 C-904.73275625 355.44392653 -901.37984369 352.34254539 -897.8515625 349.3203125 C-895.35560043 347.12287081 -892.9317712 344.86037668 -890.5078125 342.58422852 C-884.88201876 337.30174703 -879.17173288 332.25283731 -873.14453125 327.42578125 C-870.34160752 325.119683 -867.66996725 322.70848469 -865 320.25 C-860.19213097 315.83488646 -855.22590675 311.68345518 -850.14599609 307.58691406 C-847.54301114 305.4727127 -844.96432359 303.32928671 -842.3815918 301.19042969 C-834.79851084 294.9160567 -827.1455232 288.74841209 -819.37353516 282.70996094 C-817.33082393 281.11816876 -815.29608278 279.51650696 -813.26171875 277.9140625 C-803.58562216 270.31179306 -793.74378386 262.99330132 -783.72802734 255.84570312 C-781.53689036 254.27642071 -779.35482789 252.69539309 -777.17578125 251.109375 C-759.4569835 238.21772442 -741.50905724 225.68420749 -723.04638672 213.87841797 C-720.38314124 212.17526866 -717.72478022 210.46464753 -715.06640625 208.75390625 C-703.01334607 201.01831268 -690.8352512 193.52639934 -678.5 186.25 C-677.12835693 185.43861572 -677.12835693 185.43861572 -675.72900391 184.61083984 C-650.40452612 169.65088679 -624.69181448 155.5827455 -598.47167969 142.26953125 C-595.94043836 140.98409342 -593.41218092 139.69318574 -590.88769531 138.39453125 C-572.49576033 128.94029404 -553.77950019 120.40953824 -534.83154297 112.14453125 C-531.4611947 110.67333194 -528.09833384 109.18618692 -524.73921204 107.68955994 C-492.02196992 93.11911607 -458.40796771 80.74306453 -424.5 69.25 C-423.3246167 68.85101501 -423.3246167 68.85101501 -422.12548828 68.44396973 C-330.36321195 37.35216719 -234.91398948 16.563317 -68.5 1.25 C-67.04719481 1.16383316 -65.59439576 1.07756283 -64.14160156 0.99121094 C-42.78791362 -0.18829145 -21.37883021 0.00545985 0 0 Z M-77.01989746 76.06964111 C-79.66156756 76.26174957 -82.30383018 76.44359215 -84.94628906 76.62451172 C-133.80197238 80.01482616 -182.36391093 86.25291023 -230.5 95.25 C-231.3853241 95.41417419 -232.27064819 95.57834839 -233.18280029 95.74749756 C-280.8857922 104.61273317 -328.31258888 116.37165016 -374.5 131.25 C-375.64967255 131.61998108 -375.64967255 131.61998108 -376.8225708 131.99743652 C-387.39557393 135.4081538 -397.92757297 138.93312617 -408.43463135 142.54156494 C-410.43119679 143.22640004 -412.42903821 143.90737671 -414.42724609 144.58740234 C-447.40058696 155.83234603 -479.70737568 169.02195966 -511.5 183.25 C-512.56250977 183.7234082 -513.62501953 184.19681641 -514.71972656 184.68457031 C-531.29275689 192.10891949 -547.55472791 200.1647173 -563.8125 208.25 C-564.81545105 208.74666168 -565.8184021 209.24332336 -566.85174561 209.7550354 C-579.91351049 216.23217673 -592.7120016 223.05434431 -605.35546875 230.31542969 C-610.25521656 233.12780305 -615.21099872 235.82643164 -620.1875 238.5 C-633.23857397 245.60453865 -645.85956094 253.44659182 -658.5 261.25 C-659.79671631 262.04809082 -659.79671631 262.04809082 -661.11962891 262.86230469 C-683.75733528 276.83176043 -705.84818372 291.80382001 -727.5 307.25 C-728.2616748 307.79172852 -729.02334961 308.33345703 -729.80810547 308.89160156 C-740.88542634 316.78159114 -751.74718107 324.92438337 -762.5 333.25 C-763.2640918 333.83990723 -764.02818359 334.42981445 -764.81542969 335.03759766 C-773.81496625 341.98705392 -782.73994859 349.00030228 -791.5 356.25 C-793.27068118 357.68768741 -795.04151892 359.12518202 -796.8125 360.5625 C-802.85972775 365.51023179 -808.77926347 370.60098209 -814.69726562 375.70166016 C-816.47485913 377.22840691 -818.25952015 378.74641708 -820.046875 380.26171875 C-826.45463465 385.70258769 -832.75081731 391.23176213 -838.88696289 396.97851562 C-841.62273411 399.53785825 -844.39470957 402.04078133 -847.22558594 404.49487305 C-861.78789554 417.21922225 -875.39905368 430.98794534 -889.05126953 444.67089844 C-891.63501777 447.26041167 -894.22332744 449.84531233 -896.81292152 452.42897797 C-898.84293509 454.45535774 -900.87053655 456.48413769 -902.89744186 458.5136261 C-904.30680247 459.92395909 -905.71814285 461.33231282 -907.12954712 462.74060059 C-911.57279575 467.20003055 -915.89435692 471.70465499 -919.98373413 476.4921875 C-922.72367368 479.66860932 -925.6234228 482.69776917 -928.5 485.75 C-933.26652725 490.83599791 -937.97506833 495.94658546 -942.5 501.25 C-943.38646428 502.28277056 -944.27321035 503.31529928 -945.16015625 504.34765625 C-947.21650221 506.74227264 -949.26933468 509.13984739 -951.3203125 511.5390625 C-953.38970698 513.9582138 -955.46777307 516.36938733 -957.5546875 518.7734375 C-962.94415123 524.99433365 -968.17931764 531.29415856 -973.22167969 537.80004883 C-976.25603513 541.70390109 -979.37392549 545.5249453 -982.54394531 549.31933594 C-990.02211482 558.27579627 -996.97943193 567.53859523 -1003.8359375 576.97607422 C-1006.39389348 580.47149705 -1009.01136057 583.92115501 -1011.625 587.375 C-1021.665066 600.69915313 -1031.12201547 614.45466873 -1040.5 628.25 C-1040.8933252 628.82830566 -1041.28665039 629.40661133 -1041.69189453 630.00244141 C-1061.71564413 659.53472272 -1080.32598984 689.98088153 -1097.5 721.25 C-1098.51411736 723.08344705 -1099.52843499 724.91678333 -1100.54296875 726.75 C-1108.46180203 741.111671 -1116.02168773 755.65501325 -1123.5 770.25 C-1123.97791992 771.1771582 -1124.45583984 772.10431641 -1124.94824219 773.05957031 C-1169.1541852 858.95722343 -1200.63523653 951.76183761 -1197.84033203 1709.92431641 C-1196.41092323 1714.37192248 -1194.95704309 1718.81138517 -1193.5 1723.25 C-1193.09841675 1724.478255 -1193.09841675 1724.478255 -1192.6887207 1725.73132324 C-1179.36098234 1766.46487797 -1164.1516058 1806.42000328 -1146.33990479 1845.4105835 C-1145.51901295 1847.20836107 -1144.70160331 1849.00772737 -1143.88427734 1850.80712891 C-1140.47223352 1858.31148945 -1137.00914512 1865.7905735 -1133.5 1873.25 C-1132.74807373 1874.84859863 -1132.74807373 1874.84859863 -1131.98095703 1876.47949219 C-1125.91653405 1889.33152974 -1119.66720718 1902.05087607 -1112.93701172 1914.56738281 C-1111.29099267 1917.64017542 -1109.66305146 1920.7222562 -1108.03515625 1923.8046875 C-1099.8927629 1939.17754319 -1091.39738613 1954.29846958 -1082.5 1969.25 C-1081.28385171 1971.30729021 -1080.06770591 1973.3645819 -1078.8515625 1975.421875 C-1060.3608966 2006.5862196 -1040.47014533 2037.01387852 -1018.99169922 2066.20947266 C-1017.41803658 2068.36211952 -1015.8651275 2070.52856638 -1014.31640625 2072.69921875 C-1007.16466557 2082.71273116 -999.7596402 2092.49212526 -992.14599609 2102.15869141 C-990.58869722 2104.13730638 -989.03735583 2106.12041168 -987.48828125 2108.10546875 C-979.72398267 2118.04489117 -971.75984362 2127.80253731 -963.58813477 2137.40991211 C-960.65716339 2140.86139859 -957.78285249 2144.35218263 -954.9375 2147.875 C-951.06187067 2152.63807218 -946.98765711 2157.18364249 -942.83203125 2161.703125 C-940.87594748 2163.83941749 -938.95812303 2165.99780657 -937.0625 2168.1875 C-932.78869034 2173.10188066 -928.36407622 2177.87764172 -923.95263672 2182.66796875 C-922.50645626 2184.24296865 -921.06672628 2185.8236171 -919.62890625 2187.40625 C-915.00851333 2192.48549573 -910.33348533 2197.4716213 -905.43310547 2202.28442383 C-903.71208715 2204.03435039 -902.12440361 2205.8242473 -900.54296875 2207.69921875 C-895.85461751 2213.09200504 -890.78980595 2218.10993054 -885.73022461 2223.15014648 C-884.06573723 2224.8092732 -882.40666553 2226.47368051 -880.74804688 2228.13867188 C-875.68945084 2233.20010318 -870.59735016 2238.16632506 -865.15209961 2242.81616211 C-862.81402566 2244.84534909 -860.6588342 2247.03281893 -858.5 2249.25 C-855.05223317 2252.73433405 -851.54086066 2256.03212816 -847.81640625 2259.21484375 C-845.3313174 2261.39820175 -842.92116343 2263.64930807 -840.51000977 2265.91357422 C-834.88366179 2271.19699006 -829.17254119 2276.24651532 -823.14453125 2281.07421875 C-820.34160752 2283.380317 -817.66996725 2285.79151531 -815 2288.25 C-809.67375463 2293.14500107 -804.13132248 2297.71276303 -798.5 2302.25 C-796.74908206 2303.68638178 -794.99909317 2305.12389674 -793.25 2306.5625 C-791.33467143 2308.12663997 -789.41791048 2309.68902699 -787.5 2311.25 C-786.96455566 2311.68650879 -786.42911133 2312.12301758 -785.87744141 2312.57275391 C-775.8116684 2320.76112305 -765.48857717 2328.57549412 -755.08056641 2336.32226562 C-752.53950144 2338.22049164 -750.00843785 2340.13125267 -747.48046875 2342.046875 C-718.61084359 2363.90380782 -688.40588684 2384.37296651 -657.5 2403.25 C-656.36860596 2403.94246826 -656.36860596 2403.94246826 -655.21435547 2404.64892578 C-633.0265588 2418.18608242 -610.45444589 2431.05994226 -587.5 2443.25 C-586.13174072 2443.97751465 -586.13174072 2443.97751465 -584.73583984 2444.71972656 C-578.01715282 2448.28199152 -571.26638259 2451.77929915 -564.5 2455.25 C-563.33033691 2455.85183105 -562.16067383 2456.45366211 -560.95556641 2457.07373047 C-539.81224982 2467.93122691 -518.32246942 2477.83772698 -496.5 2487.25 C-495.82153015 2487.54326172 -495.1430603 2487.83652344 -494.44403076 2488.13867188 C-416.54190922 2521.78809675 -335.44539895 2546.9027189 14.5 2590.25 C16.47154053 2590.22317139 16.47154053 2590.22317139 18.48291016 2590.19580078 C95.3981603 2589.06853332 172.03524781 2581.17464712 247.5 2566.25 C248.35539368 2566.08111267 249.21078735 2565.91222534 250.09210205 2565.73822021 C295.19539964 2556.79289873 339.69907372 2545.2280889 383.5 2531.25 C384.68184875 2530.87325134 384.68184875 2530.87325134 385.88757324 2530.4888916 C433.49906779 2515.27412405 480.14326299 2497.26316854 525.5 2476.25 C526.17695923 2475.9365564 526.85391846 2475.62311279 527.5513916 2475.3001709 C552.25355944 2463.8516526 576.71753241 2452.08982817 600.53955078 2438.88623047 C603.65460765 2437.16454886 606.77799001 2435.45865253 609.90234375 2433.75390625 C625.16767423 2425.39117943 640.09376798 2416.59138283 654.90698242 2407.45532227 C657.46351435 2405.88112815 660.03032699 2404.32512735 662.6027832 2402.77709961 C673.551143 2396.17225915 684.24539986 2389.23160224 694.8684082 2382.11645508 C697.56105333 2380.31346868 700.25777174 2378.5167067 702.95507812 2376.72070312 C717.18793795 2367.22463913 731.24905369 2357.49668047 745 2347.3125 C745.78205811 2346.73459717 746.56411621 2346.15669434 747.36987305 2345.5612793 C763.1405778 2333.87427341 778.71449779 2321.89795372 793.8671875 2309.41796875 C795.61729526 2307.97685627 797.37249612 2306.54190597 799.1328125 2305.11328125 C806.09348367 2299.46154096 812.90631992 2293.65140088 819.69726562 2287.79833984 C821.47485913 2286.27159309 823.25952015 2284.75358292 825.046875 2283.23828125 C831.45463465 2277.79741231 837.75081731 2272.26823787 843.88696289 2266.52148438 C846.62206952 2263.96276347 849.39336172 2261.46048059 852.22363281 2259.00708008 C866.63502221 2246.41481037 880.11366427 2232.79786114 893.62402344 2219.25634766 C896.1472369 2216.72736755 898.67501358 2214.20300302 901.20407295 2211.67987061 C903.18776379 2209.69981429 905.1690415 2207.71735706 907.14962387 2205.73419189 C908.52574605 2204.35709792 909.90384691 2202.98198212 911.28201294 2201.60693359 C915.70284414 2197.16962149 919.98028772 2192.67181048 924.06277466 2187.92080688 C925.70453122 2186.01222785 927.40778191 2184.1740524 929.1484375 2182.35546875 C929.75655273 2181.71577148 930.36466797 2181.07607422 930.99121094 2180.41699219 C931.61286133 2179.76375977 932.23451172 2179.11052734 932.875 2178.4375 C937.93704326 2173.08279574 942.73738997 2167.6549314 947.328125 2161.890625 C949.78043277 2158.90904218 952.37090081 2156.07443205 955 2153.25 C959.25863476 2148.66733868 963.27980062 2143.95054923 967.203125 2139.07421875 C969.22554757 2136.58746446 971.29219989 2134.14669795 973.38256836 2131.71704102 C978.68664246 2125.54173889 983.68335279 2119.17551683 988.5949707 2112.68457031 C992.13231568 2108.01542105 995.74823774 2103.42470115 999.4375 2098.875 C1010.21099547 2085.52736974 1020.12367568 2071.51031846 1029.95068359 2057.45849609 C1031.56995115 2055.15028709 1033.20015634 2052.85009158 1034.83203125 2050.55078125 C1043.71962464 2037.99457425 1052.19130033 2025.19552006 1060.5 2012.25 C1061.02303711 2011.43708496 1061.54607422 2010.62416992 1062.08496094 2009.78662109 C1081.60629926 1979.38693126 1099.72409345 1948.07727209 1116.52740479 1916.10015869 C1117.51847331 1914.2148584 1118.51184936 1912.3307858 1119.50537109 1910.44677734 C1128.47456917 1893.41650274 1136.9935191 1876.24952589 1144.93212891 1858.70947266 C1146.49883637 1855.25256753 1148.082472 1851.80379015 1149.66796875 1848.35546875 C1176.05241393 1790.63118557 1197.58358258 1730.39844958 1214.5 1669.25 C1214.73440796 1668.40475769 1214.96881592 1667.55951538 1215.21032715 1666.68865967 C1240.18974162 1576.41131352 1254.59332313 1483.46190575 1259.703125 1357.5859375 C1259.71015202 1355.67399067 1259.71723878 1353.76204406 1259.72438049 1351.85009766 C1259.74376421 1345.77506161 1259.74881509 1339.70006386 1259.75 1333.625 C1259.75044186 1332.58799202 1259.75088371 1331.55098404 1259.75133896 1330.48255157 C1259.75837491 1298.96811572 1259.46403426 1267.60383256 1256.75323486 1236.18505859 C1256.48900683 1233.12258627 1256.23429193 1230.05940434 1255.97998047 1226.99609375 C1247.84314516 1130.33203738 1228.90177402 1034.75673792 1191.21490479 920.33154297 C1190.51801457 918.3024519 1189.82402278 916.27238756 1189.13037109 914.2421875 C1178.67104683 883.70101773 1166.55367632 853.77090481 1153.5 824.25 C1153.21979004 823.61545898 1152.93958008 822.98091797 1152.65087891 822.32714844 C1137.75762442 788.64458407 1121.68781761 755.28649947 1103.5 723.25 C1102.91653809 722.21198242 1102.33307617 721.17396484 1101.73193359 720.10449219 C1078.49561986 678.77037895 1053.10862044 638.81253702 1025.5 600.25 C1024.96922852 599.50669434 1024.43845703 598.76338867 1023.89160156 597.99755859 C1017.37513651 588.88024048 1010.77739266 579.85054572 1003.87792969 571.01806641 C1002.32128818 569.02068905 1000.77373625 567.01643812 999.2265625 565.01171875 C989.21666863 552.06061514 979.00296342 539.29327385 968.38427734 526.83520508 C965.51857856 523.47055361 962.71432767 520.06320869 959.9375 516.625 C956.06420728 511.86479947 951.99240008 507.32195216 947.83984375 502.8046875 C945.84165152 500.62302185 943.87851111 498.41988691 941.9375 496.1875 C937.84929622 491.48940102 933.68258861 486.86412553 929.5 482.25 C929.05043945 481.75387207 928.60087891 481.25774414 928.13769531 480.74658203 C923.27292009 475.38522941 918.39408287 470.0668868 913.21864319 465.00108337 C911.48297195 463.23265053 909.87081226 461.39987645 908.25952148 459.51782227 C904.69291246 455.41958341 900.9442543 451.54925146 897.09765625 447.71484375 C896.41626083 447.03249161 895.73486542 446.35013947 895.03282166 445.64710999 C893.60294259 444.21655563 892.17182089 442.78724233 890.73950195 441.35913086 C888.56802289 439.19300926 886.40193675 437.02159826 884.23632812 434.84960938 C882.83625798 433.45020013 881.43587762 432.05110116 880.03515625 430.65234375 C879.39844498 430.01360825 878.7617337 429.37487274 878.10572815 428.71678162 C874.27332539 424.90394325 870.32662971 421.27941269 866.22618103 417.7559967 C864.04438737 415.85250338 862.01559693 413.82761529 860 411.75 C856.69013302 408.40066271 853.29253051 405.25074044 849.71875 402.1875 C847.5160873 400.26404807 845.36703514 398.28910099 843.22363281 396.30004883 C838.0386565 391.49001915 832.7271118 386.93279731 827.21484375 382.49609375 C824.39326505 380.1616941 821.69409288 377.73009402 819 375.25 C814.1935928 370.83622888 809.22889917 366.6863969 804.15039062 362.59130859 C802.251612 361.04812963 800.36744261 359.48809203 798.484375 357.92578125 C790.57286004 351.363656 782.61407084 344.91095546 774.41748047 338.70654297 C772.1587958 336.99081688 769.90949763 335.26311272 767.66015625 333.53515625 C757.09155429 325.42851364 746.43830708 317.46609969 735.58837891 309.73974609 C733.64092153 308.35052644 731.70063621 306.95188177 729.76171875 305.55078125 C708.58920403 290.33903408 686.71274328 275.89394119 664.5 262.25 C663.46633301 261.61288086 662.43266602 260.97576172 661.36767578 260.31933594 C645.60643245 250.61360589 629.71448114 241.18422396 613.5 232.25 C612.54738281 231.72486816 611.59476563 231.19973633 610.61328125 230.65869141 C531.23959968 187.03760772 448.12851812 151.79148534 327.5 116.25 C326.65129333 116.02503845 325.80258667 115.8000769 324.92816162 115.56829834 C241.21554135 93.44724575 155.15980833 79.59768839 68.6427002 75.35714722 C67.1432519 75.28216626 65.64399344 75.20333515 64.14489746 75.12161255 C43.97959845 74.03334581 23.81303357 74.0489081 3.625 74.0625 C2.7370575 74.06276688 1.84911499 74.06303375 0.93426514 74.06330872 C-25.08659718 74.07312271 -51.05571397 74.16483756 -77.01989746 76.06964111 Z " fill="#FFFFFF" transform="translate(1335.5,-0.25)"/>
<path d="M0 0 C12.42149211 10.75430069 18.89952442 25.04620959 20.41015625 41.265625 C20.70377322 48.97626202 18.8625049 56.39729954 17.1875 63.875 C23.57310385 57.90509549 28.81398588 52.2611448 33.31640625 44.703125 C36.95344544 39.20580481 41.62408807 34.60471703 46.1875 29.875 C46.84492187 29.15441406 47.50234375 28.43382812 48.1796875 27.69140625 C59.44793145 15.67355809 74.08146673 6.31259434 90.83984375 5.63671875 C116.36733942 5.09805187 135.09846913 14.48030932 153.5 31.75 C165.53993482 44.40736737 173.05118928 59.52603443 176.265625 76.55078125 C177.94215333 84.96003444 181.23496154 92.55195182 184.9375 100.25 C185.3814209 101.17466064 185.8253418 102.09932129 186.28271484 103.05200195 C197.6466892 126.3861663 216.47523959 146.46733054 236.2109375 163.1796875 C238.69610194 165.3112317 241.09190146 167.53183599 243.5 169.75 C248.90265424 174.6709361 254.49192944 179.29926167 260.1875 183.875 C261.35482902 184.8338296 262.52146095 185.79350832 263.6875 186.75390625 C279.64910542 199.82449587 296.97974334 210.95228381 315.5 220.0625 C328.69266394 226.58273585 340.8177631 233.32039465 349.1875 245.875 C349.1875 247.195 349.1875 248.515 349.1875 249.875 C341.44152205 254.76172435 333.46088668 257.07209435 324.625 259.1875 C323.57320557 259.44160645 322.52141113 259.69571289 321.43774414 259.95751953 C309.61455635 262.67140098 297.94246446 263.10862067 285.85571289 263.17016602 C284.29409707 263.18165682 282.73251962 263.20206274 281.17114258 263.23168945 C266.14509772 263.51502054 252.95364632 261.26123335 239.3125 254.625 C234.44125381 251.98543878 234.44125381 251.98543878 229.1875 250.875 C229.68975098 251.23625977 230.19200195 251.59751953 230.70947266 251.96972656 C262.71329839 275.0661734 262.71329839 275.0661734 267.1875 284.875 C267.5625 287.8125 267.5625 287.8125 267.1875 289.875 C266.1875 290.875 266.1875 290.875 262.33984375 291 C237.34230279 290.64411945 214.68329158 280.97630603 192.1875 270.875 C192.66960938 271.61105469 193.15171875 272.34710937 193.6484375 273.10546875 C194.28007813 274.08128906 194.91171875 275.05710937 195.5625 276.0625 C196.18898438 277.02542969 196.81546875 277.98835938 197.4609375 278.98046875 C200.04073341 283.30542071 201.46368526 286.6227939 201.3125 291.6875 C201.28542969 292.87279297 201.28542969 292.87279297 201.2578125 294.08203125 C201.22300781 294.96955078 201.22300781 294.96955078 201.1875 295.875 C175.749058 297.13294493 149.77214321 284.46040135 130.1875 268.875 C126.49305937 265.49921468 122.98682868 261.96353871 119.5 258.375 C118.59572266 257.4571875 117.69144531 256.539375 116.75976562 255.59375 C114.56187642 253.36097367 112.37138292 251.12146296 110.1875 248.875 C111.72071024 253.67979412 113.36591766 258.41449386 115.23046875 263.1015625 C115.58173828 263.9884375 115.93300781 264.8753125 116.29492188 265.7890625 C117.01927157 267.60714094 117.75114206 269.42223973 118.49023438 271.234375 C120.50908159 276.37325882 121.64931304 280.34838488 121.1875 285.875 C111.29681005 285.65021159 102.42620113 278.82062961 95.44921875 272.26953125 C90.60068523 267.13628246 86.40404287 261.52555353 82.1875 255.875 C81.67670898 255.20178711 81.16591797 254.52857422 80.63964844 253.83496094 C71.48463706 241.7467358 63.61308404 229.08778298 56.1875 215.875 C55.71650879 215.04291016 55.24551758 214.21082031 54.76025391 213.35351562 C42.77116989 192.00720229 35.81702233 169.47988615 31.6875 145.375 C29.53976013 134.52770708 23.04804141 129.47393846 14.50390625 123.07421875 C9.14613371 119.52130245 4.09279174 117.6139752 -2.25 116.6875 C-3.30058594 116.52894531 -4.35117188 116.37039063 -5.43359375 116.20703125 C-6.21863281 116.09746094 -7.00367188 115.98789062 -7.8125 115.875 C-4.71256374 124.64436666 -4.71256374 124.64436666 -0.5625 132.9375 C2.42885188 137.9586978 3.01547959 143.08944116 2.1875 148.875 C0.57925394 153.7159682 -1.47751402 158.34924911 -3.5625 163 C-7.93542142 172.83777327 -11.29150608 182.39097299 -13.8125 192.875 C-14.1221167 194.0808374 -14.4317334 195.2866748 -14.75073242 196.52905273 C-23.0823397 230.22883807 -15.66844133 275.49044466 -7.09480381 308.65084553 C-5.16995315 316.24603829 -4.37689346 323.19496861 -4.515625 331.01293945 C-4.52627991 332.16207227 -4.53693481 333.31120508 -4.5479126 334.4951601 C-4.75366971 349.11188234 -5.59415743 363.70479002 -6.42793274 378.29621291 C-6.65757583 382.34368585 -6.87856292 386.39163264 -7.10058594 390.43952942 C-7.51965239 398.05694256 -7.94616497 405.67391847 -8.37556076 413.29075557 C-8.86517721 421.9825446 -9.34617662 430.67480436 -9.82656097 439.36710775 C-10.81249138 457.20360039 -11.8088899 475.03949383 -12.8125 492.875 C11.27492742 486.5911529 35.35300929 480.28036539 59.375 473.75 C60.62703217 473.40982849 61.87906433 473.06965698 63.16903687 472.71917725 C106.39115732 460.96583866 149.08581604 448.8914332 189.6875 429.625 C190.68370361 429.15400879 191.67990723 428.68301758 192.70629883 428.19775391 C211.36593912 419.14482282 223.87394503 408.16109525 232.41015625 389.15234375 C233.48621876 385.99985911 233.13231038 384.04686343 232.1875 380.875 C230.29628207 378.61773989 228.81457151 377.18853576 226.1875 375.875 C218.16655212 375.89208689 210.7465718 377.89846589 203.125 380.1875 C200.90967403 380.8231767 198.69352092 381.45597767 196.4765625 382.0859375 C195.40180664 382.39241211 194.32705078 382.69888672 193.21972656 383.01464844 C167.39455534 390.34217689 144.86368766 390.05339391 120.94238281 376.87988281 C117.21681518 374.74654442 113.64849891 372.41306587 110.1875 369.875 C111.84706513 365.81937635 114.68156254 362.85099027 117.625 359.6875 C118.15923584 359.11233643 118.69347168 358.53717285 119.24389648 357.94458008 C124.17060096 352.73580959 129.47548257 348.20853924 135.1875 343.875 C136.05890625 343.18792969 136.9303125 342.50085937 137.828125 341.79296875 C159.0913359 325.53469492 181.84121766 322.31615388 207.87548828 325.7019043 C228.24227689 328.794825 247.31810437 336.58743522 259.9375 353.625 C270.35727451 369.43940954 274.44062393 387.03981826 270.9765625 405.72265625 C267.44025954 419.85036164 260.59803634 431.89306481 251.1875 442.875 C250.55972656 443.63683594 249.93195312 444.39867187 249.28515625 445.18359375 C244.18051061 451.20686682 238.45386946 456.09255844 232.1875 460.875 C231.65882324 461.2786377 231.13014648 461.68227539 230.58544922 462.09814453 C218.26558306 471.41725109 205.04216316 478.60010649 191.1875 485.375 C189.93755249 485.99652954 189.93755249 485.99652954 188.66235352 486.63061523 C170.76541007 495.2057211 151.5953212 501.26347482 132.75 507.375 C131.23197784 507.86992447 131.23197784 507.86992447 129.68328857 508.37484741 C106.91098346 515.78848759 83.97550911 522.64722827 61.0078125 529.42578125 C59.9733046 529.73135452 58.93879669 530.0369278 57.87294006 530.35176086 C51.33219758 532.27334684 44.77104869 534.10570472 38.1875 535.875 C41.05101762 538.07039961 43.79611912 539.77597794 47.0546875 541.3359375 C48.49062256 542.03323975 48.49062256 542.03323975 49.95556641 542.74462891 C50.98085449 543.24140137 52.00614258 543.73817383 53.0625 544.25 C81.29298121 558.16619324 109.99077825 575.26380063 129.625 600.5 C130.09309082 601.10046143 130.56118164 601.70092285 131.04345703 602.31958008 C144.03056639 619.25784109 151.55219131 635.38652732 150.1875 656.875 C148.61877553 666.78828408 143.20540325 674.9368184 135.50390625 681.25 C120.01275561 692.11731647 102.45407121 693.93645203 84.1875 695.875 C84.86554687 696.2875 85.54359375 696.7 86.2421875 697.125 C92.95672289 701.29135991 99.1423667 705.79159245 105.1875 710.875 C106.34765625 711.81472656 106.34765625 711.81472656 107.53125 712.7734375 C117.5020852 721.13937799 126.15867608 732.72822099 128.1875 745.875 C129.26811824 758.24010705 125.88398208 768.20094961 118.1875 777.875 C96.94444097 802.36861332 55.33184174 815.23816903 24.1875 820.875 C20.625 821 20.625 821 18.1875 820.875 C18.1875 821.535 18.1875 822.195 18.1875 822.875 C18.75082031 823.12121094 19.31414062 823.36742187 19.89453125 823.62109375 C24.59137864 826.18955715 28.30509638 830.23381081 32.1875 833.875 C32.93515625 834.56851563 33.6828125 835.26203125 34.453125 835.9765625 C67.87754329 868.07843187 87.15021292 914.96944982 105.10186768 956.70611572 C105.73959662 958.18745079 106.38015914 959.66756935 107.02362061 961.14642334 C107.91902998 963.20936657 108.80125819 965.27743596 109.6796875 967.34765625 C110.18870605 968.53625244 110.69772461 969.72484863 111.22216797 970.94946289 C112.1875 973.875 112.1875 973.875 111.1875 976.875 C103.87912094 969.09670824 96.87840633 961.19628541 90.1875 952.875 C87.90290352 950.07750593 85.60844915 947.28818043 83.3125 944.5 C82.71171631 943.76990723 82.11093262 943.03981445 81.49194336 942.28759766 C77.37443924 937.2923375 73.21556502 932.33468741 69.01782227 927.40673828 C66.20880543 924.10353776 63.46693411 920.75412593 60.75 917.375 C56.88359833 912.6200895 52.80221132 908.10838355 48.61157227 903.640625 C45.95886618 900.81107185 43.37005549 897.94446316 40.8359375 895.0078125 C31.24684644 883.99913675 20.70689158 873.83273667 9.1875 864.875 C8.01415846 863.90437885 6.84378057 862.93016819 5.67578125 861.953125 C-3.66149703 854.19934048 -13.1470814 848.19307692 -24.01977539 842.76757812 C-24.73235001 842.41183716 -25.44492462 842.05609619 -26.17909241 841.6895752 C-26.71811691 841.42076538 -27.25714142 841.15195557 -27.8125 840.875 C-27.92319824 842.12297363 -28.03389648 843.37094727 -28.14794922 844.65673828 C-28.56893354 849.40203951 -28.99023552 854.14731251 -29.41162109 858.89257812 C-29.59204282 860.9247973 -29.77238465 862.95702358 -29.95263672 864.98925781 C-31.22080028 879.28620786 -32.50733106 893.58138004 -33.8125 907.875 C-32.71019043 908.02195312 -31.60788086 908.16890625 -30.47216797 908.3203125 C-20.93149685 909.76637019 -13.69737554 915.43732748 -7.8125 922.875 C-0.31575485 934.64183982 1.30842604 946.19814608 -0.8125 959.875 C-3.38428757 970.67930321 -9.73008018 979.50171399 -18.8125 985.875 C-31.88053231 993.57852877 -46.11012944 994.5862857 -60.6640625 990.921875 C-65.56351837 989.29277553 -69.62454051 986.85768153 -73.8125 983.875 C-74.885 983.111875 -75.9575 982.34875 -77.0625 981.5625 C-86.06082482 972.76868256 -89.92617246 961.86625709 -90.3125 949.375 C-89.9087281 936.31970862 -85.6040451 925.22896269 -76.1875 916.125 C-70.48346485 911.40100178 -63.26059083 907.875 -55.8125 907.875 C-55.93222168 907.02164063 -56.05194336 906.16828125 -56.17529297 905.2890625 C-57.9189351 892.19064724 -58.91954842 879.04650613 -59.9375 865.875 C-60.12075737 863.53903609 -60.30434869 861.20309835 -60.48828125 858.8671875 C-60.93353336 853.20342062 -61.37467942 847.53934595 -61.8125 841.875 C-66.47602646 842.68244631 -70.16186046 844.42958444 -74.25 846.75 C-74.95229736 847.14783691 -75.65459473 847.54567383 -76.37817383 847.95556641 C-83.75699745 852.25344251 -90.27785733 857.40746862 -96.8125 862.875 C-97.96056127 863.81816648 -99.10899828 864.76087579 -100.2578125 865.703125 C-106.78748303 871.10181192 -112.92366872 876.7791395 -118.8125 882.875 C-121.56803133 885.64444815 -124.33966618 888.39718312 -127.1171875 891.14453125 C-133.24122405 897.21238397 -139.26337237 903.27058955 -144.8125 909.875 C-145.73314988 910.94506569 -146.65515728 912.01396413 -147.578125 913.08203125 C-153.77060873 920.25575662 -159.84562307 927.51185205 -165.8125 934.875 C-171.04699734 941.31673276 -176.34015209 947.70083605 -181.71508789 954.02539062 C-185.46478213 958.44469663 -189.13789977 962.9232204 -192.796875 967.41796875 C-195.41928793 970.61466978 -198.10462706 973.75053122 -200.8125 976.875 C-201.4725 976.545 -202.1325 976.215 -202.8125 975.875 C-162.86246146 879.32495633 -162.86246146 879.32495633 -129.8125 841.875 C-129.05324219 840.98167969 -128.29398438 840.08835937 -127.51171875 839.16796875 C-122.77953647 833.69612032 -117.71104261 829.12942203 -112 824.6875 C-109.73727284 823.06071065 -109.73727284 823.06071065 -108.8125 820.875 C-109.69844849 820.81675049 -109.69844849 820.81675049 -110.60229492 820.75732422 C-117.35489219 820.21068853 -123.61696348 818.84988529 -130.125 817 C-131.72396118 816.54741821 -131.72396118 816.54741821 -133.35522461 816.08569336 C-156.52067265 809.31229778 -180.78503723 801.09697022 -199.8125 785.875 C-200.79283203 785.14023438 -200.79283203 785.14023438 -201.79296875 784.390625 C-209.7661923 778.12469215 -216.76866243 768.18522522 -218.05175781 757.97021484 C-219.33423287 742.68440178 -214.62597551 731.62693981 -204.8125 719.875 C-196.01954492 709.85867726 -185.39812638 702.32290896 -173.8125 695.875 C-174.45574219 695.81030518 -175.09898437 695.74561035 -175.76171875 695.67895508 C-216.57105864 691.44011048 -216.57105864 691.44011048 -230.8125 676.875 C-239.28963912 666.25568966 -241.81584219 654.63925742 -240.37109375 641.234375 C-235.64427518 612.80735424 -211.40079267 587.49144824 -189.02661133 571.1184082 C-176.70901748 562.41863181 -163.47284221 555.14743951 -150.25 547.9375 C-148.78820313 547.14001343 -148.78820313 547.14001343 -147.296875 546.32641602 C-140.9192429 542.89343584 -134.44314384 539.78847695 -127.8125 536.875 C-130.50714212 535.45020996 -133.09262678 534.40324688 -136.0222168 533.5690918 C-136.8521666 533.33039871 -137.68211639 533.09170563 -138.53721619 532.84577942 C-139.43630203 532.5911644 -140.33538788 532.33654938 -141.26171875 532.07421875 C-143.22368948 531.51045106 -145.18560094 530.9464771 -147.14746094 530.38232422 C-148.6995929 529.93805084 -148.6995929 529.93805084 -150.28308105 529.48480225 C-173.11821688 522.93788657 -195.80224122 515.99609405 -218.39459229 508.65820312 C-220.81422105 507.87444252 -223.23565509 507.09652519 -225.65771484 506.3203125 C-264.29388079 493.92543842 -302.36359639 479.62483183 -332.8125 451.875 C-333.61945313 451.15054687 -334.42640625 450.42609375 -335.2578125 449.6796875 C-350.58288015 435.20897902 -361.39064095 415.58526445 -362.21289062 394.31640625 C-362.50125101 376.31664734 -356.57374247 360.21256841 -344.14013672 347.05761719 C-326.62297419 329.35643838 -302.83551217 324.7243514 -278.75 324.5625 C-248.02871887 324.5625 -226.82297551 340.80830117 -205.72265625 361.83203125 C-200.8125 367.08358896 -200.8125 367.08358896 -200.8125 370.875 C-203.34720615 372.66598998 -205.81148621 374.22217622 -208.5 375.75 C-209.27150391 376.19472656 -210.04300781 376.63945313 -210.83789062 377.09765625 C-233.21893717 389.72286199 -256.31360345 390.6603013 -280.8125 383.875 C-285.98287567 382.38299182 -291.1476284 380.87188451 -296.27880859 379.24975586 C-307.54892389 375.64651714 -307.54892389 375.64651714 -318.875 377.125 C-321.69774691 379.67457785 -322.75368681 381.30139843 -323.14453125 385.11328125 C-322.77123271 389.34253412 -321.53002153 392.41414974 -319.5 396.0625 C-318.96693237 397.03316406 -318.96693237 397.03316406 -318.4230957 398.0234375 C-312.16426905 408.92185193 -303.83854214 416.81432783 -292.8125 422.875 C-291.80832031 423.46152344 -290.80414062 424.04804687 -289.76953125 424.65234375 C-248.99451481 447.59708833 -202.21883535 459.51773785 -157.34191895 471.64489746 C-154.07554458 472.52885022 -150.81053536 473.41778239 -147.54555702 474.30687523 C-124.3352847 480.62630599 -101.08451544 486.78720823 -77.8125 492.875 C-78.40740794 474.04901258 -79.26893273 455.25382453 -80.32739758 436.44815874 C-80.52337507 432.95160816 -80.71551843 429.45484692 -80.90794373 425.95809937 C-81.47640517 415.63974176 -82.05007103 405.32167462 -82.62585449 395.00372314 C-83.07680165 386.92221477 -83.52602326 378.84061878 -83.96993965 370.75872076 C-84.15995073 367.30224015 -84.3514539 363.84585703 -84.5466938 360.38966751 C-84.76321477 356.54723499 -84.97498249 352.70456598 -85.18579102 348.86181641 C-85.24967514 347.74989426 -85.31355927 346.63797211 -85.37937927 345.49235535 C-86.06621227 332.77029408 -86.05833601 321.12580238 -83.125 308.6875 C-77.71437258 284.15104627 -74.05885931 258.98023751 -72.8125 233.875 C-72.76722168 232.99279785 -72.72194336 232.1105957 -72.67529297 231.20166016 C-71.54958538 205.63067058 -77.65101324 182.0649022 -88.42236328 159.02929688 C-91.46414196 152.36359202 -93.71890197 146.29518105 -92.2109375 138.94140625 C-91.87320312 138.11511719 -91.53546875 137.28882813 -91.1875 136.4375 C-90.81625 135.51839844 -90.445 134.59929687 -90.0625 133.65234375 C-88.46390786 130.10047184 -86.77169998 126.61258467 -84.9609375 123.1640625 C-83.76489492 120.78011368 -82.77074017 118.36290798 -81.8125 115.875 C-97.37289525 117.61281051 -108.6634013 123.43502863 -118.8125 135.875 C-120.58742171 138.95206614 -121.29406988 141.75913638 -121.890625 145.25 C-122.07858643 146.30767578 -122.26654785 147.36535156 -122.46020508 148.45507812 C-122.6589624 149.58365234 -122.85771973 150.71222656 -123.0625 151.875 C-126.4700791 170.2350311 -131.58758409 187.09995312 -139.8125 203.875 C-140.15651855 204.57689453 -140.50053711 205.27878906 -140.85498047 206.00195312 C-149.24499448 222.88367828 -159.50310952 238.80741207 -170.8125 253.875 C-171.25980469 254.47183594 -171.70710938 255.06867188 -172.16796875 255.68359375 C-191.67756547 281.53244318 -191.67756547 281.53244318 -206.421875 285.59375 C-208.625 285.875 -208.625 285.875 -211.8125 285.875 C-211.41492536 277.8011766 -208.26023496 270.76757703 -205.25 263.375 C-204.72374474 262.06284644 -204.19834653 260.75034881 -203.67382812 259.4375 C-202.3965831 256.24596962 -201.10777676 253.0592618 -199.8125 249.875 C-200.1425 249.545 -200.4725 249.215 -200.8125 248.875 C-201.52535156 249.66003906 -202.23820312 250.44507813 -202.97265625 251.25390625 C-205.45376707 253.9800007 -207.94729889 256.69432481 -210.44970703 259.40087891 C-211.54082549 260.58113208 -212.62842252 261.76464036 -213.71484375 262.94921875 C-229.87444809 279.8990238 -258.73107999 294.89929259 -282.26953125 296.04296875 C-285.12621171 296.05959669 -287.95963662 296.01378795 -290.8125 295.875 C-292.53543388 289.27042012 -290.88379815 284.85451853 -287.8125 278.875 C-285.93244399 275.78274242 -283.93569023 272.80500252 -281.8125 269.875 C-282.781875 270.38289063 -283.75125 270.89078125 -284.75 271.4140625 C-307.1695385 282.99984671 -330.37980279 290.81983146 -355.8125 290.875 C-356.89453125 289.10546875 -356.89453125 289.10546875 -357.8125 286.875 C-351.80751925 270.0038636 -330.77801926 258.85898893 -316.8125 248.875 C-317.35028076 249.12668945 -317.88806152 249.37837891 -318.44213867 249.63769531 C-347.18298294 263.01922144 -347.18298294 263.01922144 -362.83203125 263.04296875 C-363.6082634 263.04629715 -364.38449554 263.04962555 -365.18424988 263.05305481 C-366.82912609 263.05810792 -368.47401252 263.06046363 -370.11889648 263.06030273 C-372.57879739 263.06245949 -375.038227 263.08054868 -377.49804688 263.09960938 C-391.07814685 263.14942482 -404.39791462 262.2302513 -417.5625 258.625 C-418.35253418 258.41246582 -419.14256836 258.19993164 -419.95654297 257.98095703 C-426.56871831 256.11391058 -433.12907242 253.82962832 -438.8125 249.875 C-439.3075 248.39 -439.3075 248.39 -439.8125 246.875 C-433.42574189 235.39266954 -422.2052375 228.01271232 -410.625 222.6875 C-391.96888237 213.71020016 -374.67465579 203.25473851 -358.54003906 190.26464844 C-357.00427532 189.02926585 -355.45243419 187.81392989 -353.8984375 186.6015625 C-348.80244178 182.60996213 -343.96373124 178.38663594 -339.1796875 174.02734375 C-337.0784587 172.11682053 -334.95552801 170.23831552 -332.8125 168.375 C-313.77318277 152.15754078 -313.77318277 152.15754078 -296.8125 133.875 C-295.97460938 132.8746875 -295.13671875 131.874375 -294.2734375 130.84375 C-287.82181857 123.02452754 -282.53175848 114.92495512 -277.87548828 105.92382812 C-277.17287018 104.5695858 -276.45785414 103.22169657 -275.72998047 101.88085938 C-271.03341055 93.20699485 -268.1836738 85.00930322 -266.3125 75.3125 C-261.67699673 51.38466065 -246.54752483 31.16058624 -226.5 17.4375 C-209.94107518 6.57050285 -191.64925893 4.01285682 -172.19140625 6.30078125 C-153.30243747 10.38962841 -134.50987704 27.95318269 -123.8984375 43.71875 C-122.78009671 45.53669211 -121.67156923 47.36071743 -120.57421875 49.19140625 C-117.0024008 54.63229081 -112.4029406 59.2845594 -107.8125 63.875 C-107.956875 63.28976562 -108.10125 62.70453125 -108.25 62.1015625 C-111.6624218 46.31911169 -111.1236935 29.97363123 -103.125 15.625 C-93.45372921 0.86358668 -80.09373164 -8.93097694 -62.875 -12.9375 C-40.46123009 -16.92774388 -18.49796282 -13.99567701 0 0 Z M108.1875 245.875 C109.1875 247.875 109.1875 247.875 109.1875 247.875 Z M-17.8125 571.875 C-19.27796234 598.30515689 -19.27796234 598.30515689 -20.4375 624.75 C-20.47738037 625.73516602 -20.51726074 626.72033203 -20.55834961 627.73535156 C-20.95825748 639.11009842 -20.84644837 650.49498339 -20.8125 661.875 C-20.18404175 661.89783554 -19.5555835 661.92067108 -18.90808105 661.94419861 C-12.28774885 662.18516527 -5.66752895 662.42906237 0.95263672 662.67456055 C3.41387284 662.76546121 5.87513545 662.85564774 8.33642578 662.94506836 C20.5377208 663.38879689 32.7255045 663.85592091 44.90820312 664.66772461 C58.07966418 665.50025665 70.94914053 665.2640503 84 663.1875 C84.97130859 663.03901611 85.94261719 662.89053223 86.94335938 662.73754883 C93.68735643 661.54616372 99.23327018 659.23493891 105.1875 655.875 C103.83297915 650.79554681 101.45557282 647.15259404 98.1875 643.125 C97.69620605 642.51301758 97.20491211 641.90103516 96.69873047 641.27050781 C73.30476369 612.56007222 37.58150049 595.68855476 4.5 580.625 C3.78477173 580.29840393 3.06954346 579.97180786 2.3326416 579.63531494 C0.28338197 578.70309739 -1.76943505 577.77934403 -3.82421875 576.859375 C-5.00459717 576.33053711 -6.18497559 575.80169922 -7.40112305 575.25683594 C-10.85566857 573.85751384 -14.21539484 572.8302526 -17.8125 571.875 Z M-171.8125 625.875 C-172.49570313 626.42414062 -173.17890625 626.97328125 -173.8828125 627.5390625 C-183.05070901 635.12504745 -189.71993865 644.74685139 -195.8125 654.875 C-174.89956216 673.77175669 -128.2304386 664.50906991 -102.52851868 663.27792358 C-91.29254563 662.74552889 -80.05259437 662.31009185 -68.8125 661.875 C-69.05294404 653.30241435 -69.29624487 644.72991616 -69.54299068 636.1575098 C-69.65753344 632.1751117 -69.7711665 628.19269238 -69.88256836 624.21020508 C-69.99052508 620.35216585 -70.10106995 616.49420799 -70.21325874 612.6362896 C-70.25519726 611.17946323 -70.29627134 609.72261166 -70.3363781 608.26573372 C-70.55382338 600.38946903 -70.84662443 592.52148263 -71.28344727 584.65405273 C-71.32065604 583.94894845 -71.35786482 583.24384417 -71.39620113 582.51737309 C-71.60974819 578.88951614 -71.99123137 575.41699436 -72.8125 571.875 C-102.47058123 571.875 -149.85604731 607.35656837 -171.8125 625.875 Z M-88.625 699.9375 C-89.84533936 700.15865479 -91.06567871 700.37980957 -92.32299805 700.60766602 C-123.57875336 706.46623853 -165.7495804 716.07082914 -185.34375 744.0625 C-188.17531469 748.71885082 -189.75664805 752.31501702 -188.8125 757.875 C-182.65286426 770.19427147 -168.4416472 776.33132649 -156.03125 780.57421875 C-151.00505754 782.19061752 -145.93031211 783.58089769 -140.8125 784.875 C-140.04019043 785.07077637 -139.26788086 785.26655273 -138.47216797 785.46826172 C-114.48455945 791.32825996 -89.40213995 792.4847517 -64.8125 791.875 C-64.69928193 781.19573522 -65.05771912 770.55597472 -65.46875 759.88671875 C-65.53622244 758.08926676 -65.6034794 756.29180668 -65.67053223 754.49433899 C-65.84594321 749.80742259 -66.0242438 745.12062062 -66.20318604 740.43383789 C-66.38593111 735.63369309 -66.5658884 730.83344382 -66.74609375 726.03320312 C-67.09886371 716.64703225 -67.45469232 707.26098009 -67.8125 697.875 C-69.06959274 697.86782455 -70.32668549 697.86064911 -71.62187195 697.85325623 C-72.32898662 697.84922004 -73.03610128 697.84518385 -73.76464367 697.84102535 C-78.77380193 697.92412903 -83.7101424 699.04373476 -88.625 699.9375 Z M-21.8125 697.875 C-23.01576601 711.63895512 -23.34759466 725.44630668 -23.8125 739.25 C-23.97794443 744.09118836 -24.14487222 748.93232428 -24.3125 753.7734375 C-24.3530249 754.94904236 -24.3935498 756.12464722 -24.43530273 757.33587646 C-24.8370166 768.85134241 -25.31272121 780.36341525 -25.8125 791.875 C12.79486463 792.60598418 63.89058932 791.94557893 94.1640625 764.0859375 C97.21703529 760.75006376 99.15999045 758.27798728 99.25 753.6875 C94.98241548 738.37440259 81.22753026 729.49406096 68.1875 721.875 C45.9118839 709.63463189 21.20019312 703.79183086 -3.6875 699.5625 C-5.19413208 699.30509033 -5.19413208 699.30509033 -6.73120117 699.04248047 C-8.1597644 698.81069092 -8.1597644 698.81069092 -9.6171875 698.57421875 C-10.45233887 698.43846436 -11.28749023 698.30270996 -12.14794922 698.1628418 C-15.38190765 697.81348895 -18.56237414 697.83026891 -21.8125 697.875 Z " fill="#FFFFFF" transform="translate(1382.8125,842.125)"/>
</svg>
