<?xml version="1.0" encoding="UTF-8"?>
<svg version="1.1" xmlns="http://www.w3.org/2000/svg" width="2688" height="2676">
<path d="M0 0 C1.78163887 1.52468167 3.57135129 3.03949646 5.36230469 4.55322266 C16.15271743 13.69797687 16.15271743 13.69797687 21.00268555 18.76098633 C22.69594086 20.45325734 24.45739336 21.99815088 26.28027344 23.54931641 C31.14808034 27.78245847 35.69613944 32.30668085 40.24511719 36.87744141 C41.05658203 37.68503906 41.86804687 38.49263672 42.70410156 39.32470703 C46.99585391 43.62338714 51.1292551 47.99623424 55.08959961 52.60180664 C57.50472835 55.38855059 60.03538024 58.06304528 62.55761719 60.75244141 C66.98404757 65.51603189 71.21786392 70.38062291 75.28808594 75.45556641 C77.06502404 77.67021683 78.85757521 79.86486521 80.67089844 82.04931641 C88.17824369 91.12449273 95.21600694 100.45687419 102.01025391 110.07617188 C103.71580834 112.48685479 105.43496651 114.88742619 107.15527344 117.28759766 C115.52690997 129.03041754 123.26852791 141.07287133 130.68261719 153.43994141 C131.23916992 154.36226562 131.79572266 155.28458984 132.36914062 156.23486328 C144.33415488 176.12422525 155.08018387 196.64174499 165.12011719 217.56494141 C165.49177002 218.33427002 165.86342285 219.10359863 166.24633789 219.89624023 C168.68261719 225.07310954 168.68261719 225.07310954 168.68261719 228.43994141 C90.47261719 228.43994141 12.26261719 228.43994141 -68.31738281 228.43994141 C-71.28738281 223.15994141 -74.25738281 217.87994141 -77.31738281 212.43994141 C-79.87837204 208.39494361 -82.45091048 204.40247569 -85.12988281 200.43994141 C-85.81566406 199.41884277 -86.50144531 198.39774414 -87.20800781 197.34570312 C-92.96964009 188.82798278 -98.98592119 180.54154224 -105.31738281 172.43994141 C-106.01992187 171.53630859 -106.72246094 170.63267578 -107.44628906 169.70166016 C-109.37608838 167.25724769 -111.33636826 164.84301472 -113.31738281 162.43994141 C-114.52587891 160.97041016 -114.52587891 160.97041016 -115.75878906 159.47119141 C-129.03318283 143.48141304 -143.39131033 127.82963938 -159.31738281 114.43994141 C-160.19910156 113.66908203 -161.08082031 112.89822266 -161.98925781 112.10400391 C-231.7570168 51.41358002 -320.65774101 19.99022163 -411.31738281 8.43994141 C-412.03230896 8.34692749 -412.74723511 8.25391357 -413.48382568 8.15808105 C-457.9655346 2.41893052 -505.84402405 2.96716986 -550.31738281 8.43994141 C-551.02741455 8.52479797 -551.73744629 8.60965454 -552.46899414 8.69708252 C-616.70814291 16.38002192 -677.39149089 34.56184295 -735.31738281 63.43994141 C-736.16349121 63.86098145 -737.00959961 64.28202148 -737.88134766 64.71582031 C-757.22949601 74.4231253 -775.75578445 85.79023975 -793.31738281 98.43994141 C-794.09098145 98.99713867 -794.86458008 99.55433594 -795.66162109 100.12841797 C-805.10942862 106.96189045 -814.43215492 113.88358924 -823.31738281 121.43994141 C-823.85137695 121.89046875 -824.38537109 122.34099609 -824.93554688 122.80517578 C-837.50727369 133.41500495 -849.48227852 144.51509195 -861.12988281 156.12744141 C-861.63010956 156.62498932 -862.1303363 157.12253723 -862.64572144 157.63516235 C-868.42284982 163.38882815 -874.04859814 169.21319589 -879.31738281 175.43994141 C-880.2298637 176.49617254 -881.14260937 177.55217501 -882.05566406 178.60791016 C-941.01973735 247.7721418 -978.48830398 330.76363487 -1012.31738281 519.43994141 C-1012.35868317 520.18487854 -1012.39998352 520.92981567 -1012.4425354 521.69732666 C-1013.22419016 536.15627146 -1013.52035849 550.58600922 -1013.50488281 565.06494141 C-1013.50397644 566.65417419 -1013.50397644 566.65417419 -1013.50305176 568.2755127 C-1013.38192174 647.24932707 -1000.92393008 725.30425965 -873.62207031 963.90039062 C-872.16495494 965.50599593 -870.71499926 967.11815399 -869.27514648 968.73925781 C-863.79420607 974.90444059 -858.10059358 980.80856634 -852.25488281 986.62744141 C-850.98547852 987.90264648 -850.98547852 987.90264648 -849.69042969 989.20361328 C-844.72785641 994.15853417 -839.64593842 998.88334964 -834.31738281 1003.43994141 C-833.26903812 1004.36536248 -832.22208542 1005.29236367 -831.17675781 1006.22119141 C-821.32475239 1014.87643078 -810.89065134 1022.6925748 -800.31738281 1030.43994141 C-799.33439209 1031.16358887 -799.33439209 1031.16358887 -798.33154297 1031.90185547 C-733.81242924 1079.28444156 -657.85939799 1108.0031304 -550.31738281 1125.43994141 C-549.07956055 1125.58947266 -547.84173828 1125.73900391 -546.56640625 1125.89306641 C-501.40085568 1131.16522124 -453.4475617 1130.82377043 -408.31738281 1125.43994141 C-407.05748535 1125.30072266 -405.79758789 1125.16150391 -404.49951172 1125.01806641 C-314.90014201 1115.03819591 -228.04907065 1083.00817722 -152.31738281 1021.43994141 C-151.80030762 1021.0077832 -151.28323242 1020.575625 -150.75048828 1020.13037109 C-135.76472464 1007.58846687 -120.8432141 994.37434078 -108.11425781 979.51416016 C-106.14275851 977.23836423 -104.10603886 975.03071474 -102.06738281 972.81494141 C-97.01922453 967.21250899 -92.39493856 961.32459939 -87.79736328 955.35253906 C-86.30763072 953.42733865 -84.80038802 951.5169642 -83.29003906 949.60791016 C-31.78645314 884.03595444 -0.65421133 804.09894444 14.37011719 722.56494141 C14.56025894 721.53636017 14.56025894 721.53636017 14.75424194 720.48699951 C16.98587619 708.28386983 18.86654431 696.02126403 20.79516602 683.76757812 C21.07597515 681.98586809 21.35683059 680.20416535 21.63773346 678.42247009 C22.31989528 674.09504448 23.00143036 669.7675206 23.68261719 665.43994141 C23.05373946 665.44525749 22.42486174 665.45057358 21.77692711 665.45605075 C-15.50817379 665.76944823 -52.79307965 666.00960434 -90.07922833 666.15485602 C-94.55770392 666.17236559 -99.03617683 666.19048613 -103.51464844 666.20898438 C-104.40621915 666.21265672 -105.29778986 666.21632907 -106.21637787 666.2201127 C-120.64655778 666.2810066 -135.07595564 666.39137525 -149.50567184 666.52008055 C-164.31561384 666.65107402 -179.12514673 666.72877889 -193.93564427 666.75718033 C-203.07264482 666.77637676 -212.20743503 666.8369618 -221.34375496 666.95077194 C-227.61179347 667.02486743 -233.87869212 667.04712411 -240.14713661 667.02896069 C-243.76296598 667.02000415 -247.37493951 667.03356418 -250.99007988 667.10881805 C-272.12698985 667.5275552 -272.12698985 667.5275552 -277.4253583 664.06060076 C-281.20157377 660.38480002 -283.17143815 656.18841195 -285.31738281 651.43994141 C-287.21638596 648.95496311 -287.21638596 648.95496311 -289.11035156 647.03759766 C-289.67818359 646.43753906 -290.24601562 645.83748047 -290.83105469 645.21923828 C-291.65959961 644.36942383 -291.65959961 644.36942383 -292.50488281 643.50244141 C-293.06884766 642.90882813 -293.6328125 642.31521484 -294.21386719 641.70361328 C-301.75295435 633.49017386 -301.75295435 633.49017386 -310.31738281 626.43994141 C-309.98738281 625.44994141 -309.65738281 624.45994141 -309.31738281 623.43994141 C-306.67770663 622.37101654 -304.13901771 621.5014966 -301.41894531 620.68994141 C-299.7381639 620.16434026 -298.05742001 619.63861913 -296.37670898 619.11279297 C-295.48970306 618.84019653 -294.60269714 618.5676001 -293.68881226 618.28674316 C-276.14737715 612.87822334 -259.12159819 606.85459694 -242.31738281 599.43994141 C-241.455 599.06450195 -240.59261719 598.6890625 -239.70410156 598.30224609 C-208.64801338 584.66935699 -178.53613241 565.21602475 -157.84472656 537.95166016 C-157.43381824 537.41282774 -157.02290992 536.87399533 -156.59954983 536.31883466 C-155.22549016 534.39623113 -155.22549016 534.39623113 -154.07475466 531.9517771 C-151.73350606 527.70241631 -149.97340077 524.92687505 -145.18696415 523.51947665 C-141.12204878 523.1742127 -137.16119289 523.15340298 -133.08729553 523.23739624 C-131.51793714 523.23303341 -129.94858586 523.22427372 -128.37927336 523.21150458 C-124.07295626 523.18916147 -119.76913001 523.22910875 -115.46313035 523.27928519 C-110.81767654 523.32248776 -106.17236212 523.30785498 -101.52676392 523.30026245 C-93.48017678 523.2950199 -85.43440076 523.32638242 -77.38801765 523.38264084 C-65.7544583 523.46392699 -54.12129099 523.48995668 -42.48747843 523.50252075 C-23.61244233 523.5244048 -4.7378385 523.59094759 14.13696289 523.68554688 C32.47157631 523.77734319 50.8060723 523.8481243 69.14086914 523.890625 C70.2711014 523.89325223 71.40133366 523.89587947 72.56581538 523.89858632 C78.23588321 523.91163673 83.90595186 523.9242738 89.57602108 523.93670535 C136.61185253 524.04036552 183.64721255 524.2164906 230.68261719 524.43994141 C231.78189914 526.63850532 231.94938637 528.15767989 232.18261719 530.59619141 C232.30636719 531.88589844 232.30636719 531.88589844 232.43261719 533.20166016 C232.55636719 534.55710937 232.55636719 534.55710937 232.68261719 535.93994141 C232.80636719 537.20257812 232.80636719 537.20257812 232.93261719 538.49072266 C234.50700236 555.29236439 234.92305487 572.07331855 234.93261719 588.93994141 C234.9336293 590.56567078 234.9336293 590.56567078 234.93466187 592.22424316 C234.85335597 675.42980646 219.10275869 759.71830381 168.68261719 887.43994141 C168.25190918 888.36693848 167.82120117 889.29393555 167.37744141 890.24902344 C156.14534248 914.36302236 143.7621409 937.8608386 129.68261719 960.43994141 C129.13782715 961.31811523 128.59303711 962.19628906 128.03173828 963.10107422 C119.68081966 976.52636055 110.91713095 989.60723136 101.68261719 1002.43994141 C101.0997998 1003.25092285 100.51698242 1004.0619043 99.91650391 1004.89746094 C92.30648446 1015.44814481 84.40331904 1025.69754217 76.10644531 1035.71630859 C74.09421246 1038.15224205 72.10953969 1040.61036616 70.12011719 1043.06494141 C55.62162412 1060.72100103 40.06680404 1077.23426135 23.89135742 1093.36157227 C21.71837384 1095.52911783 19.55089356 1097.70206641 17.38378906 1099.87548828 C15.9746049 1101.28401268 14.56511113 1102.6922274 13.15527344 1104.10009766 C12.20504051 1105.05336693 12.20504051 1105.05336693 11.23561096 1106.02589417 C6.87854408 1110.3605073 2.34205792 1114.43397355 -2.31738281 1118.43994141 C-3.47327196 1119.45058466 -4.62836897 1120.46213557 -5.78222656 1121.47509766 C-20.18745073 1134.05468477 -34.88966346 1146.13365341 -50.31738281 1157.43994141 C-50.99816895 1157.94315918 -51.67895508 1158.44637695 -52.38037109 1158.96484375 C-86.09775853 1183.87410343 -121.90595973 1205.56148969 -159.31738281 1224.43994141 C-160.41260254 1224.99294922 -161.50782227 1225.54595703 -162.63623047 1226.11572266 C-233.17094639 1261.48787962 -309.67739364 1282.46800787 -423.31738281 1295.43994141 C-424.49827988 1295.52727036 -425.67917694 1295.6145993 -426.89585876 1295.70457458 C-437.06394476 1296.40047238 -447.18608886 1296.6170709 -457.37597656 1296.64306641 C-459.0803022 1296.6500845 -460.78462755 1296.65717135 -462.48895264 1296.6643219 C-467.91093313 1296.68374677 -473.33287104 1296.68875598 -478.75488281 1296.68994141 C-479.67722843 1296.69038326 -480.59957405 1296.69082512 -481.54986954 1296.69128036 C-508.57889219 1296.69807768 -535.4337474 1296.5292032 -562.31738281 1293.43994141 C-563.93242005 1293.26092005 -565.54749279 1293.08221878 -567.16259766 1292.90380859 C-600.90919498 1289.12629224 -634.33359375 1283.55009105 -667.31738281 1275.43994141 C-667.98215637 1275.27707642 -668.64692993 1275.11421143 -669.33184814 1274.94641113 C-714.82963345 1263.76349504 -758.88700724 1248.30388126 -801.31738281 1228.43994141 C-802.47882813 1227.89837402 -803.64027344 1227.35680664 -804.83691406 1226.79882812 C-820.30643186 1219.55663313 -835.47796677 1211.90041148 -850.31738281 1203.43994141 C-851.82292725 1202.58505127 -851.82292725 1202.58505127 -853.35888672 1201.71289062 C-884.43820362 1183.96081435 -914.43061728 1163.8885582 -942.31738281 1141.43994141 C-942.95385742 1140.92963379 -943.59033203 1140.41932617 -944.24609375 1139.89355469 C-957.76981795 1129.03959449 -970.95147997 1117.88025098 -983.61376953 1106.03027344 C-985.40623122 1104.35700094 -987.20682218 1102.69281425 -989.00878906 1101.02978516 C-1009.6667619 1081.92574238 -1009.6667619 1081.92574238 -1018.32128906 1071.71728516 C-1020.59879643 1069.11887655 -1022.96081236 1066.61186688 -1025.33203125 1064.09912109 C-1030.82157936 1058.2810646 -1036.13122218 1052.41363243 -1041.12597656 1046.15869141 C-1043.10468482 1043.70382341 -1045.13568541 1041.303734 -1047.19287109 1038.91455078 C-1054.25844054 1030.69188452 -1060.81373687 1022.11022414 -1067.31738281 1013.43994141 C-1067.88360352 1012.68938477 -1068.44982422 1011.93882813 -1069.03320312 1011.16552734 C-1078.27389589 998.89852075 -1086.95431032 986.32005983 -1095.31738281 973.43994141 C-1095.83010742 972.65151855 -1096.34283203 971.8630957 -1096.87109375 971.05078125 C-1110.18397682 950.49246767 -1122.23570239 929.27650789 -1133.31738281 907.43994141 C-1133.69588379 906.69808594 -1134.07438477 905.95623047 -1134.46435547 905.19189453 C-1136.45995339 901.27607365 -1138.4245396 897.34655957 -1140.35644531 893.39892578 C-1141.00577713 892.07518632 -1141.65954385 890.75361448 -1142.31738281 889.43408203 C-1176.57694084 820.59053835 -1195.96198983 743.87843751 -1173.37988281 320.00244141 C-1164.71016585 294.20438468 -1154.78476784 269.11500954 -1143.31738281 244.43994141 C-1142.83769043 243.4007959 -1142.35799805 242.36165039 -1141.86376953 241.29101562 C-1124.08669623 202.89129196 -1102.18925989 165.59632589 -1076.93701172 131.62890625 C-1075.23892817 129.3339082 -1073.56361765 127.0235203 -1071.89160156 124.70947266 C-1064.0872137 113.94510005 -1055.88398583 103.60540412 -1047.31738281 93.43994141 C-1046.3144739 92.24097751 -1045.31185651 91.04176967 -1044.30957031 89.84228516 C-1039.47927499 84.07923172 -1034.5601773 78.40650415 -1029.50097656 72.84228516 C-1028.00516477 71.1966246 -1026.51860749 69.54251802 -1025.04003906 67.88134766 C-1020.9703521 63.31077614 -1016.84030178 58.86871215 -1012.43457031 54.61962891 C-1010.56103513 52.69078641 -1008.82319837 50.71181032 -1007.07519531 48.67041016 C-1003.40613652 44.44791791 -999.43755924 40.6542698 -995.31738281 36.87744141 C-990.76043317 32.6740482 -986.26131625 28.44343573 -981.9152832 24.02099609 C-978.86007112 20.99799328 -975.5795399 18.23531829 -972.31738281 15.43994141 C-971.29757131 14.55615011 -970.27806293 13.67200895 -969.25878906 12.78759766 C-924.6860396 -25.78733808 -875.66016691 -58.26512748 -823.19580078 -85.08496094 C-820.35634538 -86.54009152 -817.52633979 -88.01252124 -814.69628906 -89.48583984 C-741.46201485 -127.25059402 -660.32041728 -148.93408286 0 0 Z " fill="#000000" transform="translate(1832.3173828125,771.56005859375)"/>
<path d="M0 0 C2.02364625 -0.00323426 4.04729228 -0.0065997 6.07093811 -0.01008606 C10.2851719 -0.01601185 14.4993854 -0.0179331 18.71362305 -0.01733398 C22.93925306 -0.01725329 27.16477335 -0.02411669 31.39038086 -0.0378418 C59.04456228 -0.1261578 86.56025043 0.38241894 114.16015625 2.16796875 C115.34032318 2.24367096 116.52049011 2.31937317 117.73641968 2.39736938 C124.34248462 2.83384231 130.93935834 3.34808645 137.53515625 3.91796875 C138.99159042 4.04152237 138.99159042 4.04152237 140.47744751 4.16757202 C235.52855669 12.29519815 329.77484995 30.24525045 521.16015625 94.16796875 C521.92312012 94.47520874 522.68608398 94.78244873 523.47216797 95.09899902 C555.94660516 108.20683165 587.73573485 122.7226699 619.16015625 138.16796875 C620.29066406 138.72226563 621.42117188 139.2765625 622.5859375 139.84765625 C636.69346203 146.7793811 650.62387127 153.96740811 664.35888672 161.61132812 C667.26811345 163.22795961 670.18455056 164.83105825 673.1015625 166.43359375 C687.95975986 174.6344394 702.4692719 183.33297363 716.93359375 192.20068359 C720.76092097 194.53426431 724.61061974 196.82826195 728.46533203 199.11621094 C736.85773249 204.10098628 745.04674027 209.29779333 753.11669922 214.78710938 C755.38362886 216.31897963 757.66316892 217.83073518 759.9453125 219.33984375 C779.72927539 232.42888201 799.15727022 245.96785742 818.16015625 260.16796875 C819.28896325 261.00794589 820.41786047 261.84780182 821.546875 262.6875 C843.06274998 278.74706159 864.14157716 295.39339506 884.5703125 312.81640625 C886.20996525 314.21031252 887.85597643 315.59636064 889.50390625 316.98046875 C895.39667314 321.93368479 901.20750467 326.95155496 906.90625 332.12890625 C908.92898315 333.95883122 910.9738506 335.75678603 913.03515625 337.54296875 C917.96875828 341.84253357 922.76912162 346.2869229 927.58251953 350.71972656 C929.1439877 352.15312631 930.71151785 353.57956531 932.28125 355.00390625 C937.60298757 359.84000997 942.8269241 364.73446889 947.83203125 369.90234375 C949.70250916 371.72260749 951.59424719 373.40364425 953.578125 375.09375 C959.28786976 380.0528059 964.57945218 385.4380331 969.91479492 390.79223633 C971.7187771 392.60157808 973.5280429 394.40551194 975.33789062 396.20898438 C980.65068318 401.51903437 985.88765855 406.8289975 990.76147461 412.55102539 C992.77597711 414.87988734 994.95494157 417.02078603 997.16015625 419.16796875 C1000.64105687 422.61233818 1003.93519244 426.1212177 1007.1171875 429.83984375 C1009.89961797 433.01064405 1012.78122142 436.08490011 1015.66015625 439.16796875 C1020.2511744 444.09409771 1024.78109396 449.05138018 1029.16015625 454.16796875 C1030.05975975 455.21365876 1030.95951358 456.25921944 1031.859375 457.3046875 C1034.45299282 460.32099401 1037.03928091 463.34348768 1039.62255859 466.36865234 C1040.61395011 467.52879135 1041.60638529 468.6880397 1042.60009766 469.84619141 C1048.26291894 476.44652643 1053.7636193 483.14097836 1059.10351562 490.00561523 C1062.07159123 493.81256384 1065.11315513 497.53793617 1068.22265625 501.23046875 C1072.85592941 506.75559261 1077.27578266 512.42370536 1081.63476562 518.16552734 C1083.39065535 520.47055415 1085.15808213 522.76651791 1086.92578125 525.0625 C1094.18774643 534.51423505 1101.31308239 544.02843402 1108.12060547 553.81298828 C1110.04247318 556.57265866 1111.9753619 559.32370749 1113.92480469 562.06396484 C1121.18534291 572.27195548 1128.22914402 582.60891835 1135.16015625 593.04296875 C1135.68473419 593.83155273 1136.20931213 594.62013672 1136.74978638 595.43261719 C1144.38286503 606.91146318 1151.95314172 618.41541332 1159.16015625 630.16796875 C1160.11148438 631.71194336 1160.11148438 631.71194336 1161.08203125 633.28710938 C1170.18475105 648.06943308 1179.05798549 662.9583229 1187.47949219 678.14208984 C1189.27277512 681.37072853 1191.07965566 684.59155593 1192.88671875 687.8125 C1207.91442432 714.67369359 1222.0190176 741.97509931 1234.72363281 770.01416016 C1236.07675793 772.9848723 1237.45281127 775.94343298 1238.83984375 778.8984375 C1253.09597049 809.36793288 1265.6314018 840.57553267 1277.16015625 872.16796875 C1277.42227905 872.88621826 1277.68440186 873.60446777 1277.95446777 874.34448242 C1302.59884324 942.01756086 1321.76792052 1011.39168837 1335.16015625 1082.16796875 C1335.33268921 1083.07812744 1335.50522217 1083.98828613 1335.6829834 1084.92602539 C1347.30902997 1146.52101008 1353.86388729 1208.60854074 1357.16015625 1271.16796875 C1357.19882813 1271.8902063 1357.2375 1272.61244385 1357.27734375 1273.35656738 C1362.76029201 1376.91702181 1353.81508119 1481.58276684 1321.16015625 1646.16796875 C1320.94659485 1647.05486389 1320.73303345 1647.94175903 1320.51300049 1648.85552979 C1302.95548053 1721.50842447 1279.20441981 1792.71771432 1249.16015625 1861.16796875 C1248.88578735 1861.79471497 1248.61141846 1862.42146118 1248.32873535 1863.06719971 C1241.2445367 1879.2451024 1233.81507507 1895.23922514 1226.08984375 1911.12109375 C1223.99222977 1915.43427061 1221.93667718 1919.76326417 1219.92260742 1924.1159668 C1215.78381221 1933.05623248 1211.26797886 1941.76910473 1206.61425781 1950.45117188 C1205.03612593 1953.39970304 1203.46932943 1956.35412513 1201.90234375 1959.30859375 C1194.57477397 1973.07529142 1186.95385908 1986.63243428 1179.00488281 2000.04931641 C1177.06597154 2003.32719526 1175.13977212 2006.61232993 1173.21484375 2009.8984375 C1161.110482 2030.51656155 1148.27243791 2050.57670005 1135.03515625 2070.48046875 C1134.5357251 2071.23238495 1134.03629395 2071.98430115 1133.52172852 2072.75900269 C1126.25080386 2083.69483326 1118.78328202 2094.47497959 1111.16015625 2105.16796875 C1110.53157715 2106.05331299 1109.90299805 2106.93865723 1109.25537109 2107.85083008 C1093.52256418 2129.96656228 1076.80369827 2151.34462421 1059.63671875 2172.359375 C1058.32968084 2173.96032355 1057.02592269 2175.56394851 1055.72265625 2177.16796875 C1050.43163998 2183.66836017 1045.04457695 2190.08270186 1039.61035156 2196.46337891 C1038.14212586 2198.18916204 1036.67842092 2199.91871147 1035.21484375 2201.6484375 C1029.24210139 2208.68536776 1023.11121485 2215.53948483 1016.8203125 2222.29296875 C1014.76594131 2224.51325832 1012.75678976 2226.75014181 1010.78515625 2229.04296875 C1003.01992149 2238.00724711 994.84463197 2246.70105281 986.3203125 2254.9453125 C984.51262249 2256.80530457 982.83657888 2258.69866621 981.15234375 2260.66796875 C976.61279605 2265.89277688 971.7186756 2270.7594277 966.81762695 2275.64086914 C965.22556659 2277.22756821 963.63892635 2278.81954617 962.05273438 2280.41210938 C957.12835352 2285.3393733 952.15898069 2290.1556935 946.86108398 2294.68530273 C944.32788172 2296.89344646 942.00812166 2299.26342586 939.66015625 2301.66796875 C936.04943052 2305.32758006 932.36334451 2308.82236062 928.453125 2312.16015625 C925.29178202 2314.92835095 922.23103634 2317.80017533 919.16015625 2320.66796875 C914.23408284 2325.25897896 909.27738468 2329.78969027 904.16015625 2334.16796875 C903.12620947 2335.05588174 902.09236492 2335.9439138 901.05859375 2336.83203125 C898.67006546 2338.88266853 896.2791123 2340.93043643 893.88671875 2342.9765625 C891.41841251 2345.08827809 888.95512316 2347.20561515 886.49609375 2349.328125 C880.70711711 2354.32013683 874.89618054 2359.25559173 868.89453125 2363.9921875 C866.76484921 2365.68680593 864.65360423 2367.39752547 862.55078125 2369.125 C854.6683944 2375.59525193 846.67733063 2381.86070149 838.48828125 2387.9375 C834.434196 2390.9497269 830.42755156 2394.02156201 826.42163086 2397.09741211 C817.15735982 2404.20462899 807.77864957 2411.08832314 798.18994141 2417.75 C796.17458134 2419.15789166 794.17153881 2420.58163834 792.171875 2422.01171875 C737.98908643 2460.71745172 680.35175601 2493.82372685 621.16015625 2524.16796875 C619.77812012 2524.88049805 619.77812012 2524.88049805 618.36816406 2525.60742188 C578.58441339 2546.08110327 537.0238673 2563.44477763 495.16015625 2579.16796875 C494.43308472 2579.44104858 493.70601318 2579.71412842 492.95690918 2579.9954834 C407.03565296 2612.18899475 317.66842742 2635.42765042 98.66912842 2662.02694702 C97.0367699 2662.11869695 95.40462581 2662.21437452 93.77276611 2662.31460571 C73.85397833 2663.52339424 53.89027859 2663.35531136 33.94335938 2663.35327148 C29.87007138 2663.35319087 25.79689741 2663.36004244 21.72363281 2663.3737793 C-5.85924124 2663.46522196 -33.30808863 2662.88980255 -60.83984375 2661.16796875 C-62.05361694 2661.09226654 -63.26739014 2661.01656433 -64.51794434 2660.93856812 C-71.2774587 2660.50276618 -78.02799591 2659.98894656 -84.77734375 2659.41796875 C-85.77114044 2659.33526733 -86.76493713 2659.25256592 -87.78884888 2659.1673584 C-189.77926777 2650.6042593 -290.68232227 2630.18782804 -508.83984375 2552.16796875 C-509.45784851 2551.89378113 -510.07585327 2551.61959351 -510.71258545 2551.33709717 C-549.32556335 2534.19319262 -587.3978622 2515.79809037 -624.05126953 2494.75927734 C-626.82449844 2493.1767256 -629.60892537 2491.61614613 -632.3984375 2490.0625 C-672.32479177 2467.79387322 -710.69308784 2442.79617435 -747.83984375 2416.16796875 C-748.91637207 2415.40009033 -748.91637207 2415.40009033 -750.01464844 2414.61669922 C-761.1296115 2406.68603588 -772.04263877 2398.52512741 -782.83984375 2390.16796875 C-783.57734863 2389.59933105 -784.31485352 2389.03069336 -785.07470703 2388.44482422 C-795.20189962 2380.63640351 -805.21006251 2372.69846792 -815.10009766 2364.59179688 C-816.65932702 2363.31570571 -818.22385475 2362.04609494 -819.7890625 2360.77734375 C-826.64523406 2355.21233443 -833.34897304 2349.48075907 -840.03710938 2343.71630859 C-841.81470288 2342.18956184 -843.5993639 2340.67155167 -845.38671875 2339.15625 C-852.35097524 2333.2431474 -859.14821553 2327.18910801 -865.83203125 2320.9609375 C-868.43138488 2318.53929646 -871.06459382 2316.15895095 -873.71484375 2313.79296875 C-883.71269393 2304.81431689 -893.52359871 2295.65813172 -902.92089844 2286.05004883 C-905.77424491 2283.15105925 -908.68710657 2280.40444809 -911.77734375 2277.7578125 C-915.94964019 2274.15099762 -919.67340364 2270.2249764 -923.40234375 2266.16796875 C-928.79347143 2260.36405001 -934.26998576 2254.67562198 -939.90234375 2249.10546875 C-944.0652373 2244.98065044 -948.13389363 2240.8584561 -951.9140625 2236.375 C-954.7570392 2233.11682183 -957.74720276 2229.9998938 -960.71484375 2226.85546875 C-965.58356403 2221.68141762 -970.19755525 2216.39810741 -974.6328125 2210.84375 C-977.09964197 2207.85299214 -979.6997341 2205.00453269 -982.33984375 2202.16796875 C-986.59522975 2197.58874751 -990.61307763 2192.87509997 -994.53515625 2188.00390625 C-997.04779185 2184.91208685 -999.62646505 2181.88372641 -1002.21484375 2178.85546875 C-1007.47996146 2172.67116149 -1012.50358399 2166.31563285 -1017.48681641 2159.90332031 C-1018.78891788 2158.23328472 -1020.09944769 2156.57035275 -1021.4140625 2154.91015625 C-1032.7898755 2140.53676406 -1043.99257236 2126.01667758 -1054.53535461 2111.01895142 C-1055.82506863 2109.18893366 -1057.12105079 2107.36352963 -1058.41894531 2105.53930664 C-1065.91257106 2094.99200665 -1073.23531988 2084.3348374 -1080.47607422 2073.61254883 C-1082.33323732 2070.86524167 -1084.19779828 2068.12305338 -1086.0625 2065.38085938 C-1093.12779636 2054.9480082 -1099.86128391 2044.38332629 -1106.25463867 2033.52514648 C-1108.63889165 2029.47743917 -1111.12399272 2025.50183664 -1113.65234375 2021.54296875 C-1131.70890679 1992.90051369 -1147.72369282 1962.79771988 -1163.07568359 1932.63330078 C-1164.21877901 1930.38792348 -1165.364758 1928.14401091 -1166.51416016 1925.90185547 C-1205.85684612 1849.09444423 -1236.76810933 1766.68427526 -1261.83984375 1673.16796875 C-1262.05987061 1672.33215271 -1262.27989746 1671.49633667 -1262.5065918 1670.63519287 C-1286.02266616 1581.14298461 -1299.64237672 1489.51692831 -1305.40234375 1368.48046875 C-1305.42319031 1367.64725098 -1305.44403687 1366.8140332 -1305.46551514 1365.95556641 C-1305.88079918 1349.02383138 -1306.04644473 1332.10392695 -1305.83984375 1315.16796875 C-1305.83124329 1314.44619446 -1305.82264282 1313.72442017 -1305.81378174 1312.98077393 C-1304.60696361 1217.49030815 -1292.6951142 1122.48628545 -1143.31591797 692.80810547 C-1141.72807718 689.96806076 -1140.1602642 687.11748419 -1138.59375 684.265625 C-1130.36879482 669.35575642 -1121.65771232 654.78290277 -1112.74658203 640.27783203 C-1111.07907849 637.55815724 -1109.42241574 634.83249218 -1107.7734375 632.1015625 C-1101.03996622 620.96183998 -1094.00187809 610.03638015 -1086.83984375 599.16796875 C-1086.20353027 598.19988281 -1085.5672168 597.23179687 -1084.91162109 596.234375 C-1076.67636317 583.72145316 -1068.26937327 571.38237858 -1059.40332031 559.30810547 C-1057.82452557 557.14700073 -1056.26323149 554.97429643 -1054.70703125 552.796875 C-1039.32022865 531.2833403 -1023.04285661 510.45187561 -1006.31201172 489.97216797 C-1005.01712864 488.38523829 -1003.72693897 486.79448138 -1002.4375 485.203125 C-996.8751044 478.35323096 -991.1483888 471.65391393 -985.38818359 464.97070312 C-983.86143684 463.19310962 -982.34342667 461.4084486 -980.828125 459.62109375 C-975.38725606 453.2133341 -969.85808162 446.91715144 -964.11132812 440.78100586 C-961.49821447 437.9877569 -958.94338356 435.15629801 -956.43359375 432.26953125 C-952.92295625 428.23888806 -949.31187241 424.31347124 -945.65234375 420.41796875 C-944.68167969 419.3825293 -944.68167969 419.3825293 -943.69140625 418.32617188 C-939.16405376 413.51863942 -934.53860029 408.82560883 -929.83935547 404.18676758 C-926.61778877 400.992093 -923.62034355 397.6777612 -920.67578125 394.23046875 C-915.48897374 388.40358712 -909.89983463 382.91923287 -903.9921875 377.828125 C-899.73558281 374.13571528 -895.78391824 370.18907595 -891.83984375 366.16796875 C-887.30789895 361.54750941 -882.71319178 357.10728073 -877.80859375 352.8828125 C-874.57213816 350.06375694 -871.46290861 347.11130353 -868.33984375 344.16796875 C-863.25384584 339.4014415 -858.14325829 334.69290042 -852.83984375 330.16796875 C-851.80707319 329.28150447 -850.77454447 328.3947584 -849.7421875 327.5078125 C-847.34757111 325.45146654 -844.94999636 323.39863407 -842.55078125 321.34765625 C-840.13162995 319.27826177 -837.72045642 317.20019568 -835.31640625 315.11328125 C-829.09746754 309.72551335 -822.7988922 304.49310604 -816.29638672 299.45068359 C-811.60627077 295.80368057 -807.03136474 292.03055529 -802.46484375 288.23046875 C-795.15183588 282.16668426 -787.6502162 276.41914191 -780.00878906 270.77783203 C-777.65896505 269.03371457 -775.32262493 267.27259103 -772.98828125 265.5078125 C-763.11703084 258.04928 -753.15758204 250.75537123 -743.00585938 243.68359375 C-740.78109615 242.12686132 -738.56745413 240.55529583 -736.35546875 238.98046875 C-709.35210864 219.81670326 -681.33204161 202.02520552 -652.83984375 185.16796875 C-651.9051123 184.61351074 -650.97038086 184.05905273 -650.00732422 183.48779297 C-636.07607398 175.23801533 -621.98183046 167.35977115 -607.70996094 159.71630859 C-604.98468609 158.24610673 -602.273184 156.75393495 -599.56640625 155.25 C-574.21931418 141.18413551 -548.15116383 128.6935475 -521.68798828 116.88916016 C-518.11512154 115.29424778 -514.55292462 113.67651761 -510.9921875 112.0546875 C-424.56318009 72.87053535 -332.52416075 44.48022428 0 0 Z M-55.83984375 76.16796875 C-56.73854187 76.23348938 -57.63723999 76.29901001 -58.56317139 76.36651611 C-150.66776452 83.09375466 -241.82299063 98.73738385 -579.83984375 229.16796875 C-581.91403785 230.31514873 -583.98825742 231.46228268 -586.0625 232.609375 C-599.15108303 239.87013635 -612.07835801 247.34737311 -624.83984375 255.16796875 C-625.67016113 255.67215332 -626.50047852 256.17633789 -627.35595703 256.69580078 C-641.90867803 265.54524243 -656.10415931 274.91433365 -670.27734375 284.35546875 C-671.16858948 284.9484375 -672.05983521 285.54140625 -672.97808838 286.15234375 C-688.07980319 296.20926048 -703.0089905 306.49117745 -717.58984375 317.29296875 C-718.38221436 317.87860596 -719.17458496 318.46424316 -719.9909668 319.06762695 C-726.67266321 324.01876332 -733.28345999 329.05200263 -739.83984375 334.16796875 C-740.38382813 334.59110352 -740.9278125 335.01423828 -741.48828125 335.45019531 C-750.43502022 342.41277846 -759.25635573 349.52358321 -768.03564453 356.69580078 C-769.62257421 357.99068386 -771.21333112 359.28087353 -772.8046875 360.5703125 C-779.04002898 365.63366616 -785.15506489 370.82627439 -791.23828125 376.0703125 C-793.58767351 378.09540994 -795.94659515 380.10821605 -798.31640625 382.109375 C-805.26779916 387.99290687 -812.01195981 394.04945538 -818.640625 400.29492188 C-821.80308957 403.27391012 -824.98101011 406.21108916 -828.27734375 409.04296875 C-831.55577861 411.86114818 -834.58756857 414.87096945 -837.58984375 417.98046875 C-839.49134888 419.82915429 -841.42970949 421.5485393 -843.44116211 423.27368164 C-847.96875686 427.22528685 -852.22644163 431.41024409 -856.46875 435.6640625 C-857.26208237 436.45643814 -858.05541473 437.24881378 -858.87278748 438.06520081 C-860.53873456 439.73047158 -862.20343631 441.39698904 -863.86694336 443.06469727 C-866.39520509 445.59831497 -868.92876036 448.12655042 -871.46289062 450.65429688 C-873.09016445 452.28223158 -874.717128 453.9104765 -876.34375 455.5390625 C-877.4659066 456.65818275 -877.4659066 456.65818275 -878.61073303 457.7999115 C-882.65870601 461.86574499 -886.54118268 466.01437942 -890.26548767 470.37953186 C-891.8878229 472.2224721 -893.58701797 473.94937414 -895.33984375 475.66796875 C-898.3321875 478.6139709 -901.09308547 481.69779882 -903.83203125 484.87890625 C-905.7833956 487.10361347 -907.78152831 489.2795014 -909.79418945 491.44873047 C-914.60221852 496.63270956 -919.15834476 501.94247 -923.59375 507.453125 C-925.92814965 510.2747037 -928.35974973 512.97387587 -930.83984375 515.66796875 C-935.73490503 520.99427963 -940.30163395 526.5373757 -944.83984375 532.16796875 C-946.29735145 533.9394817 -947.75569297 535.71030892 -949.21484375 537.48046875 C-953.99361795 543.32394393 -958.65967625 549.25149749 -963.30371094 555.20214844 C-964.91890116 557.26914013 -966.53943213 559.33187658 -968.16015625 561.39453125 C-981.63324228 578.57960937 -994.41377209 596.21380693 -1006.83984375 614.16796875 C-1007.59225342 615.25319824 -1007.59225342 615.25319824 -1008.35986328 616.36035156 C-1054.30904086 682.68161829 -1095.37026256 753.79982375 -1126.83984375 828.16796875 C-1127.15934998 828.92104309 -1127.4788562 829.67411743 -1127.80804443 830.45001221 C-1137.29968132 852.83825443 -1146.53008069 875.31076413 -1154.83984375 898.16796875 C-1155.07491638 898.81451416 -1155.30998901 899.46105957 -1155.55218506 900.12719727 C-1159.41647473 910.77237919 -1163.17157386 921.45370591 -1166.83984375 932.16796875 C-1167.06909546 932.8368512 -1167.29834717 933.50573364 -1167.5345459 934.19488525 C-1198.07384849 1023.53263485 -1217.03591253 1117.1882868 -1227.08984375 1222.85546875 C-1227.2056781 1224.14787979 -1227.2056781 1224.14787979 -1227.32385254 1225.46640015 C-1227.90342501 1232.02875554 -1228.38942538 1238.59556801 -1228.83984375 1245.16796875 C-1228.92737915 1246.41782562 -1229.01491455 1247.6676825 -1229.10510254 1248.95541382 C-1230.851481 1274.35921169 -1231.15510966 1299.71172997 -1231.10058594 1325.16918945 C-1231.08919974 1330.5276145 -1231.09597505 1335.88584061 -1231.10746384 1341.24425888 C-1231.15481379 1367.28285185 -1230.61290061 1393.18754521 -1228.83984375 1419.16796875 C-1228.76423218 1420.28908051 -1228.68862061 1421.41019226 -1228.61071777 1422.5652771 C-1228.17281163 1428.89780853 -1227.65964647 1435.22103091 -1227.08984375 1441.54296875 C-1226.96529312 1442.94518677 -1226.96529312 1442.94518677 -1226.83822632 1444.37573242 C-1217.69656886 1546.41642402 -1195.89277958 1646.65941232 -1080.33398438 1930.44433594 C-1078.87413798 1933.10545463 -1077.4389263 1935.77828773 -1076.01171875 1938.45703125 C-1068.88801933 1951.78350487 -1061.1852836 1964.70058032 -1053.26216125 1977.56192017 C-1051.1862069 1980.94033059 -1049.14233954 1984.33554093 -1047.12451172 1987.74902344 C-1040.32372387 1999.23657585 -1033.18191548 2010.43948489 -1025.74072266 2021.52246094 C-1023.96764752 2024.163792 -1022.2020327 2026.80998774 -1020.4375 2029.45703125 C-994.92965864 2067.64126689 -967.52608123 2104.62882451 -937.72265625 2139.58398438 C-934.87600221 2142.92588963 -932.09403523 2146.31214599 -929.33984375 2149.73046875 C-925.21294169 2154.80404368 -920.83881817 2159.60538017 -916.39453125 2164.3984375 C-914.33870653 2166.62715268 -912.32367418 2168.87564794 -910.33984375 2171.16796875 C-906.61623884 2175.45763236 -902.7759659 2179.63803545 -898.92645264 2183.81430054 C-896.96716863 2185.94107296 -895.01268571 2188.07205463 -893.06304932 2190.20767212 C-886.21556254 2197.69162084 -879.19199313 2204.96482756 -872.01171875 2212.12890625 C-870.92687748 2213.21442438 -869.8421844 2214.30009063 -868.75762939 2215.38589478 C-866.51060681 2217.63437328 -864.26183308 2219.88108047 -862.01171875 2222.12646484 C-859.14858372 2224.9838691 -856.29001089 2227.84578894 -853.43272018 2230.70903587 C-851.2038831 2232.94150664 -848.97264515 2235.17156568 -846.74069977 2237.4009285 C-845.68595576 2238.45501278 -844.63193353 2239.50981987 -843.5786972 2240.56541061 C-838.37796791 2245.77522912 -833.15977341 2250.91865945 -827.551651 2255.6942749 C-824.44452225 2258.3692002 -821.50235251 2261.22310212 -818.52734375 2264.04296875 C-813.35434176 2268.91277231 -808.06988529 2273.5257578 -802.515625 2277.9609375 C-799.52485555 2280.42777654 -796.67657549 2283.02803074 -793.83984375 2285.66796875 C-789.34067459 2289.844334 -784.72233199 2293.81314393 -779.94140625 2297.6640625 C-776.84881811 2300.1607237 -773.78518719 2302.68948256 -770.72436523 2305.22485352 C-762.53025362 2312.00577909 -754.26164297 2318.67208486 -745.83984375 2325.16796875 C-744.67195312 2326.06902344 -744.67195312 2326.06902344 -743.48046875 2326.98828125 C-732.14393941 2335.71671335 -720.69405012 2344.25836669 -709.0546875 2352.578125 C-706.77768478 2354.21258727 -704.51073509 2355.86017828 -702.24609375 2357.51171875 C-693.67545184 2363.75707027 -685.03671398 2369.84402782 -676.16113281 2375.64794922 C-673.39089345 2377.46194904 -670.62738121 2379.28603435 -667.86328125 2381.109375 C-654.32520044 2390.02102793 -640.68626437 2398.74050071 -626.83984375 2407.16796875 C-626.20175781 2407.55823242 -625.56367187 2407.94849609 -624.90625 2408.35058594 C-603.63195403 2421.35025147 -581.88301199 2433.52693536 -559.83984375 2445.16796875 C-558.77217773 2445.73338379 -557.70451172 2446.29879883 -556.60449219 2446.88134766 C-493.55471841 2480.1919166 -427.76158895 2507.63556027 -359.89501953 2529.50311279 C-357.93073057 2530.13856657 -355.96885024 2530.78086069 -354.0078125 2531.42626953 C-313.01701479 2544.88246197 -271.08660449 2555.4940773 -228.83984375 2564.16796875 C-227.96535583 2564.34781311 -227.09086792 2564.52765747 -226.18988037 2564.71295166 C-166.69491876 2576.8998295 -106.4507967 2584.49931316 -45.83984375 2588.16796875 C-44.80456543 2588.23322754 -43.76928711 2588.29848633 -42.70263672 2588.36572266 C-36.7504401 2588.73346362 -30.80039787 2588.98364081 -24.83984375 2589.16796875 C-24.17229065 2589.18881531 -23.50473755 2589.20966187 -22.81695557 2589.23114014 C-2.49667619 2589.86057603 17.82911265 2590.46815474 38.16015625 2590.16796875 C38.81387207 2590.15936829 39.46758789 2590.15076782 40.14111328 2590.14190674 C132.00216526 2588.92305039 223.72658323 2578.33962651 313.16015625 2557.16796875 C314.03891418 2556.96020813 314.91767212 2556.75244751 315.82305908 2556.53839111 C394.67599602 2537.8360351 471.42746502 2511.83100586 545.16015625 2478.16796875 C546.23040039 2477.68360352 547.30064453 2477.19923828 548.40332031 2476.70019531 C576.2659412 2464.0773961 603.87720443 2450.61087065 630.55224609 2435.62792969 C633.37842014 2434.0457802 636.21585458 2432.48509488 639.0546875 2430.92578125 C678.44619435 2409.20037219 716.72189364 2384.87793695 753.21484375 2358.56884766 C755.28533549 2357.07782336 757.36307125 2355.59725627 759.44140625 2354.1171875 C784.58643072 2336.15132184 809.05307834 2317.10257922 832.57397461 2297.05297852 C835.93903908 2294.18714132 839.34663178 2291.38255145 842.78515625 2288.60546875 C847.54822843 2284.72983942 852.09379874 2280.65562586 856.61328125 2276.5 C858.74957374 2274.54391623 860.90796282 2272.62609178 863.09765625 2270.73046875 C867.47807577 2266.92102041 871.74601359 2262.99099 876.015625 2259.05859375 C878.07266324 2257.16410424 880.13752357 2255.27889347 882.2109375 2253.40234375 C888.11302972 2248.04999362 893.83045523 2242.57514652 899.39453125 2236.87109375 C901.53455202 2234.77943503 903.69011221 2232.81815649 905.953125 2230.8671875 C910.4037795 2227.00939496 914.57054678 2222.90512362 918.72265625 2218.73046875 C919.79676758 2217.6621582 919.79676758 2217.6621582 920.89257812 2216.57226562 C924.92824222 2212.52925728 928.76293845 2208.38055737 932.49194336 2204.05444336 C935.08339348 2201.12393918 937.8635695 2198.40088171 940.66015625 2195.66796875 C944.67993236 2191.69304607 948.57187394 2187.69277177 952.23046875 2183.37890625 C954.92026973 2180.2970695 957.73491182 2177.33677205 960.53515625 2174.35546875 C965.23739629 2169.33351644 969.6819263 2164.18466172 973.984375 2158.8125 C976.29047325 2156.00957627 978.70167156 2153.337936 981.16015625 2150.66796875 C985.57897544 2145.85606442 989.73249387 2140.88527242 993.83203125 2135.80078125 C995.33447363 2133.95366091 996.85532488 2132.1226903 998.37890625 2130.29296875 C1005.41480041 2121.83389611 1012.23752325 2113.25227724 1018.87890625 2104.48046875 C1021.67873191 2100.78550651 1024.52842966 2097.13221185 1027.39111328 2093.48583984 C1034.91208719 2083.89727278 1042.11096046 2074.10722817 1049.16015625 2064.16796875 C1049.57503296 2063.58587646 1049.98990967 2063.00378418 1050.4173584 2062.40405273 C1058.19249377 2051.49333068 1065.74780872 2040.45294912 1073.16015625 2029.29296875 C1073.68539886 2028.50305542 1074.21064148 2027.71314209 1074.75180054 2026.89929199 C1094.13006132 1997.7434685 1112.26945322 1967.83820287 1129.16015625 1937.16796875 C1129.70994141 1936.1713623 1130.25972656 1935.17475586 1130.82617188 1934.14794922 C1148.8718223 1901.29076408 1165.50041248 1867.69225924 1180.27203369 1833.23846436 C1181.14266841 1831.20873845 1182.01699316 1829.18063756 1182.89208984 1827.15283203 C1196.31137563 1796.00461774 1208.22044548 1764.26680249 1219.16015625 1732.16796875 C1219.38962952 1731.49499756 1219.61910278 1730.82202637 1219.85552979 1730.12866211 C1250.02600011 1641.40240666 1269.26662002 1548.66362114 1283.16015625 1387.16796875 C1283.21800293 1385.85135254 1283.27584961 1384.53473633 1283.33544922 1383.17822266 C1287.25400184 1288.88877682 1279.94958298 1194.48425949 1225.16015625 950.16796875 C1224.9268158 949.43978943 1224.69347534 948.71161011 1224.45306396 947.96136475 C1209.38386817 901.02856269 1191.89134458 854.90158946 1171.16015625 810.16796875 C1170.84800171 809.49358765 1170.53584717 808.81920654 1170.2142334 808.12438965 C1158.45429225 782.73550363 1146.36342141 757.57052346 1132.78027344 733.09619141 C1131.06441888 729.99493168 1129.36554843 726.8847347 1127.66796875 723.7734375 C1119.30564817 708.50748348 1110.5050385 693.58171177 1101.36987305 678.76757812 C1099.781909 676.18858295 1098.21117787 673.5997717 1096.64770508 671.00585938 C1089.83899955 659.73390752 1082.68129069 648.72939109 1075.34765625 637.79296875 C1074.77744751 636.94045532 1074.20723877 636.08794189 1073.61975098 635.20959473 C1058.28123547 612.27752083 1042.49286341 589.71818942 1025.53955078 567.94189453 C1023.93903991 565.88360922 1022.3445839 563.82069264 1020.75 561.7578125 C1012.14494051 550.63970952 1003.35738895 539.72024484 994.24975586 529.00927734 C991.29976107 525.53498826 988.40321836 522.02307508 985.53515625 518.48046875 C981.9118113 514.02893067 978.14051753 509.7441442 974.27734375 505.5 C972.37964456 503.40972986 970.5128221 501.2981076 968.66015625 499.16796875 C965.30034154 495.3126975 961.88432608 491.51017024 958.45703125 487.71484375 C957.00459784 486.10432235 955.55614949 484.49019018 954.11328125 482.87109375 C941.05959232 468.24703623 927.39867858 454.244428 913.52368164 440.40112305 C911.64196857 438.52301825 909.76167585 436.6436345 907.8840332 434.76147461 C905.12589597 431.99713663 902.36429382 429.23630832 899.6015625 426.4765625 C898.77120987 425.64418564 897.94085724 424.81180878 897.08534241 423.95420837 C892.80548182 419.69138482 888.45175941 415.5851715 883.87290955 411.64491272 C881.84250944 409.89405508 879.88396789 408.07802477 877.94140625 406.23046875 C877.23628906 405.56273437 876.53117187 404.895 875.8046875 404.20703125 C874.375 402.84765625 872.9453125 401.48828125 871.515625 400.12890625 C866.82793724 395.68974307 862.05249442 391.3803249 857.16015625 387.16796875 C856.59458008 386.68021973 856.02900391 386.1924707 855.44628906 385.68994141 C853.81168354 384.28390773 852.17409786 382.88144493 850.53515625 381.48046875 C846.89386055 378.36773234 843.25426907 375.2536142 839.63671875 372.11328125 C833.39084321 366.70205949 827.0656479 361.44172777 820.53759766 356.3737793 C816.81272098 353.47956761 813.14250119 350.529293 809.49951172 347.53271484 C800.39400993 340.04777962 791.01193081 332.970467 781.54833984 325.94628906 C779.33471409 324.29795028 777.13000836 322.63869555 774.9296875 320.97265625 C766.26537805 314.41488019 757.47522634 308.06568503 748.56347656 301.84863281 C745.95226317 300.0225872 743.34916872 298.18528251 740.74609375 296.34765625 C728.61488533 287.81153284 716.30361624 279.65078535 703.72998047 271.78222656 C701.31415392 270.26470375 698.9090237 268.73192223 696.5078125 267.19140625 C675.52878338 253.75877423 653.96452434 241.20864921 632.16015625 229.16796875 C631.16693359 228.61915039 630.17371094 228.07033203 629.15039062 227.50488281 C595.69377791 209.11112441 561.45136164 192.09981341 526.34008789 177.09973145 C524.14533721 176.16163469 521.95245706 175.21926578 519.75976562 174.27636719 C485.22775039 159.45677457 450.08569025 146.39626249 414.32385254 134.86791992 C412.18779795 134.17691078 410.05402809 133.47927823 407.92089844 132.77929688 C321.58215162 104.47566896 231.24806478 86.91394616 110.87774658 76.359375 C108.34112451 76.18071477 105.80508716 75.99524391 103.26904297 75.80859375 C50.74806917 72.02965694 -3.33736636 72.23929925 -55.83984375 76.16796875 Z " fill="#000000" transform="translate(1317.83984375,5.83203125)"/>
<path d="M0 0 C11.31841295 9.70819674 18.50159275 21.90449629 20.828125 36.67578125 C20.94730459 39.23121336 21.01805575 41.74606701 21.015625 44.30078125 C21.01626953 45.00138672 21.01691406 45.70199219 21.01757812 46.42382812 C20.95822724 52.32114753 20.1911001 57.93181478 18.828125 63.67578125 C24.842692 59.13286363 28.72329611 54.12090906 32.765625 47.796875 C44.47271132 30.08103794 62.86216016 11.50472898 84.39648438 7.05957031 C104.91460642 3.82116792 124.04436914 8.87639232 140.828125 20.80859375 C143.59772314 23.003815 146.22284557 25.28825652 148.828125 27.67578125 C149.75367188 28.50851562 150.67921875 29.34125 151.6328125 30.19921875 C158.7739257 36.94470241 164.0212052 44.15266844 168.828125 52.67578125 C169.694375 54.19945312 169.694375 54.19945312 170.578125 55.75390625 C173.82757221 62.09032831 175.32519381 67.98056718 176.453125 74.92578125 C180.20253885 97.0889831 193.69063365 119.97890291 209.296875 136.06640625 C211.4584597 138.29470653 213.50239801 140.56481505 215.515625 142.92578125 C220.78013116 148.97996333 226.49282229 154.47859849 232.57421875 159.703125 C234.78775213 161.64044624 236.95016215 163.62678261 239.10620117 165.62768555 C244.26313449 170.41046428 249.5273835 174.97818686 255.015625 179.3828125 C257.46007427 181.37571767 259.83717408 183.42752652 262.20727539 185.50756836 C280.33811865 201.2808055 300.96877621 213.45711277 322.515625 223.92578125 C333.35593691 229.22194671 342.67620613 235.74152318 349.828125 245.67578125 C350.54296875 247.94140625 350.54296875 247.94140625 350.828125 249.67578125 C341.9944708 255.85174579 332.70334126 258.62728323 322.265625 260.86328125 C321.48662842 261.03029541 320.70763184 261.19730957 319.9050293 261.36938477 C309.0183484 263.58503586 298.21925445 263.91650691 287.14453125 263.97094727 C285.52757997 263.98242762 283.91066541 264.00281664 282.29394531 264.0324707 C266.22122238 264.32568487 252.7871981 261.8164516 238.328125 254.42578125 C237.39871094 253.966875 236.46929688 253.50796875 235.51171875 253.03515625 C233.27651755 251.92907731 231.04929627 250.80969307 228.828125 249.67578125 C232.62051415 253.86899202 237.19313586 256.90657714 241.765625 260.17578125 C247.86796689 264.60732712 253.779876 269.12405962 259.328125 274.23828125 C259.84882568 274.71394531 260.36952637 275.18960937 260.90600586 275.6796875 C264.78362701 279.34821804 267.66051808 282.49689134 268.078125 287.92578125 C267.828125 290.67578125 267.828125 290.67578125 266.828125 291.67578125 C240.57799109 292.58882939 216.34126456 282.21986792 192.828125 271.67578125 C193.29863281 272.29324219 193.76914063 272.91070313 194.25390625 273.546875 C198.98415279 279.98118551 203.23932275 285.9881269 202.515625 294.23828125 C202.28875 295.04265625 202.061875 295.84703125 201.828125 296.67578125 C177.23799652 298.35238092 149.21556054 285.09990542 130.7734375 269.3828125 C115.33508171 255.43621632 115.33508171 255.43621632 110.828125 248.67578125 C112.45445297 253.72373431 114.19297508 258.68939427 116.125 263.62890625 C116.52589844 264.66015625 116.92679688 265.69140625 117.33984375 266.75390625 C118.17273045 268.88735735 119.0140335 271.01753992 119.86328125 273.14453125 C120.25902344 274.170625 120.65476562 275.19671875 121.0625 276.25390625 C121.42569336 277.1759082 121.78888672 278.09791016 122.16308594 279.04785156 C122.90602852 281.98362027 122.64343855 283.78891903 121.828125 286.67578125 C108.78859754 286.10884527 98.88228159 275.10613094 90.453125 266.17578125 C84.28331038 259.147841 79.05815874 251.41257761 73.828125 243.67578125 C73.35052734 242.96969727 72.87292969 242.26361328 72.38085938 241.53613281 C65.68242837 231.56260449 59.58869591 221.32264058 53.92871094 210.72607422 C52.94763699 208.89842138 51.94042166 207.08485613 50.9296875 205.2734375 C42.18241952 188.94652329 37.46035374 170.80347838 33.8359375 152.7421875 C33.66505615 151.89285645 33.4941748 151.04352539 33.31811523 150.16845703 C32.99278665 148.51344713 32.68225536 146.85545627 32.38696289 145.19482422 C30.48426135 135.26225085 23.57948015 129.73473476 15.765625 123.73828125 C8.56586788 118.91000811 1.33462111 117.62580071 -7.171875 116.67578125 C-4.81528606 122.51209939 -2.47947834 128.20222854 0.640625 133.67578125 C3.97287882 140.3835097 3.96880655 146.9971549 1.7590332 154.12353516 C0.29288197 157.79131593 -1.27826964 161.39777487 -2.921875 164.98828125 C-7.33296839 174.8393714 -10.71803012 184.17801226 -13.171875 194.67578125 C-13.36555664 195.49457764 -13.55923828 196.31337402 -13.75878906 197.15698242 C-21.31731612 231.29472483 -14.92525126 271.87363289 -6.69482422 305.54589844 C-6.38968132 306.87953963 -6.09143195 308.21476208 -5.796875 309.55078125 C-5.57572871 310.54305347 -5.35458242 311.5353257 -5.12673473 312.55766678 C-3.39835449 320.95131394 -2.93394239 328.62274649 -3.40600586 337.16015625 C-3.46202186 338.40536041 -3.51803785 339.65056458 -3.5757513 340.9335022 C-3.75702001 344.84867713 -3.96231614 348.76202781 -4.171875 352.67578125 C-4.29606267 355.14792925 -4.41985787 357.62009699 -4.54324341 360.09228516 C-4.90036247 367.07459841 -5.29019713 374.0548497 -5.68677258 381.03501892 C-5.88297273 384.50399089 -6.07497412 387.9731953 -6.26731873 391.44238281 C-6.83535577 401.67437118 -7.4099446 411.90599016 -7.98522949 422.13757324 C-8.43602524 430.15684731 -8.88508392 438.17621154 -9.32931465 446.19585228 C-9.51941735 449.62489483 -9.71096048 453.05384331 -9.9060688 456.48260498 C-10.12234148 460.29161528 -10.33419469 464.10084916 -10.54516602 467.91015625 C-10.6409922 469.56704971 -10.6409922 469.56704971 -10.73875427 471.25741577 C-11.14684475 478.73659471 -11.24077677 486.18615896 -11.171875 493.67578125 C83.33384812 470.32999906 83.33384812 470.32999906 174.828125 437.67578125 C175.79943359 437.26086426 176.77074219 436.84594727 177.77148438 436.41845703 C200.79343001 426.49796654 223.41889514 415.3863559 233.3046875 390.671875 C234.17760153 387.34307596 233.84720369 384.92409458 232.828125 381.67578125 C230.93701389 379.35764505 229.48984469 378.0066411 226.828125 376.67578125 C217.50710586 376.51619005 208.65522235 379.48216666 199.828125 382.11328125 C172.81514998 390.09609842 149.07929354 392.35072925 123.4609375 378.71484375 C119.0710078 376.29730056 114.87038237 373.64010332 110.828125 370.67578125 C123.24095307 350.22355677 146.59016057 333.87766494 169.390625 327.17578125 C192.18962651 321.67926231 222.73314323 325.4027875 242.828125 337.67578125 C257.49119779 347.82190128 267.61306572 361.34623758 271.828125 378.73828125 C275.3104805 398.835797 270.87359281 417.75897059 259.54833984 434.57617188 C246.68073957 452.57479254 229.77204081 465.86432472 210.62548828 476.65966797 C208.93155482 477.6173087 207.2523273 478.60082936 205.57421875 479.5859375 C182.32272535 492.70700041 156.4484019 500.8307488 131.13360596 508.93548584 C128.87371325 509.66114276 126.61595824 510.39306096 124.35888672 511.12744141 C96.05098544 520.33374757 67.45736756 528.53376682 38.828125 536.67578125 C42.34308449 539.4029957 46.02503999 541.36649502 50.015625 543.30078125 C51.46034229 544.0141953 52.90432989 544.72908859 54.34765625 545.4453125 C55.46068115 545.99759521 55.46068115 545.99759521 56.59619141 546.56103516 C79.52674894 558.0137726 100.21450518 570.95477508 118.828125 588.67578125 C119.60800781 589.39121094 120.38789062 590.10664062 121.19140625 590.84375 C136.35416139 605.19854305 150.53016867 625.89678138 151.29711914 647.15625 C151.44807313 660.03131777 149.45639141 668.9727041 140.2421875 678.45703125 C124.88599381 692.57081445 104.73582258 694.88892349 84.828125 696.67578125 C85.71113281 697.22105469 86.59414062 697.76632812 87.50390625 698.328125 C104.9666563 709.24631648 121.82688969 722.10439091 128.40625 742.46484375 C130.4087398 752.95937364 129.44218855 763.4891318 123.828125 772.67578125 C121.08852238 776.31092128 118.08672067 779.50350599 114.828125 782.67578125 C114.17328125 783.35125 113.5184375 784.02671875 112.84375 784.72265625 C92.58026031 804.35782068 50.09287643 821.1174442 22 821.73828125 C21.28328125 821.71765625 20.5665625 821.69703125 19.828125 821.67578125 C22.89713774 824.77611045 26.0145137 827.81734009 29.1640625 830.8359375 C70.43038175 870.74656881 93.38923347 924.90894818 113.828125 977.67578125 C110.87500561 976.3648263 109.00047891 975.04167845 106.91015625 972.5859375 C106.38260742 971.97202148 105.85505859 971.35810547 105.31152344 970.72558594 C104.76012695 970.06977539 104.20873047 969.41396484 103.640625 968.73828125 C103.06473633 968.06313477 102.48884766 967.38798828 101.89550781 966.69238281 C97.12776453 961.08436799 92.45350115 955.40161864 87.828125 949.67578125 C82.59212557 943.23002021 77.29726059 936.84179846 71.91674805 930.51660156 C68.98575239 927.06475625 66.11116029 923.57382494 63.265625 920.05078125 C59.46116494 915.3751747 55.47260847 910.90373221 51.3828125 906.4765625 C49.4652548 904.37428593 47.60714484 902.25027613 45.7578125 900.08984375 C41.27336905 894.95154498 36.47078807 890.13239121 31.65039062 885.31274414 C30.08952173 883.74969391 28.53684612 882.1788076 26.984375 880.60742188 C20.59520161 874.18154838 13.99105317 868.24717539 6.828125 862.67578125 C5.69479736 861.79200806 5.69479736 861.79200806 4.53857422 860.89038086 C2.42529486 859.26994519 0.28882444 857.68703181 -1.859375 856.11328125 C-2.53419922 855.60087891 -3.20902344 855.08847656 -3.90429688 854.56054688 C-11.13199157 849.27246925 -19.12692614 845.53946158 -27.171875 841.67578125 C-27.23229477 842.42667023 -27.29271454 843.1775592 -27.35496521 843.95120239 C-27.92603626 851.04272459 -28.49956346 858.13404293 -29.07581997 865.22514534 C-29.37196155 868.8703673 -29.66716754 872.5156599 -29.96020508 876.16113281 C-30.24326768 879.68207719 -30.52882746 883.20281107 -30.81608772 886.72341537 C-30.97786055 888.71400035 -31.13707597 890.70479264 -31.29624939 892.69558716 C-31.39627762 893.91639984 -31.49630585 895.13721252 -31.59936523 896.39501953 C-31.68596909 897.46535431 -31.77257294 898.53568909 -31.86180115 899.63845825 C-32.17241036 902.68102531 -32.63592987 905.66544775 -33.171875 908.67578125 C-32.223125 908.73765625 -31.274375 908.79953125 -30.296875 908.86328125 C-20.74972477 910.27124482 -12.21632147 916.39323893 -6.44921875 923.92578125 C0.58556989 934.71130486 2.70081284 947.48162458 0.13671875 960.0703125 C-1.83012532 967.13942989 -4.54790983 972.97699608 -9.171875 978.67578125 C-9.67332031 979.30097656 -10.17476562 979.92617187 -10.69140625 980.5703125 C-18.73824113 989.55692371 -30.00024482 993.02269303 -41.6953125 993.85546875 C-54.97312343 994.2324413 -67.1512831 990.69922276 -77.046875 981.55078125 C-85.85312517 972.04130965 -89.7439954 960.13691848 -89.421875 947.3125 C-88.39856543 936.51978186 -84.44127553 925.10056368 -76.171875 917.67578125 C-69.64775187 912.94004716 -63.45869771 908.67578125 -55.171875 908.67578125 C-55.70461147 902.66989487 -56.23767045 896.66403722 -56.77099609 890.65820312 C-56.95141782 888.62598395 -57.13175965 886.59375767 -57.31201172 884.56152344 C-58.58017528 870.26457339 -59.86670606 855.96940121 -61.171875 841.67578125 C-77.0477219 848.90130315 -91.17338649 858.50827852 -103.87109375 870.515625 C-105.81311423 872.33894813 -107.79213465 874.07421272 -109.8125 875.80859375 C-114.83954082 880.19052786 -119.53126478 884.88890602 -124.234375 889.61328125 C-125.09353516 890.46857422 -125.95269531 891.32386719 -126.83789062 892.20507812 C-131.82474633 897.19955317 -136.60125908 902.29887934 -141.171875 907.67578125 C-142.14557266 908.80491234 -143.11952159 909.93382681 -144.09375 911.0625 C-146.61113 913.99717622 -149.12346858 916.9361654 -151.63427734 919.87646484 C-152.62566886 921.03660385 -153.61810404 922.1958522 -154.61181641 923.35400391 C-159.72881446 929.31815141 -164.73128734 935.33995026 -169.546875 941.55078125 C-173.99716092 947.28861161 -178.66748611 952.79696576 -183.45629883 958.25439453 C-187.53055746 962.90317319 -191.4388381 967.65120475 -195.26953125 972.50390625 C-197.09075302 974.5831656 -198.89933341 976.11688858 -201.171875 977.67578125 C-200.50890288 973.5880873 -199.21606441 970.06441645 -197.6171875 966.25 C-197.36013031 965.63439209 -197.10307312 965.01878418 -196.83822632 964.38452148 C-195.9966614 962.37505451 -195.14744655 960.36895107 -194.296875 958.36328125 C-194.00498291 957.67183014 -193.71309082 956.98037903 -193.41235352 956.26797485 C-173.4845776 909.09039266 -151.70077704 864.29022537 -114.70361328 828.17529297 C-112.50853821 826.02640054 -110.33991013 823.85192118 -108.171875 821.67578125 C-109.48285156 821.55203125 -110.79382812 821.42828125 -112.14453125 821.30078125 C-116.7551596 820.78299573 -121.13198419 819.87479123 -125.609375 818.67578125 C-126.40722412 818.46284424 -127.20507324 818.24990723 -128.02709961 818.03051758 C-145.90998605 813.09724905 -163.4891954 806.805072 -180.171875 798.67578125 C-181.22503906 798.16402344 -182.27820312 797.65226562 -183.36328125 797.125 C-197.80800231 789.67160429 -210.15631741 778.53073556 -216.546875 763.42578125 C-218.66261521 750.73133998 -217.21150117 739.34104869 -209.984375 728.55078125 C-208.74033257 726.90518082 -207.46874606 725.28007792 -206.171875 723.67578125 C-205.20121094 722.45955078 -205.20121094 722.45955078 -204.2109375 721.21875 C-199.97702294 716.22147166 -195.35147293 711.98158599 -190.234375 707.92578125 C-189.68579834 707.49015869 -189.13722168 707.05453613 -188.57202148 706.60571289 C-183.70039369 702.86141564 -178.47789439 699.76199673 -173.171875 696.67578125 C-174.12102783 696.58659424 -174.12102783 696.58659424 -175.08935547 696.49560547 C-196.33724817 694.4088618 -218.03137977 691.37891078 -232.515625 674.015625 C-239.68907104 663.88144061 -240.08039627 652.68179871 -239.171875 640.67578125 C-234.27394783 612.34891583 -208.51053104 586.66486327 -186.109375 570.67578125 C-167.62187393 557.78754126 -147.3129681 547.6871589 -127.171875 537.67578125 C-129.8581449 536.25642183 -132.43629008 535.20778482 -135.35546875 534.37329102 C-136.18485458 534.13371674 -137.01424042 533.89414246 -137.86875916 533.64730835 C-139.225364 533.26114853 -139.225364 533.26114853 -140.609375 532.8671875 C-142.6102154 532.28902913 -144.61094215 531.71047739 -146.61157227 531.1315918 C-148.21079025 530.67059586 -148.21079025 530.67059586 -149.84231567 530.20028687 C-170.57966585 524.20866895 -191.22845795 517.95544316 -211.81488037 511.46699142 C-213.7004095 510.87396392 -215.58713363 510.28474022 -217.47387695 509.69558716 C-268.10391285 493.86631493 -326.28484606 473.74058373 -353.70703125 424.57421875 C-361.99878766 408.16759673 -363.37036829 390.08825611 -358.2421875 372.484375 C-352.57087374 356.23312763 -341.73912362 343.12089914 -326.359375 335.30078125 C-305.25284184 325.14824012 -276.38141997 321.07443307 -253.69140625 328.28125 C-234.93895539 335.71146638 -220.88629587 346.96782058 -206.609375 361.05078125 C-205.98901367 361.65801025 -205.36865234 362.26523926 -204.72949219 362.89086914 C-204.15231445 363.46699951 -203.57513672 364.04312988 -202.98046875 364.63671875 C-202.46282959 365.15024902 -201.94519043 365.6637793 -201.41186523 366.19287109 C-200.171875 367.67578125 -200.171875 367.67578125 -199.171875 370.67578125 C-220.48516037 384.95723816 -241.94947189 392.70008891 -267.85595703 387.59106445 C-273.78886791 386.25925594 -279.61534554 384.55363268 -285.4609375 382.88671875 C-286.56074951 382.57420166 -287.66056152 382.26168457 -288.79370117 381.93969727 C-290.94343081 381.3228431 -293.08972763 380.69384584 -295.23168945 380.05053711 C-306.70065619 376.49726581 -306.70065619 376.49726581 -318.234375 377.86328125 C-320.3516984 379.84400314 -321.39449187 380.87720197 -322.171875 383.67578125 C-322.171875 395.12570468 -313.7618753 405.82364593 -306.171875 413.67578125 C-284.49302443 434.41049428 -249.53577669 444.0503379 -221.51953125 453.39453125 C-220.75322577 453.65051149 -219.98692028 453.90649174 -219.19739342 454.17022896 C-202.0895816 459.86177811 -184.78691417 464.74369342 -167.38926697 469.46002579 C-164.10677532 470.351669 -160.82640799 471.25099714 -157.54600334 472.15028286 C-130.79691284 479.48261028 -104.00693936 486.66451369 -77.171875 493.67578125 C-77.07899484 483.2360107 -77.31379371 472.87471512 -77.92211914 462.44799805 C-78.00296281 461.00539879 -78.08338891 459.56277608 -78.16343689 458.12013245 C-78.3345159 455.05038526 -78.50821605 451.98080251 -78.68400764 448.91132164 C-78.96230164 444.04720759 -79.23290555 439.18268321 -79.50230408 434.31806946 C-80.22037787 421.37157189 -80.94724885 408.42557281 -81.68083328 395.479945 C-82.16442658 386.94592389 -82.64342418 378.41167297 -83.11369985 369.87690669 C-83.37998038 365.05082438 -83.65343234 360.22522117 -83.93242466 355.39985788 C-84.10465597 352.39174135 -84.27012266 349.38327979 -84.43377113 346.37468529 C-84.51038516 344.99072126 -84.58970394 343.6069036 -84.67207718 342.22327042 C-85.26949592 332.15246111 -85.24755683 322.46186117 -82.9375 312.59375 C-82.69539795 311.51536865 -82.4532959 310.4369873 -82.20385742 309.32592773 C-81.94580322 308.18325439 -81.68774902 307.04058105 -81.421875 305.86328125 C-78.81709103 293.84613297 -76.93103641 281.8070267 -75.359375 269.61328125 C-75.20221008 268.40241348 -75.20221008 268.40241348 -75.04187012 267.16708374 C-70.57459653 232.48472375 -69.75142632 199.02302078 -84.48828125 166.5546875 C-84.89852539 165.63655273 -85.30876953 164.71841797 -85.73144531 163.77246094 C-86.54225041 161.97074206 -87.37247193 160.17758309 -88.22558594 158.39550781 C-91.35295099 151.49729786 -92.76322899 144.52807581 -90.3425293 137.14697266 C-89.39204421 134.91833591 -88.32362364 132.80690798 -87.171875 130.67578125 C-86.45959118 129.28195968 -85.75112026 127.88618161 -85.046875 126.48828125 C-84.73492188 125.89660156 -84.42296875 125.30492187 -84.1015625 124.6953125 C-82.90153079 122.08852093 -82.0449302 119.40697605 -81.171875 116.67578125 C-89.99785924 117.56984199 -97.38550996 119.00951644 -104.671875 124.30078125 C-105.2095752 124.68991699 -105.74727539 125.07905273 -106.30126953 125.47998047 C-108.00649027 126.80486626 -109.58520459 128.21095219 -111.171875 129.67578125 C-111.85113037 130.26617188 -112.53038574 130.8565625 -113.23022461 131.46484375 C-119.45201979 137.50295124 -120.96619177 143.96391392 -122.36566162 152.25799561 C-122.99536149 155.96020555 -123.73455222 159.64076459 -124.46484375 163.32421875 C-124.67781097 164.41369308 -124.67781097 164.41369308 -124.89508057 165.525177 C-132.56465434 204.09300717 -160.35053124 256.83565698 -192.9765625 279.95458984 C-204.13652164 287.26239503 -204.13652164 287.26239503 -210.171875 286.67578125 C-211.65651413 282.8120021 -210.63030859 280.43303759 -209.1875 276.66015625 C-208.52621094 274.90638672 -208.52621094 274.90638672 -207.8515625 273.1171875 C-207.37976562 271.89902344 -206.90796875 270.68085937 -206.421875 269.42578125 C-205.96554687 268.22308594 -205.50921875 267.02039062 -205.0390625 265.78125 C-204.15492133 263.4533523 -203.26642246 261.12710383 -202.37304688 258.80273438 C-200.95128519 255.10153037 -199.55795193 251.39046742 -198.171875 247.67578125 C-198.67074219 248.24683594 -199.16960937 248.81789063 -199.68359375 249.40625 C-202.14955847 252.19097497 -204.64962785 254.94212939 -207.171875 257.67578125 C-207.65382324 258.19994629 -208.13577148 258.72411133 -208.63232422 259.26416016 C-221.77308266 273.40295089 -236.55166754 282.03224052 -254.171875 289.67578125 C-254.80963867 289.95325195 -255.44740234 290.23072266 -256.10449219 290.51660156 C-267.49890363 295.39098185 -277.81965933 297.06380897 -290.171875 296.67578125 C-291.01661816 288.22834965 -288.24070627 282.95962169 -284.171875 275.67578125 C-283.49728378 274.34643972 -282.82706713 273.0147904 -282.171875 271.67578125 C-283.120625 272.16046875 -284.069375 272.64515625 -285.046875 273.14453125 C-297.33943731 279.25696555 -310.05284029 283.67714818 -323.171875 287.67578125 C-324.08984863 287.96275879 -325.00782227 288.24973633 -325.95361328 288.54541016 C-332.43884616 290.46529707 -338.54894448 291.22392008 -345.296875 291.42578125 C-346.71226563 291.48958984 -346.71226563 291.48958984 -348.15625 291.5546875 C-353.17514363 291.74994705 -353.17514363 291.74994705 -355.171875 291.67578125 C-355.501875 291.34578125 -355.831875 291.01578125 -356.171875 290.67578125 C-356.03788628 284.11033405 -353.62917544 280.38294844 -349.171875 275.67578125 C-339.28332613 266.33734161 -328.28925313 258.47198975 -317.171875 250.67578125 C-317.72423828 250.9274707 -318.27660156 251.17916016 -318.84570312 251.43847656 C-321.44840659 252.61476052 -324.059938 253.77015309 -326.671875 254.92578125 C-327.97318359 255.51939453 -327.97318359 255.51939453 -329.30078125 256.125 C-342.70870408 262.00905246 -355.33847119 264.32646381 -369.88085938 264.08740234 C-372.17102908 264.05079477 -374.45956678 264.04638601 -376.75 264.046875 C-390.1652287 263.98438003 -403.38960586 262.77091171 -416.421875 259.42578125 C-417.2581543 259.21542236 -418.09443359 259.00506348 -418.95605469 258.78833008 C-425.88084884 256.9501436 -431.98737883 254.33368447 -438.171875 250.67578125 C-437.7104946 245.78514901 -436.55319687 243.33707404 -433.234375 239.73828125 C-432.52410156 238.94550781 -431.81382812 238.15273437 -431.08203125 237.3359375 C-423.49593381 230.40153166 -414.95709874 225.87753703 -405.734375 221.48828125 C-381.71034067 209.73328274 -360.09085629 194.49632853 -340.171875 176.67578125 C-339.24761719 175.85078125 -338.32335938 175.02578125 -337.37109375 174.17578125 C-335.70728931 172.68113447 -334.04688525 171.1826899 -332.390625 169.6796875 C-330.37879107 167.86266143 -328.34527066 166.07633733 -326.296875 164.30078125 C-303.84059522 144.68535614 -285.78534992 124.3952112 -272.171875 97.67578125 C-271.44484375 96.36287109 -271.44484375 96.36287109 -270.703125 95.0234375 C-267.57758456 88.99152562 -266.45889621 83.12078187 -265.359375 76.48828125 C-263.65304671 66.43862052 -260.46855379 58.35056407 -255.171875 49.67578125 C-254.81963867 49.0936084 -254.46740234 48.51143555 -254.10449219 47.91162109 C-242.27946089 28.77588072 -224.21044115 14.42099209 -202.671875 7.80078125 C-186.90768334 4.27899375 -169.13976434 5.51021599 -155.0859375 13.69140625 C-149.00561769 17.83189213 -143.58325822 22.7095585 -138.171875 27.67578125 C-137.66591797 28.13114258 -137.15996094 28.58650391 -136.63867188 29.05566406 C-129.60811499 35.42858474 -124.46706731 42.34484744 -119.39453125 50.26953125 C-115.99763568 55.55711096 -112.29280637 59.97127771 -107.171875 63.67578125 C-107.31625 62.97195313 -107.460625 62.268125 -107.609375 61.54296875 C-111.06602289 43.15552231 -108.83048211 27.76085885 -99.171875 11.67578125 C-91.13946094 0.25793621 -78.56935895 -7.69406217 -65.171875 -11.32421875 C-64.37265625 -11.54722656 -63.5734375 -11.77023437 -62.75 -12 C-41.2230829 -16.91375282 -17.83064127 -13.0655561 0 0 Z M-77.95703125 574.66015625 C-78.94993164 575.09448975 -79.94283203 575.52882324 -80.96582031 575.97631836 C-82.04444336 576.45464111 -83.12306641 576.93296387 -84.234375 577.42578125 C-85.35038086 577.92021729 -86.46638672 578.41465332 -87.61621094 578.92407227 C-124.35911255 595.30893281 -165.41487927 613.75714132 -189.921875 647.11328125 C-190.5861853 648.00019653 -190.5861853 648.00019653 -191.26391602 648.9050293 C-193.56220636 652.02273517 -193.56220636 652.02273517 -194.0222168 655.7355957 C-192.59060184 659.00204534 -189.96011057 659.50680008 -186.79345703 660.78320312 C-170.85593596 666.20950011 -153.79172232 666.32677579 -137.171875 665.67578125 C-136.36915161 665.64466248 -135.56642822 665.6135437 -134.73937988 665.58148193 C-123.19039224 665.1276933 -111.64495884 664.60418305 -100.10032654 664.05148315 C-92.52108951 663.68911752 -84.94103086 663.35887072 -77.359375 663.05078125 C-75.69116122 662.98268792 -74.02294836 662.91457179 -72.35473633 662.84643555 C-70.96044946 662.78954484 -69.56616244 662.73265799 -68.171875 662.67578125 C-67.84517665 644.91760818 -68.77382243 627.19316095 -69.56256104 609.45825195 C-69.74654602 605.3010748 -69.92578426 601.14369298 -70.10546875 596.98632812 C-70.45639503 588.88260955 -70.81243049 580.77912645 -71.171875 572.67578125 C-73.81923926 572.67578125 -75.52722433 573.59590305 -77.95703125 574.66015625 Z M-16.171875 572.67578125 C-17.63800298 575.6080372 -17.4310813 578.30842725 -17.56079102 581.58129883 C-17.59019775 582.29222687 -17.61960449 583.00315491 -17.64990234 583.73562622 C-17.74637536 586.09703083 -17.83619158 588.45863746 -17.92578125 590.8203125 C-17.99128619 592.4678424 -18.05712258 594.11535916 -18.12327576 595.76286316 C-18.26139717 599.22713852 -18.39639425 602.69151709 -18.52905273 606.15600586 C-18.69790293 610.56265314 -18.87295215 614.96902517 -19.05023289 619.37534046 C-19.18697435 622.78568149 -19.32103735 626.19612377 -19.4542675 629.60660362 C-19.51781062 631.22867036 -19.58198902 632.85071235 -19.64685249 634.47272682 C-20.02075447 643.87914885 -20.26429083 653.25950568 -20.171875 662.67578125 C-19.53088867 662.69861679 -18.88990234 662.72145233 -18.22949219 662.74497986 C-11.47939851 662.98587875 -4.72941806 663.22978686 2.02050781 663.4753418 C4.53024632 663.56626269 7.04001155 663.65644934 9.54980469 663.74584961 C21.8926324 664.18596239 34.22105953 664.64648244 46.54443359 665.47290039 C65.5062394 666.64444393 86.14643413 666.60205647 103.828125 658.67578125 C104.488125 658.01578125 105.148125 657.35578125 105.828125 656.67578125 C105.27749788 645.72020037 90.44310699 633.40417562 82.75830078 626.35595703 C76.86138902 621.22282438 70.39618548 616.8944753 63.828125 612.67578125 C63.07853516 612.19431641 62.32894531 611.71285156 61.55664062 611.21679688 C37.61562859 596.03320838 10.92715149 581.40212155 -16.171875 572.67578125 Z M-178.67578125 738.02734375 C-183.0585296 742.72487513 -187.84093617 748.11052254 -188.32421875 754.77734375 C-187.89407825 760.66695989 -185.19895472 763.89641695 -180.90234375 767.66796875 C-148.4846372 791.67001876 -102.94871977 793.31347762 -64.171875 792.67578125 C-63.84854982 774.09655867 -64.77031235 755.555718 -65.56256104 736.99890137 C-65.74657795 732.66736318 -65.92579755 728.33562649 -66.10546875 724.00390625 C-66.45634796 715.56100107 -66.81238831 707.11832431 -67.171875 698.67578125 C-104.0503183 698.43350331 -151.26758548 712.28672932 -178.67578125 738.02734375 Z M-21.171875 698.67578125 C-21.56704553 708.4215739 -21.95846739 718.16750828 -22.34532928 727.9136343 C-22.52514933 732.44095054 -22.70617745 736.96821123 -22.89013672 741.49536133 C-23.0681931 745.87840966 -23.24285391 750.26158221 -23.41532898 754.64485359 C-23.4811284 756.30271133 -23.54807549 757.96052399 -23.61628723 759.61828423 C-24.06897287 770.64419576 -24.25485309 781.64062838 -24.171875 792.67578125 C13.26180087 793.25581295 63.9898371 792.85138836 93.9296875 766.5390625 C98.30877892 762.30823254 98.30877892 762.30823254 100.04296875 756.62109375 C99.68640564 747.66050775 93.85035165 741.41325622 87.74658203 735.41552734 C84.73956 732.68861986 81.50068565 730.47169041 78.078125 728.30078125 C77.34134521 727.83309326 76.60456543 727.36540527 75.84545898 726.88354492 C50.38198293 711.08519448 22.00323127 704.70983651 -7.171875 699.67578125 C-8.60901855 699.39335571 -8.60901855 699.39335571 -10.07519531 699.10522461 C-12.59294184 698.75606692 -14.83922041 698.63112824 -17.36541748 698.64894104 C-18.62154846 698.65779831 -19.87767944 698.66665558 -21.171875 698.67578125 Z " fill="#000000" transform="translate(1388.171875,847.32421875)"/>
</svg>
