<?xml version="1.0" encoding="UTF-8"?>
<svg version="1.1" xmlns="http://www.w3.org/2000/svg" width="2688" height="2682">
<path d="M0 0 C1.56234375 1.17949219 1.56234375 1.17949219 3.15625 2.3828125 C9.91725217 7.50484508 16.44935877 12.84175472 22.890625 18.359375 C25.67214811 20.73718381 28.5157635 23.02849451 31.375 25.3125 C37.89670281 30.62437968 43.9589562 36.40507501 50.06494141 42.18261719 C51.93910669 43.94280976 53.8305342 45.68175451 55.73046875 47.4140625 C64.63312436 55.55557682 72.96503897 64.12251016 81.14257812 72.98974609 C82.87275186 74.86228165 84.61355149 76.72409542 86.359375 78.58203125 C92.5291589 85.16697817 98.35530007 91.95791508 104 99 C105.00636432 100.22775097 106.01427721 101.45423366 107.0234375 102.6796875 C141.53037041 144.65585574 170.13770051 191.31397035 193.5625 240.3125 C193.92641846 241.07022705 194.29033691 241.8279541 194.6652832 242.60864258 C196.05129171 245.58187136 197 247.67926302 197 251 C166.97844169 251.38809256 136.95696953 251.68880447 106.93345524 251.8681106 C103.38629676 251.88937177 99.83914325 251.91137533 96.29199219 251.93383789 C95.58583959 251.93829717 94.87968699 251.94275645 94.15213583 251.94735085 C82.72853131 252.02125886 71.30638602 252.15525502 59.88364626 252.31159753 C48.15642043 252.47076477 36.42995691 252.56503739 24.70169532 252.59950441 C18.11591981 252.62165984 11.53344948 252.67366382 4.94873428 252.79741096 C-1.25266493 252.91300777 -7.44940681 252.94836473 -13.65178108 252.92283058 C-15.92476946 252.92749941 -18.19791689 252.96121865 -20.46997261 253.02649307 C-37.20203845 253.48352433 -37.20203845 253.48352433 -41.86878443 249.34123111 C-45.09675429 245.28751994 -47.1805424 240.85888735 -49.10419393 236.07525814 C-50.42739054 233.00989096 -52.17853393 230.41097104 -54.0546875 227.65234375 C-54.68270264 226.70617187 -55.31071777 225.76 -55.95776367 224.78515625 C-56.90679565 223.37556641 -56.90679565 223.37556641 -57.875 221.9375 C-58.55989502 220.9165625 -59.24479004 219.895625 -59.95043945 218.84375 C-65.69252744 210.34350354 -71.65389438 202.0586791 -78 194 C-78.5269043 193.33033203 -79.05380859 192.66066406 -79.59667969 191.97070312 C-85.90354475 183.99822682 -92.39888187 176.26757455 -99.34375 168.84375 C-101.09529213 166.9685696 -102.82520549 165.07291729 -104.53125 163.15625 C-115.64583944 150.7025534 -127.89530844 139.33218982 -141 129 C-142.10186341 128.09700457 -143.20202078 127.19192477 -144.30078125 126.28515625 C-211.52266117 71.10892189 -297.29446604 40.9036487 -383 31 C-384.23959473 30.85046875 -385.47918945 30.7009375 -386.75634766 30.546875 C-430.95562978 25.43700409 -477.84181339 25.5848043 -522 31 C-522.71109924 31.08485657 -523.42219849 31.16971313 -524.15484619 31.25714111 C-587.48468193 38.82733352 -647.90062789 56.52765971 -705 85 C-705.98919434 85.49258301 -706.97838867 85.98516602 -707.99755859 86.49267578 C-722.15070731 93.58915117 -735.69734047 101.41830653 -749 110 C-749.60908203 110.39171387 -750.21816406 110.78342773 -750.84570312 111.18701172 C-767.31447651 121.83086436 -783.00732102 133.59855215 -797.88671875 146.359375 C-800.68171957 148.7494403 -803.55255753 151.03157916 -806.4375 153.3125 C-811.69696944 157.57568228 -816.42587434 162.28271031 -821.14233398 167.12817383 C-824.27957229 170.34229414 -827.4736615 173.2065632 -831 176 C-832.13899916 177.21834517 -833.24529708 178.46829724 -834.3125 179.75 C-836.72356118 182.57765923 -839.20549335 185.22790807 -841.875 187.8125 C-845.84803372 191.72417412 -849.31081794 195.95506726 -852.796875 200.30078125 C-854.71607528 202.65214188 -856.6951334 204.89313859 -858.75 207.125 C-916.61050706 271.64405747 -951.95061664 357.18903693 -984 538 C-984.08757568 539.2686792 -984.17515137 540.5373584 -984.26538086 541.84448242 C-985.24317888 557.11162286 -985.20056232 572.39562365 -985.1875 587.6875 C-985.18723312 588.38727085 -985.18696625 589.0870417 -985.18669128 589.80801773 C-985.17673673 610.60377769 -985.02721768 631.28436934 -983 652 C-982.86942162 653.39726364 -982.73922976 654.79456345 -982.609375 656.19189453 C-976.356726 722.55486028 -961.26840781 788.02168034 -934 849 C-933.51917969 850.08506836 -933.03835938 851.17013672 -932.54296875 852.28808594 C-925.73022617 867.60776896 -918.27579583 882.42150435 -910 897 C-909.24201097 898.3631831 -908.4841863 899.72645763 -907.7265625 901.08984375 C-892.30706873 928.41850849 -873.63874485 954.40291904 -853 978 C-852.36964844 978.72960938 -851.73929688 979.45921875 -851.08984375 980.2109375 C-849.40572661 982.15208391 -847.70428774 984.0765472 -846 986 C-845.39091797 986.69319336 -844.78183594 987.38638672 -844.15429688 988.10058594 C-838.25655503 994.74462971 -832.09703501 1001.08917657 -825.81689453 1007.3684082 C-824.12892145 1009.05857346 -822.44914276 1010.75660834 -820.76953125 1012.45507812 C-814.88858317 1018.36611012 -808.92031814 1023.90249704 -802.39013672 1029.09790039 C-800.38826659 1030.69101277 -798.44712766 1032.31748641 -796.53125 1034.01171875 C-771.98455507 1055.71708506 -743.87886807 1073.14783665 -715.18945312 1088.79882812 C-713.18542756 1089.89827123 -711.19349568 1091.01672483 -709.203125 1092.140625 C-638.42636232 1131.51494713 -551.38224959 1150.93344646 -470.7421875 1151.203125 C-469.31730621 1151.21014806 -467.89242524 1151.21723487 -466.46754456 1151.22438049 C-461.93669177 1151.24378559 -457.40589015 1151.24881499 -452.875 1151.25 C-452.10268665 1151.25044186 -451.33037331 1151.25088371 -450.53465652 1151.25133896 C-427.6183949 1151.25821426 -404.84088389 1151.05474238 -382.06506348 1148.25323486 C-379.89938826 1147.98766217 -377.73256368 1147.73335595 -375.56542969 1147.47998047 C-285.16524424 1136.77295745 -194.35924532 1104.88668319 -124.91015625 1044.5078125 C-122.13788464 1042.11882139 -119.30355158 1039.83740296 -116.4375 1037.5625 C-111.74302356 1033.75080412 -107.50379024 1029.62418128 -103.28027344 1025.30981445 C-100.51353432 1022.488266 -97.70480042 1019.80130808 -94.6875 1017.25 C-91.34806228 1014.40733813 -88.53834295 1011.29964077 -85.70703125 1007.95703125 C-84.08739193 1006.10019075 -82.39876709 1004.39602508 -80.625 1002.6875 C-76.91382598 999.03405535 -73.69296605 995.04853954 -70.43359375 990.9921875 C-68.38522057 988.47364199 -66.28900156 986.00995997 -64.16015625 983.55957031 C1.02329822 908.1262538 33.24242407 809.52431503 47.82255554 712.46081543 C48.64994607 707.01613413 49.59063768 701.59455015 50.55252075 696.17234802 C50.76146265 694.99159612 50.76146265 694.99159612 50.97462559 693.78699064 C51.31604145 691.85792725 51.65796917 689.92895445 52 688 C51.37074256 688.00455664 50.74148511 688.00911329 50.09315926 688.01380801 C12.79134455 688.28239358 -24.51032704 688.48826228 -61.81291085 688.61278395 C-66.29267462 688.62779228 -70.77243642 688.64332417 -75.25219727 688.65917969 C-76.14403029 688.66232741 -77.03586331 688.66547514 -77.95472158 688.66871825 C-92.39193307 688.72092272 -106.82857069 688.8155303 -121.26544183 688.92583355 C-136.08104206 689.03808564 -150.89634192 689.10471212 -165.71234995 689.12906194 C-174.8537033 689.14552139 -183.99343465 689.1974844 -193.13428862 689.2949976 C-199.40412396 689.35847263 -205.67312192 689.3775926 -211.94325518 689.36201653 C-215.56058307 689.35433496 -219.17507954 689.36602816 -222.79190254 689.4304657 C-245.65265933 689.81807124 -245.65265933 689.81807124 -250.63217354 685.3771286 C-253.06219931 682.54244635 -254.51741032 679.4199997 -256 676 C-257.63577881 673.77424289 -257.63577881 673.77424289 -259.2578125 672.01171875 C-259.73444336 671.45427979 -260.21107422 670.89684082 -260.70214844 670.32250977 C-261.17168945 669.78295654 -261.64123047 669.24340332 -262.125 668.6875 C-262.63579102 668.09702881 -263.14658203 667.50655762 -263.67285156 666.89819336 C-269.65756441 660.02907295 -276.07506757 653.91766953 -283 648 C-280.33438516 645.33438516 -277.35648248 644.70115113 -273.8359375 643.63671875 C-272.32163326 643.16478535 -270.80756477 642.69209498 -269.29370117 642.21875 C-268.49241791 641.96996094 -267.69113464 641.72117187 -266.86557007 641.46484375 C-212.27768987 624.42715907 -158.52073782 600.33412246 -124.23925781 552.70410156 C-123.6258252 551.86057129 -123.6258252 551.86057129 -123 551 C-122.60913293 550.31500435 -122.21826585 549.6300087 -121.81555432 548.92425561 C-120 547 -120 547 -117.19724542 546.50320601 C-116.04707254 546.5047249 -114.89689966 546.50624378 -113.71187305 546.50780869 C-113.0685179 546.50319331 -112.42516274 546.49857793 -111.76231197 546.49382269 C-109.59144159 546.48317597 -107.42174145 546.50122576 -105.25093079 546.51898193 C-103.68503945 546.51723872 -102.11914924 546.51373841 -100.55326527 546.50862527 C-96.23869848 546.49965228 -91.92452649 546.51572054 -87.61001003 546.53573751 C-82.96175743 546.55296487 -78.31352822 546.54716917 -73.66525269 546.54412842 C-65.60796622 546.54202806 -57.55080902 546.55460885 -49.49355507 546.57707977 C-37.84405055 546.60954805 -26.19460873 546.62000149 -14.54506388 546.62503174 C4.35418884 546.63379252 23.25337262 546.66042934 42.15258789 546.69824219 C60.51456354 546.73494201 78.87652048 546.7632637 97.23852539 546.78027344 C98.93545012 546.78184978 98.93545012 546.78184978 100.66665616 546.78345796 C106.34180714 546.788678 112.01695826 546.79373286 117.69210947 546.79870558 C164.79478741 546.840192 211.89739015 546.91066174 259 547 C259.32588405 549.24694073 259.65040009 551.49407989 259.97433472 553.74130249 C260.1551956 554.99265676 260.33605648 556.24401104 260.52239799 557.53328514 C261.39626535 563.87632581 261.76418181 570.23422608 262.125 576.625 C262.16669312 577.34865753 262.20838623 578.07231506 262.25134277 578.81790161 C266.55162632 655.27648686 256.5418451 733.10974987 221.70123291 848.98620605 C221.04657708 850.8662404 220.39687706 852.7479984 219.74755859 854.62988281 C189.82262229 940.78082302 139.80066948 1022.11283482 76.52368164 1090.33276367 C75.39604424 1091.56664219 74.28277583 1092.81368674 73.17749023 1094.06762695 C66.83918659 1101.23442848 60.14500032 1108.00776058 53.37036133 1114.76000977 C51.43389451 1116.69109547 49.50286044 1118.62749882 47.57226562 1120.56445312 C41.54911233 1126.59084954 35.50455508 1132.48929263 29 1138 C27.22429779 1139.61967817 25.45291693 1141.24411718 23.6875 1142.875 C18.28523429 1147.79624205 12.68694329 1152.4139906 7 1157 C5.81673451 1157.97407866 4.63449947 1158.94941 3.453125 1159.92578125 C-70.07152102 1220.51753892 -156.54848816 1266.50303728 -333 1311 C-334.00552917 1311.16018616 -334.00552917 1311.16018616 -335.03137207 1311.3236084 C-366.37718495 1316.2781109 -398.19851572 1319.12074246 -429.9375 1319.203125 C-431.61788459 1319.21014558 -433.2982689 1319.21723241 -434.97865295 1319.22438049 C-440.31910586 1319.24378412 -445.6595154 1319.24881436 -451 1319.25 C-451.90922588 1319.25044186 -452.81845177 1319.25088371 -453.75522995 1319.25133896 C-479.83354097 1319.25798854 -505.79966844 1319.18628229 -531.74530029 1316.25323486 C-534.12369878 1315.98610687 -536.50328217 1315.73224429 -538.88330078 1315.47998047 C-617.85530952 1307.01640182 -695.15830233 1286.68423365 -786 1245 C-786.91378418 1244.56236328 -787.82756836 1244.12472656 -788.76904297 1243.67382812 C-802.52450533 1237.05551221 -815.7854463 1229.6324177 -829 1222 C-830.1461377 1221.34281982 -830.1461377 1221.34281982 -831.31542969 1220.67236328 C-874.67262683 1195.79673879 -915.46092729 1165.67394336 -952.11328125 1131.66796875 C-953.93014739 1129.98878123 -955.7592829 1128.32267867 -957.60546875 1126.67578125 C-964.9127051 1120.12773828 -971.86851795 1113.23994648 -978.8125 1106.3125 C-979.31254547 1105.81504272 -979.81259094 1105.31758545 -980.32778931 1104.80505371 C-985.55698358 1099.59720309 -990.69688926 1094.35360195 -995.49975586 1088.74536133 C-997.72231773 1086.15966649 -1000.05103742 1083.68244481 -1002.375 1081.1875 C-1006.66751208 1076.54095872 -1010.73338031 1071.7590076 -1014.69921875 1066.828125 C-1016.73817628 1064.32183424 -1018.823751 1061.86405682 -1020.93310547 1059.41699219 C-1027.12162742 1052.21859108 -1032.8578995 1044.73427371 -1038.47167969 1037.08154297 C-1039.95555168 1035.06053777 -1041.45010556 1033.04778218 -1042.9453125 1031.03515625 C-1089.58342475 967.80100697 -1125.68674986 897.52508556 -1181 655 C-1181.10441406 653.76910645 -1181.20882812 652.53821289 -1181.31640625 651.27001953 C-1188.05004641 569.09190788 -1181.48610023 485.02946459 -1078 198 C-1077.30076416 196.83911865 -1077.30076416 196.83911865 -1076.58740234 195.65478516 C-1061.37159168 170.43984089 -1044.12910423 146.36981277 -1025.37646484 123.67626953 C-1023.53388938 121.43236688 -1021.73538319 119.15479002 -1019.9375 116.875 C-1011.55858273 106.38817902 -1002.63924472 96.39562736 -993.47802734 86.59130859 C-992.03289781 85.03541921 -990.6021344 83.46763467 -989.17578125 81.89453125 C-983.35122938 75.48532549 -977.36309469 69.26005312 -971.25 63.125 C-970.55302002 62.42342773 -969.85604004 61.72185547 -969.13793945 60.99902344 C-965.18947608 57.06225991 -961.13751732 53.31155353 -956.91552734 49.67041016 C-953.93127635 47.06803375 -951.06741941 44.34152857 -948.1875 41.625 C-943.19589254 36.95441984 -938.09756213 32.50382523 -932.7578125 28.23046875 C-930.27261825 26.2204887 -927.8418371 24.15842906 -925.42138672 22.07128906 C-918.2228072 15.87985526 -910.73586119 10.14326501 -903.08154297 4.52832031 C-901.06053777 3.04444832 -899.04778218 1.54989444 -897.03515625 0.0546875 C-876.50365502 -15.08603885 -855.10889116 -29.27412225 -833 -42 C-832.14019531 -42.49983398 -831.28039062 -42.99966797 -830.39453125 -43.51464844 C-761.13762584 -83.7146343 -685.83483532 -112.31847679 0 0 Z " fill="#A930D0" transform="translate(1805,756)"/>
<path d="M0 0 C2.02364625 -0.00323426 4.04729228 -0.0065997 6.07093811 -0.01008606 C10.2851719 -0.01601185 14.4993854 -0.0179331 18.71362305 -0.01733398 C22.93925306 -0.01725329 27.16477335 -0.02411669 31.39038086 -0.0378418 C59.04456228 -0.1261578 86.56025043 0.38241894 114.16015625 2.16796875 C115.34032318 2.24367096 116.52049011 2.31937317 117.73641968 2.39736938 C124.34248369 2.83384225 130.93936373 3.34802905 137.53515625 3.91796875 C138.99109192 4.04152237 138.99109192 4.04152237 140.47644043 4.16757202 C178.41491189 7.41287913 216.12635682 12.3129788 253.65386963 18.73950195 C256.06860134 19.15231681 258.4841402 19.56006173 260.89990234 19.96679688 C354.15911387 35.75369624 446.04492384 63.08238684 676.40380859 168.59277344 C679.16314849 170.16967875 681.93438528 171.72315877 684.7109375 173.26953125 C724.64086573 195.53734352 763.01124665 220.53821931 800.16015625 247.16796875 C800.8778418 247.6798877 801.59552734 248.19180664 802.33496094 248.71923828 C813.449924 256.64990162 824.36295127 264.81081009 835.16015625 273.16796875 C835.89766113 273.73660645 836.63516602 274.30524414 837.39501953 274.89111328 C847.52221212 282.69953399 857.53037501 290.63746958 867.42041016 298.74414062 C868.97963952 300.02023179 870.54416725 301.28984256 872.109375 302.55859375 C878.96554656 308.12360307 885.66928554 313.85517843 892.35742188 319.61962891 C894.13501538 321.14637566 895.9196764 322.66438583 897.70703125 324.1796875 C904.67128774 330.0927901 911.46852803 336.14682949 918.15234375 342.375 C920.75169738 344.79664104 923.38490632 347.17698655 926.03515625 349.54296875 C936.03300643 358.52162061 945.84391121 367.67780578 955.24121094 377.28588867 C958.09329079 380.18359138 961.00470111 382.9289772 964.09375 385.57421875 C968.28939003 389.20107746 972.0344105 393.15172714 975.78515625 397.23046875 C981.5228114 403.40579318 987.3510744 409.45745042 993.37939453 415.34985352 C996.88725988 418.80248955 1000.15019733 422.40237948 1003.36791992 426.1262207 C1006.3293157 429.49989635 1009.44096747 432.72908427 1012.53515625 435.98046875 C1017.59719951 441.33517301 1022.39754622 446.76303735 1026.98828125 452.52734375 C1029.44058902 455.50892657 1032.03105706 458.3435367 1034.66015625 461.16796875 C1038.91556885 465.74716274 1042.93339246 470.46084042 1046.85546875 475.33203125 C1049.36810435 478.42385065 1051.94677755 481.45221109 1054.53515625 484.48046875 C1059.80027396 490.66477601 1064.82389649 497.02030465 1069.80712891 503.43261719 C1071.10923038 505.10265278 1072.41976019 506.76558475 1073.734375 508.42578125 C1085.110188 522.79917344 1096.31288486 537.31925992 1106.85566711 552.31698608 C1108.14538113 554.14700384 1109.44136329 555.97240787 1110.73925781 557.79663086 C1118.23288356 568.34393085 1125.55563238 579.0011001 1132.79638672 589.72338867 C1134.65354982 592.47069583 1136.51811078 595.21288412 1138.3828125 597.95507812 C1145.44810886 608.3879293 1152.18159641 618.95261121 1158.57495117 629.81079102 C1160.95920415 633.85849833 1163.44430522 637.83410086 1165.97265625 641.79296875 C1205.43306157 704.38754355 1238.16334265 772.35652624 1265.16015625 841.16796875 C1265.43025513 841.85429382 1265.700354 842.5406189 1265.9786377 843.2477417 C1287.39410656 897.71257362 1304.91895303 953.42380985 1319.16015625 1010.16796875 C1319.35911499 1010.95673401 1319.55807373 1011.74549927 1319.76306152 1012.5581665 C1343.23634757 1105.6880509 1355.57555091 1201.93395747 1357.72265625 1297.91796875 C1357.74350281 1298.83327362 1357.76434937 1299.74857849 1357.78582764 1300.69161987 C1358.11208407 1315.18674957 1358.36907919 1329.66912228 1358.16015625 1344.16796875 C1358.15155579 1344.83546143 1358.14295532 1345.5029541 1358.13409424 1346.19067383 C1356.83390102 1446.13350886 1345.0236789 1545.66297835 1238.16015625 1885.16796875 C1237.33661055 1886.96763231 1236.51306971 1888.76729812 1235.68991089 1890.56713867 C1223.60957946 1916.94523546 1210.86655053 1943.05720218 1196.70849609 1968.38769531 C1194.99726255 1971.4604685 1193.30655209 1974.54405848 1191.6171875 1977.62890625 C1183.15770397 1993.0343272 1174.33332924 2008.17748139 1165.16015625 2023.16796875 C1164.61053223 2024.07353516 1164.0609082 2024.97910156 1163.49462891 2025.91210938 C1154.69519149 2040.39039165 1145.36275085 2054.50638353 1135.97265625 2068.60546875 C1135.08279526 2069.94301712 1135.08279526 2069.94301712 1134.17495728 2071.30758667 C1126.34940693 2083.05855957 1118.36578285 2094.67927796 1110.16015625 2106.16796875 C1109.51812256 2107.07087646 1108.87608887 2107.97378418 1108.21459961 2108.90405273 C1100.89537883 2119.17666273 1093.3544865 2129.26324311 1085.64306641 2139.24414062 C1084.28141001 2141.01066226 1082.92779477 2142.78290649 1081.578125 2144.55859375 C1076.52341085 2151.18933347 1071.33438275 2157.69025476 1066.05566406 2164.14331055 C1062.44474083 2168.56334018 1058.909339 2173.03420399 1055.41015625 2177.54296875 C1051.5746564 2182.47187126 1047.55933813 2187.15573835 1043.328125 2191.75390625 C1041.07462633 2194.26320747 1038.95854479 2196.85038501 1036.84765625 2199.48046875 C1032.43644226 2204.93461425 1027.72001979 2210.05056011 1022.9375 2215.17578125 C1020.77937906 2217.49037137 1018.66841815 2219.83692621 1016.59765625 2222.23046875 C1012.89707896 2226.50311596 1009.07461828 2230.66152674 1005.24395752 2234.81710815 C1003.29291337 2236.93491321 1001.34701298 2239.05720602 999.40643311 2241.18460083 C992.34507348 2248.90724681 985.08233287 2256.39428825 977.67578125 2263.78515625 C976.52367912 2264.937935 975.3717252 2266.09086189 974.21990967 2267.243927 C971.8316526 2269.63364127 969.44164039 2272.02158145 967.05029297 2274.40820312 C964.00555694 2277.44721039 960.96537868 2280.49073157 957.92648697 2283.53558159 C955.55867965 2285.90702076 953.18847337 2288.27605075 950.81755829 2290.64438248 C949.6958279 2291.76545253 948.57482104 2292.88724709 947.45459747 2294.00982285 C942.06426965 2299.40899854 936.6757038 2304.7638369 930.85919189 2309.71047974 C927.69644958 2312.42358478 924.69204268 2315.31056515 921.66015625 2318.16796875 C916.57415834 2322.934496 911.46357079 2327.64303708 906.16015625 2332.16796875 C905.12738569 2333.05443303 904.09485697 2333.9411791 903.0625 2334.828125 C900.67132734 2336.88131915 898.27786021 2338.93179647 895.8828125 2340.98046875 C893.4285192 2343.08028875 890.97811245 2345.18449512 888.53125 2347.29296875 C881.48973421 2353.35660318 874.37765948 2359.31387762 867.16015625 2365.16796875 C865.93440572 2366.17518509 864.70917933 2367.18303951 863.484375 2368.19140625 C855.54081703 2374.71440452 847.47209987 2381.01506838 839.21875 2387.140625 C835.75231694 2389.71552198 832.32424038 2392.33701016 828.90405273 2394.97290039 C819.46802715 2402.24317382 809.86831563 2409.26611464 800.16015625 2416.16796875 C799.57699646 2416.58391296 798.99383667 2416.99985718 798.39300537 2417.42840576 C787.48441672 2425.20388321 776.44341386 2432.7558884 765.28515625 2440.16796875 C764.49657227 2440.69254669 763.70798828 2441.21712463 762.89550781 2441.75759888 C751.41661491 2449.39070873 739.91213305 2456.95993588 728.16015625 2464.16796875 C727.15742676 2464.78623535 726.15469727 2465.40450195 725.12158203 2466.04150391 C699.28115108 2481.954666 673.01319898 2497.0195914 646.16015625 2511.16796875 C645.24807404 2511.64946381 645.24807404 2511.64946381 644.31756592 2512.14068604 C588.15435467 2541.77568822 529.99834651 2566.92959836 470.16015625 2588.16796875 C469.50756836 2588.40046326 468.85498047 2588.63295776 468.18261719 2588.87249756 C381.50205727 2619.7396043 291.22135173 2640.92063845 137.09765625 2659.41796875 C135.7292308 2659.53366714 135.7292308 2659.53366714 134.3331604 2659.65170288 C99.43816544 2662.55853021 64.52475637 2663.55238679 29.52018356 2663.48602676 C26.47651873 2663.48035957 23.43285953 2663.4775558 20.38919067 2663.47494507 C-11.77133879 2663.43491568 -43.7721912 2662.81299615 -75.83984375 2660.16796875 C-77.44666016 2660.03714905 -77.44666016 2660.03714905 -79.0859375 2659.90368652 C-176.60837692 2651.90020508 -273.37629686 2634.39037186 -366.83984375 2605.16796875 C-367.78156433 2604.87361938 -368.72328491 2604.57927002 -369.69354248 2604.27600098 C-423.32735751 2587.46294138 -475.77432777 2567.67329393 -526.83984375 2544.16796875 C-528.01675781 2543.63026855 -529.19367187 2543.09256836 -530.40625 2542.53857422 C-558.11942503 2529.86659788 -585.61363742 2516.55245329 -612.19970703 2501.64404297 C-615.03975174 2500.05620218 -617.89032831 2498.4883892 -620.7421875 2496.921875 C-635.61502899 2488.71722411 -650.13651146 2480.01059539 -664.61328125 2471.13525391 C-668.44085833 2468.80152085 -672.29082273 2466.50739487 -676.14575195 2464.21923828 C-684.57551181 2459.21245192 -692.80305647 2453.99189407 -700.90771484 2448.47607422 C-703.75118275 2446.55096668 -706.61447128 2444.65605859 -709.47607422 2442.75805664 C-724.05893644 2433.0779199 -738.40075647 2423.11367839 -752.55761719 2412.82080078 C-754.81445953 2411.18635249 -757.07946785 2409.56396974 -759.34765625 2407.9453125 C-769.33938266 2400.80371357 -779.10049383 2393.41301832 -788.74853516 2385.81396484 C-790.72715013 2384.25666597 -792.71025543 2382.70532458 -794.6953125 2381.15625 C-800.92645835 2376.28835014 -807.1030967 2371.36323053 -813.20703125 2366.3359375 C-814.95713901 2364.89482502 -816.71233987 2363.45987472 -818.47265625 2362.03125 C-824.28106784 2357.31509074 -829.98644709 2352.49382325 -835.64990234 2347.60571289 C-839.1411296 2344.5994048 -842.67811012 2341.67021643 -846.27734375 2338.79296875 C-852.26064481 2333.94260043 -857.81361888 2328.65942677 -863.4140625 2323.37890625 C-865.84642538 2321.08831687 -868.30416894 2318.84456107 -870.83984375 2316.66796875 C-879.5463643 2309.16432275 -887.92279586 2301.20684954 -895.97094727 2293.00439453 C-897.66383642 2291.34091808 -899.39996753 2289.81254234 -901.21484375 2288.28515625 C-906.93667703 2283.30893311 -912.24470817 2277.91238693 -917.59448242 2272.54370117 C-919.3984646 2270.73435942 -921.2077304 2268.93042556 -923.01757812 2267.12695312 C-928.33037068 2261.81690313 -933.56734605 2256.50694 -938.44116211 2250.78491211 C-940.45566461 2248.45605016 -942.63462907 2246.31515147 -944.83984375 2244.16796875 C-948.32074437 2240.72359932 -951.61487994 2237.2147198 -954.796875 2233.49609375 C-957.57930547 2230.32529345 -960.46090892 2227.25103739 -963.33984375 2224.16796875 C-967.9308619 2219.24183979 -972.46078146 2214.28455732 -976.83984375 2209.16796875 C-977.73944725 2208.12227874 -978.63920108 2207.07671806 -979.5390625 2206.03125 C-982.13268032 2203.01494349 -984.71896841 2199.99244982 -987.30224609 2196.96728516 C-988.29363761 2195.80714615 -989.28607279 2194.6478978 -990.27978516 2193.48974609 C-995.94260644 2186.88941107 -1001.4433068 2180.19495914 -1006.78320312 2173.33032227 C-1009.75127873 2169.52337366 -1012.79284263 2165.79800133 -1015.90234375 2162.10546875 C-1020.53216874 2156.58445679 -1024.94963543 2150.9209543 -1029.30566406 2145.18359375 C-1031.08935796 2142.84015378 -1032.88248915 2140.50407152 -1034.67578125 2138.16796875 C-1041.79618278 2128.87938808 -1048.85712659 2119.56941001 -1055.56738281 2109.97949219 C-1056.91663956 2108.05863934 -1058.27997472 2106.14829184 -1059.64453125 2104.23828125 C-1107.07956567 2037.51245161 -1149.47551279 1966.29514483 -1183.25390625 1891.65917969 C-1184.85920683 1888.12534374 -1186.48811087 1884.60315058 -1188.12109375 1881.08203125 C-1227.47458467 1795.89819961 -1256.48752547 1705.67784213 -1303.58984375 1415.91796875 C-1303.64910034 1414.98208923 -1303.70835693 1414.04620972 -1303.76940918 1413.08197021 C-1305.42857154 1386.36069258 -1306.04980079 1359.62509168 -1306.02734375 1332.85546875 C-1306.02707687 1332.1833284 -1306.02681 1331.51118805 -1306.02653503 1330.81867981 C-1305.97782105 1232.26447928 -1295.37305617 1134.0902558 -1184.83984375 775.16796875 C-1184.51240173 774.46065613 -1184.18495972 773.75334351 -1183.84759521 773.02459717 C-1169.81543899 742.73905434 -1155.09709498 712.88711738 -1138.43017578 683.95458984 C-1136.76988929 681.04539273 -1135.14269446 678.11971902 -1133.5234375 675.1875 C-1097.99785523 610.88614518 -1055.70289302 549.49604716 -1009.0078125 492.80078125 C-1007.56670002 491.05067349 -1006.13174972 489.29547263 -1004.703125 487.53515625 C-999.05270779 480.57611458 -993.24412849 473.76458473 -987.39257812 466.97509766 C-985.85338393 465.18372731 -984.32197256 463.38600988 -982.79296875 461.5859375 C-977.08298139 454.87172272 -971.26274728 448.29005263 -965.27734375 441.8203125 C-963.32240497 439.69306341 -961.4110233 437.54524623 -959.52734375 435.35546875 C-956.05573162 431.35428866 -952.45057674 427.4806897 -948.83984375 423.60546875 C-948.25807373 422.97987061 -947.67630371 422.35427246 -947.0769043 421.7097168 C-944.21681035 418.65024033 -941.3242251 415.64170809 -938.33984375 412.703125 C-936.04626854 410.42937897 -933.89414564 408.10245855 -931.8046875 405.640625 C-926.63410035 399.65370526 -920.960628 394.14011259 -915.36108398 388.55883789 C-913.40688751 386.61000005 -911.45809228 384.65587603 -909.50976562 382.70117188 C-903.95262367 377.14136866 -898.41657242 371.62442089 -892.42163086 366.53149414 C-890.10187469 364.53182781 -887.97536099 362.36120268 -885.83984375 360.16796875 C-882.39207692 356.6836347 -878.88070441 353.38584059 -875.15625 350.203125 C-872.67124788 348.01984321 -870.2611772 345.76881492 -867.85009766 343.50463867 C-862.24559116 338.24168729 -856.55615425 333.21797686 -850.55078125 328.41015625 C-847.55077275 325.92888121 -844.68870941 323.31891418 -841.83984375 320.66796875 C-837.34064765 316.49162997 -832.72233433 312.52279546 -827.94140625 308.671875 C-824.84818711 306.17470439 -821.78396593 303.64537754 -818.72241211 301.10961914 C-810.52928756 294.32894516 -802.24555974 287.68277682 -793.83984375 281.16796875 C-792.83179688 280.38421875 -791.82375 279.60046875 -790.78515625 278.79296875 C-768.9540614 261.90581141 -746.72622369 245.59650873 -723.83984375 230.16796875 C-722.90865723 229.53987305 -721.9774707 228.91177734 -721.01806641 228.26464844 C-691.01432321 208.06282567 -660.39423743 188.8584512 -628.83984375 171.16796875 C-628.11812988 170.76094727 -627.39641602 170.35392578 -626.65283203 169.93457031 C-621.40258222 166.97413026 -616.1280263 164.06005273 -610.83984375 161.16796875 C-609.88416504 160.64428711 -608.92848633 160.12060547 -607.94384766 159.58105469 C-576.57085273 142.44169404 -544.58355093 126.52074525 -511.83984375 112.16796875 C-511.18340881 111.879823 -510.52697388 111.59167725 -509.85064697 111.2947998 C-474.14791714 95.64624315 -437.77254896 81.63148103 -400.83984375 69.16796875 C-400.04189392 68.89833313 -399.24394409 68.62869751 -398.42181396 68.35089111 C-306.80654436 37.44753045 -211.56729778 16.48386847 -44.83984375 1.16796875 C-44.05342625 1.12837603 -43.26700874 1.0887833 -42.45676041 1.0479908 C-28.29752336 0.34571818 -14.17567444 0.00550836 0 0 Z M-53.33709717 75.984375 C-56.02399106 76.18147723 -58.71141001 76.37017035 -61.39892578 76.55859375 C-155.75106051 83.26516146 -249.34791008 100.02470652 -477.21289062 178.54931641 C-479.6437242 179.63415934 -482.07607498 180.71338255 -484.51367188 181.78271484 C-503.08707131 189.93496366 -521.31000862 198.74897245 -539.46484375 207.79296875 C-541.02773132 208.56852112 -541.02773132 208.56852112 -542.62219238 209.35974121 C-556.81613828 216.41498867 -570.69415167 223.89942354 -584.43817139 231.79394531 C-587.52566184 233.5603329 -590.63220465 235.28839784 -593.74609375 237.0078125 C-607.6680632 244.71039899 -621.33949382 252.74834464 -634.83984375 261.16796875 C-635.73203613 261.72419922 -636.62422852 262.28042969 -637.54345703 262.85351562 C-666.76309571 281.13512201 -695.20578897 300.57054561 -722.83984375 321.16796875 C-723.42733398 321.6047998 -724.01482422 322.04163086 -724.62011719 322.49169922 C-728.03882426 325.03458182 -731.44379494 327.59491784 -734.83984375 330.16796875 C-735.84789062 330.93109375 -736.8559375 331.69421875 -737.89453125 332.48046875 C-745.42819365 338.21454538 -752.78994014 344.14664063 -760.12109375 350.13671875 C-763.07095766 352.54646674 -766.04164453 354.92767456 -769.02734375 357.29296875 C-773.41119486 360.78680982 -777.68736511 364.39868777 -781.95385742 368.03393555 C-785.37486146 370.94477665 -788.83797817 373.79174269 -792.33984375 376.60546875 C-797.72126579 380.9813112 -802.77982944 385.6610569 -807.84765625 390.390625 C-810.16224637 392.54874594 -812.50880121 394.65970685 -814.90234375 396.73046875 C-819.72804523 400.91274336 -824.41769894 405.24191066 -829.10940552 409.57296753 C-830.20855509 410.58608945 -831.30904869 411.59775665 -832.41134644 412.60745239 C-843.56008583 422.82178563 -854.28111973 433.45317935 -864.95849609 444.15625 C-867.37639988 446.57990703 -869.79884724 448.9989657 -872.22259521 451.41677666 C-874.57662253 453.7662963 -876.92680654 456.11964495 -879.27734375 458.47265625 C-880.56342529 459.75570145 -880.56342529 459.75570145 -881.87548828 461.06466675 C-886.20088335 465.40685394 -890.37524212 469.81716207 -894.37182617 474.46414185 C-896.11912305 476.492109 -897.93266592 478.44718331 -899.77734375 480.38671875 C-900.44507813 481.09183594 -901.1128125 481.79695313 -901.80078125 482.5234375 C-903.83984375 484.66796875 -903.83984375 484.66796875 -905.87890625 486.8125 C-910.31806943 491.50018776 -914.6274876 496.27563058 -918.83984375 501.16796875 C-919.57146729 502.01633301 -919.57146729 502.01633301 -920.31787109 502.88183594 C-921.72390448 504.51644113 -923.12630933 506.15407755 -924.52734375 507.79296875 C-925.56763514 509.00917719 -926.60800198 510.22532111 -927.6484375 511.44140625 C-928.17421387 512.0559668 -928.69999023 512.67052734 -929.24169922 513.30371094 C-930.82414981 515.14966155 -932.41130579 516.99145285 -934 518.83203125 C-938.99201183 524.62100789 -943.92746673 530.43194446 -948.6640625 536.43359375 C-950.35868093 538.56327579 -952.06940047 540.67452077 -953.796875 542.77734375 C-960.26897732 550.66198484 -966.53688378 558.65463876 -972.61328125 566.84765625 C-974.94155119 569.98169735 -977.30635043 573.08473949 -979.69140625 576.17578125 C-987.30401825 586.04971941 -994.64024189 596.02524084 -1001.58203125 606.3828125 C-1004.19025596 610.26053085 -1006.90537849 614.0562977 -1009.63671875 617.84765625 C-1014.6969486 624.88912375 -1019.48809845 632.08729678 -1024.21484375 639.35546875 C-1025.05336875 640.64153105 -1025.89191068 641.92758231 -1026.73046875 643.21362305 C-1028.75439072 646.32088578 -1030.77304557 649.43151985 -1032.78845215 652.54431152 C-1033.7137445 653.9732345 -1034.64045224 655.40124074 -1035.56738281 656.82910156 C-1082.04836023 728.62480023 -1120.93357321 806.33821469 -1155.83984375 900.16796875 C-1156.11078857 900.9090387 -1156.3817334 901.65010864 -1156.66088867 902.41363525 C-1187.18684047 985.94071522 -1208.35974788 1072.66335083 -1230.83984375 1276.16796875 C-1230.89769043 1277.39322266 -1230.95553711 1278.61847656 -1231.01513672 1279.88085938 C-1235.57374596 1380.03499227 -1226.94335216 1480.71941017 -1193.83984375 1640.16796875 C-1193.51563446 1641.44003174 -1193.51563446 1641.44003174 -1193.18487549 1642.73779297 C-1179.04609521 1698.06561206 -1161.25520591 1752.2311024 -1139.83984375 1805.16796875 C-1139.55729736 1805.86907776 -1139.27475098 1806.57018677 -1138.98364258 1807.2925415 C-1120.44849267 1853.27375923 -1099.315381 1899.02513098 -1074.21337891 1941.79248047 C-1071.81838711 1945.93454769 -1069.55865702 1950.15010753 -1067.27734375 1954.35546875 C-1061.74953867 1964.46920145 -1055.86062879 1974.34138473 -1049.83984375 1984.16796875 C-1049.32067383 1985.02148926 -1048.80150391 1985.87500977 -1048.26660156 1986.75439453 C-1039.73099077 2000.76161723 -1030.74424064 2014.45564037 -1021.65234375 2028.10546875 C-1021.1072113 2028.92496002 -1020.56207886 2029.74445129 -1020.00042725 2030.58877563 C-1010.34598904 2045.08750758 -1000.45622916 2059.41698211 -990.08984375 2073.41796875 C-989.51967529 2074.18971436 -988.94950684 2074.96145996 -988.36206055 2075.7565918 C-970.40744081 2099.98308059 -951.78268977 2123.61339945 -932.21386719 2146.55566406 C-930.76594353 2148.25468464 -929.32244063 2149.95740555 -927.87890625 2151.66015625 C-922.21932639 2158.31843189 -916.45701984 2164.85274363 -910.5078125 2171.25390625 C-908.46481118 2173.48535425 -906.46436954 2175.73647302 -904.48046875 2178.01953125 C-900.87625696 2182.15413363 -897.16056416 2186.17340665 -893.40234375 2190.16796875 C-892.74492188 2190.86857422 -892.0875 2191.56917969 -891.41015625 2192.29101562 C-887.56427134 2196.37679237 -883.66312187 2200.38951164 -879.65673828 2204.31860352 C-877.94211359 2206.06387119 -876.35622913 2207.86193441 -874.7734375 2209.7265625 C-870.21908626 2214.96268121 -865.31791716 2219.83585727 -860.40234375 2224.73046875 C-859.49935547 2225.63732422 -858.59636719 2226.54417969 -857.66601562 2227.47851562 C-853.10485649 2232.03306917 -848.48503485 2236.4353209 -843.59350586 2240.63256836 C-841.04620421 2242.86283149 -838.70545396 2245.24535588 -836.33984375 2247.66796875 C-832.72576517 2251.33097829 -829.03722747 2254.82962525 -825.12109375 2258.16796875 C-822.64683091 2260.33718548 -820.25040098 2262.57696189 -817.85205078 2264.8293457 C-812.22514811 2270.11369543 -806.51319331 2275.16383668 -800.484375 2279.9921875 C-797.68145127 2282.29828575 -795.009811 2284.70948406 -792.33984375 2287.16796875 C-787.52793942 2291.58678794 -782.55714742 2295.74030637 -777.47265625 2299.83984375 C-775.62553591 2301.34228613 -773.7945653 2302.86313738 -771.96484375 2304.38671875 C-763.50577111 2311.42261291 -754.92415224 2318.24533575 -746.15234375 2324.88671875 C-742.45738151 2327.68654441 -738.80408685 2330.53624216 -735.15771484 2333.39892578 C-725.56914778 2340.91989969 -715.77910317 2348.11877296 -705.83984375 2355.16796875 C-705.25775146 2355.58284546 -704.67565918 2355.99772217 -704.07592773 2356.4251709 C-693.16520568 2364.20030627 -682.12482412 2371.75562122 -670.96484375 2379.16796875 C-670.17493042 2379.69321136 -669.38501709 2380.21845398 -668.57116699 2380.75961304 C-638.77725416 2400.56197646 -608.20293433 2418.95433316 -576.83984375 2436.16796875 C-575.86611816 2436.70631348 -574.89239258 2437.2446582 -573.88916016 2437.79931641 C-542.97221752 2454.86799216 -511.29975651 2470.41370454 -478.88330078 2484.41748047 C-475.16138611 2486.02550018 -471.4510872 2487.65903581 -467.7421875 2489.296875 C-386.89601754 2524.77335479 -300.88531058 2550.77971099 38.16015625 2590.16796875 C40.13169678 2590.14114014 40.13169678 2590.14114014 42.14306641 2590.11376953 C137.79959238 2588.71183053 232.89395446 2576.64219865 391.16015625 2536.16796875 C391.97143982 2535.92260376 392.78272339 2535.67723877 393.61859131 2535.42443848 C473.96568115 2511.07971113 552.8280622 2478.58417788 626.26416016 2437.77197266 C629.35161326 2436.06192655 632.44863323 2434.37010157 635.546875 2432.6796875 C650.91467856 2424.26312939 665.95588549 2415.41164352 680.85986328 2406.20410156 C683.92159228 2404.31515202 686.99105797 2402.43950281 690.0625 2400.56640625 C740.40734567 2369.67765639 788.63450993 2334.36888522 833.57617188 2296.05078125 C836.91807713 2293.20412721 840.30433349 2290.42216023 843.72265625 2287.66796875 C848.79767096 2283.53989556 853.60031041 2279.16451284 858.39453125 2274.71875 C860.60071572 2272.68394992 862.82647886 2270.69150637 865.09765625 2268.73046875 C870.20451505 2264.29889706 875.14471449 2259.68282758 880.09277344 2255.07568359 C881.59406526 2253.69033944 883.10667373 2252.3172276 884.62597656 2250.95166016 C895.52832066 2241.06631224 905.87176362 2230.60876183 916.26416016 2220.19433594 C919.0004957 2217.45226813 921.74134807 2214.7147658 924.48352623 2211.97854233 C926.62335147 2209.84235213 928.7607631 2207.70375964 930.89748001 2205.56446075 C931.90690713 2204.55437436 932.9170558 2203.54500845 933.92798996 2202.53643036 C939.00993222 2197.46375333 944.00313628 2192.37039713 948.66421509 2186.90545654 C951.39494081 2183.73380599 954.29020293 2180.71317123 957.16015625 2177.66796875 C961.9266835 2172.58197084 966.63522458 2167.47138329 971.16015625 2162.16796875 C972.04662053 2161.13519819 972.9333666 2160.10266947 973.8203125 2159.0703125 C975.87665846 2156.67569611 977.92949093 2154.27812136 979.98046875 2151.87890625 C982.04986323 2149.45975495 984.12792932 2147.04858142 986.21484375 2144.64453125 C991.62606551 2138.39865571 996.88639723 2132.0734604 1001.9543457 2125.54541016 C1004.84855739 2121.82053348 1007.798832 2118.15031369 1010.79541016 2114.50732422 C1018.28374226 2105.39769009 1025.36353535 2096.01104743 1032.390625 2086.54296875 C1034.01127485 2084.36779191 1035.64417159 2082.20282517 1037.28515625 2080.04296875 C1049.95655008 2063.35488742 1061.65121667 2046.02455865 1073.28515625 2028.60546875 C1073.83206116 2027.78779022 1074.37896606 2026.97011169 1074.94244385 2026.12765503 C1085.73617225 2009.97711562 1096.239439 1993.65890079 1106.09765625 1976.91796875 C1106.4298819 1976.35524261 1106.76210754 1975.79251648 1107.10440063 1975.21273804 C1143.24889164 1913.97510999 1174.53942341 1850.50258102 1200.16015625 1784.16796875 C1200.45859436 1783.39618286 1200.75703247 1782.62439697 1201.06451416 1781.82922363 C1218.04855026 1737.80992586 1232.29275577 1692.82455455 1244.16015625 1647.16796875 C1244.37502686 1646.34288818 1244.58989746 1645.51780762 1244.8112793 1644.66772461 C1262.62416818 1576.05383355 1273.82662715 1505.83042965 1279.89587402 1435.24102783 C1280.06704113 1433.2507062 1280.24047932 1431.26057804 1280.41662598 1429.27069092 C1286.05195699 1365.34222209 1286.10729267 1298.95623978 1280.41339111 1235.0302124 C1280.14652172 1232.01386146 1279.89251621 1228.99660004 1279.64013672 1225.97900391 C1271.61855933 1131.06502391 1252.73730219 1037.65812756 1155.08135986 777.0357666 C1154.11986831 775.08628244 1153.16276153 773.13469276 1152.20654297 771.18261719 C1144.15081588 754.74773422 1135.79858222 738.59847572 1126.63330078 722.74707031 C1124.74239183 719.43656946 1122.92375892 716.08967177 1121.10888672 712.73706055 C1116.50748844 704.2411922 1111.68960434 695.89300984 1106.72265625 687.60546875 C1106.15047363 686.64979004 1105.57829102 685.69411133 1104.98876953 684.70947266 C1095.38040125 668.78604492 1085.28333287 653.18566365 1074.95117188 637.72412109 C1073.1579917 635.03972842 1071.369798 632.35206262 1069.58203125 629.6640625 C1060.04791383 615.35675495 1050.27055329 601.23427181 1040.03515625 587.41796875 C1039.15670044 586.22941284 1039.15670044 586.22941284 1038.26049805 585.0168457 C1033.30936168 578.33514929 1028.27612237 571.72435251 1023.16015625 565.16796875 C1022.73702148 564.62398437 1022.31388672 564.08 1021.87792969 563.51953125 C1014.91534654 554.57279228 1007.80454179 545.75145677 1000.63232422 536.97216797 C999.33744114 535.38523829 998.04725147 533.79448138 996.7578125 532.203125 C991.69445884 525.96778352 986.50185061 519.85274761 981.2578125 513.76953125 C979.23271506 511.42013899 977.21990895 509.06121735 975.21875 506.69140625 C969.33521813 499.74001334 963.27866962 492.99585269 957.03320312 486.3671875 C954.05421488 483.20472293 951.11703584 480.02680239 948.28515625 476.73046875 C945.46697682 473.45203389 942.45715555 470.42024393 939.34765625 467.41796875 C937.49044024 465.50768943 935.76130717 463.55926908 934.02709961 461.53930664 C930.21935016 457.17639256 926.2009841 453.06420289 922.1015625 448.9765625 C920.97958717 447.85315208 920.97958717 447.85315208 919.83494568 446.70704651 C918.26383161 445.1352565 916.69147233 443.56471026 915.11791992 441.99536133 C912.72915779 439.61195571 910.34578179 437.22325807 907.96289062 434.83398438 C906.42610175 433.29785638 904.88900265 431.76203866 903.3515625 430.2265625 C902.29806358 429.17002724 902.29806358 429.17002724 901.22328186 428.09214783 C897.2233539 424.1108293 893.12424904 420.30607334 888.84190369 416.62953186 C886.84965564 414.89812072 884.99312569 413.06640138 883.16015625 411.16796875 C880.05301703 408.01875994 876.83525321 405.08819908 873.48046875 402.20703125 C871.11959613 400.13232501 868.82046176 398.00285697 866.52368164 395.85791016 C861.11577852 390.80843325 855.60243223 386.00387127 849.828125 381.37109375 C847.07626087 379.09869057 844.46277482 376.72102044 841.84765625 374.29296875 C837.23665216 370.04927082 832.43884389 366.16849871 827.48632812 362.33984375 C823.51230549 359.25900536 819.65686263 356.07461874 815.84765625 352.79296875 C809.62783099 347.4589656 803.14931834 342.50188688 796.6171875 337.55859375 C792.85147884 334.70636137 789.13117795 331.80033928 785.41845703 328.87963867 C777.63962227 322.76841789 769.73038593 316.91475291 761.60791016 311.26928711 C758.81080752 309.32330589 756.02245208 307.36622995 753.24584961 305.39111328 C743.044045 298.13455042 732.71347787 291.09435585 722.28515625 284.16796875 C721.49524292 283.64272614 720.70532959 283.11748352 719.89147949 282.57632446 C690.10284207 262.77746732 659.54341413 244.33724047 628.16015625 227.16796875 C627.10038574 226.58660156 626.04061523 226.00523437 624.94873047 225.40625 C594.02825874 208.49468249 562.52014361 193.04969318 530.18115234 179.0456543 C528.26701059 178.21437384 526.35553514 177.37735093 524.4453125 176.53710938 C493.58152477 162.96323618 462.08197171 151.00483631 430.16015625 140.16796875 C429.36025269 139.895755 428.56034912 139.62354126 427.73620605 139.34307861 C339.2694292 109.28119474 247.27125766 89.37947746 92.30285645 75.27511597 C90.80340815 75.20013501 89.30414969 75.1213039 87.80505371 75.0395813 C67.6397547 73.95131456 47.47318982 73.96687685 27.28515625 73.98046875 C26.39721375 73.98073563 25.50927124 73.9810025 24.59442139 73.98127747 C-1.41780988 73.99108821 -27.38172218 74.07408699 -53.33709717 75.984375 Z " fill="#A930D0" transform="translate(1318.83984375,12.83203125)"/>
<path d="M0 0 C11.19978288 9.73392894 18.51253465 22.9198609 20.125 37.75 C20.67731523 46.2697562 19.63837871 54.37236787 18.125 62.75 C24.93945824 57.4653181 29.11305567 51.2815452 33.8515625 44.15234375 C45.30167075 27.61059162 62.60507224 10.620974 82.84765625 6.1484375 C105.10389475 3.44267311 123.89121135 7.96224697 141.875 21.625 C160.47175706 36.27899144 173.77281994 55.45068049 176.859375 79.3203125 C177.9885842 86.16969175 180.53462694 91.88705221 183.625 98.0625 C184.16253906 99.15409424 184.70007812 100.24568848 185.25390625 101.37036133 C197.46209489 125.70556714 215.81964427 145.51412298 236.35205078 163.2199707 C238.58528923 165.14722288 240.76040488 167.13473091 242.9375 169.125 C247.22714343 172.99089446 251.61778922 176.69633147 256.11328125 180.3203125 C258.2306711 182.02850509 260.32936711 183.74976627 262.41796875 185.4921875 C280.57678178 200.50677026 300.50196261 212.56721184 321.59863281 222.93847656 C332.14863277 228.17924039 343.26444757 235.14519083 349.125 245.75 C349.125 247.07 349.125 248.39 349.125 249.75 C341.37902205 254.63672435 333.39838668 256.94709435 324.5625 259.0625 C323.51070557 259.31660645 322.45891113 259.57071289 321.37524414 259.83251953 C309.55205635 262.54640098 297.87996446 262.98362067 285.79321289 263.04516602 C284.23159707 263.05665682 282.67001962 263.07706274 281.10864258 263.10668945 C265.34098085 263.40400447 252.05586269 260.58287496 237.625 254 C236.69558594 253.58878906 235.76617188 253.17757813 234.80859375 252.75390625 C232.57535676 251.7639146 230.34791767 250.76289306 228.125 249.75 C228.70354736 250.18755615 229.28209473 250.6251123 229.87817383 251.07592773 C236.31055575 255.94549236 242.72492361 260.83805754 249.125 265.75 C250.10388184 266.49854248 250.10388184 266.49854248 251.10253906 267.26220703 C265.67292064 278.46721729 265.67292064 278.46721729 267.0625 286.6875 C267.0934375 288.2034375 267.0934375 288.2034375 267.125 289.75 C266.125 290.75 266.125 290.75 262.27734375 290.875 C237.27980279 290.51911945 214.62079158 280.85130603 192.125 270.75 C192.60710938 271.48605469 193.08921875 272.22210937 193.5859375 272.98046875 C194.21757813 273.95628906 194.84921875 274.93210937 195.5 275.9375 C196.12648438 276.90042969 196.75296875 277.86335938 197.3984375 278.85546875 C199.97823341 283.18042071 201.40118526 286.4977939 201.25 291.5625 C201.22292969 292.74779297 201.22292969 292.74779297 201.1953125 293.95703125 C201.16050781 294.84455078 201.16050781 294.84455078 201.125 295.75 C176.54842427 296.96532517 148.12843849 284.94497365 129.875 268.5 C127.93504036 266.6009103 126.02496184 264.68765 124.125 262.75 C122.84541128 261.47879433 121.56406491 260.20935619 120.28125 258.94140625 C116.87445613 255.56504528 113.49410032 252.1639552 110.125 248.75 C111.75588162 253.80679205 113.49674611 258.78557898 115.421875 263.73828125 C115.82277344 264.77404297 116.22367188 265.80980469 116.63671875 266.87695312 C117.4708906 269.02290627 118.3121883 271.16610146 119.16015625 273.30664062 C119.55589844 274.33595703 119.95164062 275.36527344 120.359375 276.42578125 C120.72256836 277.35302002 121.08576172 278.28025879 121.45996094 279.2355957 C122.16321787 281.89449555 122.05816535 283.20096554 121.125 285.75 C110.72851189 285.51371618 101.11366289 277.98212041 94.125 270.75 C64.21152655 237.55754966 39.78067737 194.55832723 32.69873047 150.19042969 C31.19533675 140.96721559 29.87385048 134.67630153 22.125 128.75 C21.10094986 127.87180763 20.0775569 126.99284859 19.0546875 126.11328125 C10.64151896 119.22567129 2.84947303 116.83637519 -7.875 115.75 C-5.2762699 122.80527576 -2.68477288 129.58856129 1.20703125 136.04296875 C3.92722538 144.06464761 1.71360401 151.16863685 -1.5625 158.625 C-1.92899658 159.50430176 -2.29549316 160.38360352 -2.6730957 161.28955078 C-4.1707562 164.86823017 -5.7202091 168.41407081 -7.34375 171.9375 C-25.08948593 211.06912283 -18.21144813 267.2026521 -7.05517578 307.72802734 C-4.94035743 315.67255024 -4.65578046 323.15671047 -4.69506836 331.34619141 C-4.69862839 332.57273595 -4.70218842 333.79928049 -4.70585632 335.06299305 C-4.80222678 348.42473998 -5.50624917 361.74169899 -6.28850365 375.07804656 C-6.49101316 378.56496805 -6.68354054 382.05244212 -6.8770752 385.53987122 C-7.28437786 392.85405237 -7.70099257 400.16767871 -8.11993408 407.48120117 C-8.75191953 418.51501882 -9.37638437 429.54925785 -9.99176931 440.58401376 C-10.18418098 444.02891511 -10.37875858 447.47366503 -10.57862854 450.91814232 C-11.38689711 464.87406467 -12.15349688 478.7668201 -11.875 492.75 C90.85467407 467.25096305 90.85467407 467.25096305 189.4375 429.5625 C190.44578857 429.08748047 191.45407715 428.61246094 192.49291992 428.12304688 C210.3546251 419.49923184 224.5132202 408.71148719 232.125 389.75 C233.34173882 385.79559885 233.36095954 384.39578401 231.9375 380.5 C230.02229017 377.59416439 229.28924599 376.92653601 226.125 375.75 C218.19463354 375.43911723 210.57363869 377.80663295 203.0625 380.0625 C200.84717403 380.6981767 198.63102092 381.33097767 196.4140625 381.9609375 C195.33930664 382.26741211 194.26455078 382.57388672 193.15722656 382.88964844 C167.33205534 390.21717689 144.80118766 389.92839391 120.87988281 376.75488281 C117.15431518 374.62154442 113.58599891 372.28806587 110.125 369.75 C118.15769448 351.16320825 143.01962764 335.94088668 161.171875 328.51611328 C183.39063197 319.80080586 212.40059964 323.90867427 234.125 332.75 C250.19418967 339.77501224 260.86480106 352.44378689 267.8359375 368.25 C274.03471137 385.08061028 273.64332766 402.90324988 266.51025391 419.32543945 C262.67899858 427.57217488 258.01340256 434.79187098 252.125 441.75 C251.3309375 442.69488281 250.536875 443.63976563 249.71875 444.61328125 C200.93115983 500.42566684 106.26227766 516.72620869 38.125 535.75 C40.94835264 537.99128512 43.74370797 539.65580773 46.9921875 541.2109375 C48.42812256 541.90823975 48.42812256 541.90823975 49.89306641 542.61962891 C50.91835449 543.11640137 51.94364258 543.61317383 53 544.125 C92.17182233 563.43471863 133.6533606 590.60811417 148.87109375 633.87109375 C151.96971962 645.1757357 151.38087282 658.74206484 145.87109375 669.109375 C138.01206621 681.87226441 124.67912254 688.8902828 110.34423828 692.31201172 C101.70725374 694.01660471 92.87292037 694.82162307 84.125 695.75 C84.81464844 696.17410156 85.50429687 696.59820313 86.21484375 697.03515625 C92.48552128 700.94895361 98.43624295 705.02912175 104.125 709.75 C104.95 710.42804687 105.775 711.10609375 106.625 711.8046875 C117.19887529 720.86340383 127.24331623 733.40374165 128.36328125 747.81640625 C128.63488441 760.61034443 125.65680648 769.23307772 117.125 778.75 C116.55136719 779.41644531 115.97773437 780.08289062 115.38671875 780.76953125 C92.71879188 805.37903644 50.72074078 815.59108381 19.125 821.75 C19.5375 822.13220703 19.95 822.51441406 20.375 822.90820312 C24.37292577 826.6161008 28.35711244 830.33818679 32.33105469 834.07177734 C33.69297433 835.34584316 35.06651119 836.6075043 36.4453125 837.86328125 C67.8458005 867.4286758 86.24208778 912.37241476 102.69140625 951.37011719 C104.02286715 954.5092086 105.38004477 957.63536838 106.75 960.7578125 C107.50015871 962.48430605 108.25017139 964.21086306 109 965.9375 C109.34015137 966.70328369 109.68030273 967.46906738 110.03076172 968.25805664 C112.23854761 973.40935718 112.23854761 973.40935718 111.125 976.75 C105.00845873 970.19901281 99.06651182 963.58514616 93.44140625 956.6015625 C90.8600296 953.42381384 88.21736929 950.30378921 85.5625 947.1875 C82.35734232 943.41934845 79.19811215 939.62752596 76.125 935.75 C71.73343432 930.21591317 67.16799325 924.83501032 62.58251953 919.46191406 C61.13161629 917.75777109 59.6883079 916.04743663 58.24609375 914.3359375 C43.25902144 896.61207363 27.41537052 879.10725325 9.125 864.75 C7.35407506 863.25010815 5.5832436 861.75010593 3.8125 860.25 C-5.97308545 852.26262042 -16.5495153 846.28186233 -27.875 840.75 C-27.95016846 841.607146 -28.02533691 842.46429199 -28.1027832 843.34741211 C-29.98737025 864.81859926 -31.91128162 886.28590565 -33.875 907.75 C-32.77559082 907.89332764 -31.67618164 908.03665527 -30.54345703 908.18432617 C-21.29985075 909.6096846 -13.77925288 914.98219706 -8.3125 922.375 C-3.64253188 929.28329707 -0.48507064 936.36152872 0.125 944.75 C0.20234375 945.74386719 0.20234375 945.74386719 0.28125 946.7578125 C0.76098435 957.91163614 -2.86556996 969.40335044 -9.77734375 978.16015625 C-18.76446651 987.89485161 -29.59224824 991.9243776 -42.55078125 992.96484375 C-54.24427161 993.3879078 -64.33408164 990.45733734 -73.875 983.75 C-74.7825 983.151875 -75.69 982.55375 -76.625 981.9375 C-85.5017366 973.30733941 -89.92144201 961.46066137 -90.1875 949.25 C-90.06527445 937.56523711 -86.69396473 927.52701969 -78.875 918.75 C-72.56633388 912.6524045 -64.84279936 907.75 -55.875 907.75 C-56.00052246 906.7403418 -56.12604492 905.73068359 -56.25537109 904.69042969 C-57.48853343 894.5998169 -58.49165025 884.50617076 -59.30761719 874.37353516 C-59.50107324 871.98675882 -59.7034765 869.60084446 -59.90625 867.21484375 C-60.63793275 858.36483635 -61.07006599 849.63633932 -60.875 840.75 C-74.53637414 845.78435888 -85.50533959 853.83573259 -96.875 862.75 C-97.42575195 863.17925781 -97.97650391 863.60851563 -98.54394531 864.05078125 C-107.77063138 871.33957401 -116.00633125 879.70247181 -124.3125 888 C-124.88111755 888.56752991 -125.44973511 889.13505981 -126.0355835 889.7197876 C-132.19680206 895.88234086 -138.25031731 902.08684206 -143.875 908.75 C-144.81279832 909.83290133 -145.75157041 910.91496028 -146.69140625 911.99609375 C-152.79828551 919.08095476 -158.78972935 926.25266306 -164.71948242 933.48632812 C-168.3574673 937.92070537 -172.03138106 942.32057351 -175.75 946.6875 C-178.83217067 950.30742515 -181.86368103 953.95757703 -184.8125 957.6875 C-189.97242102 964.20472801 -195.43943333 970.46286122 -200.875 976.75 C-201.535 976.42 -202.195 976.09 -202.875 975.75 C-165.50446619 885.64444682 -165.50446619 885.64444682 -139.875 853.75 C-139.13765625 852.821875 -138.4003125 851.89375 -137.640625 850.9375 C-130.85090707 842.50888464 -123.96035701 834.28454132 -115.671875 827.2890625 C-113.26891105 825.23087164 -111.07660831 823.02040857 -108.875 820.75 C-109.48666016 820.70681641 -110.09832031 820.66363281 -110.72851562 820.61914062 C-116.85831948 820.10793281 -122.48720898 819.0022289 -128.375 817.25 C-129.70591675 816.86013916 -129.70591675 816.86013916 -131.0637207 816.46240234 C-155.03058719 809.3064479 -178.55146836 801.63875639 -198.875 786.75 C-199.60203125 786.22792969 -200.3290625 785.70585938 -201.078125 785.16796875 C-209.26052851 778.7731624 -216.81704446 768.31042194 -218.10986328 757.84960938 C-219.39592011 742.56022072 -214.69167967 731.50577689 -204.875 719.75 C-196.08204492 709.73367726 -185.46062638 702.19790896 -173.875 695.75 C-174.51824219 695.68530518 -175.16148437 695.62061035 -175.82421875 695.55395508 C-216.63355864 691.31511048 -216.63355864 691.31511048 -230.875 676.75 C-239.80986127 664.57814449 -241.06288752 653.45307779 -239.875 638.75 C-236.33494774 619.13891502 -222.32785575 602.70259036 -208.875 588.75 C-208.18277344 587.99460937 -207.49054688 587.23921875 -206.77734375 586.4609375 C-186.06960715 564.5163226 -155.34912984 548.31437702 -127.875 536.75 C-130.45970567 535.39009126 -132.92580577 534.34568144 -135.7355957 533.55517578 C-136.49538727 533.33879959 -137.25517883 533.1224234 -138.03799438 532.89949036 C-138.86721405 532.66711166 -139.69643372 532.43473297 -140.55078125 532.1953125 C-142.39882719 531.66823466 -144.24671953 531.14061809 -146.09448242 530.61254883 C-147.08322357 530.33101959 -148.07196472 530.04949036 -149.09066772 529.75942993 C-169.67105691 523.88183936 -190.13325658 517.6511931 -210.53988266 511.20058441 C-212.5246958 510.57442626 -214.51053242 509.95163144 -216.49673462 509.32989502 C-230.63438616 504.90000887 -244.65367039 500.23078269 -258.5078125 494.98046875 C-259.67193161 494.53991653 -260.83605072 494.09936432 -262.03544617 493.64546204 C-299.9013019 479.07692534 -338.27611959 457.00706967 -356.6875 419.25 C-363.76267427 402.66158466 -364.01409793 384.64139083 -357.875 367.75 C-352.21831739 354.10017891 -342.52601819 343.32020604 -329.875 335.75 C-329.17890625 335.30269531 -328.4828125 334.85539062 -327.765625 334.39453125 C-309.20862518 323.70122462 -278.99585151 321.19368646 -258.4375 326.25 C-236.72909968 332.60586154 -213.5072463 348.80163056 -200.875 367.75 C-200.875 368.74 -200.875 369.73 -200.875 370.75 C-203.03928314 372.36170021 -205.11339945 373.7168931 -207.4375 375.0625 C-208.10990723 375.45767822 -208.78231445 375.85285645 -209.47509766 376.26000977 C-231.34469683 388.77182162 -254.01380924 390.83287005 -278.27636719 384.46972656 C-284.32765306 382.79374096 -290.35427652 381.01744641 -296.34130859 379.12475586 C-307.59372664 375.55059519 -307.59372664 375.55059519 -318.9375 376.9375 C-321.87826432 379.68853759 -322.76767997 381.4712545 -323.10546875 385.49609375 C-322.2788137 397.16734213 -311.37660626 408.92030253 -302.9375 416.3125 C-277.02567994 436.49756038 -241.24851835 446.75510573 -210.29296875 456.43359375 C-209.28710157 456.74822571 -209.28710157 456.74822571 -208.26091385 457.06921387 C-191.3593149 462.33838394 -174.28929427 466.97900919 -157.19842529 471.58856201 C-153.94878036 472.46644814 -150.70067931 473.34996545 -147.45261765 474.23368835 C-124.29372626 480.53391638 -101.09374227 486.674418 -77.875 492.75 C-77.75798612 484.17758788 -78.12615303 475.66245167 -78.609375 467.10571289 C-78.68845869 465.66546568 -78.76726749 464.22520336 -78.8458252 462.78492737 C-79.01436884 459.70477349 -79.1847438 456.62472856 -79.35656738 453.54475594 C-79.62876393 448.66384432 -79.89626429 443.78268198 -80.16308594 438.901474 C-80.82638774 426.78072657 -81.49639583 414.66035075 -82.16650391 402.53997803 C-82.68777297 393.1096445 -83.2074254 383.67922681 -83.72273636 374.24856561 C-83.98746346 369.40711021 -84.25529242 364.56583988 -84.52557373 359.72469151 C-84.69371515 356.70106598 -84.859107 353.67729438 -85.02378845 350.65347862 C-85.1000354 349.26358383 -85.17738726 347.87374908 -85.2559967 346.4839859 C-86.57685666 323.09734108 -86.57685666 323.09734108 -84.73828125 315.71875 C-84.49303711 314.67936279 -84.24779297 313.63997559 -83.99511719 312.5690918 C-83.72860352 311.4737915 -83.46208984 310.37849121 -83.1875 309.25 C-72.77209175 263.60655271 -65.14590949 212.01505452 -84.41796875 167.85546875 C-84.87220215 166.80673584 -85.32643555 165.75800293 -85.79443359 164.67749023 C-86.69811909 162.61624475 -87.62307142 160.56414326 -88.57275391 158.52368164 C-91.97185944 150.84772198 -93.60851727 143.53759032 -91.13891602 135.29248047 C-90.2029678 133.05346955 -89.15557486 130.94571519 -88 128.8125 C-87.27255432 127.38716915 -86.54596807 125.9613993 -85.8203125 124.53515625 C-85.48032227 123.88434082 -85.14033203 123.23352539 -84.79003906 122.56298828 C-83.67056723 120.34495257 -82.74056019 118.07790136 -81.875 115.75 C-97.14684281 117.29701784 -106.80479948 123.21827835 -117.640625 134.08203125 C-120.42813364 137.84869641 -121.27058074 142.20664662 -122.1015625 146.73828125 C-130.96299338 193.26720542 -155.18062797 250.46025691 -194.875 279.75 C-204.99073733 286.18469328 -204.99073733 286.18469328 -210.875 285.75 C-212.30268719 281.14180013 -211.32429443 278.43502274 -209.56640625 274.0234375 C-209.32083481 273.39394196 -209.07526337 272.76444641 -208.82225037 272.11587524 C-208.03925472 270.11397378 -207.2394407 268.1193791 -206.4375 266.125 C-205.64185838 264.12255109 -204.84992064 262.11877466 -204.0634613 260.11270142 C-203.35005706 258.29660174 -202.62561387 256.48484998 -201.90063477 254.67333984 C-200.7094703 251.79453479 -200.7094703 251.79453479 -200.875 248.75 C-201.40867187 249.35585937 -201.94234375 249.96171875 -202.4921875 250.5859375 C-210.88744278 260.02696852 -219.0730213 269.05041212 -229.875 275.75 C-230.70547852 276.26578613 -230.70547852 276.26578613 -231.55273438 276.79199219 C-249.45648659 287.75683071 -269.53975636 296.78793077 -290.875 295.75 C-292.86801001 289.60488579 -290.65697084 284.28488716 -287.875 278.75 C-285.96183361 276.01332664 -283.94519507 273.36936324 -281.875 270.75 C-282.4011792 270.985979 -282.9273584 271.22195801 -283.46948242 271.46508789 C-296.71387187 277.36721458 -310.01962381 282.47546905 -323.875 286.75 C-324.9578125 287.100625 -326.040625 287.45125 -327.15625 287.8125 C-333.52702 289.67362382 -339.90283131 290.20777397 -346.5 290.625 C-347.39082275 290.68671387 -348.28164551 290.74842773 -349.19946289 290.81201172 C-350.4503772 290.87026123 -350.4503772 290.87026123 -351.7265625 290.9296875 C-352.85312256 290.98745361 -352.85312256 290.98745361 -354.00244141 291.04638672 C-354.62038574 290.9485791 -355.23833008 290.85077148 -355.875 290.75 C-356.865 289.265 -356.865 289.265 -357.875 287.75 C-353.50722741 272.8995732 -336.94600656 263.41335915 -325.13110352 254.68457031 C-324.47682373 254.20084961 -323.82254395 253.71712891 -323.1484375 253.21875 C-322.56497559 252.79013672 -321.98151367 252.36152344 -321.38037109 251.91992188 C-319.72747211 250.68541453 -319.72747211 250.68541453 -317.875 248.75 C-318.42736328 249.03198242 -318.97972656 249.31396484 -319.54882812 249.60449219 C-322.14939186 250.91985603 -324.76188876 252.20975367 -327.375 253.5 C-328.24253906 253.9434375 -329.11007812 254.386875 -330.00390625 254.84375 C-343.39371233 261.39415873 -356.27121319 263.39655824 -371.01123047 263.16162109 C-373.37381448 263.12501837 -375.73481693 263.12060465 -378.09765625 263.12109375 C-391.44820094 263.06074525 -404.69564869 262.04083014 -417.625 258.5 C-418.41503418 258.28746582 -419.20506836 258.07493164 -420.01904297 257.85595703 C-426.63121831 255.98891058 -433.19157242 253.70462832 -438.875 249.75 C-439.37 248.265 -439.37 248.265 -439.875 246.75 C-438.7578125 244.76953125 -438.7578125 244.76953125 -437 242.5625 C-436.44570313 241.84707031 -435.89140625 241.13164063 -435.3203125 240.39453125 C-428.59894446 233.12557571 -421.68333081 228.16296289 -412.8125 223.8125 C-410.76862239 222.77653074 -408.72565635 221.73876111 -406.68359375 220.69921875 C-405.69214355 220.19825684 -404.70069336 219.69729492 -403.67919922 219.18115234 C-383.12145612 208.68929355 -364.55073815 195.56712821 -346.875 180.75 C-346.08270996 180.08726074 -346.08270996 180.08726074 -345.27441406 179.41113281 C-337.05410246 172.51528473 -329.13573402 165.3470122 -321.33203125 157.984375 C-318.5464587 155.36141393 -315.69832712 152.82520053 -312.8125 150.3125 C-293.99766059 133.40731983 -281.92437283 114.35769403 -270.875 91.75 C-270.38785522 90.77994019 -270.38785522 90.77994019 -269.89086914 89.7902832 C-267.99218124 85.76562866 -267.26381905 81.83397291 -266.59692383 77.48022461 C-263.0746244 54.52961882 -249.98429993 35.36896305 -231.67578125 21.20703125 C-213.27864985 7.95843361 -194.61921916 3.49092473 -172.27734375 6.18359375 C-158.42031245 9.12296403 -148.03721453 18.48156271 -137.875 27.75 C-137.111875 28.42933594 -136.34875 29.10867188 -135.5625 29.80859375 C-129.3280968 35.65334675 -124.71450501 42.75889166 -119.875 49.75 C-116.04905264 55.23299033 -112.16091527 59.62135612 -106.875 63.75 C-107.0915625 63.16476562 -107.308125 62.57953125 -107.53125 61.9765625 C-112.23653841 47.4685899 -111.06341295 31.7891765 -104.58984375 18.015625 C-96.26780486 3.08695357 -82.89388885 -7.44518389 -66.546875 -12.22265625 C-43.29150081 -17.63380934 -19.24961579 -14.79515925 0 0 Z M-17.875 571.75 C-19.319455 599.30641088 -19.319455 599.30641088 -20.5 626.875 C-20.53988037 627.86918945 -20.57976074 628.86337891 -20.62084961 629.88769531 C-20.99558155 640.50481188 -20.90982298 651.12792087 -20.875 661.75 C-20.24654175 661.77283554 -19.6180835 661.79567108 -18.97058105 661.81919861 C-12.35024885 662.06016527 -5.73002895 662.30406237 0.89013672 662.54956055 C3.35137284 662.64046121 5.81263545 662.73064774 8.27392578 662.82006836 C31.80073518 663.67567561 31.80073518 663.67567561 41.12109375 664.296875 C55.74827432 665.27169769 70.06885459 665.47717301 84.5625 663 C85.49070557 662.84313721 86.41891113 662.68627441 87.37524414 662.5246582 C93.18447984 661.42264233 99.09522717 659.98099335 104.125 656.75 C105.47723455 653.83256966 105.47723455 653.83256966 104.078125 651.47265625 C99.16796712 643.80335003 93.50986285 637.19240408 87.125 630.75 C86.29355469 629.90566406 85.46210937 629.06132813 84.60546875 628.19140625 C71.44872791 615.56012664 54.9971 606.51221 39.125 597.75 C37.8565625 597.04689697 37.8565625 597.04689697 36.5625 596.32958984 C24.26179606 589.56832121 11.66440733 583.62193628 -1.1875 578 C-1.90529633 577.6854184 -2.62309265 577.37083679 -3.36264038 577.04672241 C-10.41198275 573.41881734 -10.41198275 573.41881734 -17.875 571.75 Z M-73.875 571.75 C-97.28863038 581.64539029 -120.17924841 592.03560136 -142.125 604.9375 C-143.21965576 605.57856689 -144.31431152 606.21963379 -145.44213867 606.88012695 C-156.86614738 613.7122091 -167.19981867 621.60199201 -176.875 630.75 C-178.1434375 631.92175781 -178.1434375 631.92175781 -179.4375 633.1171875 C-185.49135173 638.89418625 -191.17423905 645.17066376 -194.875 652.75 C-194.97094308 654.97901231 -194.97094308 654.97901231 -193.875 656.75 C-183.43574249 664.6191865 -165.38430385 664.94825393 -152.6875 664.9375 C-151.74116699 664.93741943 -150.79483398 664.93733887 -149.81982422 664.93725586 C-133.83284471 664.82190093 -117.85466907 663.88545332 -101.88848877 663.12574768 C-94.11442408 662.75681841 -86.33946069 662.42752156 -78.5625 662.125 C-77.54430176 662.08511963 -76.52610352 662.04523926 -75.47705078 662.00415039 C-73.27640429 661.91847516 -71.07570927 661.83404719 -68.875 661.75 C-69.28748247 640.80561579 -69.81891482 619.86654961 -70.68902588 598.93563843 C-70.77121944 596.93985434 -70.85028986 594.94393913 -70.9262085 592.94790649 C-71.03399039 590.14578228 -71.15388143 587.34444036 -71.27734375 584.54296875 C-71.30760147 583.70933807 -71.33785919 582.8757074 -71.36903381 582.01681519 C-71.55216072 578.17529668 -71.70904358 575.01349152 -73.875 571.75 Z M-81.97265625 698.6328125 C-83.09244873 698.82738037 -84.21224121 699.02194824 -85.3659668 699.22241211 C-86.54457275 699.43776611 -87.72317871 699.65312012 -88.9375 699.875 C-90.16960205 700.09873291 -91.4017041 700.32246582 -92.67114258 700.55297852 C-104.23702083 702.71594602 -115.59167648 705.41683756 -126.875 708.75 C-128.01171143 709.08354492 -128.01171143 709.08354492 -129.17138672 709.42382812 C-146.33840964 714.60369994 -163.2480685 723.02502117 -176.875 734.75 C-177.56722656 735.34296875 -178.25945312 735.9359375 -178.97265625 736.546875 C-184.30201392 741.48020822 -188.17420891 747.11862797 -189.5625 754.3125 C-188.18844145 761.18279276 -183.76668066 765.3353661 -178.25 769.375 C-145.88484008 790.48895787 -102.33443803 792.67888533 -64.875 791.75 C-64.77586529 780.4826715 -65.08329786 769.26104644 -65.53125 758.00390625 C-65.59876179 756.25415497 -65.66601777 754.50439381 -65.73303223 752.75462341 C-65.90804677 748.20252525 -66.08647996 743.65056764 -66.26568604 739.09863281 C-66.4487668 734.43237333 -66.62853042 729.7659861 -66.80859375 725.09960938 C-67.16086129 715.9829467 -67.51674948 706.8664294 -67.875 697.75 C-69.13078354 697.74249725 -70.38656708 697.73499451 -71.68040466 697.7272644 C-72.3867829 697.72304411 -73.09316114 697.71882381 -73.82094479 697.71447563 C-76.59589479 697.76246769 -79.24029144 698.15756031 -81.97265625 698.6328125 Z M-21.875 697.75 C-22.85297862 712.46779793 -23.36530679 727.19721221 -23.875 741.9375 C-24.04025091 746.68104028 -24.20683587 751.42453084 -24.375 756.16796875 C-24.4155249 757.31159882 -24.4560498 758.45522888 -24.49780273 759.6335144 C-24.88400416 770.34247837 -25.36254713 781.04641327 -25.875 791.75 C10.53581979 792.32159843 61.59426393 792.57576598 90.9375 767.125 C92.3673634 765.70001668 93.76903126 764.24547169 95.125 762.75 C95.62773438 762.2034375 96.13046875 761.656875 96.6484375 761.09375 C98.71406243 758.48745814 99.12481588 756.75975826 99.1875 753.4375 C94.3619756 736.69009179 79.46906778 728.42721258 65.22631836 720.2487793 C40.40316946 706.56647127 6.54779044 697.50694261 -21.875 697.75 Z " fill="#AB32D2" transform="translate(1389.875,855.25)"/>
</svg>
