<svg id="svg" version="1.1" xmlns="http://www.w3.org/2000/svg" xmlns:xlink="http://www.w3.org/1999/xlink" width="400" height="400" viewBox="0, 0, 400,400"><g id="svgg"><path id="path0" d="M192.917 1.519 C 190.900 1.592,187.787 1.764,186.000 1.900 C 184.213 2.036,182.352 2.150,181.865 2.154 C 180.714 2.163,177.339 2.557,173.215 3.164 C 171.401 3.431,169.279 3.732,168.500 3.833 C 167.721 3.934,165.508 4.325,163.583 4.702 C 161.658 5.079,159.633 5.458,159.083 5.546 C 158.533 5.633,156.396 6.119,154.333 6.626 C 152.271 7.133,150.396 7.572,150.167 7.602 C 149.938 7.631,148.587 8.002,147.167 8.427 C 145.746 8.851,144.133 9.316,143.583 9.459 C 143.033 9.603,140.483 10.415,137.917 11.265 C 131.882 13.262,132.463 13.058,129.583 14.200 C 128.208 14.746,126.917 15.217,126.713 15.248 C 126.509 15.278,125.797 15.560,125.130 15.873 C 124.462 16.187,123.467 16.616,122.917 16.826 C 121.818 17.245,121.169 17.529,119.417 18.354 C 118.775 18.656,118.161 18.918,118.052 18.936 C 117.711 18.991,112.208 21.692,107.917 23.911 C 104.551 25.652,99.773 28.336,99.694 28.529 C 99.664 28.605,99.534 28.667,99.407 28.667 C 99.279 28.667,98.671 29.004,98.056 29.417 C 97.441 29.829,96.864 30.167,96.773 30.167 C 96.600 30.167,94.916 31.263,94.529 31.626 C 94.407 31.742,93.900 32.028,93.403 32.264 C 92.907 32.499,92.500 32.760,92.500 32.845 C 92.500 32.930,92.388 33.000,92.250 33.000 C 92.112 33.000,92.000 33.061,92.000 33.136 C 92.000 33.211,91.681 33.449,91.292 33.664 C 90.382 34.168,88.677 35.313,88.260 35.700 C 88.083 35.865,87.839 36.000,87.719 36.000 C 87.598 36.000,87.500 36.062,87.500 36.139 C 87.500 36.215,87.294 36.383,87.042 36.514 C 86.790 36.644,86.404 36.912,86.186 37.109 C 85.967 37.306,85.592 37.567,85.352 37.689 C 84.965 37.886,83.550 38.930,83.333 39.179 C 83.287 39.232,83.006 39.417,82.708 39.590 C 82.410 39.763,82.167 39.964,82.167 40.036 C 82.167 40.108,82.073 40.168,81.958 40.170 C 81.844 40.171,81.591 40.340,81.397 40.545 C 81.202 40.749,80.602 41.214,80.063 41.577 C 79.524 41.940,78.809 42.465,78.473 42.744 C 78.137 43.022,77.293 43.695,76.598 44.239 C 75.902 44.783,75.333 45.302,75.333 45.392 C 75.333 45.482,75.289 45.512,75.236 45.458 C 75.182 45.405,74.984 45.486,74.796 45.639 C 74.285 46.053,73.331 46.877,72.978 47.208 C 72.807 47.369,72.610 47.501,72.542 47.503 C 72.473 47.504,72.232 47.700,72.007 47.938 C 71.781 48.175,71.334 48.568,71.012 48.810 C 70.691 49.052,70.154 49.512,69.819 49.833 C 68.737 50.870,68.199 51.333,68.078 51.333 C 68.012 51.333,67.662 51.671,67.299 52.083 C 66.935 52.496,66.577 52.833,66.501 52.833 C 66.171 52.833,58.068 60.819,54.583 64.578 C 53.575 65.666,52.394 66.910,51.958 67.344 C 51.523 67.777,51.167 68.179,51.167 68.237 C 51.167 68.344,50.422 69.216,49.667 69.993 C 49.438 70.229,49.053 70.683,48.813 71.003 C 48.573 71.322,48.193 71.771,47.969 72.000 C 47.745 72.229,47.342 72.712,47.073 73.073 C 46.803 73.435,46.433 73.890,46.250 74.086 C 46.067 74.282,45.804 74.586,45.666 74.763 C 45.528 74.939,44.964 75.646,44.412 76.333 C 43.860 77.021,43.212 77.846,42.971 78.167 C 42.731 78.487,42.391 78.900,42.217 79.083 C 42.043 79.267,41.850 79.548,41.788 79.708 C 41.727 79.869,41.600 80.000,41.505 80.000 C 41.411 80.000,41.333 80.095,41.333 80.211 C 41.333 80.328,41.038 80.781,40.676 81.218 C 40.315 81.656,39.850 82.292,39.643 82.632 C 39.437 82.972,39.216 83.287,39.154 83.333 C 38.979 83.462,37.833 84.991,37.833 85.096 C 37.833 85.180,37.037 86.300,36.834 86.500 C 36.788 86.546,36.655 86.733,36.539 86.917 C 35.926 87.887,35.670 88.269,35.513 88.448 C 35.417 88.557,34.914 89.307,34.394 90.115 C 33.874 90.923,33.317 91.733,33.157 91.917 C 32.997 92.100,32.625 92.700,32.330 93.250 C 32.036 93.800,31.747 94.287,31.689 94.333 C 31.493 94.487,30.265 96.414,30.231 96.621 C 30.212 96.734,29.853 97.344,29.432 97.977 C 29.011 98.610,28.667 99.212,28.667 99.314 C 28.667 99.416,28.597 99.500,28.511 99.500 C 28.426 99.500,28.304 99.669,28.240 99.875 C 28.177 100.081,27.916 100.562,27.662 100.943 C 27.407 101.324,27.149 101.792,27.088 101.984 C 27.027 102.176,26.916 102.333,26.842 102.333 C 26.722 102.333,26.451 103.045,26.546 103.108 C 26.567 103.121,26.461 103.271,26.311 103.441 C 26.161 103.611,25.870 104.087,25.664 104.500 C 25.457 104.912,25.241 105.287,25.183 105.333 C 25.124 105.379,24.971 105.642,24.842 105.917 C 24.601 106.430,24.557 106.554,24.521 106.821 C 24.509 106.907,24.397 107.079,24.272 107.204 C 24.021 107.455,22.794 109.763,22.831 109.916 C 22.844 109.968,22.515 110.634,22.100 111.394 C 21.338 112.793,21.251 112.965,20.033 115.500 C 19.457 116.698,19.035 117.643,18.917 118.000 C 18.885 118.098,18.416 119.131,17.687 120.713 C 17.401 121.334,17.167 121.908,17.167 121.989 C 17.167 122.071,16.911 122.687,16.598 123.360 C 15.788 125.106,15.503 125.804,15.218 126.750 C 15.079 127.208,14.909 127.658,14.839 127.750 C 14.769 127.842,14.464 128.592,14.161 129.417 C 13.858 130.242,13.555 130.992,13.488 131.083 C 13.421 131.175,13.276 131.587,13.166 132.000 C 13.056 132.412,12.698 133.425,12.371 134.250 C 12.044 135.075,11.682 136.125,11.569 136.583 C 11.455 137.042,11.062 138.279,10.697 139.333 C 10.331 140.387,9.837 141.962,9.599 142.833 C 9.360 143.704,8.859 145.429,8.485 146.667 C 8.111 147.904,7.742 149.254,7.664 149.667 C 7.586 150.079,7.136 151.917,6.663 153.750 C 6.191 155.583,5.747 157.496,5.677 158.000 C 5.608 158.504,5.283 160.192,4.957 161.750 C 4.630 163.308,4.285 165.071,4.191 165.667 C 3.077 172.679,2.159 179.503,2.150 180.833 C 2.147 181.246,2.039 182.896,1.910 184.500 C 1.145 193.995,1.115 206.105,1.835 214.583 C 1.928 215.683,2.077 217.708,2.164 219.083 C 2.470 223.882,4.227 235.543,5.366 240.333 C 5.551 241.112,5.701 241.938,5.699 242.167 C 5.698 242.396,6.112 244.196,6.620 246.167 C 7.127 248.137,7.602 250.088,7.675 250.500 C 7.747 250.912,8.083 252.150,8.420 253.250 C 8.758 254.350,9.182 255.775,9.362 256.417 C 9.543 257.058,10.076 258.783,10.547 260.250 C 11.018 261.717,11.414 263.043,11.428 263.197 C 11.451 263.447,11.686 264.087,12.849 267.064 C 13.024 267.512,13.167 267.999,13.168 268.147 C 13.168 268.295,13.265 268.604,13.382 268.833 C 13.500 269.063,13.735 269.625,13.904 270.083 C 14.073 270.542,14.363 271.254,14.547 271.667 C 14.732 272.079,15.089 272.979,15.340 273.667 C 15.999 275.469,17.414 278.856,18.194 280.500 C 18.564 281.279,18.880 281.992,18.896 282.083 C 18.912 282.175,19.307 283.037,19.774 284.000 C 20.241 284.962,20.680 285.934,20.750 286.160 C 20.820 286.385,21.288 287.320,21.789 288.238 C 22.290 289.155,22.723 290.025,22.751 290.171 C 22.779 290.317,23.192 291.097,23.668 291.904 C 24.145 292.711,24.553 293.456,24.576 293.560 C 24.648 293.899,24.888 294.408,25.176 294.833 C 25.532 295.360,26.406 296.889,26.414 297.000 C 26.420 297.080,27.435 298.811,27.977 299.667 C 28.122 299.896,28.244 300.121,28.248 300.167 C 28.259 300.303,29.385 302.243,29.505 302.333 C 29.566 302.379,29.823 302.792,30.076 303.250 C 30.328 303.708,30.883 304.608,31.309 305.250 C 31.734 305.892,32.083 306.470,32.083 306.536 C 32.083 306.602,32.215 306.809,32.375 306.997 C 32.535 307.184,32.667 307.405,32.667 307.488 C 32.667 307.571,32.724 307.664,32.794 307.694 C 32.864 307.725,33.430 308.537,34.051 309.500 C 34.673 310.462,35.426 311.587,35.726 312.000 C 36.026 312.412,36.785 313.500,37.411 314.417 C 38.619 316.183,39.460 317.325,40.206 318.210 C 40.456 318.507,40.663 318.844,40.664 318.958 C 40.665 319.073,40.729 319.167,40.805 319.167 C 40.881 319.167,41.197 319.557,41.506 320.034 C 41.815 320.511,42.185 321.019,42.329 321.163 C 42.473 321.307,43.013 321.985,43.529 322.671 C 44.045 323.356,44.662 324.127,44.900 324.384 C 45.138 324.640,45.335 324.903,45.336 324.967 C 45.338 325.031,45.694 325.470,46.128 325.942 C 46.562 326.414,47.053 326.988,47.220 327.218 C 47.387 327.447,47.892 328.036,48.344 328.526 C 48.795 329.016,49.165 329.476,49.166 329.548 C 49.166 329.621,49.448 329.968,49.792 330.321 C 50.655 331.206,52.740 333.525,52.796 333.662 C 53.027 334.231,65.772 346.976,66.339 347.204 C 66.452 347.250,68.660 349.211,69.484 349.997 C 69.722 350.224,70.254 350.666,70.667 350.980 C 71.079 351.293,71.611 351.764,71.848 352.025 C 72.086 352.286,72.342 352.500,72.418 352.500 C 72.493 352.500,72.674 352.614,72.819 352.754 C 73.702 353.604,74.931 354.667,75.031 354.667 C 75.096 354.667,75.360 354.862,75.616 355.100 C 75.873 355.338,76.644 355.955,77.329 356.471 C 78.015 356.987,78.693 357.527,78.837 357.671 C 78.981 357.815,79.489 358.185,79.966 358.494 C 80.443 358.803,80.833 359.119,80.833 359.195 C 80.833 359.271,80.948 359.333,81.089 359.333 C 81.229 359.333,81.387 359.446,81.440 359.583 C 81.492 359.721,81.606 359.833,81.692 359.833 C 81.777 359.833,81.938 359.910,82.049 360.003 C 82.973 360.783,83.389 361.100,84.333 361.744 C 84.929 362.150,86.129 362.979,87.000 363.586 C 88.865 364.887,92.352 367.223,92.565 367.313 C 92.647 367.348,92.855 367.498,93.029 367.647 C 93.202 367.795,93.398 367.918,93.464 367.919 C 93.530 367.920,93.921 368.152,94.333 368.434 C 94.746 368.716,95.646 369.271,96.333 369.668 C 97.021 370.064,97.621 370.432,97.667 370.486 C 97.802 370.646,99.568 371.704,99.750 371.735 C 99.842 371.750,100.104 371.881,100.333 372.025 C 101.250 372.602,102.922 373.580,103.000 373.586 C 103.111 373.594,104.640 374.468,105.167 374.824 C 105.610 375.124,106.108 375.355,106.473 375.429 C 106.595 375.454,106.970 375.657,107.306 375.880 C 108.173 376.456,109.833 377.353,109.833 377.246 C 109.833 377.159,112.571 378.578,112.919 378.846 C 113.011 378.917,113.525 379.139,114.059 379.339 C 114.593 379.538,115.481 379.957,116.031 380.268 C 116.582 380.579,117.122 380.833,117.233 380.833 C 117.343 380.833,117.523 380.923,117.633 381.033 C 117.743 381.143,117.833 381.180,117.833 381.115 C 117.833 381.049,118.340 381.250,118.958 381.561 C 119.577 381.872,120.908 382.465,121.917 382.878 C 122.925 383.291,124.193 383.833,124.734 384.081 C 125.275 384.330,126.098 384.646,126.563 384.784 C 127.027 384.922,127.945 385.283,128.602 385.587 C 129.258 385.890,130.723 386.447,131.856 386.825 C 132.989 387.202,134.067 387.582,134.250 387.668 C 134.857 387.954,136.515 388.531,136.885 388.585 C 137.086 388.615,138.262 388.987,139.500 389.412 C 140.737 389.837,142.050 390.249,142.417 390.327 C 142.783 390.406,143.571 390.620,144.167 390.803 C 147.570 391.851,148.828 392.211,149.500 392.328 C 149.912 392.400,151.862 392.878,153.833 393.389 C 155.804 393.901,157.567 394.312,157.750 394.304 C 157.933 394.295,159.096 394.513,160.333 394.789 C 162.969 395.375,165.689 395.877,168.250 396.252 C 174.776 397.207,176.958 397.503,178.583 397.656 C 181.025 397.886,186.762 398.306,190.167 398.504 C 193.656 398.707,206.266 398.707,209.667 398.504 C 218.619 397.970,224.312 397.402,229.879 396.487 C 231.508 396.219,233.068 396.000,233.347 396.000 C 233.625 396.000,235.658 395.619,237.865 395.153 C 240.072 394.687,242.149 394.279,242.480 394.244 C 242.812 394.210,244.096 393.915,245.333 393.589 C 246.571 393.262,248.258 392.839,249.083 392.649 C 250.817 392.250,252.086 391.903,254.417 391.187 C 255.333 390.905,256.721 390.510,257.500 390.309 C 258.279 390.107,259.742 389.649,260.750 389.291 C 261.758 388.933,262.958 388.544,263.417 388.427 C 263.875 388.310,265.057 387.903,266.043 387.524 C 267.030 387.144,267.948 386.833,268.085 386.833 C 268.222 386.833,268.333 386.754,268.333 386.657 C 268.333 386.560,268.399 386.521,268.478 386.570 C 268.558 386.619,269.552 386.280,270.687 385.816 C 271.822 385.352,273.176 384.829,273.696 384.653 C 274.216 384.477,275.229 384.068,275.946 383.743 C 277.611 382.990,277.795 382.911,278.500 382.655 C 278.821 382.539,279.721 382.143,280.500 381.775 C 281.279 381.407,282.003 381.090,282.108 381.070 C 282.271 381.040,283.561 380.433,286.570 378.971 C 286.929 378.796,287.846 378.314,288.606 377.900 C 289.366 377.485,290.010 377.167,290.036 377.194 C 290.104 377.262,292.535 376.002,292.833 375.743 C 292.971 375.624,293.187 375.502,293.315 375.471 C 293.442 375.441,293.854 375.250,294.231 375.046 C 294.608 374.843,295.292 374.477,295.750 374.233 C 296.208 373.989,296.629 373.718,296.685 373.631 C 296.741 373.543,296.816 373.483,296.852 373.497 C 296.957 373.537,297.576 373.284,297.667 373.163 C 297.712 373.102,297.952 372.946,298.198 372.817 C 299.364 372.209,301.592 370.946,301.667 370.852 C 301.808 370.673,303.204 369.799,303.399 369.766 C 303.625 369.729,305.462 368.526,305.906 368.125 C 306.084 367.965,306.327 367.833,306.445 367.833 C 306.564 367.833,307.224 367.440,307.913 366.958 C 308.601 366.477,309.583 365.821,310.095 365.500 C 310.607 365.179,311.158 364.793,311.320 364.643 C 311.482 364.492,311.866 364.239,312.174 364.079 C 312.482 363.920,312.829 363.706,312.944 363.603 C 313.407 363.194,313.639 363.026,314.769 362.281 C 315.415 361.855,316.129 361.336,316.356 361.128 C 316.583 360.920,317.101 360.527,317.509 360.253 C 317.917 359.980,318.545 359.512,318.905 359.212 C 319.265 358.912,319.625 358.667,319.704 358.667 C 319.783 358.667,319.938 358.591,320.049 358.499 C 320.159 358.406,320.550 358.078,320.917 357.769 C 321.283 357.460,322.296 356.652,323.167 355.973 C 324.037 355.293,324.929 354.590,325.147 354.410 C 325.512 354.109,326.213 353.535,327.636 352.369 C 327.940 352.120,328.398 351.729,328.655 351.500 C 330.126 350.187,331.180 349.270,331.499 349.027 C 331.699 348.874,332.223 348.412,332.664 348.000 C 333.105 347.587,333.927 346.837,334.492 346.333 C 335.720 345.236,345.122 335.828,346.372 334.445 C 346.855 333.910,347.587 333.111,348.000 332.669 C 348.412 332.226,348.938 331.616,349.167 331.313 C 349.396 331.010,349.846 330.494,350.167 330.167 C 350.488 329.840,350.948 329.309,351.190 328.988 C 351.432 328.666,351.825 328.219,352.062 327.993 C 352.300 327.768,352.496 327.530,352.497 327.466 C 352.499 327.401,352.803 327.026,353.173 326.632 C 353.543 326.239,353.972 325.710,354.126 325.458 C 354.279 325.206,354.468 325.000,354.546 325.000 C 354.623 325.000,354.640 324.925,354.583 324.833 C 354.527 324.742,354.549 324.667,354.634 324.667 C 354.718 324.667,355.229 324.095,355.769 323.395 C 356.308 322.696,357.012 321.807,357.333 321.419 C 357.654 321.032,358.029 320.545,358.167 320.338 C 358.881 319.260,359.409 318.569,359.609 318.450 C 359.733 318.377,359.833 318.238,359.833 318.141 C 359.833 318.044,360.022 317.729,360.253 317.441 C 360.483 317.152,360.727 316.841,360.794 316.748 C 360.862 316.656,361.181 316.243,361.503 315.832 C 361.826 315.420,362.198 314.871,362.331 314.611 C 362.463 314.351,362.743 313.953,362.952 313.727 C 363.162 313.501,363.333 313.254,363.333 313.178 C 363.333 313.103,363.441 312.952,363.572 312.842 C 363.704 312.733,363.959 312.361,364.139 312.015 C 364.320 311.669,364.643 311.196,364.859 310.963 C 365.074 310.731,365.587 309.969,365.999 309.271 C 366.411 308.572,366.805 308.000,366.874 308.000 C 366.943 308.000,367.000 307.887,367.000 307.750 C 367.000 307.612,367.063 307.500,367.140 307.500 C 367.218 307.500,367.424 307.219,367.599 306.875 C 367.774 306.532,368.318 305.653,368.809 304.923 C 369.300 304.193,369.773 303.408,369.860 303.179 C 369.947 302.951,370.314 302.331,370.675 301.802 C 371.036 301.273,371.350 300.745,371.374 300.629 C 371.397 300.512,371.456 300.379,371.505 300.333 C 371.590 300.253,372.818 298.122,373.758 296.425 C 374.009 295.972,374.410 295.258,374.649 294.839 C 374.888 294.420,375.571 293.104,376.167 291.915 C 376.762 290.725,377.325 289.697,377.417 289.629 C 377.508 289.561,377.528 289.504,377.461 289.503 C 377.394 289.501,377.474 289.256,377.640 288.958 C 378.619 287.194,380.987 282.322,381.079 281.880 C 381.137 281.606,382.127 279.458,382.503 278.794 C 382.593 278.635,382.667 278.390,382.667 278.250 C 382.667 278.110,382.742 277.865,382.833 277.706 C 383.200 277.068,384.794 273.349,384.728 273.284 C 384.690 273.245,384.818 272.847,385.013 272.399 C 385.802 270.585,386.833 267.923,386.833 267.702 C 386.833 267.573,386.944 267.231,387.079 266.942 C 387.381 266.298,390.179 257.800,390.545 256.417 C 390.690 255.867,391.009 254.742,391.253 253.917 C 391.980 251.460,392.350 250.109,392.417 249.667 C 392.451 249.438,392.868 247.713,393.342 245.833 C 393.817 243.954,394.262 242.004,394.332 241.500 C 394.401 240.996,394.771 239.083,395.153 237.250 C 395.536 235.417,395.917 233.279,396.001 232.500 C 396.085 231.721,396.307 230.146,396.493 229.000 C 397.127 225.111,397.682 220.426,397.837 217.667 C 397.922 216.154,398.066 214.017,398.157 212.917 C 398.697 206.350,398.699 193.789,398.160 187.275 C 398.068 186.161,397.920 183.975,397.831 182.417 C 397.544 177.387,396.370 169.170,394.664 160.250 C 394.158 157.606,392.405 150.346,391.546 147.333 C 391.141 145.912,390.697 144.337,390.560 143.833 C 390.086 142.090,389.775 141.076,389.156 139.250 C 388.814 138.242,388.332 136.779,388.084 136.000 C 387.836 135.221,387.467 134.133,387.263 133.583 C 387.060 133.033,386.759 132.171,386.595 131.667 C 386.431 131.162,386.155 130.435,385.982 130.051 C 385.808 129.666,385.667 129.312,385.667 129.264 C 385.667 129.216,385.482 128.773,385.257 128.281 C 385.032 127.788,384.803 127.133,384.748 126.824 C 384.694 126.516,384.591 126.186,384.519 126.090 C 384.415 125.952,383.262 123.276,382.506 121.417 C 382.431 121.233,382.091 120.489,381.749 119.763 C 381.408 119.037,381.113 118.362,381.095 118.263 C 381.076 118.164,380.682 117.296,380.218 116.333 C 378.382 112.520,377.553 110.743,377.541 110.602 C 377.534 110.521,377.466 110.408,377.389 110.352 C 377.232 110.237,376.979 109.778,375.451 106.833 C 373.724 103.506,373.589 103.255,373.481 103.167 C 373.424 103.121,373.326 102.915,373.262 102.709 C 373.197 102.504,373.056 102.238,372.947 102.120 C 372.716 101.867,372.452 101.423,371.783 100.167 C 371.515 99.662,371.191 99.132,371.064 98.987 C 370.937 98.842,370.833 98.668,370.833 98.601 C 370.833 98.533,370.655 98.239,370.437 97.947 C 370.220 97.655,369.905 97.117,369.738 96.750 C 369.571 96.383,369.387 96.046,369.330 96.000 C 369.154 95.859,367.667 93.498,367.667 93.360 C 367.667 93.288,367.534 93.084,367.372 92.906 C 367.026 92.526,366.000 90.936,366.000 90.779 C 366.000 90.719,365.675 90.238,365.277 89.710 C 364.880 89.182,364.414 88.506,364.242 88.208 C 364.069 87.910,363.869 87.667,363.797 87.667 C 363.725 87.667,363.667 87.593,363.667 87.502 C 363.667 87.411,363.329 86.893,362.917 86.351 C 362.504 85.808,362.167 85.286,362.167 85.189 C 362.167 85.092,362.030 84.879,361.863 84.715 C 361.584 84.441,360.146 82.524,358.903 80.771 C 358.620 80.372,358.224 79.869,358.023 79.653 C 357.821 79.436,357.377 78.845,357.036 78.338 C 356.696 77.831,356.333 77.342,356.232 77.250 C 356.130 77.158,355.423 76.296,354.660 75.333 C 353.898 74.371,353.152 73.471,353.004 73.333 C 352.855 73.196,352.514 72.783,352.247 72.417 C 351.979 72.050,351.589 71.613,351.380 71.446 C 351.171 71.279,351.000 71.047,351.000 70.929 C 351.000 70.812,350.775 70.544,350.500 70.333 C 350.225 70.123,350.000 69.898,350.000 69.834 C 350.000 69.696,349.211 68.774,348.167 67.692 C 347.754 67.265,346.967 66.398,346.417 65.767 C 345.867 65.135,345.004 64.196,344.500 63.680 C 343.996 63.164,342.634 61.768,341.474 60.579 C 339.622 58.681,335.937 55.119,334.384 53.727 C 333.400 52.845,331.288 50.921,330.795 50.458 C 330.527 50.206,330.244 50.000,330.165 50.000 C 330.087 50.000,329.862 49.775,329.667 49.500 C 329.471 49.225,329.222 48.999,329.114 48.999 C 329.005 48.998,328.586 48.661,328.181 48.249 C 327.777 47.837,327.380 47.500,327.298 47.500 C 327.217 47.500,326.986 47.328,326.784 47.119 C 326.582 46.909,325.629 46.109,324.667 45.341 C 323.704 44.572,322.804 43.843,322.667 43.720 C 322.364 43.449,320.577 42.107,319.599 41.417 C 319.209 41.142,318.634 40.709,318.320 40.456 C 317.495 39.789,317.512 39.802,316.375 39.001 C 315.802 38.598,315.333 38.215,315.333 38.150 C 315.333 38.086,315.127 37.952,314.875 37.853 C 314.623 37.754,313.742 37.186,312.917 36.590 C 310.137 34.581,309.418 34.084,309.116 33.960 C 308.951 33.893,308.341 33.499,307.762 33.085 C 307.182 32.672,306.668 32.333,306.619 32.333 C 306.527 32.333,304.375 30.958,304.083 30.713 C 303.992 30.636,303.617 30.431,303.250 30.259 C 302.883 30.086,302.171 29.665,301.667 29.323 C 301.162 28.980,300.412 28.527,300.000 28.315 C 299.587 28.104,298.807 27.646,298.266 27.299 C 297.725 26.951,297.181 26.667,297.057 26.667 C 296.934 26.667,296.833 26.592,296.833 26.500 C 296.833 26.408,296.714 26.333,296.567 26.333 C 296.421 26.333,296.092 26.184,295.835 26.001 C 295.579 25.819,294.592 25.267,293.643 24.776 C 291.052 23.435,287.333 21.499,287.023 21.331 C 286.873 21.250,286.450 21.058,286.083 20.904 C 285.717 20.751,284.632 20.243,283.672 19.776 C 282.713 19.308,281.850 18.914,281.756 18.900 C 281.661 18.886,280.983 18.593,280.250 18.249 C 278.709 17.527,278.538 17.453,277.417 17.023 C 276.478 16.662,274.397 15.745,273.967 15.501 C 273.811 15.413,273.439 15.298,273.140 15.245 C 272.841 15.193,272.519 15.088,272.423 15.012 C 272.328 14.936,272.063 14.817,271.833 14.747 C 271.604 14.678,271.042 14.451,270.583 14.243 C 269.413 13.712,259.478 10.334,257.667 9.851 C 256.728 9.600,253.523 8.665,252.167 8.246 C 251.479 8.034,250.617 7.809,250.250 7.746 C 249.883 7.683,247.983 7.222,246.027 6.720 C 244.070 6.219,242.364 5.850,242.235 5.899 C 242.106 5.949,242.000 5.917,242.000 5.828 C 242.000 5.739,241.774 5.667,241.498 5.667 C 241.222 5.667,240.304 5.511,239.457 5.321 C 236.651 4.692,233.768 4.149,232.417 3.995 C 231.683 3.912,230.146 3.692,229.000 3.506 C 225.088 2.871,220.419 2.317,217.667 2.162 C 216.154 2.077,213.979 1.932,212.833 1.839 C 207.293 1.392,199.714 1.270,192.917 1.519 M212.724 12.991 C 212.822 13.089,213.586 13.167,214.452 13.167 C 216.287 13.167,220.745 13.644,225.500 14.351 C 227.379 14.630,229.479 14.922,230.167 15.001 C 231.410 15.142,234.067 15.646,237.250 16.345 C 238.167 16.546,239.067 16.704,239.250 16.695 C 239.433 16.687,241.196 17.098,243.167 17.609 C 245.137 18.120,246.862 18.536,247.000 18.533 C 247.295 18.527,248.797 18.953,251.646 19.850 C 252.781 20.208,253.831 20.500,253.980 20.500 C 254.351 20.500,260.339 22.488,263.750 23.744 C 264.300 23.947,265.050 24.209,265.417 24.326 C 265.783 24.444,266.479 24.719,266.963 24.937 C 267.447 25.155,267.897 25.336,267.963 25.339 C 268.029 25.342,268.383 25.490,268.750 25.667 C 269.117 25.844,269.546 25.991,269.705 25.994 C 269.863 25.997,270.538 26.254,271.205 26.565 C 273.541 27.655,274.714 28.167,274.873 28.167 C 274.961 28.167,275.644 28.459,276.391 28.817 C 279.532 30.321,282.343 31.652,282.379 31.651 C 282.480 31.648,287.357 34.145,287.540 34.293 C 287.656 34.387,288.462 34.824,289.333 35.264 C 290.204 35.704,291.367 36.338,291.917 36.673 C 292.467 37.008,293.367 37.528,293.917 37.830 C 294.467 38.132,294.954 38.425,295.000 38.482 C 295.046 38.540,295.378 38.736,295.739 38.918 C 296.440 39.273,298.451 40.531,298.785 40.824 C 298.897 40.922,299.197 41.092,299.452 41.202 C 299.708 41.313,300.376 41.725,300.938 42.118 C 301.499 42.512,302.043 42.833,302.146 42.833 C 302.249 42.833,302.333 42.896,302.333 42.973 C 302.333 43.050,302.502 43.191,302.708 43.287 C 302.915 43.383,303.523 43.789,304.060 44.189 C 304.597 44.589,305.085 44.917,305.143 44.917 C 305.276 44.917,306.307 45.640,306.740 46.037 C 306.917 46.200,307.164 46.333,307.287 46.333 C 307.410 46.333,307.553 46.445,307.606 46.582 C 307.659 46.719,307.764 46.793,307.839 46.746 C 307.915 46.700,308.022 46.734,308.076 46.822 C 308.196 47.016,309.758 48.195,310.961 49.000 C 311.440 49.321,311.833 49.632,311.833 49.691 C 311.833 49.750,312.227 50.049,312.708 50.356 C 313.190 50.662,313.834 51.139,314.140 51.415 C 314.446 51.691,314.823 51.992,314.980 52.083 C 315.136 52.175,316.160 52.978,317.257 53.867 C 318.353 54.757,319.463 55.657,319.724 55.867 C 319.985 56.078,320.461 56.494,320.782 56.792 C 321.104 57.090,321.432 57.333,321.513 57.333 C 321.593 57.333,321.782 57.521,321.932 57.750 C 322.082 57.979,322.303 58.167,322.424 58.167 C 322.544 58.167,322.779 58.335,322.946 58.542 C 323.113 58.748,323.512 59.116,323.833 59.359 C 324.154 59.602,324.867 60.227,325.417 60.749 C 325.967 61.270,327.303 62.534,328.387 63.557 C 330.892 65.921,334.813 69.850,336.750 71.936 C 337.575 72.824,338.690 74.008,339.227 74.567 C 339.765 75.126,340.402 75.846,340.644 76.167 C 340.886 76.487,341.252 76.887,341.458 77.054 C 341.665 77.221,341.833 77.456,341.833 77.576 C 341.833 77.697,342.021 77.918,342.250 78.068 C 342.479 78.218,342.667 78.407,342.667 78.487 C 342.667 78.568,342.910 78.900,343.208 79.227 C 344.261 80.380,347.671 84.574,347.934 85.040 C 348.016 85.185,348.310 85.554,348.588 85.860 C 348.866 86.166,349.271 86.706,349.488 87.060 C 349.705 87.414,350.067 87.901,350.291 88.143 C 350.516 88.385,351.173 89.263,351.752 90.093 C 352.331 90.923,352.923 91.700,353.067 91.820 C 353.211 91.940,353.289 92.104,353.238 92.186 C 353.188 92.267,353.229 92.333,353.329 92.333 C 353.429 92.333,353.565 92.465,353.630 92.625 C 353.696 92.785,354.050 93.327,354.417 93.828 C 354.783 94.329,355.083 94.793,355.083 94.860 C 355.083 94.926,355.354 95.341,355.685 95.782 C 356.017 96.223,356.423 96.808,356.589 97.083 C 357.235 98.152,358.067 99.421,358.174 99.500 C 358.236 99.546,358.420 99.846,358.582 100.167 C 358.744 100.487,359.297 101.388,359.811 102.167 C 360.326 102.946,360.882 103.881,361.048 104.245 C 361.214 104.610,361.409 104.947,361.481 104.995 C 361.553 105.044,361.823 105.458,362.081 105.917 C 362.338 106.375,362.951 107.435,363.441 108.272 C 363.932 109.109,364.333 109.839,364.333 109.894 C 364.333 109.950,364.681 110.615,365.105 111.373 C 366.146 113.229,368.335 117.500,368.247 117.500 C 368.207 117.500,368.381 117.856,368.633 118.292 C 368.885 118.727,369.379 119.721,369.731 120.500 C 370.083 121.279,370.700 122.613,371.102 123.465 C 371.504 124.316,371.833 125.122,371.833 125.256 C 371.833 125.390,371.908 125.500,372.000 125.500 C 372.092 125.500,372.149 125.556,372.127 125.625 C 372.105 125.694,372.365 126.394,372.704 127.181 C 373.614 129.293,373.723 129.571,373.694 129.708 C 373.679 129.777,373.742 129.833,373.833 129.833 C 373.925 129.833,374.000 129.986,374.000 130.172 C 374.000 130.480,374.374 131.469,375.163 133.250 C 375.326 133.617,375.555 134.217,375.673 134.583 C 375.791 134.950,376.066 135.737,376.283 136.333 C 376.501 136.929,376.853 137.904,377.067 138.500 C 377.629 140.071,379.396 145.615,380.015 147.750 C 381.294 152.164,381.459 152.764,381.460 153.000 C 381.460 153.137,381.848 154.735,382.320 156.551 C 382.793 158.366,383.208 160.129,383.243 160.468 C 383.278 160.806,383.466 161.833,383.662 162.750 C 384.387 166.143,385.000 169.417,385.000 169.891 C 385.000 170.160,385.148 171.250,385.329 172.315 C 386.875 181.411,387.224 186.496,387.226 200.000 C 387.228 213.424,386.953 217.668,385.491 226.833 C 385.308 227.979,385.085 229.538,384.994 230.298 C 384.903 231.057,384.519 233.195,384.141 235.048 C 383.763 236.901,383.422 238.679,383.384 239.000 C 383.265 239.977,382.191 244.448,381.738 245.850 C 381.601 246.272,381.466 246.872,381.436 247.183 C 381.406 247.495,381.111 248.650,380.779 249.750 C 380.448 250.850,380.022 252.313,379.834 253.000 C 379.133 255.561,376.373 263.852,375.993 264.539 C 375.905 264.699,375.833 264.937,375.833 265.069 C 375.833 265.200,375.421 266.322,374.917 267.561 C 374.412 268.800,374.000 269.890,374.000 269.984 C 374.000 270.077,373.744 270.701,373.430 271.369 C 372.465 273.428,371.833 274.873,371.833 275.023 C 371.833 275.103,371.471 275.936,371.029 276.875 C 370.586 277.815,370.120 278.844,369.993 279.162 C 369.866 279.480,369.435 280.343,369.035 281.079 C 368.635 281.815,368.283 282.536,368.252 282.681 C 368.221 282.827,367.808 283.645,367.333 284.500 C 366.859 285.355,366.443 286.195,366.410 286.366 C 366.377 286.538,366.091 287.107,365.773 287.631 C 365.456 288.155,364.918 289.146,364.577 289.833 C 364.236 290.521,363.863 291.196,363.748 291.333 C 363.633 291.471,363.183 292.258,362.748 293.083 C 362.313 293.908,361.786 294.813,361.577 295.094 C 361.368 295.375,361.078 295.862,360.933 296.177 C 360.788 296.492,360.368 297.200,360.001 297.750 C 359.634 298.300,359.184 298.975,359.001 299.250 C 358.818 299.525,358.668 299.832,358.667 299.933 C 358.667 300.033,358.517 300.251,358.333 300.417 C 358.150 300.583,358.000 300.768,358.000 300.829 C 358.000 301.002,355.306 305.069,355.101 305.206 C 354.999 305.273,354.978 305.329,355.053 305.331 C 355.211 305.334,354.677 306.129,353.884 307.072 C 353.581 307.432,353.333 307.787,353.333 307.861 C 353.333 307.936,352.977 308.452,352.542 309.009 C 352.106 309.566,351.596 310.277,351.407 310.589 C 351.219 310.902,350.862 311.403,350.614 311.703 C 349.612 312.919,349.333 313.307,349.333 313.482 C 349.333 313.584,349.265 313.667,349.181 313.667 C 349.097 313.667,348.743 314.060,348.394 314.542 C 347.405 315.906,344.501 319.555,344.181 319.835 C 344.023 319.974,343.824 320.212,343.739 320.364 C 343.567 320.669,342.178 322.288,341.458 323.022 C 341.206 323.279,341.000 323.536,341.000 323.593 C 341.000 323.701,340.662 324.084,339.250 325.576 C 338.792 326.061,337.592 327.337,336.583 328.412 C 334.216 330.936,330.905 334.248,328.332 336.667 C 327.210 337.721,325.899 338.958,325.417 339.417 C 324.936 339.875,324.271 340.475,323.941 340.750 C 323.610 341.025,323.119 341.456,322.849 341.708 C 322.580 341.960,322.322 342.167,322.276 342.167 C 322.230 342.167,321.793 342.541,321.305 342.999 C 320.816 343.456,320.370 343.831,320.313 343.832 C 320.255 343.833,319.918 344.102,319.563 344.431 C 319.207 344.759,317.942 345.786,316.750 346.713 C 315.558 347.640,314.456 348.515,314.300 348.657 C 313.757 349.154,313.513 349.333,313.382 349.334 C 313.309 349.335,313.010 349.560,312.717 349.834 C 312.424 350.109,312.148 350.333,312.103 350.333 C 312.058 350.333,311.774 350.558,311.473 350.833 C 311.172 351.108,310.849 351.334,310.755 351.334 C 310.660 351.334,310.321 351.559,310.000 351.834 C 309.679 352.109,309.004 352.612,308.500 352.953 C 307.996 353.294,307.158 353.894,306.638 354.286 C 306.118 354.679,305.646 355.000,305.589 355.000 C 305.473 355.000,304.541 355.643,304.202 355.957 C 304.079 356.071,303.477 356.458,302.864 356.817 C 302.251 357.176,301.527 357.661,301.255 357.896 C 300.983 358.131,300.533 358.415,300.255 358.527 C 299.977 358.639,299.712 358.782,299.667 358.844 C 299.621 358.906,299.058 359.276,298.417 359.667 C 297.775 360.057,297.210 360.439,297.161 360.515 C 297.112 360.591,296.799 360.768,296.466 360.907 C 296.132 361.046,295.535 361.379,295.138 361.646 C 294.741 361.913,294.079 362.305,293.667 362.518 C 293.254 362.730,292.323 363.263,291.597 363.702 C 290.872 364.141,290.205 364.500,290.116 364.500 C 290.027 364.500,289.570 364.737,289.102 365.026 C 288.105 365.642,286.417 366.582,286.417 366.521 C 286.417 366.444,285.752 366.723,285.667 366.836 C 285.579 366.952,283.147 368.247,283.002 368.255 C 282.955 368.257,282.092 368.666,281.083 369.163 C 280.075 369.660,279.212 370.077,279.167 370.090 C 278.918 370.156,278.262 370.448,276.917 371.090 C 276.092 371.483,274.667 372.122,273.750 372.509 C 272.833 372.897,271.708 373.379,271.250 373.581 C 269.941 374.157,266.135 375.637,265.059 375.987 C 263.686 376.434,261.804 377.139,261.461 377.335 C 261.301 377.426,261.022 377.500,260.840 377.500 C 260.657 377.500,259.812 377.758,258.962 378.073 C 257.535 378.603,255.721 379.191,254.083 379.657 C 253.717 379.761,252.592 380.098,251.583 380.405 C 249.210 381.129,248.066 381.440,247.283 381.575 C 246.934 381.636,245.412 382.015,243.901 382.418 C 242.390 382.822,240.814 383.192,240.400 383.240 C 239.987 383.289,239.033 383.475,238.282 383.653 C 236.416 384.097,231.974 384.924,229.750 385.243 C 218.706 386.826,216.808 387.027,209.750 387.359 C 204.247 387.618,194.445 387.611,190.502 387.345 C 188.898 387.237,187.023 387.149,186.335 387.150 C 182.523 387.154,168.289 385.159,161.970 383.735 C 160.991 383.514,159.904 383.297,159.554 383.253 C 158.106 383.070,149.181 380.738,146.667 379.885 C 145.979 379.652,145.229 379.442,145.000 379.419 C 144.483 379.366,139.653 377.736,136.750 376.634 C 135.558 376.182,134.433 375.790,134.250 375.762 C 134.067 375.735,132.994 375.322,131.865 374.845 C 130.737 374.368,129.687 373.951,129.532 373.919 C 129.193 373.849,128.296 373.474,126.833 372.792 C 126.237 372.515,125.300 372.116,124.750 371.906 C 124.200 371.696,123.096 371.191,122.298 370.784 C 121.499 370.377,120.809 370.080,120.765 370.124 C 120.720 370.168,120.437 370.054,120.134 369.869 C 119.435 369.443,117.137 368.273,116.917 368.230 C 116.825 368.212,116.052 367.816,115.200 367.349 C 114.347 366.882,113.571 366.500,113.475 366.500 C 113.283 366.500,112.390 366.031,112.000 365.724 C 111.862 365.616,111.037 365.171,110.167 364.735 C 109.296 364.299,108.546 363.896,108.500 363.838 C 108.372 363.678,106.830 362.792,106.088 362.453 C 105.724 362.286,105.199 361.977,104.921 361.766 C 104.644 361.554,104.079 361.210,103.667 361.001 C 102.913 360.618,102.587 360.413,97.446 357.072 C 95.904 356.070,94.407 355.111,94.119 354.942 C 93.832 354.773,93.518 354.538,93.423 354.421 C 93.328 354.304,92.669 353.822,91.958 353.349 C 91.248 352.877,90.423 352.278,90.125 352.018 C 89.827 351.759,89.358 351.431,89.083 351.290 C 88.808 351.149,88.234 350.726,87.808 350.350 C 87.381 349.974,86.950 349.667,86.849 349.667 C 86.749 349.667,86.667 349.592,86.667 349.500 C 86.667 349.408,86.571 349.333,86.454 349.333 C 86.337 349.333,86.124 349.202,85.982 349.042 C 85.840 348.881,84.757 348.000,83.576 347.083 C 82.395 346.167,81.214 345.210,80.952 344.958 C 80.689 344.706,80.427 344.500,80.368 344.500 C 80.310 344.500,80.109 344.355,79.923 344.178 C 79.119 343.416,78.647 343.000,78.589 343.000 C 78.554 343.000,78.303 342.794,78.031 342.542 C 77.759 342.290,77.102 341.708,76.570 341.250 C 74.261 339.261,69.495 334.760,66.817 332.040 C 65.222 330.419,63.448 328.617,62.875 328.036 C 62.302 327.454,61.833 326.932,61.833 326.876 C 61.833 326.820,61.258 326.169,60.556 325.429 C 58.202 322.950,57.945 322.667,58.056 322.667 C 58.117 322.667,58.035 322.529,57.875 322.360 C 57.715 322.192,57.267 321.685,56.880 321.235 C 56.492 320.785,56.024 320.259,55.838 320.066 C 55.652 319.873,55.500 319.629,55.500 319.524 C 55.500 319.419,55.440 319.333,55.366 319.333 C 55.292 319.333,54.636 318.583,53.908 317.667 C 53.180 316.750,52.528 316.000,52.459 316.000 C 52.390 316.000,52.333 315.917,52.333 315.816 C 52.333 315.642,51.583 314.595,51.009 313.966 C 50.542 313.455,50.333 313.182,50.333 313.083 C 50.333 313.029,49.958 312.535,49.500 311.984 C 49.042 311.433,48.667 310.896,48.667 310.791 C 48.667 310.685,48.452 310.371,48.189 310.091 C 47.926 309.812,47.198 308.833,46.570 307.917 C 45.943 307.000,45.298 306.107,45.137 305.933 C 44.976 305.759,44.879 305.560,44.921 305.492 C 44.964 305.424,44.886 305.325,44.749 305.273 C 44.612 305.220,44.500 305.069,44.500 304.936 C 44.500 304.803,44.439 304.669,44.365 304.639 C 44.207 304.574,43.167 303.075,43.167 302.912 C 43.167 302.851,42.766 302.227,42.277 301.525 C 41.787 300.824,41.206 299.912,40.985 299.500 C 40.764 299.087,40.539 298.712,40.486 298.667 C 40.284 298.495,39.000 296.427,39.000 296.274 C 39.000 296.187,38.824 295.883,38.608 295.599 C 38.393 295.315,37.894 294.483,37.501 293.750 C 37.107 293.017,36.547 292.042,36.256 291.583 C 35.965 291.125,35.637 290.492,35.528 290.177 C 35.419 289.863,35.228 289.488,35.105 289.344 C 34.911 289.119,34.466 288.347,33.560 286.667 C 33.436 286.438,33.335 286.207,33.334 286.154 C 33.334 286.101,32.989 285.426,32.569 284.654 C 32.148 283.882,31.787 283.175,31.767 283.083 C 31.747 282.992,31.324 282.092,30.828 281.083 C 30.332 280.075,29.924 279.199,29.921 279.137 C 29.919 279.075,29.529 278.213,29.056 277.221 C 28.582 276.228,27.878 274.667,27.492 273.750 C 27.105 272.833,26.611 271.713,26.394 271.260 C 26.177 270.808,25.999 270.358,25.997 270.260 C 25.995 270.163,25.652 269.258,25.235 268.250 C 24.818 267.242,24.229 265.704,23.926 264.833 C 22.023 259.363,20.730 255.478,20.349 254.083 C 20.174 253.442,19.868 252.392,19.671 251.750 C 19.012 249.615,18.648 248.274,18.428 247.173 C 18.308 246.574,17.891 244.883,17.502 243.417 C 17.113 241.950,16.766 240.450,16.731 240.083 C 16.696 239.717,16.412 238.254,16.100 236.833 C 14.892 231.339,13.167 219.187,13.167 216.171 C 13.167 215.355,13.102 214.646,13.023 214.598 C 12.469 214.255,12.468 185.912,13.023 185.569 C 13.100 185.521,13.159 184.905,13.153 184.199 C 13.141 182.716,13.475 179.647,14.164 174.917 C 14.431 173.083,14.733 170.983,14.835 170.250 C 15.145 168.016,15.511 166.039,16.114 163.333 C 16.430 161.912,16.690 160.563,16.691 160.333 C 16.691 160.104,17.071 158.454,17.535 156.667 C 17.999 154.879,18.436 153.079,18.505 152.667 C 18.646 151.834,18.740 151.501,19.674 148.500 C 20.031 147.354,20.397 146.076,20.488 145.659 C 20.579 145.242,21.001 143.929,21.426 142.742 C 21.851 141.555,22.297 140.208,22.417 139.750 C 22.636 138.908,23.046 137.695,23.317 137.083 C 23.701 136.216,24.167 134.934,24.167 134.745 C 24.167 134.555,24.710 133.196,25.498 131.417 C 25.661 131.050,25.846 130.563,25.910 130.333 C 26.070 129.764,26.894 127.765,27.388 126.750 C 27.610 126.292,27.908 125.579,28.049 125.167 C 28.190 124.754,28.650 123.742,29.071 122.917 C 29.492 122.092,29.868 121.267,29.907 121.083 C 29.946 120.900,30.392 119.944,30.898 118.958 C 31.403 117.973,31.781 117.167,31.738 117.167 C 31.625 117.167,33.025 114.629,33.285 114.363 C 33.403 114.242,33.506 114.092,33.513 114.030 C 33.565 113.567,33.717 113.222,34.334 112.165 C 34.721 111.504,35.300 110.427,35.623 109.773 C 35.945 109.119,36.262 108.546,36.326 108.500 C 36.390 108.454,36.805 107.742,37.246 106.917 C 37.688 106.092,38.263 105.103,38.525 104.720 C 38.786 104.337,39.000 103.970,39.000 103.904 C 39.000 103.769,40.037 102.133,40.524 101.500 C 40.700 101.271,40.991 100.774,41.170 100.397 C 41.349 100.020,41.609 99.617,41.748 99.502 C 41.887 99.387,42.000 99.222,42.000 99.135 C 42.000 99.049,42.188 98.732,42.417 98.431 C 42.646 98.131,42.833 97.805,42.833 97.706 C 42.833 97.608,42.890 97.503,42.959 97.472 C 43.028 97.442,43.419 96.901,43.826 96.270 C 44.234 95.639,44.670 95.020,44.796 94.895 C 44.921 94.769,44.976 94.667,44.917 94.667 C 44.791 94.667,45.396 93.796,45.903 93.249 C 46.100 93.036,46.371 92.649,46.504 92.389 C 46.637 92.129,47.129 91.429,47.596 90.833 C 48.063 90.237,48.529 89.592,48.632 89.399 C 48.735 89.206,49.066 88.742,49.368 88.368 C 49.670 87.993,50.104 87.419,50.333 87.092 C 50.563 86.765,50.965 86.254,51.229 85.957 C 51.492 85.660,51.829 85.228,51.979 84.997 C 52.502 84.186,55.385 80.667,55.525 80.667 C 55.603 80.667,55.667 80.598,55.667 80.514 C 55.667 80.351,56.128 79.759,56.875 78.963 C 57.127 78.694,57.333 78.411,57.333 78.333 C 57.333 78.255,57.521 78.043,57.750 77.863 C 57.979 77.683,58.167 77.481,58.167 77.415 C 58.167 77.349,58.424 77.022,58.739 76.689 C 60.126 75.221,60.667 74.622,60.667 74.554 C 60.667 74.514,61.023 74.117,61.458 73.671 C 61.894 73.226,62.925 72.142,63.750 71.263 C 65.326 69.583,68.938 65.979,71.333 63.695 C 72.112 62.952,73.140 61.967,73.616 61.506 C 74.092 61.044,74.514 60.667,74.554 60.667 C 74.595 60.667,74.927 60.385,75.294 60.042 C 75.660 59.698,76.268 59.154,76.644 58.833 C 78.014 57.665,78.425 57.308,78.833 56.926 C 79.063 56.712,79.569 56.331,79.958 56.080 C 80.348 55.828,80.667 55.568,80.667 55.502 C 80.667 55.436,81.447 54.772,82.401 54.027 C 83.356 53.283,84.250 52.559,84.390 52.420 C 84.529 52.281,84.699 52.167,84.767 52.167 C 84.835 52.167,85.328 51.787,85.862 51.322 C 86.396 50.857,86.836 50.539,86.838 50.614 C 86.841 50.689,86.920 50.619,87.013 50.458 C 87.107 50.298,87.255 50.167,87.343 50.167 C 87.431 50.167,87.708 49.985,87.960 49.764 C 88.211 49.543,89.129 48.854,90.000 48.235 C 90.871 47.615,91.643 47.009,91.717 46.887 C 91.790 46.766,91.926 46.667,92.020 46.667 C 92.206 46.667,93.607 45.740,93.990 45.363 C 94.122 45.233,94.441 45.054,94.698 44.964 C 94.956 44.874,95.167 44.733,95.167 44.650 C 95.167 44.568,95.279 44.500,95.417 44.500 C 95.554 44.500,95.667 44.444,95.668 44.375 C 95.668 44.306,96.080 43.987,96.583 43.667 C 97.087 43.346,97.499 43.035,97.499 42.976 C 97.500 42.918,97.670 42.827,97.878 42.775 C 98.086 42.722,98.409 42.545,98.596 42.381 C 99.000 42.026,99.368 41.787,100.217 41.327 C 100.565 41.139,101.454 40.576,102.193 40.076 C 102.931 39.576,103.631 39.167,103.747 39.167 C 103.864 39.167,104.053 39.054,104.167 38.917 C 104.281 38.779,104.471 38.667,104.590 38.667 C 104.708 38.667,104.831 38.606,104.861 38.532 C 104.915 38.401,105.654 37.967,107.750 36.832 C 108.300 36.534,108.862 36.197,109.000 36.083 C 109.138 35.968,109.587 35.719,110.000 35.530 C 110.848 35.141,112.818 34.052,113.108 33.812 C 113.213 33.725,113.445 33.626,113.623 33.592 C 113.801 33.558,114.650 33.139,115.510 32.661 C 116.370 32.184,117.151 31.781,117.245 31.766 C 117.339 31.751,118.317 31.303,119.417 30.770 C 120.517 30.238,121.792 29.631,122.250 29.421 C 122.708 29.212,123.476 28.844,123.955 28.604 C 124.435 28.363,124.904 28.167,124.999 28.167 C 125.178 28.167,125.826 27.887,128.131 26.813 C 128.891 26.459,129.716 26.125,129.965 26.069 C 130.213 26.014,130.642 25.870,130.917 25.750 C 132.625 25.004,133.723 24.570,134.750 24.237 C 135.392 24.029,136.517 23.620,137.250 23.328 C 137.983 23.037,138.958 22.693,139.417 22.565 C 139.875 22.437,141.487 21.924,143.000 21.426 C 146.677 20.214,152.119 18.623,152.792 18.562 C 153.090 18.536,153.840 18.366,154.458 18.185 C 161.228 16.206,179.981 13.167,185.425 13.167 C 186.255 13.167,187.006 13.094,187.096 13.004 C 187.442 12.658,212.379 12.645,212.724 12.991 M196.750 50.992 C 194.925 51.109,193.218 51.514,191.667 52.199 C 189.876 52.989,188.548 53.697,188.130 54.084 C 187.883 54.313,187.607 54.500,187.517 54.500 C 187.316 54.500,184.335 57.406,184.330 57.606 C 184.328 57.685,184.063 58.050,183.739 58.417 C 183.416 58.783,182.885 59.646,182.558 60.333 C 182.232 61.021,181.900 61.709,181.822 61.863 C 180.519 64.410,180.329 69.541,181.411 72.948 C 181.636 73.656,181.783 74.272,181.738 74.317 C 181.554 74.502,178.330 70.973,177.414 69.583 C 176.870 68.758,176.367 68.058,176.296 68.028 C 176.225 67.997,176.167 67.892,176.167 67.795 C 176.167 67.191,171.185 62.048,169.433 60.843 C 169.241 60.711,169.046 60.561,169.000 60.510 C 168.767 60.249,166.813 58.833,166.687 58.833 C 166.607 58.833,166.446 58.719,166.330 58.579 C 166.214 58.440,166.083 58.361,166.039 58.405 C 165.995 58.450,165.537 58.268,165.021 58.002 C 161.588 56.229,155.194 56.168,151.083 57.868 C 150.442 58.134,149.775 58.382,149.602 58.420 C 149.428 58.459,148.759 58.811,148.114 59.203 C 147.470 59.596,146.725 60.041,146.460 60.193 C 146.195 60.345,145.763 60.645,145.500 60.860 C 145.237 61.074,144.814 61.400,144.560 61.583 C 143.871 62.081,142.933 62.890,142.792 63.109 C 142.724 63.214,142.293 63.571,141.834 63.900 C 141.375 64.230,141.000 64.600,141.000 64.723 C 141.000 64.846,140.698 65.226,140.328 65.568 C 139.958 65.910,139.452 66.504,139.203 66.887 C 138.954 67.270,138.599 67.751,138.414 67.956 C 138.229 68.161,137.931 68.611,137.751 68.956 C 137.571 69.301,137.156 70.033,136.828 70.583 C 135.607 72.636,134.905 74.751,134.351 78.044 C 134.155 79.214,133.852 80.489,133.679 80.877 C 133.507 81.266,133.228 81.921,133.061 82.333 C 132.893 82.746,132.511 83.522,132.211 84.058 C 131.912 84.594,131.667 85.122,131.667 85.231 C 131.667 85.471,129.145 89.908,128.341 91.083 C 127.810 91.860,127.024 92.825,125.428 94.662 C 124.582 95.637,116.919 103.268,116.607 103.447 C 116.375 103.580,114.662 105.075,113.578 106.089 C 113.281 106.368,112.673 106.890,112.227 107.249 C 111.781 107.608,111.186 108.131,110.905 108.410 C 110.623 108.688,110.150 109.104,109.853 109.333 C 109.557 109.563,109.037 109.994,108.699 110.292 C 108.360 110.589,108.032 110.833,107.968 110.833 C 107.905 110.833,107.493 111.139,107.052 111.513 C 106.611 111.888,106.047 112.366,105.798 112.576 C 105.550 112.786,105.306 112.917,105.257 112.868 C 105.207 112.818,105.167 112.865,105.167 112.972 C 105.167 113.079,105.084 113.167,104.982 113.167 C 104.809 113.167,103.708 113.965,103.173 114.479 C 103.039 114.608,102.691 114.813,102.398 114.935 C 102.106 115.057,101.765 115.257,101.642 115.378 C 101.342 115.672,99.884 116.667,99.752 116.667 C 99.695 116.667,99.196 116.974,98.644 117.349 C 98.092 117.724,97.327 118.177,96.945 118.356 C 96.563 118.535,95.575 119.086,94.750 119.581 C 93.925 120.075,93.166 120.484,93.064 120.490 C 92.961 120.495,92.099 120.903,91.147 121.395 C 89.437 122.280,89.316 122.333,89.012 122.333 C 88.927 122.333,88.758 122.429,88.637 122.545 C 88.516 122.662,88.023 123.043,87.542 123.393 C 87.060 123.742,86.667 124.097,86.667 124.181 C 86.667 124.265,86.562 124.333,86.435 124.333 C 85.891 124.333,82.754 128.155,82.906 128.632 C 82.999 128.925,84.000 129.628,84.000 129.400 C 84.000 129.335,84.131 129.392,84.292 129.528 C 84.566 129.759,85.961 130.395,87.083 130.800 C 87.358 130.899,88.708 131.252,90.083 131.583 C 98.331 133.570,108.171 133.531,112.804 131.492 C 113.200 131.317,113.575 131.192,113.637 131.212 C 113.734 131.245,115.438 130.435,118.583 128.859 C 119.808 128.246,120.052 128.108,120.376 127.848 C 120.537 127.719,120.708 127.652,120.755 127.700 C 120.803 127.747,120.306 128.177,119.651 128.655 C 118.997 129.132,118.376 129.594,118.272 129.680 C 118.168 129.766,117.821 130.060,117.500 130.332 C 117.179 130.605,116.823 130.829,116.708 130.831 C 116.594 130.832,116.500 130.901,116.500 130.984 C 116.500 131.066,116.256 131.289,115.958 131.480 C 115.660 131.670,115.268 131.921,115.087 132.038 C 114.906 132.155,114.681 132.335,114.587 132.440 C 114.493 132.544,114.042 132.905,113.583 133.243 C 109.688 136.112,107.494 138.577,107.442 140.142 L 107.417 140.917 110.595 140.889 C 114.240 140.857,113.267 141.073,121.917 138.378 C 122.375 138.235,123.126 137.947,123.586 137.738 C 124.046 137.530,124.834 137.200,125.336 137.006 C 125.839 136.812,127.131 136.202,128.208 135.651 C 129.950 134.761,130.642 134.564,129.917 135.167 C 129.779 135.281,129.667 135.477,129.667 135.604 C 129.667 135.730,129.598 135.833,129.514 135.833 C 129.429 135.833,129.197 136.098,128.997 136.421 C 128.797 136.744,128.543 137.101,128.433 137.213 C 128.226 137.422,127.983 137.920,127.906 138.296 C 127.881 138.412,127.704 138.775,127.512 139.101 C 127.034 139.911,126.789 141.103,126.919 141.983 L 127.028 142.717 129.084 142.612 C 131.626 142.484,133.323 142.143,135.164 141.391 C 135.945 141.072,136.723 140.781,136.893 140.745 C 137.214 140.676,137.397 140.594,140.366 139.182 C 141.346 138.715,142.183 138.333,142.224 138.333 C 142.395 138.333,145.484 136.383,146.333 135.739 C 146.837 135.357,147.321 135.016,147.407 134.981 C 147.594 134.905,148.742 133.811,150.583 131.955 C 151.317 131.216,152.310 130.215,152.792 129.730 C 153.273 129.245,153.667 128.784,153.667 128.705 C 153.667 128.627,153.893 128.345,154.170 128.080 L 154.673 127.598 154.481 128.174 C 154.375 128.491,154.223 128.821,154.144 128.908 C 154.065 128.995,154.000 129.195,154.000 129.353 C 154.000 129.600,153.640 130.495,152.531 133.000 C 152.389 133.321,152.255 133.733,152.234 133.917 C 152.212 134.100,151.878 135.000,151.493 135.917 C 150.718 137.757,150.389 138.970,150.550 139.391 C 150.829 140.118,153.599 139.154,155.462 137.681 C 155.936 137.306,156.361 137.000,156.406 137.000 C 156.738 137.000,160.833 132.707,160.833 132.359 C 160.833 132.253,160.892 132.167,160.964 132.167 C 161.036 132.167,161.229 131.940,161.393 131.662 C 161.557 131.385,161.874 130.960,162.099 130.717 C 162.323 130.475,162.932 129.652,163.450 128.888 C 163.969 128.125,164.446 127.500,164.510 127.500 C 164.574 127.500,164.826 127.106,165.070 126.624 C 165.314 126.143,165.660 125.562,165.840 125.333 C 166.314 124.731,168.524 121.197,168.917 120.415 C 169.100 120.049,169.288 119.712,169.335 119.667 C 169.514 119.491,170.645 117.561,170.696 117.344 C 170.726 117.219,171.152 116.397,171.643 115.517 C 172.134 114.637,172.553 113.767,172.575 113.583 C 172.596 113.400,172.768 112.950,172.956 112.583 C 173.434 111.650,174.335 109.288,174.705 108.000 C 174.876 107.404,175.128 106.542,175.264 106.083 C 175.828 104.184,176.484 101.554,176.470 101.246 C 176.420 100.180,177.387 96.212,177.870 95.500 C 178.653 94.347,180.755 92.395,182.417 91.279 C 183.242 90.724,184.016 90.172,184.137 90.052 C 184.258 89.932,184.567 89.833,184.823 89.833 C 185.216 89.833,186.656 89.620,188.699 89.258 L 189.147 89.179 188.926 89.881 C 188.532 91.128,187.669 93.055,187.007 94.167 C 185.665 96.419,185.667 98.617,187.013 101.455 C 187.481 102.442,187.890 103.377,187.921 103.531 C 187.952 103.686,188.209 104.315,188.494 104.929 C 189.441 106.976,189.658 107.569,190.231 109.675 C 191.347 113.782,191.805 116.502,191.857 119.333 C 191.951 124.501,191.669 129.430,191.084 132.833 C 190.854 134.175,189.992 140.059,189.656 142.583 C 189.494 143.793,189.292 144.732,188.480 148.031 C 187.854 150.575,187.840 153.287,188.402 162.917 C 188.627 166.767,189.005 173.479,189.241 177.833 C 189.477 182.188,189.860 189.162,190.091 193.333 C 190.323 197.504,190.510 201.009,190.506 201.121 C 190.498 201.399,190.024 201.302,186.167 200.233 C 184.379 199.738,182.818 199.332,182.698 199.333 C 182.577 199.333,181.414 199.027,180.114 198.652 C 177.944 198.027,176.620 197.668,173.417 196.836 C 172.775 196.669,171.325 196.262,170.195 195.933 C 169.065 195.603,168.046 195.333,167.932 195.333 C 167.817 195.333,166.717 195.026,165.487 194.651 C 162.704 193.802,162.148 193.648,161.833 193.639 C 161.696 193.635,161.096 193.484,160.500 193.304 C 157.543 192.409,155.374 191.796,154.986 191.745 C 154.505 191.683,152.318 191.010,150.667 190.416 C 149.492 189.993,149.138 189.888,148.500 189.769 C 148.035 189.682,146.895 189.279,144.950 188.513 C 144.235 188.232,143.446 187.966,143.197 187.922 C 142.947 187.878,142.010 187.544,141.115 187.179 C 140.219 186.815,139.020 186.354,138.451 186.154 C 137.882 185.955,136.817 185.508,136.083 185.162 C 135.350 184.815,134.570 184.478,134.349 184.413 C 134.129 184.348,132.955 183.816,131.741 183.231 C 130.527 182.645,129.496 182.167,129.449 182.167 C 129.375 182.167,128.884 181.895,126.707 180.648 C 126.409 180.478,126.121 180.346,126.067 180.356 C 125.498 180.463,121.204 176.638,120.214 175.142 C 119.980 174.789,119.724 174.500,119.645 174.500 C 119.565 174.500,119.500 174.399,119.500 174.275 C 119.500 174.151,119.283 173.750,119.018 173.384 C 118.565 172.759,117.999 171.771,117.989 171.589 C 117.986 171.544,117.825 171.149,117.629 170.712 C 117.158 169.656,117.160 168.545,117.635 167.878 C 117.836 167.596,118.000 167.288,118.000 167.194 C 118.000 167.100,118.150 166.975,118.333 166.917 C 118.517 166.858,118.667 166.751,118.667 166.677 C 118.667 166.335,120.205 166.113,121.310 166.295 C 123.591 166.671,124.501 166.900,127.750 167.914 C 131.131 168.969,131.650 169.098,134.917 169.691 C 139.669 170.555,144.916 169.722,149.167 167.429 C 149.946 167.009,150.695 166.613,150.831 166.550 C 150.966 166.486,151.529 166.119,152.081 165.734 C 152.632 165.348,153.139 165.023,153.207 165.012 C 154.111 164.859,154.015 164.319,152.875 163.138 C 149.133 159.262,147.042 157.383,144.750 155.835 C 144.292 155.525,143.879 155.219,143.833 155.155 C 143.551 154.760,138.124 152.098,137.951 152.271 C 137.911 152.311,137.211 152.139,136.397 151.888 C 134.307 151.243,127.836 151.200,124.500 151.809 C 123.354 152.018,122.229 152.215,122.000 152.245 C 120.583 152.434,117.408 153.571,116.083 154.364 C 115.808 154.529,115.396 154.758,115.167 154.872 C 114.938 154.987,114.600 155.219,114.417 155.388 C 114.233 155.557,113.892 155.795,113.659 155.917 C 112.710 156.415,109.000 160.435,109.000 160.965 C 109.000 161.063,108.895 161.248,108.766 161.377 C 108.464 161.679,107.314 163.961,107.240 164.407 C 107.208 164.596,106.990 165.382,106.755 166.154 C 105.914 168.915,105.765 172.847,106.410 175.250 C 107.028 177.553,107.587 179.148,108.134 180.167 C 108.453 180.762,108.908 181.610,109.145 182.051 C 109.382 182.491,109.689 182.978,109.829 183.134 C 109.969 183.289,110.308 183.754,110.583 184.167 C 110.858 184.579,111.158 185.001,111.250 185.104 C 111.342 185.207,111.717 185.652,112.083 186.092 C 112.897 187.069,115.343 189.507,116.422 190.417 C 116.858 190.783,117.329 191.196,117.470 191.333 C 117.611 191.471,117.759 191.556,117.798 191.522 C 117.838 191.489,118.118 191.695,118.421 191.981 C 118.723 192.266,119.053 192.500,119.152 192.500 C 119.252 192.500,119.333 192.566,119.333 192.646 C 119.333 192.727,119.558 192.886,119.833 193.000 C 120.108 193.114,120.333 193.254,120.334 193.312 C 120.334 193.370,120.690 193.636,121.125 193.903 C 121.561 194.171,122.077 194.532,122.274 194.707 C 122.470 194.881,122.732 195.041,122.857 195.062 C 123.110 195.104,123.871 195.496,124.000 195.650 C 124.324 196.039,133.580 200.574,134.384 200.738 C 134.585 200.779,135.867 201.267,137.232 201.823 C 138.598 202.379,139.813 202.833,139.932 202.833 C 140.052 202.833,141.260 203.233,142.617 203.722 C 143.973 204.211,145.533 204.728,146.083 204.871 C 146.633 205.014,147.871 205.396,148.833 205.721 C 149.796 206.046,151.896 206.724,153.500 207.228 C 155.104 207.732,157.879 208.608,159.667 209.176 C 161.454 209.743,163.217 210.268,163.583 210.341 C 163.950 210.415,165.320 210.818,166.629 211.237 C 167.937 211.657,169.142 212.000,169.306 212.000 C 169.470 212.000,170.950 212.421,172.594 212.935 C 174.238 213.449,175.764 213.871,175.984 213.872 C 176.395 213.875,176.102 214.155,175.609 214.230 C 175.335 214.272,169.977 216.924,168.983 217.510 C 168.526 217.780,168.081 218.000,167.995 218.000 C 167.838 218.000,166.592 218.714,165.500 219.430 C 165.179 219.640,164.804 219.836,164.667 219.864 C 164.529 219.893,164.379 219.957,164.333 220.005 C 164.287 220.054,163.688 220.423,163.000 220.825 C 162.313 221.227,161.712 221.608,161.667 221.672 C 161.621 221.736,161.415 221.841,161.209 221.905 C 161.004 221.969,160.733 222.124,160.608 222.249 C 160.483 222.375,159.901 222.781,159.315 223.152 C 158.729 223.523,158.175 223.885,158.083 223.956 C 157.992 224.028,157.579 224.344,157.167 224.659 C 156.754 224.974,156.295 225.348,156.147 225.491 C 155.999 225.633,155.704 225.862,155.491 226.000 C 155.043 226.290,154.362 226.882,152.997 228.167 C 152.461 228.671,151.793 229.261,151.511 229.477 C 151.230 229.694,151.000 229.943,151.000 230.031 C 151.000 230.119,150.635 230.542,150.189 230.970 C 149.098 232.018,147.348 234.222,146.228 235.958 C 145.724 236.740,145.204 237.487,145.072 237.618 C 144.941 237.750,144.833 237.914,144.833 237.983 C 144.833 238.052,144.500 238.728,144.092 239.484 C 143.452 240.671,143.036 241.633,142.897 242.250 C 142.877 242.342,142.704 243.017,142.515 243.750 C 141.858 246.286,141.898 249.287,142.613 251.217 C 142.756 251.602,142.887 252.034,142.903 252.178 C 143.033 253.291,145.167 255.925,146.815 257.005 C 147.513 257.462,148.162 257.891,148.258 257.959 C 150.362 259.447,156.753 260.997,160.804 261.002 L 162.583 261.005 161.333 261.683 C 160.646 262.056,159.933 262.497,159.750 262.662 C 159.567 262.827,159.261 263.009,159.071 263.066 C 158.881 263.124,158.581 263.303,158.404 263.464 C 158.228 263.626,157.596 264.127,157.000 264.577 C 149.796 270.024,146.840 276.960,149.504 282.167 C 150.413 283.943,151.583 285.571,152.659 286.557 C 152.975 286.846,153.537 287.371,153.909 287.722 C 154.280 288.073,154.790 288.469,155.042 288.601 C 155.294 288.734,155.500 288.915,155.500 289.004 C 155.500 289.094,155.566 289.167,155.648 289.167 C 155.729 289.167,156.235 289.459,156.773 289.816 C 157.898 290.564,162.278 292.833,162.386 292.725 C 162.426 292.685,162.899 292.850,163.438 293.092 C 164.742 293.677,167.293 294.672,167.917 294.838 C 168.192 294.912,169.157 295.243,170.062 295.574 C 171.773 296.200,173.042 296.573,177.250 297.687 C 179.484 298.278,180.069 298.394,181.236 298.477 C 181.521 298.498,181.477 298.750,181.189 298.750 C 180.989 298.750,177.303 302.068,176.167 303.271 C 174.518 305.017,172.946 306.803,172.773 307.126 C 172.687 307.286,172.272 307.826,171.850 308.325 C 171.429 308.825,171.083 309.290,171.083 309.359 C 171.083 309.428,170.814 309.807,170.486 310.201 C 170.157 310.594,169.790 311.104,169.669 311.333 C 169.549 311.563,169.402 311.787,169.344 311.833 C 169.153 311.983,167.167 315.165,167.167 315.321 C 167.167 315.404,167.106 315.497,167.033 315.528 C 166.882 315.591,165.878 317.222,165.181 318.540 C 164.925 319.022,164.177 320.429,163.519 321.667 C 162.201 324.142,160.945 326.720,159.420 330.083 C 159.212 330.542,158.820 331.367,158.549 331.917 C 158.278 332.468,158.004 333.127,157.940 333.383 C 157.876 333.640,157.496 334.539,157.096 335.383 C 156.697 336.226,156.282 337.194,156.175 337.533 C 156.068 337.872,155.760 338.604,155.490 339.160 C 155.221 339.717,155.000 340.211,155.000 340.260 C 155.000 340.308,154.775 340.828,154.500 341.417 C 154.225 342.005,154.000 342.555,154.000 342.639 C 154.000 342.722,153.845 343.142,153.655 343.570 C 153.220 344.554,153.314 344.890,153.845 344.250 C 154.068 343.982,154.494 343.517,154.792 343.217 C 155.090 342.918,155.333 342.613,155.333 342.540 C 155.333 342.467,155.465 342.293,155.625 342.152 C 155.933 341.883,156.838 340.839,157.446 340.053 C 157.646 339.795,157.950 339.433,158.121 339.250 C 158.610 338.728,161.064 335.790,161.338 335.399 C 161.473 335.205,161.883 334.707,162.250 334.291 C 162.617 333.875,163.067 333.328,163.250 333.076 C 163.433 332.823,163.901 332.271,164.290 331.850 C 164.678 331.428,164.997 331.039,164.998 330.985 C 164.999 330.931,165.411 330.444,165.914 329.902 C 166.417 329.360,166.829 328.866,166.831 328.804 C 166.832 328.741,166.930 328.591,167.048 328.470 C 167.166 328.349,168.230 327.125,169.412 325.750 C 170.594 324.375,171.807 322.987,172.106 322.667 C 172.405 322.346,173.097 321.596,173.643 321.000 C 175.602 318.861,179.244 315.167,179.393 315.167 C 179.476 315.167,179.918 314.755,180.375 314.252 C 180.831 313.749,181.268 313.376,181.344 313.423 C 181.421 313.471,181.645 313.291,181.842 313.023 C 182.040 312.756,182.886 311.985,183.722 311.310 C 184.558 310.636,185.376 309.952,185.538 309.792 C 185.700 309.631,185.834 309.556,185.836 309.625 C 185.837 309.694,185.894 309.674,185.961 309.581 C 186.186 309.270,188.604 307.500,188.803 307.500 C 188.911 307.500,189.000 307.425,189.000 307.333 C 189.000 307.242,189.112 307.167,189.250 307.167 C 189.387 307.167,189.500 307.109,189.500 307.039 C 189.500 306.891,191.312 305.777,191.633 305.727 C 191.752 305.709,191.962 305.600,192.100 305.487 C 192.446 305.199,195.027 303.971,195.110 304.055 C 195.147 304.092,195.246 305.501,195.330 307.186 C 195.414 308.872,195.561 311.075,195.656 312.084 C 196.168 317.474,196.686 323.693,196.636 323.841 C 196.605 323.935,195.720 324.303,194.669 324.659 C 193.619 325.015,192.732 325.387,192.699 325.486 C 192.666 325.585,192.565 325.667,192.475 325.667 C 192.077 325.667,190.206 327.300,189.153 328.567 C 186.674 331.548,185.905 337.543,187.538 341.159 C 187.722 341.568,187.890 341.980,187.911 342.076 C 188.156 343.201,191.893 347.644,192.203 347.180 C 192.229 347.141,192.550 347.295,192.917 347.522 C 197.373 350.279,205.140 349.615,208.965 346.152 C 210.203 345.032,211.938 342.724,212.086 342.000 C 212.096 341.954,212.316 341.279,212.576 340.500 C 214.062 336.044,212.493 329.487,209.355 327.038 C 207.455 325.555,205.446 324.526,203.879 324.232 C 203.135 324.092,203.136 324.096,203.327 322.051 C 204.017 314.641,204.667 306.577,204.667 305.405 C 204.667 304.632,204.716 304.000,204.777 304.000 C 205.405 304.000,212.323 308.035,212.912 308.744 C 213.006 308.857,213.383 309.166,213.750 309.430 C 214.779 310.171,217.815 312.667,217.957 312.888 C 218.026 312.997,218.358 313.290,218.693 313.540 C 219.521 314.156,225.583 320.128,225.583 320.326 C 225.583 320.414,226.015 320.869,226.542 321.339 C 227.069 321.809,227.500 322.300,227.500 322.430 C 227.500 322.560,227.570 322.667,227.656 322.667 C 227.742 322.667,228.238 323.173,228.758 323.792 C 229.278 324.410,230.052 325.292,230.479 325.750 C 230.905 326.208,231.551 326.958,231.913 327.417 C 232.275 327.875,232.687 328.362,232.828 328.500 C 232.969 328.637,233.382 329.125,233.745 329.583 C 234.108 330.042,234.501 330.477,234.619 330.550 C 234.737 330.623,234.942 330.886,235.076 331.133 C 235.209 331.381,235.696 331.996,236.157 332.500 C 236.618 333.004,236.997 333.469,236.998 333.533 C 236.999 333.597,237.197 333.860,237.438 334.116 C 237.908 334.619,240.284 337.488,241.050 338.479 C 241.307 338.812,241.850 339.432,242.258 339.858 C 242.666 340.284,243.000 340.689,243.000 340.757 C 243.000 340.825,243.223 341.114,243.496 341.399 C 244.586 342.535,245.763 343.885,245.997 344.265 C 246.526 345.126,246.808 344.764,246.333 343.833 C 246.150 343.474,246.000 343.072,246.000 342.940 C 246.000 342.808,245.708 342.074,245.352 341.308 C 244.607 339.708,244.354 339.125,243.554 337.167 C 243.235 336.387,242.791 335.384,242.566 334.936 C 242.342 334.488,242.133 334.000,242.104 333.852 C 242.022 333.444,241.860 333.064,240.978 331.216 C 240.532 330.280,240.167 329.454,240.167 329.380 C 240.167 329.181,235.653 320.236,235.031 319.201 C 234.739 318.716,234.500 318.215,234.500 318.088 C 234.500 317.961,234.403 317.758,234.284 317.637 C 234.166 317.516,233.778 316.929,233.422 316.333 C 232.043 314.024,230.384 311.516,229.217 309.979 C 228.548 309.096,228.000 308.290,228.000 308.187 C 228.000 308.084,227.923 308.000,227.830 308.000 C 227.736 308.000,227.455 307.680,227.205 307.289 C 226.099 305.561,219.157 298.667,218.522 298.667 C 217.919 298.667,218.554 298.489,219.752 298.322 C 221.521 298.077,223.152 297.653,228.083 296.158 C 229.280 295.796,232.447 294.707,232.917 294.498 C 233.843 294.084,237.174 292.813,237.494 292.751 C 237.697 292.712,238.647 292.265,239.607 291.757 C 240.567 291.249,241.419 290.833,241.502 290.833 C 241.640 290.833,243.319 289.733,243.788 289.334 C 243.901 289.238,244.051 289.148,244.122 289.133 C 244.192 289.119,244.341 289.027,244.453 288.929 C 244.943 288.496,245.158 288.333,245.240 288.333 C 245.347 288.333,246.447 287.321,247.324 286.417 C 248.703 284.993,249.189 284.394,249.455 283.792 C 249.607 283.448,249.778 283.167,249.836 283.167 C 249.980 283.167,250.729 281.449,251.061 280.356 C 251.715 278.207,250.965 273.537,249.746 272.167 C 249.624 272.029,249.537 271.862,249.554 271.796 C 249.705 271.179,245.325 266.368,243.167 264.781 C 242.662 264.410,242.213 264.060,242.167 264.003 C 242.006 263.803,240.775 262.917,240.680 262.932 C 240.627 262.941,240.208 262.709,239.750 262.416 C 238.201 261.427,237.917 261.263,237.693 261.227 C 236.989 261.115,237.605 261.038,239.871 260.955 C 243.329 260.828,249.315 259.507,249.636 258.801 C 249.665 258.737,249.777 258.716,249.886 258.754 C 249.994 258.792,250.432 258.619,250.857 258.370 C 251.283 258.121,252.071 257.659,252.607 257.345 C 254.425 256.281,256.555 253.709,257.033 252.000 C 257.098 251.771,257.279 251.171,257.436 250.667 C 258.097 248.547,257.670 243.449,256.641 241.167 C 256.274 240.352,255.608 239.082,255.505 239.000 C 255.448 238.954,255.193 238.485,254.938 237.958 C 254.683 237.430,254.384 236.905,254.273 236.791 C 254.163 236.677,253.725 236.058,253.300 235.417 C 252.444 234.123,251.286 232.679,250.208 231.563 C 249.819 231.159,249.500 230.781,249.500 230.724 C 249.500 230.602,247.228 228.333,247.106 228.333 C 247.061 228.333,246.662 227.986,246.220 227.562 C 245.084 226.471,244.082 225.667,243.858 225.667 C 243.753 225.667,243.667 225.601,243.667 225.520 C 243.667 225.359,242.108 224.113,241.244 223.583 C 240.945 223.400,240.250 222.950,239.698 222.583 C 239.147 222.217,238.483 221.793,238.223 221.642 C 237.963 221.490,237.235 221.059,236.607 220.683 C 235.978 220.308,235.423 220.000,235.374 220.000 C 235.325 220.000,234.902 219.747,234.434 219.437 C 233.966 219.127,232.533 218.326,231.250 217.657 C 229.967 216.988,228.729 216.342,228.500 216.222 C 228.271 216.101,228.033 216.002,227.973 216.001 C 227.912 216.000,227.109 215.596,226.189 215.103 C 225.269 214.610,224.481 214.241,224.439 214.283 C 224.397 214.325,224.150 214.244,223.890 214.102 L 223.417 213.845 223.833 213.861 C 224.063 213.869,225.637 213.462,227.333 212.956 C 232.066 211.543,234.442 210.849,236.083 210.398 C 236.908 210.171,238.896 209.573,240.500 209.069 C 246.817 207.085,249.350 206.284,251.750 205.513 C 253.125 205.071,254.700 204.577,255.250 204.416 C 255.800 204.254,257.041 203.832,258.007 203.478 C 258.973 203.123,259.860 202.833,259.976 202.833 C 260.165 202.833,260.537 202.694,262.417 201.921 C 264.054 201.248,264.932 200.927,265.042 200.961 C 265.110 200.982,265.167 200.922,265.167 200.826 C 265.167 200.730,265.260 200.667,265.375 200.686 C 265.626 200.727,265.923 200.607,268.546 199.403 C 271.802 197.909,275.545 195.990,276.000 195.581 C 276.138 195.458,276.438 195.273,276.667 195.171 C 277.274 194.901,277.636 194.674,278.870 193.792 C 279.478 193.356,280.057 193.000,280.155 193.000 C 280.253 193.000,280.333 192.930,280.333 192.845 C 280.333 192.759,280.472 192.645,280.642 192.591 C 280.812 192.537,281.169 192.272,281.434 192.001 C 281.700 191.731,282.010 191.507,282.125 191.505 C 282.240 191.502,282.333 191.423,282.333 191.328 C 282.333 191.234,282.455 191.109,282.604 191.052 C 282.753 190.995,283.084 190.754,283.340 190.516 C 284.498 189.440,284.996 189.000,285.057 189.000 C 285.154 189.000,286.667 187.471,286.667 187.372 C 286.667 187.326,286.835 187.124,287.042 186.923 C 287.248 186.723,287.717 186.206,288.083 185.774 C 288.450 185.343,288.844 184.885,288.958 184.757 C 289.073 184.629,289.167 184.462,289.167 184.387 C 289.167 184.312,289.384 183.996,289.649 183.686 C 290.113 183.144,291.324 181.065,292.087 179.500 C 293.728 176.138,294.319 170.260,293.351 166.917 C 293.166 166.275,292.898 165.337,292.757 164.833 C 292.499 163.917,291.731 162.322,291.130 161.458 C 290.954 161.206,290.858 161.000,290.917 161.000 C 291.041 161.000,290.372 159.994,290.086 159.750 C 289.979 159.658,289.629 159.239,289.309 158.819 C 288.989 158.398,288.396 157.761,287.991 157.402 C 287.586 157.043,287.113 156.577,286.941 156.366 C 286.769 156.155,286.592 156.019,286.547 156.064 C 286.502 156.109,285.967 155.786,285.358 155.346 C 280.864 152.102,269.427 150.245,263.750 151.837 C 263.017 152.043,262.304 152.225,262.167 152.242 C 261.326 152.344,257.720 153.994,257.461 154.394 C 257.394 154.498,257.337 154.521,257.336 154.445 C 257.333 154.264,256.277 154.907,255.349 155.657 C 254.945 155.983,254.605 156.212,254.595 156.167 C 254.584 156.121,254.464 156.178,254.329 156.295 C 253.647 156.882,253.197 157.243,252.667 157.632 C 251.385 158.572,246.167 163.983,246.170 164.369 C 246.172 164.659,246.430 164.904,247.255 165.395 C 247.851 165.749,248.381 166.110,248.435 166.196 C 248.608 166.476,253.223 168.685,254.165 168.939 C 254.670 169.075,255.646 169.340,256.333 169.527 C 258.993 170.254,263.786 170.121,267.250 169.224 C 267.800 169.082,268.400 168.945,268.583 168.920 C 269.203 168.836,269.909 168.632,272.496 167.791 C 274.998 166.978,278.542 166.169,279.605 166.167 C 281.759 166.165,283.227 168.512,282.315 170.500 C 282.126 170.912,281.944 171.384,281.911 171.548 C 281.877 171.711,281.582 172.274,281.253 172.798 C 280.925 173.321,280.565 173.900,280.453 174.083 C 280.342 174.267,280.212 174.454,280.166 174.500 C 280.119 174.546,279.861 174.883,279.591 175.250 C 278.736 176.411,276.955 178.177,275.833 178.974 C 275.237 179.397,274.725 179.801,274.694 179.872 C 274.664 179.942,274.539 180.000,274.417 180.000 C 274.294 180.000,274.169 180.076,274.138 180.168 C 274.107 180.261,273.903 180.371,273.685 180.413 C 273.466 180.455,273.167 180.594,273.019 180.722 C 272.871 180.849,272.225 181.219,271.583 181.544 C 269.384 182.657,266.177 184.195,265.963 184.238 C 265.690 184.294,265.228 184.489,263.583 185.242 C 262.850 185.578,261.837 185.994,261.333 186.166 C 260.829 186.339,259.667 186.792,258.750 187.174 C 257.833 187.555,256.918 187.890,256.716 187.918 C 256.513 187.946,255.567 188.274,254.612 188.648 C 253.657 189.021,252.463 189.434,251.957 189.566 C 251.452 189.697,250.374 190.028,249.561 190.301 C 246.977 191.169,244.925 191.798,244.667 191.801 C 244.529 191.802,243.104 192.195,241.500 192.673 C 239.896 193.151,238.358 193.570,238.083 193.604 C 237.808 193.638,237.396 193.737,237.167 193.824 C 236.938 193.911,236.487 194.055,236.167 194.143 C 235.846 194.230,234.833 194.526,233.917 194.800 C 233.000 195.073,232.025 195.334,231.750 195.380 C 231.475 195.426,229.900 195.842,228.250 196.306 C 226.600 196.770,224.125 197.460,222.750 197.839 C 221.375 198.219,219.725 198.679,219.083 198.862 C 218.442 199.046,217.692 199.222,217.417 199.255 C 217.142 199.287,215.492 199.720,213.750 200.216 C 210.160 201.240,209.332 201.408,209.335 201.115 C 209.337 201.006,209.561 197.392,209.833 193.083 C 210.106 188.775,210.330 184.525,210.331 183.638 C 210.332 182.751,210.445 180.201,210.582 177.971 C 212.168 152.162,212.204 150.872,211.408 148.167 C 210.846 146.256,210.082 141.939,209.254 136.000 C 209.030 134.396,208.730 132.333,208.586 131.417 C 208.179 128.816,207.935 120.830,208.144 116.917 C 208.208 115.724,209.314 110.622,209.910 108.768 C 210.143 108.045,210.333 107.380,210.333 107.289 C 210.333 107.198,210.590 106.590,210.904 105.937 C 211.425 104.854,211.936 103.679,212.018 103.372 C 212.037 103.305,212.254 102.800,212.501 102.250 C 213.956 99.017,213.870 99.315,213.841 97.605 C 213.816 96.150,213.210 94.000,212.824 94.000 C 212.705 94.000,212.361 93.332,211.492 91.417 C 211.215 90.806,210.812 89.480,210.865 89.352 C 210.893 89.283,211.704 89.357,212.667 89.517 C 213.629 89.678,214.657 89.814,214.950 89.821 C 215.500 89.834,219.594 92.618,219.782 93.107 C 219.830 93.232,219.943 93.333,220.034 93.333 C 220.244 93.333,221.501 94.658,222.059 95.468 C 222.475 96.071,222.567 96.460,223.430 101.250 C 223.752 103.040,224.248 105.000,224.842 106.834 C 225.112 107.667,225.333 108.495,225.333 108.674 C 225.333 108.853,225.416 109.000,225.518 109.000 C 225.619 109.000,225.663 109.103,225.614 109.230 C 225.566 109.356,225.583 109.525,225.652 109.605 C 225.721 109.685,225.912 110.125,226.076 110.583 C 226.240 111.042,226.627 111.967,226.937 112.640 C 227.247 113.313,227.502 113.950,227.504 114.057 C 227.506 114.163,227.726 114.625,227.993 115.083 C 228.936 116.704,229.333 117.492,229.333 117.744 C 229.333 117.885,229.390 118.001,229.458 118.001 C 229.527 118.002,229.842 118.490,230.158 119.085 C 230.474 119.680,230.793 120.167,230.866 120.167 C 230.940 120.167,231.000 120.282,231.000 120.423 C 231.000 120.565,231.141 120.883,231.313 121.132 C 231.966 122.076,233.136 123.938,233.390 124.438 C 233.535 124.725,233.842 125.182,234.070 125.454 C 234.299 125.726,234.658 126.251,234.868 126.621 C 235.332 127.437,236.972 129.776,237.375 130.196 C 237.535 130.363,237.667 130.571,237.667 130.658 C 237.667 130.745,237.768 130.877,237.891 130.950 C 238.015 131.023,238.401 131.496,238.751 132.000 C 239.100 132.504,239.543 133.068,239.735 133.253 C 239.926 133.437,240.271 133.838,240.500 134.143 C 240.729 134.447,241.251 135.009,241.661 135.390 C 242.070 135.771,242.632 136.303,242.911 136.571 C 243.189 136.838,243.442 137.037,243.473 137.012 C 243.504 136.986,243.693 137.105,243.893 137.275 C 245.950 139.023,249.128 140.247,249.396 139.395 C 249.517 139.012,249.243 138.094,248.351 135.892 C 247.975 134.961,247.667 134.085,247.667 133.945 C 247.667 133.805,247.407 133.128,247.089 132.440 C 246.771 131.753,246.364 130.753,246.184 130.220 C 246.005 129.686,245.701 128.875,245.510 128.417 L 245.162 127.583 245.762 128.250 C 247.405 130.077,252.304 134.911,252.980 135.372 C 253.404 135.661,253.775 135.958,253.806 136.032 C 253.836 136.106,253.961 136.167,254.083 136.167 C 254.206 136.167,254.331 136.224,254.361 136.293 C 254.414 136.415,257.572 138.354,257.916 138.476 C 258.008 138.509,258.629 138.789,259.295 139.100 C 265.149 141.825,267.000 142.396,270.642 142.602 C 272.961 142.733,272.993 142.719,272.997 141.572 C 273.000 140.873,272.580 139.224,272.318 138.901 C 272.236 138.801,272.219 138.670,272.279 138.610 C 272.340 138.549,272.301 138.500,272.194 138.500 C 272.087 138.500,272.000 138.415,272.000 138.310 C 272.000 138.053,270.181 135.333,270.009 135.333 C 269.934 135.333,269.834 135.188,269.788 135.011 C 269.702 134.683,270.262 134.769,270.745 135.158 C 271.498 135.766,278.263 138.683,278.958 138.699 C 279.165 138.704,279.333 138.758,279.333 138.818 C 279.333 138.879,279.465 138.936,279.625 138.946 C 279.785 138.956,280.779 139.240,281.833 139.577 C 285.458 140.737,286.032 140.843,289.251 140.950 C 292.792 141.067,292.880 141.034,292.446 139.760 C 291.852 138.018,290.016 136.040,286.667 133.535 C 285.979 133.021,285.379 132.554,285.333 132.497 C 285.287 132.440,284.725 132.031,284.083 131.588 C 283.442 131.145,282.871 130.712,282.814 130.626 C 282.758 130.540,282.560 130.383,282.376 130.277 C 281.928 130.019,278.941 127.667,279.062 127.667 C 279.114 127.667,279.829 128.050,280.651 128.518 C 281.473 128.987,282.188 129.363,282.239 129.354 C 282.289 129.345,283.164 129.755,284.182 130.265 C 285.199 130.775,286.160 131.217,286.317 131.247 C 286.473 131.277,286.874 131.415,287.206 131.554 C 291.771 133.462,301.489 133.543,309.167 131.739 C 315.009 130.367,317.675 128.975,316.700 127.809 C 314.920 125.680,314.141 124.848,313.192 124.061 C 312.137 123.185,310.792 122.295,310.422 122.227 C 310.327 122.210,309.626 121.856,308.862 121.440 C 308.099 121.024,307.237 120.600,306.946 120.497 C 306.655 120.395,305.854 119.981,305.167 119.579 C 304.479 119.176,303.524 118.661,303.044 118.433 C 302.564 118.206,301.926 117.847,301.627 117.635 C 301.046 117.222,300.886 117.122,299.561 116.338 C 299.091 116.059,298.613 115.719,298.499 115.582 C 298.385 115.445,298.227 115.333,298.148 115.333 C 297.967 115.333,295.966 113.970,295.471 113.509 C 295.269 113.321,295.056 113.167,294.998 113.167 C 294.876 113.167,292.960 111.698,292.833 111.508 C 292.787 111.440,292.450 111.190,292.083 110.955 C 291.717 110.720,291.138 110.277,290.798 109.972 C 290.458 109.666,289.936 109.229,289.639 109.000 C 289.341 108.771,288.899 108.377,288.656 108.125 C 288.413 107.873,288.142 107.667,288.054 107.667 C 287.966 107.667,287.661 107.423,287.376 107.125 C 286.593 106.306,285.725 105.500,285.627 105.500 C 285.579 105.500,285.244 105.219,284.882 104.875 C 284.521 104.531,283.672 103.763,282.997 103.167 C 280.436 100.907,273.988 94.362,273.309 93.333 C 273.158 93.104,272.896 92.767,272.726 92.583 C 272.556 92.400,272.192 91.912,271.917 91.500 C 271.642 91.087,271.292 90.612,271.140 90.443 C 270.988 90.274,270.632 89.712,270.348 89.193 C 270.065 88.674,269.609 87.875,269.336 87.417 C 269.062 86.958,268.715 86.321,268.564 86.000 C 268.413 85.679,267.925 84.683,267.478 83.786 C 267.032 82.889,266.667 82.078,266.667 81.984 C 266.667 81.889,266.486 81.416,266.264 80.933 C 266.043 80.449,265.707 79.139,265.517 78.021 C 265.151 75.864,264.520 73.454,264.298 73.361 C 264.225 73.330,264.206 73.238,264.257 73.156 C 264.448 72.846,261.439 67.685,260.417 66.570 C 260.233 66.370,259.858 65.937,259.583 65.607 C 258.709 64.557,256.441 62.372,255.750 61.914 C 255.383 61.670,255.008 61.382,254.917 61.272 C 254.708 61.023,252.476 59.558,251.917 59.303 C 251.687 59.199,251.500 59.059,251.500 58.993 C 251.500 58.862,250.592 58.454,250.177 58.399 C 250.034 58.380,249.447 58.166,248.874 57.925 C 244.796 56.208,238.375 56.206,234.990 57.922 C 234.513 58.163,233.992 58.386,233.830 58.417 C 233.453 58.490,229.499 61.475,229.385 61.774 C 229.337 61.898,229.225 62.000,229.136 62.000 C 228.970 62.000,226.813 64.128,225.146 65.937 C 224.630 66.496,223.775 67.620,223.245 68.435 C 222.715 69.250,222.148 70.067,221.984 70.250 C 221.821 70.433,221.676 70.658,221.662 70.750 C 221.612 71.083,218.224 74.446,218.082 74.304 C 218.043 74.265,218.186 73.712,218.401 73.075 C 219.589 69.548,219.440 65.710,217.954 61.628 C 217.730 61.011,217.470 60.411,217.377 60.295 C 217.284 60.179,217.094 59.858,216.953 59.583 C 216.728 59.142,216.525 58.863,215.830 58.042 C 215.733 57.927,215.694 57.833,215.743 57.833 C 215.793 57.833,215.702 57.696,215.542 57.529 C 215.381 57.361,214.904 56.855,214.481 56.404 C 213.468 55.324,212.802 54.745,212.223 54.445 C 211.963 54.309,211.563 54.034,211.333 53.833 C 210.949 53.496,209.639 52.749,209.541 52.811 C 209.517 52.826,209.142 52.660,208.707 52.442 C 206.048 51.111,202.191 50.643,196.750 50.992 M191.837 226.042 C 191.839 226.890,191.921 228.483,192.019 229.583 C 192.116 230.683,192.219 232.671,192.247 234.000 C 192.274 235.329,192.381 238.592,192.483 241.250 C 192.586 243.908,192.688 247.275,192.710 248.731 L 192.750 251.379 191.259 251.345 C 188.611 251.285,176.025 251.670,172.250 251.926 C 168.540 252.178,167.815 252.159,163.083 251.675 C 160.912 251.453,158.047 250.791,157.014 250.273 C 156.563 250.046,156.168 249.887,156.136 249.919 C 156.104 249.951,155.895 249.839,155.671 249.670 L 155.265 249.363 155.705 248.473 C 155.947 247.984,156.297 247.396,156.482 247.167 C 156.667 246.938,157.216 246.214,157.701 245.559 C 159.329 243.362,161.798 240.961,164.504 238.943 C 165.464 238.227,166.362 237.552,166.500 237.443 C 167.181 236.904,167.869 236.465,168.081 236.434 C 168.211 236.415,168.452 236.282,168.617 236.139 C 169.091 235.728,170.893 234.606,171.150 234.562 C 171.278 234.540,171.428 234.461,171.483 234.386 C 171.538 234.311,171.808 234.137,172.083 234.000 C 172.358 233.863,172.621 233.702,172.667 233.643 C 172.713 233.584,173.237 233.290,173.833 232.990 C 174.429 232.690,174.954 232.395,175.000 232.335 C 175.114 232.185,181.626 228.866,181.833 228.851 C 181.879 228.848,182.760 228.430,183.791 227.923 C 184.822 227.415,185.710 227.000,185.765 227.000 C 185.820 227.000,186.777 226.614,187.891 226.143 C 189.005 225.672,190.179 225.181,190.500 225.052 C 190.821 224.923,191.196 224.750,191.333 224.669 C 191.796 224.393,191.833 224.495,191.837 226.042 M213.333 226.681 C 215.738 227.679,221.816 230.640,223.833 231.797 C 224.704 232.296,225.492 232.718,225.583 232.733 C 225.836 232.777,228.242 234.225,228.306 234.372 C 228.336 234.442,228.500 234.500,228.669 234.500 C 228.838 234.500,229.082 234.606,229.211 234.735 C 229.340 234.864,229.852 235.218,230.348 235.521 C 230.844 235.824,231.349 236.168,231.470 236.286 C 231.591 236.404,231.779 236.501,231.887 236.501 C 231.995 236.502,232.571 236.874,233.167 237.328 C 233.762 237.783,234.338 238.157,234.444 238.161 C 234.551 238.164,234.664 238.225,234.694 238.296 C 234.725 238.367,235.237 238.798,235.831 239.254 C 236.426 239.710,236.995 240.158,237.095 240.250 C 237.194 240.342,237.861 240.942,238.576 241.583 C 239.291 242.225,240.441 243.425,241.131 244.250 C 241.820 245.075,242.448 245.775,242.526 245.806 C 242.603 245.836,242.667 245.935,242.667 246.026 C 242.667 246.203,243.645 247.693,243.858 247.839 C 244.217 248.086,244.502 249.168,244.295 249.499 C 244.102 249.808,244.014 249.858,243.727 249.819 C 243.668 249.811,243.575 249.876,243.519 249.963 C 243.215 250.435,238.571 251.601,236.464 251.734 C 235.980 251.765,234.582 251.880,233.358 251.991 C 231.508 252.159,230.541 252.149,227.608 251.934 C 224.206 251.684,210.266 251.265,208.186 251.350 C 207.627 251.373,207.135 251.357,207.093 251.315 C 206.936 251.158,207.773 229.844,208.098 225.726 L 208.192 224.534 210.304 225.418 C 211.466 225.903,212.829 226.472,213.333 226.681 M193.223 265.208 C 193.283 267.156,193.408 271.300,193.501 274.417 C 193.734 282.222,193.998 288.655,194.111 289.234 L 194.204 289.718 189.394 289.619 C 181.656 289.459,178.619 289.146,173.539 287.984 C 172.280 287.696,170.912 287.401,170.500 287.329 C 170.087 287.256,168.962 286.920,168.000 286.581 C 167.037 286.243,165.931 285.864,165.541 285.740 C 164.514 285.415,161.536 283.827,160.485 283.046 C 156.780 280.291,156.418 278.478,158.893 275.083 C 159.361 274.442,159.895 273.806,160.080 273.670 C 160.264 273.534,160.753 273.102,161.166 272.710 C 161.579 272.318,162.123 271.904,162.375 271.791 C 162.627 271.678,162.833 271.539,162.833 271.481 C 162.833 271.356,163.900 270.641,164.967 270.051 C 165.398 269.813,166.142 269.361,166.622 269.045 C 167.102 268.730,167.596 268.456,167.721 268.438 C 167.846 268.420,168.653 268.055,169.516 267.628 C 170.378 267.201,171.758 266.615,172.583 266.326 C 176.555 264.937,177.337 264.682,177.937 264.578 C 178.292 264.517,179.933 264.142,181.583 263.747 C 183.233 263.351,185.071 262.950,185.667 262.856 C 188.655 262.382,192.928 261.702,193.016 261.685 C 193.070 261.675,193.164 263.260,193.223 265.208 M211.417 262.422 C 214.056 262.805,216.592 263.305,219.167 263.952 C 220.404 264.262,221.656 264.551,221.949 264.592 C 222.398 264.656,225.160 265.561,228.167 266.630 C 228.579 266.777,229.610 267.254,230.458 267.690 C 231.306 268.126,232.000 268.447,232.000 268.404 C 232.000 268.300,233.010 268.824,233.270 269.063 C 233.381 269.166,234.101 269.610,234.869 270.049 C 235.637 270.489,236.524 271.074,236.841 271.350 C 237.158 271.626,237.642 271.972,237.917 272.119 C 238.378 272.364,238.659 272.600,240.091 273.941 C 240.370 274.203,240.820 274.754,241.090 275.167 C 241.361 275.579,241.636 275.957,241.701 276.006 C 242.635 276.705,242.761 279.447,241.917 280.670 C 240.204 283.150,232.931 286.940,228.961 287.422 C 228.570 287.469,228.025 287.578,227.750 287.663 C 225.846 288.251,217.787 289.532,216.195 289.499 C 215.858 289.492,213.390 289.538,210.708 289.602 L 205.833 289.717 205.834 289.067 C 205.834 288.709,205.944 286.317,206.079 283.750 C 206.213 281.183,206.327 278.408,206.332 277.583 C 206.346 275.112,206.696 262.098,206.753 261.896 C 206.792 261.759,207.182 261.769,208.195 261.933 C 208.959 262.056,210.408 262.276,211.417 262.422 " stroke="none" fill="#fcfcfc" fill-rule="evenodd"></path><path id="path1" d="" stroke="none" fill="#100fcfc" fill-rule="evenodd"></path><path id="path2" d="" stroke="none" fill="#100fcfc" fill-rule="evenodd"></path><path id="path3" d="" stroke="none" fill="#100fcfc" fill-rule="evenodd"></path><path id="path4" d="" stroke="none" fill="#100fcfc" fill-rule="evenodd"></path></g></svg>