<?xml version="1.0" encoding="UTF-8"?>
<svg version="1.1" xmlns="http://www.w3.org/2000/svg" width="1523" height="1520">
<path d="M0 0 C0.23074219 1.28132812 0.46148438 2.56265625 0.69921875 3.8828125 C4.53808814 24.54454973 11.90860664 41.66117494 23.25 59.25 C27.49571215 65.86719829 30.68994984 72.44442109 33 80 C33.36544922 81.18529297 33.36544922 81.18529297 33.73828125 82.39453125 C39.60353737 105.81565604 30.68256242 131.16854972 24.76757812 153.74853516 C16.69682713 184.96939039 18.14013643 214.8810992 34.25 243.19921875 C37.87821136 249.00597667 41.90868923 254.51361436 46 260 C46.42361816 260.57073242 46.84723633 261.14146484 47.28369141 261.72949219 C56.58019012 274.20363806 67.0566864 285.19697341 78.18359375 296.05664062 C84.24979025 302.04712101 89.72030176 308.30979725 95 315 C95.85489014 316.05828003 95.85489014 316.05828003 96.72705078 317.13793945 C124.11418291 351.10631075 144.15470043 394.19087449 144.1875 438.4375 C144.19974609 439.33404297 144.21199219 440.23058594 144.22460938 441.15429688 C144.22750977 442.43723633 144.22750977 442.43723633 144.23046875 443.74609375 C144.23457764 444.51622803 144.23868652 445.2863623 144.24291992 446.07983398 C144 448 144 448 142 450 C141.67 446.37 141.34 442.74 141 439 C139.71351563 438.86464844 138.42703125 438.72929688 137.1015625 438.58984375 C120.63733503 436.68881955 103.91106012 433.48022111 88.4921875 427.21875 C84.97761159 425.99218659 84.28742053 425.8021428 81 427 C78.99945086 428.59522804 77.16282833 430.18407388 75.3125 431.9375 C74.79010742 432.42387939 74.26771484 432.91025879 73.72949219 433.41137695 C68.85358382 438.01284814 64.3687909 442.91410959 60 448 C61.34998385 451.01606147 62.87390474 453.03493339 65.1875 455.375 C75.32155899 466.77846095 79.79713573 482.01869319 79.33511353 497.08984375 C78.98572162 501.16660231 78.23488858 505.02212841 77.26318359 508.984375 C76.99607102 510.09323059 76.99607102 510.09323059 76.72356224 511.2244873 C74.87869461 518.73591881 72.65721509 526.11912268 70.3515625 533.5 C69.90177455 534.95557337 69.45255839 536.41132352 69.00386047 537.86723328 C68.04831804 540.96454983 67.08957027 544.0608466 66.12814331 547.15634155 C63.79189922 554.67980367 61.47394527 562.20891152 59.15476036 569.7376461 C58.62029299 571.47245001 58.08562509 573.20719214 57.55076027 574.94187355 C52.16277693 592.41703393 46.8737387 609.92114382 41.6139679 627.43525314 C39.56896626 634.24392587 37.52149199 641.05185511 35.47265625 647.859375 C35.24746181 648.60762983 35.02226738 649.35588467 34.79024887 650.12681389 C28.86248487 669.81649456 22.84299464 689.4780785 16.82295227 709.13969707 C15.69030375 712.83914613 14.55792993 716.53867919 13.42578125 720.23828125 C13.20262489 720.96747835 12.97946854 721.69667545 12.74954987 722.44796944 C9.2868246 733.76560937 5.84567533 745.0896764 2.41796875 756.41796875 C2.19054237 757.16944876 1.963116 757.92092876 1.72879791 758.69518089 C-0.24431323 765.21526607 -2.2169134 771.73550487 -4.18438721 778.2572937 C-6.43746396 785.72561738 -8.69781112 793.19164122 -10.97723389 800.65197754 C-11.64934645 802.85213643 -12.31953073 805.05288547 -12.98760986 807.25427246 C-13.90036958 810.25321502 -14.82510784 813.24817925 -15.75390625 816.2421875 C-16.1397715 817.51885788 -16.1397715 817.51885788 -16.53343201 818.82131958 C-21.74817584 835.43945077 -31.34833275 848.23403334 -46.86328125 856.53125 C-64.05254804 864.7098223 -81.06768633 863.68383471 -98.9453125 858.1640625 C-100.29242449 857.75917415 -101.63990426 857.35550776 -102.98771667 856.95295715 C-106.59029354 855.87320415 -110.18747484 854.77644016 -113.78381729 853.67612839 C-117.47027442 852.55143848 -121.16155315 851.442806 -124.85229492 850.33227539 C-133.50670909 847.72435426 -142.15320675 845.09072659 -150.79883194 842.45384216 C-155.11955433 841.13658322 -159.44101776 839.82176006 -163.76245117 838.50683594 C-165.52943556 837.96915118 -167.29641859 837.43146197 -169.06340027 836.89376831 C-169.9398287 836.62707211 -170.81625713 836.3603759 -171.719244 836.08559799 C-174.3713063 835.27846789 -177.02328906 834.471077 -179.67524719 833.66360474 C-195.37903084 828.88233591 -211.08791941 824.11801552 -226.79873657 819.35991669 C-230.16861965 818.33926655 -233.53840577 817.31829638 -236.90820312 816.29736328 C-247.65341445 813.04204194 -258.39889549 809.78761141 -269.14453125 806.53369141 C-271.19284983 805.91342065 -273.2411668 805.29314456 -275.28948212 804.67286301 C-276.66019233 804.25777896 -278.03090461 803.84270177 -279.40161896 803.42763138 C-286.90721116 801.1547928 -294.4125056 798.8809789 -301.91699219 796.60449219 C-302.58758541 796.40107775 -303.25817863 796.19766331 -303.94909286 795.98808479 C-309.61200039 794.27032165 -309.61200039 794.27032165 -312.12801361 793.50699997 C-321.04420058 790.80215519 -329.96254031 788.10455244 -338.8830843 785.41411114 C-345.28770524 783.48229094 -351.69109818 781.54643575 -358.09369183 779.6079073 C-361.93178986 778.4460644 -365.77048515 777.28629062 -369.61074829 776.13162231 C-373.1915403 775.05494624 -376.77062999 773.97278721 -380.34853363 772.88655281 C-382.27952327 772.30187959 -384.21227305 771.72302928 -386.14508057 771.14439392 C-406.76167947 764.86657977 -406.76167947 764.86657977 -412.03125 755.0859375 C-414.91364333 748.38704189 -414.87111654 742.05009192 -412.4765625 735.21484375 C-412.20150879 734.42070068 -411.92645508 733.62655762 -411.64306641 732.80834961 C-411.43085449 732.21159424 -411.21864258 731.61483887 -411 731 C-392.8028759 736.07919728 -374.73965478 741.59143693 -356.66921997 747.09973145 C-352.31700539 748.42592774 -347.96414298 749.74999427 -343.61132812 751.07421875 C-337.25803404 753.00719608 -330.90490762 754.94072251 -324.55200577 756.87498856 C-313.37701217 760.27736982 -302.2006778 763.6753197 -291.0234375 767.0703125 C-290.2153791 767.31575806 -289.40732071 767.56120361 -288.5747757 767.81408691 C-284.50902055 769.04902576 -280.44323953 770.28387942 -276.37744141 771.51867676 C-268.17599948 774.0094938 -259.97470367 776.50079185 -251.7734375 778.9921875 C-250.55200672 779.36322601 -250.55200672 779.36322601 -249.30590057 779.74176025 C-240.21299146 782.50399217 -231.12035273 785.26711022 -222.02832031 788.03222656 C-221.2044303 788.28278934 -220.38054029 788.53335213 -219.53168392 788.79150772 C-216.20126156 789.80438561 -212.87084733 790.81729016 -209.54048347 791.83036041 C-200.47834336 794.5869724 -191.41549488 797.34120127 -182.3503418 800.08789062 C-179.10462808 801.07152594 -175.85895019 802.05527944 -172.61328125 803.0390625 C-171.81240522 803.28175621 -171.0115292 803.52444992 -170.1863842 803.77449799 C-160.12496453 806.82434767 -150.07061039 809.89610377 -140.02438736 812.99565697 C-133.22322506 815.09391224 -126.41892952 817.1817657 -119.61234665 819.26236916 C-114.82604322 820.72632176 -110.04435765 822.20420505 -105.26576138 823.69310951 C-102.32424451 824.60569638 -99.37854435 825.50413178 -96.43151283 826.39873123 C-95.08063357 826.81186509 -93.73147752 827.23068813 -92.38435936 827.65592575 C-82.75749559 830.69025854 -73.02442344 833.17301667 -63.25 829.4375 C-51.04791936 823.04909184 -47.75775674 813.74441985 -43.73022461 801.07568359 C-42.94790806 798.51829907 -42.17217501 795.95954599 -41.40234375 793.3984375 C-40.97210281 791.98377122 -40.54131635 790.56927075 -40.11003113 789.15492249 C-38.95343295 785.35653475 -37.80441618 781.55589305 -36.65683746 777.75477219 C-35.43507378 773.71283167 -34.2061258 769.67307594 -32.97802734 765.63305664 C-30.70417236 758.14906416 -28.43642218 750.66323865 -26.17158508 743.17651272 C-23.96987028 735.89878536 -21.7633317 728.6225271 -19.55569649 721.34659386 C-16.30245999 710.62399618 -13.05358487 699.90008315 -9.80740166 689.17534828 C-4.47028681 671.54306651 0.88193388 653.9153894 6.23797607 636.28884888 C7.49260943 632.15981378 8.74687738 628.03066779 10.00101662 623.90148258 C15.00442164 607.42826276 20.01181888 590.95627627 25.03094482 574.48783875 C26.9709097 568.12238755 28.90918181 561.75642126 30.84706497 555.39033604 C32.42282702 550.21440363 34.00083257 545.0391625 35.58058167 539.86444569 C36.56019392 536.65360819 37.53762057 533.44210829 38.51448059 530.23043251 C38.96297178 528.75747395 39.41233939 527.28478187 39.86271667 525.81239891 C42.09189169 518.5231916 44.26943151 511.22041301 46.29980469 503.87304688 C46.62777039 502.69383667 46.95573608 501.51462646 47.29364014 500.29968262 C48.86254487 492.97071624 47.88392144 486.26417201 44.1484375 479.7734375 C37.79666982 469.96492551 28.6272022 466.86493571 17.6875 463.73828125 C16.75196289 463.46155075 15.81642578 463.18482025 14.85253906 462.89970398 C11.90421351 462.02842705 8.95254187 461.16937007 6 460.3125 C3.01924087 459.44385322 0.03940693 458.57244558 -2.93823242 457.69316101 C-4.78155299 457.14911376 -6.62672647 456.61129704 -8.47387695 456.08039856 C-9.30234131 455.8364183 -10.13080566 455.59243805 -10.984375 455.34106445 C-12.07830566 455.02393242 -12.07830566 455.02393242 -13.19433594 454.70039368 C-15 454 -15 454 -17 452 C-16.4938151 450.32958984 -15.98763021 448.65917969 -15.48144531 446.98876953 C-15.14485901 445.87800552 -14.80827271 444.76724152 -14.46148682 443.62281799 C-13.68986414 441.0765234 -12.91818389 438.53024633 -12.14642334 435.98399353 C-10.17379024 429.47542371 -8.20178129 422.96666702 -6.23226166 416.45715427 C-5.07709734 412.63928951 -3.92147377 408.82156386 -2.765625 405.00390625 C-2.53052719 404.2273789 -2.29542938 403.45085155 -2.0532074 402.65079308 C1.25984919 391.71080927 4.59536109 380.77790726 7.94779205 369.84992981 C9.3119867 365.3997989 10.67179076 360.94832421 12.03142929 356.49679947 C13.11329698 352.95621474 14.19821144 349.41662561 15.29040527 345.87921143 C29.4401581 300.033243 33.32023247 260.39331044 10.42431641 216.59375 C-6.4078215 185.94160171 -36.68349833 164.30616145 -69.8203125 154.59765625 C-75.48108756 153.04550825 -81.20648965 151.93759709 -87 151 C-87.75796875 150.86851562 -88.5159375 150.73703125 -89.296875 150.6015625 C-122.27830235 145.87166788 -157.51381379 156.23839878 -184.18603516 175.62646484 C-189.32077245 179.51449069 -194.1837713 183.72793205 -199 188 C-194.61556422 196.0209384 -189.94852752 203.77104667 -184.875 211.375 C-184.38483398 212.11089355 -183.89466797 212.84678711 -183.38964844 213.60498047 C-180.07873352 218.52263035 -176.60013313 223.29042187 -173 228 C-168.31266142 224.03730383 -168.31266142 224.03730383 -163.80078125 219.87890625 C-147.34660202 204.18624275 -125.34728306 196.46922343 -102.734375 196.85546875 C-79.86963345 198.06403366 -58.29151333 206.7655845 -42.38330078 223.45507812 C-27.3235821 240.2743333 -18.06945456 262.4054148 -18.8245697 285.18727112 C-19.54174237 296.68592496 -21.92645972 307.26486963 -25.33984375 318.25390625 C-25.77967953 319.70090139 -26.2184772 321.14821241 -26.65632629 322.59580994 C-27.82747526 326.4572923 -29.01286528 330.31425637 -30.20152283 334.17037964 C-31.44123404 338.19976879 -32.66865563 342.23289949 -33.89746094 346.265625 C-35.66528989 352.06276914 -37.43806901 357.85836185 -39.21668816 363.65220451 C-42.14814499 373.20153243 -45.05069397 382.7592785 -47.93760872 392.32215691 C-49.24739089 396.65745984 -50.56211353 400.99126568 -51.87742138 405.32489491 C-52.9158438 408.74662691 -53.9522204 412.16894549 -54.98361206 415.59280396 C-56.12089953 419.36665007 -57.27071163 423.136612 -58.421875 426.90625 C-58.75733841 428.02555405 -59.09280182 429.14485809 -59.43843079 430.29808044 C-59.74846542 431.30637405 -60.05850006 432.31466766 -60.37792969 433.35351562 C-60.64466492 434.2325354 -60.91140015 435.11155518 -61.18621826 436.01721191 C-62 438 -62 438 -64 439 C-66.09600134 438.51286791 -68.16816207 437.92255278 -70.2253418 437.29125977 C-70.87084929 437.09538961 -71.51635677 436.89951946 -72.18142509 436.69771385 C-74.35620784 436.0358842 -76.52761435 435.36358499 -78.69921875 434.69140625 C-80.25256085 434.21651024 -81.80610904 433.7422879 -83.35984802 433.26869202 C-87.58892301 431.97770355 -91.81522379 430.67783929 -96.04111481 429.37647247 C-100.45859707 428.01774776 -104.878525 426.66703185 -109.29833984 425.31591797 C-114.8247768 423.62604866 -120.35099194 421.93547029 -125.87615967 420.24145508 C-139.12741717 416.17913676 -152.38720128 412.14563635 -165.65234375 408.12890625 C-167.48482542 407.57378204 -169.31729924 407.0186319 -171.14976501 406.4634552 C-178.22033672 404.32147982 -185.29096556 402.179696 -192.36239624 400.04055786 C-196.48030364 398.79471502 -200.59754401 397.54669057 -204.7143116 396.29708672 C-206.22462937 395.83906964 -207.73518658 395.38184124 -209.24600029 394.92546272 C-211.30931626 394.30211116 -213.37178984 393.67604527 -215.43408203 393.04931641 C-216.58812531 392.69978912 -217.74216858 392.35026184 -218.93118286 391.99014282 C-221.67987362 391.10328763 -224.33559162 390.11174933 -227 389 C-225.28593245 380.45416598 -222.73477902 372.18487025 -220.203125 363.85546875 C-219.72681924 362.27965485 -219.25081188 360.70375073 -218.77508545 359.12776184 C-217.52428816 354.98688517 -216.26960703 350.84719562 -215.01403809 346.70776367 C-213.75712861 342.56170951 -212.50364791 338.41461942 -211.25 334.26757812 C-209.80145455 329.47655542 -208.35261105 324.68562411 -206.90197754 319.89523315 C-203.58319716 308.93556752 -200.27964682 297.97144896 -197 287 C-197.97187256 286.17153564 -198.94374512 285.34307129 -199.94506836 284.48950195 C-203.64001136 281.33783723 -207.32299599 278.1725703 -211 275 C-212.40572266 273.78763672 -212.40572266 273.78763672 -213.83984375 272.55078125 C-218.8908748 268.10619311 -223.47518346 263.43374807 -227.89453125 258.359375 C-230.17233379 255.80688384 -232.57328242 253.41045774 -235 251 C-237.92783425 260.60778217 -240.85446676 270.21592993 -243.78034973 279.82430649 C-244.49669341 282.17664178 -245.21312693 284.52894969 -245.92956543 286.8812561 C-250.94586711 303.35265692 -255.95598789 319.82581962 -260.921875 336.3125 C-261.29521973 337.55163651 -261.66856445 338.79077301 -262.05322266 340.06745911 C-263.80067648 345.86924203 -265.54553072 351.67179264 -267.28710938 357.4753418 C-267.90491144 359.52914509 -268.52274781 361.58293806 -269.140625 363.63671875 C-269.41880066 364.56673706 -269.69697632 365.49675537 -269.98358154 366.45495605 C-270.2368219 367.29570679 -270.49006226 368.13645752 -270.75097656 369.00268555 C-270.96965393 369.7316655 -271.1883313 370.46064545 -271.41363525 371.2117157 C-272 373 -272 373 -273 375 C-279.98743284 373.39780248 -286.83397132 371.47783644 -293.66015625 369.30078125 C-294.42242523 369.05939423 -295.18469421 368.8180072 -295.97006226 368.56930542 C-299.13253013 367.56685485 -302.29420702 366.56288505 -305.44848633 365.53491211 C-317.32579991 361.67597623 -327.81596209 358.35996374 -339.78125 363.8125 C-349.78971345 369.16914241 -353.04068256 378.31019693 -356.23260498 388.65258789 C-356.77875458 390.47777954 -356.77875458 390.47777954 -357.3359375 392.33984375 C-357.73572891 393.64935254 -358.1364072 394.95859085 -358.53790283 396.26757812 C-359.60772495 399.7646064 -360.66484513 403.26535497 -361.71961212 406.7669487 C-362.81871152 410.40700934 -363.93046515 414.04320261 -365.04052734 417.67993164 C-369.26957795 431.55296489 -373.43949984 445.44349754 -377.578125 459.34375 C-377.92722931 460.51458633 -378.27633362 461.68542267 -378.63601685 462.89173889 C-380.26937094 468.37206213 -381.89520276 473.85437059 -383.50537109 479.34155273 C-384.07895659 481.27852601 -384.65267845 483.21545891 -385.2265625 485.15234375 C-385.48085022 486.02938965 -385.73513794 486.90643555 -385.99713135 487.81005859 C-387.77346983 493.77346983 -387.77346983 493.77346983 -390 496 C-391.65239074 491.69270097 -393.22320577 487.38144347 -394.65625 482.99609375 C-403.29620364 456.7593005 -415.46402609 432.42069823 -433 411 C-433.81597656 409.98035156 -434.63195312 408.96070313 -435.47265625 407.91015625 C-443.29889756 398.28520794 -452.13632265 389.66070429 -461 381 C-459.58614396 376.75843188 -456.4908693 375.6507567 -452.8125 373.5 C-431.62017949 360.6412597 -409.89563939 342.75442922 -399 320 C-399.88751953 320.99580078 -399.88751953 320.99580078 -400.79296875 322.01171875 C-401.58316406 322.89472656 -402.37335938 323.77773438 -403.1875 324.6875 C-403.96480469 325.55761719 -404.74210937 326.42773438 -405.54296875 327.32421875 C-407.96287906 329.95957418 -410.44871275 332.4919549 -413 335 C-413.85335938 335.83917969 -414.70671875 336.67835938 -415.5859375 337.54296875 C-449.26297782 369.47484031 -495.89530001 384.07812265 -541.52734375 383.13623047 C-568.50091862 382.07807139 -593.60999732 369.86355455 -612.375 350.8125 C-622.20430522 339.507177 -627.55337382 325.92553554 -627.25 310.984375 C-626.16884762 298.07811845 -619.15149692 287.76460436 -610 279 C-602.92072219 273.34357539 -596.41209564 270.60307587 -587.25 270.625 C-586.54697754 270.62661133 -585.84395508 270.62822266 -585.11962891 270.62988281 C-579.11232598 270.7705174 -574.28663076 272.07763981 -569 275 C-567.948125 275.5775 -566.89625 276.155 -565.8125 276.75 C-558.88143754 282.29484997 -553.64307009 288.36985572 -552.6171875 297.3515625 C-552.11145886 308.1477695 -555.1126622 315.1689933 -561 324 C-553.63903675 317.81504863 -548.38010202 309.63285865 -546.9375 300 C-546.51629742 289.48678369 -550.20993735 280.85356643 -557 273 C-564.62438843 264.90106458 -574.99166516 259.2609869 -586.234375 258.6640625 C-602.7853768 258.33133336 -614.91168946 263.13135532 -627.1875 274.5625 C-639.05659696 287.0165604 -644.66885888 302.33541985 -644.54345703 319.40454102 C-643.93586704 336.03771066 -636.57778669 350.41062567 -626 363 C-625.41734375 363.72832031 -624.8346875 364.45664062 -624.234375 365.20703125 C-606.61486068 386.34304527 -578.24367977 397.62735081 -551.49194336 400.81689453 C-545.67448914 401.24435516 -539.82923661 401.09961071 -534 401.0625 C-532.63932456 401.05747487 -531.27864733 401.05291376 -529.91796875 401.04882812 C-526.61193275 401.03710459 -523.30598999 401.02069427 -520 401 C-520 401.66 -520 402.32 -520 403 C-542.88808523 414.67654009 -565.67226101 422.59415145 -591 427 C-591.7101123 427.13132324 -592.42022461 427.26264648 -593.15185547 427.39794922 C-647.44889904 437.15199106 -706.3108086 421.03173852 -751 390 C-754.81853126 387.15509923 -758.41931861 384.13636326 -762 381 C-763.1505541 380.02912517 -764.30302035 379.06051343 -765.45703125 378.09375 C-791.45787257 356.23288221 -808.08786408 331.27599657 -812 297 C-813.87441912 271.53733662 -809.12693738 246.17217376 -792.14477539 226.25073242 C-782.87032958 215.85614524 -770.41302729 207.66166111 -756.25 206.76171875 C-741.2049718 206.36672919 -728.2858753 209.51345829 -716.8671875 219.94921875 C-710.0617796 227.19598156 -708.40456635 233.88467904 -708.64453125 243.74609375 C-709.69890506 253.39766939 -714.98766946 261.69282219 -721.8984375 268.32421875 C-729.18519706 274.13466457 -737.77432308 276.44640372 -747 276 C-751.41284015 275.24877775 -755.69699936 274.22843728 -760 273 C-758.25197854 273.81674796 -756.50149811 274.62823451 -754.75 275.4375 C-753.28820312 276.11619141 -753.28820312 276.11619141 -751.796875 276.80859375 C-743.05055618 280.53433012 -733.15579358 280.13674191 -724.25 277.0625 C-713.36292516 272.34741649 -705.04287239 263.44378514 -699.94140625 252.7890625 C-695.73590199 241.6414579 -696.32835011 230.32932589 -701.10546875 219.4921875 C-708.43892809 205.4897894 -721.22197731 197.37563413 -735.796875 191.9609375 C-752.26199755 187.09417476 -769.68018793 189.52474255 -784.8125 197.25 C-790.69728887 200.63231125 -795.92910372 204.49837532 -801 209 C-802.01126953 209.87011719 -802.01126953 209.87011719 -803.04296875 210.7578125 C-820.17411368 226.55539525 -828.45004217 250.37537412 -831 273 C-831.66 273 -832.32 273 -833 273 C-833.80374436 269.64861565 -834.59054985 266.29344825 -835.375 262.9375 C-835.59671875 262.01388672 -835.8184375 261.09027344 -836.046875 260.13867188 C-839.5216785 245.16635679 -840.37462683 230.67249764 -840.3125 215.375 C-840.31067719 214.44524353 -840.30885437 213.51548706 -840.30697632 212.55755615 C-840.26273487 199.16839315 -839.92602939 186.11717564 -837 173 C-836.82839355 172.19127441 -836.65678711 171.38254883 -836.47998047 170.54931641 C-827.8365464 130.52998492 -808.65895445 94.97837046 -780.41259766 65.47558594 C-779.10408851 64.10872986 -777.80737271 62.7306102 -776.51171875 61.3515625 C-769.89199183 54.48264782 -762.61102965 48.71034045 -755 43 C-754.43796875 42.57187012 -753.8759375 42.14374023 -753.296875 41.70263672 C-740.42954959 31.93564526 -726.26700356 23.9483691 -711.453125 17.5078125 C-709.22204644 16.53360851 -707.0193913 15.49018105 -704.859375 14.3671875 C-701.7224434 12.9301115 -699.45325695 12.11079969 -696 12 C-692.56680788 13.61341269 -689.77198979 15.76801011 -686.8203125 18.109375 C-668.66129744 32.36814098 -644.9619178 40.6996653 -623.73828125 49.41796875 C-623.06510361 49.69468414 -622.39192596 49.97139954 -621.698349 50.25650024 C-618.44595549 51.59059929 -615.18959493 52.9134439 -611.92553711 54.21875 C-610.76932861 54.68667969 -609.61312012 55.15460937 -608.421875 55.63671875 C-607.39674805 56.04623779 -606.37162109 56.45575684 -605.31542969 56.87768555 C-603 58 -603 58 -602 60 C-602.53665283 60.10957031 -603.07330566 60.21914063 -603.6262207 60.33203125 C-631.88478218 66.2363575 -659.89601962 78.28992875 -676.64770508 103.13500977 C-680.73822431 109.46498325 -684.30847978 115.94927251 -687 123 C-687.31839844 123.79921875 -687.63679687 124.5984375 -687.96484375 125.421875 C-692.91212564 140.10413095 -691.04784211 157.38122334 -684.4921875 171.171875 C-677.06276092 184.78673115 -665.82427022 195.86474004 -651.25 201.5625 C-638.55350119 205.2068654 -625.10263102 203.95857608 -613.51171875 197.64453125 C-603.50588283 191.3719652 -596.90087084 183.35311083 -593.35546875 171.921875 C-591.85404781 163.80430244 -593.08774506 156.25974866 -597 149 C-599.77859923 145.42751527 -602.77737455 142.17442379 -606 139 C-605.59007812 139.64066406 -605.18015625 140.28132812 -604.7578125 140.94140625 C-599.91791175 148.71072062 -596.80814573 155.7153081 -598 165 C-600.85383712 176.09139939 -605.64080239 181.44166608 -615.0859375 187.484375 C-623.58384327 191.9041973 -633.59244924 192.45191449 -642.87890625 190.34765625 C-655.68919015 185.67661377 -664.35423935 175.48463054 -670 163.39453125 C-675.07538316 151.24136767 -673.77309577 138.41200813 -668.93359375 126.33984375 C-658.83362094 104.77323514 -638.78604591 90.91442021 -617 83 C-597.99255145 76.56463475 -578.25113661 75.53242318 -558.5 78.1875 C-557.71931152 78.28828857 -556.93862305 78.38907715 -556.13427734 78.49291992 C-541.45037494 80.69684099 -527.26210325 85.78903384 -513.29864502 90.67282104 C-437.68624544 117.06753672 -359.5302887 140.10717917 -281 156 C-278.20774291 165.13482784 -287.77874211 178.96579164 -292.04638672 187.00439453 C-308.40758477 216.94229308 -334.9695818 240.11002276 -367.875 249.875 C-394.01409899 257.53089754 -422.83759139 256.73052699 -447.21484375 244.13671875 C-452.33969333 241.33337136 -456.7811454 238.04113728 -461 234 C-461.70382812 233.33613281 -462.40765625 232.67226563 -463.1328125 231.98828125 C-473.92286229 220.89053042 -478.90155948 206.19505658 -479.4375 190.9375 C-479.11036077 179.13431666 -474.94105619 169.71043187 -467 161 C-457.39774863 152.30301138 -446.3445086 149.21598083 -433.55078125 149.62109375 C-424.90723284 150.5434526 -417.51727511 154.19460074 -412 161 C-408.69365146 166.61951099 -405.26567751 172.54344259 -404 179 C-404.48412868 167.62297591 -407.56914787 159.50835165 -415.5 151.19921875 C-419.3112146 147.84654091 -423.28979749 145.81588615 -428 144 C-429.0725 143.566875 -430.145 143.13375 -431.25 142.6875 C-446.09385271 139.966127 -459.22895908 143.31291655 -472 151 C-482.57376386 158.49865679 -489.2523681 169.74709169 -492.58203125 182.171875 C-495.52810768 202.10607442 -491.39769793 221.00300499 -480.15625 237.74609375 C-464.24048791 258.65183863 -440.52559792 269.25951815 -415 273 C-398.10950479 273.95893571 -381.33691801 273.69668273 -365 269 C-364.28134766 268.79632812 -363.56269531 268.59265625 -362.82226562 268.3828125 C-346.67384634 263.63068911 -331.05806578 255.62185947 -318 245 C-317.47180664 244.5757373 -316.94361328 244.15147461 -316.39941406 243.71435547 C-309.68962358 238.30230383 -303.32828806 232.82020871 -298 226 C-296.97712891 224.7315625 -296.97712891 224.7315625 -295.93359375 223.4375 C-280.9076222 204.20425642 -272.5774578 183.29817471 -266 160 C-263.31158358 162.37296386 -262.01334139 164.73681762 -260.5390625 167.98828125 C-260.0742749 168.99383057 -259.6094873 169.99937988 -259.13061523 171.03540039 C-258.63376221 172.11684326 -258.13690918 173.19828613 -257.625 174.3125 C-247.28496054 196.30275132 -234.68938118 217.37775809 -219 236 C-218.33315186 236.80002441 -218.33315186 236.80002441 -217.65283203 237.61621094 C-200.81226561 257.7933814 -177.79883909 282.25661526 -149.94287109 285.21875 C-139.10450942 285.9951717 -129.82682521 285.02032832 -121.0625 278.125 C-115.50489903 272.88124003 -114.47348412 267.34716745 -114 260 C-114.495 260.845625 -114.99 261.69125 -115.5 262.5625 C-119.26256882 268.19965827 -124.48658374 272.95181694 -131 275 C-142.94570226 276.5419045 -152.96115929 273.08990205 -162.6875 266.25 C-168.04467042 262.10753683 -173.07469382 257.6433863 -178 253 C-178.64195312 252.4225 -179.28390625 251.845 -179.9453125 251.25 C-200.80066287 231.70356283 -215.76112864 203.55224173 -227.98730469 178.09033203 C-229.06743962 175.86079604 -230.17725991 173.64749491 -231.2890625 171.43359375 C-246.54887096 140.68411429 -264.58391975 101.87031845 -254.96484375 66.8515625 C-251.19710313 55.71613477 -244.47492032 45.84973044 -234.04296875 39.95703125 C-221.54010877 34.10005096 -207.30885609 33.07532611 -194.03515625 36.8984375 C-172.37437611 44.75987894 -156.836559 60.48959872 -146.99511719 81.10498047 C-142.74352657 90.47343518 -139.54184089 100.03787825 -137 110 C-136.00769438 89.82311916 -142.08369455 69.91151626 -151 52 C-149.4840625 52.185625 -149.4840625 52.185625 -147.9375 52.375 C-147.20917969 52.46394531 -146.48085938 52.55289063 -145.73046875 52.64453125 C-143.66779596 52.91306233 -141.60833984 53.20646374 -139.55078125 53.51171875 C-110.57208899 57.71109759 -82.41968 51.14742685 -56.86230469 37.02539062 C-54.95496077 35.97520126 -53.03046381 34.96309121 -51.1015625 33.953125 C-41.21289806 28.68420489 -32.2895579 22.35438889 -23.30078125 15.69042969 C-19.42625775 12.8437403 -15.4949038 10.07840189 -11.5625 7.3125 C-10.84650635 6.8074292 -10.1305127 6.3023584 -9.39282227 5.78198242 C-1.18501414 0 -1.18501414 0 0 0 Z M-396 314 C-395 316 -395 316 -395 316 Z M-397 316 C-397 319 -397 319 -397 319 Z " fill="#9A20C3" transform="translate(954,553)"/>
<path d="M0 0 C3.12192608 0.00526094 6.24377865 -0.00230078 9.36569709 -0.00947207 C16.76468922 -0.02624198 24.16347413 -0.02314585 31.56246066 -0.00618243 C38.22832485 0.00881923 44.89371158 0.00174564 51.55953097 -0.02669024 C122.28554188 -0.3210147 122.28554188 -0.3210147 157.01729465 5.57023358 C159.24543851 5.91698934 161.47400188 6.26106639 163.70308566 6.60172772 C168.99427115 7.43288809 174.25623679 8.38017277 179.51729465 9.38273358 C180.41312259 9.54942548 181.30895053 9.71611737 182.23192477 9.88786054 C199.66503536 13.13470239 216.86776769 17.07155715 234.01729465 21.57023358 C235.21708957 21.87896405 236.41688449 22.18769452 237.65303683 22.50578046 C324.62072907 44.97817512 410.65315205 84.30306021 482.81514621 137.93742108 C485.15268248 139.67061871 487.50176407 141.38724183 489.85323215 143.10148358 C502.91148239 152.63737446 515.64542503 162.44852173 527.9352634 172.95695233 C530.75364494 175.36104671 533.62901418 177.68791353 536.51729465 180.00773358 C542.32236622 184.73121977 547.76694003 189.80462681 553.22359347 194.9200871 C554.46423342 196.06143533 555.72046789 197.18597823 556.98873019 198.29655194 C565.41563996 205.7015773 573.27610931 213.67847719 581.19527316 221.61784101 C583.70578538 224.13372644 586.22161529 226.64420545 588.73799777 229.15421796 C590.35615713 230.77303796 591.97400636 232.39216804 593.5915134 234.01163983 C594.33334369 234.75144589 595.07517398 235.49125196 595.83948398 236.25347638 C600.43252631 240.86696897 604.77329385 245.63556302 609.01729465 250.57023358 C610.47174982 252.17791731 611.92950359 253.78263073 613.39229465 255.38273358 C617.28970911 259.70149016 620.9902982 264.1478541 624.6462009 268.67179608 C626.71402413 271.1995141 628.82350563 273.68414043 630.95503879 276.15812421 C637.01338843 283.20737067 642.61636537 290.54316777 648.12496066 298.02677655 C649.62365985 300.0411551 651.13567652 302.04277762 652.6576755 304.03947186 C660.03196855 313.73962703 666.97497733 323.66395566 673.70479465 333.82023358 C674.2199866 334.59548383 674.73517856 335.37073407 675.26598239 336.16947675 C689.40817465 357.47403228 702.64019379 379.17743545 714.5602634 401.81632733 C715.93340148 404.41166875 717.33033896 406.99242345 718.73604465 409.57023358 C757.69198105 481.57687545 781.98941302 562.27612956 772.2321384 974.10929608 C755.54634698 1030.05134536 732.92715826 1084.27900776 703.61006808 1134.81583905 C702.10756719 1137.41412462 700.62702222 1140.02375385 699.15010715 1142.63663983 C682.17339002 1172.34089745 662.40220338 1200.88106177 641.01729465 1227.57023358 C640.30959933 1228.46097577 639.60190402 1229.35171796 638.8727634 1230.26945233 C636.92993829 1232.71043772 634.97627581 1235.14220059 633.01729465 1237.57023358 C632.34569308 1238.40554608 631.67409152 1239.24085858 630.9821384 1240.10148358 C621.23852725 1252.12626685 611.01759348 1263.70705206 600.45723605 1275.01701093 C599.0835333 1276.49878388 597.72765811 1277.99702496 596.3727634 1279.49601483 C589.71769303 1286.85701741 582.77401305 1293.92093081 575.76729465 1300.94523358 C575.29543735 1301.41967908 574.82358005 1301.89412457 574.33742404 1302.38294721 C569.31439154 1307.42771261 564.24970739 1312.35289598 558.84493136 1316.98771405 C555.88286297 1319.55251866 553.05453831 1322.25716875 550.20479465 1324.94523358 C545.21184181 1329.61707259 540.11160708 1334.06823673 534.7712009 1338.34367108 C532.30593532 1340.33686452 529.89237663 1342.37950635 527.4899509 1344.44767499 C519.98433014 1350.89581067 512.18289129 1356.9086929 504.27852511 1362.85783124 C502.05502107 1364.54166382 499.84932542 1366.24657386 497.6462009 1367.95695233 C467.12703361 1391.47865818 433.96139185 1412.12453704 399.88790011 1430.05704999 C397.0504353 1431.55276413 394.22284253 1433.06590278 391.3962009 1434.58195233 C341.08858555 1461.40830214 287.20617404 1481.44190527 232.01729465 1495.57023358 C231.31084811 1495.75114545 230.60440158 1495.93205731 229.87654757 1496.11845136 C152.45521314 1515.84456826 72.28234408 1523.03901699 -338.10184598 1417.86832929 C-341.0655493 1416.10796151 -344.02443062 1414.3397056 -346.98270535 1412.57023358 C-347.94950223 1411.99660077 -348.9162991 1411.42296796 -349.91239285 1410.83195233 C-364.3182532 1402.27726583 -378.25355163 1393.17098077 -391.98270535 1383.57023358 C-392.96110379 1382.89081708 -392.96110379 1382.89081708 -393.95926785 1382.19767499 C-410.87057982 1370.44077446 -427.14836936 1357.73407924 -442.98270535 1344.57023358 C-443.57019559 1344.08184003 -444.15768582 1343.59344647 -444.76297879 1343.09025311 C-451.11151276 1337.79625154 -457.36255286 1332.40692562 -463.4709866 1326.83585858 C-465.57179751 1324.94088141 -467.6925255 1323.07598517 -469.82645535 1321.21867108 C-480.6297138 1311.78012744 -490.88947635 1301.75909276 -501.04520535 1291.63273358 C-501.92523221 1290.75729901 -502.80525907 1289.88186444 -503.7119534 1288.97990155 C-508.09545229 1284.58593486 -512.33203777 1280.13026377 -516.3760159 1275.42204022 C-518.95124327 1272.45393514 -521.66179488 1269.61576997 -524.35770535 1266.75773358 C-529.00783945 1261.78838805 -533.43237473 1256.71127186 -537.68583035 1251.39445233 C-539.83039495 1248.75751322 -542.03526347 1246.19234599 -544.27005887 1243.63248944 C-550.76898785 1236.17645871 -556.7165095 1228.39903327 -562.58622098 1220.44279218 C-564.63209198 1217.69946516 -566.746887 1215.01394132 -568.85770535 1212.32023358 C-621.39812239 1144.51620358 -659.93917304 1064.76938324 -717.98270535 802.57023358 C-718.06947537 801.23097821 -718.06947537 801.23097821 -718.15799832 799.86466718 C-723.30338458 718.71413905 -714.17665939 635.28472178 -647.28983426 435.3563664 C-646.01449789 432.63799906 -644.7535674 429.91331909 -643.4944241 427.18742108 C-637.52104056 414.34583637 -630.90635519 401.92197148 -623.98270535 389.57023358 C-623.50075711 388.70430585 -623.01880887 387.83837811 -622.52225614 386.94621015 C-599.97956435 346.50219352 -573.69199346 307.65165914 -543.4866116 272.50773358 C-541.14013241 269.7549218 -538.86866481 266.95585538 -536.60770535 264.13273358 C-532.53179434 259.11848334 -528.19417742 254.38981071 -523.76249051 249.69157147 C-521.05085161 246.81493867 -518.40014189 243.90849776 -515.8266995 240.90714765 C-511.82429361 236.32344965 -507.57505885 232.01845119 -503.2678616 227.72257733 C-502.45328992 226.90704892 -501.63871823 226.09152051 -500.79946256 225.25127912 C-499.08711343 223.5382535 -497.37351693 221.82647393 -495.65873075 220.11588788 C-493.0526852 217.51519806 -490.45202013 214.90921402 -487.85184598 212.30265546 C-486.17833836 210.62980872 -484.50452053 208.95727225 -482.8303616 207.28507733 C-482.06240766 206.51509915 -481.29445371 205.74512097 -480.50322843 204.95181012 C-476.35861714 200.82491121 -472.13198214 196.85647519 -467.69516873 193.04458356 C-465.30173626 190.9839514 -462.98991409 188.83816825 -460.67020535 186.69523358 C-456.25917362 182.67642765 -451.74535178 178.84158035 -447.09989285 175.09757733 C-444.77032593 173.21975442 -442.47013139 171.30999242 -440.17801785 169.38663983 C-430.50533823 161.29148861 -420.56870595 153.66958974 -410.34696317 146.28165936 C-408.02909219 144.60381183 -405.71986384 142.91468961 -403.41239285 141.22257733 C-393.12979355 133.7045971 -382.66473929 126.5086177 -371.98270535 119.57023358 C-371.23972196 119.08731854 -370.49673856 118.60440351 -369.73124051 118.10685468 C-320.41399677 86.19820378 -267.42880918 59.97444871 -211.98270535 40.57023358 C-211.05739011 40.24535962 -211.05739011 40.24535962 -210.11338162 39.91392255 C-168.84483216 25.44524166 -126.67093727 14.56631284 -83.54520535 7.25773358 C-82.2716116 7.03955976 -80.99801785 6.82138593 -79.68583035 6.59660077 C-75.12887447 5.84334544 -70.55741883 5.20547547 -65.98270535 4.57023358 C-64.28732129 4.33371957 -64.28732129 4.33371957 -62.55768704 4.09242749 C-41.63731104 1.24037044 -21.10508749 -0.05212728 0 0 Z M-31.98270535 36.57023358 C-32.77970853 36.65744672 -33.5767117 36.74465985 -34.39786649 36.83451581 C-113.96312604 45.5687709 -191.45248848 66.97735259 -405.98270535 188.57023358 C-406.93741727 189.33569501 -406.93741727 189.33569501 -407.91141629 190.1166203 C-420.63900906 200.33161606 -433.11259397 210.79037502 -445.06864285 221.90226483 C-447.23705126 223.88755028 -449.42522374 225.81715698 -451.65287137 227.73331952 C-455.99971825 231.53254068 -460.09894896 235.54191945 -464.1741116 239.62882733 C-464.92305188 240.37681088 -465.67199216 241.12479444 -466.4436276 241.89544415 C-468.0154176 243.46655822 -469.58596384 245.03891751 -471.15531278 246.61246991 C-473.53871839 249.00123204 -475.92741603 251.38460804 -478.31668973 253.76749921 C-479.85281772 255.30428809 -481.38863544 256.84138718 -482.9241116 258.37882733 C-483.98064687 259.43232625 -483.98064687 259.43232625 -485.05852628 260.50710797 C-489.03132566 264.49847696 -492.83192217 268.5881706 -496.50664639 272.85606122 C-498.41412421 275.07124764 -500.38538536 277.22527244 -502.35770535 279.38273358 C-506.17867674 283.62112201 -509.82517867 287.96902462 -513.41239285 292.40617108 C-515.33450996 294.78308169 -517.28235804 297.13699301 -519.24051785 299.48429608 C-526.59378516 308.3119027 -533.69754639 317.26867329 -540.48954129 326.53556561 C-541.99219895 328.58317008 -543.50679069 330.62157743 -545.02176785 332.66007733 C-571.62811061 368.71544055 -594.79155763 408.07684357 -613.98270535 448.57023358 C-614.47271024 449.60390058 -614.96271512 450.63756757 -615.46756864 451.7025578 C-636.4697225 496.42556955 -652.77555006 543.4577992 -663.98270535 591.57023358 C-664.14192472 592.2528526 -664.30114408 592.93547162 -664.46518826 593.63877606 C-672.40880174 627.87813882 -677.7861221 662.57396673 -680.98270535 697.57023358 C-681.1012991 698.85559003 -681.21989285 700.14094647 -681.34208035 701.46525311 C-684.71342474 740.15042658 -684.50725371 779.90555504 -680.98270535 818.57023358 C-680.91954129 819.27635785 -680.85637723 819.98248212 -680.7912991 820.71000409 C-673.30402913 904.01964592 -652.19595838 985.93654466 -606.89090848 1081.74735761 C-606.28569844 1082.96208898 -605.68153044 1084.17734009 -605.07840848 1085.39310956 C-596.1724519 1103.34327663 -586.44594396 1120.60515475 -575.83475614 1137.60197186 C-574.23487733 1140.16608029 -572.64930691 1142.7379706 -571.0725491 1145.31632733 C-550.40355534 1178.99486275 -525.86680094 1210.87251461 -499.24833035 1240.05851483 C-497.37041088 1242.14041522 -495.52453017 1244.24298359 -493.68583035 1246.35929608 C-490.03874362 1250.53455809 -486.28556043 1254.59931618 -482.48270535 1258.63273358 C-481.79563504 1259.36153729 -481.10856473 1260.09034101 -480.4006741 1260.84122968 C-467.28952185 1274.7558212 -467.28952185 1274.7558212 -453.1897366 1287.64445233 C-450.61269186 1289.89309492 -448.13363042 1292.23298673 -445.64652371 1294.58024335 C-439.85392535 1300.04653846 -434.01135879 1305.32763106 -427.7834866 1310.30070233 C-425.10672891 1312.46973472 -422.49789165 1314.69830072 -419.89627957 1316.95597577 C-412.80062914 1323.11212567 -405.51161463 1328.95217491 -397.98270535 1334.57023358 C-396.94484891 1335.34705487 -396.94484891 1335.34705487 -395.88602567 1336.13956952 C-377.73409394 1349.70008372 -359.30964566 1362.73214011 -339.98270535 1374.57023358 C-338.75269803 1375.32433515 -338.75269803 1375.32433515 -337.49784207 1376.09367108 C-318.4300282 1387.74355465 -298.90317752 1398.45024145 -278.98270535 1408.57023358 C-277.98223172 1409.07925214 -276.98175809 1409.58827069 -275.95096707 1410.11271405 C-198.5552802 1449.17417793 -112.77890424 1472.23371909 270.83711886 1446.78580976 C316.01796313 1431.73974845 360.01892052 1412.08639187 401.21016574 1388.19816327 C403.06214227 1387.12415218 404.91659164 1386.05439237 406.7736423 1384.9891789 C431.9327297 1370.5547427 455.96987716 1354.17460375 479.01729465 1336.57023358 C479.54274875 1336.17094647 480.06820285 1335.77165936 480.6095798 1335.36027265 C495.7902145 1323.82281014 510.44404568 1311.64150219 524.54073215 1298.80070233 C526.60890505 1296.93804188 528.69753553 1295.10640672 530.79854465 1293.28117108 C534.99860804 1289.61211081 539.08543326 1285.83399443 543.14229465 1282.00773358 C544.2393674 1280.97326093 544.2393674 1280.97326093 545.35860324 1279.91788983 C558.69390274 1267.33421834 558.69390274 1267.33421834 571.05635715 1253.81242108 C573.31942918 1251.22476501 575.67030736 1248.73174369 578.02950168 1246.23185468 C583.49489164 1240.43983066 588.77533635 1234.59808024 593.7477634 1228.37101483 C595.9169759 1225.69403486 598.14578745 1223.08501127 600.40352511 1220.48307538 C606.09131018 1213.92788966 611.50887844 1207.23025191 616.72237277 1200.29044843 C618.07877576 1198.48856015 619.44591488 1196.69516657 620.81416965 1194.90226483 C645.50426821 1162.4235437 667.27596378 1127.80034186 686.01729465 1091.57023358 C686.31980136 1090.98713422 686.62230807 1090.40403485 686.93398166 1089.80326581 C723.43649978 1019.39243818 747.89988613 943.25684407 765.01729465 818.57023358 C765.19518527 816.61875409 765.19518527 816.61875409 765.37666965 814.62785077 C772.18654028 736.09139627 764.54476757 655.84734566 745.01729465 579.57023358 C744.7404584 578.48869 744.7404584 578.48869 744.45802951 577.38529706 C728.55380858 515.57161302 704.63455245 455.63608067 672.63497043 400.37003827 C671.10230718 397.71736967 669.58802264 395.05495204 668.0758884 392.39054608 C651.67270577 363.7809727 632.69266572 336.25418689 612.01729465 310.57023358 C611.50698703 309.93375897 610.99667941 309.29728436 610.47090793 308.64152265 C600.25591217 295.91392988 589.7971532 283.44034496 578.6852634 271.48429608 C576.69997795 269.31588768 574.77037125 267.12771519 572.85420871 264.90006757 C569.05498755 260.55322068 565.04560878 256.45398997 560.9587009 252.37882733 C560.21071734 251.62988706 559.46273379 250.88094678 558.69208407 250.10931134 C557.12097 248.53752133 555.54861072 246.9669751 553.97505832 245.39762616 C551.58629619 243.01422055 549.20292019 240.6255229 546.82002902 238.23624921 C545.28324014 236.70012122 543.74614105 235.1643035 542.2087009 233.62882733 C541.50636828 232.92447049 540.80403567 232.22011365 540.08042026 231.49441266 C536.08905127 227.52161328 531.99935763 223.72101677 527.73146701 220.04629254 C525.51628059 218.13881472 523.36225579 216.16755358 521.20479465 214.19523358 C516.96153457 210.36987033 512.60869967 206.71929269 508.16573215 203.12882733 C505.83918011 201.2476095 503.53762655 199.33893607 501.24385715 197.41788983 C462.24499922 164.83025018 419.11102235 136.94501166 374.01729465 113.57023358 C372.97959933 113.02947186 371.94190402 112.48871015 370.8727634 111.93156171 C296.38305141 73.29524161 214.21521568 48.42436582 116.01729465 36.57023358 C115.26025241 36.48559857 114.50321017 36.40096356 113.72322726 36.31376386 C65.9357199 31.00983272 15.78664733 31.22976586 -31.98270535 36.57023358 Z " fill="#A62BD0" transform="translate(718.9827053546906,-0.5702335834503174)"/>
<path d="M0 0 C11.17747122 2.56372042 21.20309241 12.91025144 27.3125 22.1875 C39.9925392 43.32089866 44.5774123 65.88450335 44.39111328 90.36132812 C44.37487137 92.89506705 44.39116085 95.42724294 44.41015625 97.9609375 C44.41945196 106.16650387 43.98587057 113.47995296 41.68115234 121.41796875 C40.60830027 125.48480872 40.5548462 129.37760272 40.625 133.5625 C40.63442627 134.50609375 40.64385254 135.4496875 40.65356445 136.421875 C41.48802138 179.66735595 46.79904707 222.76482852 56 265 C56.39759521 266.83232178 56.39759521 266.83232178 56.80322266 268.70166016 C63.83796385 300.36461126 74.53357979 332.16209422 88.51171875 361.4375 C88.81148117 362.06849609 89.11124359 362.69949219 89.42008972 363.34960938 C90.88292695 366.42320039 92.36555953 369.4817192 93.88647461 372.52734375 C97.04717817 379.05340417 98.86231137 383.72881512 98 391 C94.23836542 398.99347349 87.16092451 402.77197398 79.1875 405.75 C69.55976047 408.95240377 60.08630736 410.25864665 50 411 C50.45890625 411.40089844 50.9178125 411.80179688 51.390625 412.21484375 C57.22618501 417.62131847 61.05541048 423.30581426 61.5 431.4375 C60.78245729 443.96188181 52.54371915 451.95574555 43.75 460 C40.99621084 462.34072078 38.53352121 464.00619716 35 465 C35.680625 465.66 36.36125 466.32 37.0625 467 C44.51457578 474.49453775 50.2320143 480.45179488 50.49609375 491.4375 C49.27171859 497.76183154 44.75428265 501.27839797 39.75 504.8125 C32.2994031 510.34032849 24.82185782 516.22780403 22.3359375 525.57421875 C20.24233984 540.69194142 26.8628637 555.52060499 33.47045898 568.67944336 C39.19546569 580.11099951 40.94084097 591.68175784 38.3125 604.30078125 C32.45439384 621.55778564 18.64159283 632.16741294 2.9375 640.1015625 C-26.46401908 654.24393684 -62.40551815 661.05332257 -95 660 C-94.96519531 660.96292969 -94.93039062 661.92585937 -94.89453125 662.91796875 C-93.85035092 706.45551804 -105.0877338 750.32941099 -118.375 791.5 C-118.6337088 792.30662079 -118.8924176 793.11324158 -119.15896606 793.94430542 C-119.89529819 796.22677389 -120.64395188 798.50472556 -121.3984375 800.78125 C-121.6168782 801.45559586 -121.83531891 802.12994171 -122.06037903 802.82472229 C-123.25343726 806.35744041 -124.55531398 809.16884116 -127 812 C-125.59242269 803.51943165 -123.6857507 795.17854938 -121.71569824 786.81616211 C-116.51155591 764.61166113 -112.35515879 742.41427706 -109.75 719.75 C-109.66673462 719.0276416 -109.58346924 718.3052832 -109.49768066 717.56103516 C-107.56213178 700.53910402 -106.79171015 683.62429452 -106.8125 666.5 C-106.81310425 665.57624573 -106.8137085 664.65249146 -106.81433105 663.70074463 C-106.92852798 599.23657875 -125.91167633 541.93672477 -165.66992188 490.71826172 C-168.39672881 487.19563558 -171.05296892 483.61964397 -173.71875 480.05078125 C-174.91637467 478.44916333 -176.11511384 476.84834006 -177.32421875 475.25537109 C-195.58344443 451.19743473 -204.78845528 428.01733642 -201.74365234 397.42431641 C-199.93799624 384.43821097 -195.85706712 371.7082619 -192.26196289 359.12304688 C-188.46675206 345.74560803 -185.41696859 332.55966564 -185.5625 318.5625 C-185.57152344 317.49265869 -185.58054687 316.42281738 -185.58984375 315.32055664 C-186.01323039 295.74921538 -192.97464512 281.30582696 -202.90112305 264.8034668 C-216.07605785 242.89997443 -223.84177968 221.65414751 -218.03515625 195.75390625 C-213.52508139 179.39850269 -205.78893759 165.21684821 -194 153 C-192.82531101 151.65278649 -191.65816462 150.29894525 -190.5 148.9375 C-187.23695134 145.18348338 -183.73095065 141.71428804 -180.19140625 138.22265625 C-177.57898932 135.5729856 -175.16697379 132.78827197 -172.74609375 129.96484375 C-170.90384325 127.89179676 -168.97598338 125.94564198 -167 124 C-164.44130741 121.48044611 -162.01829389 118.91881218 -159.6875 116.1875 C-155.96992585 111.85741936 -151.92340403 107.88991218 -147.84375 103.90625 C-145.74496051 101.81261272 -143.79871039 99.63073004 -141.87109375 97.37890625 C-137.50766268 92.34234844 -132.80366804 87.65352375 -128.0847168 82.9543457 C-126.56508332 81.4400742 -125.05087483 79.9205257 -123.53710938 78.40039062 C-118.74670703 73.60675919 -113.90665473 68.92266877 -108.75463867 64.51391602 C-106.57115253 62.62998704 -104.48113377 60.6591614 -102.38696289 58.67724609 C-95.27917439 51.96771411 -87.81114202 45.86866575 -80 40 C-79.43168457 39.56945312 -78.86336914 39.13890625 -78.27783203 38.6953125 C-59.27621684 24.38311161 -36.45026362 10.47978163 -12 11 C-11.96132812 12.70929688 -11.96132812 12.70929688 -11.921875 14.453125 C-11.38356289 31.25922911 -9.03181014 47.5848619 -2 63 C-1.22849609 64.72283203 -1.22849609 64.72283203 -0.44140625 66.48046875 C3.50069059 74.82897406 8.22498091 81.84997637 14 89 C12.76103917 86.42932191 11.41217424 83.93794976 10.01171875 81.453125 C0.32508816 64.06429943 -4.35324678 47.11620652 -4.375 27.125 C-4.39949219 25.94808594 -4.42398437 24.77117187 -4.44921875 23.55859375 C-4.47720761 15.07796918 -2.91901488 7.94997425 0 0 Z M16 91 C16.66 92.32 17.32 93.64 18 95 C18 94.01 18 93.02 18 92 C17.34 91.67 16.68 91.34 16 91 Z " fill="#A92ED4" transform="translate(1214,333)"/>
<path d="M0 0 C0.92216309 0.41217773 1.84432617 0.82435547 2.79443359 1.24902344 C43.68836505 19.69998469 89.23102907 46.46799372 119 81 C119 81.66 119 82.32 119 83 C118.31301025 83.21503174 117.62602051 83.43006348 116.91821289 83.65161133 C99.7386852 89.07814925 83.33220144 95.38985611 67 103 C65.47342773 103.70165283 65.47342773 103.70165283 63.91601562 104.41748047 C0.27512814 133.73213974 -59.20835708 175.68445454 -110.38232422 223.49560547 C-112.01904403 225.01771043 -113.66588696 226.528034 -115.31640625 228.03515625 C-125.02229174 236.90568158 -134.53198088 245.91351988 -143 256 C-139.33268086 254.37975924 -136.44833788 252.10636723 -133.3125 249.625 C-126.12951509 244.01505899 -118.70812185 238.77918142 -111.23486328 233.56542969 C-109.09562507 232.06698143 -106.9664225 230.55540561 -104.83984375 229.0390625 C-79.80092757 211.2523142 -54.12533959 194.14927671 -28 178 C-26.95473145 177.35337402 -25.90946289 176.70674805 -24.83251953 176.04052734 C20.52534647 148.06821056 67.39710016 121.28245448 116.625 100.75 C117.78193359 100.25927002 118.93886719 99.76854004 120.13085938 99.26293945 C121.21431641 98.82038818 122.29777344 98.37783691 123.4140625 97.921875 C124.3726416 97.52581055 125.3312207 97.12974609 126.31884766 96.72167969 C129.37086708 95.90017455 131.02196146 95.98424706 134 97 C136.0910051 99.10598365 137.83539426 101.09770142 139.625 103.4375 C140.40061279 104.43209229 140.40061279 104.43209229 141.19189453 105.44677734 C163 134.03549851 163 134.03549851 163 146 C162.44054688 145.9278125 161.88109375 145.855625 161.3046875 145.78125 C124.38458477 141.50754036 92.74811532 157.00377619 64.2890625 179.3671875 C50.78125029 190.11404463 38.10925377 201.70186706 26 214 C22.87851652 217.13257223 19.74119413 220.24892423 16.6015625 223.36328125 C14.94264302 225.01295516 13.28379068 226.66269658 11.625 228.3125 C10.8 229.12912109 9.975 229.94574219 9.125 230.78710938 C4.80131176 235.09364013 0.63382399 239.46142262 -3.34228516 244.09057617 C-6.13802267 247.3108211 -9.07540266 250.39717235 -12 253.5 C-16.17665503 257.95232739 -20.31345969 262.41967539 -24.296875 267.046875 C-26.49365905 269.56612276 -28.74689619 272.03102996 -31 274.5 C-33.84524228 277.61907011 -36.6719958 280.74755391 -39.4375 283.9375 C-42.86836233 287.88745261 -46.41130271 291.731871 -49.95507812 295.58007812 C-52.48725408 298.3345576 -54.99027735 301.10733787 -57.4375 303.9375 C-62.48755065 309.74982245 -67.75428229 315.36500333 -73 321 C-73.59989746 321.64646484 -74.19979492 322.29292969 -74.81787109 322.95898438 C-82.5789211 331.31424921 -90.44985472 339.54730289 -98.5 347.625 C-99.22912598 348.35871826 -99.95825195 349.09243652 -100.70947266 349.84838867 C-104.74620582 353.87357776 -108.88202212 357.71948791 -113.20019531 361.44091797 C-115.56221876 363.48702238 -117.83963012 365.6189477 -120.125 367.75 C-126.47958106 373.52847893 -133.13344646 378.84350096 -140 384 C-140.64179199 384.48227051 -141.28358398 384.96454102 -141.94482422 385.46142578 C-163.15413164 401.24473312 -186.5195167 414.90435192 -213 419 C-213.80179688 419.12890625 -214.60359375 419.2578125 -215.4296875 419.390625 C-230.24076044 421.3935459 -244.77909153 419.26152842 -259 415 C-261.91433871 401.93508352 -264.22442763 388.88234878 -266.0625 375.625 C-266.19039917 374.71446869 -266.31829834 373.80393738 -266.45007324 372.86581421 C-279.63679427 278.8217844 -277.15983518 183.6226262 -235.3125 -11.89453125 C-232.11327687 -21.65286742 -232.68023898 -30.07887923 -235 -40 C-156.47460832 -50.71619451 -71.43311831 -32.02133882 0 0 Z " fill="#C246F0" transform="translate(1058,173)"/>
<path d="M0 0 C-0.30035156 0.75667969 -0.60070312 1.51335937 -0.91015625 2.29296875 C-2.37046743 7.26012041 -2.89160245 12.17330841 -3.4375 17.3125 C-3.56237793 18.46387451 -3.68725586 19.61524902 -3.81591797 20.80151367 C-4.95849858 31.78868864 -5.81402416 42.79650169 -6.625 53.8125 C-6.68734833 54.65189117 -6.74969666 55.49128235 -6.81393433 56.35610962 C-13.19245267 143.03514515 -12.74418472 233.58854191 39.41796875 414.81640625 C41 418 41 418 41 420 C39.9584375 420.1959375 38.916875 420.391875 37.84375 420.59375 C19.14462858 424.37932675 3.38254849 432.14847015 -7.77514648 448.05273438 C-14.81612598 458.71254958 -18.2126523 470.62689558 -21 483 C-25.29007324 481.56997559 -28.09880655 479.45268442 -31.5 476.5 C-35.64153494 472.9546972 -39.84020512 469.54456224 -44.1875 466.25 C-51.65988416 460.57441051 -58.86072039 454.57644554 -66.08154297 448.58642578 C-68.60423495 446.50034122 -71.14565294 444.43767707 -73.6875 442.375 C-82.92104323 434.82538563 -91.93998743 427.02512541 -100.7734375 419.01171875 C-102.83104391 417.15265331 -104.90846763 415.32071642 -107 413.5 C-111.71453342 409.38532769 -116.37292684 405.21280353 -121 401 C-121.73041504 400.33943604 -121.73041504 400.33943604 -122.47558594 399.66552734 C-131.9234662 391.09686622 -140.9739095 382.13278753 -150 373.125 C-150.59021942 372.53736877 -151.18043884 371.94973755 -151.7885437 371.34429932 C-157.55195361 365.60082022 -163.28102541 359.87754948 -168.56347656 353.68164062 C-170.75866057 351.11188749 -173.07146675 348.66051242 -175.375 346.1875 C-179.61186417 341.59575319 -183.65405883 336.89045886 -187.5703125 332.01953125 C-189.36164261 329.7933284 -191.16738303 327.58511884 -192.9921875 325.38671875 C-239.91155921 268.66542873 -277.5140409 198.40396984 -284 124 C-284.08854248 123.15937012 -284.17708496 122.31874023 -284.26831055 121.45263672 C-284 119 -284 119 -282.39819336 117.2265625 C-281.2864978 116.43378906 -281.2864978 116.43378906 -280.15234375 115.625 C-279.32589355 115.02816406 -278.49944336 114.43132812 -277.64794922 113.81640625 C-276.77412598 113.21699219 -275.90030273 112.61757813 -275 112 C-274.18160645 111.43152344 -273.36321289 110.86304688 -272.52001953 110.27734375 C-249.1002158 94.31569991 -224.30614914 80.7023969 -199 68 C-197.99743164 67.49404297 -196.99486328 66.98808594 -195.96191406 66.46679688 C-140.26295413 38.51604607 -79.88861778 18.5667413 -19.6875 2.8125 C-18.92267303 2.60960358 -18.15784607 2.40670715 -17.36984253 2.19766235 C-15.21137038 1.6277167 -13.04988785 1.07134508 -10.88671875 0.51953125 C-9.65139404 0.20089111 -8.41606934 -0.11774902 -7.14331055 -0.44604492 C-4.24059196 -0.95759976 -2.7122295 -1.02810753 0 0 Z " fill="#C145EE" transform="translate(692,147)"/>
<path d="M0 0 C0.66 0 1.32 0 2 0 C2.1451001 0.72251953 2.2902002 1.44503906 2.43969727 2.18945312 C16.13436099 69.75050549 45.1474687 129.16658821 88 183 C88.44875488 183.56654297 88.89750977 184.13308594 89.35986328 184.71679688 C91.8553979 187.85565628 94.41070557 190.93824039 97 194 C97.64751221 194.7727124 97.64751221 194.7727124 98.30810547 195.56103516 C105.65902883 204.32549949 113.3229534 212.74913588 121.17919922 221.06152344 C123.01977522 223.02105326 124.84192765 224.99629437 126.66015625 226.9765625 C134.24632539 235.21066068 142.09967746 243.02190661 150.34375 250.59765625 C153.47213273 253.47754982 156.47919367 256.46062751 159.47265625 259.47973633 C161.17026374 261.16947447 162.92594828 262.7603826 164.75 264.3125 C167.99515307 267.10745842 171.16112492 269.97465906 174.3125 272.875 C178.77522832 276.94540056 183.36258 280.80176909 188.0625 284.59375 C191.36353919 287.29779274 194.58751673 290.0812619 197.8125 292.875 C202.96690796 297.3259266 208.22572563 301.60381243 213.60424805 305.78027344 C218.16790465 309.32759755 222.65270796 312.96339374 227.125 316.625 C232.51084535 321.02205024 237.95921421 325.29513179 243.55078125 329.4296875 C247.26999836 332.18525307 250.93799302 335.00702464 254.61230469 337.82202148 C269.66955443 349.4389909 269.66955443 349.4389909 285.37890625 360.140625 C286.24386719 360.75421875 287.10882812 361.3678125 288 362 C288 362.66 288 363.32 288 364 C283.70787591 362.64626809 279.6814198 361.01773278 275.6015625 359.12109375 C274.32671605 358.53249881 273.05172505 357.94421689 271.77661133 357.35620117 C271.10352936 357.04476166 270.43044739 356.73332214 269.73696899 356.41244507 C223.15792286 334.9102301 175.43784573 315.8896142 127 299 C126.12168518 298.69340454 125.24337036 298.38680908 124.33843994 298.07092285 C80.64581694 282.83683524 36.58210188 269.37439502 -8 257 C-6.16622803 257.66080566 -6.16622803 257.66080566 -4.29541016 258.33496094 C64.26033559 283.08556535 131.60504488 310.76982397 197 343 C198.10945984 343.54651215 198.10945984 343.54651215 199.24133301 344.10406494 C217.80194934 353.25344081 236.3009366 362.45966084 254.37353516 372.54785156 C258.35970284 374.75176729 262.37759439 376.89579057 266.39257812 379.04663086 C270.40364965 381.20199485 274.40020409 383.38306989 278.39208984 385.57373047 C280.01847164 386.46320083 281.64843434 387.34619212 283.28369141 388.21923828 C293.21521434 393.53893603 293.21521434 393.53893603 295.21484375 397.26171875 C295.8125 399.5 295.8125 399.5 296 403 C286.45035333 401.33942723 277.29697659 398.55129162 268.0234375 395.78515625 C266.24198554 395.25731777 264.46041736 394.72987137 262.67874146 394.20278931 C257.90313843 392.78880353 253.12915988 391.36940675 248.35549927 389.94887924 C243.32967902 388.45423612 238.30246159 386.96430687 233.27539062 385.47387695 C225.21116918 383.08241837 217.14779459 380.68812523 209.08496094 378.29199219 C199.83266847 375.54262471 190.57740333 372.80347334 181.3203125 370.0703125 C-28.71421796 308.01779342 -28.71421796 308.01779342 -114 268 C-114.79535156 267.38769531 -115.59070313 266.77539062 -116.41015625 266.14453125 C-123.00613006 260.77122575 -127.11284826 254.96804977 -128.625 246.5 C-126.82067009 236.39575252 -121.06164349 229.98675508 -113 224 C-110.74465073 222.69757163 -108.46242466 221.44062512 -106.15625 220.23046875 C-104.42084961 219.31430786 -104.42084961 219.31430786 -102.65039062 218.37963867 C-101.77576172 217.92435791 -100.90113281 217.46907715 -100 217 C-100.01047363 216.18660156 -100.02094727 215.37320313 -100.03173828 214.53515625 C-100.78754738 146.49320262 -82.98540484 88.90357552 -38 37 C-37.30777344 36.19433594 -36.61554688 35.38867188 -35.90234375 34.55859375 C-25.25714655 22.43660619 -13.78863789 10.85354067 -1 1 C-0.67 0.67 -0.34 0.34 0 0 Z " fill="#B83DE4" transform="translate(383,285)"/>
<path d="M0 0 C1.95111694 -0.01401855 1.95111694 -0.01401855 3.94165039 -0.02832031 C19.80658348 0.02500375 19.80658348 0.02500375 25.375 4.625 C28.79182177 8.84577984 29.97965333 11.90266633 29.84326172 17.44287109 C29.17286949 22.92521098 27.39371717 28.14510635 25.7411499 33.39675903 C24.55693585 37.1758812 23.42551845 40.97075704 22.29296875 44.765625 C21.9406015 45.94439964 21.9406015 45.94439964 21.58111572 47.14698792 C5.65429167 100.78391885 -2.99371203 156.56946668 -7.5 212.25 C-7.56058594 212.97890442 -7.62117187 213.70780884 -7.68359375 214.45880127 C-11.23495367 257.36490142 -11.3269427 301.35895847 -7.5 344.25 C-7.42458984 345.09641052 -7.34917969 345.94282104 -7.27148438 346.81488037 C-4.5206351 377.21795427 -0.88965774 407.75938762 5.41308594 437.65673828 C5.62993546 438.6897683 5.62993546 438.6897683 5.85116577 439.7436676 C6.24438641 441.58650748 6.65166686 443.42633184 7.06005859 445.26586914 C7.47087312 448.05243184 7.44641879 449.63713084 6.5 452.25 C5.82195312 451.80269531 5.14390625 451.35539062 4.4453125 450.89453125 C-7.14422488 443.31826145 -7.14422488 443.31826145 -20.18969727 439.09741211 C-24.5624974 438.20019453 -28.3465768 437.3555374 -31.6640625 434.17578125 C-33.62877982 430.9866074 -35.07784606 427.70088405 -36.5 424.25 C-37.28169596 422.48862394 -38.06574247 420.72829002 -38.8515625 418.96875 C-76.30001407 333.51936222 -78.74877428 233.81836745 -73.5 59.5625 C-73.41641235 58.53206573 -73.33282471 57.50163147 -73.2467041 56.43997192 C-70.40058768 21.87705418 -70.40058768 21.87705418 -63.71484375 15.66015625 C-45.77604627 1.53107568 -21.88782468 0.10140416 0 0 Z " fill="#C246F0" transform="translate(777.5,131.75)"/>
<path d="M0 0 C0.67675781 0.55171875 1.35351562 1.1034375 2.05078125 1.671875 C3.08138672 2.49945312 3.08138672 2.49945312 4.1328125 3.34375 C13.6631917 11.87189047 18.09205406 23.36189376 18.95703125 35.859375 C19.27730911 48.88400794 14.80754713 60.93450869 5.98828125 70.609375 C0.52135702 75.65140875 -8.37867162 81.671875 -15.94921875 81.671875 C-15.94414307 82.81888382 -15.93906738 83.96589264 -15.93383789 85.1476593 C-15.89848116 96.78170184 -16.07835929 108.39784321 -16.38671875 120.02734375 C-16.43176962 121.79380263 -16.47660572 123.560267 -16.52124023 125.32673645 C-16.63748396 129.905035 -16.75658134 134.4832547 -16.87634277 139.0614624 C-16.998766 143.7616326 -17.11839423 148.46187392 -17.23828125 153.16210938 C-17.4725769 162.33210158 -17.70989747 171.50201267 -17.94921875 180.671875 C-26.6579589 179.21304722 -35.00215222 176.65712983 -43.421875 174.05859375 C-44.91371733 173.60215836 -46.40569921 173.14617886 -47.89781189 172.69062805 C-51.81007904 171.4949992 -55.72061042 170.29379361 -59.6307373 169.09118652 C-64.33423814 167.6455322 -69.03953829 166.20574863 -73.74481106 164.76587391 C-77.4169865 163.64213711 -81.08883448 162.51738034 -84.75953674 161.38883972 C-94.4676751 158.40781543 -104.20087745 155.51858324 -113.94921875 152.671875 C-113.1686199 149.22883758 -111.95824316 146.80230099 -110.0625 143.8046875 C-109.46107178 142.84804199 -108.85964355 141.89139648 -108.23999023 140.90576172 C-107.26074585 139.36686279 -107.26074585 139.36686279 -106.26171875 137.796875 C-105.58761963 136.72840332 -104.91352051 135.65993164 -104.21899414 134.55908203 C-102.1349545 131.25957574 -100.04305542 127.96517102 -97.94921875 124.671875 C-96.74345981 122.77085222 -95.53772909 120.86981153 -94.33203125 118.96875 C-91.46548507 114.45454537 -88.59093024 109.94549549 -85.71386719 105.43798828 C-82.64208258 100.62291915 -79.57734181 95.80336837 -76.51171875 90.984375 C-75.40888524 89.25128231 -74.30602171 87.51820872 -73.203125 85.78515625 C-72.67992676 84.95580566 -72.15672852 84.12645508 -71.61767578 83.27197266 C-70.42030302 81.40600544 -69.19373222 79.5586526 -67.94873047 77.72412109 C-67.29791504 76.75168457 -66.64709961 75.77924805 -65.9765625 74.77734375 C-65.37448975 73.8958667 -64.77241699 73.01438965 -64.15209961 72.10620117 C-62.74004878 69.79442148 -62.74004878 69.79442148 -63.1784668 67.49194336 C-64.16434164 65.16387971 -65.43942968 63.16195085 -66.82421875 61.046875 C-73.43302593 50.11692466 -74.58404583 38.55638168 -72.29296875 26.10546875 C-68.90127385 13.72285849 -61.39634984 3.89978447 -50.46875 -2.86328125 C-34.56702681 -11.31954645 -14.73210657 -10.88075147 0 0 Z " fill="#9C22C5" transform="translate(795.94921875,1067.328125)"/>
</svg>
