<?xml version="1.0" encoding="UTF-8"?>
<svg version="1.1" xmlns="http://www.w3.org/2000/svg" width="1523" height="1523">
<path d="M0 0 C0.08975098 0.5576001 0.17950195 1.1152002 0.27197266 1.68969727 C3.84250282 23.33297942 11.62012024 41.35496506 23.25 59.875 C30.92012831 72.16550382 35.19030286 84.18734087 35.375 98.75 C35.38893799 99.41523682 35.40287598 100.08047363 35.41723633 100.76586914 C35.2822722 115.79596471 30.68925471 130.81410727 26.9375 145.25 C19.13567903 175.27901533 15.80144111 203.9202483 29 233 C29.50660156 234.12019531 30.01320313 235.24039063 30.53515625 236.39453125 C35.87015467 247.47959067 43.47239125 256.94132345 51.07080078 266.54980469 C52.96532727 268.95596361 54.82415703 271.38700039 56.68359375 273.8203125 C59.26621067 277.1354969 61.94795469 280.09966455 65 283 C66.51825269 284.48951383 68.03353219 285.9820605 69.546875 287.4765625 C70.38742432 288.30655762 71.22797363 289.13655273 72.09399414 289.99169922 C79.86489013 297.69616508 87.36273421 305.28940365 94 314 C94.85761157 315.05977974 95.71850548 316.11690867 96.58203125 317.171875 C124.33999779 351.29819169 144.06732831 394.59619464 144.3125 439.125 C144.31805908 439.98472412 144.32361816 440.84444824 144.3293457 441.73022461 C144.25786994 447.74213006 144.25786994 447.74213006 142 450 C141.67 446.37 141.34 442.74 141 439 C140.06285156 438.92523437 139.12570312 438.85046875 138.16015625 438.7734375 C120.6342178 437.15181255 103.21059947 433.03539865 86.79296875 426.6875 C84.12144754 425.78801864 84.12144754 425.78801864 81.97265625 426.5625 C79.24579779 428.54959686 76.72510768 430.71331835 74.25 433 C73.7250293 433.48186768 73.20005859 433.96373535 72.65917969 434.46020508 C67.91852133 438.90439107 63.8568337 443.77058725 60 449 C60.825 449.886875 61.65 450.77375 62.5 451.6875 C74.69175159 466.01714168 80.44472051 482.25062814 79 501 C76.31668479 516.92643619 70.72769096 532.41036389 65.96431732 547.81240082 C64.74403925 551.76304571 63.53056632 555.71577859 62.31689453 559.66845703 C61.81375804 561.30685634 61.31061467 562.94525354 60.8074646 564.58364868 C60.42931673 565.81505522 60.42931673 565.81505522 60.04352951 567.07133865 C59.26781626 569.59642314 58.49137847 572.12128383 57.7147522 574.64608765 C52.31251798 592.21223102 46.96856818 609.79596779 41.63163757 627.38204193 C40.61714425 630.72457922 39.60214404 634.0669625 38.58714294 637.40934563 C32.45294671 657.60939755 26.32753004 677.81210622 20.20687866 698.01626587 C19.00829149 701.97272927 17.80948243 705.92912541 16.6105957 709.88549805 C16.31262447 710.86881875 16.31262447 710.86881875 16.00863361 711.87200451 C14.99038833 715.23222503 13.97209525 718.59243105 12.95375061 721.95262146 C12.53280408 723.34162324 12.1118599 724.73062573 11.69091797 726.11962891 C11.47786105 726.82266301 11.26480413 727.52569712 11.04529095 728.25003529 C9.59241057 733.04442879 8.14009133 737.83899205 6.68798256 742.63361931 C3.95639196 751.65281821 1.22327958 760.67155369 -1.51215172 769.68958855 C-2.84633249 774.08822636 -4.179818 778.4870719 -5.51147461 782.88647461 C-6.75987192 787.01074547 -8.01026444 791.13440644 -9.26208687 795.25763893 C-9.7205158 796.76881191 -10.17825483 798.28019439 -10.63520622 799.7918148 C-12.89558846 807.26778893 -15.19351553 814.73149669 -17.60766602 822.15942383 C-17.98786392 823.33523514 -18.36806183 824.51104645 -18.75978088 825.7224884 C-24.72528303 841.48744655 -36.8559693 852.01628954 -51.875 858.8125 C-70.64089674 866.13047518 -87.7453631 861.99835573 -106.125 856.25 C-108.15471889 855.62882289 -110.18492929 855.00925001 -112.21557617 854.39111328 C-116.69669633 853.02421283 -121.17471811 851.64770087 -125.65087891 850.26464844 C-133.46198074 847.85346121 -141.28303185 845.47564435 -149.10546875 843.1015625 C-151.93696716 842.24190185 -154.76841941 841.38208922 -157.59985352 840.5222168 C-158.31246055 840.30582267 -159.02506758 840.08942854 -159.75926876 839.86647701 C-167.14722195 837.62247034 -174.53275165 835.37052922 -181.91823387 833.1184063 C-198.98721674 827.91362199 -216.06247571 822.72974481 -233.14126205 817.55722809 C-235.19124327 816.93636631 -237.2412078 816.3154495 -239.29116821 815.69451904 C-244.7614892 814.03759026 -250.23184583 812.3807792 -255.70228577 810.72424316 C-264.60968722 808.02693891 -273.51680798 805.32871015 -282.42364693 802.62954903 C-284.49033195 802.00328483 -286.55704507 801.37711346 -288.62376404 800.7509613 C-294.78031492 798.88560755 -300.93667244 797.01962734 -307.09204769 795.1503973 C-310.48310374 794.12064866 -313.8743226 793.09143702 -317.265625 792.0625 C-318.2756039 791.75604899 -318.2756039 791.75604899 -319.3059864 791.44340706 C-328.83538841 788.55309339 -338.3721903 785.68829824 -347.91418457 782.83984375 C-353.30118349 781.23161119 -358.68622545 779.61687079 -364.07083893 778.00067139 C-368.46500167 776.68242406 -372.86164954 775.37293757 -377.26037216 774.06999207 C-379.97213647 773.26444904 -382.68133493 772.45053551 -385.38990021 771.63430786 C-387.23865382 771.07995767 -389.09044879 770.53578203 -390.94232178 769.99194336 C-399.73012559 767.33027654 -405.51805767 764.70435138 -411 757 C-414.25052598 750.85000485 -415.27270776 744.39596185 -413.3203125 737.65234375 C-412.61294192 735.74244318 -411.81456161 733.8667037 -411 732 C-403.76848164 732.59611314 -397.22288246 734.59541469 -390.3203125 736.76953125 C-388.40064513 737.36468627 -386.48097658 737.95983746 -384.56126404 738.55484676 C-382.50667988 739.19299693 -380.45313083 739.8343818 -378.39984131 740.47668457 C-374.04370641 741.83904755 -369.68457486 743.19162941 -365.32470703 744.54199219 C-364.58423819 744.7713402 -363.84376934 745.00068821 -363.08086205 745.23698616 C-361.57104804 745.70457935 -360.06122067 746.17212939 -358.55138016 746.63963699 C-356.24927499 747.35272071 -353.94741873 748.06660342 -351.64559937 748.78060913 C-337.07703306 753.29753626 -322.48365351 757.7307493 -307.88311386 762.14304733 C-304.48869149 763.16901192 -301.09457392 764.19598382 -297.70043945 765.22290039 C-296.31556722 765.64189215 -294.93069478 766.06088323 -293.54582214 766.47987366 C-292.85472036 766.68896929 -292.16361858 766.89806492 -291.45157433 767.11349678 C-289.33963589 767.75242642 -287.22765779 768.39122482 -285.11567688 769.03001404 C-268.67264617 774.00399284 -252.23604837 778.99914288 -235.79942322 783.99423981 C-232.49116429 784.99959871 -229.18286964 786.00484005 -225.87457466 787.01008034 C-218.34521151 789.29791232 -210.81590028 791.58591514 -203.28662109 793.87402344 C-188.29892376 798.42868854 -173.31099791 802.98260152 -158.3229723 807.53618622 C-154.12606686 808.81127406 -149.92917682 810.08641252 -145.73233032 811.36169434 C-144.94257844 811.60165382 -144.15282656 811.84161331 -143.3391428 812.0888443 C-141.76870445 812.56607966 -140.19830704 813.04344977 -138.62795162 813.52095795 C-134.83253073 814.67481852 -131.03639705 815.82620406 -127.23851013 816.97192383 C-120.52076459 819.00089748 -113.81137822 821.04824546 -107.12721443 823.18567467 C-104.1398886 824.13945246 -101.14841583 825.07981913 -98.1565361 826.01919937 C-96.76382414 826.4606374 -95.37315435 826.90858598 -93.98491287 827.36388779 C-82.70370249 831.06178221 -71.43075095 833.51158932 -60.21875 828.32421875 C-50.41837304 822.4750501 -47.00887959 812.87097271 -43.953125 802.40234375 C-43.66963196 801.4544548 -43.38613892 800.50656586 -43.09405518 799.529953 C-42.4713799 797.4451738 -41.85203621 795.35939735 -41.2355957 793.27276611 C-39.85477002 788.60003762 -38.45695831 783.93243342 -37.06054688 779.26434326 C-36.28889657 776.68422029 -35.51794684 774.10389909 -34.74804688 771.52325439 C-30.22584585 756.37172753 -25.62140298 741.24524311 -21.0189209 726.11795044 C-19.48203739 721.06647234 -17.9464429 716.01460299 -16.41113281 710.96264648 C-15.89080889 709.25054399 -15.37048418 707.53844174 -14.85015869 705.82633972 C-14.59160347 704.97557547 -14.33304825 704.12481121 -14.06665802 703.24826622 C-13.01679786 699.79394381 -11.96674182 696.33968097 -10.9166832 692.88541889 C-7.84883805 682.79342564 -4.7820793 672.7011027 -1.71609688 662.6085434 C-0.96821523 660.14667716 -0.2203072 657.68481894 0.52760315 655.22296143 C2.75894664 647.87802291 4.99006168 640.53301518 7.22044849 633.1877861 C8.45803939 629.11213218 9.69577945 625.03652357 10.93359375 620.9609375 C11.17907393 620.15266258 11.4245541 619.34438766 11.67747307 618.51161957 C15.09070285 607.27409357 18.51067573 596.03863769 21.93545532 584.80462646 C23.85339188 578.51327394 25.76949342 572.22136294 27.68520546 565.92933273 C28.9849739 561.66083361 30.28574986 557.39264764 31.58911133 553.12524414 C34.13969049 544.77278636 36.68045319 536.41765016 39.18432045 528.05105209 C40.16794228 524.76464315 41.15896193 521.48108731 42.16375732 518.2010498 C43.20979099 514.7825085 44.23126191 511.35759788 45.24609375 507.9296875 C45.54653091 506.96773468 45.84696808 506.00578186 46.1565094 505.01467896 C48.46953236 497.0318775 48.75756033 489.29409692 45.1875 481.625 C44.48461908 480.4011896 43.75751335 479.1907674 43 478 C42.443125 477.113125 41.88625 476.22625 41.3125 475.3125 C34.50783124 468.50783124 25.04759957 466.20490069 16.0625 463.5625 C14.12821286 462.98102078 12.19511476 462.39570695 10.26210022 461.81001282 C8.35985953 461.23380868 6.45678983 460.66034372 4.55371094 460.08691406 C-2.68088359 457.87418977 -9.83691444 455.43168185 -17 453 C-10.80874452 431.40378217 -4.36125378 409.89455987 2.23345947 388.41845703 C3.40373543 384.60620827 4.57197112 380.79333469 5.74023438 376.98046875 C5.97100489 376.227514 6.2017754 375.47455925 6.43953896 374.69878769 C7.59505234 370.92807468 8.74943672 367.15702159 9.90170288 363.38531494 C10.35745023 361.89391091 10.81323018 360.40251684 11.26904297 358.91113281 C11.49355825 358.1764188 11.71807354 357.44170479 11.94939232 356.68472672 C13.32535653 352.18766656 14.71446472 347.69489514 16.11336803 343.20491982 C17.03130011 340.25431133 17.94225591 337.30157396 18.85214424 334.34847641 C19.2760586 332.97851911 19.70300494 331.60949508 20.13346672 330.24158096 C32.23509851 291.76444069 29.93694293 254.44968681 11.25 218.5 C-4.80477782 188.55283174 -33.02153537 166.30887769 -65.25 156.125 C-100.89523515 145.472248 -137.75760955 149.24637365 -170.50244141 166.83520508 C-180.89040099 172.64450966 -190.10461928 180.13896588 -199 188 C-191.87420199 201.6927099 -183.36383095 217.31514008 -172 228 C-171.32195313 227.28714844 -170.64390625 226.57429687 -169.9453125 225.83984375 C-153.09323772 208.3799091 -131.5583363 197.60768071 -107 197 C-82.79720375 197.36364034 -60.11715157 205.55934789 -43 223 C-27.57313251 239.72139224 -17.94087528 262.279603 -18.84008789 285.23754883 C-19.72651447 300.55039877 -24.1692364 314.52555659 -28.69041824 329.11278915 C-29.74527112 332.52485901 -30.78696284 335.9409424 -31.82983398 339.35668945 C-33.3788382 344.42616672 -34.93226406 349.49425377 -36.49059391 354.56087208 C-39.39555745 364.00760112 -42.26758157 373.46404904 -45.12693214 382.92467499 C-46.56823271 387.6926159 -48.01195632 392.45982371 -49.45543957 397.22710419 C-50.6236155 401.08530687 -51.79114902 404.94370091 -52.95718384 408.80255127 C-54.05561085 412.43652905 -55.15774321 416.06936385 -56.26262665 419.70138359 C-56.66899725 421.03934862 -57.07411155 422.37769595 -57.47788239 423.71644783 C-58.03083039 425.54919773 -58.58865926 427.38047294 -59.14672852 429.21166992 C-59.45804214 430.23854416 -59.76935577 431.2654184 -60.09010315 432.32341003 C-60.89365115 434.68715984 -61.81637422 436.806927 -63 439 C-69.99731957 437.12172789 -76.95755195 435.15335829 -83.890625 433.05078125 C-84.8369429 432.76505753 -85.7832608 432.4793338 -86.758255 432.18495178 C-89.92263212 431.2289892 -93.08632481 430.27078274 -96.25 429.3125 C-98.52333419 428.62509024 -100.79669103 427.93775536 -103.07006836 427.25048828 C-127.48905535 419.86456536 -151.89750082 412.44371168 -176.30517387 405.02050114 C-177.98140056 404.51077903 -179.65767585 404.00121676 -181.33400154 403.49182034 C-185.32853353 402.27789656 -189.32242265 401.06195659 -193.31478882 399.84092712 C-199.77514932 397.86788344 -206.23458569 395.91340122 -212.74169922 394.09863281 C-213.69995102 393.82757721 -214.65820282 393.55652161 -215.64549255 393.2772522 C-217.32926286 392.80498314 -219.01692873 392.34625965 -220.7091217 391.90512085 C-222.84350586 391.30322266 -222.84350586 391.30322266 -226 390 C-227.57612424 386.53485145 -226.63979266 383.94291773 -225.54394531 380.42578125 C-225.19862762 379.29984558 -224.85330994 378.17390991 -224.49752808 377.01385498 C-224.11162506 375.79240784 -223.72572205 374.57096069 -223.328125 373.3125 C-222.92936235 372.02512128 -222.53152296 370.73745625 -222.134552 369.44952393 C-221.07070373 366.00652911 -219.99468445 362.56745178 -218.91631317 359.12898254 C-217.80886954 355.59051405 -216.712619 352.04858531 -215.61572266 348.50683594 C-214.09223936 343.59059319 -212.56561034 338.67535235 -211.03447914 333.76148605 C-208.77199822 326.49941689 -206.531677 319.23093872 -204.3203125 311.953125 C-204.05915649 311.09384399 -203.79800049 310.23456299 -203.52893066 309.34924316 C-202.58249414 306.23268066 -201.63725273 303.1157579 -200.69299316 299.99853516 C-200.0755617 297.96207842 -199.4559951 295.92628335 -198.8359375 293.890625 C-198.50126465 292.78750977 -198.1665918 291.68439453 -197.82177734 290.54785156 C-197 288 -197 288 -196 286 C-196.56460938 285.74347656 -197.12921875 285.48695313 -197.7109375 285.22265625 C-209.6114801 278.86622309 -219.63381943 267.66343401 -228.5546875 257.69921875 C-230.64420573 255.39273776 -232.79086523 253.19015595 -235 251 C-237.89740552 260.53236164 -240.79447007 270.06482684 -243.6911335 279.59741402 C-245.07629709 284.15582695 -246.46153387 288.71421762 -247.84695435 293.27255249 C-255.66955875 319.00536337 -255.66955875 319.00536337 -263.453125 344.75 C-263.91994438 346.29804573 -263.91994438 346.29804573 -264.39619446 347.87736511 C-265.7689369 352.43089175 -267.13949768 356.98505766 -268.5065918 361.5402832 C-268.97179589 363.08546324 -269.43704309 364.63063029 -269.90234375 366.17578125 C-270.10535095 366.85523804 -270.30835815 367.53469482 -270.51751709 368.23474121 C-271.22449397 370.57830327 -271.90298546 372.80597091 -273 375 C-280.0673215 373.36139141 -287.01771566 371.43245009 -293.94921875 369.30078125 C-295.13295578 368.93870071 -295.13295578 368.93870071 -296.34060669 368.56930542 C-299.62009296 367.56513363 -302.89888425 366.55930566 -306.17211914 365.53491211 C-308.59444372 364.77869871 -311.02123419 364.03858826 -313.44921875 363.30078125 C-314.17445236 363.06958084 -314.89968597 362.83838043 -315.64689636 362.60017395 C-325.23137936 359.72293672 -332.96142573 360.86394841 -342 365 C-352.1794574 370.88146427 -355.07145768 384.4472405 -358.1953125 394.9765625 C-358.66906172 396.53700942 -359.14399877 398.09709614 -359.62004089 399.65684509 C-360.8784767 403.7917756 -362.12046155 407.93147423 -363.35928726 412.07231522 C-364.63835726 416.33639801 -365.93369526 420.59553213 -367.22729492 424.85522461 C-371.56298086 439.14973767 -375.84662163 453.4597647 -380.10546875 467.77734375 C-380.39268799 468.7413208 -380.67990723 469.70529785 -380.97583008 470.69848633 C-382.23641708 474.93149931 -383.48995986 479.16622585 -384.72509766 483.40673828 C-385.14607151 484.83498668 -385.56712613 486.26321129 -385.98828125 487.69140625 C-386.33415283 488.87935791 -386.68002441 490.06730957 -387.03637695 491.29125977 C-388 494 -388 494 -390 496 C-391.70812262 491.5181861 -393.34866749 487.02336745 -394.91015625 482.48828125 C-401.86694072 462.41781986 -410.0685573 443.62492814 -422 426 C-422.40186523 425.4013916 -422.80373047 424.8027832 -423.21777344 424.18603516 C-434.07562535 408.13548775 -447.16866206 394.51093987 -461 381 C-459.652217 376.956651 -457.845429 376.48384163 -454.1875 374.375 C-444.67805962 368.72562014 -436.10012081 362.03744459 -427.6875 354.875 C-427.12490479 354.39643555 -426.56230957 353.91787109 -425.98266602 353.42480469 C-418.94012522 347.34124376 -412.86147952 340.86445819 -407.25 333.4375 C-406.68667969 332.70853516 -406.12335938 331.97957031 -405.54296875 331.22851562 C-402.54811849 327.29556215 -400.02485607 323.51314752 -398 319 C-399.39727951 320.54035606 -400.79274837 322.08235464 -402.1875 323.625 C-403.01894531 324.54410156 -403.85039063 325.46320313 -404.70703125 326.41015625 C-406.32684496 328.23969031 -407.87752822 330.13154955 -409.375 332.0625 C-413.44680054 336.6190387 -418.20159028 340.23654139 -423 344 C-423.87269531 344.7115625 -424.74539063 345.423125 -425.64453125 346.15625 C-445.62264226 361.93295569 -469.53031861 372.42531793 -494 379 C-494.7847168 379.21172852 -495.56943359 379.42345703 -496.37792969 379.64160156 C-527.21044411 387.5728354 -562.42750382 384.78210624 -590.28125 368.7578125 C-607.2891016 357.76135672 -621.53359457 343.83735333 -626.6171875 323.53515625 C-628.79335406 309.12360424 -625.14636276 297.8358978 -617 286 C-610.86260469 278.437629 -603.35884132 273.65070288 -594 271 C-583.05926164 269.87316946 -573.6615024 271.46852441 -564.625 277.875 C-558.13012584 283.17449855 -553.59703826 288.86547094 -552.609375 297.359375 C-552.18744678 306.75686708 -554.10578686 313.04181962 -559 321 C-559.33 321.66 -559.66 322.32 -560 323 C-552.65517584 315.45907616 -547.56131091 308.43706508 -546.91015625 297.66796875 C-547.30417662 285.96727677 -552.40969899 277.08000946 -560.8125 269.1875 C-572.00711006 260.00662057 -584.89521419 257.62709205 -599 259 C-612.87958109 261.73014139 -624.71941607 270.39373449 -632.97265625 281.703125 C-643.13184129 297.14681181 -646.28383259 312.61763656 -643.3828125 330.88671875 C-637.23719994 354.73495866 -620.40848911 372.57365654 -599.71826172 384.98779297 C-574.41928174 399.89111365 -548.60592175 401.55174627 -520 401 C-520 401.66 -520 402.32 -520 403 C-542.16386609 414.41794407 -565.22707317 423.37002807 -590 427 C-591.72476563 427.2616394 -591.72476563 427.2616394 -593.484375 427.52856445 C-603.89152529 428.98254256 -614.12479823 429.36053747 -624.625 429.3125 C-625.45627411 429.31067719 -626.28754822 429.30885437 -627.14401245 429.30697632 C-640.29391813 429.25857137 -653.08105009 428.63520869 -666 426 C-666.86254395 425.82839355 -667.72508789 425.65678711 -668.61376953 425.47998047 C-711.5655707 416.69492006 -747.29604638 395.78527055 -779 366 C-779.97066406 365.11054687 -779.97066406 365.11054687 -780.9609375 364.203125 C-800.53207059 345.64270771 -811.20674862 318.07860317 -812.28515625 291.37109375 C-812.8833065 265.65701912 -806.79745866 242.33703121 -789 223 C-776.96108287 211.50996967 -763.88004929 206.30597873 -747.30078125 206.68359375 C-734.94258424 207.33431177 -722.29420638 213.86136085 -714 223 C-708.67217959 231.36129042 -707.53953534 240.27834337 -709.6484375 249.984375 C-712.73222467 259.31480797 -718.13267193 266.62331669 -726.54296875 271.78125 C-737.14157416 277.03842788 -746.7540486 276.58103803 -758 274 C-748.10987593 279.15686171 -738.99533033 280.6695826 -727.98828125 278.37109375 C-716.66720465 274.7696671 -707.66829423 267.39444692 -702 257 C-696.94639406 246.47551791 -695.74873085 236.0754359 -698.984375 224.82421875 C-704.16377519 210.42150207 -715.08782561 201.59831963 -728.5625 195.125 C-744.00183369 188.69565211 -761.22524776 187.37378968 -776.95458984 193.79833984 C-785.89153753 197.71209927 -793.76695631 202.38770259 -801 209 C-801.6084375 209.52851562 -802.216875 210.05703125 -802.84375 210.6015625 C-819.83729177 226.28196695 -828.57510329 250.5122737 -831 273 C-831.66 273 -832.32 273 -833 273 C-833.80374436 269.64861565 -834.59054985 266.29344825 -835.375 262.9375 C-835.59671875 262.01388672 -835.8184375 261.09027344 -836.046875 260.13867188 C-839.49235706 245.29269772 -840.40875353 230.86005481 -840.375 215.6875 C-840.37445618 214.76546783 -840.37391235 213.84343567 -840.37335205 212.89346313 C-840.31161754 190.05934787 -837.21382373 168.72849511 -830 147 C-829.76555176 146.29230469 -829.53110352 145.58460938 -829.28955078 144.85546875 C-816.25415288 106.36562767 -791.24329025 70.83546925 -759 46 C-758.47132324 45.58427734 -757.94264648 45.16855469 -757.39794922 44.74023438 C-743.01731508 33.47603009 -727.27120074 24.65828288 -710.625 17.1875 C-709.19027344 16.52899048 -709.19027344 16.52899048 -707.7265625 15.85717773 C-702.44889029 13.57490311 -698.64199006 11.97964214 -693 14 C-690.23576997 15.84558619 -687.60349299 17.81930953 -684.96337891 19.83837891 C-680.16020289 23.34203029 -674.97471974 25.99277442 -669.6875 28.6875 C-668.53032471 29.28199951 -667.37314941 29.87649902 -666.1809082 30.48901367 C-650.59116365 38.41809342 -634.45626101 45.1859312 -618.25 51.7421875 C-617.22044189 52.15879639 -616.19088379 52.57540527 -615.13012695 53.00463867 C-613.2178402 53.7733294 -611.30244769 54.5343542 -609.38354492 55.28637695 C-608.54927979 55.61855225 -607.71501465 55.95072754 -606.85546875 56.29296875 C-606.12996826 56.5768042 -605.40446777 56.86063965 -604.65698242 57.15307617 C-603 58 -603 58 -602 60 C-602.80667114 60.18792114 -602.80667114 60.18792114 -603.62963867 60.37963867 C-633.54855304 67.41806886 -662.05438496 79.57117966 -678.99536133 106.80078125 C-682.12641525 112.02708401 -684.82766623 117.30933743 -687 123 C-687.31839844 123.79921875 -687.63679687 124.5984375 -687.96484375 125.421875 C-692.91212564 140.10413095 -691.04784211 157.38122334 -684.4921875 171.171875 C-676.76867248 185.32566531 -665.03163633 196.7526545 -649.65625 202.15234375 C-637.2844884 205.02058335 -624.58811211 203.79305951 -613.4453125 197.57421875 C-603.97616936 191.56674597 -596.64146396 183.14285538 -593.46875 172.24609375 C-591.76905908 164.10174144 -593.0688498 155.84419781 -597.39453125 148.6953125 C-599.94545621 145.16922382 -602.4317436 142.52012925 -606 140 C-605.236875 140.969375 -604.47375 141.93875 -603.6875 142.9375 C-599.01050952 149.54109168 -596.82645398 156.93022288 -598 165 C-600.44256601 174.77026404 -604.47649265 180.98850742 -613 186.3125 C-622.31394022 191.76055798 -633.33221796 192.86399121 -643.828125 190.3125 C-646.0588779 189.37651976 -647.9808858 188.32955986 -650 187 C-651.02287109 186.34644531 -651.02287109 186.34644531 -652.06640625 185.6796875 C-662.36742505 178.52565927 -670.25980403 167.55417368 -672.75390625 155.109375 C-674.48169532 140.29975439 -670.98483362 126.24295317 -661.73095703 114.37207031 C-658.67379822 110.72202805 -655.38752051 107.34314251 -652 104 C-651.33097656 103.33226562 -650.66195312 102.66453125 -649.97265625 101.9765625 C-632.97237933 86.09046864 -607.9863399 77.85409664 -585 77 C-583.47826172 76.94005859 -583.47826172 76.94005859 -581.92578125 76.87890625 C-569.04553201 76.62923209 -556.42510362 77.87052792 -543.98046875 81.21875 C-543.15865112 81.43790573 -542.3368335 81.65706146 -541.4901123 81.88285828 C-533.95742001 83.93521738 -526.60501416 86.40535255 -519.25064087 89.01623535 C-448.63431506 113.99991205 -375.96736022 134.0326064 -303.06956482 151.13467407 C-302.19324905 151.34030975 -301.31693329 151.54594543 -300.4140625 151.7578125 C-299.57154434 151.95547211 -298.72902618 152.15313171 -297.86097717 152.35678101 C-291.86951216 153.77157823 -285.91598856 155.29376223 -280 157 C-284.69399402 186.20707392 -307.69902416 215.47772485 -331.19140625 232.484375 C-357.38957115 250.39108049 -389.37543268 258.68356059 -420.83447266 253.42285156 C-439.67408816 249.74413521 -457.55249754 240.8175034 -469 225 C-477.10101339 211.5633794 -481.62953453 196.43457853 -478.30859375 180.73046875 C-474.93106112 169.49557989 -467.8251664 160.98099104 -457.92578125 154.6796875 C-448.64209285 149.75513766 -438.29011038 148.41478068 -428 150.65234375 C-419.06015395 153.54537726 -413.39760029 157.93111329 -409.00683594 166.29541016 C-404.86284737 174.59838623 -404.86284737 174.59838623 -404 179 C-404.48225118 167.45008423 -408.46304655 158.47711863 -416.70703125 150.30859375 C-424.59185052 143.68534556 -434.89144745 141.27905919 -445.02734375 141.6796875 C-459.38711641 143.22699546 -472.46034348 149.30152467 -482.0078125 160.31640625 C-492.66410642 174.68625714 -494.94785388 190.7886669 -492.71582031 208.21923828 C-490.18958197 222.11354914 -483.36246814 234.58260587 -474 245 C-473.49339844 245.59941406 -472.98679687 246.19882812 -472.46484375 246.81640625 C-454.94480612 266.1287751 -427.23712505 272.43492375 -402.3359375 274.1875 C-370.05438927 275.07496524 -336.97792686 262.33469083 -313 241 C-312.15050781 240.28199219 -311.30101562 239.56398438 -310.42578125 238.82421875 C-304.18216227 233.44112919 -298.98922324 227.55245078 -294 221 C-293.10861328 219.83210938 -293.10861328 219.83210938 -292.19921875 218.640625 C-279.60521666 201.38539455 -271.19760143 181.65362674 -266 161 C-265.34 161 -264.68 161 -264 161 C-263.63874023 161.77375977 -263.27748047 162.54751953 -262.90527344 163.34472656 C-247.76432543 195.62564856 -230.09402146 225.71166852 -205.32226562 251.61474609 C-204.17857825 252.81291489 -203.04888643 254.02441367 -201.921875 255.23828125 C-186.46338279 271.44371741 -164.70135354 285.01831985 -142 286 C-132.98388117 285.54290906 -125.03234953 282.39207816 -118.625 275.9375 C-114.94445004 271.33681255 -114.0615952 265.67115328 -113 260 C-113.66 260 -114.32 260 -115 260 C-115.2475 260.721875 -115.495 261.44375 -115.75 262.1875 C-118.25071753 267.81411445 -121.7679219 271.23512812 -127.1875 274.04296875 C-136.09131847 277.07274031 -145.65282283 275.73233439 -153.98828125 271.71484375 C-205.10826717 242.60761441 -238.01849908 171.27236413 -253.0625 117 C-253.75506195 114.34066918 -254.38531234 111.67947939 -255 109 C-255.24234375 107.98035156 -255.4846875 106.96070313 -255.734375 105.91015625 C-259.56878276 87.02310722 -257.67990302 67.27733646 -247 51 C-241.28428921 43.02151424 -229.77534797 37.05457104 -220.16796875 35.2109375 C-201.86193043 33.42980945 -185.71835188 37.86210766 -171.1875 49.3125 C-152.91005842 65.235015 -141.62760366 87.28353124 -137 111 C-135.88128441 92.56190965 -140.18704014 71.26959676 -150.1171875 55.53125 C-151 54 -151 54 -151 52 C-150.44763672 52.09087891 -149.89527344 52.18175781 -149.32617188 52.27539062 C-103.01889837 59.7566817 -64.5458295 45.54958944 -27.00390625 18.62109375 C-25.33534707 17.41487882 -23.66738316 16.20784005 -22 15 C-20.28020061 13.76136782 -18.56014978 12.52308468 -16.83984375 11.28515625 C-13.1113356 8.59918737 -9.39009049 5.90347527 -5.67553711 3.19824219 C-1.20334148 0 -1.20334148 0 0 0 Z M-396 314 C-395 316 -395 316 -395 316 Z " fill="#FFFFFF" transform="translate(958,557)"/>
<path d="M0 0 C1.62524597 0.00090637 1.62524597 0.00090637 3.2833252 0.00183105 C86.43254233 0.12662032 168.58124511 13.98311265 322.875 71.1875 C323.96876953 71.69522949 325.06253906 72.20295898 326.18945312 72.72607422 C341.07265776 79.65776423 355.56420735 87.14461266 369.875 95.1875 C370.73512695 95.66654785 371.59525391 96.1455957 372.48144531 96.63916016 C411.27643989 118.26104038 447.70059515 143.57076206 482.04150391 171.69042969 C483.67194039 173.02169953 485.31004819 174.34356169 486.94921875 175.6640625 C492.58563171 180.21500364 497.99551249 184.95217674 503.328125 189.85546875 C505.46441749 191.81155252 507.62280657 193.72937697 509.8125 195.625 C520.60318578 205.03799796 530.81416431 214.96775517 540.92211914 225.10424805 C543.19759584 227.38511977 545.47841717 229.66054975 547.75976562 231.93554688 C549.23209181 233.40853341 550.704108 234.88182986 552.17578125 236.35546875 C552.84571609 237.02337936 553.51565094 237.69128998 554.20588684 238.37944031 C558.08177564 242.27437584 561.77910968 246.27541935 565.36494446 250.43933105 C567.44040349 252.84205925 569.59569698 255.16798512 571.75 257.5 C576.19686477 262.38086809 580.39928901 267.41125524 584.54248047 272.55029297 C586.05721604 274.41138068 587.59171785 276.25507206 589.12890625 278.09765625 C596.48878276 286.93176035 603.59748163 295.89616328 610.39501953 305.17041016 C611.85849536 307.16500555 613.33327129 309.15087701 614.80859375 311.13671875 C631.13155916 333.26767815 646.10074922 356.39561228 659.875 380.1875 C660.7117627 381.61980957 660.7117627 381.61980957 661.56542969 383.08105469 C705.23191597 458.07958005 735.24130577 541.4573465 757.875 679.1875 C757.95737317 679.93763083 758.03974634 680.68776167 758.12461567 681.46062374 C758.87822724 688.91846457 759.04175887 696.31275986 759.06787109 703.80493164 C759.07604858 705.12408066 759.08422607 706.44322968 759.09265137 707.80235291 C759.11864932 712.15076721 759.1341889 716.49918985 759.1484375 720.84765625 C759.15381231 722.36696308 759.15918978 723.8862699 759.16456985 725.40557671 C759.1861945 731.75648835 759.20490515 738.10739776 759.21619225 744.45833683 C759.23081708 752.62382872 759.25487265 760.78899908 759.30712891 768.9543457 C759.52853166 804.30462727 759.73335236 839.20440201 753.875 874.1875 C753.58890168 875.93271626 753.30314475 877.67798851 753.01768494 879.42330933 C740.13913208 957.61335703 716.24344093 1032.28507202 680.875 1103.1875 C680.02035156 1104.90283936 680.02035156 1104.90283936 679.1484375 1106.65283203 C667.11538259 1130.66056231 653.47207823 1153.65246842 638.875 1176.1875 C637.87339844 1177.734375 637.87339844 1177.734375 636.8515625 1179.3125 C634.88961319 1182.29267617 632.89159142 1185.24398411 630.875 1188.1875 C630.39901367 1188.88359375 629.92302734 1189.5796875 629.43261719 1190.296875 C616.43430474 1209.24976605 602.56642184 1227.51569528 587.875 1245.1875 C587.38660645 1245.77499023 586.89821289 1246.36248047 586.39501953 1246.96777344 C581.02385218 1253.40884413 575.54401252 1259.73848535 569.90234375 1265.9453125 C568.13532801 1267.89958424 566.40586471 1269.87809737 564.6875 1271.875 C554.88805902 1283.06177757 544.50014971 1293.66415803 534 1304.1875 C533.46038635 1304.72970184 532.92077271 1305.27190369 532.36480713 1305.83053589 C526.92949404 1311.28639583 521.48141416 1316.6773929 515.62304688 1321.68457031 C512.85895461 1324.06107198 510.22074061 1326.56914079 507.5625 1329.0625 C502.74744557 1333.54170159 497.80968156 1337.7951977 492.6796875 1341.9140625 C490.13187809 1343.97927848 487.63206551 1346.08725685 485.14135742 1348.22021484 C478.78929229 1353.65674359 472.28758235 1358.84219782 465.61132812 1363.87646484 C463.80399644 1365.24111208 462.00348186 1366.61444872 460.203125 1367.98828125 C396.81531866 1416.16623991 325.93089614 1453.82234338 250.875 1480.1875 C249.76801758 1480.5788916 248.66103516 1480.9702832 247.52050781 1481.37353516 C181.93131306 1504.41122448 112.2762486 1517.67058041 42.875 1521.1875 C41.7833252 1521.24389648 40.69165039 1521.30029297 39.56689453 1521.35839844 C-46.51326238 1525.60647743 -133.68590991 1515.74926809 -243.125 1482.1875 C-244.40633546 1481.75400322 -245.68774883 1481.32073667 -246.96923828 1480.88769531 C-291.47216495 1465.80464395 -334.72547225 1446.35905757 -375.37060547 1422.78027344 C-377.96889104 1421.27777255 -380.57852026 1419.79722757 -383.19140625 1418.3203125 C-418.4345297 1398.17799671 -451.99739511 1374.20391533 -483.125 1348.1875 C-483.63869141 1347.75872559 -484.15238281 1347.32995117 -484.68164062 1346.88818359 C-491.19070056 1341.44659405 -497.60380891 1335.92211698 -503.8828125 1330.21484375 C-505.83708424 1328.44782801 -507.81559737 1326.71836471 -509.8125 1325 C-520.99927757 1315.20055902 -531.60165803 1304.81264971 -542.125 1294.3125 C-542.66720184 1293.77288635 -543.20940369 1293.23327271 -543.76803589 1292.67730713 C-549.22389583 1287.24199404 -554.6148929 1281.79391416 -559.62207031 1275.93554688 C-561.99857198 1273.17145461 -564.50664079 1270.53324061 -567 1267.875 C-571.48367269 1263.05513923 -575.7412423 1258.11246022 -579.86328125 1252.9765625 C-581.87122664 1250.50044332 -583.92594465 1248.07311044 -586.00537109 1245.65698242 C-592.48342574 1238.11541826 -598.52652713 1230.27390654 -604.50634766 1222.33398438 C-606.07469999 1220.25420251 -607.65156531 1218.18115302 -609.23046875 1216.109375 C-615.68297756 1207.61393487 -621.85666011 1198.96206537 -627.82226562 1190.11816406 C-629.06900429 1188.27048614 -630.32312934 1186.42801245 -631.578125 1184.5859375 C-650.49145681 1156.67989493 -667.03689559 1127.30886555 -682.125 1097.1875 C-682.97989014 1095.48376221 -682.97989014 1095.48376221 -683.85205078 1093.74560547 C-722.85701525 1015.54331088 -746.18033386 930.11503098 -722.125 522.625 C-710.79036247 488.94196807 -697.487157 456.38440707 -681.76513672 424.51904297 C-680.2581215 421.45790428 -678.76896373 418.38884113 -677.28515625 415.31640625 C-671.12676734 402.66011026 -664.26061896 390.50212371 -657.04321289 378.42163086 C-655.63000831 376.03895032 -654.23177983 373.65041168 -652.84545898 371.25219727 C-647.0066547 361.17749222 -640.81076837 351.41080244 -634.3125 341.75 C-633.83288818 341.03415741 -633.35327637 340.31831482 -632.85913086 339.58078003 C-611.95477844 308.38607531 -589.08906602 278.23791398 -563.39624023 250.80004883 C-560.85758048 248.08680306 -558.38353359 245.33588384 -555.96191406 242.51733398 C-552.09580018 238.09224066 -548.00722857 233.92532205 -543.84765625 229.77734375 C-543.07747665 229.00620743 -542.30729706 228.23507111 -541.51377869 227.44056702 C-539.89558627 225.82169847 -538.27614788 224.20407449 -536.65551758 222.58764648 C-534.19432768 220.13181282 -531.73852191 217.67068635 -529.28320312 215.20898438 C-527.70084133 213.62728347 -526.11816933 212.04589283 -524.53515625 210.46484375 C-523.81094986 209.73861313 -523.08674347 209.01238251 -522.34059143 208.2641449 C-518.30282402 204.2446238 -514.17279741 200.39250994 -509.85284424 196.67723083 C-507.45542039 194.61019485 -505.1375103 192.46033222 -502.8125 190.3125 C-497.92612002 185.86061345 -492.88964457 181.6544687 -487.74462891 177.50683594 C-485.93515192 176.03285137 -484.14466395 174.53759746 -482.35546875 173.0390625 C-472.33863757 164.66837484 -462.06372068 156.71471776 -451.55224609 148.97509766 C-450.00058129 147.8323407 -448.45119429 146.68648018 -446.90478516 145.53662109 C-418.2342198 124.22218981 -387.47982472 105.2833822 -355.87890625 88.64453125 C-353.28356484 87.27139317 -350.70281014 85.87445569 -348.125 84.46875 C-297.69375236 57.18167283 -242.57892731 37.35726757 -187.125 23.1875 C-185.85221191 22.86201172 -184.57942383 22.53652344 -183.26806641 22.20117188 C-143.90681761 12.29493876 -103.62332302 5.82153243 -63.1875 2.4375 C-62.13003571 2.34861511 -62.13003571 2.34861511 -61.0512085 2.25793457 C-40.72192273 0.58251298 -20.39410636 -0.02129562 0 0 Z M-72.125 39.1875 C-72.93551819 39.27235657 -73.74603638 39.35721313 -74.58111572 39.44464111 C-151.39909575 47.6004091 -226.47646907 67.88291628 -412.125 165.1875 C-412.83285645 165.68958984 -413.54071289 166.19167969 -414.27001953 166.70898438 C-433.32785983 180.25567217 -451.6407146 194.59443338 -469.43798828 209.75488281 C-471.10850403 211.17349155 -472.78601042 212.58343802 -474.46484375 213.9921875 C-489.27798289 226.47372785 -503.04409007 240.01572518 -516.75 253.6875 C-517.3609552 254.29577637 -517.9719104 254.90405273 -518.60137939 255.53076172 C-524.99968619 261.90776879 -531.2699819 268.30153869 -537.125 275.1875 C-538.74467817 276.96320221 -540.36911718 278.73458307 -542 280.5 C-546.09257435 284.98763432 -549.97770834 289.59680228 -553.7890625 294.32421875 C-555.84235157 296.84104298 -557.93969814 299.31213679 -560.06005859 301.77246094 C-566.23041384 308.95115854 -571.93081486 316.42357545 -577.54052734 324.04541016 C-579.13480067 326.20074979 -580.74695757 328.34162872 -582.36328125 330.48046875 C-603.41131199 358.46980602 -622.26862534 388.36025944 -638.61523438 419.328125 C-639.66586823 421.31794125 -640.72229632 423.30470443 -641.78320312 425.2890625 C-668.30859784 474.93072566 -688.08040294 527.72910684 -702.125 582.1875 C-702.30697937 582.89007935 -702.48895874 583.59265869 -702.67645264 584.31652832 C-708.88447609 608.36116754 -713.38440289 632.64430281 -717.125 657.1875 C-717.23392578 657.90210388 -717.34285156 658.61670776 -717.45507812 659.35296631 C-725.47935926 712.54694788 -727.00734671 767.62762592 -722.125 821.1875 C-722.06183594 821.89362427 -721.99867188 822.59974854 -721.93359375 823.32727051 C-714.72912117 903.49027146 -694.62887502 981.57713669 -636.72705078 1106.31152344 C-635.05268652 1109.31731604 -633.39845855 1112.33362645 -631.74609375 1115.3515625 C-610.30848691 1154.32437236 -584.63452447 1191.51294434 -555.62109375 1225.2578125 C-553.31504939 1227.96443733 -551.09051747 1230.7192574 -548.875 1233.5 C-543.81841915 1239.71651338 -538.30695388 1245.48547438 -532.796875 1251.296875 C-529.81296117 1254.44504096 -526.89671453 1257.64617807 -524 1260.875 C-518.64101905 1266.74320538 -513.04885733 1272.3739214 -507.4375 1278 C-506.54595215 1278.89614014 -505.6544043 1279.79228027 -504.73583984 1280.71557617 C-500.26179716 1285.17920636 -495.73225617 1289.5043041 -490.93676758 1293.62084961 C-488.15673239 1296.024769 -485.49264439 1298.54856939 -482.8125 1301.0625 C-478.01638606 1305.52451824 -473.09658705 1309.75535648 -467.984375 1313.85546875 C-465.33729385 1316.0143587 -462.75845488 1318.23068553 -460.18579102 1320.4765625 C-452.75542758 1326.95128221 -445.01971522 1332.89454789 -437.08251953 1338.73144531 C-435.27393815 1340.07671588 -433.49063144 1341.44781084 -431.71484375 1342.8359375 C-400.90244846 1366.77453056 -366.72246263 1387.29071402 -332.125 1405.1875 C-331.54190063 1405.49000671 -330.95880127 1405.79251343 -330.35803223 1406.10418701 C-257.08541059 1444.09032195 -178.13541899 1468.54296718 -58.125 1484.1875 C-56.21460938 1484.3419458 -56.21460938 1484.3419458 -54.265625 1484.49951172 C-16.37757612 1487.46568689 22.00554288 1487.40009282 59.875 1484.1875 C60.95252533 1484.09628876 60.95252533 1484.09628876 62.05181885 1484.00323486 C135.50626863 1477.67546989 207.73198678 1460.35749758 275.875 1432.1875 C277.03435059 1431.71151367 278.19370117 1431.23552734 279.38818359 1430.74511719 C309.45823775 1418.31797565 338.9411699 1403.88499233 366.875 1387.1875 C368.41921631 1386.26638428 368.41921631 1386.26638428 369.99462891 1385.32666016 C401.63568934 1366.35712027 431.51812633 1345.04110925 460.04589844 1321.68017578 C461.66232209 1320.36106017 463.28754521 1319.05274325 464.9140625 1317.74609375 C470.77367315 1313.02632091 476.35270132 1308.0865922 481.85546875 1302.9609375 C484.12686392 1300.85395761 486.44398509 1298.80706981 488.78125 1296.7734375 C499.2149781 1287.67799938 509.13697841 1278.01895329 518.9375 1268.25 C519.72229736 1267.46979492 520.50709473 1266.68958984 521.31567383 1265.88574219 C525.45983702 1261.73049479 529.43577253 1257.49059119 533.2644043 1253.04321289 C535.68694621 1250.25198338 538.22190911 1247.57024091 540.75 1244.875 C545.21201824 1240.07888606 549.44285648 1235.15908705 553.54296875 1230.046875 C555.7018587 1227.39979385 557.91818553 1224.82095488 560.1640625 1222.24829102 C566.63878221 1214.81792758 572.58204789 1207.08221522 578.41894531 1199.14501953 C579.76421588 1197.33643815 581.13531084 1195.55313144 582.5234375 1193.77734375 C598.06814662 1173.76264834 612.11744422 1152.07265768 624.875 1130.1875 C625.33986816 1129.39617676 625.80473633 1128.60485352 626.28369141 1127.78955078 C634.27223503 1114.15678474 641.68165361 1100.25365748 648.875 1086.1875 C649.2457666 1085.46788086 649.6165332 1084.74826172 649.99853516 1084.00683594 C686.80162576 1012.51274027 710.25606732 933.58889665 724.875 808.1875 C724.91630035 807.53317993 724.95760071 806.87885986 725.00015259 806.20471191 C725.92477287 791.28365477 726.07631506 776.38411399 726.0625 761.4375 C726.06189575 760.22451233 726.0612915 759.01152466 726.06066895 757.76177979 C726.03512039 738.82064465 725.63900232 720.05705195 723.875 701.1875 C723.744773 699.75114102 723.6145654 698.31478027 723.484375 696.87841797 C716.05574586 616.18249047 695.59218918 537.32535511 620.875 385.1875 C620.23385254 384.13369141 619.59270508 383.07988281 618.93212891 381.99414062 C610.41009105 368.02644008 601.46648974 354.44348568 591.875 341.1875 C590.98699707 339.95942627 590.98699707 339.95942627 590.08105469 338.70654297 C580.01291343 324.82817322 569.62568201 311.29158004 558.48046875 298.26171875 C556.11635813 295.49050845 553.83656042 292.65822811 551.5625 289.8125 C547.277493 284.53923913 542.68195987 279.59368061 538.01049805 274.66455078 C535.1415709 271.6350754 532.33036016 268.57881884 529.60961914 265.41503906 C526.11597611 261.41188723 522.45357384 257.6209158 518.69140625 253.87109375 C518.03220688 253.21093765 517.37300751 252.55078156 516.6938324 251.87062073 C515.31103165 250.48714494 513.92698924 249.10490917 512.54174805 247.72387695 C510.44269657 245.63018331 508.3490406 243.53120126 506.25585938 241.43164062 C504.90136214 240.07780429 503.54655469 238.72427825 502.19140625 237.37109375 C501.57656876 236.75423203 500.96173126 236.1373703 500.32826233 235.5018158 C496.55789827 231.75134443 492.66915789 228.1883955 488.64129639 224.71568298 C486.23380924 222.6327478 483.90076133 220.47257345 481.5625 218.3125 C477.07001362 214.21550073 472.45592718 210.32629574 467.72265625 206.51171875 C465.27613354 204.5148998 462.87934491 202.47236257 460.49291992 200.40454102 C451.33319797 192.50138742 441.61372419 185.35509451 431.875 178.1875 C431.12589355 177.63304199 430.37678711 177.07858398 429.60498047 176.50732422 C352.89002956 119.80346911 264.70910596 78.30308012 64.890625 38.37890625 C63.02283578 38.20153867 61.15590285 38.01521575 59.2890625 37.828125 C16.10993828 33.63984967 -29.01572614 34.6562919 -72.125 39.1875 Z " fill="#FFFFFF" transform="translate(764.125,0.8125)"/>
<path d="M0 0 C4.82825731 1.33393295 8.46924722 3.44063005 12.375 6.5 C12.94299316 6.94359863 13.51098633 7.38719727 14.09619141 7.84423828 C19.23453407 11.98268724 23.28388551 16.53706451 27 22 C27.59167969 22.84433594 28.18335938 23.68867188 28.79296875 24.55859375 C32.77634824 30.75789296 35.36262148 37.17995657 37.75 44.125 C38.03174072 44.92848877 38.31348145 45.73197754 38.60375977 46.55981445 C43.25675091 60.83815165 44.50476876 75.42874725 44.39111328 90.36132812 C44.37487137 92.89506705 44.39116085 95.42724294 44.41015625 97.9609375 C44.41945196 106.16650387 43.98587057 113.47995296 41.68115234 121.41796875 C40.60827535 125.48490319 40.55520991 129.37752916 40.625 133.5625 C40.63370117 134.50174316 40.64240234 135.44098633 40.65136719 136.40869141 C42.19279175 218.31898205 57.39285052 304.12110714 96.05126953 377.08422852 C98.33904752 381.70393873 98.47388256 385.94823305 98 391 C95.29127103 397.85149093 88.91962504 401.80943648 82.4375 404.6875 C71.96048223 408.75535584 61.17696094 410.40635189 50 411 C50.45890625 411.40089844 50.9178125 411.80179688 51.390625 412.21484375 C57.22618501 417.62131847 61.05541048 423.30581426 61.5 431.4375 C60.78245729 443.96188181 52.54371915 451.95574555 43.75 460 C40.99621084 462.34072078 38.53352121 464.00619716 35 465 C35.680625 465.66 36.36125 466.32 37.0625 467 C50.00859803 480.01986497 50.00859803 480.01986497 50.4375 489 C50.2429649 493.8273526 49.33437265 496.34806805 46 500 C42.75343972 502.78194653 39.381459 505.38520813 36 508 C29.04767695 513.63541544 23.63037246 518.81062794 22 528 C21.79941151 542.75439766 26.97565786 555.74523136 33.47045898 568.67944336 C39.53275327 580.78448727 41.78967874 594.93771163 37.4375 608.125 C35.11515082 613.40752666 31.82570606 617.71651715 28 622 C27.49984375 622.59296875 26.9996875 623.1859375 26.484375 623.796875 C-0.94310672 653.99480942 -54.71603855 658.75195355 -92.59765625 660.88671875 C-93.39042969 660.92410156 -94.18320313 660.96148438 -95 661 C-94.94779297 662.31871094 -94.94779297 662.31871094 -94.89453125 663.6640625 C-93.96188032 708.69777865 -105.90518877 754.1083105 -119.9375 796.5625 C-120.17674194 797.29052826 -120.41598389 798.01855652 -120.66247559 798.76864624 C-121.33700456 800.80878512 -122.02316945 802.84452472 -122.71484375 804.87890625 C-123.10792725 806.0397876 -123.50101074 807.20066895 -123.90600586 808.39672852 C-125 811 -125 811 -127 812 C-125.59240933 803.51935113 -123.68574404 795.17836256 -121.71569824 786.81588745 C-116.55549773 764.80155617 -112.42418338 742.77098698 -109.75 720.3125 C-109.66673462 719.61832977 -109.58346924 718.92415955 -109.49768066 718.20895386 C-107.47801878 701.14819268 -106.790928 684.17430554 -106.8125 667 C-106.81310425 666.10403107 -106.8137085 665.20806213 -106.81433105 664.28494263 C-106.86634348 635.75137087 -108.78931988 607.20265212 -118 580 C-118.25700684 579.21077148 -118.51401367 578.42154297 -118.77880859 577.60839844 C-127.04477428 552.38572938 -138.9883247 528.85427154 -154 507 C-154.45858398 506.32984863 -154.91716797 505.65969727 -155.38964844 504.96923828 C-158.18081907 500.91982229 -161.06059003 496.94283657 -164 493 C-164.46615723 492.37464355 -164.93231445 491.74928711 -165.41259766 491.10498047 C-169.41733531 485.74377813 -173.42856348 480.38687386 -177.47509766 475.05712891 C-195.6644776 451.07604468 -204.77702102 427.90244928 -201.74365234 397.42431641 C-199.93799624 384.43821097 -195.85706712 371.7082619 -192.26196289 359.12304688 C-188.45965057 345.72067737 -185.41951064 332.52317064 -185.5625 318.5 C-185.57007324 317.42903076 -185.57764648 316.35806152 -185.58544922 315.25463867 C-185.97410297 296.41344217 -192.95166614 280.5854818 -202.81494141 264.82397461 C-216.20676645 243.33354503 -223.84066755 221.39415592 -218.09375 195.87890625 C-213.89613709 180.18191674 -205.96710733 163.7813111 -193.859375 152.71484375 C-191.93143084 150.9367608 -190.26026263 149.06009686 -188.5625 147.0625 C-185.28869347 143.25175937 -181.76636029 139.74921835 -178.19140625 136.22265625 C-175.57898932 133.5729856 -173.16697379 130.78827197 -170.74609375 127.96484375 C-168.90384325 125.89179676 -166.97598338 123.94564198 -165 122 C-162.46185201 119.50060236 -160.05871697 116.96218208 -157.75 114.25 C-154.21941667 110.13638456 -150.40553976 106.34496288 -146.52636719 102.56347656 C-143.78437568 99.86904461 -141.19245735 97.10523963 -138.68359375 94.19140625 C-134.6802046 89.56568306 -130.39765185 85.25070172 -126.0625 80.9375 C-125.30259766 80.17373047 -124.54269531 79.40996094 -123.75976562 78.62304688 C-119.59180293 74.46220282 -115.33705281 70.47472892 -110.8737793 66.63305664 C-108.53133818 64.59154672 -106.28280594 62.46261408 -104.03149414 60.32177734 C-97.26149818 53.89801404 -90.23584705 47.97245587 -82.78857422 42.3515625 C-81.58286129 41.44044774 -80.38143144 40.52364067 -79.18408203 39.6015625 C-60.02744927 24.85080247 -36.90790745 10.57055332 -12 11 C-11.96132812 12.70929688 -11.96132812 12.70929688 -11.921875 14.453125 C-10.95294983 44.79441723 -2.07473082 69.46928698 17 93 C16.38125 92.10474609 16.38125 92.10474609 15.75 91.19140625 C2.92033119 71.91826538 -4.40131497 50.94499697 -4.375 27.6875 C-4.37628906 26.50502686 -4.37757813 25.32255371 -4.37890625 24.10424805 C-4.2745383 15.482625 -3.32592259 8.03269697 0 0 Z " fill="#FFFFFF" transform="translate(1218,337)"/>
<path d="M0 0 C2.375 2.5625 2.375 2.5625 2.375 4.5625 C1.78412598 4.74723877 1.19325195 4.93197754 0.58447266 5.12231445 C-37.52260699 17.15093512 -73.56306541 34.74583641 -107.625 55.5625 C-109.41001809 56.63825013 -111.19517359 57.71377227 -112.98046875 58.7890625 C-136.82250655 73.25390635 -159.66027266 89.39057476 -181.625 106.5625 C-182.75221671 107.4314924 -183.87983099 108.29996931 -185.0078125 109.16796875 C-193.27440165 115.5588477 -201.20826295 122.27935222 -209.05224609 129.18066406 C-210.96347471 130.85988697 -212.88875566 132.52264465 -214.8125 134.1875 C-219.59017252 138.3807791 -224.26333795 142.68879334 -228.93164062 147.00292969 C-230.68263804 148.61558417 -232.44262149 150.21804585 -234.203125 151.8203125 C-243.48030783 160.31483223 -252.1420093 169.27758027 -260.625 178.5625 C-255.00928583 174.89327802 -249.56900679 171.08520936 -244.25 167 C-237.49199698 161.8687136 -230.56635219 157.03102557 -223.54223633 152.27246094 C-218.95541794 149.16354003 -214.42279936 146.00361327 -209.9375 142.75 C-194.96194643 131.93068715 -179.36475142 121.92389278 -163.80810547 111.96386719 C-161.47285571 110.46483637 -159.14471754 108.95509487 -156.81640625 107.4453125 C-133.30142089 92.26537263 -109.0984704 78.1352222 -84.625 64.5625 C-83.77486328 64.0886084 -82.92472656 63.6147168 -82.04882812 63.12646484 C-59.76134482 50.72236856 -37.16891195 38.72478338 -13.875 28.3125 C-12.15591431 27.54401733 -12.15591431 27.54401733 -10.40209961 26.76000977 C-7.1549146 25.33067596 -3.89587187 23.93669994 -0.625 22.5625 C0.54224609 22.06685547 1.70949219 21.57121094 2.91210938 21.06054688 C4.06001953 20.59197266 5.20792969 20.12339844 6.390625 19.640625 C7.41961914 19.2168457 8.44861328 18.79306641 9.50878906 18.35644531 C12.66448621 17.48231183 14.30047274 17.49160093 17.375 18.5625 C19.33759293 20.59348632 20.95948264 22.49794 22.625 24.75 C23.10171143 25.3785791 23.57842285 26.0071582 24.06958008 26.65478516 C30.83788083 35.69948091 36.76994125 45.04427072 41.875 55.125 C42.38293091 56.12539307 42.38293091 56.12539307 42.90112305 57.14599609 C44.59187803 60.59056453 45.84841958 63.75210557 46.375 67.5625 C45.62476563 67.4903125 44.87453125 67.418125 44.1015625 67.34375 C3.75360089 63.68499278 -29.07894547 81.47975788 -59.3203125 106.60546875 C-62.79895709 109.54346892 -66.23477895 112.52286194 -69.625 115.5625 C-70.46184326 116.31104248 -71.29868652 117.05958496 -72.16088867 117.83081055 C-80.14080615 125.05233667 -87.7929042 132.57631095 -95.39038086 140.19750977 C-97.44857157 142.26110061 -99.5121098 144.31923675 -101.57617188 146.37695312 C-102.91177934 147.7132209 -104.24707684 149.04979857 -105.58203125 150.38671875 C-106.18634476 150.98900803 -106.79065826 151.5912973 -107.4132843 152.21183777 C-111.12516162 155.94384028 -114.63891015 159.8022978 -118.08183289 163.78352356 C-119.79117386 165.75406667 -121.54957622 167.66900211 -123.34375 169.5625 C-123.96636719 170.2225 -124.58898438 170.8825 -125.23046875 171.5625 C-126.49348958 172.89583333 -127.75651042 174.22916667 -129.01953125 175.5625 C-132.78676121 179.55591975 -136.4583679 183.61327934 -140.05761719 187.75878906 C-142.01263901 190.00858677 -144.00233976 192.22553138 -146 194.4375 C-146.75796875 195.27796875 -147.5159375 196.1184375 -148.296875 196.984375 C-149.84895833 198.703125 -151.40104167 200.421875 -152.953125 202.140625 C-156.32885022 205.88377609 -159.69637435 209.63046472 -163 213.4375 C-167.30700791 218.37964272 -171.75865654 223.18908632 -176.19873047 228.01123047 C-178.45071341 230.46057994 -180.69292651 232.91886141 -182.9375 235.375 C-184.3442154 236.90717247 -185.75210784 238.43825173 -187.16064453 239.96875 C-188.14256329 241.03743384 -189.12268874 242.10776798 -190.10107422 243.1796875 C-198.02210882 251.85135018 -206.20622183 260.24873563 -214.5 268.5625 C-214.99213989 269.05722809 -215.48427979 269.55195618 -215.99133301 270.06167603 C-221.16824451 275.26008059 -226.38708874 280.36096813 -231.96191406 285.13574219 C-234.05102032 286.92798191 -236.0509469 288.80903643 -238.0625 290.6875 C-268.47967116 318.1097497 -307.9665856 343.70261407 -350.48535156 341.72802734 C-356.94024448 341.22866434 -363.31972932 339.99731107 -369.625 338.5625 C-370.65729736 338.32772949 -371.68959473 338.09295898 -372.75317383 337.85107422 C-375.625 336.5625 -375.625 336.5625 -376.76391602 334.17382812 C-377.03739868 332.64918945 -377.03739868 332.64918945 -377.31640625 331.09375 C-377.53699707 329.918125 -377.75758789 328.7425 -377.98486328 327.53125 C-378.20040337 326.20868373 -378.41369635 324.88574972 -378.625 323.5625 C-378.86524556 322.15616841 -379.10598308 320.7499208 -379.34716797 319.34375 C-380.14257622 314.5916226 -380.85876789 309.82895109 -381.5625 305.0625 C-381.7556781 303.7645903 -381.7556781 303.7645903 -381.95275879 302.44046021 C-394.98730544 214.44119318 -394.40246142 125.52342825 -351.9375 -90.33203125 C-348.72795699 -100.12184535 -349.36122766 -108.48734806 -351.625 -118.4375 C-248.61347554 -129.90377382 -138.80078629 -100.48670667 0 0 Z " fill="#FFFFFF" transform="translate(1178.625,255.4375)"/>
<path d="M0 0 C-0.30035156 0.75796875 -0.60070312 1.5159375 -0.91015625 2.296875 C-2.36589308 7.24324959 -2.89185632 12.13200046 -3.4375 17.25 C-3.56237793 18.39807129 -3.68725586 19.54614258 -3.81591797 20.72900391 C-4.97968887 31.92648499 -5.82241534 43.14660079 -6.625 54.375 C-6.68734833 55.24257935 -6.74969666 56.11015869 -6.81393433 57.00402832 C-13.07109487 144.90129627 -12.60015564 236.21925462 37.40625 410.79296875 C38.91041123 413.81972455 40.01981473 416.77028953 41 420 C39.9584375 420.1959375 38.916875 420.391875 37.84375 420.59375 C19.14396754 424.37946058 3.38375937 432.14874661 -7.77514648 448.05249023 C-15.02162348 459.02494406 -18.3871962 471.21213099 -21 484 C-27.05986755 480.11587574 -32.68941033 475.95257023 -38.1875 471.3125 C-43.48069286 466.89586827 -48.80402547 462.53944488 -54.25 458.3125 C-59.93470601 453.88953327 -65.4449858 449.28987535 -70.921875 444.61328125 C-73.7270732 442.22117731 -76.57463157 439.88544149 -79.4375 437.5625 C-89.34402545 429.48465003 -98.96578691 421.11737811 -108.34765625 412.4375 C-110.47490534 410.48256122 -112.62272252 408.57117955 -114.8125 406.6875 C-126.33341289 396.67171322 -137.21891912 385.94571822 -147.99169922 375.13867188 C-150.023262 373.10167579 -152.06021836 371.07018049 -154.09765625 369.0390625 C-155.41959207 367.71646683 -156.74121817 366.39356151 -158.0625 365.0703125 C-158.95485352 364.18099533 -158.95485352 364.18099533 -159.86523438 363.27371216 C-163.55235444 359.56626253 -167.04772164 355.73421075 -170.46316528 351.77494812 C-172.54965694 349.36518056 -174.71217272 347.02874232 -176.875 344.6875 C-180.91279322 340.25503526 -184.77307434 335.72257823 -188.53515625 331.0546875 C-190.34085175 328.8168842 -192.15979312 326.59518101 -193.99609375 324.3828125 C-216.5092309 297.1574641 -235.15306293 267.54189318 -251 236 C-251.38140137 235.24654297 -251.76280273 234.49308594 -252.15576172 233.71679688 C-269.17488239 199.85117915 -280.02302638 161.65503405 -284 124 C-284.12503906 123.071875 -284.25007813 122.14375 -284.37890625 121.1875 C-283.78590443 117.76398436 -281.84651359 116.8406257 -279.0625 114.875 C-278.2588501 114.30313965 -278.2588501 114.30313965 -277.43896484 113.71972656 C-275.64117862 112.45603202 -273.82432608 111.22503284 -272 110 C-271.37883301 109.57944336 -270.75766602 109.15888672 -270.11767578 108.72558594 C-200.0228603 61.56927661 -119.10732956 30.36894793 -18.5625 2.8125 C-17.79517548 2.60960358 -17.02785095 2.40670715 -16.23727417 2.19766235 C-14.07839098 1.62914838 -11.91685204 1.07235921 -9.75390625 0.51953125 C-7.90261108 0.04157104 -7.90261108 0.04157104 -6.01391602 -0.44604492 C-3 -1 -3 -1 0 0 Z " fill="#FFFFFF" transform="translate(696,151)"/>
<path d="M0 0 C0.66 0 1.32 0 2 0 C2.11480713 0.59611084 2.22961426 1.19222168 2.34790039 1.80639648 C14.01310821 61.67108051 38.26887986 117.20335599 75 166 C75.84228418 167.13717857 76.68349843 168.2751507 77.5234375 169.4140625 C87.58887694 182.98351157 98.34995462 196.00575733 109.734375 208.48828125 C111.6086421 210.56613254 113.45044501 212.66480259 115.28515625 214.77734375 C118.99381779 219.02352837 122.8181912 223.15023972 126.6875 227.25 C127.38230469 227.98653809 128.07710937 228.72307617 128.79296875 229.48193359 C136.61998512 237.74957933 144.46320333 245.97280945 153.140625 253.359375 C155.18300828 255.16147789 157.08901711 257.05938947 159 259 C162.1711603 262.21434731 165.45582753 265.21750963 168.87890625 268.16015625 C171.22491058 270.19508819 173.5173645 272.28290967 175.8125 274.375 C180.10122488 278.24594954 184.52108705 281.91371894 189.01171875 285.546875 C192.40750304 288.33452537 195.73671906 291.19210901 199.0625 294.0625 C204.60955245 298.8397087 210.23991178 303.4804127 216 308 C217.0209375 308.80566406 218.041875 309.61132812 219.09375 310.44140625 C222.06355312 312.78322382 225.03970724 315.11683093 228.01806641 317.44775391 C229.37280562 318.50878272 230.72660438 319.57101312 232.07958984 320.63427734 C245.29139118 331.01476416 258.75707689 341.01435705 272.3515625 350.88671875 C273.22369385 351.52287109 274.0958252 352.15902344 274.99438477 352.81445312 C276.67138545 354.03756837 278.3514377 355.25651363 280.03491211 356.47070312 C280.78780518 357.02048828 281.54069824 357.57027344 282.31640625 358.13671875 C282.98099854 358.61842529 283.64559082 359.10013184 284.33032227 359.59643555 C286 361 286 361 288 364 C282.15676025 362.18597177 276.72215566 360.03448754 271.25 357.3125 C247.37123092 345.74498167 222.67862072 335.55547599 198.01538086 325.79766846 C196.60502408 325.23946274 195.19506292 324.68025691 193.78540039 324.12030029 C127.72050725 297.8813839 60.35268306 276.34630614 -8 257 C-7.18958252 257.29396164 -6.37916504 257.58792328 -5.54418945 257.89079285 C66.96963751 284.20757937 137.83061873 313.90422895 207.02282715 348.02606201 C209.72391226 349.35659282 212.42858481 350.67977682 215.1328125 352.00390625 C225.23767297 356.97607815 235.1353091 362.2834305 245 367.71484375 C250.5803513 370.78234481 256.19327566 373.78705962 261.81274414 376.78198242 C264.25247643 378.08254167 266.68912932 379.38857768 269.12280273 380.70043945 C276.41532114 384.63135812 276.41532114 384.63135812 283.78515625 388.4140625 C293.38122446 393.3260837 293.38122446 393.3260837 295.375 399 C295.60183615 400.33031046 295.81349078 401.66343916 296 403 C286.19658829 401.30326769 276.77994684 398.41828786 267.25390625 395.6015625 C265.39086399 395.05405662 263.52771756 394.5069051 261.66447449 393.96008301 C256.66847091 392.49255813 251.67412505 391.01946783 246.68016052 389.54502106 C242.48616432 388.30737354 238.29130556 387.07266333 234.09647179 385.8378582 C220.7279047 381.90230368 207.36294936 377.95458389 194 374 C192.75666523 373.63207336 192.75666523 373.63207336 191.48821259 373.25671387 C170.81976246 367.13945498 150.16825562 360.96643514 129.52653503 354.75962067 C126.82590358 353.94765668 124.12517678 353.13601038 121.42443848 352.32440186 C108.85395274 348.54646553 96.28514533 344.76299088 83.71789551 340.9743042 C79.57295619 339.72472967 75.4276884 338.47625511 71.28210449 337.2288208 C36.42527045 326.7376519 1.56740481 316.17080114 -32.875 304.375 C-34.23124985 303.91158707 -34.23124985 303.91158707 -35.61489868 303.43881226 C-50.98445138 298.17266581 -66.1468862 292.60741665 -81 286 C-82.65612305 285.26354248 -82.65612305 285.26354248 -84.34570312 284.51220703 C-119.54303937 268.66737534 -119.54303937 268.66737534 -126.9375 253.4375 C-128.59036986 248.08997987 -128.71960227 244.09141664 -126.375 239 C-120.3991398 228.3375919 -110.81230646 222.29453474 -100 217 C-100.01047363 216.18660156 -100.02094727 215.37320313 -100.03173828 214.53515625 C-100.87383172 138.72542792 -77.69133664 77.94197162 -25 23 C-24.46407227 22.44070801 -23.92814453 21.88141602 -23.37597656 21.30517578 C-17.30601348 15.00849405 -11.04440148 9.17426552 -4.1796875 3.7421875 C-1.96061635 2.03452708 -1.96061635 2.03452708 0 0 Z " fill="#FFFFFF" transform="translate(387,289)"/>
<path d="M0 0 C1.08941895 -0.00926514 2.17883789 -0.01853027 3.30126953 -0.02807617 C20.00988925 0.03704225 20.00988925 0.03704225 24.53491211 3.95996094 C28.38746559 8.29696726 29.9474327 11.43085843 29.87060547 17.37255859 C29.27988548 22.88937778 27.46291045 28.12383595 25.8036499 33.39675903 C24.61943585 37.1758812 23.48801845 40.97075704 22.35546875 44.765625 C22.0031015 45.94439964 22.0031015 45.94439964 21.64361572 47.14698792 C5.71679167 100.78391885 -2.93121203 156.56946668 -7.4375 212.25 C-7.49808594 212.97890442 -7.55867187 213.70780884 -7.62109375 214.45880127 C-11.17245367 257.36490142 -11.2644427 301.35895847 -7.4375 344.25 C-7.36208984 345.09641052 -7.28667969 345.94282104 -7.20898438 346.81488037 C-4.22011035 379.84866327 0.13983133 412.80224483 7.02490234 445.26586914 C7.5625 448.25 7.5625 448.25 7.5625 452.25 C5.16088483 451.11054755 2.9144867 449.8580774 0.63671875 448.48046875 C-6.78487703 444.00354304 -13.87017187 440.78815992 -22.16015625 438.2578125 C-23.24167969 437.92523437 -24.32320312 437.59265625 -25.4375 437.25 C-26.32695313 437.01925781 -27.21640625 436.78851562 -28.1328125 436.55078125 C-31.5314017 434.63259446 -32.68270704 431.73175082 -34.25 428.3125 C-34.58837891 427.60158203 -34.92675781 426.89066406 -35.27539062 426.15820312 C-36.35300509 423.86553353 -37.39899989 421.56062647 -38.4375 419.25 C-38.93902588 418.14760986 -38.93902588 418.14760986 -39.45068359 417.02294922 C-66.58991829 356.83887619 -73.00218372 288.45093496 -76.4375 223.25 C-76.47510437 222.54151917 -76.51270874 221.83303833 -76.55145264 221.10308838 C-79.3456253 167.34346791 -77.80103505 113.12554916 -73.4375 59.5 C-73.35391235 58.47142883 -73.27032471 57.44285767 -73.1842041 56.38311768 C-70.37648513 22.3575453 -70.37648513 22.3575453 -64.703125 16.44140625 C-46.84232683 2.00738913 -22.06985481 0.11687891 0 0 Z " fill="#FFFFFF" transform="translate(781.4375,135.75)"/>
<path d="M0 0 C10.38930384 8.90290567 16.80781088 19.23201701 18.37109375 32.99609375 C19.00843626 46.02807085 15.2938528 57.28223439 7.52734375 67.69921875 C1.70074616 74.09108327 -5.54344098 77.87645403 -13.50390625 81.05859375 C-14.49390625 81.05859375 -15.48390625 81.05859375 -16.50390625 81.05859375 C-16.49883057 82.20560257 -16.49375488 83.35261139 -16.48852539 84.53437805 C-16.45316866 96.16842059 -16.63304679 107.78456196 -16.94140625 119.4140625 C-16.98645712 121.18052138 -17.03129322 122.94698575 -17.07592773 124.7134552 C-17.19217146 129.29175375 -17.31126884 133.86997345 -17.43103027 138.44818115 C-17.5534535 143.14835135 -17.67308173 147.84859267 -17.79296875 152.54882812 C-18.0272644 161.71882033 -18.26458497 170.88873142 -18.50390625 180.05859375 C-23.6467037 179.44599993 -28.44140434 178.32263908 -33.3918457 176.78955078 C-34.14733704 176.56013794 -34.90282837 176.3307251 -35.68121338 176.09436035 C-38.16138734 175.33991698 -40.63926452 174.57820695 -43.1171875 173.81640625 C-44.85428647 173.28647863 -46.59152747 172.75701638 -48.3289032 172.22799683 C-52.89502539 170.8363159 -57.45924302 169.43848898 -62.02307129 168.03930664 C-66.64253945 166.62417437 -71.26370009 165.21459307 -75.88476562 163.8046875 C-81.09227912 162.21555121 -86.29961599 160.62585467 -91.50569153 159.03201294 C-99.16565863 156.68693405 -106.82582681 154.34390425 -114.50390625 152.05859375 C-113.79759956 149.01040736 -112.90236893 146.81909088 -111.203125 144.1796875 C-110.72697754 143.43356201 -110.25083008 142.68743652 -109.76025391 141.91870117 C-109.24253418 141.11924072 -108.72481445 140.31978027 -108.19140625 139.49609375 C-107.08838711 137.7722343 -105.98552679 136.04827322 -104.8828125 134.32421875 C-104.31836426 133.44572266 -103.75391602 132.56722656 -103.17236328 131.66210938 C-100.63580706 127.70398301 -98.13361818 123.72441331 -95.62890625 119.74609375 C-91.86047151 113.7745932 -88.07894071 107.81156317 -84.28466797 101.85644531 C-83.10424901 100.0018249 -81.92616002 98.14571931 -80.75048828 96.28808594 C-77.84178472 91.69693685 -74.90017727 87.13519748 -71.87890625 82.6171875 C-71.31042969 81.75416016 -70.74195313 80.89113281 -70.15625 80.00195312 C-69.07994022 78.36967719 -67.98940859 76.74666282 -66.8828125 75.13476562 C-64.07068144 71.12308016 -64.07068144 71.12308016 -63.96875 66.46875 C-64.47535156 65.67339844 -64.98195313 64.87804688 -65.50390625 64.05859375 C-66.06207031 62.94484375 -66.62023437 61.83109375 -67.1953125 60.68359375 C-68.1317691 58.86215596 -69.0739852 57.04414589 -70.02539062 55.23046875 C-74.76689876 45.9689242 -75.11087508 33.66223598 -72.31640625 23.62109375 C-67.68757146 10.80607891 -59.77992763 1.13796103 -47.50390625 -4.94140625 C-32.13755958 -11.8889566 -13.46361698 -10.43902908 0 0 Z " fill="#FFFFFF" transform="translate(800.50390625,1071.94140625)"/>
</svg>
