<?xml version="1.0" encoding="UTF-8"?>
<svg version="1.1" xmlns="http://www.w3.org/2000/svg" width="1523" height="1527">
<path d="M0 0 C0.21914063 1.26972656 0.43828125 2.53945313 0.6640625 3.84765625 C4.33540616 24.16401127 12.31269881 41.45786376 23.25 58.875 C30.92012831 71.16550382 35.19030286 83.18734087 35.375 97.75 C35.38893799 98.41523682 35.40287598 99.08047363 35.41723633 99.76586914 C35.27454876 115.65607599 30.24046055 131.53743425 26.25854492 146.7878418 C18.21433271 177.70987505 16.45586811 206.78415611 31 236 C31.4846875 236.99515625 31.969375 237.9903125 32.46875 239.015625 C35.87120603 245.63151172 40.12333804 251.41860972 44.68017578 257.28125 C46.13140002 259.17111656 47.55009513 261.08268528 48.96484375 263 C55.96894568 272.48449026 62.89990904 281.52494728 71.9296875 289.19140625 C78.48765997 294.92035201 84.43079261 301.31695114 90 308 C90.42120117 308.50208984 90.84240234 309.00417969 91.27636719 309.52148438 C121.12854834 345.29424425 144.49273547 390.50493255 144.0625 438.0625 C144.05798828 439.02349609 144.05347656 439.98449219 144.04882812 440.97460938 C144.03717706 443.31647422 144.02082025 445.65820181 144 448 C143.01 448.495 143.01 448.495 142 449 C141.67 445.37 141.34 441.74 141 438 C139.494375 437.938125 137.98875 437.87625 136.4375 437.8125 C130.25005825 437.28235534 124.25910398 436.16640758 118.1875 434.875 C117.20676514 434.6689917 116.22603027 434.4629834 115.21557617 434.25073242 C109.92665941 433.07745231 104.87223015 431.66654503 99.78515625 429.796875 C89.81603331 425.63635393 89.81603331 425.63635393 79.5 426.13671875 C76.49531044 428.51400865 74.35517681 430.98024359 72 434 C70.99424751 435.07560561 69.97547459 436.13915553 68.9453125 437.19140625 C63.52544371 442.47609578 63.52544371 442.47609578 60 449 C60.50789062 449.53367187 61.01578125 450.06734375 61.5390625 450.6171875 C73.57146015 463.64101866 79.56435776 478.08542025 79.24853516 495.92578125 C78.46548691 513.16039295 70.9200027 530.7701632 65.84490967 547.17062378 C63.85401606 553.61246007 61.87807884 560.05891699 59.89916229 566.50444031 C59.12870142 569.01338741 58.35760692 571.52213923 57.58648682 574.03088379 C52.55323593 590.41467282 47.61031859 606.8252525 42.67906189 623.23997116 C34.46880501 650.56504654 26.17329692 677.86310578 17.82163048 705.14526749 C16.68816742 708.84808245 15.55492233 712.55096406 14.421875 716.25390625 C14.1985915 716.98360626 13.975308 717.71330627 13.74525833 718.46511841 C7.48874215 738.91578814 1.29594947 759.38578742 -4.89323711 779.85691547 C-6.56329869 785.37946314 -8.23924022 790.90021783 -9.91586304 796.42077637 C-11.02421217 800.07993526 -12.12420167 803.74154647 -13.22387695 807.40332031 C-13.93414254 809.75073124 -14.64466202 812.09806537 -15.35546875 814.4453125 C-15.6731723 815.51103485 -15.99087585 816.5767572 -16.31820679 817.67477417 C-21.11803623 833.44847229 -30.35239653 846.79734205 -45 855 C-67.0507227 865.21067948 -85.58144651 861.80694445 -108.140625 854.81640625 C-109.48530522 854.40452622 -110.83015404 853.99319629 -112.17515564 853.58236694 C-115.03995208 852.70617299 -117.90363191 851.82645667 -120.76644897 850.94381714 C-125.34548073 849.53215467 -129.9270276 848.1287819 -134.5090332 846.72680664 C-139.27897395 845.26700214 -144.04880308 843.80684277 -148.81782532 842.34403992 C-163.24536309 837.91908273 -177.68541659 833.53604216 -192.1295166 829.16549683 C-196.21645019 827.92885683 -200.30308232 826.69122285 -204.38964844 825.45336914 C-209.17655361 824.00341008 -213.96349438 822.55356883 -218.75051689 821.10399723 C-227.66342962 818.40503789 -236.57593853 815.70474719 -245.48828125 813.00390625 C-246.1698164 812.79737364 -246.85135155 812.59084103 -247.55353928 812.37804985 C-254.41740382 810.29801657 -261.28123058 808.21785861 -268.14501381 806.13755703 C-271.5615077 805.10208201 -274.9780161 804.06665487 -278.39453125 803.03125 C-279.07185932 802.8259775 -279.74918739 802.62070499 -280.44704056 802.40921211 C-291.84079134 798.9562999 -303.23560235 795.50689706 -314.63074875 792.05859375 C-322.42685699 789.69932634 -330.2225186 787.33860685 -338.01660156 784.97265625 C-338.68959227 784.76837006 -339.36258297 784.56408386 -340.05596733 784.35360718 C-342.71123535 783.54755088 -345.36648846 782.74144569 -348.02165604 781.93505859 C-355.55931501 779.6459546 -363.09963651 777.36624805 -370.64558411 775.10461426 C-374.34977925 773.99305129 -378.05171517 772.87411339 -381.75308228 771.75317383 C-383.3885433 771.25985103 -385.0250482 770.76997267 -386.66268921 770.28393555 C-388.84567004 769.6357904 -391.02468522 768.97571876 -393.203125 768.3125 C-394.38551758 767.95800781 -395.56791016 767.60351562 -396.78613281 767.23828125 C-404.2817204 764.35028214 -409.91804786 759.35317267 -413.375 752.125 C-414.91960735 744.40196327 -413.89012828 738.27693014 -411 731 C-406.37956568 731.57559161 -402.09062824 732.4441046 -397.64331055 733.81567383 C-395.79736298 734.3806382 -395.79736298 734.3806382 -393.91412354 734.95701599 C-392.57163331 735.37361696 -391.22916576 735.79029103 -389.88671875 736.20703125 C-388.46521695 736.64400541 -387.04356173 737.08048073 -385.62176514 737.51649475 C-382.57448054 738.45198431 -379.52818689 739.39060942 -376.4826355 740.33172607 C-371.61582366 741.83547955 -366.74676046 743.33184367 -361.87719727 744.82666016 C-360.21415645 745.33721709 -358.55111629 745.84777618 -356.88807678 746.3583374 C-356.06024248 746.61247154 -355.23240818 746.86660568 -354.37948799 747.12844086 C-351.84552433 747.90659716 -349.3117673 748.68542297 -346.77806091 749.4644165 C-331.67313888 754.10748295 -316.55285778 758.6988769 -301.42700958 763.27323532 C-296.0095628 764.91184423 -290.59265533 766.55223609 -285.17566299 768.19234657 C-283.79178749 768.61133623 -282.40790432 769.03030058 -281.02401352 769.44923973 C-263.94628062 774.61919772 -246.87367983 779.80603597 -229.80133438 784.99375153 C-226.49499159 785.99840524 -223.18860648 787.00291965 -219.88222218 788.00743675 C-204.4255504 792.70339667 -188.96926217 797.40061466 -173.51407528 802.1014595 C-166.34690299 804.28142024 -159.17955328 806.460797 -152.01209354 808.63981247 C-147.76779619 809.93019423 -143.52360659 811.22092785 -139.2796936 812.51257324 C-130.92399183 815.05550908 -122.56729308 817.59505053 -114.20683002 820.12229538 C-110.78692608 821.15609071 -107.36763528 822.19179704 -103.94995117 823.23291016 C-100.21361692 824.37090425 -96.4741923 825.49850168 -92.734375 826.625 C-91.65254944 826.95604736 -90.57072388 827.28709473 -89.45611572 827.62817383 C-79.48801633 830.61198584 -71.11869421 832.33622385 -61.3828125 827.7734375 C-51.60329779 822.34682251 -48.37775568 815.36724279 -45.28125 805.0078125 C-44.94420044 803.91792023 -44.60715088 802.82802795 -44.2598877 801.70510864 C-43.16092761 798.14039373 -42.08035197 794.57039365 -41 791 C-40.26022212 788.58917809 -39.51932531 786.17869928 -38.77734375 783.76855469 C-36.55292551 776.52718128 -34.35111065 769.27909164 -32.15342331 762.02957535 C-31.02495641 758.30860777 -29.89431064 754.58830224 -28.76391602 750.86791992 C-26.83519836 744.51920307 -24.9077039 738.17011599 -22.98095703 731.82080078 C-20.24001448 722.7887886 -17.49563732 713.75782252 -14.75032234 704.72713852 C-6.74866163 678.40557147 1.25056849 652.08326412 9.2265625 625.75390625 C9.43480904 625.06649542 9.64305557 624.37908459 9.85761261 623.67084312 C11.90418633 616.9150511 13.95025403 610.15910628 15.99514389 603.40280437 C20.33515428 589.06445436 24.6888032 574.73039025 29.06580925 560.40328598 C29.80016368 557.99918489 30.53413406 555.59496692 31.26795959 553.19070435 C31.62775485 552.01192876 31.62775485 552.01192876 31.99481869 550.80933952 C32.47572196 549.23376837 32.95661104 547.65819288 33.43748569 546.08261299 C34.82972204 541.52197145 36.22471663 536.9621854 37.62183762 532.40303802 C38.48595915 529.58102335 39.34757489 526.75824788 40.2085762 523.93527985 C40.7932234 522.02121055 41.38096881 520.10808842 41.96884155 518.19500732 C48.28526188 499.54527203 48.28526188 499.54527203 44.9375 480.8125 C37.13860697 466.71705028 21.13495221 463.90743293 6.75390625 459.74804688 C4.22644188 459.02155589 1.69824194 458.29772667 -0.83056641 457.57592773 C-3.31086182 456.86575364 -5.78830796 456.14626356 -8.265625 455.42578125 C-9.02901184 455.21117752 -9.79239868 454.99657379 -10.57891846 454.77546692 C-12.40423324 454.24271293 -14.20547706 453.62871957 -16 453 C-17.4558882 450.0882236 -16.45341677 448.57054245 -15.50317383 445.48632812 C-15.14650131 444.31568817 -14.7898288 443.14504822 -14.42234802 441.93893433 C-14.01735904 440.63633662 -13.61224944 439.33377642 -13.20703125 438.03125 C-12.78852811 436.66712376 -12.37070202 435.30278965 -11.95350647 433.93826294 C-11.05345142 430.99915474 -10.14889334 428.06148405 -9.24090576 425.12481689 C-7.80566522 420.48200268 -6.38159179 415.83581235 -4.95947266 411.18896484 C-2.98025651 404.72482357 -0.99741169 398.26180923 0.98876953 391.79980469 C5.05614086 378.56537049 9.11909353 365.32961591 13.15401745 352.08524704 C14.44977901 347.83310103 15.7522575 343.58309626 17.06026936 339.33470345 C18.06942819 336.05042491 19.06908706 332.76326791 20.0703125 329.4765625 C20.42568588 328.32922638 20.78105927 327.18189026 21.14720154 325.99978638 C32.05981545 289.96858206 29.70558404 253.36389296 12.54296875 219.60546875 C-4.32277399 188.13735135 -32.8019468 165.81688832 -66.5 154.75 C-99.1427529 145.38329874 -133.48753527 147.82583451 -164 163 C-165.15242187 163.56847656 -166.30484375 164.13695312 -167.4921875 164.72265625 C-179.10521114 170.7204414 -189.01378199 178.65561667 -199 187 C-194.1466488 198.23042894 -182.39852252 222.30073874 -171 228 C-170.72800781 227.40574219 -170.45601562 226.81148437 -170.17578125 226.19921875 C-163.13227079 213.02481213 -144.21912166 204.13441548 -130.65820312 199.80737305 C-108.17265805 193.26625122 -84.12046644 195.66783969 -63.65234375 206.87109375 C-42.71155972 218.85354393 -28.12766851 237.28299577 -21.75 260.5625 C-20.28694144 266.39113654 -19.23363215 271.99666946 -19 278 C-18.96003906 278.77214844 -18.92007813 279.54429687 -18.87890625 280.33984375 C-18.47976807 294.82621167 -22.5551502 308.19751422 -26.75 321.875 C-27.35228175 323.86580614 -27.95373426 325.8568633 -28.55444336 327.84814453 C-30.4826247 334.22544384 -32.43001215 340.59680024 -34.37877655 346.96783447 C-35.49841023 350.6304151 -36.61552281 354.29376481 -37.73291016 357.95703125 C-41.63107792 370.73483801 -45.530397 383.51227998 -49.44628906 396.28466797 C-49.9129946 397.80769383 -50.37968489 399.33072436 -50.84635925 400.85375977 C-51.70884144 403.66853755 -52.57251965 406.48294404 -53.43696594 409.29711914 C-56.36482451 418.84355097 -59.19955382 428.41551557 -62 438 C-70.18993142 436.59516178 -78.0231299 434.2948108 -85.94921875 431.8359375 C-87.33397128 431.41046245 -88.71886847 430.985458 -90.10389709 430.56088257 C-93.07732136 429.64844179 -96.04982251 428.73307671 -99.02160645 427.81530762 C-106.20470284 425.59698941 -113.39189012 423.39197886 -120.57857895 421.18533325 C-123.11405434 420.40662684 -125.64933347 419.6272838 -128.18460083 418.84790039 C-140.84400077 414.95808636 -153.51520469 411.10810608 -166.19140625 407.2734375 C-168.01980136 406.71999593 -169.84818583 406.16651918 -171.67655945 405.61300659 C-182.35728592 402.37999501 -182.35728592 402.37999501 -193.04013062 399.1539917 C-197.20553057 397.89758515 -201.36991889 396.63787933 -205.53359795 395.37578201 C-207.06819983 394.91132777 -208.60319251 394.4481625 -210.13859749 393.98637009 C-212.23891789 393.35455422 -214.33785739 392.71834043 -216.43652344 392.08105469 C-218.20258942 391.54771515 -218.20258942 391.54771515 -220.0043335 391.00360107 C-222.49307739 390.16982801 -224.7038766 389.25644592 -227 388 C-224.29464098 376.66940811 -221.13770402 365.54114927 -217.68359375 354.41796875 C-217.18041158 352.78579949 -216.67765885 351.15349778 -216.17530823 349.52107239 C-214.86656329 345.27139484 -213.55312273 341.02318534 -212.23828125 336.77539062 C-210.13035389 329.96318634 -208.02898431 323.1489598 -205.9290638 316.33428383 C-205.20249455 313.97923251 -204.47342446 311.62496704 -203.7440033 309.27079773 C-201.35741924 301.54980051 -199.04621348 293.81974329 -197 286 C-197.845625 285.28714844 -198.69125 284.57429688 -199.5625 283.83984375 C-212.13183471 273.23365579 -223.70379516 262.911114 -234 250 C-235.67073486 253.11051705 -236.77394331 256.20696019 -237.80908203 259.57983398 C-238.1582518 260.71163086 -238.50742157 261.84342773 -238.86717224 263.00952148 C-239.24358353 264.24259033 -239.61999481 265.47565918 -240.0078125 266.74609375 C-240.40976362 268.05428395 -240.81199692 269.36238747 -241.2144928 270.67041016 C-242.29765012 274.19388832 -243.37624501 277.71874806 -244.45391464 281.24390793 C-245.3485123 284.16809976 -246.24588749 287.0914361 -247.14322948 290.01478672 C-253.91495519 312.07859932 -260.61094717 334.16512875 -267.23681641 356.27319336 C-267.5537999 357.32869385 -267.87078339 358.38419434 -268.19737244 359.47167969 C-268.7858406 361.43157244 -269.37281843 363.39191353 -269.95802307 365.3527832 C-270.21446091 366.20630371 -270.47089874 367.05982422 -270.73510742 367.93920898 C-270.95680099 368.68025375 -271.17849457 369.42129852 -271.40690613 370.18479919 C-272 372 -272 372 -273 374 C-279.03417424 372.7363076 -284.9325915 371.21956677 -290.83203125 369.43359375 C-291.63106369 369.19463882 -292.43009613 368.9556839 -293.25334167 368.70948792 C-295.77396468 367.95513413 -298.29328102 367.19652799 -300.8125 366.4375 C-303.34980545 365.67570625 -305.88737802 364.91481592 -308.42521667 364.15480042 C-309.99598378 363.684117 -311.56640479 363.21227656 -313.13642883 362.73912048 C-323.55696621 359.60896904 -330.93194477 359.1180797 -341 364 C-352.83375914 371.54877698 -355.62351081 385.4395242 -359.38671875 398.09765625 C-359.89290651 399.77574783 -360.39990794 401.45359415 -360.90766907 403.13121033 C-362.24174325 407.54660832 -363.56503113 411.96516552 -364.88592529 416.38452148 C-366.19565589 420.76019648 -367.51514898 425.1329218 -368.83398438 429.50585938 C-370.8964189 436.34961177 -372.95682488 443.19397013 -375.01318359 450.03955078 C-375.26180082 450.86718241 -375.51041805 451.69481403 -375.76656914 452.54752541 C-377.25519536 457.5071737 -378.73567076 462.46917907 -380.21025753 467.43301868 C-381.13346522 470.53729367 -382.06152756 473.64010397 -382.99054909 476.74264336 C-383.42290091 478.19109478 -383.85293352 479.64024071 -384.2805233 481.09010506 C-384.86462025 483.07021948 -385.45640208 485.04787797 -386.05004883 487.02514648 C-386.38015457 488.13663559 -386.71026031 489.24812469 -387.05036926 490.39329529 C-388 493 -388 493 -390 495 C-391.56665828 490.89395234 -393.08980154 486.7888763 -394.47265625 482.6171875 C-407.39787778 443.82514631 -428.91401042 409.83780575 -459 382 C-459.66 381.67 -460.32 381.34 -461 381 C-461 380.01 -461 379.02 -461 378 C-458.65392435 376.3668876 -456.34325354 374.92590252 -453.875 373.5 C-431.11928614 359.79649242 -412.21077131 341.40464158 -398 319 C-401.52829229 322.46506125 -404.84312801 326.0468728 -408.125 329.75 C-413.2882567 335.45851631 -418.84858018 340.35707814 -425 345 C-426.14662109 345.87011719 -426.14662109 345.87011719 -427.31640625 346.7578125 C-462.72993387 372.52400011 -507.75100292 387.7548776 -551.59423828 381.39355469 C-577.0822163 377.22401739 -601.20883247 365.2467755 -617.03125 344.3125 C-625.13015964 332.23277037 -629.00093148 318.80210431 -626.5390625 304.28125 C-623.32187199 292.32087115 -615.44234108 281.14595882 -604.9375 274.5625 C-595.69037772 269.49692922 -586.0569186 268.42826052 -575.8125 271.125 C-566.18718041 274.43128955 -559.44712662 280.48459741 -554.125 289 C-551.49835176 296.08399071 -551.76080239 304.65237052 -554.34765625 311.640625 C-555.78824521 314.51499161 -557.29516071 317.27530149 -559 320 C-557.82755884 320.11522901 -557.82755884 320.11522901 -556.73046875 318.78515625 C-550.20958594 311.50487949 -546.87532935 303.86456487 -547 294 C-547.95432086 283.89442371 -553.52287494 274.71164242 -561 268 C-572.55240336 259.75300533 -583.88940992 256.81589454 -598 258 C-612.64955656 260.51854841 -625.22621486 270.16242239 -633.875 281.9375 C-643.51676377 296.68916734 -646.18063895 312.51592245 -643.3828125 329.81640625 C-639.83181375 343.62759166 -632.53899269 355.52274574 -623 366 C-622.42636719 366.64324219 -621.85273437 367.28648437 -621.26171875 367.94921875 C-608.290327 381.72551787 -589.99891344 390.85915201 -572 396 C-570.91984619 396.31541748 -570.91984619 396.31541748 -569.81787109 396.63720703 C-553.49529244 401.18706729 -536.77865457 400.40648995 -520 400 C-521 403 -521 403 -522.55615234 404.05566406 C-523.560896 404.53084473 -523.560896 404.53084473 -524.5859375 405.015625 C-525.34156982 405.37615967 -526.09720215 405.73669434 -526.87573242 406.1081543 C-527.70049072 406.48496338 -528.52524902 406.86177246 -529.375 407.25 C-530.23134033 407.64550049 -531.08768066 408.04100098 -531.9699707 408.44848633 C-584.57406448 432.34980624 -645.42322048 435.91679207 -700 416 C-740.88172358 400.22096428 -784.65337662 372.14331474 -802.98828125 330.88671875 C-814.06653063 304.74080837 -816.21287001 274.15819966 -805.62084961 247.47558594 C-802.38765263 239.90879918 -798.18263625 233.40600532 -793 227 C-792.2575 225.96875 -791.515 224.9375 -790.75 223.875 C-782.79958243 215.56319981 -773.9338266 210.40163494 -763 207 C-762.35933594 206.80019531 -761.71867187 206.60039063 -761.05859375 206.39453125 C-746.87955817 203.67710697 -733.64185151 207.67827792 -721.59765625 215.15234375 C-715.31848842 219.61857891 -711.01923359 225.51295409 -709 233 C-707.65962124 243.77773939 -709.85824796 252.99570472 -716.1875 261.8125 C-721.84508986 268.55576808 -729.2889221 273.36580732 -738 275 C-744.4123849 275.45263893 -750.68034826 275.14902759 -757 274 C-746.56643905 278.77279916 -737.16458928 280.41010468 -726 277 C-713.57674836 271.58473647 -705.68963193 264.02965076 -699.9296875 251.7109375 C-696.11315734 241.5211725 -696.20443757 231.15347206 -700 221 C-702.83017983 215.18556179 -706.11641405 210.28802669 -711 206 C-712.3921875 204.6078125 -712.3921875 204.6078125 -713.8125 203.1875 C-725.81030671 193.0978412 -741.85516769 188.2439917 -757.33203125 188.65625 C-778.04143988 190.59706785 -795.32418128 200.58394444 -808.87890625 216.2890625 C-821.55246017 232.48693805 -828.70593071 251.66824861 -831 272 C-831.66 272 -832.32 272 -833 272 C-833.80374436 268.64861565 -834.59054985 265.29344825 -835.375 261.9375 C-835.59671875 261.01388672 -835.8184375 260.09027344 -836.046875 259.13867188 C-839.49223353 244.29322999 -840.41027631 229.85972358 -840.375 214.6875 C-840.37412384 213.76447083 -840.37324768 212.84144165 -840.37234497 211.89044189 C-840.19113544 153.83692711 -816.34824431 100.47637275 -775.50048828 59.49560547 C-755.68784427 40.05021405 -732.2914311 26.15305805 -707 15 C-706.24750977 14.66613281 -705.49501953 14.33226562 -704.71972656 13.98828125 C-700.75773652 12.34934854 -698.06447949 11.41042634 -694 13 C-691.99789506 14.20069256 -690.04470076 15.48402878 -688.125 16.8125 C-664.38749344 32.59263802 -637.03865096 43.77611574 -610.50244141 53.93017578 C-609.03943604 54.49647705 -609.03943604 54.49647705 -607.546875 55.07421875 C-606.68932617 55.39994873 -605.83177734 55.72567871 -604.94824219 56.0612793 C-603 57 -603 57 -602 59 C-602.61294922 59.1451001 -603.22589844 59.2902002 -603.85742188 59.43969727 C-632.28985413 66.26337468 -660.20003799 77.72551527 -677.203125 103.03515625 C-687.45938816 119.95799046 -693.28813107 137.03153721 -689.30859375 157.015625 C-685.04969547 173.19587452 -675.45838195 186.49089908 -661.3984375 195.60546875 C-649.53082257 202.50569437 -637.56990488 204.72726155 -624.078125 201.24609375 C-612.91364604 197.47729365 -603.16991713 191.80911753 -597.49609375 181.18359375 C-593.1865422 171.96287235 -591.30860633 164.34539811 -594.625 154.4375 C-597.32886301 147.60113714 -600.9770154 142.25762704 -607 138 C-606.4225 138.66 -605.845 139.32 -605.25 140 C-601.68577334 144.75230221 -598.58606161 149.99286848 -598 156 C-597.90525391 156.96679688 -597.90525391 156.96679688 -597.80859375 157.953125 C-597.36822104 166.07871175 -600.03350255 172.9033085 -605.0625 179.25 C-611.63328713 186.18583086 -620.49566095 190.31064207 -630 191 C-641.66963272 191.117367 -650.27933374 187.54201661 -658.67578125 179.48828125 C-668.44559361 169.02883508 -673.39937447 157.54552914 -673.20703125 143.2421875 C-672.06624671 125.37707111 -661.96359377 112.03254665 -649.19921875 100.4609375 C-623.2238024 78.49021759 -590.93108015 74.90933661 -558.08496094 77.20361328 C-542.49071014 78.92554358 -527.26264344 85.38989041 -512.49623108 90.44378662 C-451.52181247 111.29592175 -389.49705935 128.95797855 -327 144.625 C-326.0427301 144.86553101 -325.08546021 145.10606201 -324.09918213 145.35388184 C-312.5208193 148.25394317 -300.91451296 150.9503307 -289.23364258 153.40811157 C-288.31607178 153.60262909 -287.39850098 153.79714661 -286.453125 153.99755859 C-285.64004883 154.16758392 -284.82697266 154.33760925 -283.98925781 154.51278687 C-282 155 -282 155 -280 156 C-281.2749919 162.63394221 -283.18914404 168.42911783 -286 174.5625 C-286.59385498 175.86296265 -286.59385498 175.86296265 -287.19970703 177.18969727 C-293.62209727 190.91437794 -301.74981631 202.87001771 -312 214 C-312.46100098 214.51014648 -312.92200195 215.02029297 -313.39697266 215.54589844 C-335.68296093 239.99459653 -366.29809359 251.86072747 -398.7734375 254.28125 C-421.8104517 254.92564201 -444.71107307 248.27900428 -461.6796875 232.34765625 C-473.07220075 220.82088779 -478.85086943 206.73011243 -479.4375 190.5 C-479.14867718 180.1149361 -476.21984618 170.59133715 -469 163 C-468.35160156 162.31164062 -467.70320313 161.62328125 -467.03515625 160.9140625 C-458.18226491 152.30130383 -447.18826664 148.57468789 -434.97265625 148.72265625 C-426.74400416 149.49037543 -418.79077106 153.06953929 -413 159 C-408.64341556 164.81207969 -405.92035909 171.02606438 -404 178 C-403.8432239 168.27988174 -407.69508212 159.06814037 -413.9609375 151.69140625 C-422.46490756 143.87649305 -433.02723563 140.3937658 -444.53515625 140.7578125 C-459.26189723 142.20481399 -471.38727158 148.12660097 -481.55078125 158.8984375 C-492.45438484 172.70619069 -494.23478313 187.97162954 -493 205 C-490.87262543 221.9732466 -482.07098703 236.37608656 -470 248 C-469.36707031 248.65226563 -468.73414063 249.30453125 -468.08203125 249.9765625 C-450.59645187 266.88314919 -423.27811529 273.17037039 -399.6875 273.3125 C-362.90510463 272.42972251 -328.76235869 257.16449448 -303 231 C-295.46980054 223.0510382 -289.39459989 214.54599981 -284 205 C-283.6690332 204.43087891 -283.33806641 203.86175781 -282.99707031 203.27539062 C-275.17654651 189.78966441 -269.58113455 175.17718928 -266 160 C-265.34 160 -264.68 160 -264 160 C-263.53327881 160.99459229 -263.53327881 160.99459229 -263.05712891 162.00927734 C-248.71059024 192.48711674 -232.55105268 220.05035598 -210.31591797 245.47998047 C-209.21379655 246.75304317 -208.13691949 248.04790179 -207.06640625 249.34765625 C-192.53731351 266.8731566 -168.96111863 282.50267923 -146 285.23828125 C-136.87073427 285.5770626 -127.95528444 283.10795521 -120.875 277.25 C-115.47771153 271.93179268 -113.92451762 266.39614096 -113 259 C-113.66 259 -114.32 259 -115 259 C-115.226875 259.70125 -115.45375 260.4025 -115.6875 261.125 C-118.37836251 267.01927026 -121.91040585 270.62907602 -127.7734375 273.2421875 C-136.96500317 276.37054494 -145.11776705 274.65277172 -153.7890625 270.7421875 C-172.88927349 260.89616324 -188.00887593 243.49531574 -200 226 C-200.45681152 225.33419922 -200.91362305 224.66839844 -201.38427734 223.98242188 C-224.65082495 189.70529609 -245.98933625 148.77102311 -255 108 C-255.35964844 106.48019531 -255.35964844 106.48019531 -255.7265625 104.9296875 C-259.3166084 87.36239622 -258.08117227 67.8707451 -248.3984375 52.44921875 C-240.96346039 42.34919277 -230.91899775 36.40236158 -218.578125 34.3203125 C-201.6109595 32.21227073 -185.86549612 37.59751717 -172.375 47.75 C-152.61693189 63.24652401 -142.60428239 86.08607454 -137 110 C-135.88128441 91.56190965 -140.18704014 70.26959676 -150.1171875 54.53125 C-151 53 -151 53 -151 51 C-150.21496094 51.13277344 -149.42992187 51.26554688 -148.62109375 51.40234375 C-147.57050781 51.57894531 -146.51992188 51.75554688 -145.4375 51.9375 C-144.40496094 52.11152344 -143.37242187 52.28554688 -142.30859375 52.46484375 C-141.21675781 52.64144531 -140.12492188 52.81804688 -139 53 C-137.90429688 53.18175781 -136.80859375 53.36351562 -135.6796875 53.55078125 C-91.78783397 58.90912855 -53.40534343 37.02453243 -19.265625 12.10546875 C-15.36935873 9.26231864 -11.45162791 6.45319074 -7.5 3.6875 C-6.4790625 2.96949219 -5.458125 2.25148438 -4.40625 1.51171875 C-2 0 -2 0 0 0 Z M-397 315 C-396 317 -396 317 -396 317 Z " fill="#000000" transform="translate(955,557)"/>
<path d="M0 0 C1.14355957 0.56976563 2.28711914 1.13953125 3.46533203 1.7265625 C20.77273913 10.40130924 37.48192888 19.90974201 54 30 C55.05380859 30.64114746 56.10761719 31.28229492 57.19335938 31.94287109 C71.16105992 40.46490895 84.74401432 49.40851026 98 59 C98.81871582 59.59200195 99.63743164 60.18400391 100.48095703 60.79394531 C110.83375211 68.30443863 121.0259373 75.99362836 131 84 C131.62970703 84.50354004 132.25941406 85.00708008 132.90820312 85.52587891 C145.96497027 95.98094048 158.66923326 106.80584839 170.93969727 118.17504883 C172.84616054 119.9395376 174.76269391 121.68978934 176.68945312 123.43237305 C184.16449996 130.20154538 191.36575737 137.21052865 198.48364258 144.35327148 C200.32454708 146.19958246 202.17080272 148.04042273 204.01757812 149.88085938 C209.3720782 155.23234676 214.67790129 160.5735978 219.58764648 166.3425293 C221.77229603 168.90632977 224.07923189 171.34782402 226.375 173.8125 C230.6687538 178.46038542 234.7353184 183.24416348 238.703125 188.17578125 C240.7255113 190.66249094 242.79204745 193.10326284 244.88256836 195.53271484 C251.36741316 203.0838946 257.4167504 210.93475202 263.40332031 218.88427734 C264.90419486 220.87305087 266.41522729 222.85359457 267.9296875 224.83203125 C293.06176324 257.80163239 314.83569685 293.26277577 334 330 C334.58072266 331.11084961 335.16144531 332.22169922 335.75976562 333.36621094 C371.21811673 401.63591486 394.93646249 475.125105 406 822 C405.85540344 822.75867371 405.71080688 823.51734741 405.56182861 824.29901123 C390.32269028 903.79122269 362.70785022 981.86909151 315.55712891 1063.42822266 C314.04774028 1065.92115144 312.57164702 1068.43068262 311.10546875 1070.94921875 C297.27082061 1094.59810897 281.57575625 1117.2017452 265 1139 C264.5978125 1139.52980469 264.195625 1140.05960938 263.78125 1140.60546875 C255.02832057 1152.12104154 245.8497875 1163.25858426 236.47216797 1174.26904297 C234.93749877 1176.07348818 233.40816579 1177.88237519 231.87890625 1179.69140625 C222.72165404 1190.49018704 222.72165404 1190.49018704 217.68605042 1195.31300354 C215.95484481 1197.04518053 214.36824163 1198.84943884 212.77709961 1200.71069336 C209.138022 1204.89497843 205.30491504 1208.83992749 201.37890625 1212.75390625 C200.67531479 1213.45845444 199.97172333 1214.16300262 199.24681091 1214.88890076 C197.76985352 1216.36653367 196.29165258 1217.84292457 194.81225586 1219.31811523 C192.56834915 1221.55666481 190.32983296 1223.80050473 188.09179688 1226.04492188 C186.64615382 1227.48990404 185.20020055 1228.93457592 183.75390625 1230.37890625 C182.76602867 1231.36982018 182.76602867 1231.36982018 181.75819397 1232.38075256 C177.88082193 1236.23895229 173.89560832 1239.91728008 169.75091553 1243.48719788 C167.34746796 1245.56379182 165.02046136 1247.71982263 162.6875 1249.875 C158.20337072 1253.96437787 153.59732762 1257.84619021 148.875 1261.65625 C146.30646808 1263.75016189 143.77968393 1265.88170686 141.26269531 1268.03662109 C134.36109461 1273.94022647 127.27122659 1279.5583932 120 1285 C119.30664551 1285.51933105 118.61329102 1286.03866211 117.89892578 1286.57373047 C92.52213361 1305.5302219 66.36488998 1323.03502699 39 1339 C37.66751221 1339.77947998 37.66751221 1339.77947998 36.30810547 1340.57470703 C-38.81187803 1384.24850253 -122.15028652 1414.33557096 -296 1440 C-297.52705566 1440.11021484 -297.52705566 1440.11021484 -299.08496094 1440.22265625 C-378.54354455 1445.64881452 -459.88885475 1436.3258758 -725.36376953 1337.58935547 C-727.88487775 1336.06940599 -730.42081291 1334.57884303 -732.96484375 1333.09765625 C-752.26429673 1321.80282579 -771.0184366 1309.29264404 -789 1296 C-789.93513428 1295.30946533 -789.93513428 1295.30946533 -790.88916016 1294.60498047 C-803.88737332 1284.9868724 -816.63635104 1275.11628868 -828.92578125 1264.60546875 C-831.69699155 1262.24135813 -834.52927189 1259.96156042 -837.375 1257.6875 C-842.64826087 1253.402493 -847.59381939 1248.80695987 -852.52294922 1244.13549805 C-855.54319003 1241.27531608 -858.58961494 1238.47281609 -861.74511719 1235.76196289 C-865.91308982 1232.1243549 -869.84923778 1228.29557613 -873.75390625 1224.37890625 C-874.45845444 1223.67531479 -875.16300262 1222.97172333 -875.88890076 1222.24681091 C-877.36653367 1220.76985352 -878.84292457 1219.29165258 -880.31811523 1217.81225586 C-882.55666481 1215.56834915 -884.80050473 1213.32983296 -887.04492188 1211.09179688 C-888.48990404 1209.64615382 -889.93457592 1208.20020055 -891.37890625 1206.75390625 C-892.03951553 1206.0953212 -892.70012482 1205.43673615 -893.38075256 1204.75819397 C-897.23194021 1200.88786884 -900.90370993 1196.91057632 -904.46583557 1192.77227783 C-906.70645181 1190.18390176 -909.04159836 1187.69257834 -911.375 1185.1875 C-915.6687538 1180.53961458 -919.7353184 1175.75583652 -923.703125 1170.82421875 C-925.72532938 1168.33773275 -927.79161879 1165.89714201 -929.88208008 1163.46801758 C-936.33718485 1155.95069496 -942.37901199 1148.1502803 -948.32617188 1140.22705078 C-949.41984687 1138.77190153 -950.51734685 1137.31961713 -951.61914062 1135.87060547 C-978.00265903 1101.16846261 -1000.69305976 1063.67079628 -1020.52050781 1024.89160156 C-1021.50261438 1022.97211803 -1022.48891092 1021.05477222 -1023.47949219 1019.13964844 C-1047.10254957 973.43518342 -1064.69319854 924.64995135 -1078 875 C-1078.29181152 873.92572754 -1078.58362305 872.85145508 -1078.88427734 871.74462891 C-1087.87420362 838.38134659 -1093.89239373 804.28770285 -1098 770 C-1098.22961426 768.09879395 -1098.22961426 768.09879395 -1098.46386719 766.15917969 C-1108.82415423 677.99197287 -1103.16123547 587.18268895 -1082 501 C-1081.55817383 499.16163574 -1081.55817383 499.16163574 -1081.10742188 497.28613281 C-1067.7370196 441.88415278 -1047.41047833 388.94098393 -1022 338 C-1021.43168457 336.85934082 -1020.86336914 335.71868164 -1020.27783203 334.54345703 C-1011.60160058 317.2330757 -1002.09199381 300.52091272 -992 284 C-991.35885254 282.94619141 -990.71770508 281.89238281 -990.05712891 280.80664062 C-981.53509105 266.83894008 -972.59148974 253.25598568 -963 240 C-962.40799805 239.18128418 -961.81599609 238.36256836 -961.20605469 237.51904297 C-953.69556137 227.16624789 -946.00637164 216.9740627 -938 207 C-937.49645996 206.37029297 -936.99291992 205.74058594 -936.47412109 205.09179688 C-926.01905952 192.03502973 -915.19415161 179.33076674 -903.82495117 167.06030273 C-902.0604624 165.15383946 -900.31021066 163.23730609 -898.56762695 161.31054688 C-891.79845462 153.83550004 -884.78947135 146.63424263 -877.64672852 139.51635742 C-875.80041754 137.67545292 -873.95957727 135.82919728 -872.11914062 133.98242188 C-866.76765324 128.6279218 -861.4264022 123.32209871 -855.6574707 118.41235352 C-853.09367023 116.22770397 -850.65217598 113.92076811 -848.1875 111.625 C-843.53961458 107.3312462 -838.75583652 103.2646816 -833.82421875 99.296875 C-831.33750906 97.2744887 -828.89673716 95.20795255 -826.46728516 93.11743164 C-818.9161054 86.63258684 -811.06524798 80.5832496 -803.11572266 74.59667969 C-801.12694913 73.09580514 -799.14640543 71.58477271 -797.16796875 70.0703125 C-730.66230728 19.37436037 -654.95383679 -18.55757482 -386 -80 C-385.02111816 -80.05784668 -384.04223633 -80.11569336 -383.03369141 -80.17529297 C-300.78315506 -84.80970707 -217.89654428 -75.4987787 0 0 Z M-689.25097656 43.46142578 C-692.06486425 45.03630324 -694.88739998 46.59484402 -697.7109375 48.15234375 C-730.45024526 66.31257975 -761.84878488 87.49510856 -791 111 C-791.94101562 111.75796875 -792.88203125 112.5159375 -793.8515625 113.296875 C-803.68735806 121.29023047 -813.37838734 129.44726821 -822.7578125 137.97265625 C-824.71208424 139.73967199 -826.69059737 141.46913529 -828.6875 143.1875 C-839.3422663 152.51305783 -849.47818132 162.37852385 -859.5 172.375 C-860.43150879 173.3019165 -861.36301758 174.22883301 -862.32275391 175.18383789 C-866.85856184 179.72986713 -871.26306954 184.32477485 -875.44433594 189.19921875 C-877.84356507 191.97648085 -880.36462497 194.63611835 -882.875 197.3125 C-887.35420159 202.12755443 -891.6076977 207.06531844 -895.7265625 212.1953125 C-897.79159771 214.7428989 -899.89933152 217.24252565 -902.03222656 219.73291016 C-907.93871254 226.634756 -913.55712828 233.72722957 -919 241 C-919.5352832 241.71462402 -920.07056641 242.42924805 -920.62207031 243.16552734 C-938.1084383 266.57119381 -954.22406723 290.79140766 -969 316 C-969.48291504 316.82016602 -969.96583008 317.64033203 -970.46337891 318.48535156 C-1012.31862202 389.78600277 -1040.39363952 468.2072019 -1066 633 C-1066.06195053 633.98596664 -1066.06195053 633.98596664 -1066.12515259 634.99185181 C-1067.03357762 649.7231954 -1067.20144377 664.43099253 -1067.1875 679.1875 C-1067.18689575 680.37519989 -1067.1862915 681.56289978 -1067.18566895 682.78659058 C-1067.15931265 701.93942311 -1066.7324277 720.91740305 -1065 740 C-1064.93683594 740.70719177 -1064.87367187 741.41438354 -1064.80859375 742.14300537 C-1057.98767383 818.07798308 -1040.139122 893.49530819 -1000 985 C-999.4255342 986.23319641 -998.85115365 987.46643254 -998.27685547 988.69970703 C-990.96958459 1004.3543833 -983.12270298 1019.60146507 -974.42382812 1034.53564453 C-972.74590687 1037.43978327 -971.12450293 1040.37229851 -969.5078125 1043.31079102 C-950.8974343 1077.0293663 -927.85887695 1108.52128995 -903.44873047 1138.23095703 C-902.13621968 1139.83366232 -900.83501751 1141.44561218 -899.53515625 1143.05859375 C-894.98001892 1148.70248095 -890.23745705 1154.11850913 -885.328125 1159.45703125 C-883.39305738 1161.57067054 -881.49791703 1163.70659848 -879.625 1165.875 C-870.80353084 1176.00016818 -861.50876131 1185.6563089 -851.99853516 1195.13183594 C-850.23351456 1196.8914348 -848.47398867 1198.65640397 -846.71484375 1200.421875 C-841.50384924 1205.63593138 -836.29129218 1210.78302183 -830.67724609 1215.56787109 C-828.10857923 1217.76114618 -825.65899749 1220.07287786 -823.1875 1222.375 C-818.61567543 1226.59398254 -813.92745156 1230.61147468 -809.078125 1234.51171875 C-806.77859241 1236.37060486 -804.50086452 1238.24614776 -802.234375 1240.14453125 C-729.06348876 1301.30215661 -642.38781537 1347.12352715 -403 1403 C-401.1444751 1403.17789062 -401.1444751 1403.17789062 -399.25146484 1403.359375 C-360.31734325 1406.92440153 -319.90206572 1406.81336024 -281 1403 C-279.8170636 1402.88688477 -279.8170636 1402.88688477 -278.61022949 1402.77148438 C-196.64506427 1394.90798697 -116.3219049 1374.79531265 -35.83251953 1337.33837891 C-32.9547095 1335.97860002 -30.06959525 1334.63526133 -27.18359375 1333.29296875 C0.46497669 1320.35162781 26.77623594 1304.90221351 52.5 1288.5 C53.49555908 1287.86610352 54.49111816 1287.23220703 55.5168457 1286.57910156 C62.1900617 1282.28253157 68.6108341 1277.70559122 75 1273 C76.50445742 1271.91771337 78.01084618 1270.83810429 79.51953125 1269.76171875 C88.87393649 1263.07052744 98.04122636 1256.21173907 107 1249 C107.63647461 1248.48969238 108.27294922 1247.97938477 108.92871094 1247.45361328 C122.37479002 1236.66197001 135.47485703 1225.56958871 148.06665039 1213.78979492 C149.57567499 1212.39281812 151.09526267 1211.0072491 152.61889648 1209.6262207 C159.66460327 1203.23859165 166.49068516 1196.66627312 173.2019043 1189.9284668 C174.82552229 1188.29943428 176.45449603 1186.67589272 178.08398438 1185.05273438 C183.05389192 1180.0859863 187.93691028 1175.08700057 192.50366211 1169.74145508 C194.87730597 1166.97898132 197.38393086 1164.34363494 199.875 1161.6875 C204.28351253 1156.94366131 208.49253864 1152.09630526 212.546875 1147.04296875 C214.39137685 1144.75496407 216.25377719 1142.49088899 218.140625 1140.23828125 C275.07820957 1072.12754831 317.13308331 993.18429115 380.3125 746.75 C380.39399292 745.89829224 380.47548584 745.04658447 380.55944824 744.16906738 C382.54775428 723.04703678 383.20754402 702.02482467 383.1875 680.8125 C383.18689575 679.62480011 383.1862915 678.43710022 383.18566895 677.21340942 C383.15931265 658.06057689 382.7324277 639.08259695 381 620 C380.93683594 619.29280823 380.87367187 618.58561646 380.80859375 617.85699463 C373.75928087 539.37939593 354.83984246 461.93699503 320 384 C319.49275391 382.87335938 318.98550781 381.74671875 318.46289062 380.5859375 C294.34646585 327.22438591 263.78717663 276.62415881 227 231 C226.24203125 230.05898438 225.4840625 229.11796875 224.703125 228.1484375 C219.38059947 221.59908871 213.93977826 215.15103232 208.46777344 208.7265625 C206.94552924 206.93592528 205.42966056 205.14001437 203.9140625 203.34375 C199.095402 197.65261533 194.27516719 192.08513185 188.90185547 186.90283203 C187.18167916 185.18177245 185.61372919 183.41814856 184.046875 181.55859375 C179.35837393 176.16193691 174.29190767 171.14216314 169.23022461 166.09985352 C167.56573723 164.4407268 165.90666553 162.77631949 164.24804688 161.11132812 C159.21353668 156.07366634 154.1525905 151.11496712 148.73266602 146.48754883 C145.97236805 144.11774532 143.34044444 141.61339154 140.6875 139.125 C135.86763923 134.64132731 130.92496022 130.3837577 125.7890625 126.26171875 C123.31307752 124.25388219 120.88583343 122.19934502 118.4699707 120.11987305 C110.24765716 113.05797173 101.68284848 106.48327181 93 100 C92.01845947 99.26305908 92.01845947 99.26305908 91.01708984 98.51123047 C69.02009428 82.06462031 45.86246606 66.60072819 22 53 C21.03723145 52.44940918 20.07446289 51.89881836 19.08251953 51.33154297 C11.75740255 47.15545571 4.3920653 43.05625205 -3 39 C-3.86641113 38.52208008 -4.73282227 38.04416016 -5.62548828 37.55175781 C-74.85802318 -0.43520287 -153.11350517 -24.97090841 -296 -44 C-296.67005066 -44.04130035 -297.34010132 -44.08260071 -298.03045654 -44.12515259 C-312.39653543 -44.99915025 -326.73455793 -45.20288564 -341.125 -45.1875 C-342.83659302 -45.18609512 -342.83659302 -45.18609512 -344.58276367 -45.18466187 C-425.48936486 -45.04150553 -505.39270811 -31.16777904 -689.25097656 43.46142578 Z " fill="#000000" transform="translate(1104,81)"/>
<path d="M0 0 C7.26470558 3.09422645 12.38762912 7.49538664 18 13 C19.03833984 13.98419922 19.03833984 13.98419922 20.09765625 14.98828125 C39.0795552 34.42302868 43.58882754 64.38471647 43.39111328 90.36132812 C43.37487137 92.89506705 43.39116085 95.42724294 43.41015625 97.9609375 C43.41944308 106.15821219 42.98368088 113.45322326 40.68115234 121.38232422 C39.57406824 125.63686033 39.55631202 129.75093321 39.625 134.125 C39.63370117 135.1137915 39.64240234 136.10258301 39.65136719 137.12133789 C41.06554934 215.38240997 55.11570766 297.85802218 90.5625 368.09765625 C90.98072021 368.94062256 91.39894043 369.78358887 91.82983398 370.65209961 C92.62086963 372.23902772 93.42891717 373.81765341 94.25805664 375.38500977 C97.02234733 380.92907562 97.76780271 385.82595884 97 392 C93.9967999 399.09847297 87.01733336 402.25134565 80.25390625 405.1953125 C69.98610448 409.12766212 59.92808157 410.34911113 49 411 C49.54269531 411.56847656 50.08539062 412.13695312 50.64453125 412.72265625 C56.05405362 418.56104166 59.96320282 423.10572147 60.4375 431.3125 C60.0616381 440.53677755 55.36066838 448.54408035 49 455 C44.50854396 458.88991015 39.76949478 462.4609158 35 466 C35.74894531 466.73089844 36.49789063 467.46179688 37.26953125 468.21484375 C39.59079247 470.58259661 41.66163354 472.94480738 43.6875 475.5625 C44.55955078 476.67818359 44.55955078 476.67818359 45.44921875 477.81640625 C49.24678014 483.16360226 49.77561159 487.51588709 49 494 C45.84826462 501.35404921 37.78079497 506.02803182 31.64453125 510.8515625 C25.96053644 515.52246255 22.3426013 520.66131521 21 528 C20.36723144 542.38265825 25.95864717 554.96898032 32.11450195 567.62475586 C38.1835871 580.15713066 40.919489 594.44340896 36.4375 608.0625 C34.11755868 613.38615482 30.85897373 617.69637086 27 622 C26.41476562 622.67804687 25.82953125 623.35609375 25.2265625 624.0546875 C19.68053764 630.06873134 13.08890474 634.01457116 6 638 C4.63101562 638.78697266 4.63101562 638.78697266 3.234375 639.58984375 C-26.07951422 655.37746694 -63.23376352 660.0391133 -96 661 C-95.94779297 662.31871094 -95.94779297 662.31871094 -95.89453125 663.6640625 C-94.92033297 710.70392213 -107.69758099 758.65679321 -122.9375 802.875 C-123.21972412 803.70104736 -123.50194824 804.52709473 -123.79272461 805.37817383 C-125.74959738 810.87479869 -125.74959738 810.87479869 -128 812 C-126.93535865 805.42849902 -125.56077368 798.95557593 -124.01171875 792.484375 C-123.82724182 791.71289124 -123.64276489 790.94140747 -123.45269775 790.14654541 C-123.26286316 789.35278503 -123.07302856 788.55902466 -122.87744141 787.74121094 C-113.42353486 748.19708295 -107.76298242 708.26870358 -107.8125 667.5625 C-107.81310425 666.64035706 -107.8137085 665.71821411 -107.81433105 664.76812744 C-107.94270171 592.3780342 -132.83042319 533.24472513 -177.4453125 476.609375 C-195.93238275 453.08665748 -205.13678492 430.3120116 -203 400 C-201.22133076 385.44490823 -196.75343475 371.30373031 -192.8203125 357.22460938 C-185.00180815 329.15317163 -183.06152345 301.23937271 -197.69702148 274.9519043 C-199.55831639 271.86401083 -201.45925669 268.80438156 -203.375 265.75 C-216.92325991 243.58578089 -225.04529838 222.30267891 -219.09375 195.87890625 C-214.45641989 178.53759261 -205.61106451 162.67660064 -192.53125 150.38671875 C-190.30157521 148.28435564 -188.29627241 146.14343259 -186.3125 143.8125 C-183.36274828 140.35586971 -180.20140926 137.18296152 -176.96484375 133.99609375 C-175.07769256 132.07892823 -173.31314625 130.10424678 -171.5625 128.0625 C-168.35920142 124.33383127 -164.93339494 120.89060703 -161.40625 117.46875 C-159.42398435 115.43499693 -157.5704392 113.36855696 -155.71875 111.21875 C-151.38278265 106.22144284 -146.68141982 101.63005163 -141.9609375 97 C-138.67651476 93.75362077 -135.50429682 90.48150122 -132.5 86.97265625 C-128.92865435 82.82734434 -125.02996011 79.1316301 -121 75.4375 C-117.10217456 71.84209205 -113.22011498 68.25287512 -109.5 64.47265625 C-105.83676869 60.77773339 -101.95170298 57.38127489 -98 54 C-97.37689941 53.45972168 -96.75379883 52.91944336 -96.11181641 52.36279297 C-80.21211299 38.64272051 -63.19579114 26.6359197 -44 18 C-43.11570312 17.58363281 -42.23140625 17.16726563 -41.3203125 16.73828125 C-32.60049281 12.89298371 -22.52429815 10.70784362 -13 11 C-12.96132812 12.70929688 -12.96132812 12.70929688 -12.921875 14.453125 C-11.95294983 44.79441723 -3.07473082 69.46928698 16 93 C15.36384766 92.05253906 15.36384766 92.05253906 14.71484375 91.0859375 C1.81168104 71.40506954 -5.40332741 51.27005701 -5.375 27.625 C-5.37556396 26.43922363 -5.37612793 25.25344727 -5.37670898 24.03173828 C-5.13875887 5.13875887 -5.13875887 5.13875887 0 0 Z " fill="#000000" transform="translate(1216,336)"/>
<path d="M0 0 C1.13826736 -0.00701431 2.27653473 -0.01402863 3.44929504 -0.02125549 C7.10556037 -0.03866295 10.76166349 -0.04510861 14.41796875 -0.046875 C15.66978943 -0.04754974 16.92161011 -0.04822449 18.21136475 -0.04891968 C37.5307917 -0.03238569 56.45760161 0.48288053 75.60546875 3.203125 C77.44407471 3.46053467 77.44407471 3.46053467 79.31982422 3.72314453 C108.74904138 7.97508695 137.41640288 14.76363006 165.60546875 24.203125 C166.66926758 24.55600586 167.73306641 24.90888672 168.82910156 25.27246094 C219.03165418 42.0902377 266.05235472 68.20824231 306.60546875 102.203125 C307.24033203 102.73357422 307.87519531 103.26402344 308.52929688 103.81054688 C324.39956428 117.1090171 324.39956428 117.1090171 328.60546875 122.203125 C328.60546875 122.863125 328.60546875 123.523125 328.60546875 124.203125 C327.97495605 124.40768311 327.34444336 124.61224121 326.69482422 124.82299805 C251.91488903 149.32264856 182.78415591 192.70077878 123.25292969 243.79394531 C121.57738085 245.22715039 119.89319901 246.64962238 118.20703125 248.0703125 C99.66312738 263.73892838 82.69726349 280.99027036 65.60546875 298.203125 C69.23347543 296.46851598 72.1320745 294.32931917 75.29296875 291.828125 C81.65727395 286.85757624 88.19759568 282.17548969 94.81738281 277.55273438 C97.92049901 275.383967 101.0189026 273.20876166 104.11279297 271.02685547 C115.31007308 263.14083645 126.61121162 255.42750286 138.01489258 247.84326172 C140.67305482 246.07474115 143.32786855 244.30127542 145.98242188 242.52734375 C161.82461214 231.96116725 177.88406166 221.76246919 194.16796875 211.890625 C194.74953735 211.53794556 195.33110596 211.18526611 195.93029785 210.82189941 C216.49901185 198.36100656 237.38337705 186.51495434 258.60546875 175.203125 C259.40936035 174.77225586 260.21325195 174.34138672 261.04150391 173.89746094 C266.53885662 170.95232563 272.0622912 168.06102623 277.60546875 165.203125 C278.62560059 164.67605957 279.64573242 164.14899414 280.69677734 163.60595703 C293.89425147 156.81641545 307.16864441 150.33815444 320.79296875 144.453125 C321.944021 143.95184082 323.09507324 143.45055664 324.28100586 142.93408203 C330.3585074 140.35438758 336.10554085 138.38368213 342.60546875 137.203125 C369.32823468 169.16024715 369.32823468 169.16024715 372.60546875 187.203125 C371.78046875 187.18217773 370.95546875 187.16123047 370.10546875 187.13964844 C348.01852665 186.44664618 348.01852665 186.44664618 326.60546875 191.203125 C325.52394531 191.56535156 324.44242188 191.92757812 323.328125 192.30078125 C300.43545541 200.48664492 280.96284278 214.43855596 262.60546875 230.078125 C262.09685303 230.51108887 261.5882373 230.94405273 261.06420898 231.39013672 C250.45154167 240.55495286 240.36693509 250.27505857 230.47363281 260.20458984 C228.71403395 261.96961044 226.94906478 263.72913633 225.18359375 265.48828125 C220.01411469 270.65467839 214.91558813 275.82229766 210.17138672 281.38769531 C206.66252022 285.4556609 202.90466502 289.30376729 199.2109375 293.203125 C195.45647052 297.18301547 191.79975984 301.22781811 188.21289062 305.359375 C186.04825661 307.84226019 183.82990689 310.2738044 181.60546875 312.703125 C178.76022647 315.82219511 175.93347295 318.95067891 173.16796875 322.140625 C169.73710642 326.09057761 166.19416604 329.934996 162.65039062 333.78320312 C160.11821467 336.5376826 157.6151914 339.31046287 155.16796875 342.140625 C150.74774066 347.23441166 146.14168912 352.15963629 141.55029297 357.09863281 C140.04523949 358.72724956 138.54847635 360.36352983 137.05517578 362.00292969 C129.81688835 369.93347452 122.35425184 377.61034474 114.74951172 385.18945312 C112.83963881 387.09391005 110.93524726 389.00373319 109.03125 390.9140625 C103.05892889 396.88992425 97.07589122 402.76166118 90.60546875 408.203125 C89.50989297 409.16328529 88.41610343 410.12548805 87.32421875 411.08984375 C62.9467548 432.39148842 35.51867954 451.62208219 3.60546875 459.203125 C2.6103125 459.44675781 1.61515625 459.69039062 0.58984375 459.94140625 C-13.84435263 462.9048516 -29.22937195 462.01547651 -43.39453125 458.203125 C-44.41490479 457.96907959 -45.43527832 457.73503418 -46.48657227 457.49389648 C-49.39453125 456.203125 -49.39453125 456.203125 -50.53344727 453.79467773 C-50.71576904 452.77317627 -50.89809082 451.7516748 -51.0859375 450.69921875 C-51.41682373 448.93553955 -51.41682373 448.93553955 -51.75439453 447.13623047 C-52.07126221 445.18934326 -52.07126221 445.18934326 -52.39453125 443.203125 C-52.6340982 441.83329347 -52.87485071 440.46366883 -53.11669922 439.09423828 C-53.91170469 434.49317602 -54.62898535 429.88152283 -55.33203125 425.265625 C-55.46081665 424.42563965 -55.58960205 423.5856543 -55.72229004 422.72021484 C-69.36607363 333.14160241 -68.0082647 242.22847242 -25.48828125 28.6875 C-22.47652703 19.09291155 -23.18726344 10.90491774 -25.39453125 1.203125 C-16.91768634 0.458203 -8.50849109 0.03540929 0 0 Z " fill="#000000" transform="translate(849.39453125,134.796875)"/>
<path d="M0 0 C-0.3101001 0.83893799 -0.6202002 1.67787598 -0.93969727 2.54223633 C-2.05592182 6.1823672 -2.55615185 9.54006104 -2.96484375 13.32421875 C-3.04273132 14.04115906 -3.1206189 14.75809937 -3.2008667 15.49676514 C-3.45629349 17.89276632 -3.69854987 20.28980158 -3.9375 22.6875 C-4.02270905 23.53232941 -4.10791809 24.37715881 -4.19570923 25.24758911 C-13.56572336 119.23635692 -13.94618522 216.8008642 40.08642578 416.22265625 C41 418 41 418 41 420 C39.96101563 420.24234375 38.92203125 420.4846875 37.8515625 420.734375 C19.4263098 425.11543653 2.61863351 432.02475293 -8.08984375 448.69677734 C-14.77618224 459.75243579 -18.43183661 471.37319667 -21 484 C-28.49095669 479.44300135 -35.13406467 473.91116805 -41.890625 468.359375 C-45.53051496 465.37079806 -49.22058668 462.45432844 -52.9375 459.5625 C-65.34419602 449.8734951 -77.39204838 439.74860815 -89.30273438 429.45898438 C-91.01204674 427.98964452 -92.73095199 426.53236128 -94.453125 425.078125 C-101.30613871 419.27868164 -107.97468542 413.32596183 -114.49975586 407.15869141 C-116.98017867 404.8147704 -119.45683722 402.47727714 -122.02075195 400.22436523 C-130.43010588 392.83410714 -138.27493258 384.87559737 -146.17797852 376.95239258 C-148.68849074 374.43650714 -151.20432064 371.92602814 -153.72070312 369.41601562 C-155.33886249 367.79719563 -156.95671172 366.17806555 -158.57421875 364.55859375 C-159.31604904 363.81878769 -160.05787933 363.07898163 -160.82218933 362.3167572 C-165.41523166 357.70326462 -169.7559992 352.93467056 -174 348 C-175.45445517 346.39231627 -176.91220895 344.78760285 -178.375 343.1875 C-183.10576093 337.93819023 -187.56997052 332.50376055 -192 327 C-192.92538408 325.86686303 -193.85118393 324.73406551 -194.77734375 323.6015625 C-213.05123134 301.14757253 -228.73518203 277.16507467 -243 252 C-243.40202637 251.29810547 -243.80405273 250.59621094 -244.21826172 249.87304688 C-255.69766852 229.74042195 -263.89983506 207.99695852 -271 186 C-271.26006836 185.20158691 -271.52013672 184.40317383 -271.78808594 183.58056641 C-278.01386176 164.25130265 -281.90246284 144.18349242 -284 124 C-284.11214844 123.04351562 -284.22429687 122.08703125 -284.33984375 121.1015625 C-284 119 -284 119 -282.296875 117.21875 C-281.45640625 116.6515625 -280.6159375 116.084375 -279.75 115.5 C-278.73808594 114.81164062 -277.72617187 114.12328125 -276.68359375 113.4140625 C-275.45585752 112.60917918 -274.2279823 111.80450785 -273 111 C-271.55308124 110.02909899 -270.10648638 109.05771516 -268.66015625 108.0859375 C-248.53791958 94.68702215 -227.53706326 82.95048196 -206 72 C-204.63915038 71.2998144 -203.27845655 70.59932587 -201.91796875 69.8984375 C-145.12602552 40.85048937 -84.13553637 20.44836025 -22.63540649 4.00079346 C-20.92970845 3.54449207 -19.22460023 3.08597971 -17.52011108 2.62518311 C-15.15239491 1.98725496 -12.78192972 1.36093059 -10.41015625 0.73828125 C-9.70245087 0.54616562 -8.99474548 0.35404999 -8.26559448 0.15611267 C-4.96353666 -0.69661767 -3.30827868 -1.10275956 0 0 Z " fill="#000000" transform="translate(693,150)"/>
<path d="M0 0 C0.13462646 0.72662842 0.26925293 1.45325684 0.40795898 2.2019043 C13.88780059 73.76425144 47.45348032 137.40503254 94 193 C94.41427246 193.49918945 94.82854492 193.99837891 95.25537109 194.51269531 C101.79311743 202.38897321 108.58271094 209.97951492 115.57080078 217.45751953 C116.88315377 218.8738923 118.17505944 220.30913912 119.46484375 221.74609375 C125.66219856 228.64836096 132.13833971 235.24462944 138.6875 241.8125 C139.57880615 242.70839844 140.4701123 243.60429688 141.38842773 244.52734375 C145.84239414 248.97094727 150.35194581 253.27293353 155.12573242 257.37084961 C158.27714262 260.11011758 161.28251601 263.00304604 164.3125 265.875 C169.51103431 270.76849848 174.81990353 275.4111012 180.40234375 279.8671875 C183.13554886 282.11129275 185.72136593 284.46867753 188.3125 286.875 C192.94698227 291.13977998 197.76873955 295.04720813 202.74414062 298.8984375 C206.50501196 301.81219201 210.18045545 304.80020064 213.8125 307.875 C219.89452547 312.98229026 226.19005033 317.78180218 232.515625 322.58203125 C236.2506129 325.41909159 239.95138832 328.29722979 243.64355469 331.18969727 C252.91628261 338.45265779 262.35291906 345.46887375 271.85693359 352.42529297 C276.60060808 355.91090478 281.3009292 359.45459329 286 363 C285.34 363.33 284.68 363.66 284 364 C281.53905564 363.07319314 279.19447977 362.07934468 276.80859375 360.984375 C276.0809935 360.6579451 275.35339325 360.3315152 274.60374451 359.99519348 C273.0336495 359.28964992 271.4651694 358.58050409 269.89813232 357.86819458 C267.41666089 356.74053 264.93095323 355.6227462 262.44384766 354.50756836 C257.62588355 352.34577203 252.81251325 350.1738979 248 348 C175.96615673 315.48198078 100.8823076 289.30716046 25.08929062 267.07615662 C23.77990037 266.69209234 22.47061731 266.30766246 21.1614418 265.92286682 C16.86251943 264.65938541 12.56101594 263.40506695 8.2578125 262.15625 C6.61139519 261.67469452 6.61139519 261.67469452 4.93171692 261.18341064 C3.42468452 260.74940948 3.42468452 260.74940948 1.88720703 260.30664062 C1.01129913 260.05289673 0.13539124 259.79915283 -0.76705933 259.53771973 C-3.10330838 258.88294017 -3.10330838 258.88294017 -6 259 C-5.31752197 259.23372314 -4.63504395 259.46744629 -3.93188477 259.70825195 C76.44396186 287.39260961 156.5591043 321.12727812 231.41162109 361.60791016 C234.59573273 363.3203988 237.79189472 365.00980441 240.98828125 366.69921875 C253.0794648 373.09680383 265.13590926 379.54926632 277.0625 386.25 C278.00125977 386.77440674 278.94001953 387.29881348 279.90722656 387.83911133 C291.4285209 394.36720257 291.4285209 394.36720257 293.3125 399.75 C293.539375 400.8225 293.76625 401.895 294 403 C289.05692457 402.39245345 284.48727556 401.39372592 279.69360352 399.98486328 C278.9941949 399.78073476 278.29478628 399.57660624 277.57418346 399.366292 C275.25770921 398.68891716 272.94332954 398.00465913 270.62890625 397.3203125 C268.9764561 396.83550159 267.32388567 396.35110047 265.67120361 395.86708069 C261.22526324 394.56360183 256.78114961 393.25399645 252.33740616 391.94305038 C248.61551916 390.8458273 244.8926293 389.75202955 241.16972637 388.65825939 C229.96225916 385.36548696 218.75793709 382.06210913 207.55490112 378.75429535 C205.13440633 378.03968141 202.71382711 377.32535432 200.29321289 376.61114502 C163.29782212 365.69476832 126.34698383 354.63167363 89.42883301 343.45697021 C81.94275585 341.19117235 74.45493151 338.93127158 66.96543884 336.67678833 C-66.09000576 296.61443583 -66.09000576 296.61443583 -104 276 C-105.39798828 275.25556641 -105.39798828 275.25556641 -106.82421875 274.49609375 C-115.63445905 269.54454982 -125.03188807 262.61575029 -129 253 C-130.68875266 246.87163345 -130.1290729 242.63233122 -127 237 C-121.354794 227.29730218 -111.61545464 222.21169335 -102 217 C-102.01047363 216.22213135 -102.02094727 215.4442627 -102.03173828 214.64282227 C-102.82420519 146.3050903 -84.9581675 85.32576908 -37.48828125 34.671875 C-35.41513439 32.4457644 -33.41239535 30.18752382 -31.4375 27.875 C-25.4472675 20.98193342 -18.89640819 14.59906797 -11.953125 8.671875 C-10.55136005 7.4719642 -9.16791128 6.25053002 -7.796875 5.015625 C-7.08015625 4.37109375 -6.3634375 3.7265625 -5.625 3.0625 C-4.97789062 2.47597656 -4.33078125 1.88945312 -3.6640625 1.28515625 C-2 0 -2 0 0 0 Z " fill="#000000" transform="translate(386,288)"/>
<path d="M0 0 C3.49692531 3.95704706 4.43962682 6.89394576 4.33447266 12.15112305 C3.67985868 17.72680955 1.86015015 23.03547113 0.18429565 28.37417603 C-1.0031728 32.17160727 -2.13868315 35.98457821 -3.27734375 39.796875 C-3.51021591 40.57456741 -3.74308807 41.35225983 -3.98301697 42.15351868 C-21.29616931 100.26461647 -30.528917 161.53116911 -34 222 C-34.06355179 223.04704102 -34.06355179 223.04704102 -34.12838745 224.11523438 C-35.09261493 240.28177866 -35.20093489 256.43322239 -35.1875 272.625 C-35.18723312 273.29611061 -35.18696625 273.96722122 -35.18669128 274.65866852 C-35.17597824 296.16493976 -34.87090156 317.56548883 -33 339 C-32.93683594 339.74310425 -32.87367188 340.4862085 -32.80859375 341.25183105 C-30.11379866 372.86448547 -25.80511387 404.29305837 -19.47290039 435.38989258 C-19.18080688 436.82691528 -19.18080688 436.82691528 -18.8828125 438.29296875 C-18.71152832 439.1130542 -18.54024414 439.93313965 -18.36376953 440.77807617 C-18 443 -18 443 -18 447 C-20.39664624 445.86566501 -22.62566449 444.61699187 -24.890625 443.23046875 C-32.58741682 438.54974535 -39.93091132 435.42959241 -48.6015625 433.0078125 C-55.29566929 431.02266359 -55.29566929 431.02266359 -57.7890625 427.40234375 C-90.99114829 364.74223717 -98.749158 288.83552674 -102 219 C-102.05784668 217.77861328 -102.11569336 216.55722656 -102.17529297 215.29882812 C-104.95387218 152.99928938 -103.56195148 89.87359681 -96.5625 27.875 C-96.41566772 26.46238892 -96.41566772 26.46238892 -96.26586914 25.02124023 C-95.4940607 18.85664538 -93.88528804 14.60762434 -89.1328125 10.3125 C-70.55480865 -1.83187606 -19.22529144 -16.93656627 0 0 Z " fill="#000000" transform="translate(804,140)"/>
<path d="M0 0 C10.09017974 8.51358916 15.75123715 18.74270023 17.25 31.83984375 C17.99838526 44.99479355 14.2885949 56.52904942 6.17578125 66.92578125 C-0.23957407 73.80601739 -7.67003872 78.06318999 -16.5625 81.02734375 C-17.29204083 93.73810193 -17.7967911 106.43636143 -18.09765625 119.1640625 C-18.14083759 120.90811219 -18.18425367 122.65215609 -18.22789001 124.39619446 C-18.340344 128.91519813 -18.44967965 133.43427164 -18.55828857 137.95336914 C-18.67037979 142.59330965 -18.7855269 147.23317432 -18.90039062 151.87304688 C-19.12402682 160.92440884 -19.34435747 169.97584783 -19.5625 179.02734375 C-24.88319444 178.46970479 -29.6925001 177.55441093 -34.82617188 175.97363281 C-35.50389648 175.7669397 -36.18162109 175.56024658 -36.87988281 175.34729004 C-39.09898686 174.66879423 -41.31508015 173.98098185 -43.53125 173.29296875 C-45.09556973 172.81256345 -46.66006699 172.33273593 -48.22473145 171.85345459 C-52.33686967 170.5921012 -56.44650112 169.32276497 -60.55566406 168.05175781 C-64.68662104 166.77561879 -68.81999651 165.5073656 -72.953125 164.23828125 C-87.16749432 159.87042457 -101.37184536 155.47166309 -115.5625 151.02734375 C-114.34311475 147.24746715 -113.15396128 144.04190623 -110.9453125 140.734375 C-110.16812866 139.55705811 -110.16812866 139.55705811 -109.37524414 138.35595703 C-108.53981079 137.11048096 -108.53981079 137.11048096 -107.6875 135.83984375 C-106.50022412 134.04237823 -105.3140508 132.24418401 -104.12890625 130.4453125 C-103.52965332 129.5382959 -102.93040039 128.6312793 -102.31298828 127.69677734 C-99.70062533 123.71301493 -97.15870772 119.68643072 -94.625 115.65234375 C-90.84833185 109.64892589 -87.05805515 103.65473846 -83.24389648 97.67504883 C-82.04939825 95.80024034 -80.85745845 93.9237991 -79.66821289 92.0456543 C-76.94866206 87.75188797 -74.20913188 83.47830452 -71.3828125 79.25390625 C-70.66375732 78.15985474 -70.66375732 78.15985474 -69.93017578 77.04370117 C-69.04489588 75.69808204 -68.14562152 74.36152329 -67.22998047 73.03637695 C-65.89087484 71.06991182 -65.89087484 71.06991182 -64.5625 68.02734375 C-65.02358829 65.30429992 -65.02358829 65.30429992 -66.5625 63.02734375 C-66.95308594 62.33253906 -67.34367188 61.63773438 -67.74609375 60.921875 C-68.15988281 60.23480469 -68.57367187 59.54773437 -69 58.83984375 C-75.14296922 47.75342 -76.74097766 34.91893906 -73.375 22.58984375 C-68.68211219 9.5588948 -60.79959249 0.51592866 -48.5625 -5.97265625 C-32.17640521 -12.9732883 -14.13962876 -10.88492763 0 0 Z " fill="#000000" transform="translate(798.5625,1071.97265625)"/>
</svg>
