<svg id="svg" version="1.1" xmlns="http://www.w3.org/2000/svg" xmlns:xlink="http://www.w3.org/1999/xlink" width="400" height="398.17351598173514" viewBox="0, 0, 400,398.17351598173514"><g id="svgg"><path id="path0" d="M192.694 0.676 C 160.219 2.322,131.328 10.425,104.659 25.367 C 33.363 65.312,-5.810 143.717,5.107 224.621 C 19.446 330.887,117.955 406.582,224.658 393.325 C 305.620 383.266,372.250 324.085,391.786 244.881 C 395.881 228.281,397.242 216.592,397.253 197.913 C 397.283 147.227,379.683 101.788,345.532 64.380 C 306.923 22.089,248.734 -2.164,192.694 0.676 M211.872 10.189 C 318.052 16.909,397.821 110.563,387.323 216.177 C 377.791 312.067,296.751 385.452,200.391 385.452 C 84.460 385.452,-4.065 280.830,15.151 166.528 C 31.014 72.172,116.596 4.158,211.872 10.189 M199.887 44.629 C 193.976 45.199,188.095 47.593,187.021 49.866 C 185.465 53.162,184.177 85.980,184.973 102.022 C 186.150 125.729,190.128 144.897,196.109 155.686 C 196.959 157.220,197.063 157.309,198.329 157.580 C 200.288 158.001,203.277 159.314,204.967 160.498 C 206.812 161.791,206.767 161.859,206.125 158.749 C 199.124 124.863,201.147 84.729,211.512 51.840 C 213.578 45.284,210.823 43.575,199.887 44.629 M218.200 44.536 C 217.159 44.594,216.308 44.680,216.308 44.728 C 216.308 44.776,216.484 45.237,216.699 45.752 C 217.372 47.363,217.198 49.775,216.182 52.918 C 206.199 83.799,203.618 121.904,209.170 156.425 C 210.234 163.042,209.951 162.482,212.542 163.099 C 227.645 166.698,240.013 158.742,268.344 127.201 C 293.681 98.995,305.386 90.784,317.668 92.598 C 318.667 92.745,319.541 92.809,319.611 92.739 C 320.093 92.257,315.130 83.999,312.405 80.750 L 311.569 79.752 309.666 80.488 C 293.170 86.871,265.583 103.058,243.823 119.122 C 239.512 122.304,239.188 122.440,241.357 120.159 C 259.238 101.349,285.217 83.991,305.613 77.228 C 308.649 76.221,308.610 76.402,306.262 74.222 C 283.999 53.551,251.729 42.673,218.200 44.536 M177.038 49.342 C 151.933 55.892,129.901 65.158,113.422 76.099 C 108.643 79.272,108.882 78.914,109.301 82.303 C 112.507 108.203,128.451 132.838,159.035 159.149 C 163.861 163.301,176.545 173.516,176.875 173.516 C 176.987 173.516,177.225 172.723,177.403 171.755 C 178.711 164.649,184.449 158.606,190.925 157.515 C 193.359 157.105,193.316 157.266,191.801 154.247 C 183.786 138.275,179.898 115.800,179.922 85.584 C 179.936 69.296,181.052 51.636,182.268 48.466 C 182.490 47.888,182.837 47.830,177.038 49.342 M100.310 86.070 C 84.400 99.991,76.712 115.997,76.712 135.201 L 76.712 140.350 74.901 141.302 C 69.997 143.879,68.151 147.784,70.371 150.885 C 73.298 154.973,82.057 159.000,102.283 165.558 C 115.849 169.956,178.605 188.606,178.887 188.323 C 180.013 187.198,177.490 185.553,162.557 177.675 C 144.786 168.301,123.071 158.922,100.457 150.854 C 96.958 149.605,98.205 149.883,105.658 152.014 C 129.548 158.841,149.637 166.127,170.854 175.660 C 174.054 177.098,176.729 178.218,176.797 178.150 C 176.866 178.081,174.541 176.260,171.631 174.103 C 129.911 143.174,109.715 117.430,103.443 87.184 C 103.104 85.550,102.785 84.173,102.734 84.122 C 102.684 84.071,101.593 84.947,100.310 86.070 M317.428 97.782 C 315.183 104.270,317.280 113.415,322.768 121.070 L 323.610 122.244 322.411 120.939 C 317.762 115.881,315.067 109.422,314.749 102.575 L 314.598 99.345 312.842 99.509 C 303.184 100.406,294.613 107.258,269.128 134.456 C 259.422 144.815,258.325 153.707,265.340 165.159 C 270.915 174.259,271.200 178.426,267.224 192.694 C 263.752 205.152,264.715 210.032,272.749 220.684 C 280.417 230.851,283.340 235.913,286.596 244.666 C 291.779 258.598,291.552 279.038,285.957 302.166 C 284.702 307.354,284.740 307.934,286.090 304.184 C 289.675 294.225,292.569 280.881,292.909 272.738 C 293.146 267.055,292.316 267.843,298.761 267.181 C 322.339 264.760,332.071 256.052,325.889 242.907 C 321.916 234.460,322.388 231.464,328.406 226.928 C 331.724 224.426,331.515 221.251,327.832 218.233 L 326.693 217.300 328.187 216.192 C 333.925 211.936,335.067 207.474,331.366 203.773 L 330.333 202.740 331.745 202.740 C 334.748 202.740,338.908 201.585,341.024 200.164 C 343.625 198.417,343.778 196.743,341.715 192.624 C 334.395 178.014,329.885 159.802,328.518 139.335 C 328.063 132.528,328.113 128.698,328.675 127.332 C 329.364 125.658,329.367 116.327,328.680 112.851 C 327.134 105.029,323.677 99.398,318.930 96.970 C 317.834 96.409,317.919 96.364,317.428 97.782 M245.640 156.837 C 232.303 166.360,222.744 169.503,213.464 167.417 C 211.060 166.877,211.131 166.716,212.496 169.627 C 214.076 172.994,214.749 175.816,214.887 179.648 C 214.973 182.054,214.937 182.567,214.733 181.866 C 213.051 176.091,211.621 172.950,209.222 169.768 C 201.889 160.039,188.209 160.295,184.722 170.228 C 182.953 175.270,183.717 181.323,187.246 190.215 C 196.104 212.537,208.389 226.892,216.699 224.632 C 218.495 224.143,221.630 220.499,220.890 219.760 C 220.793 219.662,218.369 219.537,215.503 219.480 C 208.872 219.350,207.436 218.576,207.436 215.134 C 207.436 211.443,210.552 210.126,217.682 210.803 C 245.567 213.451,261.789 241.676,249.714 266.536 C 238.270 290.098,207.184 295.335,188.671 276.822 C 172.093 260.244,174.574 232.503,193.798 219.483 L 196.206 217.852 194.450 215.814 C 190.742 211.511,187.300 206.192,184.088 199.798 C 181.483 194.614,181.699 194.777,180.938 197.413 C 174.987 218.027,153.841 229.806,135.775 222.572 C 119.053 215.876,117.552 193.681,133.594 190.320 C 140.362 188.902,146.235 193.943,146.088 201.044 C 146.068 201.993,146.033 201.936,145.700 200.412 C 144.116 193.167,138.095 190.319,131.709 193.795 C 123.940 198.023,124.759 210.105,133.196 215.748 C 144.588 223.367,162.481 218.945,171.905 206.181 C 174.297 202.941,178.402 194.754,177.891 194.242 C 177.837 194.188,175.451 193.609,172.588 192.956 C 156.711 189.333,137.485 183.874,119.635 177.919 C 106.499 173.537,102.760 172.896,96.096 173.881 C 79.668 176.311,70.665 190.572,79.655 199.928 C 81.873 202.236,83.334 202.864,86.497 202.867 C 94.473 202.876,98.156 195.235,92.985 189.408 L 91.977 188.271 93.073 189.125 C 102.906 196.780,91.705 210.802,80.280 205.141 C 63.865 197.007,71.331 174.185,91.948 169.475 L 94.586 168.872 93.542 168.429 C 92.968 168.186,90.326 167.068,87.671 165.946 C 79.157 162.348,74.445 159.972,71.570 157.829 C 69.918 156.598,70.045 156.600,67.187 157.752 C 42.458 167.724,28.493 193.974,33.816 220.483 C 34.573 224.255,34.835 224.727,35.097 222.790 C 37.478 205.211,55.479 196.421,66.562 207.425 C 75.034 215.837,65.253 230.349,54.712 225.007 C 53.117 224.199,53.230 224.040,55.028 224.567 C 60.704 226.231,66.624 221.827,66.657 215.917 C 66.694 209.068,57.441 204.876,50.202 208.463 C 38.153 214.433,36.443 234.837,47.014 246.489 C 63.474 264.632,89.861 269.812,112.589 259.361 C 116.377 257.619,116.454 257.451,113.372 257.643 C 92.238 258.965,76.087 240.127,86.489 226.289 C 89.746 221.956,94.611 219.717,99.118 220.477 C 108.458 222.052,111.975 232.300,104.986 237.576 L 103.979 238.336 104.828 237.358 C 112.395 228.635,99.729 218.393,91.627 226.683 C 82.947 235.564,90.650 248.832,106.458 252.230 C 119.194 254.969,137.978 247.779,146.454 236.921 C 148.249 234.621,148.415 234.485,147.560 236.008 C 144.695 241.111,139.485 246.333,133.296 250.308 L 130.779 251.924 134.215 255.447 C 155.790 277.564,157.504 315.096,138.804 355.903 C 137.982 357.697,137.347 359.207,137.393 359.258 C 137.439 359.310,138.688 358.472,140.167 357.396 C 174.214 332.645,218.328 319.888,250.460 325.501 C 252.855 325.919,252.642 326.147,252.200 323.631 C 248.759 304.060,255.770 279.764,268.619 266.735 L 271.769 263.541 273.197 264.085 C 275.624 265.008,280.813 266.342,283.789 266.807 C 286.909 267.294,286.891 267.282,287.162 268.993 C 287.496 271.098,287.845 269.027,287.665 266.014 C 286.875 252.829,280.823 240.656,269.308 229.093 C 255.291 215.019,253.042 207.272,257.717 189.172 C 260.454 178.576,260.088 175.120,255.425 167.507 C 252.588 162.877,250.489 157.373,250.489 154.565 C 250.489 153.352,250.579 153.310,245.640 156.837 M221.896 220.650 C 219.112 229.198,211.426 230.074,201.843 222.936 L 199.512 221.199 198.684 221.645 C 192.747 224.842,186.989 231.958,184.632 239.008 C 176.198 264.238,199.500 288.104,224.658 280.002 C 248.484 272.329,253.834 240.521,233.835 225.444 C 229.761 222.372,222.309 219.380,221.896 220.650 " stroke="none" fill="#fcfcfc" fill-rule="evenodd"></path><path id="path1" d="" stroke="none" fill="#100fcfc" fill-rule="evenodd"></path><path id="path2" d="" stroke="none" fill="#100fcfc" fill-rule="evenodd"></path><path id="path3" d="" stroke="none" fill="#100fcfc" fill-rule="evenodd"></path><path id="path4" d="" stroke="none" fill="#100fcfc" fill-rule="evenodd"></path></g></svg>