<?xml version="1.0" encoding="UTF-8"?>
<svg version="1.1" xmlns="http://www.w3.org/2000/svg" width="1560" height="1557">
<path d="M0 0 C8.67378497 8.14850917 8.67378497 8.14850917 8.89004707 12.51543522 C8.71775518 13.57350093 8.54546329 14.63156664 8.36795044 15.72169495 C8.17704771 16.97219352 7.98614498 18.22269209 7.78945732 19.51108456 C7.55002051 20.92350627 7.31046292 22.33590752 7.07080078 23.74829102 C6.82875906 25.28205049 6.58913347 26.81619276 6.3516407 28.35066319 C5.80877347 31.83763005 5.25280563 35.32221669 4.68943024 38.80592728 C3.67034675 45.14100884 2.71017572 51.48452538 1.75531006 57.82955933 C0.2354254 67.9167536 -1.29490282 78.00228009 -2.83816528 88.08592224 C-3.04618318 89.4454079 -3.25420065 90.80489363 -3.46221769 92.16437942 C-3.77948912 94.23774131 -4.09678442 96.31109954 -4.41413379 98.38444951 C-5.50893353 105.53744981 -6.60165945 112.69076656 -7.69430612 119.84409601 C-9.64565212 132.61883785 -11.59844917 145.39335741 -13.55224609 158.16772461 C-15.43832 170.49932993 -17.32383079 182.83102111 -19.20849609 195.1628418 C-19.32496609 195.92493125 -19.44143609 196.68702071 -19.56143548 197.47220378 C-20.72260428 205.07006924 -21.8836813 212.66794871 -23.04472683 220.265833 C-23.49801029 223.23211965 -23.95129796 226.19840566 -24.40458788 229.16469132 C-24.62846005 230.62969211 -24.85233052 232.09469316 -25.07619928 233.55969448 C-26.48814999 242.79945547 -27.90058445 252.03914233 -29.3135798 261.27874362 C-30.12458442 266.58194872 -30.93533744 271.88519228 -31.74608612 277.18843651 C-32.11884204 279.62633032 -32.49169512 282.06420928 -32.86465836 284.50207138 C-33.6945292 289.92657156 -34.52327954 295.35123407 -35.34851456 300.77644157 C-35.94570612 304.70194491 -36.55020774 308.62622297 -37.15987778 312.54980659 C-37.43859603 314.36164906 -37.7172469 316.17350189 -37.99581909 317.98536682 C-38.1238508 318.79872559 -38.2518825 319.61208435 -38.38379395 320.45009035 C-38.96064446 324.22690055 -39.40321849 327.86395927 -39.25 331.6875 C-33.40503927 327.02763957 -27.71994144 322.27881516 -22.25 317.1875 C-17.55812709 312.82353324 -12.72918598 308.69718584 -7.7109375 304.70703125 C-5.01937038 302.49823728 -2.55871268 300.12325603 -0.17578125 297.5859375 C6.19626994 294.61317528 15.71742692 299.47446396 21.8125 301.625 C23.52735596 302.22671021 23.52735596 302.22671021 25.27685547 302.84057617 C89.36842458 325.724093 149.71803901 366.66923835 191.75 420.6875 C192.51054688 421.64140625 193.27109375 422.5953125 194.0546875 423.578125 C220.10659858 456.70483621 249.10675792 500.30458755 255.75 542.6875 C230.33218853 538.57061371 204.99402934 534.01805359 179.65167236 529.46362305 C174.11958706 528.4698365 168.58711902 527.47818512 163.0546875 526.48632812 C152.28609299 524.55541792 141.5179089 522.62222969 130.75 520.6875 C148.35649586 526.92704451 165.96154481 533.16407794 183.65805054 539.14480591 C201.05062488 545.02514747 218.40436345 551.01242005 235.72192383 557.11010742 C244.96092608 560.35729684 254.22038629 563.51901495 263.52734375 566.56640625 C266.38744108 567.51123581 269.24707289 568.45746211 272.1065979 569.40402222 C273.94017195 570.00572718 275.77625172 570.59985373 277.61483765 571.18606567 C280.14804743 571.9938523 282.67191861 572.82620853 285.1953125 573.6640625 C285.95033554 573.89682388 286.70535858 574.12958527 287.48326111 574.36940002 C289.55517578 575.07275391 289.55517578 575.07275391 292.75 576.6875 C294.22275651 581.20196163 294.12430231 586.26666526 294.40174866 590.98440552 C294.48878489 592.39412276 294.48878489 592.39412276 294.57757944 593.83231914 C294.77125412 596.98323494 294.95996056 600.13442845 295.14868164 603.28564453 C295.28646977 605.5443851 295.42455383 607.80310763 295.56291199 610.06181335 C295.9379929 616.20029551 296.30867528 622.33903607 296.67840123 628.47784281 C297.06601143 634.90437227 297.45703205 641.33069437 297.84751892 647.75704956 C298.54514292 659.24800452 299.23928399 670.73916639 299.93204569 682.23041533 C300.55929044 692.63330019 301.19007495 703.03596542 301.82348633 713.43847656 C302.63830603 726.82029263 303.44970104 740.20231115 304.25839043 753.58449936 C304.56692494 758.68875711 304.87681746 763.7929297 305.18782234 768.89703751 C305.55445343 774.91652882 305.91780519 780.93620949 306.27867317 786.95604897 C306.41136199 789.16070604 306.54516972 791.36529611 306.68020248 793.56981087 C306.86496476 796.58926165 307.045596 799.60893331 307.22523499 802.62869263 C307.27902614 803.49204983 307.3328173 804.35540703 307.38823849 805.24492657 C307.53327466 807.72535546 307.64820201 810.2049373 307.75 812.6875 C307.79829039 813.65262064 307.84658079 814.61774127 307.89633453 815.61210799 C307.92597923 816.5846944 307.95562393 817.5572808 307.98616695 818.55933952 C308.01918217 819.44183683 308.05219738 820.32433414 308.08621305 821.23357379 C307.43172812 826.01047856 303.76008851 828.54795264 300.1875 831.4375 C298.76859884 832.6603773 297.35062363 833.88432982 295.93359375 835.109375 C295.23371338 835.69823486 294.53383301 836.28709473 293.81274414 836.89379883 C291.16050282 839.20010928 288.70939595 841.67094095 286.2487793 844.17822266 C284.55431597 845.88455467 282.78074208 847.45633677 280.9375 849 C277.72666245 851.76368029 274.72732835 854.67369596 271.75 857.6875 C268.22893677 861.25150302 264.61813992 864.59054168 260.8125 867.84375 C258.36075311 870.03546313 256.06114427 872.34817104 253.75 874.6875 C250.22893677 878.25150302 246.61813992 881.59054168 242.8125 884.84375 C240.36075311 887.03546313 238.06114427 889.34817104 235.75 891.6875 C232.22893677 895.25150302 228.61813992 898.59054168 224.8125 901.84375 C222.36075311 904.03546313 220.06114427 906.34817104 217.75 908.6875 C214.22893677 912.25150302 210.61813992 915.59054168 206.8125 918.84375 C204.36075311 921.03546313 202.06114427 923.34817104 199.75 925.6875 C196.22893677 929.25150302 192.61813992 932.59054168 188.8125 935.84375 C186.36075311 938.03546313 184.06114427 940.34817104 181.75 942.6875 C178.22893677 946.25150302 174.61813992 949.59054168 170.8125 952.84375 C167.46237746 955.83855651 164.35623694 959.07383596 161.19921875 962.26953125 C159.04696764 964.39432142 156.85371406 966.40287184 154.5625 968.375 C153.92957031 968.92800781 153.29664063 969.48101563 152.64453125 970.05078125 C151.34638224 971.17227493 150.03009906 972.27301943 148.69921875 973.35546875 C148.05597656 973.91878906 147.41273438 974.48210938 146.75 975.0625 C146.1725 975.54460938 145.595 976.02671875 145 976.5234375 C140.9911367 983.46378209 144.45670812 995.59300033 145.29467773 1003.36499023 C145.46093425 1004.93936585 145.62678631 1006.51378421 145.79226685 1008.08824158 C146.24042095 1012.34024642 146.69448386 1016.59160072 147.149863 1020.8428371 C147.62612654 1025.29652927 148.09762382 1029.75072641 148.56983948 1034.20484924 C149.36263887 1041.6755801 150.15929714 1049.14589188 150.95825195 1056.6159668 C151.88253007 1065.25825261 152.80061887 1073.90117917 153.71544498 1082.54447025 C154.59605021 1090.86305404 155.48103797 1099.18116596 156.36802864 1107.49907112 C156.74544916 1111.03915495 157.1213143 1114.57939886 157.49593925 1118.11977959 C157.93643473 1122.28080227 158.38075045 1126.44139943 158.82806778 1130.60169411 C158.99187476 1132.13103362 159.15434712 1133.66051673 159.31541252 1135.1901474 C159.53480469 1137.27161341 159.75895009 1139.35251271 159.98435974 1141.43333435 C160.10880179 1142.59969642 160.23324385 1143.76605848 160.36145687 1144.96776485 C160.59793061 1147.64688165 160.59793061 1147.64688165 161.75 1149.6875 C161.81071371 1148.88464884 161.87142742 1148.08179768 161.93398094 1147.25461769 C163.42322726 1127.6371765 165.00404017 1108.02904109 166.68465233 1088.42704201 C167.49527179 1078.94684557 168.27572996 1069.46602251 168.98339844 1059.97753906 C169.60095777 1051.69830819 170.27695603 1043.42619813 171.02091277 1035.15733278 C171.4122348 1030.78575281 171.77564277 1026.41613447 172.06892014 1022.03679276 C174.21287709 990.52085884 174.21287709 990.52085884 185.56494141 979.84130859 C187.81683409 977.91127589 190.10079297 976.10267343 192.49489212 974.35276413 C198.19381075 970.14444893 203.30886007 965.24770354 208.25 960.1875 C211.30098845 957.09035598 214.37343509 954.06798866 217.6875 951.25 C221.22679074 948.23397196 224.48494745 944.99302422 227.75 941.6875 C231.60064297 937.78912672 235.51038314 934.07773115 239.69140625 930.53125 C243.24960421 927.34440098 246.53045602 923.87163525 249.84375 920.43359375 C252.15067554 918.25379718 254.39315897 916.39619587 256.93164062 914.51586914 C257.64791626 913.98377335 258.36419189 913.45167755 259.10217285 912.90345764 C259.64595581 912.50219162 260.18973877 912.1009256 260.75 911.6875 C260.98431943 928.15186771 261.16029015 944.61568898 261.26812172 961.08132458 C261.31953657 968.72788142 261.38954158 976.37339821 261.50439453 984.01928711 C261.60453411 990.68890939 261.66869055 997.35777807 261.69088495 1004.02813131 C261.70384619 1007.55568128 261.73397027 1011.08107679 261.80730057 1014.60793114 C262.31625352 1040.05573421 262.31625352 1040.05573421 255.88549805 1047.76977539 C254.22257419 1049.45861174 252.51648735 1051.10730812 250.75 1052.6875 C249.67468579 1053.98315805 248.61834259 1055.29559078 247.60546875 1056.640625 C246.71698371 1057.74026085 245.82766895 1058.83922685 244.9375 1059.9375 C240.64178328 1065.26917252 236.45081557 1070.67042788 232.3125 1076.125 C227.48999029 1082.47587655 222.53887097 1088.7030571 217.48901367 1094.87426758 C212.60764766 1100.84251466 207.83822903 1106.89318628 203.09277344 1112.96972656 C200.81766082 1115.88021608 198.53336957 1118.78348707 196.25 1121.6875 C193.50945374 1125.17401101 190.76990368 1128.66128158 188.03515625 1132.15234375 C182.80509493 1138.82518061 177.536497 1145.46504236 172.23291016 1152.07958984 C167.02588654 1158.57953106 161.88511087 1165.13070018 156.75 1171.6875 C150.61770718 1179.5175581 144.45444342 1187.32019448 138.23291016 1195.07958984 C133.02588654 1201.57953106 127.88511087 1208.13070018 122.75 1214.6875 C116.61770718 1222.5175581 110.45444342 1230.32019448 104.23291016 1238.07958984 C100.86292851 1242.28634676 97.5152785 1246.50978526 94.1875 1250.75 C93.73616699 1251.32508301 93.28483398 1251.90016602 92.81982422 1252.49267578 C90.56823665 1255.36383313 88.32010429 1258.2376622 86.07421875 1261.11328125 C81.17461222 1267.37823531 76.21857073 1273.58997023 71.1875 1279.75 C67.2832111 1284.53142621 63.43124883 1289.34173148 59.6875 1294.25 C55.62719332 1299.57176119 51.47447229 1304.81028354 47.28320312 1310.02929688 C43.89434834 1314.25126321 40.52917948 1318.49059842 37.1875 1322.75 C36.51062134 1323.61250366 36.51062134 1323.61250366 35.82006836 1324.49243164 C33.56835634 1327.3636367 31.32017465 1330.23757211 29.07421875 1333.11328125 C23.97390441 1339.63625164 18.82605109 1346.11949228 13.625 1352.5625 C12.77156006 1353.62573486 12.77156006 1353.62573486 11.90087891 1354.71044922 C10.54058881 1356.38865355 9.14847351 1358.0409792 7.75 1359.6875 C7.42 1359.6875 7.09 1359.6875 6.75 1359.6875 C6.33804936 1300.5094596 6.02081534 1241.33145347 5.83082407 1182.15228067 C5.80837235 1175.16654071 5.78503433 1168.18080383 5.76123047 1161.19506836 C5.75887681 1160.49991001 5.75652314 1159.80475167 5.75409816 1159.08852792 C5.67741651 1136.56313682 5.5422319 1114.03855938 5.37665003 1091.51366107 C5.20195953 1067.70638744 5.09405552 1043.8997434 5.05640709 1020.09183055 C5.03170109 1005.8309039 4.95366404 991.57231324 4.8075036 977.31210569 C4.71239218 967.53477483 4.68358837 957.75865239 4.70697521 947.98089244 C4.71851303 942.33755999 4.70077708 936.69830939 4.60430145 931.05570221 C4.51655671 925.88596325 4.51233249 920.72303847 4.57381989 915.55298267 C4.58141439 913.68590532 4.55865798 911.81839947 4.50210272 909.95216342 C4.17701195 898.55988504 4.17701195 898.55988504 6.75 893.6875 C11.20090345 889.1372981 16.86227552 886.4118745 22.56767441 883.74762736 C25.65995265 882.24546436 28.44300779 880.43191801 31.30859375 878.53515625 C32.28078857 877.91044434 33.2529834 877.28573242 34.25463867 876.64208984 C35.70640503 875.70550537 35.70640503 875.70550537 37.1875 874.75 C39.33825227 873.36803909 41.48929653 871.9865325 43.640625 870.60546875 C44.67767578 869.93950684 45.71472656 869.27354492 46.78320312 868.58740234 C50.9895463 865.89370891 55.21129032 863.22488148 59.4375 860.5625 C66.2199296 856.28890875 72.98887705 851.99472475 79.75 847.6875 C90.50282452 840.83866264 101.28005393 834.02903627 112.06347656 827.22851562 C123.23571784 820.18177144 134.39018518 813.10765898 145.53125 806.01171875 C146.376875 805.47466309 147.2225 804.93760742 148.09375 804.38427734 C149.99532041 803.16957933 151.89044975 801.94477475 153.78125 800.71337891 C155.26625 799.75117432 155.26625 799.75117432 156.78125 798.76953125 C157.68423828 798.18018799 158.58722656 797.59084473 159.51757812 796.98364258 C161.75 795.6875 161.75 795.6875 163.75 795.6875 C164.16161377 794.38099487 164.16161377 794.38099487 164.58154297 793.0480957 C165.68749464 789.86727147 166.97161805 786.94322359 168.4453125 783.91796875 C168.98800781 782.7990625 169.53070312 781.68015625 170.08984375 780.52734375 C170.68485243 779.30987462 171.27990587 778.09242736 171.875 776.875 C172.49905675 775.59132021 173.12274653 774.30746198 173.74609375 773.0234375 C175.06616448 770.30556383 176.38825456 767.58868622 177.71191406 764.87255859 C179.7270736 760.73650212 181.73561193 756.59725782 183.7421875 752.45703125 C184.07229324 751.77594803 184.40239899 751.09486481 184.74250793 750.3931427 C185.41056984 749.01470223 186.0786047 747.63624865 186.74661255 746.25778198 C188.08616347 743.49389638 189.42636588 740.7303269 190.76655579 737.9667511 C192.42803154 734.5404929 194.08903769 731.11400712 195.75 727.6875 C196.24327789 726.67000671 196.24327789 726.67000671 196.746521 725.63195801 C198.67768084 721.64811753 200.60732651 717.66354968 202.53491211 713.67797852 C203.40455326 711.88059467 204.27549333 710.08383947 205.14648438 708.28710938 C205.67951172 707.18431641 206.21253906 706.08152344 206.76171875 704.9453125 C207.22022217 703.9980127 207.67872559 703.05071289 208.15112305 702.07470703 C210.40356985 697.30291791 212.57574505 692.49532314 214.75 687.6875 C213.68288284 687.91238602 212.61576569 688.13727203 211.51631165 688.36897278 C164.17615255 698.32796612 116.73193319 707.7777038 69.30154812 717.29507744 C57.65344824 719.63245632 46.0057531 721.97184919 34.35808218 724.31136453 C10.48915291 729.10555975 -13.3802542 733.89737201 -37.25 738.6875 C-39.89962728 763.79705008 -42.03105612 788.9474486 -44.15597391 814.10583568 C-44.64743709 819.91752235 -45.14181459 825.72896106 -45.63595581 831.54042053 C-46.77892135 844.98769027 -47.91873268 858.43522631 -49.05796814 871.8828125 C-50.5151437 889.08305273 -51.97305693 906.28322928 -53.43532932 923.48303705 C-54.02145094 930.37866551 -54.60559773 937.2744575 -55.18819833 944.17038429 C-55.54973021 948.44497713 -55.91291561 952.71942833 -56.27654648 956.99384308 C-56.44454481 958.97270102 -56.61185152 960.95161781 -56.77841187 962.93059731 C-57.00594941 965.63296465 -57.23596581 968.33511019 -57.46658325 971.03721619 C-57.53166112 971.8173528 -57.59673899 972.5974894 -57.66378891 973.40126652 C-57.72663099 974.13169936 -57.78947306 974.8621322 -57.85421944 975.61469936 C-57.90689323 976.23674706 -57.95956702 976.85879475 -58.01383698 977.49969238 C-58.34548198 980.57204241 -58.81298002 983.62836015 -59.25 986.6875 C-85.65 986.6875 -112.05 986.6875 -139.25 986.6875 C-141.0053941 969.133559 -142.74908559 951.59941121 -144.22705078 934.02368164 C-144.40301052 931.9518061 -144.57917513 929.87994795 -144.75552368 927.80810547 C-145.12834337 923.42324929 -145.49981524 919.03828202 -145.87015152 914.65321541 C-146.45629436 907.71346063 -147.04590521 900.77400292 -147.63595581 893.83457947 C-148.77892135 880.38730973 -149.91873268 866.93977369 -151.05796814 853.4921875 C-152.5151437 836.29194727 -153.97305693 819.09177072 -155.43532932 801.89196295 C-156.02145094 794.99633449 -156.60559773 788.1005425 -157.18819833 781.20461571 C-157.54973021 776.93002287 -157.91291561 772.65557167 -158.27654648 768.38115692 C-158.44454481 766.40229898 -158.61185152 764.42338219 -158.77841187 762.44440269 C-159.00594941 759.74203535 -159.23596581 757.03988981 -159.46658325 754.33778381 C-159.53166112 753.5576472 -159.59673899 752.7775106 -159.66378891 751.97373348 C-160.04733222 747.51569101 -160.57578186 743.11120527 -161.25 738.6875 C-162.43938108 738.44896175 -163.62876217 738.21042351 -164.8541851 737.96465683 C-193.15703208 732.28824658 -221.45948955 726.60989715 -249.76147532 720.92919461 C-253.25325284 720.22833566 -256.74503362 719.5274929 -260.23681641 718.82666016 C-260.93189868 718.6871505 -261.62698094 718.54764085 -262.34312631 718.40390363 C-273.56311477 716.15198481 -284.78336532 713.90137451 -296.00371514 711.65125701 C-307.53698648 709.33835589 -319.06997069 707.02402715 -330.60269558 704.70840287 C-337.07193948 703.40950287 -343.54131909 702.11128539 -350.01101303 700.8146286 C-356.11304244 699.59163744 -362.21471277 698.36687012 -368.31612396 697.14079857 C-370.54343711 696.69353719 -372.7708755 696.24689895 -374.99845505 695.80096626 C-387.78346572 693.24114618 -400.53560529 690.57887909 -413.25 687.6875 C-406.50350659 701.79297726 -399.71189524 715.87566535 -392.875 729.9375 C-385.30591592 745.50766061 -377.74688035 761.08240571 -370.25 776.6875 C-369.7967334 777.62996582 -369.3434668 778.57243164 -368.87646484 779.54345703 C-367.70451555 781.98505559 -366.53823919 784.42924235 -365.375 786.875 C-365.04685303 787.55836426 -364.71870605 788.24172852 -364.38061523 788.94580078 C-362.25 793.45495739 -362.25 793.45495739 -362.25 795.6875 C-361.27933594 796.01621094 -361.27933594 796.01621094 -360.2890625 796.3515625 C-356.12577382 798.18169711 -352.4428862 800.60433964 -348.625 803.0625 C-346.91023366 804.15637136 -345.19538775 805.25011799 -343.48046875 806.34375 C-342.60825684 806.90191406 -341.73604492 807.46007812 -340.83740234 808.03515625 C-336.8815537 810.56140494 -332.90887379 813.06076125 -328.9375 815.5625 C-321.09275495 820.51338401 -313.26604266 825.49234057 -305.44213867 830.47607422 C-299.55283923 834.22610925 -293.65546218 837.96297579 -287.75 841.6875 C-280.9058988 846.00401576 -274.07464147 850.34028468 -267.25 854.6875 C-258.04844968 860.54820688 -248.83063921 866.38258305 -239.60302734 872.20214844 C-237.16764364 873.73948756 -234.73401207 875.27956842 -232.30078125 876.8203125 C-231.47602295 877.34222168 -230.65126465 877.86413086 -229.80151367 878.40185547 C-228.26092622 879.37683233 -226.72068349 880.35235428 -225.1809082 881.32861328 C-224.46378662 881.78220215 -223.74666504 882.23579102 -223.0078125 882.703125 C-222.31613375 883.16159427 -221.62445501 883.62006354 -220.9118163 884.09242582 C-218.22028241 885.78778484 -218.22028241 885.78778484 -214.99657995 887.07316637 C-210.9475352 888.99419488 -208.44087483 890.51260838 -205.25 893.6875 C-203.29775267 899.87930639 -203.54646783 905.9015064 -203.68669128 912.34069824 C-203.68102036 914.26978395 -203.66963414 916.19885988 -203.65303212 918.12788248 C-203.62397038 923.42422608 -203.67593707 928.71715042 -203.74114692 934.01305819 C-203.79728866 939.72530722 -203.77828921 945.43736349 -203.76841736 951.14981079 C-203.76160064 961.0452189 -203.80238609 970.9395127 -203.87550926 980.8346405 C-203.98116278 995.14113205 -204.01501791 1009.4470848 -204.03135315 1023.75392419 C-204.05980536 1046.96549188 -204.14620712 1070.1764521 -204.26928711 1093.38769531 C-204.38870939 1115.93518999 -204.48078386 1138.4825258 -204.53588867 1161.03027344 C-204.53845343 1162.07304021 -204.53845343 1162.07304021 -204.54107001 1163.13687297 C-204.55821096 1170.1182192 -204.57479651 1177.09956666 -204.59097518 1184.08091519 C-204.72667906 1242.61683817 -204.95605234 1301.15216258 -205.25 1359.6875 C-208.81879141 1356.15034351 -212.20383606 1352.53176509 -215.4375 1348.6875 C-215.91453369 1348.12208496 -216.39156738 1347.55666992 -216.88305664 1346.97412109 C-220.51339366 1342.63836883 -223.98873967 1338.20484375 -227.41113281 1333.70288086 C-230.60810884 1329.50105138 -233.88039584 1325.36561329 -237.1875 1321.25 C-241.08735681 1316.39417382 -244.96824709 1311.52499625 -248.8125 1306.625 C-249.26375244 1306.04999756 -249.71500488 1305.47499512 -250.17993164 1304.88256836 C-252.43164366 1302.0113633 -254.67982535 1299.13742789 -256.92578125 1296.26171875 C-261.82538778 1289.99676469 -266.78142927 1283.78502977 -271.8125 1277.625 C-275.7167889 1272.84357379 -279.56875117 1268.03326852 -283.3125 1263.125 C-286.87883758 1258.45067404 -290.50606465 1253.83416279 -294.1875 1249.25 C-300.38569088 1241.53194622 -306.5011286 1233.75112744 -312.60449219 1225.95800781 C-317.78769563 1219.34186692 -322.99237694 1212.74472219 -328.25 1206.1875 C-334.4237919 1198.48764689 -340.51929286 1190.72793427 -346.60449219 1182.95800781 C-351.78769563 1176.34186692 -356.99237694 1169.74472219 -362.25 1163.1875 C-367.50634643 1156.63187 -372.7094206 1150.03611504 -377.89111328 1143.42138672 C-380.17453295 1140.50783183 -382.46245445 1137.59781584 -384.75 1134.6875 C-387.49048208 1131.20093843 -390.23009622 1127.71371854 -392.96484375 1124.22265625 C-397.69612756 1118.1861907 -402.45218208 1112.17126068 -407.25 1106.1875 C-412.50634643 1099.63187 -417.7094206 1093.03611504 -422.89111328 1086.42138672 C-425.17453303 1083.50783173 -427.46250803 1080.59785807 -429.75 1077.6875 C-430.66668823 1076.52085027 -431.5833549 1075.35418361 -432.5 1074.1875 C-432.95375 1073.61 -433.4075 1073.0325 -433.875 1072.4375 C-435.25 1070.6875 -436.625 1068.9375 -438 1067.1875 C-438.4544751 1066.60911377 -438.9089502 1066.03072754 -439.37719727 1065.43481445 C-440.28668371 1064.27721273 -441.196028 1063.1194993 -442.10522461 1061.96166992 C-444.50554791 1058.90534158 -446.9088749 1055.8514359 -449.31640625 1052.80078125 C-449.81785156 1052.16462891 -450.31929688 1051.52847656 -450.8359375 1050.87304688 C-451.79726881 1049.65358031 -452.75946435 1048.43479439 -453.72265625 1047.21679688 C-459.50111545 1039.88193721 -459.50111545 1039.88193721 -459.49050903 1034.46736145 C-459.49325836 1033.38622574 -459.49600769 1032.30509003 -459.49884033 1031.19119263 C-459.49164978 1030.00508392 -459.48445923 1028.81897522 -459.47705078 1027.59692383 C-459.47734283 1026.34802872 -459.47763489 1025.09913361 -459.47793579 1023.81239319 C-459.47678024 1020.38696595 -459.46674185 1016.96177905 -459.45278788 1013.53639436 C-459.44029513 1009.95694323 -459.43911117 1006.37748898 -459.43673706 1002.79801941 C-459.430518 996.01947224 -459.41410144 989.2409895 -459.39403808 982.46247071 C-459.37169231 974.74550746 -459.36068898 967.02854114 -459.35064721 959.3115536 C-459.32973557 943.43683174 -459.29455134 927.56217417 -459.25 911.6875 C-457.96433447 912.64160531 -456.68005416 913.59757742 -455.3963623 914.55433655 C-454.68103081 915.08649308 -453.96569931 915.61864962 -453.2286911 916.16693211 C-450.99252613 917.88536135 -448.99799001 919.72588748 -447.03125 921.74609375 C-445.97357422 922.82020508 -445.97357422 922.82020508 -444.89453125 923.91601562 C-444.18683594 924.64498047 -443.47914063 925.37394531 -442.75 926.125 C-438.01906617 930.97226827 -433.24504005 935.63908062 -428.10742188 940.05493164 C-425.35642051 942.47290563 -422.80534705 945.06618611 -420.25 947.6875 C-417.00784773 950.97423187 -413.77049017 954.19508336 -410.25 957.1875 C-406.16125235 960.6629355 -402.44183316 964.46850237 -398.67407227 968.28295898 C-395.92796161 971.04989652 -393.15698867 973.71953225 -390.1875 976.25 C-389.61370511 976.75317843 -389.03991022 977.25635687 -388.44872761 977.77478313 C-386.84286343 979.17175631 -385.20573983 980.53302478 -383.55153942 981.87241077 C-375.2506277 989.18340502 -373.37698983 995.61830765 -372.62426758 1006.53198242 C-372.47911189 1008.10048643 -372.32958159 1009.66859072 -372.17605591 1011.23629761 C-371.77497273 1015.45770464 -371.43466409 1019.68200159 -371.1057303 1023.90955901 C-370.75043557 1028.33967656 -370.33851311 1032.76453042 -369.93278503 1037.19026184 C-369.17446452 1045.5555623 -368.466564 1053.92432018 -367.77705163 1062.29554206 C-366.98903308 1071.83239235 -366.14435392 1081.36396216 -365.29507601 1090.89552152 C-363.55065391 1110.4876525 -361.87684036 1130.08527841 -360.25 1149.6875 C-358.88547795 1146.9584559 -358.80865911 1144.47290559 -358.48435974 1141.43333435 C-358.41408493 1140.78460722 -358.34381011 1140.13588008 -358.27140576 1139.46749455 C-358.03585764 1137.283969 -357.80590868 1135.0998899 -357.57592773 1132.91577148 C-357.40861593 1131.35371006 -357.240975 1129.79168387 -357.07302856 1128.22969055 C-356.61692759 1123.97766246 -356.16580809 1119.72511938 -355.71581149 1115.47244143 C-355.33960994 1111.92148242 -354.96098484 1108.37078359 -354.58235127 1104.8200832 C-353.68851033 1096.43763693 -352.79866827 1088.05477276 -351.91137695 1079.67163086 C-350.99692932 1071.03249594 -350.07624062 1062.3940428 -349.15235752 1053.75591224 C-348.35907974 1046.33705006 -347.5694956 1038.91780119 -346.7828899 1031.49822861 C-346.31322192 1027.06836079 -345.84222434 1022.63864513 -345.36776543 1018.20928764 C-344.92109644 1014.03767261 -344.47907193 1009.86559042 -344.04053116 1005.69311333 C-343.8793079 1004.16640041 -343.71649418 1002.63985443 -343.55192375 1001.11349869 C-341.20147846 988.54739573 -341.20147846 988.54739573 -343.4439764 976.81442928 C-344.93567212 975.06661739 -346.5240293 973.57877554 -348.25 972.0625 C-348.84723877 971.50328857 -349.44447754 970.94407715 -350.05981445 970.36791992 C-351.76747593 968.78046745 -353.50024573 967.22828089 -355.25 965.6875 C-356.00667969 965.01589844 -356.76335937 964.34429688 -357.54296875 963.65234375 C-358.78572222 962.56845774 -360.03554143 961.49260906 -361.29296875 960.42578125 C-364.61906211 957.47146679 -367.68705142 954.25731381 -370.8125 951.09375 C-372.90000635 949.03300655 -375.02169223 947.09234374 -377.25 945.1875 C-381.32623219 941.70297893 -385.04550873 937.90668019 -388.8125 934.09375 C-390.90000635 932.03300655 -393.02169223 930.09234374 -395.25 928.1875 C-399.32623219 924.70297893 -403.04550873 920.90668019 -406.8125 917.09375 C-408.90000635 915.03300655 -411.02169223 913.09234374 -413.25 911.1875 C-417.32623219 907.70297893 -421.04550873 903.90668019 -424.8125 900.09375 C-426.90000635 898.03300655 -429.02169223 896.09234374 -431.25 894.1875 C-435.32623219 890.70297893 -439.04550873 886.90668019 -442.8125 883.09375 C-444.90000635 881.03300655 -447.02169223 879.09234374 -449.25 877.1875 C-453.32623219 873.70297893 -457.04550873 869.90668019 -460.8125 866.09375 C-462.90000635 864.03300655 -465.02169223 862.09234374 -467.25 860.1875 C-471.32623219 856.70297893 -475.04550873 852.90668019 -478.8125 849.09375 C-481.5015487 846.43917628 -484.3127879 843.98839034 -487.18359375 841.53515625 C-490.55665078 838.51917142 -493.68800678 835.26783228 -496.83984375 832.0234375 C-498.93230189 829.99541486 -500.99795132 828.41153302 -503.375 826.75 C-505.50087083 824.96228198 -506.19331055 824.13305971 -506.54921049 821.33580768 C-506.50628153 819.99384364 -506.50628153 819.99384364 -506.46248531 818.62476921 C-506.43625965 817.64273639 -506.41003399 816.66070358 -506.38301361 815.64891219 C-506.33911912 814.67164617 -506.29522463 813.69438015 -506.25 812.6875 C-506.19956045 811.43753184 -506.19956045 811.43753184 -506.14810193 810.16231179 C-506.02986727 807.64929805 -505.88167668 805.13960848 -505.72523499 802.62869263 C-505.66877082 801.67952119 -505.61230665 800.73034975 -505.55413145 799.75241554 C-505.36613089 796.6057424 -505.17343799 793.45937531 -504.98071289 790.31298828 C-504.8441319 788.04366171 -504.70783261 785.77431817 -504.5717926 783.50495911 C-504.2029443 777.36685004 -503.82991423 771.22900184 -503.45592427 765.09120417 C-503.14392431 759.96397743 -502.8340566 754.83662277 -502.52420896 749.70926559 C-501.75186784 736.92860119 -500.9756027 724.1481796 -500.19740664 711.36787067 C-499.56398286 700.96354122 -498.93414293 690.55899979 -498.30688477 680.15429688 C-497.5774706 668.05509377 -496.84571684 655.95603662 -496.11054987 643.85718143 C-495.72173699 637.45827123 -495.33387678 631.05930709 -494.94847298 624.66019058 C-494.58635444 618.65011522 -494.22085572 612.64025484 -493.85272789 606.63054466 C-493.71809367 604.42350563 -493.584646 602.21639386 -493.45246124 600.00920677 C-493.2720969 597.00073375 -493.08747223 593.99255175 -492.90174866 590.98440552 C-492.85018822 590.10766399 -492.79862779 589.23092245 -492.74550492 588.327613 C-492.22711981 580.07738097 -492.22711981 580.07738097 -491.25 576.6875 C-489.40701294 575.5038147 -489.40701294 575.5038147 -486.95361328 574.70556641 C-486.02957703 574.39335648 -485.10554077 574.08114655 -484.15350342 573.75947571 C-483.13605042 573.43923935 -482.11859741 573.11900299 -481.0703125 572.7890625 C-480.01354309 572.43784836 -478.95677368 572.08663422 -477.86798096 571.72477722 C-474.3762272 570.56848952 -470.87579933 569.44107242 -467.375 568.3125 C-464.9271021 567.50590817 -462.48000523 566.69688153 -460.03369141 565.88549805 C-455.08393306 564.24444256 -450.1316904 562.61124579 -445.17773438 560.98291016 C-436.77624603 558.21105004 -428.42377361 555.30775509 -420.08065796 552.36569214 C-399.78185668 545.20976367 -379.42134606 538.23267114 -359.0625 531.25 C-358.29459892 530.98660954 -357.52669785 530.72321907 -356.73552704 530.45184708 C-347.24095681 527.19529734 -337.74579361 523.94048084 -328.25 520.6875 C-352.07217191 524.75450474 -375.88261105 528.88084422 -399.6640625 533.1796875 C-400.48243843 533.32761309 -401.30081436 533.47553867 -402.14398956 533.62794685 C-410.33501116 535.10914104 -418.52522033 536.59477047 -426.71450233 538.08555222 C-429.79270892 538.64567119 -432.87113782 539.2045621 -435.94959641 539.76329422 C-438.09145395 540.15263815 -440.2329405 540.54397815 -442.37442017 540.93539429 C-443.64965546 541.16691193 -444.92489075 541.39842957 -446.23876953 541.63696289 C-447.35655792 541.84076065 -448.47434631 542.04455841 -449.62600708 542.25453186 C-452.25 542.6875 -452.25 542.6875 -454.25 542.6875 C-444.98443048 497.46115369 -417.37465755 453.9233806 -388.25 418.6875 C-387.45464844 417.718125 -386.65929687 416.74875 -385.83984375 415.75 C-370.41805451 397.12620454 -353.37833605 379.5280077 -334.25 364.6875 C-333.64784668 364.21280273 -333.04569336 363.73810547 -332.42529297 363.24902344 C-321.73120915 354.82274607 -310.72603289 347.01296768 -299.25 339.6875 C-298.6297998 339.29111328 -298.00959961 338.89472656 -297.37060547 338.48632812 C-285.75084735 331.13277679 -273.50978778 324.89271604 -261.25 318.6875 C-260.50524414 318.30706543 -259.76048828 317.92663086 -258.99316406 317.53466797 C-245.57838759 310.73132282 -231.45136275 305.59464543 -217.25 300.6875 C-216.09177734 300.28466797 -214.93355469 299.88183594 -213.74023438 299.46679688 C-212.60392578 299.09103516 -211.46761719 298.71527344 -210.296875 298.328125 C-209.27948242 297.98813477 -208.26208984 297.64814453 -207.21386719 297.29785156 C-203.2208311 296.47556242 -199.94160624 296.58849761 -196.45825195 298.8515625 C-195.97316162 299.33367187 -195.48807129 299.81578125 -194.98828125 300.3125 C-194.43253418 300.84955566 -193.87678711 301.38661133 -193.30419922 301.93994141 C-192.72943848 302.51663574 -192.15467773 303.09333008 -191.5625 303.6875 C-190.3241029 304.88539031 -189.08319475 306.08068988 -187.83984375 307.2734375 C-187.23124512 307.85963867 -186.62264648 308.44583984 -185.99560547 309.04980469 C-183.6358218 311.26371082 -181.15314089 313.29439044 -178.625 315.3125 C-173.9327717 319.0634938 -169.51016737 323.03853524 -165.13232422 327.14697266 C-162.41043846 329.71880953 -162.41043846 329.71880953 -159.25 331.6875 C-159.8879898 319.82389223 -161.90277804 308.13189437 -163.70898438 296.40405273 C-164.06925808 294.04489382 -164.42917262 291.68568004 -164.78875732 289.32641602 C-165.66358096 283.59272084 -166.54212903 277.85960543 -167.42232984 272.12673347 C-168.45652712 265.38945624 -169.48601805 258.65146227 -170.51526767 251.91342772 C-172.36246991 239.82143659 -174.21328547 227.73000143 -176.06640625 215.63891602 C-177.84295365 204.04739527 -179.61794083 192.4556376 -181.390625 180.86352539 C-181.49877948 180.15627496 -181.60693396 179.44902453 -181.71836585 178.72034227 C-182.26230045 175.16333735 -182.80619946 171.60632698 -183.35007763 168.04931343 C-184.42777197 161.0011191 -185.50564697 153.9529524 -186.58361816 146.90480042 C-186.68891871 146.2163045 -186.79421926 145.52780858 -186.90271074 144.81844915 C-188.61458901 133.62583895 -190.3274476 122.43337899 -192.04261732 111.24127263 C-192.98537113 105.0886782 -193.92644986 98.93583839 -194.86348724 92.78237057 C-196.62094886 81.25177995 -198.39587825 69.72451017 -200.2232852 58.20480984 C-200.99022255 53.36861004 -201.74875039 48.53110167 -202.5052388 43.69325747 C-203.02289382 40.38684871 -203.5467932 37.08170517 -204.07911968 33.7776078 C-204.66369398 30.14734803 -205.23275872 26.51496988 -205.79846191 22.88172913 C-205.97654923 21.80189684 -206.15463655 20.72206455 -206.33812046 19.60951006 C-206.48928035 18.61917879 -206.64044024 17.62884752 -206.79618073 16.6085062 C-206.93288886 15.74965496 -207.06959699 14.89080371 -207.21044779 14.00592667 C-207.29652277 8.96048085 -203.68135091 5.44852051 -200.47265625 1.890625 C-182.00357639 -16.41616066 -157.1566054 -24.56815899 -132.25 -29.3125 C-131.54891113 -29.44672363 -130.84782227 -29.58094727 -130.12548828 -29.71923828 C-86.88635955 -37.48066735 -33.6110576 -29.92095471 0 0 Z " fill="#000000" transform="translate(879.25,108.3125)"/>
<path d="M0 0 C2.24187352 1.27810906 4.49272031 2.53507041 6.75537109 3.77587891 C38.0028864 20.92722177 67.53298947 41.52705575 95.58740234 63.47509766 C96.73823701 64.36729181 97.88928467 65.25921129 99.04052734 66.15087891 C106.49706741 71.94503462 113.774493 77.9161127 120.93994141 84.06591797 C122.61549024 85.49912305 124.29967208 86.92159503 125.98583984 88.34228516 C134.16033281 95.25295469 142.01389231 102.45708741 149.79980469 109.80078125 C151.46296209 111.35854327 153.13944746 112.89942273 154.82568359 114.43212891 C161.18748344 120.21648067 167.37121417 126.15566843 173.46240234 132.22509766 C174.51500244 133.27080933 174.51500244 133.27080933 175.58886719 134.33764648 C179.50519825 138.26561943 183.23238144 142.2971491 186.85449219 146.49707031 C189.79339173 149.85167219 192.88853656 153.05719057 195.96240234 156.28759766 C200.98583737 161.60667348 205.80524686 166.99802573 210.36474609 172.72509766 C212.4630016 175.32118179 214.62471578 177.84106249 216.81835938 180.35595703 C223.50695517 188.03569479 229.72881917 196.01339707 235.84277344 204.15527344 C237.67328004 206.5892888 239.51452422 209.01492596 241.35693359 211.43994141 C248.59979463 220.99945285 255.64641882 230.65165583 262.33300781 240.60888672 C263.55787624 242.43117053 264.79245828 244.24652826 266.02880859 246.06103516 C284.9515125 273.96955061 301.4902452 303.35083022 316.58740234 333.47509766 C317.15201172 334.60028809 317.71662109 335.72547852 318.29833984 336.88476562 C331.49450098 363.34291381 342.78358441 390.58645912 352.58740234 418.47509766 C352.81729858 419.12613464 353.04719482 419.77717163 353.28405762 420.44793701 C375.07970427 482.24289827 388.62613104 546.39500909 394.27490234 611.66259766 C394.36630997 612.71253906 394.36630997 612.71253906 394.45956421 613.78369141 C396.30200357 635.24511475 396.79266897 656.62401792 396.77490234 678.16259766 C396.77463547 678.83666279 396.77436859 679.51072792 396.77409363 680.20521927 C396.76375584 701.03274618 396.5074772 721.72211464 394.58740234 742.47509766 C394.45697121 743.94040987 394.32677233 745.40574278 394.19677734 746.87109375 C388.85146812 806.28289781 377.2222132 864.78349193 358.58740234 921.47509766 C358.38199829 922.10355591 358.17659424 922.73201416 357.96496582 923.3795166 C342.35402515 971.12550504 322.10572818 1017.34276548 297.05957031 1060.89794922 C295.7488872 1063.19240542 294.45976176 1065.49645687 293.18505859 1067.81103516 C280.05170133 1091.65421062 264.75417076 1114.58934284 248.58740234 1136.47509766 C248.12414551 1137.10287109 247.66088867 1137.73064453 247.18359375 1138.37744141 C237.57034336 1151.36814921 227.70346101 1164.10860128 217.20068359 1176.39306641 C214.79658922 1179.21144795 212.4697224 1182.08681719 210.14990234 1184.97509766 C205.89903299 1190.19933244 201.376667 1195.12871246 196.77490234 1200.04150391 C194.29245065 1202.69361631 191.87333593 1205.3969012 189.45874023 1208.11083984 C184.93691085 1213.13854043 180.24532535 1217.96238547 175.45849609 1222.73681641 C174.62455826 1223.57171097 173.79062042 1224.40660553 172.93141174 1225.26679993 C171.18393608 1227.01495046 169.43521962 1228.76186151 167.68530273 1230.50756836 C165.02456207 1233.16293725 162.36922304 1235.82362383 159.71435547 1238.48486328 C158.00438964 1240.19416847 156.29411372 1241.90316352 154.58349609 1243.61181641 C153.79994247 1244.39739426 153.01638885 1245.18297211 152.20909119 1245.99235535 C147.49346064 1250.68819715 142.63517125 1255.14027369 137.58740234 1259.47509766 C135.97971862 1260.92955283 134.3750052 1262.38730661 132.77490234 1263.85009766 C128.53164227 1267.67546091 124.17880737 1271.32603855 119.73583984 1274.91650391 C117.40928781 1276.79772174 115.10773425 1278.70639517 112.81396484 1280.62744141 C102.79375009 1288.99957877 92.51598539 1296.95485124 82.00146484 1304.69628906 C79.77420721 1306.33744998 77.5554195 1307.9894554 75.33740234 1309.64306641 C48.24911938 1329.67823372 19.26407897 1347.56414606 -10.41259766 1363.47509766 C-11.23775879 1363.91853516 -12.06291992 1364.36197266 -12.91308594 1364.81884766 C-86.12901946 1403.99066422 -164.83031487 1431.70966318 -313.41259766 1454.47509766 C-314.28268148 1454.55714353 -315.15276531 1454.6391894 -316.04921532 1454.7237215 C-322.84915609 1455.33482593 -329.58003409 1455.63256939 -336.40551758 1455.65209961 C-337.4338118 1455.65867081 -338.46210602 1455.665242 -339.52156067 1455.67201233 C-342.89539706 1455.69156643 -346.2691888 1455.70338228 -349.64306641 1455.71337891 C-350.81653437 1455.71745443 -351.99000233 1455.72152996 -353.19902992 1455.72572899 C-359.43843019 1455.74653731 -365.67780897 1455.76084865 -371.91723633 1455.77026367 C-376.98734916 1455.7790284 -382.05717938 1455.79968115 -387.12719727 1455.83178711 C-468.76851063 1456.33716301 -547.74328417 1443.58035351 -625.41259766 1418.47509766 C-626.0623053 1418.26540344 -626.71201294 1418.05570923 -627.38140869 1417.83966064 C-676.75418057 1401.85362517 -725.15563299 1380.21827986 -769.9140625 1353.93994141 C-772.26573196 1352.56120223 -774.6286718 1351.20411849 -776.99462891 1349.85009766 C-800.96071698 1335.96287063 -824.29882241 1320.14615348 -846.41259766 1303.47509766 C-847.26023682 1302.84039551 -847.26023682 1302.84039551 -848.125 1302.19287109 C-856.79353221 1295.68578392 -865.18956678 1288.84226183 -873.57470703 1281.9765625 C-875.21915328 1280.63313205 -876.87013717 1279.29771335 -878.52197266 1277.96337891 C-883.85277741 1273.64904116 -889.01752059 1269.2015807 -894.08837891 1264.58447266 C-896.133021 1262.72883109 -898.20043915 1260.90753389 -900.28759766 1259.10009766 C-911.69429479 1249.11923767 -922.46706193 1238.57779722 -933.16870117 1227.84936523 C-935.73389229 1225.27878455 -938.30442497 1222.71363173 -940.87548828 1220.14892578 C-942.5301061 1218.49364757 -944.1844139 1216.83805941 -945.83837891 1215.18212891 C-946.59580887 1214.42672318 -947.35323883 1213.67131744 -948.13362122 1212.89302063 C-952.22449051 1208.78427942 -956.15385209 1204.59011141 -959.93330383 1200.19250488 C-961.99599721 1197.79779164 -964.1430887 1195.48401055 -966.28759766 1193.16259766 C-970.73446243 1188.28172956 -974.93688666 1183.25134241 -979.08007812 1178.11230469 C-980.59481369 1176.25121698 -982.12931551 1174.40752559 -983.66650391 1172.56494141 C-991.02291991 1163.73499096 -998.12918672 1154.77505957 -1004.92382812 1145.50537109 C-1005.91431578 1144.15461752 -1006.90812334 1142.80629197 -1007.90527344 1141.46044922 C-1027.94900169 1114.40303512 -1046.06468368 1085.90236264 -1062.41259766 1056.47509766 C-1063.22615723 1055.01257568 -1063.22615723 1055.01257568 -1064.05615234 1053.52050781 C-1103.12911143 982.93891611 -1130.78847096 906.19702904 -1158.41259766 729.47509766 C-1158.45496552 728.82257019 -1158.49733337 728.17004272 -1158.54098511 727.4977417 C-1159.55069604 711.62172993 -1159.61323375 695.75364929 -1159.60009766 679.85009766 C-1159.59983078 679.17688854 -1159.5995639 678.50367943 -1159.59928894 677.81007004 C-1159.58876714 656.63538346 -1159.31778914 635.5797803 -1157.41259766 614.47509766 C-1157.34943359 613.75368591 -1157.28626953 613.03227417 -1157.22119141 612.28900146 C-1150.06639594 530.64235111 -1130.78864157 450.33233371 -1055.41259766 288.47509766 C-1054.9261377 287.64139648 -1054.43967773 286.80769531 -1053.93847656 285.94873047 C-1047.89799834 275.63272944 -1041.58328993 265.49576075 -1035.16259766 255.41259766 C-1034.51315186 254.3898877 -1033.86370605 253.36717773 -1033.19458008 252.31347656 C-1028.83586547 245.51554224 -1024.20542897 238.97214769 -1019.41259766 232.47509766 C-1018.55997826 231.28630867 -1017.71042173 230.09530872 -1016.86572266 228.90087891 C-1007.00166462 214.96177562 -996.71869432 201.4262019 -985.86425781 188.24267578 C-984.58535699 186.6854538 -983.31653517 185.11996585 -982.04931641 183.55322266 C-971.88513728 170.99200677 -961.15080609 159.00113107 -950.07080078 147.24658203 C-948.52001605 145.58985441 -946.98584171 143.91993516 -945.45947266 142.24072266 C-939.67354081 135.87787414 -933.73332925 129.69259287 -927.66259766 123.60009766 C-926.96545654 122.89836426 -926.26831543 122.19663086 -925.55004883 121.47363281 C-921.61191361 117.5471696 -917.57024222 113.80830866 -913.359375 110.17675781 C-910.18980314 107.40626423 -907.15498984 104.4956183 -904.10009766 101.60009766 C-898.85116445 96.65984829 -893.51032222 91.97478512 -887.87744141 87.47509766 C-885.54630275 85.58358736 -883.31984832 83.6202744 -881.10009766 81.60009766 C-875.75607413 76.80369491 -870.09225229 72.4311988 -864.41943359 68.03613281 C-862.3080063 66.39374034 -860.20733027 64.73827452 -858.10791016 63.08056641 C-848.1023013 55.1995486 -837.93596743 47.65003523 -827.41259766 40.47509766 C-826.35024902 39.7504834 -825.28790039 39.02586914 -824.19335938 38.27929688 C-799.61763103 21.559259 -774.60537336 5.8413569 -748.28320312 -8.01171875 C-745.44573831 -9.50743289 -742.61814554 -11.02057154 -739.79150391 -12.53662109 C-665.75742712 -52.01115538 -583.99532307 -77.83141167 0 0 Z M-690.54248047 12.10986328 C-693.55294217 13.54185561 -696.57220026 14.95415099 -699.59228516 16.36572266 C-723.0415766 27.39224584 -745.37305481 40.00325695 -767.39453125 53.61279297 C-769.9004275 55.15906191 -772.41307645 56.69261093 -774.93212891 58.21728516 C-792.45932518 68.89106697 -809.15451984 80.96919002 -825.41259766 93.47509766 C-826.14317383 94.03438965 -826.87375 94.59368164 -827.62646484 95.16992188 C-836.88670801 102.26683128 -845.99914874 109.48847361 -854.82958984 117.11425781 C-856.47640578 118.52995059 -858.13455511 119.93137883 -859.79541016 121.33056641 C-867.93099475 128.20493528 -875.75617454 135.36369581 -883.49951172 142.67529297 C-885.43916496 144.50009181 -887.38888376 146.31346713 -889.34228516 148.12353516 C-898.48913604 156.60160616 -907.58365205 165.05534434 -915.70166016 174.54541016 C-917.53059629 176.60818287 -919.44840224 178.54100485 -921.41259766 180.47509766 C-925.29270299 184.3107743 -928.86944982 188.32886083 -932.41259766 192.47509766 C-933.27498047 193.47154297 -934.13736328 194.46798828 -935.02587891 195.49462891 C-946.80006288 209.11824462 -958.28488377 222.93073194 -968.93261719 237.45800781 C-970.39609302 239.45260321 -971.87086894 241.43847467 -973.34619141 243.42431641 C-993.73198735 271.06373185 -1012.192732 300.20687841 -1028.41259766 330.47509766 C-1029.09370605 331.74474365 -1029.09370605 331.74474365 -1029.78857422 333.04003906 C-1033.40575303 339.81338369 -1036.93476458 346.62923493 -1040.41259766 353.47509766 C-1041.17612549 354.97580811 -1041.17612549 354.97580811 -1041.95507812 356.50683594 C-1081.84845584 435.55086203 -1104.38106848 522.34875579 -1116.41259766 688.47509766 C-1116.39471191 689.49812988 -1116.37682617 690.52116211 -1116.35839844 691.57519531 C-1114.80423558 770.29297663 -1100.95958832 848.18474543 -1019.41259766 1043.47509766 C-1018.79078613 1044.55243164 -1018.16897461 1045.62976562 -1017.52832031 1046.73974609 C-1008.08016545 1063.06771772 -998.10476256 1078.93352784 -987.41259766 1094.47509766 C-986.86619629 1095.27125488 -986.31979492 1096.06741211 -985.75683594 1096.88769531 C-978.79903593 1106.98772758 -971.48742213 1116.79477309 -963.96337891 1126.47900391 C-962.4941184 1128.37016793 -961.03117817 1130.26607377 -959.56884766 1132.16259766 C-954.47368295 1138.73934796 -949.21061712 1145.1372915 -943.76098633 1151.42358398 C-940.65351724 1155.00951512 -937.63358121 1158.64913017 -934.66259766 1162.35009766 C-931.49093693 1166.26028588 -928.18139713 1169.86559238 -924.52978516 1173.33056641 C-922.6907825 1175.19332001 -921.00045974 1177.0982033 -919.29760742 1179.08349609 C-915.41680371 1183.53144162 -911.31382805 1187.71832675 -907.13525391 1191.88525391 C-906.36507431 1192.65639023 -905.59489471 1193.42752655 -904.80137634 1194.22203064 C-903.18318392 1195.84089919 -901.56374554 1197.45852316 -899.94311523 1199.07495117 C-897.48192534 1201.53078484 -895.02611957 1203.9919113 -892.57080078 1206.45361328 C-890.98843899 1208.03531419 -889.40576698 1209.61670483 -887.82275391 1211.19775391 C-886.73644432 1212.28709984 -886.73644432 1212.28709984 -885.62818909 1213.39845276 C-881.04859224 1217.95735482 -876.30974147 1222.26127522 -871.41259766 1226.47509766 C-869.80491393 1227.92955283 -868.20020051 1229.38730661 -866.60009766 1230.85009766 C-862.35818916 1234.67424244 -858.00708669 1238.32399221 -853.56494141 1241.91259766 C-851.22399885 1243.80530678 -848.91010554 1245.72759941 -846.60400391 1247.66259766 C-836.92532497 1255.76145901 -826.98287166 1263.3856901 -816.75488281 1270.77685547 C-814.50014015 1272.41162616 -812.25767129 1274.06185939 -810.01806641 1275.71728516 C-784.82055372 1294.26285839 -757.981531 1310.70170146 -730.41259766 1325.47509766 C-729.56616699 1325.92916992 -728.71973633 1326.38324219 -727.84765625 1326.85107422 C-653.77463091 1366.40839665 -574.47465713 1392.65290565 -444.03759766 1411.22509766 C-443.0133519 1411.31398254 -443.0133519 1411.31398254 -441.96841431 1411.40466309 C-422.10240186 1413.0952335 -402.22045523 1413.68441554 -382.28759766 1413.66259766 C-381.25178558 1413.66199341 -380.21597351 1413.66138916 -379.14877319 1413.6607666 C-321.80741727 1413.57087183 -265.21940121 1406.60817938 -209.41259766 1393.47509766 C-208.7405127 1393.31738892 -208.06842773 1393.15968018 -207.37597656 1392.99719238 C-162.33140133 1382.3806539 -118.32693472 1367.08061411 -76.41259766 1347.47509766 C-74.86088867 1346.75290039 -74.86088867 1346.75290039 -73.27783203 1346.01611328 C-34.52694802 1327.90980503 2.57655536 1307.07958059 37.58740234 1282.47509766 C38.15168945 1282.08177246 38.71597656 1281.68844727 39.29736328 1281.28320312 C64.66231532 1263.59350322 89.01751234 1244.19927496 111.67333984 1223.14306641 C113.83715212 1221.16198895 116.02053517 1219.23718943 118.24389648 1217.32568359 C122.67304219 1213.45446827 126.84505171 1209.36186747 130.99755859 1205.19775391 C131.76869492 1204.42757431 132.53983124 1203.65739471 133.33433533 1202.86387634 C134.95320387 1201.24568392 136.57082785 1199.62624554 138.18725586 1198.00561523 C140.64308952 1195.54442534 143.10421599 1193.08861957 145.56591797 1190.63330078 C147.14761888 1189.05093899 148.72900951 1187.46826698 150.31005859 1185.88525391 C151.03628922 1185.16104752 151.76251984 1184.43684113 152.51075745 1183.69068909 C156.53027855 1179.65292168 160.38239241 1175.52289506 164.09767151 1171.20294189 C166.1647075 1168.80551805 168.31457012 1166.48760796 170.46240234 1164.16259766 C175.38364439 1158.76033195 180.00139295 1153.16204095 184.58740234 1147.47509766 C185.561481 1146.29183216 186.53681234 1145.10959713 187.51318359 1143.92822266 C241.42241229 1078.50765028 283.07562392 1003.5565595 353.58740234 688.47509766 C353.60399902 687.60546387 353.6205957 686.73583008 353.63769531 685.83984375 C353.72823209 680.38192923 353.6915563 674.9325627 353.58740234 669.47509766 C353.56057373 667.94054932 353.56057373 667.94054932 353.53320312 666.375 C352.37293547 607.60786673 344.47441851 549.33786839 329.58740234 492.47509766 C329.42087158 491.83326538 329.25434082 491.19143311 329.08276367 490.53015137 C312.7151377 427.47134103 287.3676168 366.75300235 254.58740234 310.47509766 C253.90339355 309.28400391 253.90339355 309.28400391 253.20556641 308.06884766 C228.64053222 265.32821506 198.72597049 225.16853957 165.60302734 188.70947266 C163.71295576 186.61427702 161.86527747 184.488912 160.02490234 182.35009766 C157.01386791 178.88706037 153.80506285 175.67420334 150.53662109 172.45556641 C148.73490959 170.62496975 147.06166337 168.74478286 145.39990234 166.78759766 C138.36415026 158.62225234 130.55674541 150.98880746 122.34521484 144.01416016 C120.5081321 142.40569215 118.79832447 140.71670897 117.08740234 138.97509766 C113.42436935 135.26300618 109.53932887 131.87487118 105.58740234 128.47509766 C104.43449112 127.47054024 103.28220099 126.46526975 102.13037109 125.45947266 C88.9790271 113.98824884 75.44500986 103.08070242 61.58740234 92.47509766 C60.86617187 91.92225098 60.14494141 91.3694043 59.40185547 90.79980469 C29.87416801 68.29066281 -1.92746512 48.23893864 -34.73828125 30.89013672 C-37.46498228 29.44737981 -40.18290837 27.98891124 -42.90087891 26.52978516 C-118.32582512 -13.69290491 -201.07972541 -38.32785751 -331.41259766 -54.52490234 C-332.68683594 -54.61916504 -333.96107422 -54.71342773 -335.27392578 -54.81054688 C-350.13260535 -55.82443717 -365.02627245 -55.77061719 -379.91259766 -55.77490234 C-380.6175172 -55.7753442 -381.32243675 -55.77578606 -382.0487175 -55.7762413 C-459.67702796 -55.80167901 -535.73176453 -43.69140818 -690.54248047 12.10986328 Z " fill="#000000" transform="translate(1161.41259765625,101.52490234375)"/>
</svg>
