<?xml version="1.0" encoding="UTF-8"?>
<svg version="1.1" xmlns="http://www.w3.org/2000/svg" width="1571" height="1571">
<path d="M0 0 C0.82137451 -0.00701431 1.64274902 -0.01402863 2.48901367 -0.02125549 C5.12163852 -0.0386482 7.75403858 -0.04510659 10.38671875 -0.046875 C11.28538666 -0.04754974 12.18405457 -0.04822449 13.10995483 -0.04891968 C25.9939315 -0.03352354 38.47426688 0.26724169 51.07421875 3.203125 C51.85909668 3.37473145 52.64397461 3.54633789 53.45263672 3.72314453 C64.95171326 6.27570685 75.49586498 10.0469001 86.07421875 15.203125 C87.05777344 15.67492187 88.04132813 16.14671875 89.0546875 16.6328125 C99.77056195 22.10672239 115.12894337 31.33402374 119.07421875 43.203125 C119.06021452 45.54254949 119.06021452 45.54254949 118.68114471 48.00420189 C118.54252439 48.94803966 118.40390407 49.89187743 118.26108313 50.86431634 C118.01335394 52.4075822 118.01335394 52.4075822 117.76062012 53.98202515 C117.59505316 55.0817571 117.42948621 56.18148906 117.25890207 57.31454623 C116.6991025 61.01044447 116.12000946 64.70305986 115.54101562 68.39599609 C115.13609729 71.0426111 114.73225206 73.68936921 114.32974243 76.33634949 C113.45894273 82.04848713 112.57824152 87.75902752 111.69084167 93.46860886 C110.40123628 101.76613274 109.12665851 110.06591082 107.8556326 118.36629851 C105.78444481 131.8893914 103.70117789 145.41059468 101.61035156 158.93066406 C99.59433727 171.96714252 97.58381881 185.00444781 95.58105469 198.04296875 C95.45846785 198.84102819 95.335881 199.63908763 95.20957941 200.4613307 C94.59376217 204.47062907 93.97805602 208.47994449 93.36240292 212.48926806 C89.77864268 235.82708379 86.18843352 259.16389684 82.5859296 282.49882682 C81.86480494 287.17011554 81.14448157 291.84152716 80.42449188 296.51299095 C78.82294537 306.90092456 77.22090965 317.28871245 75.5917697 327.6723603 C75.01016357 331.38035987 74.43151111 335.08881733 73.85313892 338.79732251 C73.47400287 341.21901244 73.09001775 343.63989799 72.7057724 346.06078148 C72.48379809 347.48331998 72.26207231 348.90589729 72.04064941 350.32852173 C71.8519352 351.52498636 71.66322098 352.721451 71.46878815 353.95417213 C71.08976261 357.07513414 71.00042836 360.06305608 71.07421875 363.203125 C71.66847656 362.65785156 72.26273438 362.11257813 72.875 361.55078125 C77.28631535 357.53737615 81.73589578 353.62496227 86.38671875 349.890625 C90.68619755 346.41445065 94.77662002 342.77676044 98.82421875 339.015625 C99.38270508 338.50467285 99.94119141 337.9937207 100.51660156 337.46728516 C102.79363847 335.37625396 104.9761297 333.3135486 107.03125 331 C108.71095109 329.1854324 109.81136395 328.19241754 112.07421875 327.203125 C133.83627908 329.79055071 156.62099062 341.62203787 176.07421875 351.203125 C176.97720703 351.64769043 177.88019531 352.09225586 178.81054688 352.55029297 C197.51449008 361.85805525 215.34840664 372.67926324 232.07421875 385.203125 C232.60917969 385.60063965 233.14414062 385.9981543 233.6953125 386.40771484 C249.95571919 398.52015808 265.02360234 412.09702356 279.38671875 426.390625 C280.04462402 427.04385742 280.7025293 427.69708984 281.38037109 428.37011719 C285.81348922 432.81779951 289.99701859 437.42828494 294.07421875 442.203125 C294.61361084 442.83049561 295.15300293 443.45786621 295.70874023 444.10424805 C316.30771762 468.21868486 332.94418548 494.86211306 347.07421875 523.203125 C347.49719238 524.04649414 347.92016602 524.88986328 348.35595703 525.75878906 C355.93695911 540.96925347 362.44793917 556.55293562 366.07421875 573.203125 C358.46940614 572.63220577 351.0445474 571.61881495 343.54418945 570.25366211 C342.45018326 570.05844467 341.35617706 569.86322723 340.22901917 569.66209412 C336.65186909 569.02265131 333.07594424 568.37661771 329.5 567.73046875 C327.00472726 567.28308383 324.50938 566.83611443 322.01396179 566.38954163 C316.14173547 565.33763771 310.27026627 564.28157911 304.39915866 563.22345406 C297.70804331 562.01778585 291.01596491 560.8175059 284.32380545 559.61764896 C270.57287315 557.15208083 256.82314711 554.67984166 243.07421875 552.203125 C245.73775567 553.5562725 248.32792697 554.70684518 251.16040039 555.66088867 C251.96410065 555.93328873 252.7678009 556.20568878 253.59585571 556.48634338 C254.46656708 556.778311 255.33727844 557.07027863 256.234375 557.37109375 C257.15358734 557.68211533 258.07279968 557.9931369 259.01986694 558.31358337 C261.01130281 558.98731584 263.00314038 559.65986187 264.99533081 560.33135986 C270.38082876 562.14733113 275.76277247 563.97376351 281.14453125 565.80078125 C282.24327072 566.173703 283.34201019 566.54662476 284.4740448 566.93084717 C294.50634592 570.3406881 304.51253027 573.82258535 314.51171875 577.328125 C327.63524286 581.92796038 340.77326257 586.48382598 353.92578125 591 C354.65605844 591.25078686 355.38633564 591.50157372 356.13874245 591.75996017 C363.49049852 594.28440785 370.84301033 596.80663948 378.19680786 599.32513428 C380.94472054 600.2664865 383.69227153 601.20889128 386.43975449 602.15149689 C387.73262531 602.59473091 389.02567603 603.03744061 390.31891251 603.47960663 C392.09788316 604.08785641 393.87622909 604.69793247 395.65454102 605.30810547 C396.65735611 605.65146942 397.6601712 605.99483337 398.69337463 606.34860229 C401.07421875 607.203125 401.07421875 607.203125 403.07421875 608.203125 C403.96824122 610.87941493 404.24646002 613.48519023 404.41590977 616.29061317 C404.49204765 617.50553064 404.49204765 617.50553064 404.56972367 618.7449919 C404.6212841 619.62921934 404.67284454 620.51344678 404.72596741 621.42446899 C404.81300364 622.84008828 404.81300364 622.84008828 404.90179819 624.28430593 C405.09576861 627.45446602 405.28432106 630.62492514 405.47290039 633.79541016 C405.61066106 636.06547941 405.74874568 638.33552903 405.88713074 640.6055603 C406.26247551 646.77914303 406.63304731 652.9530039 407.00261998 659.12693453 C407.38997532 665.58731828 407.78113511 672.04747183 408.17173767 678.50765991 C408.82752249 689.36383448 409.48023773 700.22018972 410.13110352 711.07666016 C410.79999288 722.23376266 411.47214608 733.39066262 412.14770508 744.54736328 C412.96224475 757.99936201 413.77372395 771.45154101 414.58260918 784.90388107 C414.89131236 790.03686537 415.20119868 795.1697762 415.51204109 800.30263138 C415.87840917 806.35495364 416.24178787 812.40744828 416.60289192 818.46008682 C416.73569178 820.67805648 416.86950474 822.89596576 417.00442123 825.11380768 C417.18888729 828.1490054 417.36962529 831.18440363 417.54945374 834.21987915 C417.60324489 835.09072226 417.65703605 835.96156537 417.71245724 836.85879767 C418.66049957 853.11387583 418.66049957 853.11387583 416.73242188 856.69604492 C416.11302734 857.26943604 415.49363281 857.84282715 414.85546875 858.43359375 C413.82679688 859.42069336 413.82679688 859.42069336 412.77734375 860.42773438 C412.0503125 861.07548828 411.32328125 861.72324219 410.57421875 862.390625 C409.878125 863.04998047 409.18203125 863.70933594 408.46484375 864.38867188 C405.00495472 867.64032685 401.43876181 870.7645733 397.85546875 873.87890625 C394.79788442 876.53850855 391.90278461 879.29811142 389.07421875 882.203125 C386.17829917 885.13430691 383.27179304 887.96715674 380.13671875 890.640625 C376.78496802 893.50484835 373.66865119 896.56646216 370.57421875 899.703125 C366.88427287 903.44342838 363.09918177 906.9855185 359.1015625 910.39453125 C355.75678821 913.37840504 352.66086718 916.60932232 349.51171875 919.796875 C346.82137969 922.45272253 344.0084835 924.90447932 341.13671875 927.359375 C338.68497186 929.55108813 336.38536302 931.86379604 334.07421875 934.203125 C330.55315552 937.76712802 326.94235867 941.10616668 323.13671875 944.359375 C320.68497186 946.55108813 318.38536302 948.86379604 316.07421875 951.203125 C312.55315552 954.76712802 308.94235867 958.10616668 305.13671875 961.359375 C302.68497186 963.55108813 300.38536302 965.86379604 298.07421875 968.203125 C294.55315552 971.76712802 290.94235867 975.10616668 287.13671875 978.359375 C284.68497186 980.55108813 282.38536302 982.86379604 280.07421875 985.203125 C276.55962739 988.76057723 272.95776209 992.09578353 269.15625 995.33984375 C265.70764776 998.4261163 262.50399003 1001.75470954 259.2734375 1005.06640625 C257.07421875 1007.203125 257.07421875 1007.203125 254.07421875 1009.203125 C252.52282323 1017.36792954 254.73001183 1026.77072309 255.61889648 1034.99414062 C255.78519791 1036.568659 255.95104849 1038.14322505 256.1164856 1039.71783447 C256.56417332 1043.96569977 257.01840455 1048.21284129 257.47408175 1052.45985603 C257.95072634 1056.91083247 258.42199882 1061.36237816 258.89405823 1065.81384277 C259.68651907 1073.27863424 260.48320579 1080.74296543 261.2824707 1088.20703125 C262.20706051 1096.84192054 263.12510986 1105.47748627 264.03966373 1114.11344385 C264.92023382 1122.4272283 265.8051962 1130.74053939 266.69224739 1139.05363464 C267.06962864 1142.59093136 267.44549393 1146.12838434 267.820158 1149.66596985 C268.26063171 1153.82290467 268.70494851 1157.97941093 269.15228653 1162.13561249 C269.31609248 1163.66334024 269.47856484 1165.19121164 269.63963127 1166.71923065 C269.85902198 1168.79845423 270.08316671 1170.87711034 270.30857849 1172.95568848 C270.43302054 1174.12075172 270.5574626 1175.28581497 270.68567562 1176.48618317 C270.92240857 1179.16291127 270.92240857 1179.16291127 272.07421875 1181.203125 C272.13677605 1180.39235473 272.19933334 1179.58158445 272.26378632 1178.74624538 C273.79589818 1158.95550992 275.40953192 1139.172873 277.11249542 1119.39607906 C277.93414108 1109.83150502 278.72873499 1100.26615169 279.45849609 1090.6940918 C280.09515583 1082.34413921 280.78376634 1074.00032986 281.53330851 1065.65972525 C281.92794135 1061.24853899 282.29741975 1056.83863334 282.604599 1052.42042351 C284.7492179 1021.97599393 284.7492179 1021.97599393 292.90969086 1013.59164524 C295.57580679 1011.29103796 298.31413394 1009.26945549 301.28794861 1007.38600349 C303.70656866 1005.78437921 305.61370504 1003.82850768 307.57421875 1001.703125 C309.90563259 999.33116483 312.29471628 997.11245638 314.82421875 994.953125 C318.41938615 991.86750888 321.74759662 988.57114877 325.07421875 985.203125 C328.90408613 981.32582892 332.79473192 977.6406888 336.94921875 974.109375 C340.32199101 971.08379989 343.4648103 967.83250749 346.64794922 964.60986328 C349.99171997 961.24070484 353.43455629 958.07215645 357.05859375 955.00390625 C360.53788735 951.89546759 363.7380577 948.50430776 366.97265625 945.14453125 C369.07421875 943.203125 369.07421875 943.203125 371.07421875 943.203125 C371.35561128 959.63284443 371.56666542 976.06177232 371.69596481 992.49332523 C371.7576205 1000.12438478 371.84153893 1007.75393997 371.97949219 1015.3840332 C372.099797 1022.04122628 372.17667803 1028.69732929 372.20328069 1035.35557932 C372.21881325 1038.87579282 372.25480726 1042.39289054 372.34297943 1045.91209602 C372.95339886 1071.25911897 372.95339886 1071.25911897 365.34863281 1080.10327148 C363.82258476 1081.69900203 362.25981975 1083.21461122 360.62871552 1084.70242119 C357.93957246 1087.29850715 355.76076289 1090.29041235 353.51171875 1093.265625 C352.60610622 1094.42469512 351.69878778 1095.58243631 350.7890625 1096.73828125 C350.34159668 1097.30949707 349.89413086 1097.88071289 349.43310547 1098.46923828 C347.14968572 1101.38279327 344.86171072 1104.29276693 342.57421875 1107.203125 C341.65753052 1108.36977473 340.74086385 1109.53644139 339.82421875 1110.703125 C337.99088542 1113.03645833 336.15755208 1115.36979167 334.32421875 1117.703125 C333.87054932 1118.28054443 333.41687988 1118.85796387 332.94946289 1119.45288086 C332.03206866 1120.6204291 331.11458808 1121.78790949 330.19702148 1122.95532227 C327.9157763 1125.8579529 325.63600661 1128.76171774 323.359375 1131.66796875 C318.12931368 1138.34080561 312.86071575 1144.98066736 307.55712891 1151.59521484 C302.80919642 1157.5220714 298.1161516 1163.49106092 293.43310547 1169.46923828 C290.69073346 1172.96839854 287.94248605 1176.46294855 285.19458008 1179.95776367 C282.9238748 1182.84632605 280.6559989 1185.73701061 278.39453125 1188.6328125 C273.49688321 1194.89699776 268.54155845 1201.10693758 263.51171875 1207.265625 C258.74564683 1213.10385369 254.09805093 1219.01491958 249.5234375 1225.00390625 C242.46580025 1234.24273682 235.19547785 1243.30476614 227.84277344 1252.30957031 C224.50082824 1256.41402707 221.22164804 1260.55722438 218.01171875 1264.765625 C213.95141207 1270.08738619 209.79869104 1275.32590854 205.60742188 1280.54492188 C202.21856709 1284.76688821 198.85339823 1289.00622342 195.51171875 1293.265625 C194.83484009 1294.12812866 194.83484009 1294.12812866 194.14428711 1295.00805664 C191.89257509 1297.8792617 189.6443934 1300.75319711 187.3984375 1303.62890625 C182.49882954 1309.89386214 177.54270935 1316.10552839 172.51171875 1322.265625 C167.74564683 1328.10385369 163.09805093 1334.01491958 158.5234375 1340.00390625 C151.47137363 1349.23544097 144.21194477 1358.29540916 136.8581543 1367.28759766 C132.54493725 1372.57859771 128.38741434 1377.97199595 124.29296875 1383.43359375 C122.05061433 1386.23258896 119.62649059 1388.6880606 117.07421875 1391.203125 C116.57057521 1332.07633163 116.18291838 1272.94958955 115.9507815 1213.82110166 C115.92334099 1206.83922676 115.89481668 1199.85735647 115.86572266 1192.87548828 C115.86284596 1192.18072221 115.85996926 1191.48595614 115.85700539 1190.77013656 C115.76331656 1168.26549838 115.59811711 1145.7620784 115.39567989 1123.25817773 C115.18206763 1099.46869693 115.05026496 1075.68015836 115.00427186 1051.88972104 C114.97409513 1037.64211584 114.87883105 1023.39800834 114.70005648 1009.15148009 C114.5836854 999.3796062 114.54863124 989.60953794 114.57718845 979.83702157 C114.59127316 974.19859778 114.56983944 968.56627859 114.4516983 962.92894363 C113.79382079 929.95105998 113.79382079 929.95105998 119.25182486 922.05133295 C124.34211062 917.20215343 129.94652011 914.4088979 136.54242301 912.12524247 C139.88589673 910.90749987 142.46239543 909.23236107 145.3671875 907.1953125 C157.68811648 899.34760238 170.03165771 891.53642437 182.38769531 883.74414062 C192.56704484 877.32364985 202.73146012 870.88037478 212.88208008 864.41455078 C218.77137962 860.66451568 224.66876931 856.92766954 230.57421875 853.203125 C245.04773038 844.09160991 245.04773038 844.09160991 259.4375 834.84912109 C261.22961165 833.7303788 263.06401481 832.67725353 264.9296875 831.68603516 C273.17176535 827.11381837 276.27647962 821.66670709 280.07421875 813.203125 C280.66918277 811.93944991 281.26713742 810.67717899 281.86791992 809.41625977 C283.072465 806.87625795 284.25982707 804.32941498 285.43115234 801.77392578 C287.27796152 797.76034019 289.18582156 793.77925597 291.10571289 789.80029297 C292.42289075 787.06552346 293.72587933 784.32431023 295.02734375 781.58203125 C299.52576758 772.13257957 304.12490459 762.73148528 308.71020508 753.32397461 C312.62599124 745.28284794 316.5024576 737.22409603 320.34350586 729.14697266 C320.80101982 728.18551834 321.25853378 727.22406403 321.7299118 726.23347473 C322.84494941 723.89015245 323.95971349 721.5467005 325.07421875 719.203125 C306.51131001 722.90941288 287.94884996 726.61794517 269.38671875 730.328125 C268.68949676 730.46748254 267.99227476 730.60684008 267.27392483 730.75042057 C212.65306606 741.66797645 158.04686645 752.65683444 103.45195866 763.7035141 C100.8922795 764.22095359 98.33228901 764.73683068 95.77227783 765.25262451 C92.70989504 765.87022297 89.64951146 766.49652628 86.59051514 767.13067627 C85.89824011 767.27282877 85.20596508 767.41498127 84.49271202 767.56144142 C82.66489816 767.93692152 80.83783148 768.31603385 79.01083374 768.69546509 C76.07421875 769.203125 76.07421875 769.203125 72.07421875 769.203125 C72.02339897 770.31327563 71.97257919 771.42342627 71.92021942 772.56721783 C71.30865042 785.31764316 70.32554693 798.01849545 69.23242188 810.7355957 C69.04645198 812.92565787 68.86074502 815.11574238 68.67527771 817.30584717 C68.17604978 823.19154436 67.67301347 829.07691007 67.16910362 834.96220803 C66.6404691 841.14246225 66.11496604 847.32298288 65.58898926 853.50346375 C64.7068316 863.86341558 63.82218871 874.22315291 62.93603516 884.58276367 C62.02550036 895.22772104 61.1175666 905.87289526 60.21240234 916.51831055 C59.11780847 929.39144214 58.02077075 942.26436301 56.9216156 955.13710594 C56.50288641 960.04159299 56.08511193 964.94615997 55.66810608 969.85079384 C55.17784225 975.61556412 54.68518109 981.38012462 54.19066048 987.14453125 C54.00962899 989.25924275 53.82942225 991.37402504 53.6500988 993.48888206 C53.40532883 996.37395502 53.15757469 999.25875666 52.90905762 1002.14350891 C52.83872456 1002.98075306 52.7683915 1003.8179972 52.69592714 1004.68061239 C52.62836828 1005.45763861 52.56080941 1006.23466484 52.49120331 1007.03523731 C52.43440761 1007.70008068 52.37761191 1008.36492405 52.31909513 1009.04991418 C52.00843789 1011.78153951 51.52618995 1014.49129777 51.07421875 1017.203125 C24.67421875 1017.203125 -1.72578125 1017.203125 -28.92578125 1017.203125 C-31.22330915 996.52537388 -31.22330915 996.52537388 -31.88760376 988.6197052 C-31.9669001 987.69863234 -32.04619645 986.77755947 -32.12789571 985.82857531 C-32.38641725 982.81924719 -32.6417257 979.80965631 -32.89697266 976.80004883 C-33.08426926 974.61171892 -33.27175967 972.42340558 -33.45942688 970.23510742 C-33.96353112 964.34971146 -34.46473797 958.46407228 -34.96522188 952.57836747 C-35.38438776 947.65212185 -35.80499184 942.72599943 -36.22558439 937.79987544 C-37.21726099 926.18471381 -38.2065691 914.56935215 -39.19433594 902.95385742 C-40.09964184 892.30845424 -41.00752263 881.66327524 -41.91796875 871.01831055 C-42.9127548 859.38707628 -43.90554626 847.7556744 -44.89549577 836.12402743 C-45.41843605 829.97982429 -45.9422244 823.83569652 -46.46818924 817.69175148 C-46.96169078 811.92576422 -47.45232215 806.1595398 -47.94074059 800.39311981 C-48.12031501 798.27866905 -48.30089771 796.16430364 -48.48256493 794.05003166 C-48.73042628 791.16348769 -48.97463271 788.27665679 -49.21792603 785.38972473 C-49.2904898 784.55471131 -49.36305358 783.71969788 -49.43781626 782.85938102 C-49.81867335 778.28780265 -49.99514798 773.7906347 -49.92578125 769.203125 C-51.2076532 769.07681198 -52.48952515 768.95049896 -53.8102417 768.82035828 C-58.86094273 768.25660596 -63.79644046 767.33761626 -68.77441406 766.32739258 C-69.72450379 766.13780818 -70.67459352 765.94822378 -71.65347385 765.7528944 C-74.81270182 765.12150051 -77.97079291 764.48459991 -81.12890625 763.84765625 C-83.39761575 763.39299157 -85.66639084 762.93865411 -87.93522644 762.48461914 C-94.07181938 761.25552092 -100.20742362 760.02155162 -106.34284592 758.78662491 C-111.46710737 757.75587308 -116.59194573 756.72800678 -121.71679974 755.7002058 C-139.12149386 752.20962159 -156.52403619 748.70837872 -173.92578125 745.203125 C-174.58505584 745.0703289 -175.24433043 744.93753281 -175.92358303 744.80071259 C-200.02959027 739.94496627 -224.13446602 735.0836095 -248.23730469 730.2121582 C-249.34208821 729.98887533 -250.44687174 729.76559246 -251.58513355 729.53554344 C-256.71627251 728.49844475 -261.84735324 727.46105954 -266.97831726 726.4230957 C-278.95762763 724.0004466 -290.94031083 721.59511283 -302.92578125 719.203125 C-302.63921063 719.78811453 -302.35264002 720.37310406 -302.05738544 720.97582054 C-280.81227272 764.34566002 -280.81227272 764.34566002 -275.11328125 776.328125 C-270.80864046 785.37687394 -266.46072097 794.40423222 -262.09121704 803.42181396 C-261.32179053 805.01047249 -260.55319844 806.59953545 -259.78549194 808.18902588 C-258.70955218 810.41620083 -257.63055845 812.64187099 -256.55078125 814.8671875 C-256.22938675 815.53383423 -255.90799225 816.20048096 -255.57685852 816.8873291 C-252.27363662 824.29946575 -252.27363662 824.29946575 -246.46875 829.60546875 C-245.43572754 830.21708862 -245.43572754 830.21708862 -244.38183594 830.84106445 C-243.63321289 831.26991943 -242.88458984 831.69877441 -242.11328125 832.140625 C-240.47532375 833.10988885 -238.83866108 834.0813433 -237.203125 835.0546875 C-236.34058105 835.56547852 -235.47803711 836.07626953 -234.58935547 836.60253906 C-230.06411058 839.32183379 -225.62194754 842.16949199 -221.17578125 845.015625 C-220.25651855 845.60255127 -219.33725586 846.18947754 -218.39013672 846.79418945 C-216.51086882 847.99422552 -214.63196417 849.1948306 -212.75341797 850.39599609 C-208.08545816 853.37926656 -203.41197309 856.35384538 -198.73828125 859.328125 C-197.82336914 859.91053955 -196.90845703 860.4929541 -195.96582031 861.09301758 C-189.3561981 865.29855171 -182.73492717 869.48533473 -176.10864258 873.66455078 C-170.03790603 877.49543202 -163.98020751 881.34652759 -157.92578125 885.203125 C-147.13018887 892.07911875 -136.31113249 898.91743678 -125.48339844 905.74267578 C-123.83082394 906.78443106 -122.17839964 907.82642464 -120.52612305 908.86865234 C-118.99928053 909.83175426 -117.4721376 910.79438021 -115.94458008 911.75634766 C-114.50798273 912.66263128 -113.08222251 913.58633644 -111.66819775 914.52745062 C-108.8668859 916.31111091 -108.8668859 916.31111091 -105.44830215 917.81285042 C-96.16749521 922.35878646 -96.16749521 922.35878646 -94.1172823 927.05511732 C-92.80485698 932.61158251 -93.10906741 938.30843126 -93.24221802 943.97657776 C-93.23610951 945.90653038 -93.22384489 947.83647165 -93.20596969 949.76635116 C-93.17469775 955.06064354 -93.23059814 960.35096282 -93.30086255 965.64474881 C-93.36136121 971.35629745 -93.34085928 977.06762474 -93.33023071 982.77940369 C-93.322892 992.67214054 -93.36678926 1002.56358405 -93.44556046 1012.45599556 C-93.55937412 1026.75850118 -93.59580382 1041.06038187 -93.61339234 1055.36329126 C-93.64402808 1078.56880793 -93.737062 1101.77361962 -93.86962891 1124.97875977 C-93.9982509 1147.51941349 -94.09740138 1170.0598828 -94.15673828 1192.60083008 C-94.15857965 1193.2958764 -94.16042101 1193.99092272 -94.16231818 1194.70703105 C-94.18077777 1201.68709747 -94.19863912 1208.66716532 -94.21606221 1215.64723441 C-94.36218888 1274.16632264 -94.60919149 1332.68471627 -94.92578125 1391.203125 C-100.41691131 1385.74455601 -100.41691131 1385.74455601 -102.87109375 1382.70703125 C-103.38494629 1382.0732959 -103.89879883 1381.43956055 -104.42822266 1380.78662109 C-104.96366699 1380.11969238 -105.49911133 1379.45276367 -106.05078125 1378.765625 C-106.61845215 1378.06260254 -107.18612305 1377.35958008 -107.77099609 1376.63525391 C-112.7624472 1370.43949849 -117.6860412 1364.19144809 -122.58300781 1357.92089844 C-124.85812027 1355.01040912 -127.14235844 1352.10709584 -129.42578125 1349.203125 C-132.15674799 1345.72998471 -134.88605653 1342.25563591 -137.60546875 1338.7734375 C-142.50311535 1332.50925409 -147.45836145 1326.29924558 -152.48828125 1320.140625 C-156.39257015 1315.35919879 -160.24453242 1310.54889352 -163.98828125 1305.640625 C-167.55461883 1300.96629904 -171.1818459 1296.34978779 -174.86328125 1291.765625 C-178.76298386 1286.90967347 -182.64402682 1282.04062318 -186.48828125 1277.140625 C-186.93953369 1276.56562256 -187.39078613 1275.99062012 -187.85571289 1275.39819336 C-190.10742491 1272.5269883 -192.3556066 1269.65305289 -194.6015625 1266.77734375 C-199.50117046 1260.51238786 -204.45729065 1254.30072161 -209.48828125 1248.140625 C-214.25435317 1242.30239631 -218.90194907 1236.39133042 -223.4765625 1230.40234375 C-229.99958291 1221.86335566 -236.69249382 1213.46360036 -243.48828125 1205.140625 C-248.25312745 1199.30374075 -252.90023658 1193.39464479 -257.47265625 1187.40625 C-264.32565774 1178.43444612 -271.3808319 1169.61891649 -278.44262695 1160.8112793 C-283.19072387 1154.88440803 -287.88377822 1148.91527867 -292.56689453 1142.93701172 C-294.85031428 1140.02345673 -297.13828928 1137.11348307 -299.42578125 1134.203125 C-300.34246948 1133.03647527 -301.25913615 1131.86980861 -302.17578125 1130.703125 C-302.62953125 1130.125625 -303.08328125 1129.548125 -303.55078125 1128.953125 C-307.67578125 1123.703125 -307.67578125 1123.703125 -309.05053711 1121.95336914 C-309.96793134 1120.7858209 -310.88541192 1119.61834051 -311.80297852 1118.45092773 C-314.0842237 1115.5482971 -316.36399339 1112.64453226 -318.640625 1109.73828125 C-323.83249895 1103.11442339 -329.05236162 1096.51519213 -334.33959961 1089.96704102 C-335.27402138 1088.80504421 -336.18782839 1087.62623729 -337.08282471 1086.43360901 C-338.91837322 1084.09931198 -338.91837322 1084.09931198 -341.39289856 1081.99203491 C-350.58398629 1072.6618449 -350.14397117 1062.79390051 -350.05874634 1050.21464539 C-350.02380808 1048.15567074 -349.98252769 1046.09690509 -349.93972063 1044.03807998 C-349.87662598 1040.48556785 -349.87128847 1036.9329451 -349.85946655 1033.37995911 C-349.8285524 1026.67181412 -349.74672737 1019.96532535 -349.64597166 1013.2579053 C-349.53366716 1005.61348645 -349.4790838 997.96898276 -349.42901731 990.32394254 C-349.32487196 974.61604867 -349.14931728 958.90980153 -348.92578125 943.203125 C-346.03333791 944.59271457 -343.99201865 945.90350569 -341.75390625 948.21484375 C-340.88741455 949.09873779 -340.88741455 949.09873779 -340.00341797 950.00048828 C-339.40029785 950.6242334 -338.79717773 951.24797852 -338.17578125 951.890625 C-333.90932806 956.23594459 -329.63305158 960.43345867 -324.98046875 964.3671875 C-321.62510308 967.36532793 -318.50834364 970.6009825 -315.34716797 973.80126953 C-312.62237968 976.54670667 -309.87536948 979.195975 -306.92578125 981.703125 C-302.8370336 985.1785605 -299.11761441 988.98412737 -295.34985352 992.79858398 C-292.02125317 996.15242889 -288.58954773 999.29829849 -284.98828125 1002.359375 C-281.40869212 1005.55931074 -278.08798919 1009.02368775 -274.734375 1012.45703125 C-272.24625676 1015.10075501 -272.24625676 1015.10075501 -270.19660091 1016.24349403 C-266.7528268 1018.47017712 -265.17854222 1020.30729643 -264.05142403 1024.30199814 C-263.4576643 1028.39051758 -263.07390214 1032.45474517 -262.75415039 1036.57177734 C-262.60807925 1038.14925337 -262.45919176 1039.72647075 -262.30770874 1041.30343628 C-261.90555001 1045.57346499 -261.54278616 1049.84602795 -261.1870873 1054.12014341 C-260.80829064 1058.59053265 -260.39323439 1063.05755051 -259.98204041 1067.52505493 C-259.20937649 1075.98004189 -258.46928873 1084.43755018 -257.74090904 1092.89645445 C-256.90989598 1102.52868908 -256.0425452 1112.15754278 -255.17215168 1121.78628612 C-253.38295183 1141.58840772 -251.63934382 1161.39432439 -249.92578125 1181.203125 C-248.56216012 1178.47588273 -248.48458784 1175.99325573 -248.16014099 1172.95568848 C-248.08986618 1172.30766691 -248.01959136 1171.65964534 -247.94718701 1170.99198675 C-247.71163725 1168.81079575 -247.481688 1166.62905051 -247.25170898 1164.44726562 C-247.0843957 1162.88682685 -246.91675481 1161.32642316 -246.74880981 1159.76605225 C-246.29268565 1155.51809189 -245.84156175 1151.26961424 -245.39159274 1147.020998 C-245.01535071 1143.4726228 -244.63673608 1139.92450242 -244.25813252 1136.37637854 C-243.3642452 1127.99869111 -242.47443547 1119.62057738 -241.5871582 1111.2421875 C-240.67303961 1102.6109887 -239.75226806 1093.98051837 -238.82813877 1085.35038614 C-238.03449381 1077.93664274 -237.24495119 1070.52247022 -236.45867115 1063.1079421 C-235.98927355 1058.68192482 -235.51836765 1054.25608175 -235.04354668 1049.8306427 C-234.59641582 1045.66153423 -234.15444217 1041.4919097 -233.71631241 1037.32184601 C-233.55527282 1035.79714604 -233.39246966 1034.27263108 -233.227705 1032.74832916 C-230.70822662 1019.11134356 -230.70822662 1019.11134356 -233.796875 1006.57421875 C-234.64378906 1005.93613281 -235.49070312 1005.29804687 -236.36328125 1004.640625 C-237.27722656 1003.90972656 -238.19117188 1003.17882813 -239.1328125 1002.42578125 C-240.05449219 1001.69230469 -240.97617187 1000.95882812 -241.92578125 1000.203125 C-243.49032126 998.68467619 -245.03313624 997.14344472 -246.55078125 995.578125 C-249.23729772 992.85396907 -251.95649242 990.2529974 -254.86328125 987.765625 C-258.03614045 985.04693252 -260.98916507 982.17560825 -263.92578125 979.203125 C-266.84204728 976.25129475 -269.7718396 973.39923641 -272.92578125 970.703125 C-277.00201344 967.21860393 -280.72128998 963.42230519 -284.48828125 959.609375 C-286.5757876 957.54863155 -288.69747348 955.60796874 -290.92578125 953.703125 C-295.00201344 950.21860393 -298.72128998 946.42230519 -302.48828125 942.609375 C-304.5757876 940.54863155 -306.69747348 938.60796874 -308.92578125 936.703125 C-313.00201344 933.21860393 -316.72128998 929.42230519 -320.48828125 925.609375 C-322.5757876 923.54863155 -324.69747348 921.60796874 -326.92578125 919.703125 C-331.00201344 916.21860393 -334.72128998 912.42230519 -338.48828125 908.609375 C-340.5757876 906.54863155 -342.69747348 904.60796874 -344.92578125 902.703125 C-348.0797229 900.00701359 -351.00951522 897.15495525 -353.92578125 894.203125 C-356.82170083 891.27194309 -359.72820696 888.43909326 -362.86328125 885.765625 C-366.73195923 882.45966382 -370.2864243 878.87167822 -373.85693359 875.25244141 C-376.48366583 872.60385767 -379.15271676 870.06374375 -381.98828125 867.640625 C-382.60703125 867.07730469 -383.22578125 866.51398437 -383.86328125 865.93359375 C-385.95679731 864.09269642 -385.95679731 864.09269642 -388.67578125 862.50390625 C-391.93335007 860.12859565 -394.26855212 857.87633733 -395.92578125 854.203125 C-396.42472412 850.5761483 -396.1418109 847.05056098 -395.88476562 843.40795898 C-395.82266151 842.25257094 -395.7605574 841.0971829 -395.69657135 839.9067831 C-395.54774929 837.21562965 -395.38936808 834.52664174 -395.21728516 831.83701706 C-394.8912927 826.72472133 -394.60690445 821.61032007 -394.32128906 816.49563599 C-393.65733134 804.72259996 -392.94713475 792.95249631 -392.23224068 781.18246007 C-391.94514684 776.44949693 -391.66004926 771.71641434 -391.37493467 766.98333162 C-390.70313344 755.83140816 -390.02817138 744.67967925 -389.35107422 733.52807617 C-388.65327749 722.03474712 -387.96057493 710.54111893 -387.27035093 699.04733282 C-386.67519212 689.13921007 -386.0771133 679.23126664 -385.47662783 669.32346529 C-385.11895571 663.42170886 -384.76235203 657.51989297 -384.40849304 651.61790657 C-384.07698304 646.0910436 -383.74182608 640.56441382 -383.40381432 635.03794479 C-383.28035926 633.00947232 -383.15819762 630.98092066 -383.03740883 628.95228767 C-382.87270276 626.18952908 -382.7033708 623.4270922 -382.53283691 620.66468811 C-382.48584955 619.85820283 -382.43886218 619.05171754 -382.39045095 618.22079331 C-381.93450554 610.98715675 -381.93450554 610.98715675 -380.92578125 608.203125 C-378.44406074 607.00124978 -376.17195312 606.11534717 -373.56640625 605.26953125 C-372.7805867 604.99980499 -371.99476715 604.73007874 -371.18513489 604.45217896 C-368.52026541 603.54144813 -365.84817651 602.65400724 -363.17578125 601.765625 C-361.26042484 601.11533961 -359.34564435 600.46335586 -357.43139648 599.80981445 C-353.22033028 598.37432701 -349.00640107 596.94767133 -344.79052734 595.52636719 C-337.62381381 593.10629053 -330.47103858 590.64654397 -323.3203125 588.1796875 C-322.69758516 587.96488739 -322.07485783 587.75008728 -321.43325996 587.52877808 C-318.88560025 586.64999585 -316.33797263 585.77112077 -313.79043293 584.89199066 C-307.32186126 582.6599434 -300.85117845 580.43404644 -294.38032722 578.20861816 C-289.20675211 576.42922896 -284.03348696 574.64893858 -278.86018372 572.86875916 C-277.56863542 572.4243332 -276.27708063 571.97992611 -274.98551941 571.53553772 C-266.92548414 568.76227067 -258.86648891 565.9860144 -250.80929565 563.20449829 C-248.52719295 562.41717397 -246.24474681 561.63084433 -243.96194458 560.84555054 C-240.82269376 559.76549105 -237.68464256 558.68201595 -234.546875 557.59765625 C-233.6238559 557.28095978 -232.70083679 556.96426331 -231.74984741 556.63796997 C-230.4803978 556.19806229 -230.4803978 556.19806229 -229.18530273 555.74926758 C-228.45439926 555.49728104 -227.72349579 555.24529449 -226.97044373 554.985672 C-224.87576201 554.1839813 -222.924082 553.21827122 -220.92578125 552.203125 C-221.5293127 552.31135338 -222.13284414 552.41958176 -222.75466442 552.53108978 C-237.4430874 555.16478642 -252.13236001 557.79370201 -266.82258892 560.41730499 C-273.92666303 561.68617668 -281.03044141 562.95666222 -288.13354492 564.23095703 C-294.32493713 565.34168685 -300.51686384 566.44937866 -306.70945007 567.55343294 C-309.98804155 568.13807063 -313.26626158 568.72467338 -316.54401207 569.31401062 C-320.20401343 569.97181037 -323.86493444 570.62423625 -327.52612305 571.27539062 C-328.61153381 571.47175613 -329.69694458 571.66812164 -330.81524658 571.87043762 C-332.31486183 572.13548347 -332.31486183 572.13548347 -333.84477234 572.40588379 C-335.14311776 572.63817562 -335.14311776 572.63817562 -336.46769238 572.87516022 C-338.98354556 573.21083207 -341.3907754 573.26100213 -343.92578125 573.203125 C-338.71997393 552.697323 -330.64043104 533.76230243 -320.87597656 515.02978516 C-319.93031243 513.21183575 -319.0017927 511.38582628 -318.07421875 509.55859375 C-304.87563763 483.8676413 -287.68081351 459.83206688 -268.12109375 438.609375 C-266.28176992 436.59331899 -264.49620554 434.54724633 -262.71484375 432.48046875 C-258.71166887 427.89641173 -254.48021804 423.56593657 -250.17578125 419.265625 C-249.38373291 418.47365723 -248.59168457 417.68168945 -247.77563477 416.86572266 C-242.80861994 411.94685255 -237.77818043 407.35306136 -232.265625 403.05078125 C-230.0435256 401.29610176 -227.99426648 399.44701764 -225.92578125 397.515625 C-190.48597203 365.83933535 -144.78911541 344.2636607 -100.05078125 329.453125 C-99.27847168 329.18854492 -98.50616211 328.92396484 -97.71044922 328.65136719 C-92.59351038 327.02815854 -92.59351038 327.02815854 -89.734375 327.77734375 C-87.33180972 329.67137469 -85.09203194 331.66817038 -82.86328125 333.765625 C-79.17214666 337.1984733 -75.42167866 340.48250592 -71.48828125 343.640625 C-66.33504089 347.79574851 -61.48744963 352.20684981 -56.65234375 356.72265625 C-54.15174407 358.9975571 -51.59048617 361.12465517 -48.92578125 363.203125 C-49.48670157 355.541984 -50.29713269 347.98142783 -51.47279358 340.39123535 C-51.62726202 339.37228227 -51.78173046 338.35332919 -51.94087976 337.30349874 C-52.45423052 333.92374156 -52.97331966 330.54489232 -53.49243164 327.16601562 C-53.86417727 324.72653393 -54.23556657 322.28699791 -54.60662842 319.84741211 C-55.40521533 314.60243668 -56.20627633 309.35784843 -57.0096302 304.11360168 C-58.1797843 296.47489521 -59.34542805 288.83550562 -60.51006275 281.19595593 C-62.41163243 268.72324688 -64.31686143 256.25109967 -66.22436523 243.77929688 C-68.05646813 231.80043877 -69.88676809 219.82130752 -71.71459961 207.84179688 C-71.82630649 207.10967965 -71.93801337 206.37756243 -72.0531053 205.62325984 C-72.50275017 202.67627783 -72.95238271 199.72929394 -73.40199876 196.78230754 C-76.69488066 175.19943909 -79.98860247 153.61669671 -83.28913021 132.03499603 C-84.05570318 127.02165505 -84.81995939 122.00796925 -85.58238316 116.99399567 C-87.26752329 105.92746301 -88.97041787 94.86472487 -90.74675351 83.81241274 C-91.52939287 78.93984538 -92.30289387 74.06584472 -93.07606781 69.19176769 C-93.44218732 66.90270413 -93.81321003 64.61441875 -94.18942654 62.32699299 C-94.70402612 59.19776906 -95.20233882 56.06634826 -95.69725037 52.93395996 C-95.85307252 52.0151451 -96.00889468 51.09633024 -96.16943872 50.14967251 C-96.8727323 45.59162215 -97.35212778 42.35923048 -94.92578125 38.203125 C-76.10058316 14.49569095 -42.66282624 4.10741506 -13.74731445 0.6796875 C-9.15667149 0.18026648 -4.61499366 0.02651702 0 0 Z " fill="#FFFFFF" transform="translate(772.92578125,87.796875)"/>
<path d="M0 0 C0.66133186 0.00026688 1.32266373 0.00053375 2.00403595 0.00080872 C23.03278974 0.01144281 43.91930192 0.30237709 64.875 2.1875 C65.95871887 2.28224609 65.95871887 2.28224609 67.06433105 2.37890625 C146.74031932 9.35745038 225.65303599 27.60976773 333.22998047 73.95898438 C335.60753061 75.06327017 337.99125371 76.15215898 340.37890625 77.234375 C351.17141438 82.16048414 361.54762901 87.77412515 371.91113281 93.54150391 C374.93237125 95.21936136 377.96172858 96.88183186 380.9921875 98.54296875 C416.06673842 117.85871086 449.61906299 140.14343475 480.875 165.1875 C481.76574219 165.89519531 482.65648437 166.60289062 483.57421875 167.33203125 C486.01520414 169.27485636 488.44696701 171.22851884 490.875 173.1875 C491.7103125 173.85910156 492.545625 174.53070313 493.40625 175.22265625 C504.52749331 184.23413429 515.31694599 193.6350174 525.81542969 203.36352539 C527.71558031 205.12211113 529.62592038 206.866169 531.546875 208.60229492 C539.17909039 215.5102314 546.5196203 222.6773374 553.78588867 229.96801758 C555.69922194 231.88675505 557.61790504 233.80002754 559.53710938 235.71289062 C565.01505478 241.18786755 570.46096902 246.64227624 575.48022461 252.54760742 C577.65715689 255.10711278 579.95988584 257.54139396 582.25 260 C586.52215901 264.62396666 590.56189637 269.3851478 594.5078125 274.29296875 C596.68133129 276.95068726 598.90966776 279.5435012 601.16674805 282.12963867 C607.66294532 289.58529998 613.60999801 297.36031856 619.47851562 305.31494141 C621.52438662 308.05826843 623.63918165 310.74379226 625.75 313.4375 C649.846073 344.53376738 670.04952333 378.72115621 688.875 413.1875 C689.60130615 414.51612061 689.60130615 414.51612061 690.34228516 415.87158203 C730.9036267 490.53906735 757.19205452 573.90877595 777.875 728.1875 C777.9233902 728.90931458 777.9717804 729.63112915 778.02163696 730.37481689 C779.03057791 746.01160399 779.07567787 761.64815582 779.0625 777.3125 C779.06223312 777.97383186 779.06196625 778.63516373 779.06169128 779.31653595 C779.05105719 800.34528974 778.76012291 821.23180192 776.875 842.1875 C776.81183594 842.90997925 776.74867187 843.6324585 776.68359375 844.37683105 C769.70504962 924.05281932 751.45273227 1002.96553599 705.10351562 1110.54248047 C703.99922983 1112.92003061 702.91034102 1115.30375371 701.828125 1117.69140625 C696.90201586 1128.48391438 691.28837485 1138.86012901 685.52099609 1149.22363281 C683.84313864 1152.24487125 682.18066814 1155.27422858 680.51953125 1158.3046875 C661.20378914 1193.37923842 638.91906525 1226.93156299 613.875 1258.1875 C613.16730469 1259.07824219 612.45960937 1259.96898437 611.73046875 1260.88671875 C609.78764364 1263.32770414 607.83398116 1265.75946701 605.875 1268.1875 C605.20339844 1269.0228125 604.53179688 1269.858125 603.83984375 1270.71875 C594.82836571 1281.83999331 585.4274826 1292.62944599 575.69897461 1303.12792969 C573.94038887 1305.02808031 572.196331 1306.93842038 570.46020508 1308.859375 C563.5522686 1316.49159039 556.3851626 1323.8321203 549.09448242 1331.09838867 C547.17574495 1333.01172194 545.26247246 1334.93040504 543.34960938 1336.84960938 C537.87463245 1342.32755478 532.42022376 1347.77346902 526.51489258 1352.79272461 C523.95538722 1354.96965689 521.52110604 1357.27238584 519.0625 1359.5625 C514.43853334 1363.83465901 509.6773522 1367.87439637 504.76953125 1371.8203125 C502.11181274 1373.99383129 499.5189988 1376.22216776 496.93286133 1378.47924805 C489.47720002 1384.97544532 481.70218144 1390.92249801 473.74755859 1396.79101562 C471.00423157 1398.83688662 468.31870774 1400.95168165 465.625 1403.0625 C434.52873262 1427.158573 400.34134379 1447.36202333 365.875 1466.1875 C364.98925293 1466.6717041 364.10350586 1467.1559082 363.19091797 1467.65478516 C288.52343265 1508.2161267 205.15372405 1534.50455452 50.875 1555.1875 C50.15318542 1555.2358902 49.43137085 1555.2842804 48.68768311 1555.33413696 C33.05089601 1556.34307791 17.41434418 1556.38817787 1.75 1556.375 C1.08866814 1556.37473312 0.42733627 1556.37446625 -0.25403595 1556.37419128 C-21.28278974 1556.36355719 -42.16930192 1556.07262291 -63.125 1554.1875 C-63.84747925 1554.12433594 -64.5699585 1554.06117187 -65.31433105 1553.99609375 C-144.99031932 1547.01754962 -223.90303599 1528.76523227 -331.47998047 1482.41601562 C-333.85753061 1481.31172983 -336.24125371 1480.22284102 -338.62890625 1479.140625 C-349.42141438 1474.21451586 -359.79762901 1468.60087485 -370.16113281 1462.83349609 C-373.18237125 1461.15563864 -376.21172858 1459.49316814 -379.2421875 1457.83203125 C-414.31673842 1438.51628914 -447.86906299 1416.23156525 -479.125 1391.1875 C-480.01574219 1390.47980469 -480.90648437 1389.77210937 -481.82421875 1389.04296875 C-484.26520414 1387.10014364 -486.69696701 1385.14648116 -489.125 1383.1875 C-489.9603125 1382.51589844 -490.795625 1381.84429688 -491.65625 1381.15234375 C-502.77749331 1372.14086571 -513.56694599 1362.7399826 -524.06542969 1353.01147461 C-525.96558031 1351.25288887 -527.87592038 1349.508831 -529.796875 1347.77270508 C-537.42909039 1340.8647686 -544.7696203 1333.6976626 -552.03588867 1326.40698242 C-553.94922194 1324.48824495 -555.86790504 1322.57497246 -557.78710938 1320.66210938 C-563.26505478 1315.18713245 -568.71096902 1309.73272376 -573.73022461 1303.82739258 C-575.90715689 1301.26788722 -578.20988584 1298.83360604 -580.5 1296.375 C-584.77215901 1291.75103334 -588.81189637 1286.9898522 -592.7578125 1282.08203125 C-594.93133129 1279.42431274 -597.15966776 1276.8314988 -599.41674805 1274.24536133 C-605.91294532 1266.78970002 -611.85999801 1259.01468144 -617.72851562 1251.06005859 C-619.77438662 1248.31673157 -621.88918165 1245.63120774 -624 1242.9375 C-648.096073 1211.84123262 -668.29952333 1177.65384379 -687.125 1143.1875 C-687.6092041 1142.30175293 -688.0934082 1141.41600586 -688.59228516 1140.50341797 C-729.1536267 1065.83593265 -755.44205452 982.46622405 -776.125 828.1875 C-776.1733902 827.46568542 -776.2217804 826.74387085 -776.27163696 826.00018311 C-777.28057791 810.36339601 -777.32567787 794.72684418 -777.3125 779.0625 C-777.31223312 778.40116814 -777.31196625 777.73983627 -777.31169128 777.05846405 C-777.30105719 756.02971026 -777.01012291 735.14319808 -775.125 714.1875 C-775.03025391 713.10378113 -775.03025391 713.10378113 -774.93359375 711.99816895 C-767.95504962 632.32218068 -749.70273227 553.40946401 -703.35351562 445.83251953 C-702.24922983 443.45496939 -701.16034102 441.07124629 -700.078125 438.68359375 C-695.15201586 427.89108562 -689.53837485 417.51487099 -683.77099609 407.15136719 C-682.09313864 404.13012875 -680.43066814 401.10077142 -678.76953125 398.0703125 C-659.45378914 362.99576158 -637.16906525 329.44343701 -612.125 298.1875 C-611.41730469 297.29675781 -610.70960938 296.40601563 -609.98046875 295.48828125 C-608.03764364 293.04729586 -606.08398116 290.61553299 -604.125 288.1875 C-603.11759766 286.93453125 -603.11759766 286.93453125 -602.08984375 285.65625 C-593.07836571 274.53500669 -583.6774826 263.74555401 -573.94897461 253.24707031 C-572.19038887 251.34691969 -570.446331 249.43657962 -568.71020508 247.515625 C-561.8022686 239.88340961 -554.6351626 232.5428797 -547.34448242 225.27661133 C-545.42574495 223.36327806 -543.51247246 221.44459496 -541.59960938 219.52539062 C-536.12463245 214.04744522 -530.67022376 208.60153098 -524.76489258 203.58227539 C-522.20538722 201.40534311 -519.77110604 199.10261416 -517.3125 196.8125 C-512.68853334 192.54034099 -507.9273522 188.50060363 -503.01953125 184.5546875 C-500.36181274 182.38116871 -497.7689988 180.15283224 -495.18286133 177.89575195 C-487.72720002 171.39955468 -479.95218144 165.45250199 -471.99755859 159.58398438 C-469.25423157 157.53811338 -466.56870774 155.42331835 -463.875 153.3125 C-432.77873262 129.216427 -398.59134379 109.01297667 -364.125 90.1875 C-362.79637939 89.46119385 -362.79637939 89.46119385 -361.44091797 88.72021484 C-286.77343265 48.1588733 -203.40372405 21.87044548 -49.125 1.1875 C-48.40318542 1.1391098 -47.68137085 1.0907196 -46.93768311 1.04086304 C-31.30089601 0.03192209 -15.66434418 -0.01317787 0 0 Z M-11.17773438 43.24169922 C-81.97263065 44.64733701 -152.65029871 55.55392184 -220.125 77.1875 C-221.46136134 77.61201933 -222.79778859 78.03633121 -224.13427734 78.46044922 C-253.60716283 87.84283395 -282.00145565 99.29082048 -310.125 112.1875 C-311.53749023 112.83283691 -311.53749023 112.83283691 -312.97851562 113.49121094 C-325.81108364 119.38315346 -338.23374446 125.89427395 -350.56591797 132.76757812 C-352.90184331 134.06368018 -355.2467199 135.34076648 -357.59765625 136.609375 C-395.58231059 157.20367308 -430.90428494 182.35168024 -464.29150391 209.69042969 C-465.92194039 211.02169953 -467.56004819 212.34356169 -469.19921875 213.6640625 C-474.83995555 218.21849478 -480.25402781 222.9591374 -485.58984375 227.8671875 C-487.65825758 229.76031203 -489.74905876 231.61001704 -491.875 233.4375 C-502.87100132 243.04800515 -513.29050138 253.25179637 -523.625 263.5625 C-524.14328369 264.0781955 -524.66156738 264.59389099 -525.19555664 265.12521362 C-530.51413313 270.42282679 -535.75158789 275.74566695 -540.63574219 281.453125 C-542.85362238 284.03604645 -545.17955587 286.5088325 -547.5 289 C-551.7937538 293.64788542 -555.8603184 298.43166348 -559.828125 303.36328125 C-561.85032938 305.84976725 -563.91661879 308.29035799 -566.00708008 310.71948242 C-572.46218485 318.23680504 -578.50401199 326.0372197 -584.45117188 333.96044922 C-585.54484687 335.41559847 -586.64234685 336.86788287 -587.74414062 338.31689453 C-610.76485127 368.59594895 -631.05840693 401.07554954 -648.80126953 434.69580078 C-649.92909133 436.81873499 -651.07734879 438.92678462 -652.24609375 441.02734375 C-689.88875029 509.34759149 -713.08684198 587.20875993 -732.125 723.1875 C-732.22506348 724.37617676 -732.22506348 724.37617676 -732.32714844 725.58886719 C-732.69567293 730.11801143 -732.94215871 734.64770707 -733.125 739.1875 C-733.19050049 740.80906006 -733.19050049 740.80906006 -733.25732422 742.46337891 C-733.83948439 757.36628732 -734.42066713 772.27209801 -734.125 787.1875 C-734.10711426 788.19490234 -734.08922852 789.20230469 -734.07080078 790.24023438 C-732.66516299 861.03513065 -721.75857816 931.71279871 -700.125 999.1875 C-699.70048067 1000.52386134 -699.27616879 1001.86028859 -698.85205078 1003.19677734 C-689.46966605 1032.66966283 -678.02167952 1061.06395565 -665.125 1089.1875 C-664.47966309 1090.59999023 -664.47966309 1090.59999023 -663.82128906 1092.04101562 C-657.92934654 1104.87358364 -651.41822605 1117.29624446 -644.54492188 1129.62841797 C-643.24881982 1131.96434331 -641.97173352 1134.3092199 -640.703125 1136.66015625 C-620.10882692 1174.64481059 -594.96081976 1209.96678494 -567.62207031 1243.35400391 C-566.29080047 1244.98444039 -564.96893831 1246.62254819 -563.6484375 1248.26171875 C-559.09400522 1253.90245555 -554.3533626 1259.31652781 -549.4453125 1264.65234375 C-547.55218797 1266.72075758 -545.70248296 1268.81155876 -543.875 1270.9375 C-534.26449485 1281.93350132 -524.06070363 1292.35300138 -513.75 1302.6875 C-513.2343045 1303.20578369 -512.71860901 1303.72406738 -512.18728638 1304.25805664 C-506.88967321 1309.57663313 -501.56683305 1314.81408789 -495.859375 1319.69824219 C-493.27645355 1321.91612238 -490.8036675 1324.24205587 -488.3125 1326.5625 C-483.66461458 1330.8562538 -478.88083652 1334.9228184 -473.94921875 1338.890625 C-471.46273275 1340.91282938 -469.02214201 1342.97911879 -466.59301758 1345.06958008 C-459.07569496 1351.52468485 -451.2752803 1357.56651199 -443.35205078 1363.51367188 C-441.89690153 1364.60734687 -440.44461713 1365.70484685 -438.99560547 1366.80664062 C-408.71655105 1389.82735127 -376.23695046 1410.12090693 -342.61669922 1427.86376953 C-340.49376501 1428.99159133 -338.38571538 1430.13984879 -336.28515625 1431.30859375 C-267.96490851 1468.95125029 -190.10374007 1492.14934198 -54.125 1511.1875 C-52.93632324 1511.28756348 -52.93632324 1511.28756348 -51.72363281 1511.38964844 C-47.19448857 1511.75817293 -42.66479293 1512.00465871 -38.125 1512.1875 C-37.04395996 1512.23116699 -35.96291992 1512.27483398 -34.84912109 1512.31982422 C-19.94621268 1512.90198439 -5.04040199 1513.48316713 9.875 1513.1875 C11.38610352 1513.16067139 11.38610352 1513.16067139 12.92773438 1513.13330078 C83.72263065 1511.72766299 154.40029871 1500.82107816 221.875 1479.1875 C223.21136134 1478.76298067 224.54778859 1478.33866879 225.88427734 1477.91455078 C255.35880842 1468.53164219 283.74571859 1457.0756746 311.875 1444.1875 C312.76783691 1443.77902832 313.66067383 1443.37055664 314.58056641 1442.94970703 C369.12730295 1417.86893459 419.66086212 1384.66283817 466.04150391 1346.68457031 C467.67194039 1345.35330047 469.31004819 1344.03143831 470.94921875 1342.7109375 C476.58995555 1338.15650522 482.00402781 1333.4158626 487.33984375 1328.5078125 C489.40825758 1326.61468797 491.49905876 1324.76498296 493.625 1322.9375 C504.62100132 1313.32699485 515.04050138 1303.12320363 525.375 1292.8125 C525.89328369 1292.2968045 526.41156738 1291.78110901 526.94555664 1291.24978638 C532.26413313 1285.95217321 537.50158789 1280.62933305 542.38574219 1274.921875 C544.60362238 1272.33895355 546.92955587 1269.8661675 549.25 1267.375 C553.5437538 1262.72711458 557.6103184 1257.94333652 561.578125 1253.01171875 C563.60032938 1250.52523275 565.66661879 1248.08464201 567.75708008 1245.65551758 C574.21218485 1238.13819496 580.25401199 1230.3377803 586.20117188 1222.41455078 C587.29484687 1220.95940153 588.39234685 1219.50711713 589.49414062 1218.05810547 C612.51485127 1187.77905105 632.80840693 1155.29945046 650.55126953 1121.67919922 C651.67909133 1119.55626501 652.82734879 1117.44821538 653.99609375 1115.34765625 C691.63875029 1047.02740851 714.83684198 969.16624007 733.875 833.1875 C733.97506348 831.99882324 733.97506348 831.99882324 734.07714844 830.78613281 C734.44567293 826.25698857 734.69215871 821.72729293 734.875 817.1875 C734.91866699 816.10645996 734.96233398 815.02541992 735.00732422 813.91162109 C735.58948439 799.00871268 736.17066713 784.10290199 735.875 769.1875 C735.84817139 767.67639648 735.84817139 767.67639648 735.82080078 766.13476562 C734.41516299 695.33986935 723.50857816 624.66220129 701.875 557.1875 C701.45048067 555.85113866 701.02616879 554.51471141 700.60205078 553.17822266 C691.21914219 523.70369158 679.7631746 495.31678141 666.875 467.1875 C666.46652832 466.29466309 666.05805664 465.40182617 665.63720703 464.48193359 C640.55643459 409.93519705 607.35033817 359.40163788 569.37207031 313.02099609 C568.04080047 311.39055961 566.71893831 309.75245181 565.3984375 308.11328125 C560.84400522 302.47254445 556.1033626 297.05847219 551.1953125 291.72265625 C549.30218797 289.65424242 547.45248296 287.56344124 545.625 285.4375 C536.01449485 274.44149868 525.81070363 264.02199862 515.5 253.6875 C514.9843045 253.16921631 514.46860901 252.65093262 513.93728638 252.11694336 C508.63967321 246.79836687 503.31683305 241.56091211 497.609375 236.67675781 C495.02645355 234.45887762 492.5536675 232.13294413 490.0625 229.8125 C485.41461458 225.5187462 480.63083652 221.4521816 475.69921875 217.484375 C473.21273275 215.46217062 470.77214201 213.39588121 468.34301758 211.30541992 C460.82569496 204.85031515 453.0252803 198.80848801 445.10205078 192.86132812 C443.64690153 191.76765313 442.19461713 190.67015315 440.74560547 189.56835938 C410.46655105 166.54764873 377.98695046 146.25409307 344.36669922 128.51123047 C342.24376501 127.38340867 340.13571538 126.23515121 338.03515625 125.06640625 C269.71490851 87.42374971 191.85374007 64.22565802 55.875 45.1875 C54.68632324 45.08743652 54.68632324 45.08743652 53.47363281 44.98535156 C48.94448857 44.61682707 44.41479293 44.37034129 39.875 44.1875 C38.79395996 44.14383301 37.71291992 44.10016602 36.59912109 44.05517578 C20.6672624 43.43282118 4.76541042 42.95863955 -11.17773438 43.24169922 Z " fill="#FFFFFF" transform="translate(783.125,12.8125)"/>
</svg>
