<?xml version="1.0" encoding="UTF-8"?>
<svg version="1.1" xmlns="http://www.w3.org/2000/svg" width="2657" height="2657">
<path d="M0 0 C3.71326644 0.00008057 7.42640767 -0.00676817 11.13964844 -0.02050781 C46.05635819 -0.1474361 80.87691922 0.97738435 115.67797852 3.93530273 C116.66927765 4.01800415 117.66057678 4.10070557 118.68191528 4.18591309 C214.23788827 12.22449484 309.45364658 30.3194812 540.67797852 112.18530273 C541.43729675 112.52005615 542.19661499 112.85480957 542.97894287 113.19970703 C575.66337502 127.61796747 608.05110222 143.20481076 639.16674805 160.77368164 C641.95123294 162.3389054 644.74930909 163.87805192 647.54907227 165.41577148 C662.45023286 173.6321238 677.02124409 182.32478205 691.50952148 191.2409668 C694.24674776 192.92067631 696.99237697 194.58467227 699.74438477 196.23999023 C737.44115043 219.04922305 773.67376057 244.62351766 808.5378418 271.53344727 C809.98829116 272.65297047 811.43982346 273.77109178 812.89233398 274.88793945 C826.94006847 285.69271679 840.65616601 296.86557179 854.14794922 308.35620117 C857.45037823 311.16505639 860.79939548 313.90630513 864.17797852 316.62280273 C869.55940056 320.99864518 874.6179642 325.67839088 879.68579102 330.40795898 C882.00038113 332.56607993 884.34693598 334.67704083 886.74047852 336.74780273 C891.08911913 340.51297794 895.31511131 344.40944292 899.54516602 348.30639648 C901.56182163 350.16384244 903.58847845 352.00765082 905.62329102 353.84545898 C911.84794908 359.48084942 917.83320296 365.29691876 923.73901367 371.265625 C927.28653915 374.83738086 930.91548341 378.22446642 934.75219727 381.48608398 C940.19374513 386.28744975 945.25170259 391.50743545 949.98657227 397.00170898 C953.69071687 401.2675579 957.64638725 405.23094502 961.67797852 409.18530273 C966.3024201 413.72115348 970.7442345 418.3205866 974.97192383 423.22973633 C977.74154387 426.40441528 980.65519393 429.44058915 983.55297852 432.49780273 C988.42278208 437.67080473 993.03576757 442.95526119 997.47094727 448.50952148 C999.93777674 451.50027934 1002.53786886 454.3487388 1005.17797852 457.18530273 C1009.43336451 461.76452397 1013.4512124 466.47817151 1017.37329102 471.34936523 C1019.43612007 473.88769387 1021.53669249 476.38389261 1023.66162109 478.86987305 C1029.3501001 485.52556317 1034.80732619 492.33489456 1040.17407227 499.25170898 C1041.77310054 501.30760248 1043.38117891 503.35619111 1044.99047852 505.40405273 C1053.43754714 516.1746601 1061.62589649 527.11684875 1069.67797852 538.18530273 C1070.51159912 539.33047363 1070.51159912 539.33047363 1071.36206055 540.4987793 C1075.15358752 545.71365908 1078.92181173 550.9449111 1082.67797852 556.18530273 C1083.16443848 556.86206055 1083.65089844 557.53881836 1084.15209961 558.23608398 C1109.87240973 594.07229558 1133.60500725 631.58921288 1155.00170898 670.16821289 C1156.78109552 673.37090132 1158.57504163 676.56519124 1160.36938477 679.75952148 C1175.71492718 707.19338869 1190.18269461 735.09578206 1203.11987305 763.74975586 C1204.72287602 767.28429955 1206.35255421 770.80562551 1207.98657227 774.32592773 C1223.20106613 807.23634061 1236.51419661 841.03670354 1248.67797852 875.18530273 C1248.96632568 875.99342407 1249.25467285 876.80154541 1249.55175781 877.63415527 C1283.57417616 973.17358432 1306.15250029 1072.69242776 1252.67797852 1749.18530273 C1252.27159149 1750.3554895 1252.27159149 1750.3554895 1251.85699463 1751.54931641 C1227.58421096 1821.33820638 1197.71179418 1889.64730129 1161.67797852 1954.18530273 C1160.93112793 1955.53422607 1160.93112793 1955.53422607 1160.16918945 1956.91040039 C1152.04700558 1971.57646246 1143.4531428 1985.92982253 1134.70178223 2000.22496033 C1132.00928156 2004.62846887 1129.36192437 2009.05746567 1126.72705078 2013.49560547 C1121.72007234 2021.92334763 1116.50099837 2030.14984589 1110.98608398 2038.25317383 C1109.06097645 2041.09664174 1107.16606835 2043.95993027 1105.26806641 2046.8215332 C1095.06849457 2062.18691025 1084.55668522 2077.29279236 1073.67797852 2092.18530273 C1073.09048828 2092.98967773 1072.50299805 2093.79405273 1071.89770508 2094.62280273 C1064.61729119 2104.57677045 1057.2647684 2114.46242638 1049.67797852 2124.18530273 C1049.04327637 2125.0012793 1049.04327637 2125.0012793 1048.39575195 2125.83374023 C1038.70103713 2138.29119763 1028.80359933 2150.5854978 1018.56298828 2162.59912109 C1015.69715108 2165.96418556 1012.89256122 2169.37177827 1010.11547852 2172.81030273 C1006.2421858 2177.57050327 1002.17037859 2182.11335057 998.01782227 2186.63061523 C996.01963003 2188.81228088 994.05648963 2191.01541582 992.11547852 2193.24780273 C974.20793176 2213.82687161 955.41337644 2233.6311873 936.10229492 2252.89135742 C933.64847098 2255.3397449 931.20014153 2257.79353806 928.75219727 2260.24780273 C927.16527875 2261.8340615 925.57805063 2263.42001061 923.99047852 2265.00561523 C923.27263184 2265.72548615 922.55478516 2266.44535706 921.81518555 2267.18704224 C917.78912004 2271.19467575 913.66649655 2275.02786944 909.35546875 2278.72799683 C907.36440292 2280.45771897 905.50955237 2282.28831553 903.67797852 2284.18530273 C900.54951888 2287.35620272 897.30942499 2290.31100234 893.93188477 2293.21264648 C891.71822242 2295.1500806 889.55572829 2297.13659461 887.39941406 2299.13745117 C882.21493671 2303.94648093 876.90428377 2308.50315461 871.39282227 2312.93920898 C868.57124356 2315.27360863 865.8720714 2317.70520872 863.17797852 2320.18530273 C858.36607418 2324.60412193 853.39528219 2328.75764035 848.31079102 2332.85717773 C846.46367068 2334.35962011 844.63270007 2335.88047136 842.80297852 2337.40405273 C834.34390587 2344.4399469 825.762287 2351.26266974 816.99047852 2357.90405273 C813.29560767 2360.70380915 809.64241677 2363.55345572 805.99609375 2366.41601562 C797.12504646 2373.37439637 788.07876694 2380.0418761 778.90161133 2386.58959961 C776.72045717 2388.15481959 774.55278257 2389.73691554 772.38891602 2391.32592773 C760.9490238 2399.70870783 749.20559012 2407.59137009 737.37036133 2415.40356445 C734.44760671 2417.33775589 731.53819107 2419.29092755 728.63110352 2421.24853516 C712.98427403 2431.76557583 696.90338148 2441.59164078 680.67797852 2451.18530273 C679.75919922 2451.72912598 678.84041992 2452.27294922 677.89379883 2452.83325195 C653.20091403 2467.41914452 628.13046251 2481.22606666 602.56799316 2494.22241211 C600.66437303 2495.19223421 598.76315994 2496.16662956 596.86254883 2497.14233398 C576.46632255 2507.60509076 555.75265231 2517.1649897 534.72753906 2526.29333496 C532.79830292 2527.13293761 530.87137942 2527.97755305 528.94555664 2528.82495117 C468.71404407 2555.31270781 406.21887897 2576.24459518 342.67797852 2593.18530273 C341.9006134 2593.39264038 341.12324829 2593.59997803 340.32232666 2593.81359863 C247.10717149 2618.58867298 151.23179821 2631.42772496 30.67797852 2636.18530273 C29.84488159 2636.19625977 29.01178467 2636.2072168 28.15344238 2636.21850586 C-71.4039702 2637.45938091 -170.39536534 2628.13891107 -533.32202148 2521.18530273 C-534.8340918 2520.50250244 -534.8340918 2520.50250244 -536.37670898 2519.8059082 C-569.21142732 2504.92379956 -601.60041131 2489.14842317 -632.91186523 2471.26342773 C-636.93893961 2468.96385866 -640.98751157 2466.70975319 -645.05566406 2464.48388672 C-685.05803542 2442.56034332 -723.43659132 2417.20569116 -760.43237305 2390.54370117 C-762.47223978 2389.07731635 -764.51805507 2387.61946251 -766.56420898 2386.16186523 C-776.67334085 2378.93852951 -786.53125684 2371.44231141 -796.30004883 2363.76635742 C-799.16379709 2361.52708747 -802.0555523 2359.32616643 -804.94702148 2357.12280273 C-811.91055149 2351.77706253 -818.70951171 2346.23452638 -825.50170898 2340.67358398 C-827.09464013 2339.37120895 -828.69231668 2338.07464241 -830.29077148 2336.77905273 C-837.14016508 2331.21895676 -843.83747875 2325.49263903 -850.51928711 2319.73364258 C-852.29688061 2318.20689583 -854.08154163 2316.68888565 -855.86889648 2315.17358398 C-862.27665613 2309.73271504 -868.57283879 2304.2035406 -874.70898438 2298.45678711 C-877.50489229 2295.84118597 -880.33907412 2293.28378381 -883.22827148 2290.77124023 C-887.21156367 2287.30160053 -891.09573407 2283.73798107 -894.94702148 2280.12280273 C-895.6321582 2279.48084961 -896.31729492 2278.83889648 -897.02319336 2278.17749023 C-902.31592081 2273.19208244 -907.4658391 2268.07833548 -912.57861328 2262.90942383 C-916.12471742 2259.33814086 -919.76120749 2255.9484955 -923.59545898 2252.68530273 C-927.90522878 2248.94106834 -931.80207523 2244.83213716 -935.50561523 2240.49389648 C-939.4086425 2236.01214626 -943.58372742 2231.84777759 -947.82202148 2227.68530273 C-952.61318889 2222.97984494 -957.24411759 2218.22802788 -961.62475586 2213.13647461 C-964.43623601 2209.90440479 -967.38438034 2206.80232629 -970.32202148 2203.68530273 C-975.08854873 2198.59930482 -979.79708981 2193.48871727 -984.32202148 2188.18530273 C-985.20848576 2187.15253217 -986.09523183 2186.12000345 -986.98217773 2185.08764648 C-989.03852369 2182.6930301 -991.09135616 2180.29545535 -993.14233398 2177.89624023 C-995.21172847 2175.47708894 -997.28979456 2173.0659154 -999.37670898 2170.66186523 C-1004.76447689 2164.44292653 -1009.99688419 2158.14435119 -1015.03930664 2151.6418457 C-1018.6863069 2146.9517333 -1022.45933575 2142.37673846 -1026.25952148 2137.81030273 C-1032.37591609 2130.43670467 -1038.17155412 2122.86787687 -1043.85864258 2115.16040039 C-1045.81140052 2112.52479616 -1047.78905244 2109.90834946 -1049.76586914 2107.29077148 C-1077.81507643 2070.09966826 -1103.60704541 2031.27315702 -1127.32202148 1991.18530273 C-1127.86052734 1990.2771582 -1128.3990332 1989.36901367 -1128.95385742 1988.43334961 C-1173.67419912 1912.8812954 -1210.40547883 1833.32159637 -1309.00952148 1405.31030273 C-1309.0704599 1404.38781738 -1309.13139832 1403.46533203 -1309.19418335 1402.51489258 C-1309.61363129 1396.07388083 -1309.9868635 1389.63124326 -1310.32202148 1383.18530273 C-1310.39620804 1381.76148285 -1310.39620804 1381.76148285 -1310.47189331 1380.30889893 C-1311.49503479 1359.81585811 -1311.52361674 1339.32317435 -1311.50952148 1318.81030273 C-1311.50925461 1317.93858177 -1311.50898773 1317.06686081 -1311.50871277 1316.16872406 C-1311.49820808 1288.79420879 -1311.23357422 1261.50372996 -1309.32202148 1234.18530273 C-1309.25885742 1233.2562915 -1309.19569336 1232.32728027 -1309.13061523 1231.37011719 C-1303.78069918 1152.81945019 -1292.05274785 1074.80171469 -1272.88006592 998.4175415 C-1272.35321306 996.31007247 -1271.83323573 994.20107087 -1271.31665039 992.09106445 C-1249.2756208 902.25077882 -1216.06180588 815.40398832 -1171.29077148 725.09936523 C-1169.78794057 722.12630614 -1168.31669187 719.1388903 -1166.85327148 716.14624023 C-1161.11040874 704.44975788 -1154.97469063 693.05513093 -1148.49389648 681.75170898 C-1146.05451574 677.4945064 -1143.69005855 673.20385038 -1141.36157227 668.88525391 C-1134.47203725 656.13009244 -1126.91515868 643.79170565 -1119.32348633 631.44750977 C-1117.59888048 628.63655791 -1115.8882417 625.81799736 -1114.18530273 622.99389648 C-1082.18381862 570.21091203 -1045.24187824 519.73778046 -1005.20703125 472.77148438 C-1002.34119405 469.40641991 -999.53660419 465.9988272 -996.75952148 462.56030273 C-992.88622877 457.8001022 -988.81442156 453.2572549 -984.66186523 448.73999023 C-982.663673 446.55832459 -980.7005326 444.35518965 -978.75952148 442.12280273 C-970.79835025 432.97671299 -962.57621907 424.06635492 -954.32202148 415.18530273 C-953.74848938 414.56820435 -953.17495728 413.95110596 -952.58404541 413.31530762 C-942.92082267 402.93819765 -933.06898402 392.77282251 -923.02807617 382.76098633 C-920.79153153 380.52988702 -918.56049848 378.29337327 -916.32983398 376.05639648 C-914.87963426 374.60685641 -913.42912498 373.15762595 -911.97827148 371.70874023 C-911.32604614 371.05449066 -910.6738208 370.40024109 -910.00183105 369.72616577 C-906.13622716 365.8799506 -902.15811572 362.22054205 -898.02258301 358.66567993 C-896.02509603 356.92682243 -894.1611575 355.09012218 -892.32202148 353.18530273 C-889.21488226 350.03609393 -885.99711845 347.10553307 -882.64233398 344.22436523 C-880.28146136 342.14965899 -877.982327 340.02019095 -875.68554688 337.87524414 C-870.28110085 332.82899519 -864.77060583 328.02807915 -859.00170898 323.39624023 C-856.18948834 321.07595323 -853.50404886 318.65459139 -850.82202148 316.18530273 C-846.01415245 311.7701892 -841.04792823 307.61875792 -835.96801758 303.5222168 C-833.36494356 301.40794309 -830.7861644 299.26444855 -828.20336914 297.12548828 C-820.00990527 290.34623123 -811.73574216 283.68896675 -803.32202148 277.18530273 C-802.6782959 276.68708008 -802.03457031 276.18885742 -801.37133789 275.67553711 C-790.91356681 267.59510394 -780.33074871 259.69184478 -769.65991211 251.89526367 C-767.42388545 250.25980725 -765.19311485 248.6173893 -762.96264648 246.97436523 C-751.59767342 238.64313682 -739.91483891 230.82468847 -728.15649414 223.06176758 C-725.58392694 221.35868821 -723.01912658 219.64490139 -720.45874023 217.92358398 C-683.09400884 192.80613628 -644.17131514 170.11013253 -604.32202148 149.18530273 C-603.67150818 148.84307678 -603.02099487 148.50085083 -602.35076904 148.14825439 C-584.07183101 138.53505886 -565.68586512 129.31177696 -546.8659668 120.79321289 C-543.81343039 119.40825803 -540.76697857 118.01133081 -537.72296143 116.60783386 C-460.78144565 81.15281041 -379.75220054 54.01964989 -63.49862671 1.29244995 C-61.9716234 1.21728053 -60.4447979 1.13845199 -58.91812134 1.05691528 C-39.28473815 0.02428154 -19.65498133 -0.00224923 0 0 Z M-574.95776367 216.9074707 C-577.61791301 218.34522593 -580.28626852 219.7671386 -582.95483398 221.18920898 C-612.80098473 237.15241067 -642.10217885 254.48216472 -670.32202148 273.18530273 C-671.20212891 273.76570312 -672.08223633 274.34610352 -672.98901367 274.9440918 C-710.55567308 299.73021033 -746.67349614 326.24635229 -781.5222168 354.7175293 C-783.09512442 356.00026406 -784.67300432 357.27689687 -786.25170898 358.55249023 C-792.79291149 363.85144656 -799.15728962 369.33774107 -805.50170898 374.86889648 C-807.92960839 376.98334046 -810.36999044 379.0807732 -812.82983398 381.15795898 C-820.6168144 387.73987735 -828.10514384 394.58241058 -835.50952148 401.59155273 C-838.78300372 404.68897118 -842.10439188 407.72521214 -845.44702148 410.74780273 C-850.58545913 415.43120162 -855.48812401 420.31846031 -860.37744141 425.26000977 C-863.9913639 428.89870247 -867.68842708 432.3601692 -871.59545898 435.68530273 C-875.91633326 439.43918446 -879.82118348 443.56083963 -883.53686523 447.90795898 C-887.90092071 452.91909656 -892.61990883 457.53495469 -897.36108398 462.18530273 C-901.29475246 466.07340749 -905.02894932 470.05720647 -908.63842773 474.24780273 C-911.28953483 477.29872876 -914.05776376 480.23720582 -916.82202148 483.18530273 C-921.41403375 488.11046481 -925.94300284 493.06876516 -930.32202148 498.18530273 C-931.22162498 499.23099274 -932.12137882 500.27655342 -933.02124023 501.32202148 C-935.61485805 504.338328 -938.20114614 507.36082166 -940.78442383 510.38598633 C-941.77581534 511.54612533 -942.76825053 512.70537368 -943.76196289 513.86352539 C-949.35198836 520.37901281 -954.79440421 526.98045036 -960.06542969 533.75708008 C-962.97906205 537.49754713 -965.94723747 541.18554425 -968.95898438 544.84741211 C-976.40898017 553.91324625 -983.47540201 563.23896379 -990.45776367 572.66821289 C-992.26490789 575.10818891 -994.0781639 577.54351699 -995.89233398 579.97827148 C-1020.51955907 613.11327069 -1043.33769492 647.63492059 -1064.32202148 683.18530273 C-1064.8735791 684.11568359 -1065.42513672 685.04606445 -1065.9934082 686.00463867 C-1077.59986625 705.6030189 -1088.44430363 725.57796746 -1098.99780273 745.75952148 C-1100.49821533 748.62621415 -1102.01542193 751.48263341 -1103.55249023 754.32983398 C-1143.4950297 828.46085378 -1173.08178074 909.89385825 -1237.32202148 1263.18530273 C-1237.37986816 1264.46034668 -1237.43771484 1265.73539063 -1237.49731445 1267.04907227 C-1241.86149341 1367.7359903 -1233.33919608 1468.91365129 -1117.32202148 1854.18530273 C-1116.83459473 1855.22332031 -1116.34716797 1856.26133789 -1115.8449707 1857.33081055 C-1110.10896543 1869.53765517 -1104.15721009 1881.58855821 -1097.77514648 1893.47045898 C-1096.12310411 1896.55693601 -1094.48814778 1899.6522 -1092.85327148 1902.74780273 C-1084.71208849 1918.1182453 -1076.22235505 1933.23869393 -1067.32202148 1948.18530273 C-1066.60365501 1949.39705825 -1065.88556656 1950.60897861 -1065.16772461 1951.82104492 C-1056.36890347 1966.67070524 -1047.47311863 1981.42489624 -1037.90942383 1995.79907227 C-1036.23391736 1998.31774348 -1034.56871937 2000.84304981 -1032.90405273 2003.36889648 C-1024.91699295 2015.45459369 -1016.71056916 2027.37507879 -1008.32202148 2039.18530273 C-1007.52030518 2040.31548828 -1007.52030518 2040.31548828 -1006.70239258 2041.46850586 C-988.31929968 2067.3213206 -968.78839549 2092.45974122 -948.20483398 2116.60131836 C-945.35817994 2119.94322362 -942.57621297 2123.32947997 -939.82202148 2126.74780273 C-935.69511943 2131.82137767 -931.32099591 2136.62271415 -926.87670898 2141.41577148 C-924.82088426 2143.64448666 -922.80585192 2145.89298192 -920.82202148 2148.18530273 C-917.0316337 2152.55327342 -913.11531529 2156.80363033 -909.19702148 2161.05639648 C-907.35196187 2163.05955092 -905.52125734 2165.07305465 -903.69702148 2167.09545898 C-897.88964215 2173.51641561 -891.89517813 2179.69781494 -885.71166992 2185.75878906 C-882.62131161 2188.80541589 -879.66654513 2191.89748935 -876.84155273 2195.19311523 C-873.39230322 2199.18911467 -869.65308919 2202.752787 -865.75952148 2206.31030273 C-860.33127282 2211.32762791 -855.01758484 2216.42735576 -849.82202148 2221.68530273 C-845.83645716 2225.71040966 -841.83482219 2229.61950386 -837.50952148 2233.28295898 C-834.37613322 2236.00788771 -831.35631991 2238.8509633 -828.32202148 2241.68530273 C-823.39598299 2246.27641183 -818.43860473 2250.806245 -813.32202148 2255.18530273 C-812.27633148 2256.08490623 -811.2307708 2256.98466007 -810.18530273 2257.88452148 C-807.16899622 2260.4781393 -804.14650255 2263.06442739 -801.12133789 2265.64770508 C-799.96119889 2266.63909659 -798.80195054 2267.63153178 -797.64379883 2268.62524414 C-791.1283114 2274.21526961 -784.52687386 2279.65768546 -777.75024414 2284.92871094 C-774.00977709 2287.8423433 -770.32177997 2290.81051872 -766.65991211 2293.82226562 C-757.59407797 2301.27226142 -748.26836043 2308.33868326 -738.83911133 2315.32104492 C-736.39913531 2317.12818914 -733.96380723 2318.94144515 -731.52905273 2320.75561523 C-698.39405352 2345.38284032 -663.87240362 2368.20097617 -628.32202148 2389.18530273 C-626.9264502 2390.01263916 -626.9264502 2390.01263916 -625.50268555 2390.85668945 C-605.94169594 2402.44100421 -586.00879804 2413.27740614 -565.86108398 2423.80249023 C-562.86452926 2425.36930786 -559.88158309 2426.95822489 -556.90795898 2428.56811523 C-544.10692579 2435.46634135 -530.96288521 2441.57291874 -517.74243164 2447.61547852 C-514.64054776 2449.03911259 -511.54789052 2450.48039179 -508.45874023 2451.93139648 C-429.90233189 2488.69002099 -346.26643624 2515.61181703 430.67797852 2489.18530273 C474.34747583 2473.19582936 516.93056283 2454.6588756 558.67797852 2434.18530273 C559.7459668 2433.66226563 560.81395508 2433.13922852 561.91430664 2432.6003418 C576.08613182 2425.63984359 590.08026011 2418.42005279 603.87670898 2410.74194336 C606.78593571 2409.12531188 609.70237283 2407.52221324 612.61938477 2405.91967773 C652.74499383 2383.77557669 691.36583336 2358.77745999 728.67797852 2332.18530273 C729.46527344 2331.62472168 730.25256836 2331.06414063 731.0637207 2330.48657227 C740.75396555 2323.57261229 750.28323328 2316.49498971 759.67797852 2309.18530273 C761.24851349 2307.98776981 762.81905677 2306.79024732 764.39038086 2305.59375 C771.36160478 2300.27438918 778.16910416 2294.76442096 784.95922852 2289.21655273 C787.90909243 2286.80680475 790.8797793 2284.42559692 793.86547852 2282.06030273 C798.24932963 2278.56646166 802.52549988 2274.95458372 806.79199219 2271.31933594 C810.21299623 2268.40849484 813.67611293 2265.56152879 817.17797852 2262.74780273 C822.56083789 2258.37079154 827.62069194 2253.68976146 832.68969727 2248.95874023 C834.98156261 2246.82175959 837.30556609 2244.73306925 839.67797852 2242.68530273 C844.82309585 2238.22620105 849.79532966 2233.57951425 854.78225708 2228.94558716 C856.00188762 2227.81309132 857.22241703 2226.68156234 858.44406128 2225.55123901 C868.810444 2215.95525923 878.90658015 2206.11410691 888.88134766 2196.11230469 C891.26618107 2193.72204166 893.65640957 2191.33726516 896.04711914 2188.95288086 C897.59236223 2187.40697791 899.13729561 2185.86076531 900.68188477 2184.31420898 C901.38301895 2183.61509903 902.08415314 2182.91598907 902.80653381 2182.19569397 C906.72864384 2178.2550922 910.4744946 2174.21909103 914.08604431 2169.99131775 C915.71504592 2168.14325056 917.41924185 2166.40965237 919.17797852 2164.68530273 C922.17032227 2161.73930059 924.93122024 2158.65547266 927.67016602 2155.47436523 C929.62153037 2153.24965802 931.61966308 2151.07377008 933.63232422 2148.90454102 C938.4435677 2143.71709616 943.00326751 2138.40441499 947.43969727 2132.88842773 C949.72613556 2130.12714449 952.11406069 2127.49992052 954.55297852 2124.87280273 C958.79418832 2120.26450213 962.6727588 2115.46959378 966.49951172 2110.52026367 C969.64588009 2106.46221696 972.89662797 2102.51924874 976.24047852 2098.62280273 C981.08583429 2092.95404208 985.67366369 2087.11373005 990.1730957 2081.16723633 C991.90855636 2078.88163127 993.65623288 2076.60562613 995.40454102 2074.32983398 C1004.02913181 2063.08745572 1012.48971528 2051.74951178 1020.67797852 2040.18530273 C1021.27513672 2039.34370605 1021.87229492 2038.50210937 1022.48754883 2037.63500977 C1033.96363164 2021.41932258 1044.89625388 2004.86683911 1055.67797852 1988.18530273 C1056.25531738 1987.29359375 1056.83265625 1986.40188477 1057.42749023 1985.4831543 C1087.39513957 1939.0628619 1114.32454954 1889.9885897 1137.11010742 1839.64477539 C1138.67681488 1836.18787027 1140.26045051 1832.73909288 1141.84594727 1829.29077148 C1155.90890806 1798.52361585 1168.28833757 1767.03223786 1179.67797852 1735.18530273 C1179.9562146 1734.40858215 1180.23445068 1733.63186157 1180.52111816 1732.831604 C1214.70973212 1637.19865667 1236.34153955 1537.12571912 1246.92797852 1424.06030273 C1247.00529205 1423.18463654 1247.08260559 1422.30897034 1247.16226196 1421.4067688 C1250.04217107 1388.27427585 1251.06273822 1355.12785724 1250.99603653 1321.88146591 C1250.99036766 1319.00403538 1250.98756488 1316.12661081 1250.98495483 1313.24917603 C1250.94445346 1282.47224215 1250.27130443 1251.8682611 1247.67797852 1221.18530273 C1247.59076538 1220.13753662 1247.50355225 1219.08977051 1247.41369629 1218.01025391 C1239.12533665 1119.07842813 1219.8252938 1021.68058921 1130.67797852 783.18530273 C1130.37678101 782.55239319 1130.0755835 781.91948364 1129.76525879 781.26739502 C1122.05437008 765.07313236 1114.26001173 748.94007189 1105.67797852 733.18530273 C1104.82647217 731.61377441 1104.82647217 731.61377441 1103.95776367 730.01049805 C1094.83997161 713.2107123 1085.3914049 696.64960802 1075.53051758 680.27270508 C1073.85333287 677.47754458 1072.19595838 674.6718783 1070.54516602 671.86108398 C1062.70020991 658.61356314 1054.21428925 645.80606938 1045.67797852 632.99780273 C1045.09141479 632.11696014 1044.50485107 631.23611755 1043.9005127 630.32858276 C1021.72717052 597.07283032 998.26468363 564.68051019 972.84594727 533.81811523 C971.40483479 532.06800747 969.96988448 530.31280661 968.54125977 528.55249023 C963.3885958 522.20648039 958.11232333 515.97786078 952.77563477 509.78686523 C950.75053733 507.43747297 948.73773122 505.07855133 946.73657227 502.70874023 C940.85370677 495.75813465 934.7977459 489.01484735 928.55322266 482.38671875 C925.00592652 478.62072984 921.55541324 474.79590352 918.18188477 470.87280273 C916.06183166 468.49393795 913.7888604 466.28427213 911.51441956 464.05418396 C909.7630656 462.27189286 908.13794903 460.43447681 906.51757812 458.53320312 C902.4542214 453.86249574 898.12611138 449.48942198 893.74438477 445.11889648 C892.48923317 443.8623098 892.48923317 443.8623098 891.20872498 442.58033752 C889.44929748 440.82023338 887.68862198 439.06137596 885.92675781 437.30371094 C883.2482844 434.63059302 880.57518978 431.95218022 877.90258789 429.27319336 C876.18350736 427.5547737 874.46411662 425.83666431 872.74438477 424.11889648 C871.95455704 423.32704453 871.16472931 422.53519257 870.35096741 421.71934509 C866.17833572 417.56407429 861.93352878 413.56450819 857.45103455 409.74427795 C855.61256862 408.1277905 853.89153678 406.43295608 852.17797852 404.68530273 C849.23197637 401.69295898 846.14814844 398.93206101 842.96704102 396.19311523 C840.74224713 394.24167486 838.56627351 392.24346626 836.39697266 390.23071289 C831.19090557 385.40225788 825.85981871 380.82025143 820.32641602 376.36499023 C817.70522733 374.20772875 815.18643571 371.97219273 812.67797852 369.68530273 C807.5059877 364.97903621 802.11450448 360.58046598 796.67797852 356.18530273 C794.90669279 354.72751891 793.13586217 353.26918193 791.36547852 351.81030273 C785.52356456 347.0328053 779.59741144 342.36840819 773.64819336 337.72583008 C771.56709662 336.09860326 769.49158426 334.46441465 767.41625977 332.82983398 C757.73346351 325.22442991 747.88481112 317.90476443 737.86206055 310.75463867 C735.79735331 309.27107751 733.74877575 307.7682686 731.70532227 306.25561523 C716.98256399 295.3985394 701.67129148 285.39631832 686.40576172 275.3258667 C684.92830841 274.35055336 683.45239891 273.37290208 681.97680664 272.39477539 C652.25090196 252.70169034 621.1558755 234.89585663 589.67797852 218.18530273 C588.74453613 217.6896582 587.81109375 217.19401367 586.84936523 216.68334961 C580.14970599 213.13667734 573.42069591 209.64930202 566.67797852 206.18530273 C565.11781006 205.37971924 565.11781006 205.37971924 563.52612305 204.55786133 C544.26044822 194.63996023 524.61925667 185.73702587 504.75610352 177.09155273 C502.81176415 176.24364534 500.86940232 175.39142357 498.92797852 174.53686523 C442.6145688 149.77404891 384.14457866 129.87101221 324.67797852 114.18530273 C323.89569885 113.97883118 323.11341919 113.77235962 322.30743408 113.55963135 C233.56102126 90.20697488 142.60433821 77.51344913 31.67797852 73.18530273 C30.80604858 73.1743457 29.93411865 73.16338867 29.0357666 73.15209961 C-75.36753917 71.92948372 -179.67233368 82.13096223 -574.95776367 216.9074707 Z " fill="#FFFFFF" transform="translate(1331.322021484375,7.814697265625)"/>
<path d="M0 0 C70.95 0 141.9 0 215 0 C225.31654839 27.51079572 225.31654839 27.51079572 228.3671875 36.29296875 C228.72409164 37.3123201 229.08099579 38.33167145 229.44871521 39.38191223 C230.2036329 41.53818097 230.9575107 43.69481405 231.71035767 45.85180664 C233.77012431 51.75125723 235.83986653 57.6472042 237.91015625 63.54296875 C238.33433334 64.75105194 238.75851044 65.95913513 239.19554138 67.2038269 C243.51424295 79.48851069 247.90688543 91.74626942 252.3125 104 C259.25595709 123.31661722 266.14504195 142.65185641 273 162 C279.79585316 181.18021561 286.62089685 200.34943635 293.5 219.5 C300.61632384 239.31095641 307.67256551 259.14267142 314.70306396 278.98419189 C321.26503814 297.50283195 327.85811663 316.00982659 334.5 334.5 C341.61632384 354.31095641 348.67256551 374.14267142 355.70306396 393.98419189 C362.26503814 412.50283195 368.85811663 431.00982659 375.5 449.5 C382.61632384 469.31095641 389.67256551 489.14267142 396.70306396 508.98419189 C403.26503814 527.50283195 409.85811663 546.00982659 416.5 564.5 C423.61632384 584.31095641 430.67256551 604.14267142 437.70306396 623.98419189 C444.26503814 642.50283195 450.85811663 661.00982659 457.5 679.5 C464.61632384 699.31095641 471.67256551 719.14267142 478.70306396 738.98419189 C485.26503814 757.50283195 491.85811663 776.00982659 498.5 794.5 C505.61632384 814.31095641 512.67256551 834.14267142 519.70306396 853.98419189 C526.26503814 872.50283195 532.85811663 891.00982659 539.5 909.5 C546.37910389 928.65056572 553.20381802 947.81989977 560 967 C567.30609306 987.61899462 574.64942575 1008.22412022 582.04190063 1028.81234741 C590.07706288 1051.1908105 598.04931266 1073.59140099 606 1096 C610.41329066 1086.00631068 614.00141212 1075.74728772 617.61178589 1065.44390869 C619.48843558 1060.09000798 621.37749272 1054.74048477 623.265625 1049.390625 C623.65648788 1048.28248444 624.04735077 1047.17434387 624.45005798 1046.03262329 C628.56435278 1034.37937196 632.74476817 1022.75021866 636.9375 1011.125 C637.31100586 1010.08899658 637.68451172 1009.05299316 638.06933594 1007.9855957 C639.9640698 1002.7303521 641.85966169 997.47541871 643.75585938 992.22070312 C647.03847665 983.12300145 650.3145458 974.02294263 653.59036255 964.92279053 C654.69286087 961.8601078 655.79552478 958.79748472 656.89819336 955.73486328 C663.60226276 937.11276107 670.29497705 918.48658168 676.98739624 899.86029053 C683.67626435 881.24400758 690.37109125 862.62988486 697.07373047 844.01855469 C702.07333984 830.13552892 707.06877033 816.2510066 712.05705261 802.36390686 C714.26943229 796.20504133 716.48253661 790.0464459 718.70120907 783.88984394 C719.91212368 780.52965778 721.12227036 777.16919544 722.33203125 773.80859375 C722.68880668 772.8175958 722.68880668 772.8175958 723.05278969 771.80657768 C726.07993416 763.39388815 729.07437706 754.97055639 732.03182983 746.53311157 C733.68712857 741.8127604 735.35337903 737.09631084 737.02050781 732.38012695 C737.79348356 730.18264423 738.5606559 727.98311081 739.32177734 725.78149414 C740.36050514 722.77751186 741.41818926 719.78087459 742.48046875 716.78515625 C742.78047287 715.89997818 743.08047699 715.01480011 743.38957214 714.10279846 C743.81971367 712.90734657 743.81971367 712.90734657 744.25854492 711.68774414 C744.50005783 710.99475723 744.74157074 710.30177032 744.99040222 709.58778381 C746 708 746 708 747.92555237 707.21350098 C751.1183832 706.88489663 753.36072106 708.07596309 756.296875 709.30859375 C757.50214844 709.80810547 758.70742187 710.30761719 759.94921875 710.82226562 C761.21624909 711.36043406 762.48317488 711.89884868 763.75 712.4375 C765.03212087 712.97303875 766.31466888 713.50755609 767.59765625 714.04101562 C770.73612338 715.35067672 773.86982973 716.67065858 777 718 C776.93039062 719.670625 776.93039062 719.670625 776.859375 721.375 C776.25837635 742.24646257 781.52162791 758.28224107 795.73046875 773.90234375 C808.19519887 786.03688234 827.38418947 791.68501419 844.36743164 791.47094727 C859.00666994 790.87820826 874.86682459 784.9165381 885 774 C887.43358941 771.07005472 889.75225632 768.07442144 892 765 C898.75516157 766.09375501 905.06880418 768.89674273 911.42138672 771.35498047 C912.97766095 771.95314584 914.53729538 772.54263899 916.10009766 773.12353516 C918.36104774 773.96421174 920.61061777 774.83043816 922.859375 775.703125 C923.91085724 776.08624847 923.91085724 776.08624847 924.98358154 776.47711182 C926.93652344 777.25488281 926.93652344 777.25488281 930 779 C931.19580906 782.60929799 931.01595246 784.91702672 929.70263672 788.43652344 C929.38910751 789.2955275 929.07557831 790.15453156 928.75254822 791.03956604 C928.39850418 791.970103 928.04446014 792.90063995 927.6796875 793.859375 C927.31392105 794.85077988 926.9481546 795.84218475 926.57130432 796.8636322 C925.35077576 800.16351029 924.11280954 803.45656931 922.875 806.75 C922.00927151 809.08133201 921.14479224 811.41312825 920.28149414 813.74536133 C918.45920755 818.66341422 916.63034591 823.57896637 914.79638672 828.49267578 C912.07439096 835.78843023 909.3791716 843.09391731 906.69140625 850.40234375 C906.25778275 851.58134247 905.82415924 852.76034119 905.37739563 853.97506714 C904.5025034 856.35408354 903.62767117 858.733122 902.75289917 861.11218262 C900.54962399 867.10078915 898.34093675 873.08739888 896.1328125 879.07421875 C891.34957457 892.04588337 886.5782431 905.02189886 881.8125 918 C881.44647675 918.99671722 881.08045349 919.99343445 880.70333862 921.02035522 C878.86927981 926.0148113 877.03541812 931.00933971 875.20166016 936.00390625 C871.84495222 945.14618233 868.48639981 954.28778088 865.12802124 963.42944336 C863.25194191 968.53626903 861.37597661 973.64313659 859.5 978.75 C858.75000055 980.79166687 858.00000055 982.83333353 857.25 984.875 C856.87875 985.885625 856.5075 986.89625 856.125 987.9375 C852.75000001 997.12499998 852.75000001 997.12499998 851.62495422 1000.18762207 C850.87510462 1002.22888103 850.1252572 1004.27014079 849.37541199 1006.31140137 C847.49812899 1011.42181258 845.62080762 1016.53220968 843.7434082 1021.64257812 C840.39561575 1030.75553759 837.04806169 1039.86858413 833.70199585 1048.98217773 C824.86971021 1073.03836325 816.02249785 1097.0889901 807.1605835 1121.13427734 C798.82518182 1143.75170841 790.50940851 1166.37630539 782.20166016 1189.00390625 C778.84431328 1198.14792254 775.48511806 1207.29125988 772.12609863 1216.43466187 C771.00557377 1219.48482771 769.88510103 1222.53501269 768.76464844 1225.58520508 C765.32556179 1234.94738221 761.88634592 1244.30951182 758.44668579 1253.67147827 C756.86471769 1257.97725667 755.28282052 1262.28306112 753.70092773 1266.58886719 C752.96463451 1268.59294902 752.2283086 1270.59701885 751.49194336 1272.60107422 C745.32018423 1289.39787212 739.16036284 1306.19901043 733 1323 C649.51 1323 566.02 1323 480 1323 C467.45340459 1288.78201253 467.45340459 1288.78201253 461.36755371 1271.75204468 C459.34134515 1266.08247852 457.31090391 1260.41442721 455.28125 1254.74609375 C454.85406677 1253.55274918 454.42688354 1252.3594046 453.98675537 1251.12989807 C449.16037332 1237.64949776 444.31758499 1224.17500264 439.47377014 1210.70085907 C438.50360776 1208.00209447 437.53353752 1205.30329676 436.56346512 1202.60449982 C434.60142931 1197.14601047 432.63929803 1191.68755545 430.67707443 1186.22913361 C426.33332683 1174.14585812 421.99083629 1162.06213095 417.64841366 1149.97837925 C415.9779847 1145.33004896 414.30749122 1140.68174185 412.63696289 1136.03344727 C408.02967266 1123.21348487 403.42265479 1110.39342472 398.81629562 1097.57312775 C396.60678624 1091.4237198 394.39717704 1085.27434771 392.1875 1079.125 C391.94603241 1078.45301575 391.70456482 1077.78103149 391.45578003 1077.08868408 C384.61729636 1058.05799601 377.7729457 1039.02942999 370.92086792 1020.00363159 C366.45821054 1007.61216664 361.99961042 995.21925226 357.546875 982.82421875 C357.31184454 982.16997673 357.07681408 981.51573471 356.83466148 980.84166718 C355.87196349 978.16184172 354.90928035 975.48201093 353.94660473 972.80217743 C344.62218356 946.84552764 335.27982517 920.89542769 325.91894531 894.9519043 C320.27280599 879.30360071 314.63284327 863.65309447 309 848 C300.33020427 823.90881454 291.64416119 799.8234977 282.95583534 775.73899078 C279.6423568 766.55384368 276.32978916 757.36836863 273.01803398 748.18260002 C262.3762364 718.66571754 251.72242964 689.15322433 241.04443359 659.64941406 C237.88458163 650.91826911 234.72671322 642.18640665 231.56863403 633.45462036 C230.1455512 629.51999972 228.72236293 625.58541723 227.29917908 621.65083313 C224.16269239 612.97957086 221.02649642 604.30820354 217.890625 595.63671875 C213.98363136 584.83302997 210.07576999 574.02965527 206.16729736 563.22650146 C205.37214414 561.02863558 204.57701998 558.83075918 203.78192139 556.63287354 C193.4640707 528.11143303 183.13399501 499.59454409 172.7600708 471.09344482 C168.09926163 458.28830167 163.44666549 445.48028807 158.81640625 432.6640625 C149.53214364 406.96964591 140.18489806 381.30085098 130.71810913 355.67306519 C125.37304723 341.20034442 120.06457641 326.71673427 114.875 312.1875 C106.38168763 288.41033989 97.69075223 264.70558261 89 241 C88.62210327 239.96921326 88.24420654 238.93842651 87.8548584 237.87640381 C82.63794462 223.64843133 77.41017027 209.42446383 72.17785645 195.20214844 C70.98113449 191.94871178 69.78493728 188.6950826 68.58886719 185.44140625 C48.86525955 131.7915077 29.11542643 78.14892811 8.73046875 24.74609375 C8.2351062 23.44790459 8.2351062 23.44790459 7.72973633 22.12348938 C6.29379975 18.365377 4.85138367 14.61021575 3.38525391 10.86376953 C2.92425293 9.68282715 2.46325195 8.50188477 1.98828125 7.28515625 C1.59809814 6.29523682 1.20791504 5.30531738 0.8059082 4.28540039 C0 2 0 2 0 0 Z " fill="#FFFFFF" transform="translate(688,733)"/>
<path d="M0 0 C13.27346979 12.02825406 20.8310104 30.83455929 25.71582031 47.60083008 C27.27917555 52.87743199 29.31037448 57.53512101 31.89453125 62.3984375 C32.04148437 61.31046875 32.1884375 60.2225 32.33984375 59.1015625 C34.80196855 42.38392596 40.91955097 29.87794657 54.76953125 19.5234375 C67.17695494 11.31634289 82.41984035 9.48107514 96.953125 11.71484375 C101.05903121 12.59407107 104.96638044 13.93313702 108.89453125 15.3984375 C109.96574219 15.78386719 111.03695313 16.16929687 112.140625 16.56640625 C118.51762194 19.02644627 123.67697086 22.01119855 128.89453125 26.3984375 C130.10109375 27.29175781 130.10109375 27.29175781 131.33203125 28.203125 C139.14706569 34.89832219 144.15263503 44.6222718 146.89453125 54.3984375 C147.08402344 54.9965625 147.27351563 55.5946875 147.46875 56.2109375 C150.27440272 70.62530012 146.90721082 84.46037945 139.06640625 96.66796875 C138.6796875 97.23902344 138.29296875 97.81007813 137.89453125 98.3984375 C144.31439434 95.49583983 150.1097105 92.41023911 155.64453125 88.0234375 C171.41110827 75.79713626 190.94427578 68.33284522 210.89453125 69.3984375 C227.90414802 71.82544449 242.11079624 81.54281766 252.32324219 95.10986328 C262.66748336 109.59595524 269.05920637 126.54761934 269.01953125 144.4609375 C269.02210938 145.62753906 269.0246875 146.79414062 269.02734375 147.99609375 C268.90125436 151.22620716 268.43657205 154.21707496 267.89453125 157.3984375 C264.60582535 208.62635636 298.89845138 263.89695927 330.89453125 301.3984375 C333.15636193 303.96368449 335.44047291 306.50529679 337.74609375 309.03125 C339.64604966 311.12465596 341.49454846 313.25039424 343.33203125 315.3984375 C345.22233281 317.60378932 347.11621857 319.59970625 349.26953125 321.5546875 C354.62602599 326.45392049 358.2926274 331.26738091 361.51953125 337.7109375 C361.86234131 338.39285156 362.20515137 339.07476563 362.55834961 339.77734375 C364.28763115 343.43670339 365.31872887 346.33713803 364.89453125 350.3984375 C340.67043994 358.10470736 307.81662169 347.73979727 286.12646484 336.61499023 C279.47588592 332.90577202 274.18286571 327.81033118 268.89453125 322.3984375 C268.21132812 321.72683594 267.528125 321.05523438 266.82421875 320.36328125 C265.49769753 319.05835456 264.19215354 317.73210485 262.89453125 316.3984375 C263.260625 316.97207031 263.62671875 317.54570313 264.00390625 318.13671875 C265.18992101 319.99763239 266.37167896 321.86126134 267.55078125 323.7265625 C269.31415618 326.50606659 271.11551713 329.25864273 272.92578125 332.0078125 C273.99888673 333.65873146 275.07180265 335.30977363 276.14453125 336.9609375 C276.66370117 337.73928955 277.18287109 338.5176416 277.71777344 339.31958008 C281.26326112 344.81554614 285.74425527 351.8980651 284.46191406 358.68969727 C284.18105957 359.53552368 284.18105957 359.53552368 283.89453125 360.3984375 C279.28214874 362.2547791 275.60266949 360.17530351 271.23535156 358.41723633 C258.4924134 352.92506025 247.34677038 343.36979926 236.89453125 334.3984375 C236.12238281 333.73714844 235.35023438 333.07585937 234.5546875 332.39453125 C231.57264005 329.81152812 228.65966772 327.21415574 225.89453125 324.3984375 C226.22453125 325.2646875 226.55453125 326.1309375 226.89453125 327.0234375 C228.59406886 332.91112138 228.42894604 339.33911689 227.89453125 345.3984375 C227.23453125 346.0584375 226.57453125 346.7184375 225.89453125 347.3984375 C209.74704686 346.37908411 194.37606943 329.44105479 183.89453125 318.3984375 C174.61563033 307.51445487 168.67523067 295.40501119 162.89453125 282.3984375 C162.89453125 293.2884375 162.89453125 304.1784375 162.89453125 315.3984375 C161.90453125 315.7284375 160.91453125 316.0584375 159.89453125 316.3984375 C141.52209901 305.33503809 135.8152476 278.17682176 131.03271484 258.93017578 C129.17719448 251.11683786 127.42217843 243.28277406 125.89453125 235.3984375 C125.69585449 234.37435791 125.49717773 233.35027832 125.29248047 232.29516602 C123.86307987 224.11130853 123.58558417 216.05130753 123.63378906 207.77026367 C123.64446943 205.59850832 123.63384699 203.42758922 123.62109375 201.25585938 C123.61219137 191.48097252 124.51907656 182.07452868 125.89453125 172.3984375 C127.12503154 162.14829245 122.9713774 155.3231999 117.22265625 146.96875 C113.0203291 141.66581335 108.07784554 138.98622296 101.89453125 136.3984375 C101.86740972 138.3150255 101.84808028 140.2317248 101.83203125 142.1484375 C101.81462891 143.74945312 101.81462891 143.74945312 101.796875 145.3828125 C101.88025757 147.95766618 102.20221043 149.94624772 102.89453125 152.3984375 C103.37838525 158.68853944 102.30995321 164.28961945 98.40283203 169.31835938 C96.59292263 171.2727552 94.72862177 173.1531266 92.83203125 175.0234375 C61.88400004 206.92063559 51.93102023 251.78942691 47.1328125 294.85546875 C47.01583008 295.90428223 46.89884766 296.9530957 46.77832031 298.03369141 C46.57504523 299.96480471 46.39092555 301.89811381 46.23339844 303.83349609 C45.67111143 309.40900509 44.31287371 314.38030427 42.29418945 319.59301758 C42.02995115 320.28588112 41.76571285 320.97874466 41.49346733 321.69260406 C38.22802018 330.21244385 34.83142726 338.68077724 31.43359375 347.1484375 C30.71805654 348.93540371 30.00267756 350.72243329 29.28744507 352.50952148 C27.41118134 357.19639596 25.53285966 361.88244286 23.65405273 366.56829834 C21.79942379 371.19479337 19.94663586 375.82202542 18.09375 380.44921875 C15.52985201 386.85157204 12.96535945 393.25368651 10.40008163 399.65548706 C5.52650849 411.81799044 0.6585805 423.98274718 -4.20703125 436.1484375 C-4.55996624 437.03089142 -4.91290123 437.91334534 -5.27653122 438.82254028 C-7.21966362 443.68111142 -9.16263995 448.53974495 -11.10546875 453.3984375 C-9.81970947 453.376604 -8.5339502 453.35477051 -7.20922852 453.33227539 C0.72829323 453.33583758 8.63803198 453.9386357 16.5546875 454.45703125 C18.27085038 454.56702673 19.98703223 454.67672671 21.70323181 454.78614807 C26.20622624 455.07397963 30.7089724 455.365524 35.21166992 455.65795898 C40.63612605 456.00962004 46.06085081 456.35710651 51.48554897 456.70501041 C55.71717245 456.97645006 59.94875124 457.24852251 64.18019104 457.52281189 C68.01002426 457.7708398 71.84007356 458.01524532 75.67029953 458.25712967 C77.1550488 458.35145739 78.63972211 458.44698821 80.12431717 458.54371262 C89.71512527 459.16727711 99.26415095 459.56620243 108.87890625 459.6015625 C110.14003235 459.60726257 111.40115845 459.61296265 112.70050049 459.61883545 C115.34899074 459.62819349 117.99749216 459.63478226 120.64599609 459.63867188 C124.59494596 459.6483164 128.54336033 459.679406 132.4921875 459.7109375 C181.60110221 460.07971257 181.60110221 460.07971257 223.75 437.92578125 C226.12562682 435.1260899 227.07233008 432.95968752 227.89453125 429.3984375 C227.20126832 426.4174069 226.44143164 424.90862467 224.20703125 422.82421875 C221.26871143 421.01258575 218.94638017 420.69698063 215.51953125 420.2734375 C214.87741699 420.19343506 214.23530273 420.11343262 213.57373047 420.03100586 C207.73401351 419.36444955 201.89017468 419.16719237 196.01953125 418.9609375 C172.61248036 418.08106381 153.06772736 412.51005396 136.35546875 395.19921875 C133.10152982 391.49592634 130.4275102 387.6139962 127.89453125 383.3984375 C133.42224875 379.78851881 139.05384605 376.66091719 145.01953125 373.8359375 C145.84412842 373.44535156 146.66872559 373.05476563 147.51831055 372.65234375 C167.11998174 363.60045336 188.36032574 361.03053786 208.89453125 368.3984375 C229.0553248 375.87760261 247.15861364 386.99860243 256.70703125 406.9609375 C262.87053392 420.44491433 262.87626293 437.30101438 258.19921875 451.203125 C249.92560499 471.46604732 233.0142943 484.50751456 213.34399414 492.93798828 C198.78499609 498.82939227 183.45265222 502.46897281 167.89453125 504.3984375 C167.11625977 504.50140137 166.33798828 504.60436523 165.53613281 504.71044922 C129.69821978 509.23847296 92.68852342 506.44681445 56.69458008 505.11035156 C44.08675463 504.64435161 31.51216633 504.2348966 18.89453125 504.3984375 C19.54897217 504.96578613 20.20341309 505.53313477 20.87768555 506.11767578 C27.23221545 511.65765898 32.93703255 517.6229656 38.54638672 523.90185547 C39.83555549 525.33296822 41.14776127 526.74322771 42.4609375 528.15234375 C67.14237395 554.68778482 85.34392152 586.85309857 84.07373047 623.83398438 C83.36757499 633.93951187 77.83136669 641.81384776 70.70703125 648.6484375 C61.06106697 656.4978142 47.77334015 657.12772962 35.89453125 656.3984375 C30.1842775 655.64991205 24.54367977 654.5053265 18.89453125 653.3984375 C16.89581031 653.05751854 14.89628078 652.72109822 12.89453125 652.3984375 C13.45140625 653.03007813 14.00828125 653.66171875 14.58203125 654.3125 C26.57587751 668.37285355 36.66196525 685.39686527 35.83203125 704.4609375 C34.83022307 713.26091166 30.99540511 720.44828481 24.4921875 726.453125 C4.55684126 741.38215121 -20.11602704 741.60633032 -43.98046875 741.5234375 C-45.0906839 741.52210815 -45.0906839 741.52210815 -46.22332764 741.52075195 C-56.87640759 741.50578208 -67.4860587 741.31900555 -78.10546875 740.3984375 C-77.54859375 741.32140625 -76.99171875 742.244375 -76.41796875 743.1953125 C-50.30549682 787.42111466 -43.47279709 846.62653686 -44.10546875 897.3984375 C-47.35547734 895.7734332 -47.87805505 892.28765249 -49.08984375 889.03515625 C-49.38185669 888.26867767 -49.67386963 887.5021991 -49.97473145 886.7124939 C-50.60831952 885.04712842 -51.23871841 883.38054698 -51.86633301 881.71292114 C-52.86335429 879.06499478 -53.86931132 876.42062851 -54.87792969 873.77709961 C-56.27176193 870.1223447 -57.66275224 866.46653325 -59.05078125 862.80957031 C-71.55529877 829.67344132 -71.55529877 829.67344132 -86.10546875 797.3984375 C-86.54955078 796.49109863 -86.99363281 795.58375977 -87.45117188 794.64892578 C-95.95874498 777.4348615 -106.13790276 757.18166481 -121.23876953 744.75708008 C-122.18478027 743.97872803 -123.13079102 743.20037598 -124.10546875 742.3984375 C-127.06042222 749.28487239 -130.01442651 756.17171386 -132.96777344 763.05883789 C-133.97243791 765.40137946 -134.97731907 767.74382811 -135.98242188 770.08618164 C-137.42765463 773.45434514 -138.87210603 776.82284278 -140.31640625 780.19140625 C-140.76543304 781.23741501 -141.21445984 782.28342377 -141.67709351 783.36112976 C-142.09737823 784.34176895 -142.51766296 785.32240814 -142.95068359 786.33276367 C-143.50361588 787.62182869 -143.50361588 787.62182869 -144.06771851 788.93693542 C-145.11135401 791.41239711 -146.11568608 793.90101214 -147.10546875 796.3984375 C-146.23535156 796.99978516 -146.23535156 796.99978516 -145.34765625 797.61328125 C-136.52923341 804.03064837 -130.99295122 811.51031549 -129.10546875 822.3984375 C-127.78914922 835.30161911 -130.95838935 845.76101059 -138.8984375 855.984375 C-146.17578365 863.94437486 -155.57523664 867.72935504 -166.1953125 868.38671875 C-178.13031973 868.43477918 -190.1417627 864.28420917 -199.10546875 856.2109375 C-208.25815276 845.98966602 -209.82727434 834.49787233 -209.10546875 821.3984375 C-207.43510277 810.92326099 -201.54336053 802.81954843 -193.50390625 796.12890625 C-184.86190169 789.89371403 -176.40873655 789.90388065 -166.10546875 790.3984375 C-165.99662354 789.30966309 -165.88777832 788.22088867 -165.77563477 787.09912109 C-165.09495464 781.68204489 -163.7386157 776.46887917 -162.3828125 771.1875 C-162.11787491 770.13815277 -161.85293732 769.08880554 -161.57997131 768.00765991 C-160.7388041 764.67842656 -159.89131629 761.35084776 -159.04296875 758.0234375 C-158.19190459 754.674398 -157.3422206 751.32502338 -156.49525452 747.97494507 C-155.96922519 745.89537077 -155.44068145 743.8164306 -154.90940857 741.7381897 C-154.67238724 740.8031662 -154.43536591 739.8681427 -154.19116211 738.90478516 C-153.9809996 738.08064117 -153.7708371 737.25649719 -153.55430603 736.40737915 C-153.0327874 734.41620297 -153.0327874 734.41620297 -153.10546875 732.3984375 C-173.35189674 734.9941334 -191.74911344 741.62395442 -210.10546875 750.3984375 C-210.76820801 750.71393555 -211.43094727 751.02943359 -212.11376953 751.35449219 C-231.81027008 760.80372064 -250.54449475 771.91149007 -269.10546875 783.3984375 C-270.02038086 783.96385254 -270.93529297 784.52926758 -271.87792969 785.11181641 C-276.27055814 787.82704437 -280.66101667 790.54576991 -285.05078125 793.265625 C-285.88254883 793.78092773 -286.71431641 794.29623047 -287.57128906 794.82714844 C-289.2926451 795.89445551 -291.01332507 796.96285356 -292.73339844 798.03222656 C-295.25067814 799.59600548 -297.77141255 801.15406661 -300.29296875 802.7109375 C-301.05391846 803.1855542 -301.81486816 803.6601709 -302.59887695 804.14916992 C-307.87764011 807.3984375 -307.87764011 807.3984375 -310.10546875 807.3984375 C-308.48934462 803.47489915 -305.79216828 800.68445524 -302.91796875 797.6484375 C-301.91336573 796.57096172 -300.90945822 795.49283705 -299.90625 794.4140625 C-299.4210791 793.89392578 -298.9359082 793.37378906 -298.43603516 792.83789062 C-296.7888504 791.05590873 -295.19132469 789.2350979 -293.60546875 787.3984375 C-288.88255335 781.9643066 -283.99744763 776.67984177 -279.10546875 771.3984375 C-278.16525879 770.38040039 -278.16525879 770.38040039 -277.20605469 769.34179688 C-269.46530031 760.97442786 -261.73751437 752.85270833 -253.10546875 745.3984375 C-252.00138672 744.36976563 -252.00138672 744.36976563 -250.875 743.3203125 C-234.15308201 727.74680094 -215.319132 715.28063553 -194.484375 705.95703125 C-191.07581464 704.4907462 -191.07581464 704.4907462 -188.10546875 702.3984375 C-189.1934375 701.70878906 -190.28140625 701.01914063 -191.40234375 700.30859375 C-208.08353257 689.66905039 -223.58834257 677.87694002 -238.10546875 664.3984375 C-238.86730469 663.71394531 -239.62914062 663.02945313 -240.4140625 662.32421875 C-250.95733672 652.43875713 -259.96109881 639.0968462 -260.52124023 624.33789062 C-260.64449888 612.27239243 -257.50432617 605.15560795 -249.10546875 596.3984375 C-236.87269593 585.81479275 -221.33783557 581.6566542 -206.10546875 577.3984375 C-207.66394531 576.76228516 -207.66394531 576.76228516 -209.25390625 576.11328125 C-217.54301828 572.65865493 -225.08661023 569.10869528 -232.10546875 563.3984375 C-232.96914062 562.6971875 -233.8328125 561.9959375 -234.72265625 561.2734375 C-243.14263604 554.07772776 -249.44503321 546.65388181 -250.35546875 535.2734375 C-250.83883203 521.49758388 -246.87579251 511.89269895 -238.10546875 501.3984375 C-237.33976562 500.47998047 -237.33976562 500.47998047 -236.55859375 499.54296875 C-207.68581028 468.21451039 -160.158357 461.06873626 -120.10546875 456.3984375 C-120.59200928 456.0674707 -121.0785498 455.73650391 -121.57983398 455.39550781 C-199.09378038 402.62391868 -199.09378038 402.62391868 -228.64453125 375.63671875 C-230.26969124 374.15859704 -231.91020781 372.69716489 -233.56640625 371.25390625 C-256.06534007 351.55846734 -275.94933999 324.67880419 -280.10546875 294.3984375 C-281.05195654 276.3059594 -277.95034011 261.22496865 -265.79296875 247.0234375 C-255.36040188 236.13190829 -241.72196354 228.82399586 -226.51953125 228.0625 C-202.46835811 227.61044784 -178.31743059 233.3109164 -160.4140625 250.125 C-151.01241875 259.38347151 -144.63310725 270.15156201 -138.66796875 281.8359375 C-138.15472046 282.82883789 -138.15472046 282.82883789 -137.63110352 283.84179688 C-135.71749657 287.68751855 -134.57422355 291.12682682 -134.10546875 295.3984375 C-158.49452546 300.94478136 -179.33548045 300.85496749 -201.10546875 287.3984375 C-205.80176081 284.23173689 -210.33813373 280.8500385 -214.88671875 277.4765625 C-224.98612834 269.54085562 -224.98612834 269.54085562 -237.10546875 267.3984375 C-240.20637315 269.08013397 -240.20637315 269.08013397 -242.10546875 272.3984375 C-244.42406397 284.39464753 -238.69133617 297.62118059 -232.10546875 307.3984375 C-229.25061624 310.87873473 -226.1991387 314.13161438 -223.10546875 317.3984375 C-222.23983948 318.45161978 -221.38346995 319.51259475 -220.54296875 320.5859375 C-218.04652873 323.46644522 -215.41676537 325.83368345 -212.51953125 328.296875 C-210.16397485 330.347505 -207.88716844 332.46889711 -205.61523438 334.61132812 C-198.9767935 340.85320742 -192.0506102 346.5632361 -184.81103516 352.09130859 C-183.1748353 353.34527567 -181.55061453 354.61309717 -179.9296875 355.88671875 C-166.51553937 366.36077962 -152.48296918 375.91140932 -138.27026367 385.26416016 C-132.52974503 389.05645005 -126.88677103 392.96045067 -121.28515625 396.953125 C-110.78404847 404.42003175 -100.00512857 411.46006915 -89.23046875 418.5234375 C-87.21336699 419.84869251 -85.19643894 421.17421195 -83.1796875 422.5 C-78.79547569 425.38168767 -74.4096412 428.26088535 -70.02224731 431.13772583 C-68.37920368 432.21839541 -66.74176269 433.30757488 -65.10546875 434.3984375 C-64.8772644 433.39163437 -64.64906006 432.38483124 -64.41394043 431.34751892 C-61.87401137 420.27530295 -58.95858914 409.33739828 -55.88671875 398.40234375 C-55.38282923 396.59919091 -54.87921478 394.79596118 -54.37585449 392.99266052 C-53.32234647 389.22115526 -52.26659571 385.45028827 -51.20898438 381.67993164 C-49.63384109 376.06447888 -48.06477896 370.44733765 -46.49609375 364.83007812 C-44.1669797 356.49184004 -41.82242905 348.15803543 -39.47129536 339.82598209 C-37.85648979 334.09419796 -36.26447429 328.35657855 -34.68787193 322.61417294 C-33.63483951 318.78733992 -32.56998379 314.96385391 -31.50308228 311.14086723 C-31.00443688 309.34364112 -30.5108695 307.5449966 -30.02294922 305.74482918 C-26.36364955 292.25738473 -21.54857896 281.17213292 -13.56591797 269.58496094 C-11.28727811 266.17347672 -9.37087646 262.59818309 -7.48046875 258.9609375 C-7.12960205 258.28812744 -6.77873535 257.61531738 -6.41723633 256.92211914 C-5.29950473 254.75426583 -4.19938279 252.57840567 -3.10546875 250.3984375 C-2.46013184 249.11380615 -2.46013184 249.11380615 -1.80175781 247.80322266 C12.94782148 218.21508506 24.53790024 189.03248567 21.39453125 155.3984375 C19.64768472 135.26939055 19.64768472 135.26939055 25.03515625 128.35546875 C27.56186304 125.69605677 30.25083882 123.33429448 33.16015625 121.1015625 C35.24209541 119.05713575 35.97990196 117.14232538 36.89453125 114.3984375 C29.61827983 112.23485517 23.85108433 112.17636413 16.70703125 114.4609375 C16.06701172 114.66485107 15.42699219 114.86876465 14.76757812 115.07885742 C12.76857461 115.77499358 10.83785867 116.55942772 8.89453125 117.3984375 C7.76494995 117.86914673 7.76494995 117.86914673 6.61254883 118.34936523 C-0.12255265 121.55531579 -2.74178107 125.81543856 -6.04296875 132.3359375 C-7.06332956 134.22963447 -8.08940955 136.12026062 -9.12109375 138.0078125 C-9.62189453 138.92884766 -10.12269531 139.84988281 -10.63867188 140.79882812 C-15.70175809 149.77215403 -22.13701556 157.77479361 -29.15234375 165.29296875 C-30.74607599 167.01101211 -32.22005801 168.74709085 -33.66796875 170.5859375 C-36.13746689 173.43535843 -38.70582199 175.8033549 -41.57421875 178.23828125 C-43.51584034 179.89525152 -45.42494544 181.5729668 -47.32421875 183.27734375 C-56.76863417 191.69909899 -66.66713221 199.25024624 -77.10546875 206.3984375 C-78.15250977 207.12087646 -78.15250977 207.12087646 -79.22070312 207.85791016 C-91.43946876 216.198117 -103.80381191 222.82998544 -119.10546875 221.3984375 C-118.66701179 216.4354779 -116.09629944 213.36646299 -113.04296875 209.6484375 C-112.55143311 209.03661621 -112.05989746 208.42479492 -111.5534668 207.79443359 C-107.55913421 202.85846387 -103.41309859 198.06400793 -99.10546875 193.3984375 C-101.87175841 194.32053405 -104.21198467 195.42741251 -106.796875 196.76171875 C-118.70008274 202.77784698 -129.84681824 207.55744998 -143.10546875 209.3984375 C-143.78923584 209.49576172 -144.47300293 209.59308594 -145.17749023 209.69335938 C-151.58323992 210.50770465 -157.96677147 210.61714 -164.41796875 210.6484375 C-165.99481445 210.679375 -165.99481445 210.679375 -167.60351562 210.7109375 C-175.17052186 210.74814466 -181.85882593 209.55172565 -189.10546875 207.3984375 C-189.27050781 201.66845703 -189.27050781 201.66845703 -187.78515625 199.23828125 C-187.18960937 198.61050781 -186.5940625 197.98273438 -185.98046875 197.3359375 C-185.34753906 196.66433594 -184.71460938 195.99273438 -184.0625 195.30078125 C-181.51867757 192.82804368 -178.90202265 190.58111371 -176.10546875 188.3984375 C-176.92144531 188.470625 -177.73742188 188.5428125 -178.578125 188.6171875 C-229.38846038 192.59797547 -229.38846038 192.59797547 -242.10546875 183.3984375 C-242.95703125 181.4140625 -242.95703125 181.4140625 -243.10546875 179.3984375 C-236.58610222 170.22303276 -222.50475281 166.89887813 -212.35546875 163.5234375 C-210.5765625 162.92015625 -210.5765625 162.92015625 -208.76171875 162.3046875 C-205.87880407 161.3282164 -202.99350907 160.35961944 -200.10546875 159.3984375 C-201.23082031 159.55441406 -202.35617187 159.71039062 -203.515625 159.87109375 C-235.88165252 164.09290376 -268.07114781 152.98653513 -293.9140625 133.25390625 C-296.8521996 130.76617876 -298.96007368 128.6165301 -301.10546875 125.3984375 C-301 123.3984375 -301 123.3984375 -300.10546875 121.3984375 C-298.2421875 119.8359375 -298.2421875 119.8359375 -295.79296875 118.3984375 C-295.01308594 117.9240625 -294.23320313 117.4496875 -293.4296875 116.9609375 C-284.33593356 112.68655257 -275.27222315 110.74195057 -265.35546875 109.5234375 C-226.77086266 104.22220197 -189.34676381 89.78177921 -155.10546875 71.3984375 C-154.43386719 71.04330078 -153.76226563 70.68816406 -153.0703125 70.32226562 C-144.41257908 65.72234649 -136.47213478 60.93605751 -129.10546875 54.3984375 C-127.62433594 53.11453125 -127.62433594 53.11453125 -126.11328125 51.8046875 C-118.22410598 44.86344594 -111.33651 37.72420949 -106.36962891 28.37109375 C-96.50016213 9.85761477 -79.49417729 -1.52638465 -60.10546875 -8.6015625 C-59.17863281 -8.941875 -58.25179688 -9.2821875 -57.296875 -9.6328125 C-38.18719682 -15.48769262 -15.90415988 -12.09778395 0 0 Z M-113.73046875 504.0859375 C-114.87615326 504.21890228 -114.87615326 504.21890228 -116.04498291 504.35455322 C-168.32061561 510.36973993 -168.32061561 510.36973993 -212.10546875 537.3984375 C-208.69217282 541.87125094 -205.73225265 544.57854381 -200.73046875 547.3359375 C-199.11011719 548.24666016 -199.11011719 548.24666016 -197.45703125 549.17578125 C-196.01050839 549.9244424 -194.55925253 550.66397537 -193.10546875 551.3984375 C-192.0779248 551.92856445 -191.05038086 552.45869141 -189.99169922 553.00488281 C-180.52936216 557.74273542 -170.86818433 560.7779049 -160.67474365 563.54260254 C-156.06109907 564.79407571 -151.45917239 566.08753424 -146.85546875 567.375 C-145.48513992 567.75634094 -145.48513992 567.75634094 -144.08712769 568.14538574 C-135.67056051 570.49606969 -127.3167082 573.02864568 -118.98046875 575.6484375 C-117.76085449 576.03112793 -116.54124023 576.41381836 -115.28466797 576.80810547 C-112.55694913 577.66747966 -109.83042329 578.53034579 -107.10546875 579.3984375 C-99.19420071 554.44817304 -99.19420071 554.44817304 -91.60546875 529.3984375 C-91.29222656 528.34035889 -90.97898437 527.28228027 -90.65625 526.19213867 C-89.79561695 523.26377834 -88.94714961 520.33229649 -88.10546875 517.3984375 C-87.81414062 516.39296875 -87.5228125 515.3875 -87.22265625 514.3515625 C-86.94679688 513.37703125 -86.6709375 512.4025 -86.38671875 511.3984375 C-86.13986328 510.5321875 -85.89300781 509.6659375 -85.63867188 508.7734375 C-84.9594328 506.15364867 -84.9594328 506.15364867 -85.10546875 502.3984375 C-94.75394049 502.1179184 -104.16811119 502.95974755 -113.73046875 504.0859375 Z M-38.10546875 518.3984375 C-45.76245946 537.58163447 -53.34140536 556.78888197 -60.54296875 576.1484375 C-60.82731781 576.90967926 -61.11166687 577.67092102 -61.40463257 578.45523071 C-62.20335491 580.59633231 -62.99722196 582.73915767 -63.7890625 584.8828125 C-64.23822021 586.09678711 -64.68737793 587.31076172 -65.15014648 588.56152344 C-66.21184805 591.21543251 -66.21184805 591.21543251 -66.10546875 593.3984375 C-65.57136887 593.5936499 -65.03726898 593.7888623 -64.48698425 593.98999023 C-58.82123519 596.06185367 -53.15792083 598.14027528 -47.49584961 600.22216797 C-45.39520424 600.99363755 -43.29398578 601.76354883 -41.19213867 602.53173828 C-29.84464479 606.68028443 -18.55343511 610.87361063 -7.49833679 615.7590332 C6.50665946 621.8625283 26.73790765 628.47279868 41.89453125 624.3984375 C40.76729874 592.83592735 11.44214251 564.5225594 -9.53417969 543.76391602 C-11.37374334 541.94284663 -13.20494016 540.11366246 -15.03515625 538.28320312 C-25.73958423 527.31195762 -25.73958423 527.31195762 -38.10546875 518.3984375 Z M-232.10546875 618.3984375 C-234.37234312 621.0831689 -235.06270461 622.080761 -235.54296875 625.6484375 C-234.45639116 634.96195968 -228.48121359 640.92165074 -222.10546875 647.3984375 C-221.36425781 648.15253906 -220.62304688 648.90664062 -219.859375 649.68359375 C-212.72348669 656.50661006 -204.62481029 661.50861633 -196.10546875 666.3984375 C-195.3386377 666.83945801 -194.57180664 667.28047852 -193.78173828 667.73486328 C-182.95435119 673.87045633 -171.79430304 678.95849782 -160.23046875 683.5234375 C-158.43851074 684.23391235 -158.43851074 684.23391235 -156.61035156 684.95874023 C-151.04427173 687.10200541 -146.0588171 688.69700247 -140.10546875 689.3984375 C-139.87235741 688.59301262 -139.87235741 688.59301262 -139.63453674 687.77131653 C-137.64988862 680.91663302 -135.6601232 674.06344301 -133.66796875 667.2109375 C-133.35100037 666.12019928 -133.03403198 665.02946106 -132.7074585 663.90567017 C-128.4885608 649.40135208 -124.19954962 634.92765505 -119.59594727 620.5402832 C-119.26135498 619.48671631 -118.9267627 618.43314941 -118.58203125 617.34765625 C-118.29408691 616.45393311 -118.00614258 615.56020996 -117.70947266 614.6394043 C-116.9753481 612.30248868 -116.9753481 612.30248868 -117.10546875 609.3984375 C-125.08658487 607.27515944 -133.05482417 605.88048383 -141.23046875 604.7734375 C-142.13555176 604.65057373 -143.04063477 604.52770996 -143.97314453 604.40112305 C-170.21445983 600.96154324 -211.797876 597.06816023 -232.10546875 618.3984375 Z M-78.10546875 623.3984375 C-78.32129608 623.9818541 -78.53712341 624.56527069 -78.75949097 625.16636658 C-81.06034565 631.38393617 -83.36587922 637.59975765 -85.67382812 643.81469727 C-86.52815634 646.11700964 -87.38139223 648.41972772 -88.23339844 650.72290039 C-93.31835421 664.46610531 -98.52000785 678.14452047 -104.06466675 691.70994568 C-104.46372223 692.69197464 -104.86277771 693.6740036 -105.27392578 694.68579102 C-105.62842804 695.55043472 -105.9829303 696.41507843 -106.34817505 697.30592346 C-107.21890399 699.34098688 -107.21890399 699.34098688 -107.10546875 701.3984375 C-81.93421695 710.77283397 -55.8539825 717.52910705 -28.85546875 717.6484375 C-27.70433594 717.6690625 -26.55320312 717.6896875 -25.3671875 717.7109375 C-14.43953513 717.76021665 -2.14047577 716.34094931 6.5546875 708.99609375 C8.91552413 706.18098535 8.97845607 702.92327994 8.89453125 699.3984375 C5.78693932 679.43050635 -14.36520526 661.47912592 -29.79492188 650.11474609 C-40.08525975 642.70466149 -51.0103286 636.50824598 -62.10546875 630.3984375 C-63.47827069 629.62963096 -64.85070333 628.86016437 -66.22265625 628.08984375 C-71.83368251 624.65306847 -71.83368251 624.65306847 -78.10546875 623.3984375 Z " fill="#FFFFFF" transform="translate(1697.10546875,633.6015625)"/>
</svg>
