<?xml version="1.0" encoding="UTF-8"?>
<svg version="1.1" xmlns="http://www.w3.org/2000/svg" width="2651" height="2651">
<path d="M0 0 C3.72010233 0.00008053 7.44007958 -0.00675963 11.16015625 -0.02050781 C46.09564079 -0.14736049 80.93353089 0.97778249 115.75341797 3.93530273 C116.74305542 4.01767181 117.73269287 4.10004089 118.75231934 4.18490601 C216.30856097 12.37012476 313.59099002 30.89907216 413.50384521 63.44891357 C415.76059032 64.18765058 418.01950165 64.91933232 420.27929688 65.64868164 C477.75573333 84.20750537 533.61871406 107.42948494 587.75341797 134.18530273 C588.55569824 134.58152832 589.35797852 134.97775391 590.18457031 135.38598633 C593.40972148 136.98276315 596.62817585 138.59187174 599.83935547 140.21655273 C602.81241456 141.71938365 605.7998304 143.19063235 608.79248047 144.65405273 C620.48896282 150.39691547 631.88358977 156.53263359 643.18701172 163.01342773 C647.44421431 165.45280848 651.73487032 167.81726567 656.0534668 170.14575195 C668.80388964 177.03272746 681.13845835 184.58607106 693.47802734 192.17504883 C696.32913566 193.92490168 699.18739098 195.66188107 702.05029297 197.39233398 C725.55384146 211.66916736 748.3785401 227.20680818 770.75341797 243.18530273 C771.48947266 243.70817871 772.22552734 244.23105469 772.98388672 244.76977539 C784.65776016 253.06932896 796.07859155 261.68286652 807.43701172 270.40795898 C809.42408334 271.93260922 811.41525879 273.45152535 813.40966797 274.96655273 C821.38401471 281.0460052 829.17035043 287.34101276 836.92871094 293.69262695 C838.53565493 295.00716476 840.14620987 296.31728575 841.75732422 297.62670898 C848.25553054 302.91418691 854.66661308 308.29919501 861.04443359 313.73071289 C862.19580655 314.71069576 863.34817151 315.68951418 864.50146484 316.66723633 C871.83782365 322.88692837 879.0410089 329.21617834 886.10107422 335.74780273 C888.22832331 337.70274152 890.37614049 339.61412319 892.56591797 341.49780273 C898.4385172 346.59705556 904.06465148 351.96963624 909.73242188 357.29370117 C911.64202636 359.08104299 913.56123004 360.85733536 915.48388672 362.63061523 C925.16463578 371.59865599 934.53961931 380.8641003 943.87841797 390.18530273 C944.51338196 390.81767853 945.14834595 391.45005432 945.80255127 392.10159302 C957.93226868 404.19227091 957.93226868 404.19227091 963.37011719 410.58374023 C965.37814823 412.90860498 967.55344298 415.04322183 969.75341797 417.18530273 C973.25934839 420.65438404 976.5814106 424.188096 979.78466797 427.93530273 C981.8313349 430.27435065 983.93778942 432.54626797 986.05908203 434.81738281 C991.10725788 440.2228891 995.9093445 445.73510292 1000.54248047 451.50561523 C1002.86276747 454.31783588 1005.28412931 457.00327536 1007.75341797 459.68530273 C1011.81647073 464.10520296 1015.65314685 468.65357427 1019.42138672 473.32592773 C1021.45819568 475.82332164 1023.53671852 478.27746738 1025.63818359 480.72045898 C1030.94089157 486.89557243 1035.9373799 493.26059091 1040.84838867 499.75073242 C1044.38573167 504.41987908 1048.00158653 509.01065949 1051.69091797 513.56030273 C1058.0620005 521.45137366 1064.05943647 529.6049209 1070.02294922 537.80639648 C1071.67832452 540.08207043 1073.34033667 542.35275745 1075.00341797 544.62280273 C1083.52386192 556.29346587 1091.67879952 568.20300807 1099.75341797 580.18530273 C1100.23439941 580.89847656 1100.71538086 581.61165039 1101.2109375 582.34643555 C1123.63533813 615.64902096 1144.43760748 649.99050389 1163.75341797 685.18530273 C1164.60806641 686.73797852 1164.60806641 686.73797852 1165.47998047 688.32202148 C1183.51443732 721.19649104 1200.05288915 754.79610576 1214.90362549 789.22332764 C1216.20299075 792.22326274 1217.52420469 795.21351576 1218.84326172 798.20483398 C1255.09172197 880.90172036 1281.75553991 968.26700418 1323.75341797 1255.18530273 C1323.79578583 1256.09915741 1323.83815369 1257.01301208 1323.88180542 1257.95455933 C1324.76723539 1277.47090344 1324.95609795 1296.965996 1324.94091797 1316.49780273 C1324.94065109 1317.27155117 1324.94038422 1318.04529961 1324.94010925 1318.84249496 C1324.90040972 1410.90290727 1315.56454474 1502.47263285 1254.48590088 1745.06854248 C1253.74627078 1747.20595699 1253.01166966 1749.34504227 1252.27832031 1751.48461914 C1245.02467494 1772.62320327 1237.17213358 1793.48363663 1228.75341797 1814.18530273 C1228.49129517 1814.83094177 1228.22917236 1815.47658081 1227.95910645 1816.14178467 C1207.60070176 1866.22914601 1184.27553844 1915.47753844 1157.35791016 1962.37475586 C1155.73681425 1965.21438703 1154.13658885 1968.06481859 1152.54248047 1970.91967773 C1129.24516761 2012.60272992 1102.91012672 2052.63214667 1074.75341797 2091.18530273 C1074.18187988 2091.9684082 1073.6103418 2092.75151367 1073.02148438 2093.55834961 C1064.74631715 2104.88153292 1056.33742628 2116.09438643 1047.75341797 2127.18530273 C1047.28871094 2127.78648926 1046.82400391 2128.38767578 1046.34521484 2129.00708008 C1036.41905421 2141.82182487 1026.09304876 2154.31506591 1015.58325195 2166.65429688 C1012.77425601 2169.95713661 1010.03266989 2173.30640339 1007.31591797 2176.68530273 C1002.94007552 2182.06672478 998.26032982 2187.12528842 993.53076172 2192.19311523 C991.37264078 2194.50770535 989.26167987 2196.8542602 987.19091797 2199.24780273 C983.51390606 2203.49050878 979.72627312 2207.62934976 975.91772461 2211.75390625 C973.93416671 2213.90248331 971.95724578 2216.0568074 969.9855957 2218.21630859 C959.387117 2229.75644743 948.29010616 2240.80211491 937.20166016 2251.86743164 C934.41480306 2254.64854285 931.63252992 2257.43419029 928.85151863 2260.22114563 C926.67758677 2262.39871056 924.50125506 2264.57386451 922.32421494 2266.74832153 C921.2973821 2267.77449525 920.2712693 2268.80139006 919.24594498 2269.82907104 C913.58836541 2275.49682367 907.83677999 2280.97437967 901.75341797 2286.18530273 C900.4108233 2287.41484907 899.07492335 2288.65186739 897.75341797 2289.90405273 C897.09341797 2290.52666992 896.43341797 2291.14928711 895.75341797 2291.79077148 C895.09341797 2292.4159668 894.43341797 2293.04116211 893.75341797 2293.68530273 C888.52093083 2298.64185794 883.21199735 2303.47842858 877.75341797 2308.18530273 C877.18719727 2308.67369629 876.62097656 2309.16208984 876.03759766 2309.6652832 C874.40355438 2311.07056042 872.76666065 2312.472424 871.12841797 2313.87280273 C867.48712227 2316.98553914 863.84753079 2320.09965729 860.22998047 2323.23999023 C853.89933363 2328.72424167 847.48115827 2334.04259298 840.86499023 2339.17944336 C837.07274531 2342.12855346 833.36533157 2345.15279732 829.69091797 2348.24780273 C824.16427332 2352.8823512 818.49470333 2357.30387286 812.75146484 2361.66430664 C810.4605779 2363.40822474 808.17727811 2365.16184782 805.89404297 2366.91577148 C794.65211181 2375.5383149 783.31373489 2383.99445641 771.75341797 2392.18530273 C770.53887939 2393.04913574 770.53887939 2393.04913574 769.29980469 2393.93041992 C744.41837031 2411.58513863 718.86138336 2428.39994087 692.75341797 2444.18530273 C691.52536226 2444.93498975 690.2974865 2445.68497163 689.06982422 2446.43530273 C663.99344616 2461.68995437 638.28834517 2475.83836604 612.22998047 2489.33374023 C608.89692534 2491.06194834 605.57745717 2492.80998991 602.27685547 2494.59936523 C530.71132848 2533.28102652 451.74853173 2562.74860895 368.75341797 2586.18530273 C367.90922302 2586.42251038 367.06502808 2586.65971802 366.19525146 2586.90411377 C276.24804966 2612.1219206 183.95064269 2627.91069809 63.75341797 2635.18530273 C63.08300476 2635.2155957 62.41259155 2635.24588867 61.72186279 2635.27709961 C-37.15987142 2639.66493657 -136.80922158 2632.40983054 -573.21429443 2502.18518066 C-575.36050224 2501.12925442 -577.50788019 2500.07572995 -579.65527344 2499.0222168 C-597.30282544 2490.35435826 -614.73473236 2481.49307544 -631.74511719 2471.61743164 C-634.97285387 2469.76950041 -638.24176652 2468.00428258 -641.51586914 2466.24023438 C-654.28374431 2459.35035121 -666.63059247 2451.7843357 -678.984375 2444.18676758 C-681.79532686 2442.46216173 -684.6138874 2440.75152295 -687.43798828 2439.04858398 C-718.73506783 2420.07366235 -748.91297881 2399.04950771 -778.24658203 2377.18530273 C-779.12781738 2376.53005615 -779.12781738 2376.53005615 -780.02685547 2375.86157227 C-787.83276739 2370.05542475 -795.55936168 2364.14727901 -803.24658203 2358.18530273 C-804.06980957 2357.5477002 -804.06980957 2357.5477002 -804.90966797 2356.8972168 C-818.77236137 2346.1420974 -832.28133544 2334.94887937 -845.62988281 2323.5637207 C-847.34270175 2322.10334986 -849.05837734 2320.64637195 -850.77392578 2319.18920898 C-857.22107964 2313.70068769 -863.56868126 2308.13134981 -869.80908203 2302.40795898 C-871.88930928 2300.5110851 -873.99215101 2298.65137331 -876.12158203 2296.81030273 C-880.69110356 2292.83398481 -885.13138056 2288.71911646 -889.56835938 2284.59643555 C-891.84962665 2282.47806334 -894.13699693 2280.36678442 -896.43188477 2278.26318359 C-907.01777384 2268.51855592 -917.20494657 2258.38175911 -927.36523438 2248.19702148 C-929.78313816 2245.77336445 -932.20558552 2243.35430578 -934.6293335 2240.93649483 C-936.98336081 2238.58697518 -939.33354482 2236.23362653 -941.68408203 2233.88061523 C-942.54146973 2233.02525177 -943.39885742 2232.16988831 -944.28222656 2231.28860474 C-948.60762163 2226.94641754 -952.7819804 2222.53610941 -956.77856445 2217.88912964 C-958.52586133 2215.86116249 -960.3394042 2213.90608818 -962.18408203 2211.96655273 C-963.18568359 2210.90887695 -963.18568359 2210.90887695 -964.20751953 2209.82983398 C-964.88041016 2209.12213867 -965.55330078 2208.41444336 -966.24658203 2207.68530273 C-971.37603281 2202.29053554 -976.39022719 2196.82771622 -981.24658203 2191.18530273 C-981.97022949 2190.34491455 -981.97022949 2190.34491455 -982.70849609 2189.48754883 C-984.0987775 2187.86815921 -985.48574578 2186.24599748 -986.87158203 2184.62280273 C-990.07024882 2180.87822065 -993.27701245 2177.14210062 -996.52392578 2173.43920898 C-1002.28219384 2166.8653004 -1007.87817748 2160.22307061 -1013.22558594 2153.30981445 C-1016.27425808 2149.38029184 -1019.43744195 2145.57719314 -1022.68408203 2141.81030273 C-1027.78929168 2135.86028081 -1032.48479466 2129.64803781 -1037.14892578 2123.34936523 C-1039.74594077 2119.84327137 -1042.39198578 2116.37802875 -1045.0559082 2112.92260742 C-1052.32646576 2103.49017917 -1059.346301 2093.89124943 -1066.24658203 2084.18530273 C-1066.66252625 2083.60214294 -1067.07847046 2083.01898315 -1067.50701904 2082.41815186 C-1075.2824965 2071.50956321 -1082.83450168 2060.46856035 -1090.24658203 2049.31030273 C-1090.77115997 2048.52171875 -1091.29573792 2047.73313477 -1091.83621216 2046.9206543 C-1099.46939472 2035.44165205 -1107.03610825 2023.93587439 -1114.24658203 2012.18530273 C-1114.8754834 2011.16662109 -1115.50438477 2010.14793945 -1116.15234375 2009.09838867 C-1125.72513223 1993.5753105 -1134.93466632 1977.89983943 -1143.734375 1961.92163086 C-1145.09166448 1959.46562497 -1146.46311488 1957.01858462 -1147.84423828 1954.57592773 C-1154.97226655 1941.94659368 -1161.64162476 1929.08021171 -1168.23498535 1916.16558838 C-1169.2797721 1914.12033038 -1170.32712083 1912.07639616 -1171.37451172 1910.0324707 C-1182.40015511 1888.48487482 -1192.68360477 1866.69879443 -1202.26086426 1844.46990967 C-1203.24935822 1842.17886833 -1204.24301018 1839.89012352 -1205.23779297 1837.60180664 C-1242.08882109 1752.70483599 -1268.88882635 1663.72982025 -1223.24658203 842.18530273 C-1213.51985792 817.58851213 -1203.38791251 793.17760466 -1192.24658203 769.18530273 C-1191.93763 768.51839417 -1191.62867798 767.8514856 -1191.31036377 767.16436768 C-1179.50389878 741.68236951 -1167.33106162 716.4629757 -1153.72900391 691.88110352 C-1152.2651095 689.21899514 -1150.82269853 686.54641303 -1149.38720703 683.86889648 C-1141.42871527 669.05387878 -1132.91252908 654.5934601 -1124.24658203 640.18530273 C-1123.64555664 639.18321777 -1123.04453125 638.18113281 -1122.42529297 637.14868164 C-1109.36125685 615.39352378 -1095.7576866 594.00520382 -1081.24658203 573.18530273 C-1080.68229492 572.37254883 -1080.11800781 571.55979492 -1079.53662109 570.72241211 C-1062.82411861 546.65566286 -1045.47182446 523.13118173 -1027.24658203 500.18530273 C-1026.54275391 499.29842773 -1025.83892578 498.41155273 -1025.11376953 497.49780273 C-1017.99003006 488.5582081 -1010.74037526 479.73000288 -1003.33325195 471.02416992 C-1000.42129061 467.59546373 -997.56920205 464.12587579 -994.74658203 460.62280273 C-990.61967997 455.5492278 -986.24555646 450.74789132 -981.80126953 445.95483398 C-979.74544481 443.72611881 -977.73041246 441.47762355 -975.74658203 439.18530273 C-971.96103225 434.82290727 -968.04971055 430.57790378 -964.13720703 426.32983398 C-962.24271752 424.27279575 -960.35750675 422.20793541 -958.48095703 420.13452148 C-953.1286069 414.23242926 -947.65375981 408.51500375 -941.94970703 402.95092773 C-939.88694197 400.84046868 -937.95926748 398.72037964 -936.03955078 396.48608398 C-931.69132969 391.46963234 -927.01199877 386.80455105 -922.30908203 382.12280273 C-921.45378906 381.26364258 -920.59849609 380.40448242 -919.71728516 379.51928711 C-915.29055627 375.09931143 -910.79367559 370.84544409 -906.04907227 366.76953125 C-903.31680412 364.36811069 -900.78471207 361.78850198 -898.24658203 359.18530273 C-894.45393506 355.34597158 -890.6155772 351.65848481 -886.50439453 348.15795898 C-883.35244128 345.40408979 -880.30527132 342.54195017 -877.24658203 339.68530273 C-872.32053125 335.09426979 -867.36380912 330.56358006 -862.24658203 326.18530273 C-861.21263525 325.29738974 -860.17879071 324.40935768 -859.14501953 323.52124023 C-856.75649124 321.47060296 -854.36553808 319.42283505 -851.97314453 317.37670898 C-849.50483829 315.26499339 -847.04154894 313.14765633 -844.58251953 311.02514648 C-838.79354289 306.03313465 -832.98260632 301.09767975 -826.98095703 296.36108398 C-824.85127499 294.66646556 -822.74003001 292.95574601 -820.63720703 291.22827148 C-812.75482018 284.75801956 -804.76375642 278.49256999 -796.57470703 272.41577148 C-792.52085646 269.40371895 -788.51442417 266.33209005 -784.50878906 263.25634766 C-775.27847116 256.17543006 -765.94080351 249.30753664 -756.38330078 242.67602539 C-754.2028845 241.15481632 -752.03611635 239.61573147 -749.87158203 238.07202148 C-734.29226624 226.99868252 -718.2802351 216.58390487 -702.24658203 206.18530273 C-701.33021973 205.58975586 -700.41385742 204.99420898 -699.46972656 204.38061523 C-676.65104018 189.59654546 -653.04031291 175.9010531 -629.21386719 162.81518555 C-627.27127464 161.74815018 -625.33075582 160.67732864 -623.39257812 159.60229492 C-589.91585819 141.05058875 -555.48860063 124.16645517 -520.31988525 109.07806396 C-518.27099024 108.19581287 -516.22571647 107.30570773 -514.18164062 106.41235352 C-421.11480784 65.73981961 -322.99659223 37.25664495 -81.74658203 2.49780273 C-80.83947479 2.43686432 -79.93236755 2.3759259 -78.99777222 2.31314087 C-72.74935161 1.89910564 -66.49915909 1.53044067 -60.24658203 1.18530273 C-59.38997986 1.13584503 -58.53337769 1.08638733 -57.65081787 1.03543091 C-38.44695117 -0.04366744 -19.2274983 -0.00214299 0 0 Z M-595.82861328 228.79272461 C-599.07326195 230.6614116 -602.36172635 232.44352681 -605.65478516 234.22509766 C-632.52081311 248.76689366 -658.14158805 265.40247782 -683.55908203 282.31030273 C-684.31081696 282.80964325 -685.06255188 283.30898376 -685.83706665 283.82345581 C-700.03632593 293.26407798 -714.04283019 302.97357528 -727.74658203 313.12280273 C-728.52864014 313.70070557 -729.31069824 314.2786084 -730.11645508 314.87402344 C-752.50055529 331.46193851 -774.42825059 348.68424568 -795.609375 366.78637695 C-797.34191529 368.26676107 -799.07742864 369.74361631 -800.81298828 371.22045898 C-806.96131362 376.46160008 -813.04874204 381.75503062 -819.03173828 387.18530273 C-821.02070705 388.98133802 -823.03221398 390.74483577 -825.05908203 392.49780273 C-829.64509334 396.49680459 -834.10702299 400.62886221 -838.56420898 404.77001953 C-840.85904632 406.90095891 -843.15966337 409.02523074 -845.46704102 411.14257812 C-855.74126119 420.60814049 -865.64510029 430.4303703 -875.51074219 440.3190918 C-878.26659558 443.08035557 -881.02782231 445.83616633 -883.78955078 448.59155273 C-885.56721562 450.36987766 -887.34457062 452.14851237 -889.12158203 453.92749023 C-890.34204224 455.14491409 -890.34204224 455.14491409 -891.5871582 456.38693237 C-895.80972389 460.62674135 -899.87250889 464.94447484 -903.77661133 469.47952271 C-905.45722308 471.42973434 -907.19469586 473.31664548 -908.96533203 475.18530273 C-909.58794922 475.84530273 -910.21056641 476.50530273 -910.85205078 477.18530273 C-912.11507161 478.51863607 -913.37809245 479.8519694 -914.64111328 481.18530273 C-918.95550385 485.75873539 -923.14083415 490.42385171 -927.24658203 495.18530273 C-927.73497559 495.75152344 -928.22336914 496.31774414 -928.7265625 496.90112305 C-930.13183972 498.53516632 -931.5337033 500.17206005 -932.93408203 501.81030273 C-936.04681844 505.45159843 -939.16093658 509.09118992 -942.30126953 512.70874023 C-947.78552097 519.03938708 -953.10387227 525.45756244 -958.24072266 532.07373047 C-961.18983275 535.8659754 -964.21407662 539.57338913 -967.30908203 543.24780273 C-972.48126005 549.41712479 -977.39526382 555.76349483 -982.24658203 562.18530273 C-982.80506836 562.92312988 -983.36355469 563.66095703 -983.93896484 564.42114258 C-997.50598118 582.36332099 -1010.6668036 600.53659138 -1023.24658203 619.18530273 C-1023.80990234 620.01932617 -1024.37322266 620.85334961 -1024.95361328 621.71264648 C-1045.40766098 652.04743054 -1064.67100719 683.09483462 -1082.24658203 715.18530273 C-1082.78734375 716.16917969 -1083.32810547 717.15305664 -1083.88525391 718.16674805 C-1128.88213738 800.1388617 -1165.12016388 886.5859812 -1192.60455322 983.87896729 C-1193.2221915 986.09768555 -1193.84413506 988.3151579 -1194.46679688 990.5324707 C-1219.19308195 1078.90298301 -1232.67650206 1170.77785239 -1237.44970703 1292.06811523 C-1237.4567334 1294.00257386 -1237.46382018 1295.93703227 -1237.47096252 1297.87149048 C-1237.49034716 1304.01776468 -1237.49539696 1310.16400104 -1237.49658203 1316.31030273 C-1237.49702389 1317.35904068 -1237.49746574 1318.40777863 -1237.49792099 1319.48829651 C-1237.50513427 1352.15672459 -1237.09088168 1384.62084822 -1234.24658203 1417.18530273 C-1234.07313841 1419.23574969 -1233.89980095 1421.28620562 -1233.7265625 1423.33666992 C-1225.66914987 1517.26169921 -1207.09623776 1609.80765722 -1088.76123047 1909.42504883 C-1087.2853968 1912.11456776 -1085.82900981 1914.81360748 -1084.37939453 1917.51733398 C-1076.42356392 1932.32575055 -1067.92702923 1946.79349241 -1059.24658203 1961.18530273 C-1058.59141602 1962.27391602 -1057.93625 1963.3625293 -1057.26123047 1964.48413086 C-1047.06514717 1981.38107808 -1036.32348003 1997.85857335 -1025.24658203 2014.18530273 C-1024.69599121 2014.99741211 -1024.14540039 2015.80952148 -1023.578125 2016.64624023 C-1020.49734442 2021.18018114 -1017.38441793 2025.69069259 -1014.24658203 2030.18530273 C-1013.78654785 2030.84578613 -1013.32651367 2031.50626953 -1012.85253906 2032.18676758 C-1000.9932825 2049.18863995 -988.67584912 2065.82027406 -975.86767578 2082.11889648 C-974.34212244 2084.06351749 -972.82421435 2086.01380727 -971.30908203 2087.96655273 C-965.98075485 2094.81872729 -960.49663876 2101.50679932 -954.85986328 2108.10717773 C-952.46775934 2110.91237593 -950.13202352 2113.75993431 -947.80908203 2116.62280273 C-939.97055279 2126.23899842 -931.85764498 2135.60079837 -923.47314453 2144.74389648 C-921.55524996 2146.84685106 -919.67282158 2148.9719943 -917.80908203 2151.12280273 C-913.06203578 2156.5747468 -908.15214549 2161.87658583 -903.24658203 2167.18530273 C-902.73122391 2167.74422714 -902.21586578 2168.30315155 -901.68489075 2168.87901306 C-891.53043551 2179.87273273 -881.05909734 2190.5286756 -870.46459961 2201.09765625 C-867.78462922 2203.77220609 -865.11012719 2206.4521425 -862.43603516 2209.13256836 C-860.70784051 2210.86010306 -858.97933614 2212.58732799 -857.25048828 2214.31420898 C-856.46388321 2215.10283829 -855.67727814 2215.89146759 -854.86683655 2216.70399475 C-850.69179401 2220.86153234 -846.43233561 2224.85201126 -841.96803284 2228.69743347 C-839.96725679 2230.42672668 -838.04076447 2232.22105885 -836.13330078 2234.05249023 C-835.44840576 2234.70580322 -834.76351074 2235.35911621 -834.05786133 2236.03222656 C-833.35701416 2236.7014917 -832.65616699 2237.37075684 -831.93408203 2238.06030273 C-826.40422992 2243.30703409 -820.82145688 2248.30737642 -814.85205078 2253.04858398 C-811.87957644 2255.48628033 -809.0588832 2258.0672163 -806.24658203 2260.68530273 C-801.66741528 2264.94074193 -796.95370747 2268.95854128 -792.08251953 2272.88061523 C-789.54419089 2274.94344429 -787.04799215 2277.04401671 -784.56201172 2279.16894531 C-777.9063216 2284.85742431 -771.0969902 2290.31465041 -764.18017578 2295.68139648 C-762.12428228 2297.28042476 -760.07569365 2298.88850313 -758.02783203 2300.49780273 C-748.01163732 2308.35320784 -737.85680926 2315.99645986 -727.56835938 2323.49145508 C-725.33785552 2325.11871436 -723.1140334 2326.75473749 -720.89111328 2328.39233398 C-709.52580288 2336.72620987 -697.84091019 2344.54491961 -686.08105469 2352.30883789 C-683.50848749 2354.01191726 -680.94368713 2355.72570408 -678.38330078 2357.44702148 C-645.49170697 2379.55617739 -611.24306293 2399.60357076 -576.24658203 2418.18530273 C-575.32377441 2418.67562988 -574.4009668 2419.16595703 -573.45019531 2419.67114258 C-566.74103237 2423.22556388 -560.00331992 2426.7222393 -553.24658203 2430.18530273 C-552.11510742 2430.76538086 -550.98363281 2431.34545898 -549.81787109 2431.94311523 C-508.53725052 2453.05298573 -465.81986558 2471.34418532 -422.24658203 2487.18530273 C-421.60003662 2487.42037537 -420.95349121 2487.655448 -420.28735352 2487.89764404 C-339.03944572 2517.39131107 -255.27900988 2538.67240532 -17.24658203 2563.18530273 C-16.42424072 2563.19625977 -15.60189941 2563.2072168 -14.75463867 2563.21850586 C86.910513 2564.4901384 187.89004614 2554.12089974 554.77838135 2436.15655518 C556.83999881 2435.14272537 558.9028669 2434.13146966 560.96582031 2433.12036133 C577.91213598 2424.80513358 594.62636329 2416.26446444 610.9609375 2406.78881836 C614.9727211 2404.48514685 619.02268599 2402.2521102 623.0703125 2400.01220703 C674.43350109 2371.54144741 723.54119753 2338.06893392 769.70458984 2301.79321289 C771.59707273 2300.3080017 773.4944051 2298.82931315 775.39404297 2297.35327148 C787.81810939 2287.68093822 799.95949828 2277.66269269 811.87109375 2267.36645508 C815.23640653 2264.46264875 818.65285114 2261.64498103 822.12841797 2258.87280273 C827.64320227 2254.40378494 832.78164506 2249.56648141 837.92089844 2244.67626953 C838.56043457 2244.06823486 839.1999707 2243.4602002 839.85888672 2242.83374023 C840.41729248 2242.2992627 840.97569824 2241.76478516 841.55102539 2241.21411133 C843.52683395 2239.39402828 845.53383114 2237.62387251 847.55957031 2235.85986328 C861.87536625 2223.36848311 875.24361839 2209.8548509 888.65649414 2196.41259766 C891.30865672 2193.75467934 893.96536835 2191.10136 896.62337589 2188.44928837 C898.70400375 2186.37229427 900.78221961 2184.29289981 902.8597393 2182.21279716 C903.8384649 2181.23341316 904.81790962 2180.25474716 905.79814339 2179.27687263 C910.78442245 2174.2999912 915.67079721 2169.29405447 920.24607849 2163.93418884 C922.98197965 2160.75986772 925.87974914 2157.7344476 928.75341797 2154.68530273 C933.51994522 2149.59930482 938.2284863 2144.48871727 942.75341797 2139.18530273 C943.63988224 2138.15253217 944.52662832 2137.12000345 945.41357422 2136.08764648 C947.46560056 2133.6978894 949.51471813 2131.30567774 951.56201172 2128.91186523 C953.67372731 2126.44355899 955.79106437 2123.98026964 957.91357422 2121.52124023 C963.66807709 2114.848331 969.31301011 2108.11895114 974.75341797 2101.18530273 C975.96191406 2099.65389648 975.96191406 2099.65389648 977.19482422 2098.09155273 C979.53664179 2095.12174961 981.87024889 2092.1455955 984.20117188 2089.16723633 C985.26220069 2087.81249712 986.32443109 2086.45869835 987.38769531 2085.10571289 C996.40479954 2073.62916157 1005.17122347 2061.99029214 1013.75341797 2050.18530273 C1014.20285767 2049.57163849 1014.65229736 2048.95797424 1015.11535645 2048.32571411 C1023.09713474 2037.4258228 1030.77740396 2026.36115307 1038.23828125 2015.09863281 C1039.88163949 2012.61793976 1041.52996053 2010.14060491 1043.17919922 2007.66381836 C1053.0764284 1992.78309473 1062.87338864 1977.85102662 1072.12841797 1962.56030273 C1072.48648529 1961.9695697 1072.84455261 1961.37883667 1073.21347046 1960.77020264 C1080.31146177 1949.04848747 1087.12696757 1937.18028663 1093.75341797 1925.18530273 C1094.50848633 1923.82163574 1094.50848633 1923.82163574 1095.27880859 1922.43041992 C1102.99618792 1908.46681767 1110.48190981 1894.38608073 1117.75341797 1880.18530273 C1118.20521423 1879.30328186 1118.20521423 1879.30328186 1118.6661377 1878.40344238 C1154.05602991 1809.24202866 1182.82279714 1736.11661616 1251.75341797 1302.18530273 C1251.7448175 1301.51122375 1251.73621704 1300.83714478 1251.72735596 1300.14263916 C1250.73616042 1227.63055801 1243.07659523 1155.43907719 1229.75341797 1084.18530273 C1229.60277893 1083.37176331 1229.45213989 1082.55822388 1229.29693604 1081.72003174 C1212.88928957 993.16522269 1185.31565741 906.83746927 1123.66741943 768.0458374 C1122.73775228 766.15341377 1121.81101434 764.25957737 1120.88476562 762.36547852 C1113.14526476 746.55503751 1105.04476172 731.04914273 1096.24267578 715.79663086 C1094.34723326 712.47308115 1092.52144188 709.11447934 1090.69995117 705.75 C1086.09884052 697.25583803 1081.28202867 688.90894662 1076.31591797 680.62280273 C1075.74373535 679.66712402 1075.17155273 678.71144531 1074.58203125 677.72680664 C1064.98723269 661.82586727 1054.90885623 646.24154465 1044.59936523 630.79638672 C1042.81637933 628.12349437 1041.03962364 625.44653304 1039.26318359 622.76928711 C1032.15855282 612.09316437 1024.83733171 601.60919135 1017.2641449 591.2605896 C1015.10006515 588.28779141 1012.96378419 585.2953941 1010.82859802 582.30180359 C1004.24885466 573.09560535 997.37875109 564.13867237 990.37744141 555.25024414 C988.88445344 553.35191398 987.3992167 551.44788905 985.91748047 549.54077148 C975.39124687 536.01606342 964.42339907 522.85957778 953.22119141 509.89135742 C951.72694042 508.15452677 950.24281998 506.40950465 948.76123047 504.66186523 C943.31409504 498.24603592 937.77863389 491.94193631 932.02490234 485.79833984 C929.45506646 483.05135202 926.94133628 480.26785485 924.47558594 477.42675781 C911.95889013 463.10230242 898.43950198 449.71160202 884.98071289 436.28222656 C882.32279457 433.63006398 879.66947524 430.97335235 877.0174036 428.31534481 C874.9404095 426.23471695 872.86101504 424.15650109 870.7809124 422.0789814 C869.80152839 421.10025581 868.8228624 420.12081108 867.84498787 419.14057732 C862.83666244 414.12279489 857.78814009 409.22427746 852.40760803 404.60591125 C850.50358607 402.9707486 848.67185691 401.27214792 846.85888672 399.53686523 C846.21918945 398.92875 845.57949219 398.32063477 844.92041016 397.6940918 C844.26717773 397.07244141 843.61394531 396.45079102 842.94091797 395.81030273 C837.5862137 390.74825947 832.15834937 385.94791277 826.39404297 381.35717773 C823.41245818 378.90486835 820.57788212 376.31436938 817.75341797 373.68530273 C812.2806875 368.600653 806.57830816 363.86376013 800.75341797 359.18530273 C799.00226879 357.74920288 797.25228614 356.3116795 795.50341797 354.87280273 C766.27069025 330.97025899 736.0553495 308.3090935 704.75341797 287.18530273 C704.08713379 286.73558105 703.42084961 286.28585937 702.734375 285.82250977 C664.35484917 259.97187786 624.55847637 236.54181879 583.73339844 214.77514648 C581.05106623 213.3441005 578.37257449 211.90614566 575.69482422 210.46655273 C563.56674396 203.97658898 551.21688577 198.00170528 538.75341797 192.18530273 C538.13017639 191.89377319 537.50693481 191.60224365 536.86480713 191.30187988 C457.53366934 154.20555667 374.5751553 124.93514707 -595.82861328 228.79272461 Z " fill="#000000" transform="translate(1318.24658203125,1.814697265625)"/>
<path d="M0 0 C70.95 0 141.9 0 215 0 C220.62458845 13.49901228 220.62458845 13.49901228 222.44091797 18.66259766 C222.85319138 19.82912369 223.26546478 20.99564972 223.69023132 22.19752502 C224.11987686 23.42398239 224.5495224 24.65043976 224.9921875 25.9140625 C225.45909997 27.23875406 225.92633761 28.56333104 226.39387512 29.88780212 C227.38039259 32.68431477 228.36490792 35.48152016 229.3477478 38.27932739 C230.8972733 42.69000744 232.45165653 47.09896531 234.00708008 51.50756836 C234.53010615 52.99009685 235.05313166 54.47262554 235.57615662 55.95515442 C235.83398863 56.6859553 236.09182064 57.41675617 236.35746574 58.16970253 C237.13508234 60.37426699 237.91227313 62.57898113 238.68934631 64.78373718 C242.66174434 76.05300318 246.66134035 87.31232063 250.6875 98.5625 C251.27108276 100.19400853 251.8546602 101.82551896 252.43823242 103.45703125 C253.33116936 105.95302214 254.22425072 108.4489611 255.11763 110.9447937 C259.31426887 122.66914094 263.49991333 134.39741738 267.6875 146.125 C269.4022678 150.92711046 271.11711359 155.72919306 272.83203125 160.53125 C273.26058914 161.73129166 273.68914703 162.93133331 274.13069153 164.16773987 C276.65965271 171.24874195 279.18989121 178.32928595 281.72131348 185.40940857 C291.10273577 211.6484092 300.45358853 237.89792712 309.76256561 264.16269684 C316.68625035 283.69698249 323.65077337 303.21618381 330.65701294 322.72103882 C337.38649084 341.45870059 344.05360343 360.21803923 350.70306396 378.98419189 C357.26503814 397.50283195 363.85811663 416.00982659 370.5 434.5 C377.61632384 454.31095641 384.67256551 474.14267142 391.70306396 493.98419189 C398.26503814 512.50283195 404.85811663 531.00982659 411.5 549.5 C418.61632384 569.31095641 425.67256551 589.14267142 432.70306396 608.98419189 C439.26503814 627.50283195 445.85811663 646.00982659 452.5 664.5 C459.61632384 684.31095641 466.67256551 704.14267142 473.70306396 723.98419189 C480.26503814 742.50283195 486.85811663 761.00982659 493.5 779.5 C500.61632384 799.31095641 507.67256551 819.14267142 514.70306396 838.98419189 C521.26503814 857.50283195 527.85811663 876.00982659 534.5 894.5 C541.37910404 913.65056613 548.20374968 932.81992378 555 952 C562.57059573 973.36493165 570.18232886 994.71454911 577.84716797 1016.04589844 C581.9434009 1027.44994586 586.02136498 1038.86022551 590.07207298 1050.28051186 C590.810756 1052.36297728 591.54977599 1054.44532283 592.28889465 1056.52763367 C594.43925569 1062.58639585 596.58860163 1068.64550158 598.7314558 1074.70692348 C599.81102356 1077.75849762 600.89412543 1080.8088177 601.9765625 1083.859375 C602.56728294 1085.53484154 602.56728294 1085.53484154 603.16993713 1087.24415588 C603.70964394 1088.76250282 603.70964394 1088.76250282 604.26025391 1090.31152344 C604.57378815 1091.19757263 604.88732239 1092.08362183 605.21035767 1092.996521 C605.8326382 1094.96549499 605.8326382 1094.96549499 607 1096 C607.41024414 1094.8339624 607.82048828 1093.6679248 608.24316406 1092.46655273 C616.62365428 1068.66203082 625.09708202 1044.89444001 633.75 1021.1875 C640.79448727 1001.88434968 647.74927341 982.5514109 654.625 963.1875 C661.11029421 944.92456346 667.6159114 926.66958432 674.1875 908.4375 C674.55527557 907.41709625 674.92305115 906.3966925 675.30197144 905.34536743 C677.1407218 900.24447922 678.9802933 895.14388766 680.8203125 890.04345703 C684.07952471 881.00832196 687.33301533 871.97112684 690.58633423 862.93386841 C691.32048001 860.89452482 692.05467191 858.85519784 692.78890991 856.81588745 C698.62576929 840.60420746 704.4550414 824.38980666 710.2814188 808.17435741 C711.99803642 803.39684515 713.71488758 798.61941688 715.43188477 793.84204102 C715.91726186 792.49151106 716.40263885 791.14098107 716.88801575 789.79045105 C717.61105398 787.77864668 718.33409562 785.76684354 719.05714989 783.75504494 C722.04151388 775.45138527 725.02451901 767.14723989 728.00604248 758.84255981 C729.65833585 754.2411574 731.31180513 749.64017816 732.96557617 745.03930664 C733.72635233 742.9219812 734.48662327 740.80447414 735.24633789 738.68676758 C739.05193584 728.07927413 742.87467267 717.48839199 747 707 C751.26941071 707.57866851 754.87456091 708.60263608 758.8359375 710.28515625 C759.89941406 710.73310547 760.96289062 711.18105469 762.05859375 711.64257812 C763.15300781 712.11115234 764.24742187 712.57972656 765.375 713.0625 C766.49261719 713.53494141 767.61023437 714.00738281 768.76171875 714.49414062 C771.51031485 715.6570082 774.25623832 716.82578186 777 718 C776.9791333 718.94085449 776.9582666 719.88170898 776.93676758 720.85107422 C776.60851138 738.58209864 779.77588317 753.89851424 791 768 C791.77214844 768.99 792.54429687 769.98 793.33984375 771 C800.30647276 779.28190545 810.92581788 784.58842438 821 788 C821.91910156 788.31839844 822.83820312 788.63679688 823.78515625 788.96484375 C840.06208821 793.82329524 857.23735553 791.62149824 872.11328125 783.7265625 C880.36748112 778.78967976 886.5031213 772.86308476 892 765 C897.09776321 765.61717106 901.33950998 767.18160009 906.0234375 769.16015625 C906.76961334 769.46948593 907.51578918 769.77881561 908.28457642 770.09751892 C910.65056311 771.07993345 913.01278239 772.07106181 915.375 773.0625 C916.98543563 773.73300211 918.5961104 774.40293014 920.20703125 775.07226562 C924.14081959 776.70821278 928.07125461 778.35198102 932 780 C930.0759531 786.63293023 927.94883228 793.1518629 925.5859375 799.640625 C925.25937668 800.54382477 924.93281586 801.44702454 924.59635925 802.37759399 C923.52552886 805.33614355 922.45045027 808.29312696 921.375 811.25 C920.61313893 813.35040108 919.85133993 815.45082466 919.08959961 817.55126953 C912.21903506 836.47525314 905.23687922 855.35758499 898.24235535 874.23600769 C894.16210157 885.2540431 890.11143521 896.28292509 886.0625 907.3125 C885.50310226 908.83614166 885.50310226 908.83614166 884.93240356 910.39056396 C883.04337327 915.53583143 881.15464902 920.68121115 879.26611328 925.82666016 C875.88729702 935.03197491 872.50553484 944.23620748 869.12399292 953.44052124 C867.24920777 958.54363643 865.37461355 963.64682177 863.5 968.75 C862.75000091 970.791667 862.00000091 972.83333367 861.25 974.875 C860.87875 975.885625 860.5075 976.89625 860.125 977.9375 C838.75000008 1036.12499979 838.75000008 1036.12499979 837.62495422 1039.18762207 C836.87510462 1041.22888103 836.1252572 1043.27014079 835.37541199 1045.31140137 C833.49812899 1050.42181258 831.62080762 1055.53220968 829.7434082 1060.64257812 C826.39561575 1069.75553759 823.04806169 1078.86858413 819.70199585 1087.98217773 C810.86971021 1112.03836325 802.02249785 1136.0889901 793.1605835 1160.13427734 C784.46231061 1183.73632976 775.78587334 1207.34635932 767.11651611 1230.95904541 C761.45824461 1246.36997096 755.79821404 1261.78024984 750.13525391 1277.18945312 C748.71266405 1281.06040397 747.29049351 1284.93150847 745.86865234 1288.80273438 C744.20174282 1293.34095054 742.53365266 1297.87873099 740.86462402 1302.41616821 C740.25183288 1304.08266564 739.63943971 1305.74930947 739.02746582 1307.41610718 C738.19517369 1309.68275233 737.36145208 1311.94886643 736.52734375 1314.21484375 C736.16155464 1315.21254791 736.16155464 1315.21254791 735.78837585 1316.23040771 C734.93763107 1318.53804262 734.10087893 1320.79824215 733 1323 C649.51 1323 566.02 1323 480 1323 C473.4 1304.52 466.8 1286.04 460 1267 C452.98650616 1247.4145497 452.98650616 1247.4145497 445.96484375 1227.83203125 C445.57231918 1226.73816605 445.17979462 1225.64430084 444.77537537 1224.51728821 C437.32928672 1203.76962446 429.87217383 1183.02591894 422.41511536 1162.28219604 C417.82535206 1149.51456712 413.23677571 1136.7465118 408.64841366 1123.97837925 C406.9779847 1119.33004896 405.30749122 1114.68174185 403.63696289 1110.03344727 C399.02970143 1097.21356492 394.42271217 1084.39358488 389.81638145 1071.57336807 C378.61089007 1040.38672257 367.39765853 1009.20288379 356.16943359 978.02441406 C352.82254814 968.730599 349.47690716 959.43633591 346.13113403 950.14212036 C345.00079309 947.00220309 343.87040035 943.86230448 342.73999023 940.72241211 C339.40208912 931.45081566 336.06435252 922.17916019 332.7276001 912.90715027 C321.90720435 882.8399809 311.07094121 852.77855037 300.2276001 822.71965027 C296.52197189 812.44724279 292.81686866 802.17464605 289.11209106 791.90193176 C288.65496837 790.63440955 288.19784557 789.36688737 287.74072266 788.09936523 C287.5146036 787.47237512 287.28848454 786.845385 287.05551338 786.19939518 C285.45560562 781.76316945 283.85551937 777.32700812 282.25537109 772.89086914 C281.33950307 770.35173073 280.42365103 767.81258655 279.5078125 765.2734375 C279.2811578 764.64504156 279.0545031 764.01664562 278.82098007 763.36920738 C275.5876295 754.40455814 272.35643199 745.4391351 269.12650108 736.47325325 C267.0431398 730.69033192 264.95920511 724.90761725 262.875 719.125 C262.53189852 718.1730393 262.53189852 718.1730393 262.18186569 717.20184708 C255.10458287 697.56653939 247.98584223 677.94656669 240.84136963 658.33560181 C233.92520157 639.34658266 227.07638907 620.33391825 220.25 601.3125 C213.20208636 581.6743079 206.13000521 562.04550569 198.98632812 542.44189453 C198.34763413 540.68913566 197.70896247 538.93636866 197.0703125 537.18359375 C196.75020203 536.30507751 196.43009155 535.42656128 196.10028076 534.52142334 C191.63133747 522.25028635 187.19316602 509.96798724 182.75 497.6875 C175.4400528 477.48553045 168.11116833 457.2905564 160.7633667 437.10232544 C156.06759801 424.20001191 151.37949878 411.29499892 146.7109375 398.3828125 C146.27077805 397.16545914 145.83061859 395.94810577 145.37712097 394.69386292 C144.48748513 392.23329768 143.59785195 389.77273147 142.70822144 387.31216431 C135.47107061 367.29706142 128.19192711 347.29842289 120.83782959 327.32598877 C114.85072652 311.06550449 108.91388885 294.78724781 103 278.5 C94.12556203 254.0643115 85.18357736 229.6540556 76.1998291 205.25836182 C74.94904609 201.86162505 73.69861256 198.46475978 72.44824219 195.06787109 C67.55649249 181.77910811 62.66153946 168.49153018 57.76248169 155.20545959 C55.77477759 149.81479424 53.78753562 144.42396149 51.80273438 139.03222656 C42.86134171 114.74291281 33.83559296 90.4857014 24.75 66.25 C24.49082668 65.55865715 24.23165337 64.8673143 23.96462631 64.15502167 C17.17683213 46.05156254 10.36679554 27.95694662 3.40136719 9.92089844 C2.93891602 8.72110352 2.47646484 7.52130859 2 6.28515625 C1.4121875 4.76740601 1.4121875 4.76740601 0.8125 3.21899414 C0 1 0 1 0 0 Z " fill="#000000" transform="translate(675,727)"/>
<path d="M0 0 C2.87370013 2.544375 5.1002646 5.33418913 7.30078125 8.453125 C7.7302002 9.05938721 8.15961914 9.66564941 8.60205078 10.2902832 C17.65654861 23.43990629 23.09190807 37.99433628 27.4609375 53.2578125 C28.48811995 56.20266257 29.79051891 58.59636243 31.48828125 61.203125 C31.70742187 60.03136719 31.9265625 58.85960937 32.15234375 57.65234375 C34.99809794 43.22524634 39.63827924 30.10006836 52.08496094 21.04101562 C66.30128569 11.59597883 81.68810509 8.82867858 98.484375 11.82421875 C115.29106649 15.82581196 130.47498747 24.07227875 140.42578125 38.515625 C147.80243111 51.22970661 149.24312221 64.87642429 147.015625 79.25390625 C145.29537689 85.71256234 141.85413699 91.47354533 138.48828125 97.203125 C145.72665903 95.76864011 151.86952149 90.72041188 157.61328125 86.328125 C172.75886539 75.1872804 192.36671354 66.45699142 211.48828125 69.203125 C229.13043312 72.70361717 243.36901252 82.30315122 253.546875 97.1484375 C264.90574593 115.02094669 271.81204702 134.67437107 267.96484375 156.12109375 C260.90742145 201.76294782 295.42627579 253.95525148 320.78125 288.60546875 C324.51838565 293.61336234 328.40364887 298.47394513 332.48828125 303.203125 C333.18050781 304.00621094 333.87273438 304.80929687 334.5859375 305.63671875 C337.84071126 309.32861276 341.15964131 312.91210443 344.69921875 316.33203125 C353.75106054 325.08201486 362.4251489 334.56770405 365.48828125 347.203125 C365.08203125 349.48828125 365.08203125 349.48828125 364.48828125 351.203125 C336.88010877 355.54205198 302.74075691 348.24407104 279.75 332.3046875 C273.85152701 327.77566271 268.62707203 322.56534147 263.48828125 317.203125 C263.87757813 317.8115625 264.266875 318.42 264.66796875 319.046875 C265.87575841 320.93926433 267.07978272 322.83405908 268.28125 324.73046875 C269.85305054 327.21115808 271.44294109 329.67943036 273.0390625 332.14453125 C285.41525305 351.3968929 285.41525305 351.3968929 284.48828125 360.203125 C277.89466877 362.08357024 272.34135908 359.24642608 266.48828125 356.203125 C251.86042664 347.49844604 238.41478465 336.29300516 226.48828125 324.203125 C226.72224609 325.34587891 226.72224609 325.34587891 226.9609375 326.51171875 C229.6641652 340.85135709 229.6641652 340.85135709 226.48828125 347.203125 C213.17317146 345.9390323 203.18545295 336.83510355 194.07617188 327.77636719 C192.48761974 326.20246959 190.8742973 324.65822446 189.25390625 323.1171875 C179.64272431 313.83762802 173.14757059 304.24321517 167.55078125 292.078125 C165.88015625 288.489375 164.20953125 284.900625 162.48828125 281.203125 C162.48828125 292.423125 162.48828125 303.643125 162.48828125 315.203125 C161.49828125 315.533125 160.50828125 315.863125 159.48828125 316.203125 C142.03698814 306.18120723 136.92562894 280.71648671 131.9855957 262.99145508 C126.99159252 244.34613283 123.29794395 225.47279425 123.23828125 206.140625 C123.2343335 205.0168042 123.23038574 203.8929834 123.22631836 202.73510742 C123.28745097 193.71836259 124.14090578 184.94097076 125.50878906 176.03295898 C127.08469873 165.51074545 124.96685982 159.19162034 119.48828125 150.203125 C119.05644531 149.45289063 118.62460938 148.70265625 118.1796875 147.9296875 C114.09863567 141.60829565 108.2617475 139.09664456 101.48828125 136.203125 C101.28897371 142.48719134 101.28897371 142.48719134 101.98828125 148.703125 C102.49441621 151.2337998 102.66165531 153.56216221 102.73828125 156.140625 C102.7640625 156.95402344 102.78984375 157.76742187 102.81640625 158.60546875 C102.04866383 164.68342958 98.47011227 168.6024382 94.36328125 172.890625 C93.37173234 173.94868224 92.38218029 175.00861399 91.39453125 176.0703125 C90.90339844 176.5972168 90.41226562 177.12412109 89.90625 177.66699219 C64.6934555 204.9808529 57.09301952 238.86439349 50.30078125 274.328125 C50.06302979 275.55136475 49.82527832 276.77460449 49.58032227 278.03491211 C49.23505493 279.88548218 49.23505493 279.88548218 48.8828125 281.7734375 C48.76077957 282.42040588 48.63874664 283.06737427 48.51301575 283.73394775 C47.8250152 287.58997154 47.37798443 291.38233466 47.12939453 295.29223633 C45.75337293 314.04851847 38.92456845 330.06535706 31.74780655 347.21733093 C30.03784581 351.32197073 28.36156158 355.44031613 26.68237305 359.55761719 C23.9567627 366.23136345 21.2144521 372.89798312 18.46044922 379.56005859 C14.75402213 388.5316692 11.10938405 397.52724806 7.4921875 406.53515625 C7.08918615 407.53832036 7.08918615 407.53832036 6.67804337 408.56175041 C5.63160508 411.16675387 4.58543437 413.77186437 3.53986168 416.37721539 C0.95501964 422.81768844 -1.64127644 429.25350199 -4.2421875 435.6875 C-4.63458115 436.66004227 -5.02697479 437.63258453 -5.43125916 438.63459778 C-7.4048815 443.51512351 -9.41666635 448.37342987 -11.51171875 453.203125 C-10.27075439 453.17605469 -9.02979004 453.14898438 -7.7512207 453.12109375 C0.00781916 453.12516233 7.73176847 453.76527556 15.46713638 454.31414604 C20.44767931 454.66585044 25.42930509 455.00154454 30.41088867 455.33813477 C31.97976963 455.44428651 31.97976963 455.44428651 33.58034515 455.55258274 C65.42838173 457.69949761 97.24342141 459.82253932 129.17578125 459.765625 C130.34170807 459.76780029 131.50763489 459.76997559 132.70889282 459.7722168 C145.46191092 459.76947723 158.06637506 459.12348828 170.7578125 457.85546875 C171.92237473 457.73998184 173.08693695 457.62449493 174.28678894 457.50550842 C194.17639401 455.33381892 211.05896765 450.82717022 225.2421875 435.9296875 C227.29402545 433.086702 227.55319358 430.64347862 227.48828125 427.203125 C227.2305835 424.85427235 227.2305835 424.85427235 225.48828125 423.203125 C218.50532782 419.72044294 211.41774702 419.60345798 203.75161743 419.2947998 C177.56305968 418.20392765 154.7952019 414.67636405 136.12597656 394.7253418 C128.48828125 386.3123388 128.48828125 386.3123388 128.48828125 382.203125 C151.59890313 369.30648719 176.37976969 358.91271534 203.20703125 366.09375 C223.98736512 373.11948193 244.50541466 383.86872549 255.30078125 403.765625 C262.42444046 418.32404621 263.2750833 434.58687963 258.36328125 450.015625 C255.97828128 456.58122838 252.90293148 461.82127375 248.48828125 467.203125 C247.70517578 468.22792969 247.70517578 468.22792969 246.90625 469.2734375 C227.30869977 493.59156552 192.19804339 501.2484366 162.78515625 504.80859375 C149.46718494 506.10697063 136.2323988 506.40079238 122.86328125 506.390625 C121.38974686 506.39171265 121.38974686 506.39171265 119.88644409 506.39282227 C98.64333508 506.39113092 77.42826246 505.70015676 56.20263672 504.91479492 C43.95809305 504.46356948 31.74247605 504.03051382 19.48828125 504.203125 C19.966604 504.67621094 20.44492676 505.14929687 20.93774414 505.63671875 C23.14483465 507.82276906 25.34781758 510.01291629 27.55078125 512.203125 C28.30294922 512.94691406 29.05511719 513.69070313 29.83007812 514.45703125 C34.01551167 518.62434603 38.0411815 522.86513025 41.89086914 527.34472656 C43.36262725 529.05694156 44.86158517 530.73871098 46.375 532.4140625 C66.67189381 555.17833769 85.71362894 586.67206424 84.77734375 618.29296875 C83.74076135 628.72883214 80.47388221 639.92735523 72.48828125 647.203125 C61.89647142 655.45464923 48.5971286 657.31255974 35.48828125 656.203125 C27.66906527 655.19025458 19.92577789 653.88015822 12.48828125 651.203125 C13.11734375 651.97914063 13.74640625 652.75515625 14.39453125 653.5546875 C26.7968915 669.10267975 36.8518959 685.62026234 35.48828125 706.203125 C33.93313765 716.01907726 28.71281281 723.04364026 20.86328125 728.953125 C1.85032349 741.34165856 -21.37035399 741.40390116 -43.26171875 741.328125 C-44.37326324 741.32679565 -44.37326324 741.32679565 -45.50726318 741.32543945 C-56.53267888 741.30996811 -67.51740384 741.08016437 -78.51171875 740.203125 C-78.17140625 740.72777344 -77.83109375 741.25242187 -77.48046875 741.79296875 C-54.40317491 778.67981342 -49.1808458 823.50156401 -45.69921875 866.015625 C-45.63578278 866.78113678 -45.5723468 867.54664856 -45.50698853 868.33535767 C-44.72355671 877.98239607 -44.34725376 887.51892634 -44.51171875 897.203125 C-47.21758563 894.49725812 -48.1446269 891.33099569 -49.4609375 887.8125 C-49.8947876 886.67324318 -49.8947876 886.67324318 -50.33740234 885.51097107 C-50.96553884 883.86047917 -51.59136891 882.20910809 -52.21517944 880.55697632 C-53.89483184 876.11247387 -55.59575418 871.67609971 -57.29296875 867.23828125 C-57.81729744 865.86516533 -57.81729744 865.86516533 -58.35221863 864.46430969 C-82.50993992 798.43451654 -82.50993992 798.43451654 -123.51171875 742.203125 C-129.17115903 754.03856429 -134.34897236 766.05537664 -139.44921875 778.140625 C-140.2360775 779.99945507 -141.02318538 781.8581797 -141.81054688 783.71679688 C-143.71380297 788.21103294 -145.61371258 792.70666942 -147.51171875 797.203125 C-146.72474609 797.50476562 -145.93777344 797.80640625 -145.12695312 798.1171875 C-138.16127437 801.00958286 -134.57101231 807.32348456 -131.45703125 813.87109375 C-127.94692022 822.53033459 -128.14008249 834.36309909 -131.07421875 843.203125 C-135.18078642 852.67981962 -142.34571657 860.72249537 -151.69921875 865.265625 C-163.33651622 869.58804978 -174.84933795 868.47690754 -186.34375 864.1328125 C-196.11302529 859.60082919 -203.64105424 852.8080709 -207.48046875 842.63671875 C-210.98222266 831.23980673 -210.30963189 820.40759121 -205.29296875 809.5703125 C-200.56072622 800.97340524 -193.75572744 794.1811851 -184.41796875 790.8125 C-178.51529535 789.57484267 -172.50454428 789.91546937 -166.51171875 790.203125 C-166.34042953 789.19638733 -166.34042953 789.19638733 -166.16567993 788.16931152 C-165.00909718 781.56901035 -163.57730963 775.09776359 -161.91015625 768.609375 C-161.66882965 767.65542847 -161.42750305 766.70148193 -161.17886353 765.71862793 C-160.4182867 762.71256644 -159.65308726 759.70771478 -158.88671875 756.703125 C-157.86965227 752.7145546 -156.85724919 748.72484278 -155.84765625 744.734375 C-155.61331879 743.82192017 -155.37898132 742.90946533 -155.13754272 741.96936035 C-154.92376984 741.12417847 -154.70999695 740.27899658 -154.48974609 739.40820312 C-154.30036469 738.66638794 -154.11098328 737.92457275 -153.91586304 737.16027832 C-153.41060405 735.04653005 -153.41060405 735.04653005 -153.51171875 732.203125 C-195.01398534 737.17717942 -232.65066973 760.52750879 -267.51171875 782.203125 C-269.42295905 783.38707079 -271.33440361 784.57068693 -273.24609375 785.75390625 C-275.8380625 787.35939177 -278.4299707 788.96497476 -281.02172852 790.57080078 C-283.51752251 792.11631955 -286.01445621 793.65998039 -288.51171875 795.203125 C-289.43645996 795.77562988 -290.36120117 796.34813477 -291.31396484 796.93798828 C-294.1037648 798.66016331 -296.90041842 800.37062541 -299.69921875 802.078125 C-300.55580078 802.60897705 -301.41238281 803.1398291 -302.29492188 803.68676758 C-303.08189453 804.1639624 -303.86886719 804.64115723 -304.6796875 805.1328125 C-305.37344482 805.55804199 -306.06720215 805.98327148 -306.78198242 806.42138672 C-307.35279541 806.67936035 -307.9236084 806.93733398 -308.51171875 807.203125 C-309.17171875 806.873125 -309.83171875 806.543125 -310.51171875 806.203125 C-303.70777937 798.1156586 -296.76522592 790.2063716 -289.49755859 782.53100586 C-286.7137131 779.58641231 -283.99301555 776.61519688 -281.359375 773.53515625 C-276.77786823 768.26683644 -271.84140073 763.34676971 -266.90673828 758.4128418 C-265.27344427 756.77736618 -263.64833405 755.13404792 -262.0234375 753.49023438 C-255.5106007 746.94241582 -248.78235395 740.91702162 -241.51171875 735.203125 C-240.29553664 734.21518696 -239.08050077 733.22583424 -237.8671875 732.234375 C-222.42820401 719.82478455 -205.69216871 710.0649412 -187.51171875 702.203125 C-188.4553125 701.65785156 -189.39890625 701.11257813 -190.37109375 700.55078125 C-198.8655015 695.58449467 -206.77710225 690.30536493 -214.51171875 684.203125 C-215.33929687 683.55730469 -216.166875 682.91148437 -217.01953125 682.24609375 C-256.1720253 651.33954298 -256.1720253 651.33954298 -260.51171875 629.203125 C-261.41754675 617.41251136 -260.11521996 609.11200253 -252.38671875 600.015625 C-239.7626761 586.89893678 -223.59845393 581.87818814 -206.51171875 577.203125 C-207.01920654 576.98285645 -207.52669434 576.76258789 -208.04956055 576.53564453 C-224.06835113 569.49700279 -240.76105521 561.22442385 -248.44921875 544.390625 C-252.42266762 532.47027839 -250.5640422 521.54481589 -245.109375 510.31640625 C-231.7991058 487.50345097 -202.39406639 473.52002415 -177.98046875 466.57421875 C-159.18730793 461.65066806 -139.75929603 458.64930539 -120.51171875 456.203125 C-121.02855225 455.84186523 -121.54538574 455.48060547 -122.07788086 455.10839844 C-199.68565152 400.85065263 -199.68565152 400.85065263 -224.51171875 379.203125 C-225.72988281 378.15318359 -225.72988281 378.15318359 -226.97265625 377.08203125 C-243.44937438 362.60332047 -257.590927 347.33220082 -268.51171875 328.203125 C-269.05699219 327.25050781 -269.60226562 326.29789063 -270.1640625 325.31640625 C-279.99475309 306.98079251 -283.48606729 286.33555235 -277.51171875 266.203125 C-271.92084321 251.90372057 -262.02888929 240.06978355 -248.07421875 233.390625 C-246.23147557 232.6330528 -244.37725167 231.90269985 -242.51171875 231.203125 C-241.70734375 230.8834375 -240.90296875 230.56375 -240.07421875 230.234375 C-219.82554489 223.40044757 -194.29406209 229.4100503 -175.51171875 238.203125 C-171.93978326 240.28793056 -168.71653132 242.59511179 -165.51171875 245.203125 C-164.89167969 245.67363281 -164.27164062 246.14414062 -163.6328125 246.62890625 C-151.87407228 255.96750307 -144.38880151 269.94065364 -138.01171875 283.265625 C-137.48578125 284.35532593 -137.48578125 284.35532593 -136.94921875 285.46704102 C-135.30268137 289.0086732 -134.51171875 291.23476952 -134.51171875 295.203125 C-155.37918509 299.90565263 -173.90225541 301.59300077 -193.51171875 291.203125 C-194.40761719 290.73390625 -195.30351563 290.2646875 -196.2265625 289.78125 C-203.58438796 285.70366223 -210.29686918 280.86679875 -217.01782227 275.82226562 C-222.45871265 271.78346712 -227.92267951 267.83648487 -234.69921875 266.640625 C-238.77849456 267.45648016 -240.14787268 268.79640566 -242.51171875 272.203125 C-244.90120671 283.24887121 -239.07930662 296.22974868 -233.60986328 305.515625 C-230.66904324 310.03473307 -226.90070525 313.8446495 -223.09326172 317.62744141 C-221.40045366 319.31397787 -219.7387578 321.02789358 -218.078125 322.74609375 C-212.09121748 328.89371809 -206.00179604 334.69091231 -199.2578125 340.015625 C-196.81293574 341.96317974 -194.44430926 343.97710685 -192.0859375 346.02783203 C-174.58495894 361.17833797 -155.07896146 374.19844381 -135.8245697 386.99449158 C-130.31385132 390.65994014 -124.82635309 394.35906244 -119.34375 398.06640625 C-118.00197189 398.9732164 -118.00197189 398.9732164 -116.63308716 399.89834595 C-112.94402854 402.39167718 -109.25519061 404.88532843 -105.56811523 407.3815918 C-92.64036439 416.13227795 -79.63315557 424.74538563 -66.51171875 433.203125 C-64.59376527 429.75021438 -63.58417915 426.2490377 -62.53491211 422.44921875 C-62.34700009 421.77329902 -62.15908808 421.09737928 -61.96548176 420.40097713 C-61.34029353 418.14858183 -60.72095081 415.8946215 -60.1015625 413.640625 C-59.65791818 412.03786194 -59.21387871 410.43520821 -58.76947021 408.83265686 C-57.82059925 405.40879017 -56.87403679 401.98429645 -55.92904663 398.55935669 C-54.44587633 393.18659884 -52.95299977 387.81656813 -51.45825195 382.44702148 C-45.36412405 360.54697374 -45.36412405 360.54697374 -39.34947109 338.62500572 C-37.83935462 333.0827032 -36.3162116 327.54410417 -34.78251743 322.0082798 C-33.91046903 318.85753954 -33.04862648 315.70456807 -32.20114136 312.54711914 C-28.66579433 299.38423974 -24.98192597 287.48381564 -17.61764526 275.95367432 C-15.78714655 273.05621392 -14.10304577 270.07690179 -12.41015625 267.09765625 C-11.75885742 265.95893066 -11.10755859 264.82020508 -10.43652344 263.64697266 C-7.17432983 257.81027771 -4.12552953 251.87040242 -1.13671875 245.890625 C-0.65664368 244.93207611 -0.65664368 244.93207611 -0.16687012 243.9541626 C4.31600245 234.96701221 8.49016897 225.90132245 12.23828125 216.578125 C12.63192871 215.60319092 13.02557617 214.62825684 13.43115234 213.6237793 C21.25370921 193.53804117 22.54501232 172.96798533 21.15234375 151.66015625 C21.0953833 150.76514404 21.03842285 149.87013184 20.97973633 148.94799805 C20.86386042 147.25159366 20.73191075 145.55617919 20.58081055 143.86254883 C20.19241035 138.4141414 20.88800758 135.03657487 23.48828125 130.203125 C25.73828125 127.703125 25.73828125 127.703125 28.48828125 125.203125 C29.72583846 124.0243718 30.95464124 122.83637749 32.17578125 121.640625 C33.04783203 120.80337891 33.04783203 120.80337891 33.9375 119.94921875 C35.54793986 118.13595271 36.50757609 116.41091936 37.48828125 114.203125 C26.36125452 111.21178391 16.57391323 112.7799744 6.52636719 118.27636719 C5.9027832 118.64149414 5.27919922 119.00662109 4.63671875 119.3828125 C1.48828125 121.203125 1.48828125 121.203125 -0.51171875 121.203125 C-0.88296875 122.21052734 -0.88296875 122.21052734 -1.26171875 123.23828125 C-11.30146625 147.05130736 -29.64859362 168.90962731 -49.6484375 184.8984375 C-52.52818204 187.21637649 -55.32900796 189.61121056 -58.13671875 192.015625 C-75.50053764 206.47797674 -95.87145042 222.7120783 -119.51171875 221.203125 C-118.97433624 217.34560587 -118.03950442 215.16894972 -115.52734375 212.20703125 C-114.92148438 211.48322266 -114.315625 210.75941406 -113.69140625 210.01367188 C-113.05460937 209.27181641 -112.4178125 208.52996094 -111.76171875 207.765625 C-111.14039063 207.02763672 -110.5190625 206.28964844 -109.87890625 205.52929688 C-108.6633364 204.08676937 -107.4440467 202.64736664 -106.22070312 201.21142578 C-103.96360788 198.55901643 -101.73672495 195.88247407 -99.51171875 193.203125 C-100.03491699 193.45481445 -100.55811523 193.70650391 -101.09716797 193.96582031 C-106.88644171 196.74518121 -112.6914276 199.48932359 -118.51171875 202.203125 C-119.97738281 202.88761719 -119.97738281 202.88761719 -121.47265625 203.5859375 C-141.00121442 212.05053439 -169.31685096 213.82956599 -189.51171875 207.203125 C-189.38797318 201.2633376 -187.53413625 198.4649918 -183.59375 194.09765625 C-181.08193315 191.8120443 -178.37099483 190.02707622 -175.51171875 188.203125 C-176.39988281 188.2753125 -177.28804687 188.3475 -178.203125 188.421875 C-199.05856242 189.93710355 -221.60292933 191.56132472 -241.51171875 184.203125 C-242.17171875 183.543125 -242.83171875 182.883125 -243.51171875 182.203125 C-243.51171875 179.0519524 -242.33801034 178.02484531 -240.13671875 175.765625 C-232.05756595 169.49282073 -221.37647099 166.61404083 -211.82421875 163.390625 C-210.63376953 162.98392578 -209.44332031 162.57722656 -208.21679688 162.15820312 C-205.31674788 161.16822656 -202.41509023 160.18330526 -199.51171875 159.203125 C-200.62546875 159.35910156 -201.73921875 159.51507812 -202.88671875 159.67578125 C-219.86526265 161.90846821 -234.3585101 160.87257811 -250.51171875 155.203125 C-251.39811035 154.89874512 -252.28450195 154.59436523 -253.19775391 154.28076172 C-291.80298121 140.82248586 -291.80298121 140.82248586 -300.51171875 126.203125 C-300.953125 123.671875 -300.953125 123.671875 -300.51171875 121.203125 C-298.74609375 119.54296875 -298.74609375 119.54296875 -296.26171875 118.140625 C-295.4728125 117.67527344 -294.68390625 117.20992187 -293.87109375 116.73046875 C-284.788661 112.60113014 -275.87080838 110.5847292 -266.01171875 109.390625 C-216.75380078 102.6456798 -157.28533981 81.80523238 -120.88330078 46.5234375 C-119.72432649 45.40778549 -118.54053771 44.31799798 -117.3515625 43.234375 C-112.62720251 38.83189448 -109.68059151 33.78948832 -106.51171875 28.203125 C-95.15727931 8.52959132 -77.01925673 -3.99155439 -55.40112305 -10.35571289 C-35.89522563 -15.33728602 -16.32521003 -11.6789994 0 0 Z M-109.44921875 503.390625 C-110.65215576 503.52299561 -111.85509277 503.65536621 -113.09448242 503.79174805 C-146.33940539 507.62728655 -185.87755156 512.31674194 -211.51171875 536.203125 C-208.78323828 544.51580125 -200.61636503 547.77101375 -193.23876953 551.54785156 C-182.48486564 556.82992269 -171.42560079 560.11793731 -159.8984375 563.26123047 C-153.63780477 565.00240125 -147.42073938 566.89056457 -141.19921875 568.765625 C-139.92002355 569.1497258 -138.64080824 569.53375964 -137.36157227 569.91772461 C-127.38197715 572.9208886 -117.43414118 576.01645281 -107.51171875 579.203125 C-105.23529337 573.32292488 -103.28610465 567.40706903 -101.48046875 561.3671875 C-101.20328003 560.44779388 -100.92609131 559.52840027 -100.64050293 558.58114624 C-99.76171802 555.66422493 -98.88665862 552.74620166 -98.01171875 549.828125 C-97.42472518 547.87753012 -96.83748771 545.92700861 -96.25 543.9765625 C-94.91725125 539.54971828 -93.58649746 535.12228407 -92.25935364 530.6937561 C-91.74032696 528.96469824 -91.21943185 527.23620057 -90.69706726 525.50814819 C-90.30017448 524.19313828 -90.30017448 524.19313828 -89.89526367 522.8515625 C-89.65772873 522.06652344 -89.42019379 521.28148437 -89.17546082 520.47265625 C-88.12086304 516.86667326 -87.21409168 513.22764278 -86.32421875 509.578125 C-86.14697266 508.86011719 -85.96972656 508.14210938 -85.78710938 507.40234375 C-85.35975312 505.66981841 -84.93539786 503.93655323 -84.51171875 502.203125 C-92.91003781 502.04156436 -101.10270458 502.46856016 -109.44921875 503.390625 Z M-37.51171875 518.203125 C-40.85339249 524.58787915 -43.52912756 531.10449956 -46.1015625 537.83203125 C-46.52796524 538.9393309 -46.95436798 540.04663055 -47.39369202 541.18748474 C-48.29232902 543.52406013 -49.18897466 545.86140225 -50.08374023 548.19946289 C-51.4363909 551.73212305 -52.79680135 555.26172012 -54.15820312 558.79101562 C-58.53801889 570.18107197 -62.84810782 581.55958687 -66.51171875 593.203125 C-65.12726563 593.69171997 -65.12726563 593.69171997 -63.71484375 594.19018555 C-59.31050907 595.74779862 -54.9103822 597.31707424 -50.51171875 598.890625 C-49.70561157 599.17880096 -48.89950439 599.46697693 -48.06896973 599.7638855 C-39.16557809 602.9560852 -30.30490232 606.21708583 -21.55859375 609.8203125 C-20.4990448 610.25670799 -20.4990448 610.25670799 -19.41809082 610.70191956 C-16.09419322 612.07724807 -12.77918304 613.47090013 -9.47265625 614.88745117 C3.79450831 620.45757403 25.96093767 629.55938856 40.17578125 624.1875 C41.32046875 623.70023438 41.32046875 623.70023438 42.48828125 623.203125 C33.93483446 583.98244215 2.26674058 553.2940368 -26.51171875 527.203125 C-27.55381791 526.24786743 -28.59550888 525.2921643 -29.63671875 524.3359375 C-33.15855042 520.42989323 -33.15855042 520.42989323 -37.51171875 518.203125 Z M-232.26171875 617.859375 C-234.86928254 620.97711431 -235.4868648 622.83031569 -235.76171875 626.953125 C-232.68161633 641.69768936 -218.20806576 652.10836636 -206.44042969 659.94140625 C-175.440736 680.28356659 -175.440736 680.28356659 -140.51171875 689.203125 C-135.72160519 673.48948172 -130.95258709 657.76953178 -126.20263672 642.04370117 C-125.4817085 639.65750473 -124.7603423 637.27144058 -124.03857422 634.88549805 C-122.97922168 631.38357854 -121.92110429 627.88128803 -120.86328125 624.37890625 C-120.54042145 623.31239334 -120.21756165 622.24588043 -119.88491821 621.14704895 C-119.43842422 619.66720772 -119.43842422 619.66720772 -118.98291016 618.1574707 C-118.5915538 616.86254448 -118.5915538 616.86254448 -118.19229126 615.54145813 C-117.58015464 613.43825925 -117.02566901 611.33216906 -116.51171875 609.203125 C-149.24164268 601.85102122 -204.47834992 591.56440092 -232.26171875 617.859375 Z M-77.51171875 623.203125 C-82.76357644 635.33534819 -87.28351309 647.75124793 -91.91967773 660.12744141 C-96.95342984 673.5545383 -102.1281969 686.91218582 -107.51171875 700.203125 C-103.92364575 703.791198 -98.59697578 704.56289927 -93.82421875 706.015625 C-92.66116211 706.37092285 -91.49810547 706.7262207 -90.29980469 707.09228516 C-79.93485711 710.19220092 -69.51277162 712.70821098 -58.89013672 714.74658203 C-56.90714076 715.12722281 -54.92935528 715.53488287 -52.953125 715.94921875 C-44.81597852 717.42223528 -36.63719803 717.43585591 -28.38671875 717.515625 C-27.20634033 717.53343018 -26.02596191 717.55123535 -24.80981445 717.56958008 C-12.68747877 717.5585667 -1.70496696 715.72200619 7.48828125 707.390625 C9.86222787 702.19761676 8.76803403 697.39012726 6.86328125 692.265625 C-5.33530536 664.38314133 -32.77491973 646.19480798 -58.51171875 632.203125 C-59.72577393 631.53845215 -59.72577393 631.53845215 -60.96435547 630.86035156 C-63.32949794 629.56958814 -65.69972973 628.28910389 -68.07421875 627.015625 C-69.15533936 626.43494263 -69.15533936 626.43494263 -70.25830078 625.8425293 C-73.69742084 623.8766847 -73.69742084 623.8766847 -77.51171875 623.203125 Z " fill="#000000" transform="translate(1684.51171875,627.796875)"/>
</svg>
