<?xml version="1.0" encoding="UTF-8"?>
<svg version="1.1" xmlns="http://www.w3.org/2000/svg" width="2644" height="2638">
<path d="M0 0 C3.71326644 0.00008057 7.42640767 -0.00676817 11.13964844 -0.02050781 C46.05635819 -0.1474361 80.87691922 0.97738435 115.67797852 3.93530273 C116.66927765 4.01800415 117.66057678 4.10070557 118.68191528 4.18591309 C214.1809312 12.21970337 309.37686206 30.27710047 540.67797852 112.18530273 C541.8368457 112.70318359 542.99571289 113.22106445 544.18969727 113.75463867 C551.04920984 116.83479978 557.87522651 119.98184652 564.67797852 123.18530273 C565.63897461 123.63760254 566.5999707 124.08990234 567.59008789 124.5559082 C592.39890658 136.27299126 617.12227998 148.31795851 641.06811523 161.72436523 C643.75779068 163.22997963 646.45408794 164.72328577 649.15063477 166.21655273 C662.73241893 173.77811783 676.04461996 181.75036253 689.28903198 189.8843689 C692.45278058 191.82731319 695.62361149 193.75732492 698.80493164 195.67138672 C709.68852905 202.23778702 720.3212627 209.13559285 730.8815918 216.20898438 C733.54129227 217.98997737 736.20503533 219.76478977 738.86938477 221.53881836 C772.70695428 244.11522078 805.63813019 268.15002313 837.04516602 294.01733398 C838.79527378 295.45844646 840.55047464 296.89339677 842.31079102 298.32202148 C849.27146218 303.97376178 856.08429844 309.78390185 862.87524414 315.63696289 C864.65283764 317.16370964 866.43749866 318.68171982 868.22485352 320.19702148 C875.2371499 326.15120636 882.07186954 332.25515716 888.80297852 338.52514648 C891.02326808 340.57951767 893.26015158 342.58866923 895.55297852 344.56030273 C905.08188612 352.82003237 914.21796761 361.55885252 923.01782227 370.58764648 C925.12777369 372.64802489 927.26074898 374.58101517 929.49047852 376.50561523 C933.75585091 380.20420731 937.76126604 384.12043286 941.74047852 388.12280273 C942.40885742 388.78731445 943.07723633 389.45182617 943.76586914 390.13647461 C947.66636622 394.04455283 951.35446317 398.07061555 954.9609375 402.25 C957.72823317 405.36906054 960.69982632 408.2694015 963.67797852 411.18530273 C967.85287567 415.3172102 971.92245712 419.45510484 975.71704102 423.94311523 C978.57460401 427.2105279 981.57406622 430.3412256 984.55297852 433.49780273 C989.42168011 438.67187399 994.03568812 443.9551617 998.47094727 449.50952148 C1000.9377863 452.50029094 1003.53804051 455.34857099 1006.17797852 458.18530273 C1010.35434377 462.68447189 1014.3231537 467.3028145 1018.17407227 472.08374023 C1020.67124288 475.17695937 1023.20056972 478.24118055 1025.73632812 481.30273438 C1032.51700211 489.49585892 1039.16317044 497.77958675 1045.67797852 506.18530273 C1046.46172852 507.19334961 1047.24547852 508.20139648 1048.05297852 509.23999023 C1095.43846006 570.49819499 1137.5743757 635.66213821 1173.67797852 704.18530273 C1173.99897522 704.79335754 1174.31997192 705.40141235 1174.6506958 706.02789307 C1206.34787811 766.09927537 1233.11513582 828.5186174 1254.89013672 892.85754395 C1255.41681859 894.41367914 1255.94465724 895.96942328 1256.47363281 897.52478027 C1288.82588647 992.67120828 1309.32674959 1091.69538984 1323.67797852 1261.18530273 C1323.7358252 1262.50014648 1323.79367188 1263.81499023 1323.85327148 1265.16967773 C1328.10200588 1366.43328211 1320.37027877 1468.45932344 1212.67797852 1851.18530273 C1212.37627747 1851.87013733 1212.07457642 1852.55497192 1211.76373291 1853.26055908 C1203.18131671 1872.73672871 1193.97644722 1891.88378224 1184.49047852 1910.93530273 C1183.75319016 1912.42179825 1183.75319016 1912.42179825 1183.00100708 1913.93832397 C1176.60027376 1926.81942337 1169.84210625 1939.43516665 1162.68017578 1951.90942383 C1159.62407903 1957.24167451 1156.70481306 1962.6429581 1153.80297852 1968.06030273 C1147.15632375 1980.34069539 1139.96863601 1992.27873361 1132.67797852 2004.18530273 C1132.09209961 2005.14597656 1131.5062207 2006.10665039 1130.90258789 2007.09643555 C1099.83375433 2057.9189102 1064.82182324 2106.26837392 1027.15014648 2152.38110352 C1025.85526341 2153.96803319 1024.56507373 2155.5587901 1023.27563477 2157.15014648 C1018.21228111 2163.38548797 1013.01967288 2169.50052387 1007.77563477 2175.58374023 C1005.75053733 2177.9331325 1003.73773122 2180.29205413 1001.73657227 2182.66186523 C995.85370677 2189.61247082 989.7977459 2196.35575812 983.55322266 2202.98388672 C980.00592652 2206.74987563 976.55541324 2210.57470195 973.18188477 2214.49780273 C971.06049394 2216.87816854 968.78596643 2219.0891405 966.51014709 2221.32069397 C964.78207787 2223.07936021 963.18212073 2224.89088405 961.5859375 2226.76904297 C957.16395817 2231.85154094 952.4179152 2236.58888633 947.65063477 2241.34545898 C946.69316827 2242.30360134 945.73585007 2243.2618919 944.77867126 2244.22032166 C942.78424105 2246.2162156 940.78804111 2248.21031725 938.79052734 2250.203125 C936.25123453 2252.73672137 933.71645949 2255.27478257 931.18300724 2257.81421757 C929.21065668 2259.79020977 927.23589589 2261.76377953 925.2604351 2263.73666191 C923.87671224 2265.11940872 922.49497537 2266.50414204 921.11329651 2267.88893127 C916.6740419 2272.31187132 912.18857268 2276.60582834 907.4125824 2280.66477966 C905.58525233 2282.26658487 903.87894284 2283.95058238 902.17797852 2285.68530273 C899.23197637 2288.67764649 896.14814844 2291.43854446 892.96704102 2294.17749023 C890.7423338 2296.12885458 888.56644586 2298.1269873 886.3972168 2300.13964844 C881.2132377 2304.9476775 875.90347726 2309.50380374 870.39282227 2313.93920898 C867.57124356 2316.27360863 864.8720714 2318.70520872 862.17797852 2321.18530273 C856.84835729 2326.07893238 851.31166532 2330.64824962 845.67797852 2335.18530273 C844.42468469 2336.20659241 843.17212443 2337.22878272 841.92016602 2338.25170898 C821.37615674 2355.02764631 800.39525394 2371.22597032 778.8137207 2386.64819336 C776.7697411 2388.11926053 774.74116369 2389.60894486 772.71704102 2391.10717773 C757.99134998 2401.96377261 742.68095431 2411.97191372 727.41223145 2422.04150391 C725.92242095 2423.02408463 724.43342069 2424.00789365 722.94458008 2424.99194336 C696.40779269 2442.49956876 668.95499705 2458.63344409 641.0637207 2473.87915039 C639.40612908 2474.78665297 637.75067813 2475.69807213 636.09692383 2476.61254883 C603.10237343 2494.84083908 569.2580388 2511.42805226 534.6418457 2526.33618164 C531.58538104 2527.65771124 528.53856146 2529.00080355 525.49047852 2530.34155273 C442.66920712 2566.57291285 355.35181162 2593.09985926 30.67797852 2636.18530273 C29.84252502 2636.19625977 29.00707153 2636.2072168 28.14630127 2636.21850586 C-71.40828724 2637.45518058 -170.38974069 2628.14008439 -544.32202148 2516.18530273 C-545.4338681 2515.66870087 -545.4338681 2515.66870087 -546.56817627 2515.1416626 C-576.90989928 2501.02453362 -606.80213544 2486.30141567 -635.8215332 2469.61108398 C-638.87544314 2467.86974108 -641.95501211 2466.17867771 -645.03930664 2464.49194336 C-663.91018705 2454.15758477 -682.22196045 2442.80765725 -700.32202148 2431.18530273 C-701.44326416 2430.46600586 -701.44326416 2430.46600586 -702.5871582 2429.73217773 C-711.55686996 2423.970498 -720.48899909 2418.15498892 -729.32202148 2412.18530273 C-730.34585937 2411.49380127 -730.34585937 2411.49380127 -731.39038086 2410.78833008 C-743.19437892 2402.8025224 -754.82074841 2394.60056877 -766.32202148 2386.18530273 C-767.10077637 2385.61666504 -767.87953125 2385.04802734 -768.68188477 2384.4621582 C-780.00956619 2376.18414831 -791.22690331 2367.77256316 -802.32202148 2359.18530273 C-802.92320801 2358.7205957 -803.52439453 2358.25588867 -804.14379883 2357.77709961 C-816.95854362 2347.85093898 -829.45178466 2337.52493353 -841.79101562 2327.01513672 C-845.09385536 2324.20614077 -848.44312214 2321.46455465 -851.82202148 2318.74780273 C-857.20344353 2314.37196029 -862.26200717 2309.69221458 -867.32983398 2304.96264648 C-869.6444241 2302.80452554 -871.99097895 2300.69356464 -874.38452148 2298.62280273 C-878.65686348 2294.92248979 -882.81498141 2291.10030205 -886.9703064 2287.2699585 C-889.09107404 2285.31619571 -891.21623775 2283.36746317 -893.34634399 2281.42388916 C-900.9894151 2274.4337909 -908.40517418 2267.25080975 -915.72045898 2259.91967773 C-916.85081753 2258.78999589 -917.9813242 2257.66046225 -919.11196899 2256.53106689 C-921.45460468 2254.189888 -923.79546716 2251.84695524 -926.13500977 2249.50268555 C-929.1134827 2246.51848321 -932.09647009 2243.53884005 -935.08078575 2240.56048203 C-937.40590211 2238.23899811 -939.72860846 2235.91511462 -942.05061722 2233.59052277 C-943.14935868 2232.49112117 -944.2488241 2231.39244254 -945.3490715 2230.29454803 C-950.68431529 2224.96822789 -955.96721881 2219.63812932 -960.85684204 2213.89202881 C-963.57349172 2210.72751755 -966.46210593 2207.71985451 -969.32202148 2204.68530273 C-974.08854873 2199.59930482 -978.79708981 2194.48871727 -983.32202148 2189.18530273 C-984.20848576 2188.15253217 -985.09523183 2187.12000345 -985.98217773 2186.08764648 C-988.03537188 2183.69647383 -990.0858492 2181.30300669 -992.13452148 2178.90795898 C-994.23434149 2176.45366569 -996.33854786 2174.00325894 -998.44702148 2171.55639648 C-1004.51065592 2164.51488069 -1010.46793035 2157.40280597 -1016.32202148 2150.18530273 C-1017.32923782 2148.9595522 -1018.33709225 2147.73432582 -1019.34545898 2146.50952148 C-1025.86845725 2138.56596351 -1032.16912111 2130.49724636 -1038.29467773 2122.24389648 C-1040.86940044 2118.77769803 -1043.49067504 2115.34982822 -1046.12646484 2111.92993164 C-1053.39719722 2102.49287102 -1060.41921486 2092.89416152 -1067.32202148 2083.18530273 C-1067.86407227 2082.42443359 -1068.40612305 2081.66356445 -1068.96459961 2080.87963867 C-1102.70587346 2033.41478886 -1133.15512474 1983.68638597 -1160.32202148 1932.18530273 C-1160.92369141 1931.04512695 -1161.52536133 1929.90495117 -1162.14526367 1928.73022461 C-1187.76334115 1880.02757758 -1210.37888369 1829.8637698 -1229.32202148 1778.18530273 C-1229.73226563 1777.06881348 -1230.14250977 1775.95232422 -1230.56518555 1774.80200195 C-1263.07677044 1685.95502234 -1286.39588063 1594.29004385 -1309.16772461 1402.63134766 C-1309.27026716 1401.00575611 -1309.3744237 1399.38026554 -1309.48022461 1397.75488281 C-1315.26802935 1308.53515826 -1311.2998217 1217.97880947 -1203.32202148 793.18530273 C-1202.81251953 792.02643555 -1202.30301758 790.86756836 -1201.77807617 789.67358398 C-1193.70358408 771.31118648 -1185.18627814 753.18031004 -1176.32202148 735.18530273 C-1175.98368286 734.49766846 -1175.64534424 733.81003418 -1175.29675293 733.1015625 C-1166.34751693 714.92164845 -1157.28716377 696.83524821 -1147.32202148 679.18530273 C-1146.70472168 678.09024414 -1146.08742188 676.99518555 -1145.45141602 675.86694336 C-1133.79234322 655.21394968 -1121.76493644 634.81685062 -1109.00268555 614.82397461 C-1107.16160482 611.93344577 -1105.33163116 609.03603246 -1103.50170898 606.13842773 C-1096.15963962 594.54686033 -1088.63369334 583.14208051 -1080.68920898 571.95483398 C-1077.86360838 567.97404699 -1075.11413368 563.94690385 -1072.38305664 559.90087891 C-1066.20048405 550.74974177 -1059.66814835 541.94666471 -1052.89526367 533.22631836 C-1050.35340867 529.92869145 -1047.87135835 526.58698622 -1045.38452148 523.24780273 C-1035.98392256 510.66671479 -1026.33724283 498.28308429 -1016.32202148 486.18530273 C-1014.86317158 484.39405665 -1013.40485124 482.60237917 -1011.94702148 480.81030273 C-1007.28732423 475.11691181 -1002.54658251 469.49530338 -997.77661133 463.89428711 C-996.79662846 462.74291415 -995.81781003 461.59054919 -994.84008789 460.43725586 C-988.62039585 453.10089705 -982.29114588 445.8977118 -975.75952148 438.83764648 C-973.8045827 436.71039739 -971.89320103 434.56258021 -970.00952148 432.37280273 C-965.57317143 427.26204317 -960.91872367 422.35196366 -956.2878418 417.41821289 C-953.81385239 414.78047387 -951.34611239 412.13722483 -948.88623047 409.48632812 C-940.41729224 400.37673112 -931.76646227 391.47224702 -922.95800781 382.69091797 C-920.85745044 380.59580182 -918.76240274 378.49527964 -916.66772461 376.39428711 C-915.30411338 375.03133561 -913.94019256 373.66869376 -912.57592773 372.30639648 C-911.9643129 371.69275742 -911.35269806 371.07911835 -910.72254944 370.44688416 C-906.96205046 366.70642035 -903.08000805 363.15933871 -899.05809021 359.70118713 C-896.87357889 357.79373579 -894.84087279 355.76627254 -892.82202148 353.68530273 C-889.5334762 350.3576081 -886.15820525 347.23193832 -882.60717773 344.18920898 C-880.25724064 342.12849492 -877.97169023 340.01056086 -875.68774414 337.87744141 C-870.28276827 332.8302287 -864.77141354 328.02872766 -859.00170898 323.39624023 C-856.18948834 321.07595323 -853.50404886 318.65459139 -850.82202148 316.18530273 C-846.01011715 311.76648354 -841.03932516 307.61296512 -835.95483398 303.51342773 C-834.10771365 302.01098536 -832.27674304 300.49013411 -830.44702148 298.96655273 C-821.98794884 291.93065857 -813.40632997 285.10793573 -804.63452148 278.46655273 C-800.93965064 275.66679632 -797.28645974 272.81714975 -793.64013672 269.95458984 C-784.75649107 262.98632704 -775.69667082 256.31109356 -766.50610352 249.75463867 C-764.44139628 248.27107751 -762.39281872 246.7682686 -760.34936523 245.25561523 C-745.07249325 233.98991661 -729.16719945 223.62702031 -713.32202148 213.18530273 C-712.39341309 212.57315918 -711.46480469 211.96101562 -710.50805664 211.33032227 C-705.80594319 208.23947026 -701.07905905 205.19090663 -696.32202148 202.18530273 C-695.20633789 201.47929932 -695.20633789 201.47929932 -694.06811523 200.7590332 C-663.06400586 181.20501869 -631.14545174 163.11993369 -598.53686523 146.38842773 C-594.80290545 144.47195208 -591.0832988 142.53545867 -587.38842773 140.54467773 C-574.75622722 133.74053672 -561.78756656 127.71755533 -548.74243164 121.75512695 C-545.64054776 120.33149288 -542.54789052 118.89021368 -539.45874023 117.43920898 C-457.05291421 78.87979828 -369.14275528 50.06296239 -273.32202148 29.18530273 C-272.14971985 28.93324066 -272.14971985 28.93324066 -270.95373535 28.67608643 C-202.7570976 14.05205677 -133.17834082 4.67288924 -63.49862671 1.29244995 C-61.9716234 1.21728053 -60.4447979 1.13845199 -58.91812134 1.05691528 C-39.28473815 0.02428154 -19.65498133 -0.00224923 0 0 Z M-485.32202148 174.18530273 C-486.46590332 174.67949707 -487.60978516 175.17369141 -488.78833008 175.68286133 C-510.65534604 185.16325069 -532.14186175 195.45864313 -553.40795898 206.21655273 C-556.38101808 207.71938365 -559.36843392 209.19063235 -562.36108398 210.65405273 C-575.07112602 216.89458427 -587.411199 223.63996746 -599.68969727 230.68774414 C-602.74243156 232.42447871 -605.82106789 234.10900756 -608.90600586 235.78759766 C-637.29603306 251.27756027 -664.54799707 269.08748725 -691.32202148 287.18530273 C-692.04083496 287.67095703 -692.75964844 288.15661133 -693.50024414 288.65698242 C-704.26510687 295.94922648 -714.81999327 303.52064915 -725.32202148 311.18530273 C-726.09980957 311.75152344 -726.87759766 312.31774414 -727.67895508 312.90112305 C-744.3559855 325.05295225 -760.61945381 337.67701854 -776.57788086 350.75708008 C-778.15111072 352.04534921 -779.72850396 353.32852998 -781.30639648 354.61108398 C-787.8130146 359.90476317 -794.23180703 365.29666835 -800.61743164 370.73510742 C-802.34321478 372.20333312 -804.07276421 373.66703806 -805.80249023 375.13061523 C-812.23468892 380.59007897 -818.55029078 386.14599534 -824.70874023 391.91357422 C-827.45712764 394.48474865 -830.24207612 396.9998338 -833.08447266 399.46704102 C-847.71060543 412.24776312 -861.36665146 426.07084756 -875.07958984 439.8125 C-877.85282166 442.59148498 -880.63059983 445.36587583 -883.40967655 448.13901424 C-885.58294995 450.30865521 -887.7538132 452.48069518 -889.92397881 454.65344429 C-890.94736154 455.67748594 -891.9714648 456.70080812 -892.99635506 457.72334099 C-898.11364198 462.83141223 -903.14532983 467.95730924 -907.83692932 473.46209717 C-910.5170278 476.57191131 -913.3734214 479.51885511 -916.19702148 482.49780273 C-921.06682505 487.67080473 -925.67981053 492.95526119 -930.11499023 498.50952148 C-932.58182927 501.50029094 -935.18208347 504.34857099 -937.82202148 507.18530273 C-941.99714187 511.68313081 -945.96523813 516.29966051 -949.81420898 521.07983398 C-951.74150266 523.46643596 -953.68367982 525.83635107 -955.64233398 528.19702148 C-961.80122077 535.62166337 -967.87143108 543.08225497 -973.70874023 550.76342773 C-975.64672282 553.31312625 -977.61275749 555.83902238 -979.59155273 558.35717773 C-987.77614372 568.77911856 -995.65005755 579.38109731 -1003.32202148 590.18530273 C-1003.83506836 590.9060498 -1004.34811523 591.62679687 -1004.87670898 592.36938477 C-1012.13151914 602.56800907 -1019.29943536 612.82531035 -1026.32202148 623.18530273 C-1026.99571777 624.17884766 -1027.66941406 625.17239258 -1028.36352539 626.19604492 C-1037.54743966 639.77366615 -1046.49118461 653.42623955 -1054.78100586 667.57446289 C-1056.47839565 670.45023705 -1058.20230389 673.30895051 -1059.93139648 676.16577148 C-1068.32139363 690.03158403 -1076.47359397 704.00579436 -1084.32202148 718.18530273 C-1084.83458496 719.10601563 -1085.34714844 720.02672852 -1085.87524414 720.9753418 C-1104.43174517 754.41769952 -1121.3852258 788.83778548 -1136.39416504 824.01318359 C-1137.33406419 826.21349479 -1138.2792303 828.41148456 -1139.2253418 830.60913086 C-1149.06696079 853.5099056 -1158.00636581 876.68910678 -1166.32202148 900.18530273 C-1166.62901978 901.05173401 -1166.93601807 901.91816528 -1167.25231934 902.81085205 C-1176.60364748 929.25035329 -1185.14150936 955.85615054 -1192.67608643 982.8704834 C-1193.29121824 985.07491401 -1193.91051158 987.27813743 -1194.53051758 989.48120117 C-1220.72090419 1082.89914507 -1234.14576147 1179.7896535 -1238.32202148 1299.18530273 C-1238.33297852 1299.88181946 -1238.34393555 1300.57833618 -1238.35522461 1301.29595947 C-1239.57435521 1380.00832024 -1232.74311411 1458.65491627 -1219.32202148 1536.18530273 C-1219.18600525 1536.97475281 -1219.04998901 1537.76420288 -1218.90985107 1538.57757568 C-1203.71264391 1626.48831806 -1177.60922561 1712.25006286 -1122.32202148 1843.18530273 C-1121.84974121 1844.18625977 -1121.37746094 1845.1872168 -1120.89086914 1846.21850586 C-1108.75757148 1871.89101637 -1096.26349883 1897.44023343 -1082.32202148 1922.18530273 C-1081.71390625 1923.26730957 -1081.10579102 1924.34931641 -1080.47924805 1925.46411133 C-1064.19479624 1954.37326881 -1046.96117912 1982.72687688 -1028.32202148 2010.18530273 C-1027.82879395 2010.91281738 -1027.33556641 2011.64033203 -1026.82739258 2012.38989258 C-1010.90614266 2035.84325027 -994.44735732 2058.84432517 -976.92993164 2081.13647461 C-975.44472045 2083.02895749 -973.9660319 2084.92628986 -972.48999023 2086.82592773 C-962.22340413 2100.01277894 -951.53664699 2112.86352471 -940.69165039 2125.57739258 C-939.25616727 2127.26261394 -937.82613658 2128.95237082 -936.39624023 2130.64233398 C-930.9305065 2137.08259906 -925.36830718 2143.40612081 -919.59375 2149.57202148 C-917.02257557 2152.32040889 -914.50749042 2155.10535737 -912.0402832 2157.94775391 C-899.25956109 2172.57388668 -885.43647666 2186.22993271 -871.69482422 2199.94287109 C-868.91583924 2202.71610291 -866.14144839 2205.49388108 -863.36830997 2208.2729578 C-861.19866901 2210.4462312 -859.02662904 2212.61709445 -856.85387993 2214.78726006 C-855.82983828 2215.81064279 -854.8065161 2216.83474605 -853.78398323 2217.85963631 C-848.67591199 2222.97692323 -843.55001498 2228.00861108 -838.04522705 2232.70021057 C-834.93541291 2235.38030905 -831.98846911 2238.23670265 -829.00952148 2241.06030273 C-823.83651949 2245.9301063 -818.55206303 2250.54309178 -812.99780273 2254.97827148 C-810.00703328 2257.44511052 -807.15875322 2260.04536472 -804.32202148 2262.68530273 C-799.81936849 2266.86490187 -795.1979195 2270.83701896 -790.41186523 2274.68920898 C-788.07590981 2276.57628296 -785.75833451 2278.47871001 -783.45092773 2280.40014648 C-774.99602443 2287.43373438 -766.4181198 2294.25365367 -757.65014648 2300.89233398 C-753.88263381 2303.7471607 -750.15647249 2306.65188252 -746.43676758 2309.56860352 C-738.79420491 2315.55784404 -731.0641237 2321.36313748 -723.11010742 2326.93139648 C-721.23085058 2328.24923689 -719.3579285 2329.5757073 -717.48608398 2330.90405273 C-713.92049079 2333.43275058 -710.34734249 2335.95050757 -706.77075195 2338.46362305 C-705.05518836 2339.6698199 -703.34076559 2340.8776402 -701.62719727 2342.08666992 C-689.48015735 2350.65095078 -677.23404069 2358.94312799 -664.59741211 2366.76733398 C-662.34382535 2368.17171509 -660.10449117 2369.59623086 -657.86889648 2371.02905273 C-629.46641218 2389.2109461 -600.05077893 2405.7343287 -570.30200195 2421.59545898 C-567.61966975 2423.02650497 -564.94117801 2424.46445981 -562.26342773 2425.90405273 C-550.13534747 2432.39401648 -537.78548928 2438.36890019 -525.32202148 2444.18530273 C-524.69877991 2444.47683228 -524.07553833 2444.76836182 -523.43341064 2445.06872559 C-444.10011075 2482.16605983 -361.12950117 2511.45635273 430.67797852 2489.18530273 C475.12521583 2472.99494141 518.4696086 2454.04923733 560.85894775 2433.08374023 C563.66965673 2431.69550294 566.4849121 2430.31652759 569.29907227 2428.93530273 C625.04076616 2401.45253087 678.15452324 2368.2852786 728.67797852 2332.18530273 C729.40436523 2331.66758301 730.13075195 2331.14986328 730.87915039 2330.61645508 C741.98502903 2322.69159675 752.89062681 2314.53765715 763.67797852 2306.18530273 C764.82411621 2305.30044189 764.82411621 2305.30044189 765.9934082 2304.39770508 C777.8189767 2295.26598252 789.45373911 2285.95391196 800.83666992 2276.27490234 C804.310959 2273.32490755 807.82287218 2270.42836484 811.36547852 2267.56030273 C815.8170166 2263.93695778 820.10180307 2260.16566401 824.34594727 2256.30249023 C826.43621741 2254.40479104 828.54783966 2252.53796859 830.67797852 2250.68530273 C834.53463831 2247.32427793 838.33859246 2243.90710829 842.13500977 2240.47827148 C843.73199663 2239.03828487 845.33297835 2237.60270358 846.93969727 2236.17358398 C861.35711084 2223.32274845 875.17488407 2209.85376791 888.8112793 2196.18237305 C891.33209604 2193.65612244 893.85831589 2191.13536129 896.38500977 2188.61499023 C898.01684143 2186.98249879 899.64836342 2185.34969772 901.27954102 2183.71655273 C902.02128571 2182.97683228 902.7630304 2182.23711182 903.5272522 2181.47497559 C907.54781317 2177.436448 911.40049417 2173.31242876 915.10018921 2168.97717285 C916.72382786 2167.13323237 918.42399823 2165.40502144 920.17797852 2163.68530273 C923.17032227 2160.73930059 925.93122024 2157.65547266 928.67016602 2154.47436523 C930.62160639 2152.24957135 932.61981499 2150.07359772 934.63256836 2147.90429688 C939.46102337 2142.69822979 944.04302982 2137.36714293 948.49829102 2131.83374023 C950.6555525 2129.21255155 952.89108852 2126.69375993 955.17797852 2124.18530273 C959.88261424 2119.01020344 964.28315991 2113.62389076 968.67797852 2108.18530273 C969.67715509 2106.96587757 970.67720417 2105.74716696 971.67797852 2104.52905273 C979.04725296 2095.54161265 986.17449271 2086.39421846 993.19506836 2077.13256836 C994.54023195 2075.36618298 995.89606197 2073.60907635 997.26000977 2071.85717773 C1003.70884611 2063.56432841 1009.86133299 2055.07829287 1015.98266602 2046.54223633 C1017.68599623 2044.17415599 1019.39906243 2041.81344325 1021.11547852 2039.45483398 C1027.15774412 2031.14606748 1033.04429766 2022.77866582 1038.67797852 2014.18530273 C1039.77646503 2012.5525796 1040.87501629 2010.91989951 1041.97485352 2009.28808594 C1055.17381934 1989.64766053 1067.6823317 1969.58041713 1079.67797852 1949.18530273 C1080.6119043 1947.59782227 1080.6119043 1947.59782227 1081.56469727 1945.97827148 C1090.98468319 1929.91573879 1100.00437925 1913.662347 1108.67797852 1897.18530273 C1109.16814453 1896.2558786 1109.16814453 1896.2558786 1109.66821289 1895.30767822 C1147.98212139 1822.62110121 1178.99407359 1745.99370384 1210.67797852 1635.18530273 C1210.9089624 1634.30390625 1211.13994629 1633.42250977 1211.37792969 1632.5144043 C1231.45611094 1555.6728462 1243.20439295 1477.52756905 1248.88110352 1398.38061523 C1248.94753052 1397.47465103 1249.01395752 1396.56868683 1249.08239746 1395.63526917 C1250.28775762 1378.34799143 1250.84080206 1361.06625297 1250.88110352 1343.73999023 C1250.8881312 1341.85050943 1250.89521796 1339.96102884 1250.90235901 1338.07154846 C1250.92174124 1332.06779635 1250.9267937 1326.06408299 1250.92797852 1320.06030273 C1250.92842037 1319.035172 1250.92886223 1318.01004128 1250.92931747 1316.95384598 C1250.93662531 1284.59187159 1250.45469176 1252.44644079 1247.67797852 1220.18530273 C1247.50441645 1218.09922095 1247.331082 1216.01312022 1247.15795898 1213.92700195 C1243.23500947 1167.3213317 1236.76310767 1121.0638262 1227.67797852 1075.18530273 C1227.50673462 1074.32048279 1227.33549072 1073.45566284 1227.15905762 1072.56463623 C1209.3068163 982.87317932 1181.257661 895.54874 1092.45239258 709.29272461 C1090.56505915 705.98755401 1088.69477024 702.67311084 1086.82641602 699.35717773 C1078.17951343 684.03983017 1069.15977269 669.00471198 1059.67797852 654.18530273 C1059.16364258 653.37996094 1058.64930664 652.57461914 1058.11938477 651.74487305 C1033.31014195 612.96809233 1006.71849355 575.37037191 977.56860352 539.72827148 C975.20480648 536.83774219 972.87180034 533.92460834 970.55297852 530.99780273 C967.05913745 526.61395162 963.4472595 522.33778137 959.81201172 518.07128906 C956.90117062 514.65028502 954.05420457 511.18716832 951.24047852 507.68530273 C946.86346732 502.30244336 942.18243725 497.24258931 937.45141602 492.17358398 C935.31443537 489.88171864 933.22574503 487.55771516 931.17797852 485.18530273 C927.25218177 480.65408191 923.17644911 476.26265513 919.09643555 471.87084961 C916.95326165 469.56275884 914.81631783 467.24922787 912.68554688 464.9296875 C903.49993411 454.9674231 893.99149169 445.34480825 884.39868164 435.77563477 C881.78227212 433.16463918 879.17132306 430.54826714 876.56079102 427.93139648 C874.87361194 426.24487746 873.1861231 424.55866825 871.49829102 422.87280273 C870.73042267 422.10291016 869.96255432 421.33301758 869.17141724 420.53979492 C865.06153471 416.44753784 860.87329062 412.51677501 856.45968628 408.75292969 C854.61870712 407.13315308 852.89436502 405.43586586 851.17797852 403.68530273 C848.21062529 400.67116691 845.10452559 397.88612941 841.90063477 395.12670898 C839.34820969 392.89726212 836.85910338 390.60528892 834.36547852 388.31030273 C829.84544123 384.1830411 825.1800272 380.29940139 820.41625977 376.45874023 C817.64550042 374.15833804 815.00460052 371.76008802 812.36547852 369.31030273 C807.75717791 365.06909293 802.96226957 361.19052245 798.01293945 357.36376953 C793.95489274 354.21740116 790.01192452 350.96665328 786.11547852 347.62280273 C780.45230704 342.7822243 774.6181036 338.19839518 768.67749023 333.70336914 C766.33930324 331.92817418 764.01054136 330.14094912 761.68188477 328.35327148 C752.40099216 321.23738696 743.09830149 314.18089351 733.51586914 307.4753418 C731.51681507 306.07218004 729.52704396 304.65639544 727.53735352 303.23999023 C705.41282563 287.5534151 682.81305504 272.34484574 659.67797852 258.18530273 C658.91936523 257.72075684 658.16075195 257.25621094 657.37915039 256.77758789 C635.19569424 243.24385384 612.62850577 230.371115 589.67797852 218.18530273 C588.7551709 217.69497559 587.83236328 217.20464844 586.8815918 216.69946289 C580.17242886 213.14504158 573.43471641 209.64836617 566.67797852 206.18530273 C565.54650391 205.60522461 564.4150293 205.02514648 563.24926758 204.42749023 C492.12160292 168.05459253 416.64779265 139.44170635 339.67797852 118.18530273 C338.41491882 117.83529205 338.41491882 117.83529205 337.12634277 117.47821045 C247.49166852 92.68350773 155.49782889 78.94203706 62.67797852 74.18530273 C61.95380737 74.14769836 61.22963623 74.11009399 60.48352051 74.0713501 C50.8842168 73.5797935 41.28873362 73.30575713 31.67797852 73.18530273 C30.80604858 73.1743457 29.93411865 73.16338867 29.0357666 73.15209961 C-75.3720151 71.92943131 -179.72242614 82.1682863 -485.32202148 174.18530273 Z " fill="#A930D0" transform="translate(1319.322021484375,1.814697265625)"/>
<path d="M0 0 C70.95 0 141.9 0 215 0 C223.0195481 20.62169512 223.0195481 20.62169512 225.296875 27.30078125 C225.85863731 28.92562031 226.42040515 30.55045746 226.98217773 32.17529297 C227.2689035 33.00881287 227.55562927 33.84233276 227.8510437 34.70111084 C233.91193165 52.30745847 240.13886127 69.85249267 246.4375 87.375 C248.0625587 91.89711432 249.68756579 96.41924719 251.3125 100.94140625 C251.71043259 102.04868073 252.10836517 103.1559552 252.51835632 104.29678345 C256.34871562 114.96018984 260.14693099 125.63489659 263.9375 136.3125 C269.85790209 152.9852914 275.7976998 169.6510692 281.75 186.3125 C282.38024582 188.07682877 282.38024582 188.07682877 283.02322388 189.87680054 C287.25281249 201.71704248 291.48382551 213.55677453 295.71678162 225.39581299 C297.77000328 231.13870302 299.82266629 236.88179259 301.875 242.625 C302.28358246 243.76833801 302.69216492 244.91167603 303.11312866 246.08966064 C310.02568698 265.43694966 316.89914868 284.79794134 323.76256561 304.16269684 C330.68625035 323.69698249 337.65077337 343.21618381 344.65701294 362.72103882 C351.38649084 381.45870059 358.05360343 400.21803923 364.70306396 418.98419189 C371.26503814 437.50283195 377.85811663 456.00982659 384.5 474.5 C391.61632384 494.31095641 398.67256551 514.14267142 405.70306396 533.98419189 C412.26503814 552.50283195 418.85811663 571.00982659 425.5 589.5 C432.61632384 609.31095641 439.67256551 629.14267142 446.70306396 648.98419189 C453.26503814 667.50283195 459.85811663 686.00982659 466.5 704.5 C473.61632384 724.31095641 480.67256551 744.14267142 487.70306396 763.98419189 C494.26503814 782.50283195 500.85811663 801.00982659 507.5 819.5 C514.61632384 839.31095641 521.67256551 859.14267142 528.70306396 878.98419189 C535.26503814 897.50283195 541.85811663 916.00982659 548.5 934.5 C555.61407988 954.3047095 562.66855945 974.13001377 569.69636917 993.96544647 C577.33050246 1015.51188722 585.01262858 1037.04043835 592.74804688 1058.55078125 C597.22731324 1071.01260671 601.64822153 1083.49306293 606 1096 C609.40382661 1088.03902149 612.51114111 1080.02375404 615.37890625 1071.85546875 C615.78326401 1070.7132637 616.18762177 1069.57105865 616.60423279 1068.39424133 C617.69818194 1065.30377032 618.78948067 1062.21237767 619.88000488 1059.12069702 C621.99727663 1053.12343296 624.12592636 1047.13018964 626.25390625 1041.13671875 C626.49438313 1040.45915905 626.73486 1039.78159935 626.98262405 1039.08350754 C631.91345378 1025.19493117 636.94410458 1011.34352017 642 997.5 C648.92459478 978.53188811 655.74862827 959.53044463 662.5 940.5 C669.25137613 921.46954296 676.07658454 902.46854881 683 883.5 C690.86448124 861.95091808 698.5939108 840.35617997 706.26977539 818.73925781 C712.68191377 800.68375335 719.13206772 782.64239201 725.65332031 764.62597656 C728.84086813 755.81424883 732.01445877 746.99969053 735.08784485 738.14736938 C736.37395125 734.44351928 737.67062427 730.7434046 738.96755981 727.04333496 C739.56664734 725.32297558 740.15993187 723.60058306 740.74703979 721.87609863 C741.54383052 719.53591459 742.35949508 717.20315788 743.1796875 714.87109375 C743.40804794 714.18214523 743.63640839 713.49319672 743.87168884 712.78337097 C745.47133722 708.31841398 745.47133722 708.31841398 747.78271484 706.92626953 C750.97007159 707.03225739 753.35912976 708.07529504 756.296875 709.30859375 C757.50214844 709.80810547 758.70742187 710.30761719 759.94921875 710.82226562 C761.21624909 711.36043406 762.48317488 711.89884868 763.75 712.4375 C765.03212087 712.97303875 766.31466888 713.50755609 767.59765625 714.04101562 C770.73612338 715.35067672 773.86982973 716.67065858 777 718 C776.93039062 719.670625 776.93039062 719.670625 776.859375 721.375 C776.32299445 739.85463568 779.97274106 755.89867502 792.3125 770.375 C804.80259091 783.39165461 821.7240522 790.8021636 839.71484375 791.35205078 C856.34023335 791.51457019 872.08015707 786.43184789 884.34765625 774.80859375 C887.16231629 771.72777201 889.64173121 768.43914198 892 765 C896.67607375 765.71044211 900.79251288 767.38898564 905.14453125 769.16015625 C905.91431808 769.46948593 906.68410492 769.77881561 907.47721863 770.09751892 C909.92396766 771.08179468 912.36824344 772.0720531 914.8125 773.0625 C916.47575158 773.73281871 918.13916137 774.402745 919.80273438 775.07226562 C923.87033626 776.71030375 927.93573133 778.35370995 932 780 C927.67996651 793.2492721 923.11166682 806.37967114 918.23815918 819.43521118 C916.75755404 823.40185505 915.28505023 827.37149446 913.81185913 831.34089661 C913.03654583 833.42973287 912.26084774 835.51842636 911.48477173 837.60697937 C907.74867355 847.66418578 904.04757485 857.73411076 900.35269165 867.80651855 C898.48088853 872.90912857 896.60773703 878.01124339 894.734375 883.11328125 C894.16261284 884.67047379 894.16261284 884.67047379 893.57929993 886.25912476 C888.89631984 899.00981009 884.19765986 911.75471763 879.5 924.5 C870.71771552 948.32870885 861.95438775 972.16432686 853.20166016 996.00390625 C849.84495222 1005.14618233 846.48639981 1014.28778088 843.12802124 1023.42944336 C841.25194191 1028.53626903 839.37597661 1033.64313659 837.5 1038.75 C836.75000055 1040.79166687 836.00000055 1042.83333353 835.25 1044.875 C834.87875 1045.885625 834.5075 1046.89625 834.125 1047.9375 C776.74999989 1204.12500029 776.74999989 1204.12500029 775.62512207 1207.18716431 C774.87471224 1209.22994888 774.12430534 1211.27273452 773.37390137 1213.31552124 C771.50519568 1218.4025928 769.63643999 1223.48964597 767.76757812 1228.57666016 C764.31780035 1237.9670623 760.86846391 1247.3576257 757.42089844 1256.74884033 C755.82945768 1261.08385192 754.23773589 1265.41876031 752.64599609 1269.75366211 C751.90269342 1271.77818805 751.15952141 1273.80276196 750.41650391 1275.82739258 C744.64161878 1291.56308445 738.82169437 1307.28142519 733 1323 C649.51 1323 566.02 1323 480 1323 C461.79784277 1272.94406761 461.79784277 1272.94406761 455.27719116 1254.61352539 C453.18699445 1248.73849759 451.09136963 1242.86540538 448.99609375 1236.9921875 C448.57429337 1235.80965393 448.15249298 1234.62712036 447.71791077 1233.40875244 C443.56273286 1221.7647039 439.3790729 1210.13098859 435.1875 1198.5 C434.82637115 1197.49783447 434.46524231 1196.49566895 434.09317017 1195.46313477 C432.59514831 1191.3060361 431.09712154 1187.14893921 429.59898376 1182.99188232 C424.90536045 1169.96574055 420.22376047 1156.93527698 415.54187012 1143.90491486 C414.56896248 1141.19720908 413.59599043 1138.48952646 412.62302017 1135.78184319 C409.16687304 1126.16369208 405.71104562 1116.54542611 402.25523376 1106.92715454 C398.56616986 1096.65970477 394.87700047 1086.39229291 391.1875 1076.125 C390.82690365 1075.12151772 390.82690365 1075.12151772 390.45902252 1074.09776306 C381.7048935 1049.73671407 372.94034372 1025.37942631 364.16943359 1001.02441406 C360.82218506 991.72959079 357.47617469 982.43432176 354.1300354 973.13909912 C352.25340427 967.92604904 350.37669847 962.71302584 348.5 957.5 C347.74999964 955.4166668 346.99999964 953.33333346 346.25 951.25 C345.87875 950.21875 345.5075 949.1875 345.125 948.125 C344 945 342.875 941.875 341.75 938.75 C341.37872986 937.71869461 341.00745972 936.68738922 340.62493896 935.62483215 C339.87514097 933.54205883 339.12534442 931.45928498 338.37554932 929.37651062 C336.4974704 924.15960491 334.61936624 918.94270829 332.74121094 913.72583008 C329.40291127 904.4530913 326.06476217 895.18029852 322.7276001 885.90715027 C311.90720435 855.8399809 301.07094121 825.77855037 290.2276001 795.71965027 C286.52197189 785.44724279 282.81686866 775.17464605 279.11209106 764.90193176 C278.65496837 763.63440955 278.19784557 762.36688737 277.74072266 761.09936523 C277.5146036 760.47237512 277.28848454 759.845385 277.05551338 759.19939518 C275.45560562 754.76316945 273.85551937 750.32700812 272.25537109 745.89086914 C271.33950307 743.35173073 270.42365103 740.81258655 269.5078125 738.2734375 C269.2811578 737.64504156 269.0545031 737.01664562 268.82098007 736.36920738 C265.58763564 727.40457515 262.35644366 718.43916935 259.12651825 709.47330475 C257.0431545 703.69036508 254.95925501 697.9076185 252.875 692.125 C252.64641296 691.49080139 252.41782593 690.85660278 252.18231201 690.20318604 C245.07869357 670.49611087 237.93673964 650.80318568 230.76895142 631.11935425 C224.16699268 612.98730154 217.6041105 594.84138668 211.0625 576.6875 C209.21234325 571.55334805 207.36212108 566.41921969 205.51171875 561.28515625 C205.16857006 560.33305393 205.16857006 560.33305393 204.81848907 559.36171722 C192.11305335 524.11135041 179.33271932 488.88808187 166.5168457 453.67773438 C162.27119785 442.01088888 158.0349646 430.34073308 153.81640625 418.6640625 C144.62186036 393.21787145 135.36658428 367.79652803 125.98864746 342.41729736 C119.8521863 325.80564973 113.79153005 309.16894514 107.8125 292.5 C100.10681949 271.0193269 92.27057153 249.58877805 84.37957764 228.17555237 C81.73609587 221.00176518 79.09862982 213.82578973 76.46484375 206.6484375 C67.18372743 181.35733925 57.87870545 156.07523939 48.52197266 130.81201172 C46.69432473 125.87680397 44.86888299 120.94078521 43.04443359 116.00439453 C39.76291918 107.12639882 36.47694058 98.25006193 33.1875 89.375 C32.77259686 88.25538313 32.77259686 88.25538313 32.34931183 87.11314774 C23.67415956 63.7077318 14.84645981 40.3677815 5.78979492 17.10693359 C5.39423904 16.08798004 4.99868317 15.06902649 4.59114075 14.01919556 C3.85898954 12.13419953 3.12397126 10.25031357 2.38554382 8.36776733 C2.06801651 7.5499881 1.7504892 6.73220886 1.42333984 5.88964844 C1.14646332 5.18144958 0.86958679 4.47325073 0.58432007 3.74359131 C0 2 0 2 0 0 Z " fill="#A62DCD" transform="translate(676,727)"/>
<path d="M0 0 C14.79458744 11.55489676 22.81260464 31.81188069 27.87182617 49.3034668 C29.41218467 54.55099586 31.4319839 59.16641081 34 64 C34.14695312 62.91203125 34.29390625 61.8240625 34.4453125 60.703125 C36.71493075 45.292593 41.8192153 33.39176999 54.15625 23.22265625 C67.69871065 13.58101307 82.87296705 11.19002542 99.09228516 13.26806641 C115.3370263 16.17787943 130.83223369 24.51221384 140.75 37.75 C149.40834952 50.77779567 152.18403976 65.33098755 149.31640625 80.65234375 C147.27496839 87.77619952 144.14659018 93.8768685 140 100 C146.41986309 97.09740233 152.21517925 94.01180161 157.75 89.625 C173.51657702 77.39869876 193.04974453 69.93440772 213 71 C230.00961677 73.42700699 244.21626499 83.14438016 254.42871094 96.71142578 C264.73650839 111.14648189 271.22563479 128.1540966 271.125 146 C271.12886719 146.68578125 271.13273437 147.3715625 271.13671875 148.078125 C271.12891379 152.16792358 270.71707884 155.98216894 270 160 C268.34916538 179.43113534 273.25190633 199.31555877 281 217 C281.35835937 217.82000488 281.71671875 218.64000977 282.0859375 219.48486328 C288.45836374 233.83106252 296.05530033 247.47451436 304 261 C304.49177734 261.83756836 304.98355469 262.67513672 305.49023438 263.53808594 C318.93778885 286.29619142 334.9095505 307.0264869 353.6875 325.66796875 C359.91514231 331.94820939 366.70426218 340.69382583 367.1328125 349.83203125 C367.08898438 350.54746094 367.04515625 351.26289062 367 352 C342.77590869 359.70626986 309.92209044 349.34135977 288.23193359 338.21655273 C281.58135467 334.50733452 276.28833446 329.41189368 271 324 C270.31679687 323.32839844 269.63359375 322.65679688 268.9296875 321.96484375 C267.60316628 320.65991706 266.29762229 319.33366735 265 318 C265.36609375 318.57363281 265.7321875 319.14726563 266.109375 319.73828125 C267.29479893 321.59826784 268.47664356 323.46053727 269.65625 325.32421875 C271.42567 328.11246702 273.22521159 330.8798773 275.03125 333.64453125 C276.10434747 335.30457064 277.17726343 336.96472737 278.25 338.625 C278.76916992 339.41173096 279.28833984 340.19846191 279.82324219 341.0090332 C283.51275229 346.75219502 287.4053476 353.02759349 286.6875 360.0625 C286.460625 360.701875 286.23375 361.34125 286 362 C281.38761749 363.8563416 277.70813824 361.77686601 273.34082031 360.01879883 C264.73814406 356.3110658 257.38909259 350.67573487 250 345 C248.96617187 344.21109375 247.93234375 343.4221875 246.8671875 342.609375 C240.07048697 337.22623327 234.01679244 331.22627458 228 325 C228.33 326.03125 228.66 327.0625 229 328.125 C230.54401314 334.25693792 230.55990649 340.72575373 230 347 C229.34 347.66 228.68 348.32 228 349 C216.33223849 348.32556292 205.98813073 338.67927507 198 331 C196.69198173 329.91125964 195.3796533 328.82767088 194.0625 327.75 C179.95370627 315.31947004 172.15453663 300.17088792 165 283 C165 294.22 165 305.44 165 317 C164.01 317.33 163.02 317.66 162 318 C143.6208251 306.93254033 137.94262799 279.79284981 133.13818359 260.54785156 C132.29503764 257.01647771 131.48162753 253.48020762 130.6875 249.9375 C130.44515625 248.85702393 130.2028125 247.77654785 129.953125 246.66333008 C127.09891655 233.45959248 125.65018509 220.70316379 125.75 207.1875 C125.75265869 206.13958282 125.75265869 206.13958282 125.75537109 205.07049561 C125.78656876 194.5751796 126.49950518 184.39185672 128 174 C129.34919035 164.12448297 125.34180303 156.7496649 119.421875 148.91015625 C118.29948994 147.59103127 117.15284778 146.29258691 116 145 C116 144.34 116 143.68 116 143 C115.13375 142.731875 114.2675 142.46375 113.375 142.1875 C110.08208036 141.02888013 107.08872125 139.61790161 104 138 C103.97274659 139.7290774 103.95349013 141.45828176 103.9375 143.1875 C103.92009766 144.63189453 103.92009766 144.63189453 103.90234375 146.10546875 C103.99548019 148.86603275 104.41555589 151.30801502 105 154 C105.51634539 160.29941379 104.73696365 164.75591186 101 170 C98.13119242 173.37899379 95.06446537 176.5774699 92.01953125 179.796875 C62.73882228 210.75621154 51.19493446 259.91203252 48.80006409 301.46942139 C47.81894266 315.04249405 42.97195344 326.66018907 37.85546875 339.16015625 C36.92361073 341.47986785 35.99357906 343.80031385 35.06526184 346.1214447 C32.62419845 352.21070979 30.15847226 358.28968139 27.68725586 364.36676025 C25.21969464 370.44739265 22.77595771 376.53757524 20.33007812 382.62695312 C15.31308074 395.10527648 10.26594784 407.57121618 5.20531464 420.0318985 C4.05786141 422.85751559 2.91112038 425.68342034 1.76470947 428.50946045 C-1.81829252 437.34177417 -5.40498199 446.172569 -9 455 C-7.71424072 454.9781665 -6.42848145 454.95633301 -5.10375977 454.93383789 C2.83376198 454.93740008 10.74350073 455.5401982 18.66015625 456.05859375 C20.37631913 456.16858923 22.09250098 456.27828921 23.80870056 456.38771057 C28.31169499 456.67554213 32.81444115 456.9670865 37.31713867 457.25952148 C42.7415948 457.61118254 48.16631956 457.95866901 53.59101772 458.30657291 C57.8226412 458.57801256 62.05421999 458.85008501 66.28565979 459.12437439 C70.11549301 459.3724023 73.94554231 459.61680782 77.77576828 459.85869217 C79.26051755 459.95301989 80.74519086 460.04855071 82.22978592 460.14527512 C91.82059402 460.76883961 101.3696197 461.16776493 110.984375 461.203125 C112.2455011 461.20882507 113.5066272 461.21452515 114.80596924 461.22039795 C117.45445949 461.22975599 120.10296091 461.23634476 122.75146484 461.24023438 C126.70041471 461.2498789 130.64882908 461.2809685 134.59765625 461.3125 C183.64735494 461.64729344 183.64735494 461.64729344 225.85546875 439.625 C228.41729109 436.48921746 229.26382095 433.96156354 230 430 C228.47601225 426.39055533 227.28375102 425.18916735 224 423 C215.48548575 421.18309529 206.79803615 420.8606896 198.125 420.5625 C174.66488716 419.68256958 155.91788627 414.02329366 139 397 C135.84649128 393.45843906 132.90146373 389.74947607 130 386 C133.70526624 381.49331381 138.57919213 379.48149718 143.75 377.0625 C144.68142822 376.62301025 145.61285645 376.18352051 146.57250977 375.73071289 C165.8110696 366.85302373 187.35607902 361.75266604 208 369 C209.155 369.4021875 210.31 369.804375 211.5 370.21875 C232.45459698 377.9002641 249.5347242 388.91864775 259.3125 409.6875 C265.04278733 422.62602208 265.22323003 439.91935436 260.3046875 453.09765625 C250.6464451 474.58290806 232.84245525 487.93762325 211.22070312 496.19140625 C183.59829526 506.24916954 154.52484794 508.20966882 125.375 508.1875 C123.90146561 508.18858765 123.90146561 508.18858765 122.39816284 508.18969727 C101.15505383 508.18800592 79.93998121 507.49703176 58.71435547 506.71166992 C46.4698118 506.26044448 34.2541948 505.82738882 22 506 C22.85722656 506.845625 23.71445313 507.69125 24.59765625 508.5625 C35.48302143 519.34434671 35.48302143 519.34434671 40.2734375 524.99609375 C42.39059694 527.45333989 44.60429404 529.81179854 46.8125 532.1875 C68.09866856 555.66016321 87.64097308 587.19019037 87 620 C86.3327015 631.05213136 82.36123525 641.9931876 73.96875 649.5390625 C62.92650842 657.73310685 49.28124972 659.51412345 35.86083984 657.71289062 C30.88264112 656.93258842 25.94433271 655.96878803 21 655 C19.00127906 654.65908104 17.00174953 654.32266072 15 654 C15.4125 654.42667969 15.825 654.85335937 16.25 655.29296875 C29.23206598 669.34721428 37.78404871 686.80193025 38 706 C37.28039011 714.96847145 32.74172959 722.17759717 26 728 C17.65229384 734.24447551 9.47297292 737.83376481 -0.625 740.1875 C-1.67095337 740.43814209 -1.67095337 740.43814209 -2.73803711 740.69384766 C-15.52053495 743.47894928 -28.85289523 743.17023211 -41.875 743.125 C-42.98521515 743.12367065 -42.98521515 743.12367065 -44.11785889 743.12231445 C-54.77093884 743.10734458 -65.38058995 742.92056805 -76 742 C-75.443125 742.92296875 -74.88625 743.8459375 -74.3125 744.796875 C-50.82942444 784.55740249 -46.27353815 831.44525983 -42.8125 876.625 C-42.72846924 877.72094482 -42.64443848 878.81688965 -42.55786133 879.94604492 C-42.10243329 886.30972858 -41.89601543 892.62050209 -42 899 C-45.38837712 895.18028039 -46.85184244 890.67361694 -48.625 885.96875 C-48.96837402 885.07325439 -49.31174805 884.17775879 -49.66552734 883.25512695 C-50.40088351 881.3352878 -51.13337786 879.4143505 -51.86328125 877.49243164 C-53.00700798 874.48155138 -54.1585651 871.47377832 -55.3125 868.46679688 C-56.84352423 864.47616576 -58.37222098 860.48465981 -59.8984375 856.4921875 C-66.79837645 838.45049294 -73.7161009 820.46151174 -82 803 C-82.38478516 802.18128418 -82.76957031 801.36256836 -83.16601562 800.51904297 C-92.80130179 780.14853413 -104.38614296 759.53034463 -121 744 C-125.35785512 752.46362687 -129.28549715 761.04915833 -133 769.8125 C-133.52623945 771.04725497 -134.05260764 772.28195508 -134.57910156 773.51660156 C-138.16943205 781.96589088 -141.68092174 790.44027185 -145 799 C-144.11441406 799.42152344 -144.11441406 799.42152344 -143.2109375 799.8515625 C-134.6033567 804.32263804 -130.35646486 811.90221427 -127.3515625 820.953125 C-125.23641911 833.26795986 -127.6475206 844.26042129 -134.26953125 854.67578125 C-140.62876927 863.21697001 -149.35611593 868.20880409 -159.81640625 869.8046875 C-173.50715092 870.64461049 -185.11670725 866.96731368 -195.875 858.375 C-202.35806873 852.269128 -206.58712704 843.6313164 -207.23828125 834.75 C-207.50711828 821.16665517 -204.64425954 811.02317758 -195.1875 801.09765625 C-187.93130391 794.17793699 -180.86778298 791.67355762 -170.875 791.75 C-168.58269939 791.81354893 -166.29054413 791.89005388 -164 792 C-163.89115479 790.91122559 -163.78230957 789.82245117 -163.67016602 788.70068359 C-162.98948589 783.28360739 -161.63314695 778.07044167 -160.27734375 772.7890625 C-160.01240616 771.73971527 -159.74746857 770.69036804 -159.47450256 769.60922241 C-158.63333535 766.27998906 -157.78584754 762.95241026 -156.9375 759.625 C-156.08643584 756.2759605 -155.23675185 752.92658588 -154.38978577 749.57650757 C-153.86375644 747.49693327 -153.3352127 745.4179931 -152.80393982 743.3397522 C-152.56691849 742.4047287 -152.32989716 741.4697052 -152.08569336 740.50634766 C-151.87553085 739.68220367 -151.66536835 738.85805969 -151.44883728 738.00894165 C-150.92731865 736.01776547 -150.92731865 736.01776547 -151 734 C-172.0802704 736.70259877 -190.91233392 743.86649099 -210 753 C-210.78632812 753.36931641 -211.57265625 753.73863281 -212.3828125 754.11914062 C-234.83033877 764.69466662 -255.76970231 778.19012216 -276.8515625 791.2109375 C-282.65566069 794.79265543 -288.4740596 798.3495364 -294.3125 801.875 C-295.12452881 802.3690332 -295.93655762 802.86306641 -296.77319336 803.37207031 C-300.43273513 805.5735226 -303.94478516 807.59160203 -308 809 C-306.33923167 804.8531118 -303.34020551 801.93280675 -300.3125 798.75 C-299.21537208 797.58015226 -298.11901323 796.40958276 -297.0234375 795.23828125 C-296.49717773 794.67705566 -295.97091797 794.11583008 -295.42871094 793.53759766 C-293.72516979 791.70422408 -292.07271737 789.83195915 -290.4375 787.9375 C-283.7960829 780.27557247 -276.93104398 772.83437517 -269.6953125 765.73046875 C-267.79422399 763.84210995 -267.79422399 763.84210995 -265.5 760.9375 C-262.88660191 757.86675724 -260.08977659 755.38354824 -257.02734375 752.77734375 C-255.14964868 751.13119489 -253.41872302 749.42264884 -251.6875 747.625 C-247.1303497 743.00612757 -242.07553856 739.02999085 -237 735 C-236.02160156 734.20464844 -235.04320312 733.40929688 -234.03515625 732.58984375 C-221.1973434 722.3746358 -207.34027889 714.25603807 -192.37890625 707.55859375 C-188.97034589 706.0923087 -188.97034589 706.0923087 -186 704 C-187.02996094 703.35675781 -188.05992188 702.71351563 -189.12109375 702.05078125 C-214.07806253 686.28848518 -247.85453292 664.75212326 -257.41015625 634.984375 C-259.30103865 625.4172614 -259.37713318 615.41343236 -254 607 C-253.62230469 606.34 -253.24460937 605.68 -252.85546875 605 C-242.48966408 588.96588523 -221.15602967 583.86822826 -204 579 C-204.87140625 578.6596875 -205.7428125 578.319375 -206.640625 577.96875 C-221.89738665 571.7603708 -238.38294927 562.36859435 -245.9609375 547.05859375 C-249.76408757 537.58560987 -249.17034983 526.89260831 -245.25390625 517.5859375 C-234.03866819 494.45669266 -209.49845684 480.08151943 -185.9140625 471.62109375 C-166.13158846 464.91333553 -145.60046057 461.93391858 -125 459 C-123.70392822 458.81477783 -122.40785645 458.62955566 -121.07250977 458.4387207 C-119.55161743 458.22155396 -119.55161743 458.22155396 -118 458 C-118.95777344 457.34515625 -119.91554688 456.6903125 -120.90234375 456.015625 C-141.95659662 441.59600327 -162.67534897 426.72143623 -183.19140625 411.546875 C-186.43854532 409.14649856 -189.69703702 406.76278213 -192.96484375 404.390625 C-205.06453741 395.5880201 -216.46125275 386.32644058 -227.52734375 376.25 C-229.27998238 374.65518191 -231.04423185 373.0730813 -232.81640625 371.5 C-238.29328259 366.61179472 -243.37484457 361.6991978 -248 356 C-248.60279785 355.27369385 -248.60279785 355.27369385 -249.21777344 354.53271484 C-266.81772631 333.27521151 -280.39197759 308.37483416 -278 280 C-276.01417616 265.58504661 -268.76533667 252.68094509 -258 243 C-246.3768142 234.21293711 -234.18526777 229.5958328 -219.625 229.625 C-218.33722656 229.62741699 -218.33722656 229.62741699 -217.0234375 229.62988281 C-194.84501988 230.0432963 -172.82917031 237.22239051 -157 253 C-156.24976563 253.72703125 -155.49953125 254.4540625 -154.7265625 255.203125 C-145.65371173 264.56248685 -132 283.34832581 -132 297 C-155.52785271 302.35049645 -175.75951704 303.0341723 -197 290 C-202.7109033 286.30075322 -208.27785346 282.3956687 -213.84863281 278.49023438 C-223.56141218 271.03212579 -223.56141218 271.03212579 -235 269 C-238.08088544 270.7460079 -238.08088544 270.7460079 -240 274 C-242.36798941 286.21971894 -236.44210542 299.02553698 -230 309 C-227.26890873 312.60831544 -224.183403 315.79586787 -221 319 C-219.602716 320.43475115 -218.20559553 321.86966156 -216.80859375 323.3046875 C-208.88123259 331.39067982 -200.94226676 339.04766743 -192 346 C-190.8003948 346.98464901 -189.60401674 347.97323727 -188.41015625 348.96484375 C-173.46976016 361.34883435 -157.62017866 372.3711005 -141.56982422 383.25585938 C-138.96176992 385.02594677 -136.35744416 386.80140241 -133.75390625 388.578125 C-120.64798145 397.51563761 -107.50631269 406.40042857 -94.35913086 415.27709961 C-92.4236078 416.58410736 -90.48838251 417.89155618 -88.5534668 419.19946289 C-85.80611374 421.05624392 -83.05751632 422.91116865 -80.30859375 424.765625 C-79.0786393 425.5975235 -79.0786393 425.5975235 -77.82383728 426.44622803 C-72.94410794 429.73462014 -68.01301365 432.91845979 -63 436 C-62.65327492 434.47273285 -62.65327492 434.47273285 -62.29954529 432.91461182 C-59.83528063 422.18279339 -57.0264196 411.57993131 -54.03515625 400.984375 C-53.55996396 399.2911851 -53.08505669 397.59791519 -52.6104126 395.90457153 C-51.35668891 391.43582995 -50.0982904 386.96841965 -48.8383522 382.5014267 C-48.05879735 379.7368692 -47.28026247 376.97202643 -46.50204468 374.20709229 C-43.45791821 363.39252213 -40.40599871 352.58017432 -37.34838867 341.76940918 C-36.13571142 337.48131696 -34.92593599 333.19241124 -33.71679688 328.90332031 C-32.18874651 323.48632005 -30.65265037 318.07169729 -29.10665894 312.65979004 C-28.5833684 310.8248245 -28.06257489 308.98914475 -27.54446411 307.15270996 C-26.84594578 304.68025161 -26.13745956 302.21088463 -25.42578125 299.7421875 C-25.23510071 299.05955841 -25.04442017 298.37692932 -24.84796143 297.6736145 C-22.67630798 290.23948103 -19.0043611 283.8574858 -14.9375 277.3125 C0.30963627 252.29846921 17.31580408 222.20067297 22 193 C22.20109375 191.82824219 22.4021875 190.65648437 22.609375 189.44921875 C24.49980136 177.14867426 24.36406484 165.24181676 23.23828125 152.875 C21.87666531 136.44632239 21.87666531 136.44632239 27 130 C29.46837382 127.5720251 32.0040348 125.29888218 34.66015625 123.078125 C36.79499237 121.18207689 38.38950307 119.34446111 40 117 C32.4620822 114.24222519 26.78302282 113.53762918 19.125 116.125 C18.14080078 116.42664063 18.14080078 116.42664063 17.13671875 116.734375 C10.32067318 118.939957 3.1473201 121.41030762 -0.64453125 127.828125 C-1.38823586 129.29157595 -2.1101317 130.76626687 -2.8125 132.25 C-15.57148934 156.99991279 -34.12917174 177.00697007 -56 194 C-56.72106934 194.56122559 -57.44213867 195.12245117 -58.18505859 195.70068359 C-86.29379931 217.45844799 -86.29379931 217.45844799 -102 222 C-102.96099609 222.29197266 -102.96099609 222.29197266 -103.94140625 222.58984375 C-106.57654192 223.11487078 -109.06545267 223.0944589 -111.75 223.0625 C-112.73484375 223.05347656 -113.7196875 223.04445313 -114.734375 223.03515625 C-115.85585937 223.01775391 -115.85585937 223.01775391 -117 223 C-116.55568215 218.06622052 -114.03539233 215.01399938 -111 211.3125 C-110.51104248 210.70325684 -110.02208496 210.09401367 -109.51831055 209.46630859 C-105.20327029 204.13666399 -100.67873623 199.01375685 -96 194 C-97.02738281 194.51949219 -98.05476563 195.03898438 -99.11328125 195.57421875 C-102.72964688 197.39861255 -106.35710639 199.19991135 -109.98779297 200.99560547 C-111.62717192 201.81390261 -113.25488547 202.65553719 -114.87890625 203.50390625 C-129.42400947 210.76507672 -146.30241852 212.17232829 -162.3125 212.25 C-163.8893457 212.2809375 -163.8893457 212.2809375 -165.49804688 212.3125 C-173.06505311 212.34970716 -179.75335718 211.15328815 -187 209 C-186.87538751 203.01860056 -184.99684299 200.25320776 -180.984375 195.89453125 C-178.76464327 193.77529918 -176.42171371 191.88309118 -174 190 C-174.81597656 190.0721875 -175.63195313 190.144375 -176.47265625 190.21875 C-227.28299163 194.19953797 -227.28299163 194.19953797 -240 185 C-240.60327148 182.92529297 -240.60327148 182.92529297 -241 181 C-235.44654674 175.47766942 -230.24515602 172.41573408 -222.875 169.875 C-221.96081299 169.54371094 -221.04662598 169.21242188 -220.10473633 168.87109375 C-217.40866795 167.8976779 -214.70519086 166.9477075 -212 166 C-210.50581876 165.46285763 -209.01226702 164.92395892 -207.51953125 164.3828125 C-204.35252804 163.23733384 -201.17916451 162.11137179 -198 161 C-199.12535156 161.15597656 -200.25070312 161.31195312 -201.41015625 161.47265625 C-234.18644416 165.74298348 -265.72342656 154.17137576 -291.97265625 134.5234375 C-294.73026478 132.3146405 -297.29088346 130.11662429 -299 127 C-298.8359375 125.06640625 -298.8359375 125.06640625 -298 123 C-296.13671875 121.4375 -296.13671875 121.4375 -293.6875 120 C-292.90761719 119.525625 -292.12773438 119.05125 -291.32421875 118.5625 C-282.23046481 114.28811507 -273.1667544 112.34351307 -263.25 111.125 C-229.9543241 106.55042382 -199.45892105 94.69027643 -169 81 C-167.31916284 80.25876885 -165.63819435 79.51783535 -163.95703125 78.77734375 C-147.17753123 71.27335103 -132.27641545 61.74255313 -119 49 C-118.48324707 48.50918945 -117.96649414 48.01837891 -117.43408203 47.51269531 C-111.61475875 41.88944344 -107.36234744 36.20506154 -103.625 29.0625 C-94.06458182 10.92465139 -76.87545043 -0.11211633 -58 -7 C-57.07316406 -7.3403125 -56.14632813 -7.680625 -55.19140625 -8.03125 C-36.94102663 -13.62285567 -15.73260943 -10.72222426 0 0 Z M-111.6875 505.6875 C-112.44879211 505.77614319 -113.21008423 505.86478638 -113.9944458 505.95611572 C-146.83331032 509.81311269 -183.6484328 514.90190544 -209 538 C-208.62768378 540.65893412 -208.17788822 541.8227322 -206.25 543.74389648 C-185.51461297 559.31568616 -160.64543483 564.76506993 -136.04257202 571.46153259 C-125.59690211 574.33227456 -115.29145546 577.62279889 -105 581 C-96.72556938 555.48175767 -88.82257163 529.95209724 -82 504 C-92.01146341 503.73685391 -101.76572856 504.51221464 -111.6875 505.6875 Z M-36 520 C-48.26733595 551.0461672 -48.26733595 551.0461672 -60.125 582.25 C-60.73480713 583.88642456 -60.73480713 583.88642456 -61.35693359 585.5559082 C-63.25309125 590.16263274 -63.25309125 590.16263274 -64 595 C-62.89938232 595.39678955 -61.79876465 595.7935791 -60.66479492 596.20239258 C-55.50320823 598.0655874 -50.34483614 599.93757507 -45.1875 601.8125 C-44.25495392 602.15125153 -43.32240784 602.49000305 -42.36160278 602.83901978 C-30.77940173 607.05396065 -19.30142522 611.4144349 -7.9375 616.1875 C1.28278581 620.03555876 10.15771711 623.18313464 20 625 C21.78470703 625.33064453 21.78470703 625.33064453 23.60546875 625.66796875 C30.58953283 626.84381683 37.0768985 627.86104879 44 626 C43.17269426 602.8354394 26.3438574 581.78160888 11.30078125 565.51171875 C10.05737059 564.15431119 8.82096452 562.78954808 7.62817383 561.38745117 C2.33014903 555.17291448 -3.41593163 549.43248826 -9.19702148 543.67260742 C-10.933936 541.941053 -12.66543889 540.20421641 -14.39648438 538.46679688 C-24.25405801 527.98613784 -24.25405801 527.98613784 -36 520 Z M-230.5625 620.375 C-232.56496394 622.95756492 -233.01737101 624.09554056 -233.625 627.4375 C-231.11855668 641.72422693 -217.45520071 652.54851437 -206.19311523 660.50756836 C-191.20406149 670.75052452 -174.84806052 678.54227108 -158 685.1875 C-156.81317627 685.65728271 -155.62635254 686.12706543 -154.40356445 686.61108398 C-148.87229783 688.73495388 -143.91331144 690.30010415 -138 691 C-137.78559769 690.27131714 -137.57119537 689.54263428 -137.35029602 688.79187012 C-135.30764049 681.85043991 -133.26368099 674.90939554 -131.21833515 667.96875763 C-130.16740517 664.40238991 -129.11694165 660.83588631 -128.06762695 657.26904297 C-126.85511618 653.14768761 -125.64086013 649.02684888 -124.42578125 644.90625 C-124.22959324 644.24036865 -124.03340523 643.5744873 -123.83127213 642.88842773 C-121.24621915 634.12007941 -118.59934592 625.37730214 -115.76635742 616.68554688 C-114.86279531 613.98465224 -114.86279531 613.98465224 -115 611 C-122.98111612 608.87672194 -130.94935542 607.48204633 -139.125 606.375 C-140.03008301 606.25213623 -140.93516602 606.12927246 -141.86767578 606.00268555 C-168.30296985 602.53767997 -209.95909766 599.05785393 -230.5625 620.375 Z M-76 625 C-76.3810791 626.05872314 -76.7621582 627.11744629 -77.15478516 628.20825195 C-84.68620089 649.10120601 -92.38304138 669.89438952 -100.78173828 690.45629883 C-101.06679733 691.15685394 -101.35185638 691.85740906 -101.64555359 692.57919312 C-102.41105332 694.45783463 -103.18177117 696.33434754 -103.95288086 698.21069336 C-105.11715189 700.81550526 -105.11715189 700.81550526 -105 703 C-80.12625851 712.59294467 -53.47203301 719.13189157 -26.75 719.25 C-25.59886719 719.270625 -24.44773437 719.29125 -23.26171875 719.3125 C-12.29163105 719.36197052 -0.1167111 717.90821299 8.65625 710.625 C11.24401768 707.49560652 11.16704195 703.93145157 11 700 C6.96357793 678.80878412 -15.32799419 660.16373516 -32.13574219 648.52050781 C-41.7639487 642.0376009 -51.82151069 636.31763594 -62 630.75 C-63.04534912 630.17644775 -64.09069824 629.60289551 -65.16772461 629.01196289 C-66.14362549 628.48723389 -67.11952637 627.96250488 -68.125 627.421875 C-68.99382812 626.95362305 -69.86265625 626.48537109 -70.7578125 626.00292969 C-73.04704214 624.79584312 -73.04704214 624.79584312 -76 625 Z " fill="#B73DDE" transform="translate(1683,626)"/>
</svg>
