<?xml version="1.0" encoding="UTF-8"?>
<svg version="1.1" xmlns="http://www.w3.org/2000/svg" width="1572" height="1572">
<path d="M0 0 C0.81102173 0.08485657 1.62204346 0.16971313 2.4576416 0.25714111 C96.0502533 10.06644122 186.0648701 36.74617569 314.96508789 102.18237305 C317.2437981 103.54710618 319.52981347 104.89012886 321.82983398 106.21801758 C332.46484564 112.37161414 342.74078941 118.96030398 352.9375 125.8125 C353.72271027 126.33813538 354.50792053 126.86377075 355.31692505 127.40533447 C366.71498289 135.03631007 378.05067057 142.73195096 389 151 C389.57572754 151.43376953 390.15145508 151.86753906 390.74462891 152.31445312 C394.52514129 155.17328371 398.26639834 158.08007243 402 161 C403.13902648 161.8805919 404.27835756 162.76078993 405.41796875 163.640625 C412.08148174 168.80593759 418.57435487 174.12630017 424.9453125 179.64868164 C428.55454137 182.77562526 432.21631866 185.81827075 435.9375 188.8125 C439.62544165 191.8049088 443.02788164 194.90596809 446.32421875 198.3203125 C448.14344456 200.14377893 450.04767911 201.82018279 452 203.5 C454.60647609 205.7455794 457.08934521 208.04551512 459.5 210.5 C461.75011827 212.79029895 464.04788712 214.92838739 466.5 217 C475.41301234 224.69205175 483.87027253 233.25303371 491.46484375 242.24609375 C493.22611488 244.25833482 495.09479839 246.12371986 497 248 C500.8799727 251.83554553 504.45857014 255.85244079 508 260 C508.90594952 261.05364385 509.81222583 262.10700677 510.71875 263.16015625 C513.30957591 266.17237899 515.89136705 269.19222095 518.47119141 272.21386719 C519.89627954 273.87882164 521.32803478 275.53776082 522.76171875 277.1953125 C529.66701665 285.21692289 536.10124722 293.55645617 542.48046875 302 C543.84948237 303.80188939 545.23183908 305.59175403 546.625 307.375 C571.64419116 339.4508861 593.62521118 374.35016538 612.58154297 410.31445312 C613.89714 412.80525645 615.22847049 415.28676934 616.56640625 417.765625 C654.45960132 488.29284411 680.53871039 566.19673479 705.1875 779.125 C705.18689575 780.25618256 705.1862915 781.38736511 705.18566895 782.55282593 C705.1570604 802.4289622 704.64425145 822.19026844 703 842 C702.93683594 842.7621582 702.87367187 843.52431641 702.80859375 844.30957031 C697.17593402 911.21121014 683.30408419 976.67366713 661 1040 C660.53118331 1041.33933213 660.0624322 1042.67868721 659.59375 1044.01806641 C643.47764691 1089.92232864 622.61444971 1134.44943349 597.6640625 1176.21142578 C596.05707537 1178.90435521 594.46442024 1181.60526828 592.875 1184.30859375 C575.10215418 1214.41156677 554.72218648 1243.34975061 532.42822266 1270.27197266 C530.39537731 1272.73154178 528.38702377 1275.21088815 526.375 1277.6875 C518.9126215 1286.78099949 511.3683263 1295.74917759 503.32299805 1304.33544922 C500.77906859 1307.05269745 498.29928442 1309.80585037 495.87573242 1312.63134766 C491.79459064 1317.30263085 487.45677677 1321.68725894 483.06640625 1326.06640625 C482.22963852 1326.90413071 481.39287079 1327.74185516 480.53074646 1328.60496521 C478.77131896 1330.36506935 477.01064347 1332.12392677 475.2487793 1333.8815918 C472.57030589 1336.55470972 469.89721127 1339.23312251 467.22460938 1341.91210938 C465.50552885 1343.63052903 463.78613811 1345.34863842 462.06640625 1347.06640625 C461.27657852 1347.85825821 460.48675079 1348.65011017 459.67298889 1349.46595764 C455.47498296 1353.64649711 451.20002544 1357.67323029 446.70477295 1361.53334045 C444.31332865 1363.59076083 442.00455766 1365.73451439 439.6875 1367.875 C434.80112002 1372.32688655 429.76464457 1376.5330313 424.61962891 1380.68066406 C422.81015192 1382.15464863 421.01966395 1383.64990254 419.23046875 1385.1484375 C408.44062335 1394.16510396 397.32749902 1402.67148796 386 1411 C384.86111328 1411.84111328 384.86111328 1411.84111328 383.69921875 1412.69921875 C371.72595851 1421.52713917 359.46018219 1429.87565661 347 1438 C346.22076172 1438.50885742 345.44152344 1439.01771484 344.63867188 1439.54199219 C274.0051165 1485.4507769 195.50431808 1519.08886026 -28 1562 C-28.65518616 1562.04236786 -29.31037231 1562.08473572 -29.9854126 1562.12838745 C-45.69303006 1563.122992 -61.39018987 1563.20073716 -77.125 1563.1875 C-77.78633186 1563.18723312 -78.44766373 1563.18696625 -79.12903595 1563.18669128 C-100.15739013 1563.1760574 -121.04482246 1562.88806872 -142 1561 C-142.72012268 1560.93683594 -143.44024536 1560.87367187 -144.18218994 1560.80859375 C-229.04397444 1553.34640822 -311.81606334 1532.91110506 -473 1457 C-474.3912207 1456.17967285 -474.3912207 1456.17967285 -475.81054688 1455.34277344 C-519.35646118 1429.55705285 -561.06359344 1399.39801532 -598.48828125 1365.265625 C-600.59179554 1363.36820931 -602.71511357 1361.50059836 -604.8515625 1359.640625 C-616.0082886 1349.89260922 -626.57743537 1339.52221157 -637.0625 1329.0625 C-637.55509308 1328.57249512 -638.04768616 1328.08249023 -638.5552063 1327.57763672 C-643.68550684 1322.46863795 -648.7151275 1317.31706344 -653.4284668 1311.81665039 C-655.98850853 1308.85731055 -658.69048589 1306.03345467 -661.375 1303.1875 C-666.02189776 1298.22161297 -670.44295448 1293.14749092 -674.6953125 1287.8359375 C-676.87891644 1285.14899434 -679.11902301 1282.52634971 -681.38769531 1279.91162109 C-687.01914559 1273.4196625 -692.40042918 1266.78216831 -697.56298828 1259.90966797 C-699.18963846 1257.7479864 -700.82737024 1255.59489967 -702.46484375 1253.44140625 C-727.51603668 1220.39152634 -750.17069881 1185.57325537 -769.49121094 1148.86181641 C-770.97337531 1146.05050075 -772.47334413 1143.2493217 -773.9765625 1140.44921875 C-786.84744947 1116.32160846 -798.09664619 1091.48534093 -808 1066 C-808.60956543 1064.43958984 -808.60956543 1064.43958984 -809.23144531 1062.84765625 C-833.74358787 999.66430568 -849.61251837 933.80693446 -857.25 866.5 C-857.3272229 865.83095642 -857.4044458 865.16191284 -857.48400879 864.47259521 C-858.0699381 859.32168584 -858.55761174 854.16512928 -859 849 C-859.08720306 847.98539703 -859.17440613 846.97079407 -859.26425171 845.92544556 C-860.99707695 825.01853642 -861.36463112 804.19924184 -861.31805801 783.23048782 C-861.31241089 780.64673042 -861.30959464 778.06297961 -861.30697632 775.47921753 C-861.26977013 750.21487201 -860.8469533 725.12798764 -858 700 C-857.82123622 698.37370372 -857.64252678 696.74740147 -857.46386719 695.12109375 C-848.69372351 616.4572474 -828.53173156 539.51014194 -720.27783203 330.74462891 C-718.83348253 328.77265306 -717.41388171 326.78412355 -715.99609375 324.79296875 C-705.52770509 310.11905754 -694.56106139 295.83234955 -683 282 C-682.57122559 281.48630859 -682.14245117 280.97261719 -681.70068359 280.44335938 C-676.26144991 273.93711746 -670.73894385 267.52718424 -665.03515625 261.25 C-663.22622457 259.25010625 -661.45108199 257.22730568 -659.6875 255.1875 C-650.16333647 244.29186841 -640.10766424 233.94630439 -629.86230469 223.73193359 C-627.73515216 221.61018991 -625.61346439 219.48308509 -623.4921875 217.35546875 C-622.11490417 215.9788456 -620.73731101 214.60253234 -619.359375 213.2265625 C-618.738349 212.60351227 -618.117323 211.98046204 -617.47747803 211.33853149 C-613.70557352 207.58639932 -609.81699659 204.02078713 -605.78614807 200.54803467 C-603.19419614 198.30161876 -600.69733915 195.96283619 -598.1875 193.625 C-593.54442811 189.33569297 -588.76558383 185.27321381 -583.83984375 181.30859375 C-581.28158922 179.22891228 -578.76816397 177.10905124 -576.26416016 174.96508789 C-569.91226939 169.5299356 -563.41178115 164.34469803 -556.73632812 159.31103516 C-554.92899644 157.94638792 -553.12848186 156.57305128 -551.328125 155.19921875 C-535.98357258 143.53868508 -520.15765757 132.50410786 -504 122 C-503.31744141 121.5551123 -502.63488281 121.11022461 -501.93164062 120.65185547 C-426.99053571 72.0144702 -343.22692327 36.69329053 -158.13354492 0.22003174 C-156.00562038 0.00057963 -153.8788336 -0.22819428 -151.75195312 -0.45751953 C-101.97862833 -5.71005163 -49.75200065 -5.34741855 0 0 Z M-391 102 C-391.95358398 102.44666016 -392.90716797 102.89332031 -393.88964844 103.35351562 C-448.608269 129.0686575 -500.65713102 160.96786882 -547.28076172 199.58056641 C-549.69305718 201.57220029 -552.12995367 203.53318419 -554.5625 205.5 C-566.10999288 214.97619371 -577.19670317 224.91544016 -588.05566406 235.16894531 C-590.08009018 237.07542395 -592.1131407 238.97232144 -594.1484375 240.8671875 C-608.27078734 253.99298905 -608.27078734 253.99298905 -621.35546875 268.13671875 C-623.00398752 270.00451793 -624.72303581 271.75455624 -626.5 273.5 C-630.2121233 277.1630644 -633.59962071 281.04854635 -637 285 C-637.94590785 286.08264913 -638.89258723 287.16462443 -639.83984375 288.24609375 C-651.91620946 302.05861242 -663.58189127 316.12645296 -674.45507812 330.90917969 C-676.05660166 333.07660187 -677.67523779 335.23040606 -679.296875 337.3828125 C-732.73350948 408.62149313 -772.26891527 490.54770323 -818.00169373 883.27362061 C-811.6900883 927.02563079 -801.79845365 969.99785717 -788 1012 C-787.61763184 1013.17159668 -787.23526367 1014.34319336 -786.84130859 1015.55029297 C-771.9480765 1060.87455692 -752.37988806 1104.92693427 -728.57421875 1146.26171875 C-727.11244908 1148.80439999 -725.66355368 1151.35390228 -724.21875 1153.90625 C-714.02635003 1171.82920768 -702.86420405 1189.1413116 -691 1206 C-690.6095752 1206.55993652 -690.21915039 1207.11987305 -689.81689453 1207.69677734 C-677.14053567 1225.87389472 -663.45014779 1243.28525965 -649.09130859 1260.1550293 C-646.10884684 1263.66420782 -643.19755937 1267.22231424 -640.3125 1270.8125 C-637.11831705 1274.74117422 -633.78945732 1278.37089272 -630.1171875 1281.85546875 C-628.28246162 1283.71389035 -626.59702859 1285.61367262 -624.89868164 1287.59472656 C-620.94596975 1292.1250143 -616.75967123 1296.38465658 -612.50390625 1300.62890625 C-611.71153061 1301.42223862 -610.91915497 1302.21557098 -610.10276794 1303.03294373 C-608.43749717 1304.69889081 -606.77097971 1306.36359256 -605.10327148 1308.02709961 C-602.56965378 1310.55536134 -600.04141833 1313.08891661 -597.51367188 1315.62304688 C-595.88573717 1317.2503207 -594.25749225 1318.87728425 -592.62890625 1320.50390625 C-591.88282608 1321.25201065 -591.13674591 1322.00011505 -590.36805725 1322.77088928 C-585.73737341 1327.38123132 -580.95366584 1331.74067141 -576 1336 C-574.39231627 1337.45445517 -572.78760285 1338.91220895 -571.1875 1340.375 C-566.94423992 1344.20036325 -562.59140503 1347.8509409 -558.1484375 1351.44140625 C-555.82188546 1353.32262409 -553.52033191 1355.23129752 -551.2265625 1357.15234375 C-509.7799447 1391.78283318 -463.93085587 1420.95847587 -415.89160156 1445.52050781 C-413.97211803 1446.50261438 -412.05477222 1447.48891092 -410.13964844 1448.47949219 C-382.28191312 1462.87819218 -353.51782408 1474.51836611 -324 1485 C-323.02577087 1485.34708008 -323.02577087 1485.34708008 -322.03186035 1485.70117188 C-260.4441016 1507.60184673 -195.18153959 1520.52900629 -130 1525 C-128.25964478 1525.13027588 -128.25964478 1525.13027588 -126.48413086 1525.26318359 C-110.82691264 1526.34366175 -95.12416998 1526.24577995 -79.4375 1526.25 C-78.68421543 1526.25044186 -77.93093086 1526.25088371 -77.15481949 1526.25133896 C-52.3267609 1526.25896053 -27.70202097 1525.69380973 -3 1523 C-1.80799988 1522.87271515 -1.80799988 1522.87271515 -0.59191895 1522.74285889 C24.48787739 1520.05221268 49.28451119 1516.01848239 74 1511 C74.68753357 1510.86055969 75.37506714 1510.72111938 76.08343506 1510.57745361 C135.2854715 1498.49704531 192.52612692 1477.93843574 247 1452 C248.02029297 1451.51547363 249.04058594 1451.03094727 250.09179688 1450.53173828 C262.85574255 1444.42536099 275.13674775 1437.52165414 287.40380859 1430.47949219 C289.67155005 1429.18717385 291.94887752 1427.91745435 294.23828125 1426.6640625 C305.82884234 1420.30907679 316.91650902 1413.19586222 328 1406 C328.60295898 1405.6095752 329.20591797 1405.21915039 329.82714844 1404.81689453 C333.25151371 1402.5922514 336.63224751 1400.30931599 340 1398 C341.03761475 1397.29037109 341.03761475 1397.29037109 342.09619141 1396.56640625 C361.054261 1383.56477059 379.32007357 1369.69089138 397 1355 C397.58217285 1354.51692383 398.1643457 1354.03384766 398.76416016 1353.53613281 C405.41091421 1348.0056419 411.91143385 1342.34716751 418.26953125 1336.484375 C420.44616916 1334.50391475 422.64350028 1332.5602123 424.86328125 1330.62890625 C435.12863542 1321.66974526 444.91403593 1312.1780103 454.5625 1302.5625 C455.29968262 1301.82990967 456.03686523 1301.09731934 456.79638672 1300.3425293 C460.80544767 1296.32206082 464.63421253 1292.20510701 468.34057617 1287.90454102 C470.93830389 1284.92309715 473.66201419 1282.06363859 476.375 1279.1875 C481.02639178 1274.21681045 485.4515005 1269.13778808 489.70703125 1263.8203125 C491.83451082 1261.20354887 494.01960911 1258.65571036 496.2355957 1256.11450195 C503.55755528 1247.70422274 510.3237726 1238.92751338 517 1230 C517.55945312 1229.25621094 518.11890625 1228.51242187 518.6953125 1227.74609375 C570.53805609 1158.74079806 611.38123325 1080.54682971 667 829 C667.08540039 827.72334473 667.17080078 826.44668945 667.25878906 825.13134766 C668.1819078 810.43049601 668.24329629 795.72566268 668.25 781 C668.25044186 780.33295799 668.25088371 779.66591599 668.25133896 778.97866058 C668.2720248 719.16125972 661.23787328 660.11442571 647 602 C646.83713501 601.33415894 646.67427002 600.66831787 646.50646973 599.9822998 C628.49372149 526.65564133 599.11374613 455.06968043 559 391 C558.44070801 390.10345703 557.88141602 389.20691406 557.30517578 388.28320312 C536.67841153 355.30314089 513.67983258 324.21503178 488.40771484 294.65039062 C486.89817212 292.88061802 485.39617027 291.10460722 483.89453125 289.328125 C477.04539357 281.24523552 477.04539357 281.24523552 469.6574707 273.65844727 C468.08218382 272.08223224 466.66506472 270.45341886 465.234375 268.74609375 C459.82715866 262.52818642 453.92674369 256.77801951 448.09399414 250.96362305 C446.0673702 248.94235732 444.04614453 246.91580426 442.02539062 244.88867188 C435.8509384 238.71103344 429.66469822 232.65223687 423 227 C421.04522824 225.22637967 419.11900858 223.42413946 417.1875 221.625 C412.54095872 217.33248792 407.7590076 213.26661969 402.828125 209.30078125 C400.32170018 207.26171465 397.86383482 205.17595849 395.41650391 203.06665039 C388.20951442 196.86995578 380.69296591 191.16370436 373.04833984 185.52050781 C371.01823918 184.01353917 369.00136453 182.49054634 366.98828125 180.9609375 C345.95142064 164.99003328 323.84831542 150.25269397 301 137 C300.24106445 136.55624023 299.48212891 136.11248047 298.70019531 135.65527344 C285.96808098 128.22108588 273.05146142 121.20572142 259.92382812 114.49560547 C257.99063695 113.50673363 256.0596008 112.51363629 254.13085938 111.51611328 C179.91475048 73.15594657 97.66365041 49.22989631 -391 102 Z " fill="#000000" transform="translate(866,5)"/>
<path d="M0 0 C0.78157471 0.57572754 1.56314941 1.15145508 2.3684082 1.74462891 C25.8023015 18.48003527 54.01018592 28.8523325 80.67651367 39.33422852 C81.3382962 39.59713684 82.00007874 39.86004517 82.68191528 40.13092041 C84.4787844 40.84456689 86.27848823 41.55106406 88.07836914 42.25708008 C90.66918945 43.47119141 90.66918945 43.47119141 91.66918945 45.47119141 C91.02594727 45.6162915 90.38270508 45.7613916 89.7199707 45.91088867 C57.96674181 53.17823341 29.63474845 66.04380169 11.48461914 94.31640625 C1.76641919 110.18055295 -2.18705669 127.99267023 1.3293457 146.43603516 C4.59252084 159.22033602 11.44782968 169.21660151 20.66918945 178.47119141 C21.20930664 179.03451172 21.74942383 179.59783203 22.3059082 180.17822266 C31.04213673 188.51835014 43.56027109 193.29247607 55.48168945 193.78369141 C69.10622952 193.44571832 80.70242593 188.07285081 90.47387695 178.79150391 C96.99095493 171.90334675 100.65719621 163.51141621 101.04418945 153.97119141 C100.58116316 143.82023044 96.41137035 136.00067581 89.66918945 128.47119141 C89.00918945 128.47119141 88.34918945 128.47119141 87.66918945 128.47119141 C87.99532227 128.93267578 88.32145508 129.39416016 88.6574707 129.86962891 C93.97884246 137.81244338 96.51089139 145.26658104 95.23950195 154.86962891 C93.51193344 162.75018117 88.83303468 169.47735228 82.3059082 174.17041016 C71.94614535 180.66294742 60.75683884 182.28872128 48.7590332 179.88916016 C41.77734241 177.46603768 36.77926559 172.66097411 31.66918945 167.47119141 C31.08008789 166.88080078 30.49098633 166.29041016 29.8840332 165.68212891 C20.78095482 155.85732308 18.04500908 143.87230985 18.3605957 130.82666016 C19.20355974 114.80334783 28.37110358 101.26221032 39.66918945 90.47119141 C64.77738136 68.49744218 95.92642452 61.54275195 128.66918945 63.47119141 C146.8911231 64.8149007 163.72526448 70.8237238 180.84109497 76.77311707 C190.50886252 80.12667618 200.22808018 83.32152814 209.95407104 86.50158691 C213.0943909 87.5296651 216.23249953 88.564308 219.37060547 89.59912109 C229.16893284 92.81450116 238.97541766 95.9047194 248.9152832 98.65478516 C249.78642258 98.89898697 250.65756195 99.14318878 251.55509949 99.39479065 C255.60764921 100.5292618 259.66333209 101.63086504 263.74121094 102.6706543 C273.66792471 105.32439117 273.66792471 105.32439117 276.17919922 108.20068359 C277.01349704 110.31257462 277.35015469 112.22526474 277.66918945 114.47119141 C278.1821946 116.14999573 278.71858936 117.82178017 279.2746582 119.48681641 C279.80490189 121.23072897 280.33221552 122.97553495 280.85668945 124.72119141 C281.26564453 126.04763672 281.26564453 126.04763672 281.68286133 127.40087891 C281.9400293 128.25423828 282.19719727 129.10759766 282.4621582 129.98681641 C282.69443115 130.7528418 282.9267041 131.51886719 283.16601562 132.30810547 C283.66918945 134.47119141 283.66918945 134.47119141 283.66918945 138.47119141 C281.69367045 137.49000237 279.72542024 136.50087199 277.7746582 135.47119141 C277.14172852 135.14119141 276.50879883 134.81119141 275.85668945 134.47119141 C275.23149414 134.14119141 274.60629883 133.81119141 273.9621582 133.47119141 C262.457168 128.4536829 248.31178173 128.9470167 236.6262207 133.15087891 C222.83027175 139.310761 212.065272 149.410535 206.45043945 163.53759766 C200.05807866 182.50921129 202.75603776 201.7423878 211.1652832 219.65869141 C222.90123034 241.27309764 243.59873193 254.58293366 266.66918945 261.47119141 C277.53712394 264.42368524 287.81962229 265.64026693 299.04418945 265.59619141 C300.02129883 265.60005859 300.9984082 265.60392578 302.00512695 265.60791016 C308.28481807 265.5995595 314.43479548 265.22246754 320.66918945 264.47119141 C323.73424106 271.00038368 325.62217966 277.79350735 327.59887695 284.71728516 C327.98453025 286.05540865 328.37061486 287.3934079 328.75709534 288.73129272 C329.58740126 291.60852388 330.41498791 294.48651772 331.240448 297.36514282 C332.56623044 301.9880364 333.89842164 306.60906727 335.23193359 311.22973633 C335.69154568 312.82246338 336.15115564 314.41519105 336.61076355 316.00791931 C336.95558808 317.20281133 336.95558808 317.20281133 337.30737877 318.42184258 C338.01474444 320.87380092 338.72153064 323.32592566 339.42817688 325.77809143 C344.06937574 341.88050922 348.75816201 357.96891574 353.45587921 374.0549202 C354.55067026 377.80415247 355.64481601 381.55357304 356.73901367 385.30297852 C358.28154058 390.58844115 359.82426373 395.87384642 361.36723709 401.15917873 C364.22062882 410.93333634 367.07228047 420.70800078 369.9230957 430.48291016 C370.24776479 431.59613616 370.24776479 431.59613616 370.57899284 432.73185158 C371.67191606 436.47929886 372.76481235 440.22675399 373.85769653 443.97421265 C375.82593703 450.7231872 377.79441639 457.47209208 379.76287651 464.22100258 C380.85665716 467.9710627 381.95042254 471.72112728 383.04418945 475.47119141 C383.48168938 476.97119143 383.91918938 478.47119143 384.35668945 479.97119141 C385.23168945 482.97119141 386.10668945 485.97119141 386.98168945 488.97119141 C387.19825227 489.71369235 387.41481508 490.45619329 387.63794041 491.22119427 C388.07543752 492.72118465 388.51293434 494.22117511 388.95043087 495.72116566 C390.04422262 499.47131358 391.13801947 503.22146001 392.23182678 506.97160339 C394.20008366 513.71983547 396.16830507 520.46807787 398.13633442 527.2163763 C399.22929199 530.96408249 400.32227965 534.71177989 401.4152832 538.45947266 C401.63172422 539.20160822 401.84816525 539.94374378 402.07116508 540.7083683 C404.48331909 548.97901637 406.89609536 557.24948231 409.31030273 565.51953125 C409.5283683 566.26653479 409.74643387 567.01353832 409.97110748 567.78317833 C410.85278191 570.80337913 411.73447331 573.82357497 412.61624908 576.84374619 C415.01875142 585.07266632 417.4197808 593.30200987 419.81616211 601.53271484 C420.46188951 603.75029866 421.10763347 605.96787765 421.75339508 608.18545151 C422.18394684 609.66401029 422.61446345 611.14257931 423.04494476 612.6211586 C425.77708416 622.00371089 428.52216518 631.38234947 431.28190517 640.75682163 C433.19208225 647.24597742 435.09584914 653.7369909 436.99514866 660.22933865 C438.12469317 664.08899844 439.25783923 667.9475193 440.39968872 671.80355835 C441.45784165 675.37697992 442.50683602 678.95295901 443.54877281 682.53114128 C444.11548764 684.46803283 444.6922343 686.40198027 445.26924133 688.33583069 C445.60280136 689.48748215 445.93636139 690.63913361 446.2800293 691.82568359 C446.57420746 692.82541199 446.86838562 693.82514038 447.17147827 694.85516357 C447.68167154 697.5367987 447.74821937 698.97613868 446.66918945 701.47119141 C444.03076172 702.92822266 444.03076172 702.92822266 440.4855957 704.28369141 C439.84800827 704.53354294 439.21042084 704.78339447 438.55351257 705.04081726 C437.17425292 705.58031076 435.79239573 706.11319963 434.4083252 706.64022827 C430.7060241 708.05363689 427.02667549 709.52468073 423.3449707 710.99072266 C422.60048676 711.28598343 421.85600281 711.5812442 421.08895874 711.88545227 C410.06548459 716.27623506 399.34514373 721.30003692 388.66918945 726.47119141 C387.98860474 726.80052673 387.30802002 727.12986206 386.60681152 727.46917725 C367.70146707 736.63323446 349.11969288 746.09086929 331.13989258 756.98388672 C328.87676124 758.34623811 326.59992894 759.67828886 324.30981445 760.99462891 C305.14382284 772.02092222 286.59757525 784.00672746 269.05981445 797.47509766 C263.83058736 801.47119141 263.83058736 801.47119141 261.66918945 801.47119141 C263.08968112 796.66089007 265.11292601 792.25760468 267.24707031 787.73583984 C291.85919093 735.5623694 308.94284553 677.81279152 315.66918945 620.47119141 C315.75532501 619.74935669 315.84146057 619.02752197 315.9302063 618.28381348 C317.53125337 604.52842335 318.01236177 590.88640069 317.98486328 577.04345703 C317.9817053 573.7377816 318.0052749 570.43300722 318.03051758 567.12744141 C318.08755142 547.92412066 316.3819309 528.86078285 312.48168945 510.03369141 C312.17086426 508.5192041 312.17086426 508.5192041 311.85375977 506.97412109 C302.80819578 464.83503035 283.68186852 425.60391296 254.1340332 394.12353516 C252.17370078 392.01408077 250.30864262 389.88173198 248.48168945 387.65869141 C245.76321761 384.41713168 242.65475808 381.7460429 239.40356445 379.04931641 C237.66918945 377.47119141 237.66918945 377.47119141 235.66918945 374.47119141 C237.2315332 373.48892578 237.2315332 373.48892578 238.82543945 372.48681641 C263.24395439 357.00891619 288.97858842 338.3573686 301.66918945 311.47119141 C301.14711914 312.13763672 300.62504883 312.80408203 300.0871582 313.49072266 C279.09744711 339.77381098 250.93016653 356.88449346 219.66918945 368.47119141 C218.47938477 368.91333984 217.28958008 369.35548828 216.0637207 369.81103516 C182.23000654 381.74168034 144.03044933 382.89578516 111.1496582 367.39697266 C102.44590222 363.08801259 94.8240708 358.09522671 87.66918945 351.47119141 C86.47036133 350.39224609 86.47036133 350.39224609 85.24731445 349.29150391 C74.79495112 339.43541634 66.44192686 325.79111653 65.4465332 311.20947266 C65.05366221 295.40922616 70.51395536 284.2056097 81.2434082 272.73681641 C89.62851394 264.90531669 98.57894346 261.95992182 109.87231445 262.22509766 C120.25264001 263.13845032 128.57358593 267.82837036 135.54418945 275.47119141 C140.95899339 282.12688791 142.66918945 287.92475206 142.66918945 296.47119141 C141.77185328 304.39298733 137.85967332 311.53920984 132.66918945 317.47119141 C140.36185891 311.62476262 145.93637192 304.17496962 147.66918945 294.47119141 C148.80717509 284.15819658 145.46755768 274.9653485 139.48168945 266.60009766 C132.24120316 258.09564717 122.53036318 252.86297001 111.66918945 250.47119141 C101.38358636 249.84936605 92.04276921 249.65692084 82.66918945 254.47119141 C81.83258789 254.89529297 80.99598633 255.31939453 80.1340332 255.75634766 C64.38452178 264.49525739 53.95290245 278.61438332 48.9934082 295.81494141 C44.674804 313.91194948 49.20399308 331.84009568 58.66918945 347.47119141 C73.7163547 369.91281961 96.63369397 385.49102921 122.66918945 392.47119141 C123.68432617 392.76316406 123.68432617 392.76316406 124.7199707 393.06103516 C141.70557592 397.81203625 159.20590239 396.86656363 176.66918945 396.47119141 C173.28690782 400.01879841 169.90576105 402.12538747 165.48168945 404.15869141 C164.38377075 404.66589722 164.38377075 404.66589722 163.26367188 405.18334961 C145.69205822 413.09066604 127.60734859 418.96048052 108.66918945 422.47119141 C107.85111816 422.63345215 107.03304688 422.79571289 106.19018555 422.96289062 C80.75503243 427.88140257 52.04071516 427.53055747 26.66918945 422.47119141 C25.79020996 422.30490234 24.91123047 422.13861328 24.00561523 421.96728516 C-16.74735713 414.12039442 -53.54989805 395.28428375 -83.7097168 366.88134766 C-86.27912311 364.46041622 -86.27912311 364.46041622 -88.9675293 362.37744141 C-92.57308445 359.4691589 -95.35125445 356.0000845 -98.33081055 352.47119141 C-99.04624023 351.67841797 -99.76166992 350.88564453 -100.4987793 350.06884766 C-113.66836698 334.9952232 -122.14143997 313.30431313 -124.33081055 293.47119141 C-124.4390918 292.55337891 -124.54737305 291.63556641 -124.65893555 290.68994141 C-127.3721961 264.69976134 -121.66643977 238.82726025 -105.2980957 218.02880859 C-96.03871298 206.82900237 -83.05345669 198.09558144 -68.33081055 196.47119141 C-54.132353 195.28619116 -40.14249542 199.77376529 -28.80737305 208.38916016 C-21.77145447 214.94119585 -18.81972844 222.25270719 -18.3034668 231.78369141 C-18.39922557 241.19541127 -22.12774687 249.82529107 -28.4440918 256.80712891 C-37.85119947 265.54810288 -45.97005169 267.77472126 -58.6003418 267.63916016 C-62.83402081 267.44853377 -66.31967147 266.7809511 -70.33081055 265.47119141 C-68.60479676 266.29036783 -66.87484585 267.10125156 -65.14331055 267.90869141 C-64.18038086 268.36115234 -63.21745117 268.81361328 -62.2253418 269.27978516 C-53.78778735 272.75273267 -44.36237933 272.42261738 -35.8034668 269.50634766 C-23.48991544 264.3513854 -15.20931909 256.39509529 -9.7487793 244.19384766 C-5.65539575 233.44730627 -5.27912475 223.07618618 -9.5612793 212.40478516 C-16.72752212 197.0540398 -29.0380191 188.3246934 -44.6237793 182.40087891 C-45.51709961 182.09408203 -46.41041992 181.78728516 -47.33081055 181.47119141 C-48.02819336 181.22626953 -48.72557617 180.98134766 -49.4440918 180.72900391 C-65.59182663 176.15119947 -83.91157672 179.91233533 -98.3581543 187.65087891 C-121.10143082 201.5777736 -134.55496089 222.55950983 -141.52612305 248.05322266 C-142.55410371 252.41964536 -143.26290459 256.79359128 -143.83862305 261.24072266 C-144.00104492 261.97677734 -144.1634668 262.71283203 -144.33081055 263.47119141 C-144.99081055 263.80119141 -145.65081055 264.13119141 -146.33081055 264.47119141 C-162.15159857 205.56533245 -154.10832523 145.04041047 -123.8425293 92.15576172 C-109.03514573 67.21205104 -88.78343722 44.50520446 -65.33081055 27.47119141 C-64.33436523 26.72998047 -63.33791992 25.98876953 -62.3112793 25.22509766 C-48.6090021 15.35734733 -33.83834807 7.24261567 -18.33081055 0.59619141 C-16.79976685 -0.07464478 -16.79976685 -0.07464478 -15.23779297 -0.7590332 C-14.27848877 -1.15485596 -13.31918457 -1.55067871 -12.33081055 -1.95849609 C-11.48518555 -2.31153809 -10.63956055 -2.66458008 -9.76831055 -3.02832031 C-5.74492392 -3.85443636 -3.31595776 -2.17497931 0 0 Z M302.66918945 308.47119141 C303.66918945 310.47119141 303.66918945 310.47119141 303.66918945 310.47119141 Z " fill="#000000" transform="translate(275.330810546875,625.52880859375)"/>
<path d="M0 0 C16.00430826 5.69106268 26.19579035 19.87635668 33.73046875 34.31640625 C44.98952982 58.8316369 51.5434144 97.78718686 42.4375 123.6875 C40.98208291 128.10458127 40.80295007 132.24828313 40.86328125 136.85546875 C40.86873962 137.60303436 40.874198 138.35059998 40.87982178 139.12081909 C40.96003134 146.63249408 41.29126695 154.12739984 41.75 161.625 C41.81435242 162.69299332 41.81435242 162.69299332 41.88000488 163.78256226 C46.37631606 237.05455366 59.71204172 311.57548329 92.8515625 377.7421875 C93.315625 378.67812744 93.7796875 379.61406738 94.2578125 380.57836914 C95.13728902 382.33716513 96.03441527 384.08730335 96.953125 385.82592773 C99.82939464 391.55585119 100.97664106 396.58460058 100 403 C96.78201965 410.58017142 89.36725491 414.223983 82.0703125 417.19140625 C71.5626355 420.8895627 61.0705626 422.26582656 50 423 C50.886875 423.639375 51.77375 424.27875 52.6875 424.9375 C57.54753347 428.96833345 60.78058207 434.81491113 62 441 C62.72510491 450.24508761 59.69596657 456.87828289 53.8828125 463.87109375 C48.96115922 469.43603367 44.16718965 473.81182335 37.8203125 477.73828125 C35.8587891 478.88213554 35.8587891 478.88213554 35 481 C35.58910156 481.268125 36.17820312 481.53625 36.78515625 481.8125 C43.93878081 485.64795303 48.27736956 492.54288388 51 500 C51.72407131 504.74668968 51.11456588 508.07637961 48.5234375 512.18359375 C45.25752897 516.07756161 41.02279915 518.93759885 37 522 C29.41332994 528.25317686 23.20647665 534.03434696 21.67578125 544.140625 C21.02897235 557.25523309 25.81130967 569.15358513 31.5625 580.625 C38.95625046 595.4209786 42.61103983 609.42987585 37.375 625.75 C35.13813232 631.29389147 31.9585401 635.56413074 28 640 C27.47277344 640.64324219 26.94554687 641.28648437 26.40234375 641.94921875 C16.38450648 653.19931846 0.99937759 660.21685044 -13 665 C-13.69077637 665.24556641 -14.38155273 665.49113281 -15.09326172 665.74414062 C-41.9211055 675.22055314 -70.6650737 678.96248376 -99 680 C-98.96519531 681.19109375 -98.93039062 682.3821875 -98.89453125 683.609375 C-98.02281661 727.68627611 -108.83891049 771.68975632 -122.375 813.375 C-122.6337088 814.17308075 -122.8924176 814.9711615 -123.15896606 815.79342651 C-123.89796094 818.06015767 -124.64572746 820.32372741 -125.3984375 822.5859375 C-125.6168782 823.24996078 -125.83531891 823.91398407 -126.06037903 824.59812927 C-127.40629589 828.5825089 -129.03928862 832.28116261 -131 836 C-132.66649447 832.66701105 -131.00545569 829.24612495 -130.12109375 825.77734375 C-129.69249348 824.04127157 -129.2642879 822.30510191 -128.83642578 820.56884766 C-128.60795959 819.651297 -128.37949341 818.73374634 -128.144104 817.78839111 C-117.43472117 774.57991198 -110.75477251 731.1580577 -110.8125 686.5625 C-110.81310425 685.69181885 -110.8137085 684.8211377 -110.81433105 683.92407227 C-110.92838841 623.02857055 -126.8702448 568.11286059 -162 518 C-162.51820312 517.26040039 -163.03640625 516.52080078 -163.5703125 515.75878906 C-169.57226634 507.24000605 -175.79826374 498.93258377 -182.25 490.75 C-205.05176879 461.71225035 -205.05176879 461.71225035 -203.4826355 447.9284668 C-202.56795971 442.37852757 -200.89380866 437.05530399 -199.265625 431.6796875 C-198.87591037 430.36882226 -198.48704942 429.05770298 -198.09896851 427.74635315 C-197.26435862 424.93204975 -196.42431358 422.11945072 -195.57989502 419.30807495 C-194.22157835 414.78502477 -192.87598252 410.25825191 -191.53271484 405.73071289 C-191.06847244 404.16639071 -190.60420836 402.60207496 -190.1399231 401.0377655 C-189.90766148 400.25519064 -189.67539986 399.47261578 -189.43610001 398.66632652 C-188.72100315 396.25862564 -188.0046998 393.85128671 -187.28805542 391.44404602 C-182.7727201 376.27242604 -178.33749271 361.07791935 -173.91687012 345.878479 C-171.73147055 338.36471614 -169.54164698 330.85224217 -167.3515625 323.33984375 C-167.13240173 322.58799805 -166.91324097 321.83615234 -166.68743896 321.06152344 C-161.48062656 303.20112939 -156.24100912 285.35038289 -151 267.5 C-143.59177548 242.26779417 -136.20944492 217.02820578 -128.85340118 191.78073883 C-123.643388 173.89902192 -118.42415278 156.0200846 -113.1796875 138.1484375 C-112.93767735 137.32362759 -112.69566719 136.49881767 -112.44632339 135.64901352 C-110.05322847 127.49329561 -107.65877042 119.33798245 -105.25959969 111.18404961 C-104.13066497 107.34687394 -103.00253461 103.5094623 -101.875 99.671875 C-101.65917141 98.93730198 -101.44334282 98.20272896 -101.22097397 97.44589615 C-98.53984001 88.3149359 -95.89626122 79.17472304 -93.3125 70.015625 C-93.04942047 69.08726837 -92.78634094 68.15891174 -92.51528931 67.2024231 C-91.37623564 63.18224179 -90.24668183 59.16015915 -89.14208984 55.13037109 C-88.76969606 53.80813003 -88.3968502 52.48601617 -88.0234375 51.1640625 C-87.72356934 50.07561035 -87.42370117 48.9871582 -87.11474609 47.86572266 C-85.26393798 43.10777574 -82.38423265 39.95695535 -78.1640625 37.16796875 C-77.43711182 36.68352295 -76.71016113 36.19907715 -75.96118164 35.69995117 C-74.80477173 34.95128784 -74.80477173 34.95128784 -73.625 34.1875 C-72.8198999 33.66196533 -72.0147998 33.13643066 -71.18530273 32.5949707 C-68.79881731 31.04932688 -66.40195716 29.52146227 -64 28 C-63.05809814 27.39671875 -63.05809814 27.39671875 -62.09716797 26.78125 C-47.48415328 17.52151792 -30.47175034 10.77044416 -13 11 C-12.9906543 11.5669458 -12.98130859 12.1338916 -12.97167969 12.71801758 C-12.59542588 31.04932437 -10.57395662 48.11962748 -3 65 C-2.35611328 66.46953125 -2.35611328 66.46953125 -1.69921875 67.96875 C2.56782737 77.10383466 8.48615779 87.12250925 16 94 C15.36384766 93.05253906 15.36384766 93.05253906 14.71484375 92.0859375 C1.65045682 72.15915831 -5.34899142 52.02688122 -5.375 28.125 C-5.39949219 26.94808594 -5.42398437 25.77117187 -5.44921875 24.55859375 C-5.47702091 16.13453814 -4.08305169 8.85589813 -1 1 C-0.67 0.67 -0.34 0.34 0 0 Z " fill="#000000" transform="translate(1255,383)"/>
<path d="M0 0 C2.05161727 0.58202135 4.10857243 1.14561956 6.17089844 1.68847656 C7.08049316 1.93645996 7.99008789 2.18444336 8.92724609 2.43994141 C9.72026123 2.64917236 10.51327637 2.85840332 11.33032227 3.07397461 C11.92562744 3.34298584 12.52093262 3.61199707 13.13427734 3.88916016 C14.2351835 7.19187863 14.0862736 7.78141854 13.03295898 10.93432617 C12.76351471 11.75585678 12.49407043 12.57738739 12.21646118 13.42381287 C11.91219208 14.32116653 11.60792297 15.2185202 11.29443359 16.14306641 C10.98194672 17.08871964 10.66945984 18.03437286 10.34750366 19.00868225 C9.66544501 21.0697508 8.97934967 23.12948678 8.2897644 25.18804932 C6.79672838 29.64618862 5.32350944 34.1107955 3.84931946 38.57519531 C3.08015093 40.90428284 2.3100251 43.23305442 1.53898621 45.56152344 C-1.87039214 55.86629033 -5.18993304 66.19831475 -8.48184204 76.54110718 C-15.29025948 97.92973816 -22.19185796 119.28770781 -29.11572266 140.63916016 C-31.09630098 146.74719755 -33.07679755 152.85526144 -35.05712891 158.96337891 C-35.42433422 160.09594085 -35.42433422 160.09594085 -35.79895782 161.25138283 C-40.89829356 176.98010969 -45.97928188 192.71472522 -51.05322266 208.45166016 C-51.46448688 209.72712226 -51.87575194 211.00258409 -52.28701782 212.27804565 C-54.33115371 218.61771414 -56.37490012 224.95750814 -58.41845703 231.29736328 C-62.33727644 243.45470773 -66.2582284 255.61136438 -70.17947769 267.76792526 C-70.80272151 269.70010651 -71.42594391 271.63229468 -72.04916382 273.56448364 C-76.72569981 288.06306694 -81.40468074 302.56085761 -86.08837891 317.05712891 C-86.3057905 317.73003023 -86.5232021 318.40293156 -86.74720192 319.09622383 C-88.9400759 325.88315938 -91.13324739 332.66999872 -93.32680988 339.45671177 C-97.79003836 353.26584728 -102.24993629 367.07604027 -106.69968414 380.88952637 C-107.38568417 383.01899505 -108.07181645 385.14842107 -108.75799561 387.27783203 C-109.20861858 388.6762694 -109.65924114 390.0747069 -110.10986328 391.47314453 C-110.33060642 392.15817551 -110.55134956 392.84320648 -110.77878189 393.54899597 C-111.85061011 396.875485 -112.92201709 400.20210852 -113.99243164 403.52905273 C-114.39341064 404.77517334 -114.79438965 406.02129395 -115.20751953 407.30517578 C-115.59780334 408.51929138 -115.98808716 409.73340698 -116.39019775 410.98431396 C-117.14963035 413.33563799 -117.91456904 415.68519205 -118.68548584 418.03277588 C-120.44062259 423.38373174 -122.12295317 428.72995159 -123.61865234 434.15966797 C-127.42784444 447.58859916 -127.42784444 447.58859916 -131.26367188 451.05810547 C-134.04058782 452.28050459 -136.35828828 452.79034881 -139.36572266 453.13916016 C-140.73277344 453.41373047 -140.73277344 453.41373047 -142.12744141 453.69384766 C-144.7024477 454.19175652 -147.26502177 454.55642577 -149.86572266 454.88916016 C-150.99236328 455.08380859 -152.11900391 455.27845703 -153.27978516 455.47900391 C-168.13861829 457.17854364 -188.79892874 458.6003561 -201.86572266 449.88916016 C-202.58252501 447.04383349 -203.11174741 444.33851674 -203.54931641 441.44775391 C-203.68968826 440.5861113 -203.83006012 439.72446869 -203.97468567 438.8367157 C-204.4317241 436.00208396 -204.86844745 433.16478595 -205.30322266 430.32666016 C-205.61317697 428.3544502 -205.92340052 426.38228254 -206.23388672 424.41015625 C-209.84703257 401.22823523 -212.63382344 378.02186005 -214.55322266 354.63916016 C-214.61425171 353.89845276 -214.67528076 353.15774536 -214.73815918 352.39459229 C-215.15756296 347.22882513 -215.52908984 342.0609635 -215.86572266 336.88916016 C-215.91518036 336.14129242 -215.96463806 335.39342468 -216.01559448 334.62289429 C-217.03834779 318.51681602 -217.05324302 302.39688902 -217.05102539 286.26538086 C-217.05094477 283.24611335 -217.0578023 280.22699965 -217.0715332 277.20776367 C-217.1982655 248.8413226 -216.05585843 220.61738103 -213.11572266 192.38916016 C-213.03335358 191.58206604 -212.9509845 190.77497192 -212.86611938 189.94342041 C-206.7739669 130.67516421 -195.5121665 72.21538313 -177.75097656 15.31811523 C-177.39181152 14.16593506 -177.03264648 13.01375488 -176.66259766 11.82666016 C-176.17678223 10.28365234 -176.17678223 10.28365234 -175.68115234 8.70947266 C-173.43041029 0.9248702 -173.89706437 -5.30362652 -175.86572266 -13.11083984 C-176.19923482 -14.44412846 -176.53259538 -15.77745501 -176.86572266 -17.11083984 C-117.72049781 -23.63009306 -56.99354885 -16.21071481 0 0 Z " fill="#000000" transform="translate(1027.86572265625,194.11083984375)"/>
<path d="M0 0 C0.66 0 1.32 0 2 0 C3.4722059 5.77543164 4.92355732 11.54909515 6.18359375 17.375 C18.74932914 74.51699378 45.28901802 127.84257389 80.67822266 174.24780273 C81.59756916 175.45494606 82.50987638 176.66748943 83.41436768 177.88580322 C84.47250773 179.2966702 85.55297127 180.69106367 86.65481567 182.06806946 C91.90821133 188.96525292 94.30000595 195.99662039 96.6015625 204.26953125 C97.00332738 205.65912287 97.40678251 207.04822675 97.8117981 208.43687439 C98.88370051 212.12887098 99.93268883 215.82700388 100.97715759 219.52684021 C102.06253055 223.35615627 103.16944575 227.17923152 104.27441406 231.00292969 C106.03873193 237.11747861 107.79139762 243.23523634 109.53417969 249.35595703 C111.73260023 257.07577144 113.95704645 264.787723 116.1953125 272.49609375 C119.14517594 282.65979069 122.08012798 292.82764765 125 303 C121.62870653 304.12376449 120.99786681 303.90737133 117.77124023 302.79101562 C116.90988968 302.49844376 116.04853912 302.20587189 115.16108704 301.9044342 C113.74910286 301.41033302 113.74910286 301.41033302 112.30859375 300.90625 C110.25280908 300.20552412 108.19698018 299.50492797 106.14111328 298.80444336 C104.50435638 298.24126907 104.50435638 298.24126907 102.83453369 297.66671753 C83.54538715 291.04182433 64.17083633 284.76147657 44.625 278.9375 C43.58256134 278.62682587 42.54012268 278.31615173 41.46609497 277.99606323 C25.03766912 273.11322129 8.56487987 268.39984332 -8 264 C-6.80366943 264.43006348 -5.60733887 264.86012695 -4.37475586 265.30322266 C26.21502362 276.32329047 56.53211585 287.91778864 86.62350464 300.23588562 C93.23182784 302.92582745 99.87825898 305.44285683 106.59765625 307.83984375 C128.2401857 315.69094186 128.2401857 315.69094186 132.03125 322.08984375 C133.62709028 325.99311913 134.13451159 329.86678876 134.56396484 334.0390625 C135.37801832 339.56696878 137.17696227 344.86632757 138.79708862 350.20233154 C139.72018803 353.27341506 140.59068241 356.35891039 141.4609375 359.4453125 C141.75790527 360.49219238 142.05487305 361.53907227 142.36083984 362.61767578 C143 365 143 365 143 366 C135.4726906 365.39965886 128.5919613 363.24035087 121.3984375 361.01953125 C120.0566232 360.61046093 118.71462857 360.20198174 117.37246704 359.79405212 C113.782517 358.70119978 110.19504885 357.60040706 106.60803223 356.49797058 C102.85333922 355.34539805 99.09650544 354.19984712 95.33984375 353.05371094 C90.0625567 351.44302405 84.78597818 349.83005415 79.51028824 348.21414375 C71.73342103 345.83239004 63.95164526 343.46762149 56.1640625 341.12109375 C-41.65194591 311.62451391 -41.65194591 311.62451391 -87 292 C-87.87914062 291.62246582 -88.75828125 291.24493164 -89.6640625 290.85595703 C-104.38685961 284.47467954 -123.56146483 275.60978335 -130.375 260.06640625 C-131.95397856 254.84590839 -131.71984512 250.01060802 -129.5625 245 C-123.6723338 234.69220915 -113.37191109 228.18595555 -103 223 C-102.98541748 221.95473145 -102.97083496 220.90946289 -102.95581055 219.83251953 C-101.71036586 136.92670055 -75.61049778 72.64078341 -16.453125 14.28515625 C-12.53238152 10.49283577 -8.39671381 7.04593453 -4.109375 3.671875 C-1.9477701 2.02439391 -1.9477701 2.02439391 0 0 Z " fill="#000000" transform="translate(398,334)"/>
<path d="M0 0 C1.27101563 -0.01224609 2.54203125 -0.02449219 3.8515625 -0.03710938 C20.65271348 -0.06336117 20.65271348 -0.06336117 25.75 4.5625 C29.2584641 8.0709641 30.66561021 10.66504097 30.73828125 15.6328125 C30.59238441 22.14479357 28.57862131 27.91963037 26.5625 34.0625 C7.99207296 93.04830859 -2.24873857 154.31565816 -7.42645264 215.8380127 C-7.60939 218.0027809 -7.79852666 220.16691902 -7.98876953 222.33105469 C-11.64549688 265.6341181 -11.58276499 310.92095505 -7.625 354.1875 C-7.4943289 355.68713423 -7.36414178 357.18681069 -7.234375 358.68652344 C-4.09641863 394.50470169 1.39910564 429.92670922 8.375 465.1875 C4.91456793 463.84153745 1.88780842 462.36367791 -1.25 460.375 C-8.78052995 455.81441318 -15.52292933 452.41880855 -24.3125 451.3125 C-28.33152365 450.41307186 -30.13102474 449.76075524 -32.83984375 446.6171875 C-35.09312809 442.57141316 -36.86992648 438.4670054 -38.625 434.1875 C-39.50627424 432.1594871 -40.38919813 430.13219057 -41.2734375 428.10546875 C-67.87123127 366.0179367 -75.07884949 297.03562322 -78.625 230.1875 C-78.66260437 229.490802 -78.70020874 228.794104 -78.73895264 228.07629395 C-88.41165256 46.1344498 -88.41165256 46.1344498 -69.25 18.73046875 C-51.53837311 1.91293841 -23.07181138 0.01177133 0 0 Z " fill="#000000" transform="translate(804.625,175.8125)"/>
<path d="M0 0 C4.15147266 1.84807492 6.20327404 4.57822227 8.8125 8.1875 C13.57447182 14.56648169 18.60485143 19.97910429 24.6875 25.125 C66.24769948 61.05809317 94.88134392 117.22751412 98.859375 171.82373047 C99.62944566 183.74110868 99.62944566 183.74110868 97 189 C96.01 183.555 96.01 183.555 95 178 C93.494375 177.938125 91.98875 177.87625 90.4375 177.8125 C75.6994088 176.56115263 61.09563093 172.67525947 47.11499023 167.96801758 C45.08405617 167.2849782 43.04643861 166.63481794 41 166 C39.9584375 165.67515625 38.916875 165.3503125 37.84375 165.015625 C34.37511266 164.99656655 33.01519752 166.1275329 30.54882812 168.48046875 C29.8130957 169.23263672 29.8130957 169.23263672 29.0625 170 C28.57587891 170.47050781 28.08925781 170.94101563 27.58789062 171.42578125 C26.57637731 172.40945475 25.57450537 173.40312124 24.58154297 174.40551758 C23.49312675 175.50283872 22.39238029 176.58802186 21.28173828 177.6628418 C9.32537017 189.30751976 0.18634306 203.54672742 -8 218 C-8.46148438 218.81452637 -8.92296875 219.62905273 -9.3984375 220.46826172 C-38.89506118 273.19755067 -50.55603366 336.17294827 -43 396 C-42.85594727 397.15798096 -42.85594727 397.15798096 -42.70898438 398.33935547 C-42.17724332 402.56524991 -41.60870558 406.78439006 -41 411 C-41.61705811 410.91959473 -42.23411621 410.83918945 -42.86987305 410.75634766 C-62.25815046 408.24434646 -81.54969234 406.00118725 -101.09985352 405.34130859 C-106.78193954 405.14300761 -112.35632764 404.69682077 -118 404 C-111.06749475 379.45565077 -103.95903901 354.96438181 -96.75 330.5 C-96.32701582 329.06445324 -95.90403202 327.62890636 -95.48104858 326.19335938 C-95.05076169 324.73307269 -94.620474 323.27278623 -94.19018555 321.8125 C-93.30775029 318.81771707 -92.42535027 315.82292376 -91.54296875 312.828125 C-91.20909432 311.69504662 -91.20909432 311.69504662 -90.86847496 310.53907776 C-85.24395638 291.44931657 -79.65145298 272.35019886 -74.0625 253.25 C-73.55222682 251.50633717 -73.04195257 249.76267465 -72.53167725 248.01901245 C-65.24952101 223.13376225 -57.98523757 198.24332893 -50.73022079 173.35015488 C-43.12168944 147.24424726 -35.47766442 121.14886759 -27.81881332 95.05768204 C-26.68641999 91.19993667 -25.55410824 87.34216736 -24.421875 83.484375 C-24.08753323 82.34519749 -24.08753323 82.34519749 -23.74643707 81.18300629 C-18.52662754 63.39654058 -13.32409432 45.60503026 -8.125 27.8125 C-7.91523277 27.09463947 -7.70546555 26.37677895 -7.48934174 25.63716507 C-4.99227566 17.09162413 -2.49578337 8.54591566 0 0 Z " fill="#000000" transform="translate(1036,883)"/>
<path d="M0 0 C1.16577717 3.49733151 0.48452121 5.29671656 -0.45703125 8.76513672 C-1.36196435 12.48984788 -1.66156534 16.25118249 -2 20.0625 C-2.0806218 20.91888565 -2.16124359 21.7752713 -2.24430847 22.65760803 C-2.50338348 25.43779954 -2.75240491 28.21876422 -3 31 C-3.08682037 31.95518524 -3.17364075 32.91037048 -3.26309204 33.89450073 C-4.83843138 51.24351599 -6.17613686 68.59747922 -7 86 C-7.04203552 86.8510733 -7.08407104 87.70214661 -7.12738037 88.57901001 C-8.10796745 108.90360529 -8.24353978 129.21890995 -8.25 149.5625 C-8.25058914 150.41644348 -8.25117828 151.27038696 -8.25178528 152.15020752 C-8.2658774 181.20035935 -7.56079864 210.04644305 -5 239 C-4.92738953 239.84496033 -4.85477905 240.68992065 -4.77996826 241.56048584 C-0.80282355 287.81275209 6.72317115 333.74555818 21 378 C21.27634277 378.87398437 21.55268555 379.74796875 21.83740234 380.6484375 C27.08976847 397.12745549 33.59697032 414.22863359 42.36328125 429.16796875 C44 432 44 432 44 434 C42.82824219 434.23074219 41.65648437 434.46148438 40.44921875 434.69921875 C32.1720948 436.3948306 24.54914129 438.16309428 16.96875 442.046875 C15 443 15 443 13 443 C-0.89606785 400.19392916 -14.7649176 357.37933663 -28.56884766 314.54345703 C-32.48144759 302.40244662 -36.3973148 290.2624899 -40.31330872 278.12257385 C-40.93679888 276.18967356 -41.5602605 274.25676407 -42.18371582 272.32385254 C-49.0565192 251.01622911 -55.9380871 229.71144386 -62.82247925 208.40756226 C-67.5618254 193.74145423 -72.29980246 179.0749084 -77.03125 164.40625 C-77.23713682 163.76796453 -77.44302364 163.12967907 -77.65514946 162.47205162 C-79.9199176 155.45073347 -82.184052 148.4292114 -84.44750977 141.4074707 C-88.62839694 128.43891496 -92.81658648 115.47277092 -97.01737595 102.51064682 C-98.45854708 98.06298518 -99.89858042 93.61495496 -101.33867455 89.1669445 C-102.4889101 85.61470547 -103.64001688 82.06275376 -104.79321289 78.51147461 C-109.37728837 64.39380208 -113.95487092 50.28375098 -118 36 C-107.19380467 31.14760808 -96.00267035 27.5310597 -84.75 23.875 C-83.74866028 23.54840393 -82.74732056 23.22180786 -81.71563721 22.88531494 C-67.3581541 18.21498662 -52.94152187 13.8460429 -38.375 9.875 C-37.18867981 9.55157623 -37.18867981 9.55157623 -35.97839355 9.22161865 C-24.02797052 5.98007814 -12.01960869 2.9730314 0 0 Z " fill="#000000" transform="translate(715,190)"/>
<path d="M0 0 C16.26301598 15.87716235 23.89744061 35.94655019 29.85449219 57.43994141 C30.76226686 36.2249111 25.16153251 17.40583457 15.85449219 -1.56005859 C19.56362982 -1.11496208 23.25431355 -0.65958189 26.94042969 -0.04833984 C42.12332073 2.40107393 55.92278951 1.51335646 70.91015625 -1.28466797 C72.85449219 -1.56005859 72.85449219 -1.56005859 76.85449219 -1.56005859 C75.24394115 6.61060994 72.7038935 14.42717371 70.11230469 22.32666016 C69.63174572 23.80208507 69.15158195 25.27763877 68.67178345 26.75331116 C67.64727536 29.90178556 66.62025041 33.04942286 65.59118652 36.19641113 C63.957548 41.19253657 62.32975435 46.19055362 60.703125 51.18896484 C60.15027807 52.88760686 59.5974216 54.58624576 59.04455566 56.28488159 C58.63270775 57.55026575 58.63270775 57.55026575 58.21253967 58.84121323 C57.37498754 61.41382221 56.53688135 63.98625007 55.6986084 66.55862427 C50.63697666 82.09267698 45.61428507 97.63910485 40.60449219 113.18994141 C39.80000152 115.6862089 38.99547682 118.18246542 38.19091797 120.67871094 C36.98519616 124.41966441 35.77951798 128.16063188 34.57406616 131.90167236 C31.72261784 140.75004539 28.86689963 149.59703323 26.00928497 158.4434166 C24.62641063 162.72468244 23.24401097 167.0061016 21.86158371 171.28751183 C20.76067029 174.69690623 19.65945098 178.10620116 18.55749512 181.51525879 C17.3430331 185.27239496 16.1299738 189.02998326 14.91699219 192.78759766 C14.56372864 193.8796199 14.21046509 194.97164215 13.84649658 196.09675598 C13.51011169 197.1395018 13.17372681 198.18224762 12.82714844 199.2565918 C12.50246582 200.26118439 12.1777832 201.26577698 11.84326172 202.30081177 C11.13374853 204.55336286 10.45021479 206.81415964 9.78369141 209.07980347 C9.4345166 210.26397858 9.0853418 211.44815369 8.72558594 212.66821289 C8.41419678 213.7490062 8.10280762 214.8297995 7.78198242 215.94334412 C6.85449219 218.43994141 6.85449219 218.43994141 4.85449219 219.43994141 C3.47841688 218.37883444 2.10369387 217.31597373 0.72949219 216.25244141 C-0.4190625 215.36492187 -0.4190625 215.36492187 -1.59082031 214.45947266 C-2.85539063 213.45980469 -2.85539063 213.45980469 -4.14550781 212.43994141 C-5.12060303 211.75746338 -6.09569824 211.07498535 -7.1003418 210.37182617 C-10.98826569 207.09893752 -12.03218301 203.27317124 -13.42285156 198.51025391 C-13.70638489 197.60233597 -13.98991821 196.69441803 -14.28204346 195.75898743 C-14.90310362 193.76228629 -15.51493227 191.76269636 -16.1187439 189.76071167 C-17.46041916 185.31412207 -18.84740902 180.88199313 -20.23017883 176.44804382 C-20.98751274 174.01707213 -21.74239505 171.58533556 -22.49504089 169.15290833 C-26.82186498 155.18268982 -31.34714136 141.27773924 -35.87182617 127.37060547 C-38.08099153 120.579577 -40.28195227 113.78588792 -42.4836731 106.99244308 C-43.22389498 104.70866379 -43.96433501 102.42495533 -44.70483398 100.14126587 C-49.78397326 84.47637179 -54.85049943 68.80740718 -59.91339493 53.13725662 C-60.56960333 51.10642555 -61.22597938 49.07564875 -61.88241577 47.04489136 C-62.09198442 46.39650897 -62.30155306 45.74812658 -62.51747227 45.08009624 C-62.93319371 43.79394563 -63.3489716 42.50781326 -63.7648077 41.22169971 C-64.75978256 38.14348051 -65.75242687 35.0645374 -66.74198914 31.98457336 C-68.64832856 26.05253606 -70.57721573 20.12977186 -72.55224609 14.22021484 C-72.9319606 13.07080414 -73.31167511 11.92139343 -73.70289612 10.7371521 C-74.41769259 8.57463339 -75.14154063 6.41507728 -75.87608337 4.25918579 C-76.34794823 2.82184586 -76.34794823 2.82184586 -76.8293457 1.35546875 C-77.24864098 0.10653336 -77.24864098 0.10653336 -77.67640686 -1.16763306 C-78.22793204 -3.98042403 -77.99131874 -5.83138881 -77.14550781 -8.56005859 C-54.19388296 -28.97075946 -20.16257558 -18.77545538 0 0 Z " fill="#000000" transform="translate(815.1455078125,664.56005859375)"/>
<path d="M0 0 C8.99103218 6.04623418 11.79158947 14.51015159 14.65722656 24.59326172 C14.89189636 25.39930344 15.12656616 26.20534515 15.36834717 27.03581238 C16.13209876 29.66532015 16.88659695 32.29737655 17.640625 34.9296875 C18.17254551 36.77064762 18.70492191 38.61147608 19.23773193 40.45217896 C20.34775792 44.29216118 21.4533893 48.13337171 22.55566406 51.97558594 C23.96975302 56.90394555 25.39316293 61.82955303 26.81961441 66.75434685 C27.91733003 70.54690233 29.01101749 74.34060967 30.10338593 78.1347084 C30.62704875 79.95232362 31.15176853 81.76963467 31.6775589 83.58663559 C32.40913215 86.11767004 33.13548039 88.65014472 33.86035156 91.18310547 C34.07848511 91.93429153 34.29661865 92.6854776 34.5213623 93.45942688 C35.35959316 96.40577952 36 98.91973655 36 102 C16.96258218 108.34580594 -8.48904155 101.87463981 -25.90234375 93.625 C-43.03319143 84.78327216 -53.24129302 71.89682186 -59.078125 53.625 C-62.27469952 41.05541885 -61.70634195 28.69109656 -55.625 17.125 C-49.37839147 6.87982494 -40.96484176 0.11952764 -29.34375 -3.33984375 C-19.42251934 -5.29859139 -8.86252262 -5.36833808 0 0 Z " fill="#000000" transform="translate(554,768)"/>
<path d="M0 0 C12.89787333 10.17961185 24.62952725 31.55324422 30 47 C30 47.99 30 48.98 30 50 C29.23147705 49.97381592 28.4629541 49.94763184 27.67114258 49.9206543 C0.73534878 49.12789381 -22.06305617 53.06977991 -45.46875 67.1875 C-47 68 -47 68 -49 68 C-48.76708252 67.08718262 -48.53416504 66.17436523 -48.29418945 65.23388672 C-47.96268164 63.92424769 -47.63158297 62.61450506 -47.30078125 61.3046875 C-47.12009598 60.59238983 -46.93941071 59.88009216 -46.75325012 59.14620972 C-45.74023733 55.10904426 -44.78517878 51.0676659 -43.91552734 46.99707031 C-36.47234279 12.30471487 -36.47234279 12.30471487 -27.2734375 6.18359375 C-22.52556868 3.86348027 -17.69367183 2.3861807 -12.48852539 1.49438477 C-9.92416928 1.06482722 -9.92416928 1.06482722 -7.34326172 -0.06884766 C-4.39438705 -1.24065512 -2.97588804 -1.03697881 0 0 Z " fill="#000000" transform="translate(1231,318)"/>
<path d="M0 0 C0.66 0 1.32 0 2 0 C7.95239055 19.03972118 13.58048788 38.16151891 19.10572815 57.32845688 C20.8594272 63.40949131 22.61796987 69.48912865 24.37584686 75.56895638 C24.81167326 77.07644111 25.2474088 78.58395212 25.68305206 80.09148979 C28.42509173 89.57989346 31.18206854 99.06364908 33.96875 108.5390625 C34.25760071 109.52170578 34.54645142 110.50434906 34.84405518 111.51676941 C36.14186311 115.92907495 37.4431728 120.34031254 38.74902344 124.75024414 C39.19212579 126.25404883 39.63516444 127.75787229 40.078125 129.26171875 C40.37656311 130.26273117 40.37656311 130.26273117 40.68103027 131.28396606 C42 135.77338556 42 135.77338556 42 138 C41.34 138 40.68 138 40 138 C33.09117048 124.55491334 26.49307976 111.08977644 21 97 C20.64196289 96.08476562 20.28392578 95.16953125 19.91503906 94.2265625 C9.17429719 66.42918718 -2.69685966 32.29779401 -2 2 C-1.34 1.34 -0.68 0.68 0 0 Z " fill="#000000" transform="translate(426,312)"/>
<path d="M0 0 C3.02990095 1.71967351 5.76327296 3.29238306 8 6 C8 6.66 8 7.32 8 8 C3.05 9.485 3.05 9.485 -2 11 C-1.125 3.375 -1.125 3.375 0 0 Z " fill="#000000" transform="translate(1208,295)"/>
<path d="" fill="#000000" transform="translate(0,0)"/>
</svg>
