<?xml version="1.0" encoding="UTF-8"?>
<svg version="1.1" xmlns="http://www.w3.org/2000/svg" width="1572" height="1564">
<path d="M0 0 C0.70072254 -0.00044186 1.40144508 -0.00088371 2.12340164 -0.00133896 C27.34489822 -0.0096429 52.38815909 0.74388974 77.5 3.25 C78.35412476 3.33485657 79.20824951 3.41971313 80.08825684 3.50714111 C116.65790323 7.19044561 152.80131808 13.51052638 188.5 22.25 C189.14636414 22.40708435 189.79272827 22.5641687 190.4586792 22.72601318 C265.06328161 40.88499899 336.61347664 70.9287146 402.5 110.25 C403.28117187 110.71196777 404.06234375 111.17393555 404.8671875 111.64990234 C431.96333781 127.68701444 457.63160127 145.97469119 482.5 165.25 C483.11858887 165.72679199 483.73717773 166.20358398 484.37451172 166.69482422 C492.72416837 173.13341236 500.79830331 179.8343674 508.75878906 186.74707031 C510.47253755 188.22629573 512.19843278 189.6897591 513.9296875 191.1484375 C525.63074038 201.02748115 536.83278057 211.43560137 547.5703125 222.35546875 C549.43856308 224.18968238 551.37225423 225.87745888 553.375 227.5625 C557.3373152 230.95877018 560.7989529 234.75654058 564.28369141 238.62719727 C567.34591051 242.02042414 570.49438007 245.28890982 573.75 248.5 C577.23721855 251.94877677 580.54253651 255.4737429 583.73046875 259.19921875 C585.73786023 261.52566583 587.80466638 263.79192686 589.875 266.0625 C593.70036325 270.30576008 597.3509409 274.65859497 600.94140625 279.1015625 C602.82262409 281.42811454 604.73129752 283.72966809 606.65234375 286.0234375 C615.66694686 296.81258909 624.17257555 307.9239802 632.5 319.25 C633.34111328 320.38888672 633.34111328 320.38888672 634.19921875 321.55078125 C643.02713917 333.52404149 651.37565661 345.78981781 659.5 358.25 C660.00885742 359.02923828 660.51771484 359.80847656 661.04199219 360.61132812 C693.36894302 410.34837707 719.93715279 464.24743282 739.5 520.25 C739.7311853 520.91068481 739.96237061 521.57136963 740.20056152 522.2520752 C762.36228617 585.7055698 776.64756544 651.24387112 782.25 718.25 C782.33874893 719.30412582 782.33874893 719.30412582 782.42929077 720.37954712 C784.13617406 741.02506939 784.70817559 761.6636075 784.6875 782.375 C784.68689575 783.50618256 784.6862915 784.63736511 784.68566895 785.80282593 C784.6570604 805.6789622 784.14425145 825.44026844 782.5 845.25 C782.43683594 846.0121582 782.37367187 846.77431641 782.30859375 847.55957031 C775.39550936 929.66939126 756.24050054 1010.54439613 668.5 1194.25 C667.90977051 1195.20342285 667.31954102 1196.1568457 666.71142578 1197.13916016 C647.01892944 1228.83728876 624.77675792 1258.98780416 600.5949707 1287.40087891 C597.59308548 1290.93405727 594.65850763 1294.51409767 591.75 1298.125 C588.73301526 1301.83449548 585.60905641 1305.26310149 582.171875 1308.58203125 C580.39174115 1310.35800591 578.76065144 1312.21548949 577.125 1314.125 C574.53365795 1317.1346753 571.82745217 1319.96088616 569 1322.75 C566.23439592 1325.47829407 563.58712969 1328.23516834 561.0625 1331.1875 C555.06650212 1338.15507161 548.47683552 1344.50320906 541.49609375 1350.47265625 C539.23867374 1352.48268777 537.12264287 1354.59832953 535 1356.75 C531.64743221 1360.14268399 528.20524318 1363.34100684 524.5859375 1366.4453125 C522.24974499 1368.46651276 519.97035149 1370.54378839 517.6875 1372.625 C513.44911157 1376.44597138 509.10120897 1380.09247331 504.6640625 1383.6796875 C502.2871519 1385.60180461 499.93324057 1387.54965269 497.5859375 1389.5078125 C488.75267211 1396.86579348 479.78984847 1403.97357244 470.51708984 1410.77001953 C468.52249445 1412.23349536 466.53662299 1413.70827129 464.55078125 1415.18359375 C402.09252077 1461.24340302 332.68620284 1497.59193705 259.5 1523.25 C257.69378174 1523.88566895 257.69378174 1523.88566895 255.85107422 1524.53417969 C214.28705303 1539.05675027 171.25701552 1550.08614405 127.72875977 1556.8059082 C123.34183493 1557.483623 118.95974822 1558.17004581 114.58625793 1558.93063354 C79.66787089 1564.97302991 44.25862398 1563.98043323 8.95249391 1563.83630288 C1.98736561 1563.81003925 -4.97742183 1563.81684449 -11.94256723 1563.8321386 C-19.62700077 1563.84823904 -27.31125927 1563.8411269 -34.99568558 1563.82420158 C-38.19971273 1563.81750005 -41.40359224 1563.81818125 -44.60761642 1563.82574654 C-73.4120481 1563.87936022 -101.49794927 1561.01741403 -129.875 1556 C-130.71410919 1555.85415466 -131.55321838 1555.70830933 -132.41775513 1555.55804443 C-150.58305318 1552.39159887 -168.57927842 1548.58541048 -186.5 1544.25 C-187.19146118 1544.08346924 -187.88292236 1543.91693848 -188.59533691 1543.74536133 C-266.15498798 1524.99808828 -340.73201184 1493.07635371 -408.50976562 1451.10058594 C-411.01631464 1449.54934153 -413.52901157 1448.00932637 -416.046875 1446.4765625 C-434.18409857 1435.37883899 -451.52532801 1423.03946783 -468.5 1410.25 C-469.10102539 1409.79818359 -469.70205078 1409.34636719 -470.32128906 1408.88085938 C-486.8549427 1396.41599716 -502.92533709 1383.20997014 -518.25 1369.28515625 C-520.24989375 1367.47622457 -522.27269432 1365.70108199 -524.3125 1363.9375 C-534.9048515 1354.68125941 -544.98589221 1344.92681661 -554.91357422 1334.96679688 C-556.8904601 1332.98449756 -558.87271039 1331.00767367 -560.85546875 1329.03125 C-572.07584482 1317.81675748 -572.07584482 1317.81675748 -577.12060547 1311.87451172 C-579.2907449 1309.31874043 -581.58983803 1306.8907895 -583.875 1304.4375 C-588.14715901 1299.81353334 -592.18689637 1295.0523522 -596.1328125 1290.14453125 C-598.30633129 1287.48681274 -600.53466776 1284.8939988 -602.79174805 1282.30786133 C-609.28794532 1274.85220002 -615.23499801 1267.07718144 -621.10351562 1259.12255859 C-623.14938662 1256.37923157 -625.26418165 1253.69370774 -627.375 1251 C-637.73321672 1237.57761627 -647.26748099 1223.46650839 -656.5 1209.25 C-656.95020508 1208.55680664 -657.40041016 1207.86361328 -657.86425781 1207.14941406 C-671.86277164 1185.49441357 -684.54011598 1163.08732955 -696.5 1140.25 C-697.00740723 1139.28191406 -697.51481445 1138.31382813 -698.03759766 1137.31640625 C-735.7682419 1064.81389645 -759.97603218 985.60593222 -778.28710938 865.29455566 C-778.50057187 863.24450784 -778.726084 861.19604509 -778.953125 859.14746094 C-784.3559601 809.35602437 -784.44956124 756.24985072 -778.75323486 706.48187256 C-778.48553744 704.12253501 -778.23178656 701.76196294 -777.97998047 699.40087891 C-770.15316716 626.71598781 -752.58434592 554.80760291 -724.5 487.25 C-723.76426758 485.47761963 -723.76426758 485.47761963 -723.01367188 483.66943359 C-706.9958614 445.35863592 -688.21555502 408.54532989 -666.35058594 373.24023438 C-664.79934153 370.73368536 -663.25932637 368.22098843 -661.7265625 365.703125 C-650.62883899 347.56590143 -638.28946783 330.22467199 -625.5 313.25 C-625.04818359 312.64897461 -624.59636719 312.04794922 -624.13085938 311.42871094 C-611.6640202 294.89243501 -598.45686837 278.81711265 -584.52734375 263.4921875 C-582.76032801 261.53791576 -581.03086471 259.55940263 -579.3125 257.5625 C-569.35552412 246.19904546 -558.79271617 235.44030895 -548.125 224.75 C-547.5614682 224.18388 -546.9979364 223.61776001 -546.41732788 223.03448486 C-540.83423797 217.43119248 -535.25086083 211.87463417 -529.23046875 206.73535156 C-526.47071192 204.36650837 -523.83967407 201.86269491 -521.1875 199.375 C-516.39485085 194.9162052 -511.47810172 190.68879209 -506.37109375 186.58984375 C-503.67381864 184.39165628 -501.03734457 182.13988638 -498.40942383 179.86010742 C-491.91772126 174.22993878 -485.28135875 168.84896268 -478.40966797 163.68701172 C-476.2479864 162.06036154 -474.09489967 160.42262976 -471.94140625 158.78515625 C-454.93487061 145.894981 -437.55095619 133.63465582 -419.5 122.25 C-418.7054541 121.74645996 -417.9109082 121.24291992 -417.09228516 120.72412109 C-403.47553057 112.11333153 -389.6088992 104.02565001 -375.5 96.25 C-373.90140137 95.36441406 -373.90140137 95.36441406 -372.27050781 94.4609375 C-303.6243382 56.5593813 -228.87588757 30.02876289 -70.6875 2.9375 C-69.81391846 2.85609772 -68.94033691 2.77469543 -68.0402832 2.69082642 C-45.35742321 0.6096305 -22.77543347 0.00660978 0 0 Z M-74.5 40.25 C-76.09926262 40.42353561 -77.69854701 40.59687075 -79.29785156 40.77001953 C-113.79572208 44.5593707 -147.83772781 50.81842843 -181.5 59.25 C-182.69399414 59.54455078 -183.88798828 59.83910156 -185.11816406 60.14257812 C-257.16393689 78.04286941 -326.51442694 108.29538146 -389.515625 147.39794922 C-392.08830381 148.99450857 -394.66707467 150.5802594 -397.25 152.16015625 C-422.90923867 167.92061468 -447.33620866 186.0357952 -470.5 205.25 C-472.35410903 206.75007124 -474.2082765 208.25007025 -476.0625 209.75 C-480.55347732 213.42210966 -484.88683347 217.23546062 -489.17578125 221.140625 C-491.22042335 222.99626657 -493.28784149 224.81756376 -495.375 226.625 C-503.92187189 234.08846559 -512.13171683 241.81411002 -520.1015625 249.88671875 C-521.93380706 251.6921063 -523.73800028 253.34599757 -525.75 254.9375 C-528.62944334 257.35885008 -530.88654908 259.95511785 -533.31640625 262.8125 C-536.09484099 265.91400854 -539.03801212 268.82488507 -542 271.75 C-546.10473144 275.81306492 -550.09437246 279.89959368 -553.8359375 284.3046875 C-555.80139014 286.60232932 -557.83729871 288.82873123 -559.875 291.0625 C-563.69597138 295.30088843 -567.34247331 299.64879103 -570.9296875 304.0859375 C-572.85180461 306.4628481 -574.79965269 308.81675943 -576.7578125 311.1640625 C-584.11453999 319.99582307 -591.22073353 328.95706503 -598.015625 338.22851562 C-599.49079349 340.23746219 -600.97925628 342.23603591 -602.46875 344.234375 C-652.80518128 412.29829885 -690.53272867 489.89932234 -737.79614258 891.36009216 C-731.38994289 933.85582459 -721.60317601 975.39662087 -708.17059326 1016.20959473 C-707.5294625 1018.16035483 -706.89324374 1020.11264823 -706.25830078 1022.06542969 C-696.47177686 1051.99832097 -684.18006294 1080.90172698 -670.5 1109.25 C-669.99758789 1110.29333496 -669.49517578 1111.33666992 -668.97753906 1112.41162109 C-661.73733654 1127.36544211 -653.87416341 1141.90242191 -645.5 1156.25 C-645.01063965 1157.08950195 -644.5212793 1157.92900391 -644.01708984 1158.79394531 C-632.80705947 1177.93635251 -621.13270137 1196.90091442 -607.73388672 1214.59667969 C-606.07790088 1216.81558275 -604.48754068 1219.07773623 -602.89624023 1221.34326172 C-593.89460335 1234.14664021 -584.20624544 1246.43992262 -574.0078125 1258.30859375 C-571.64106999 1261.0845394 -569.34617969 1263.90563193 -567.0625 1266.75 C-562.689514 1272.12790918 -558.01390797 1277.18369053 -553.28515625 1282.24609375 C-551.07212586 1284.61894178 -548.92397141 1287.03580018 -546.8125 1289.5 C-543.61940575 1293.19808483 -540.16819875 1296.59761443 -536.69140625 1300.02734375 C-534.6852981 1302.0620595 -532.79886484 1304.14585437 -530.9375 1306.3125 C-525.59458482 1312.5171757 -519.77108339 1318.07190684 -513.56640625 1323.40234375 C-511.28850522 1325.43910592 -509.14581412 1327.57474075 -507 1329.75 C-503.64743221 1333.14268399 -500.20524318 1336.34100684 -496.5859375 1339.4453125 C-494.24974499 1341.46651276 -491.97035149 1343.54378839 -489.6875 1345.625 C-484.43862774 1350.35615345 -478.99437924 1354.80876785 -473.5 1359.25 C-472.26879913 1360.26082767 -471.03837382 1361.27260049 -469.80859375 1362.28515625 C-461.21956517 1369.34119014 -452.49274759 1376.16415068 -443.53759766 1382.74951172 C-442.19327755 1383.73946995 -440.8517345 1384.73321191 -439.51318359 1385.73095703 C-419.50105152 1400.64607376 -398.41823464 1414.33742119 -376.84521484 1426.88476562 C-374.48024559 1428.26149975 -372.12500545 1429.65397207 -369.76953125 1431.046875 C-303.09280199 1470.1380551 -229.97614404 1497.32978222 -77.8638916 1525.98571777 C-75.63460321 1526.23495141 -73.4066608 1526.49400025 -71.17871094 1526.75488281 C-23.48798821 1532.22259349 27.64588549 1532.07439236 75.31634521 1526.50323486 C77.62089083 1526.23598049 79.9266614 1525.98209381 82.23291016 1525.72998047 C167.18245853 1516.3494102 249.57024469 1492.41222603 326.5 1455.25 C327.60811035 1454.7152002 328.7162207 1454.18040039 329.85791016 1453.62939453 C345.41430243 1446.07913503 360.55998627 1437.95211598 375.5 1429.25 C376.2940625 1428.79399414 377.088125 1428.33798828 377.90625 1427.86816406 C412.31428099 1408.09226449 445.06820985 1384.68485419 475.5 1359.25 C476.27053711 1358.60683838 476.27053711 1358.60683838 477.05664062 1357.95068359 C483.56570056 1352.50909405 489.97880891 1346.98461698 496.2578125 1341.27734375 C498.21208424 1339.51032801 500.19059737 1337.78086471 502.1875 1336.0625 C513.1965032 1326.42147945 523.64414972 1316.20700612 534 1305.875 C534.51828369 1305.3593045 535.03656738 1304.84360901 535.57055664 1304.31228638 C540.87890144 1299.02486459 546.10476109 1293.71207142 550.97949219 1288.015625 C553.36360967 1285.24717002 555.87596619 1282.60179046 558.375 1279.9375 C562.85867269 1275.11763923 567.1162423 1270.17496022 571.23828125 1265.0390625 C573.24604509 1262.5631672 575.30051667 1260.13601604 577.37988281 1257.72021484 C583.83297716 1250.20693643 589.87258264 1242.40974208 595.81738281 1234.49023438 C596.92536942 1233.01506242 598.03661947 1231.54233506 599.15136719 1230.07226562 C614.85043106 1209.35654873 629.16550244 1187.5544667 642.5 1165.25 C643.07250488 1164.29432129 643.64500977 1163.33864258 644.23486328 1162.35400391 C687.26150924 1090.129455 716.73455974 1011.24627823 746.5 832.25 C746.64465698 830.29707031 746.64465698 830.29707031 746.79223633 828.3046875 C747.7837641 813.76253191 747.70035141 799.1941056 747.6875 784.625 C747.68723312 783.94744659 747.68696625 783.26989319 747.68669128 782.57180786 C747.67655226 762.0610178 747.44936771 741.6848436 745.5 721.25 C745.37451602 719.85471296 745.24970542 718.45936524 745.12548828 717.06396484 C741.72640827 679.35707884 735.5038497 642.02105932 726.5 605.25 C726.3410022 604.60023193 726.18200439 603.95046387 726.01818848 603.28100586 C708.5403309 532.24487428 680.17579548 463.9351272 642.5 401.25 C642.02111328 400.445625 641.54222656 399.64125 641.04882812 398.8125 C622.42786852 367.53985294 601.04129054 338.01566536 577.89599609 309.95019531 C576.61435588 308.38927498 575.34744619 306.81629009 574.08203125 305.2421875 C569.28412054 299.2808896 564.24384704 293.61456861 559.04296875 288.0078125 C557.05011761 285.84659452 555.10292215 283.66653031 553.1875 281.4375 C543.92270843 270.80896575 534.07888728 260.72912184 524.125 250.75 C523.1980835 249.81849121 522.27116699 248.88698242 521.31616211 247.92724609 C516.77013287 243.39143816 512.17522515 238.98693046 507.30078125 234.80566406 C504.52351996 232.40643562 501.86386803 229.88538845 499.1875 227.375 C494.39004372 222.91173293 489.46837627 218.68025571 484.35546875 214.578125 C481.72832753 212.43616034 479.16665492 210.23932269 476.61230469 208.01220703 C468.89851916 201.29787488 460.89693742 195.03464855 452.7109375 188.90771484 C450.55011842 187.28757775 448.39986607 185.65416058 446.25 184.01953125 C409.45477563 156.26389299 369.59741489 132.98496858 328.5 112.25 C327.56075684 111.77498047 326.62151367 111.29996094 325.65380859 110.81054688 C296.63136363 96.24430802 266.28032767 84.50672264 235.5 74.25 C234.84422974 74.0301947 234.18845947 73.8103894 233.51281738 73.58392334 C165.5505245 50.82617952 92.47853171 37.26312471 20.71484375 37.046875 C19.25631177 37.03984734 17.79778008 37.03276058 16.33924866 37.02561951 C11.70532785 37.00623882 7.07145726 37.0011849 2.4375 37 C1.64633789 36.99955814 0.85517578 36.99911629 0.04003906 36.99866104 C-24.9278842 36.99135535 -49.66408695 37.46276161 -74.5 40.25 Z " fill="#A228CC" transform="translate(786.5,0.75)"/>
<path d="M0 0 C22.89465965 15.0790969 48.871524 25.1234446 74.10282898 35.55262756 C78.4164704 37.33567926 82.71340126 39.15280977 87 41 C83.53496661 43.31002226 80.30846856 43.91530041 76.3125 44.75 C49.50090135 50.76735141 23.40183211 65.41088362 8.125 88.875 C-2.13284791 105.31946996 -7.16784158 123.69755435 -3.3125 143.0234375 C-0.0102831 155.48930632 5.94287924 164.92778404 15 174 C15.7115625 174.72316406 16.423125 175.44632813 17.15625 176.19140625 C27.7829468 186.33682149 39.88631621 190.55983309 54.33984375 190.3125 C66.98574225 189.23280749 78.45862752 183.52453816 87.17578125 174.34765625 C93.62508567 166.04780196 97.18161573 156.50504941 96 146 C93.44972609 136.47281092 89.06819799 129.74691626 82 123 C82.72316406 124.16015625 82.72316406 124.16015625 83.4609375 125.34375 C89.37906215 135.10261676 92.42071705 142.50560183 90 154 C87.04792118 162.96214063 81.34792951 169.10260423 73.1015625 173.5703125 C62.98668139 178.12070889 53.70623557 179.16641228 43 176 C39.7668288 174.62835161 36.90221634 172.97173477 34 171 C33.40703125 170.60296875 32.8140625 170.2059375 32.203125 169.796875 C23.1072911 162.87068956 15.99863864 151.15796276 14 140 C12.41369835 125.41975592 15.21517034 111.97931318 24 100 C26.86056735 96.52380034 29.88497982 93.24836865 33 90 C33.6496875 89.28714844 34.299375 88.57429687 34.96875 87.83984375 C52.67983459 69.00366977 80.98915822 60.84362644 106.171875 59.71484375 C131.28605623 59.06334616 153.95040855 65.80600551 177.41903687 73.96853638 C201.62386221 82.37211182 226.00033273 90.04547523 250.53222656 97.42431641 C251.754142 97.79198624 252.97605743 98.15965607 254.23500061 98.53846741 C256.53315345 99.22867789 258.83198136 99.91664585 261.13157654 100.60203552 C262.64945518 101.05631676 262.64945518 101.05631676 264.19799805 101.51977539 C265.08182663 101.78303116 265.96565521 102.04628693 266.87626648 102.31752014 C269 103 269 103 271 104 C271.96142578 106.51269531 271.96142578 106.51269531 272.9453125 109.828125 C273.29980469 111.02050781 273.65429688 112.21289062 274.01953125 113.44140625 C274.56673828 115.32666016 274.56673828 115.32666016 275.125 117.25 C275.49753906 118.49136719 275.87007812 119.73273438 276.25390625 121.01171875 C279.24085846 131.17610923 279.24085846 131.17610923 279 136 C278.21496094 135.51789063 277.42992187 135.03578125 276.62109375 134.5390625 C275.57050781 133.90742187 274.51992188 133.27578125 273.4375 132.625 C272.40496094 131.99851562 271.37242187 131.37203125 270.30859375 130.7265625 C260.03716537 125.36650188 247.21306008 125.46363933 236.1875 128.5625 C222.57134168 133.42419948 211.38170418 141.51624971 204.28125 154.27734375 C195.80889195 172.2811046 196.93370366 191.01363151 203.52734375 209.4296875 C207.65087095 219.42677996 213.39542202 227.3702413 221 235 C221.73734375 235.76054688 222.4746875 236.52109375 223.234375 237.3046875 C244.42048771 257.85095117 273.85246582 262.54261418 302.12890625 262.203125 C306.82128907 262.09184914 311.36006679 261.69739602 316 261 C318.69812418 267.84840015 320.79734203 274.81592775 322.859375 281.87890625 C323.23968447 283.17375103 323.62024088 284.46852331 324.00102234 285.76322937 C325.03659574 289.28737181 326.0682876 292.81263983 327.09919357 296.33815002 C327.97897306 299.34509249 328.86098266 302.351379 329.7429533 305.35767937 C338.87888681 336.50067565 347.94208702 367.66496709 357.00470352 398.82935905 C361.94523837 415.81835741 366.89843565 432.80364884 371.8545723 449.7881012 C379.65506458 476.52060655 387.44374566 503.2565347 395.22600174 529.99435425 C401.79270656 552.55576393 408.36451177 575.11567302 414.94593334 597.67279434 C416.47546663 602.91540431 418.00396163 608.15831621 419.53198242 613.40136719 C420.37802673 616.30405562 421.22414461 619.20672259 422.0703125 622.109375 C422.27651781 622.81676567 422.48272312 623.52415634 422.69517708 624.25298309 C425.34634668 633.3465618 428.00682827 642.43735188 430.67692566 651.52539062 C432.20243403 656.71806466 433.72324963 661.91211065 435.243927 667.10620117 C435.94922268 669.51123627 436.65643844 671.91570924 437.36569214 674.31958008 C438.3280122 677.58146228 439.28389056 680.84516558 440.23828125 684.109375 C440.52150238 685.06289856 440.80472351 686.01642212 441.0965271 686.99884033 C441.47667465 688.30604034 441.47667465 688.30604034 441.86450195 689.63964844 C442.08539993 690.39066833 442.30629791 691.14168823 442.53388977 691.91546631 C443 694 443 694 443 698 C442.32461182 698.25467041 441.64922363 698.50934082 440.95336914 698.77172852 C404.05837389 712.76978787 368.06210949 729.4003514 333.953125 749.27978516 C331.92775329 750.45957757 329.89891491 751.63343283 327.8671875 752.80224609 C304.07719743 766.49223888 280.81661753 781.31220133 259 798 C258.34 797.67 257.68 797.34 257 797 C257.3309668 796.28384521 257.66193359 795.56769043 258.00292969 794.82983398 C282.96226626 740.58665087 301.42566592 684.21947962 310 625 C310.17644043 623.84822266 310.35288086 622.69644531 310.53466797 621.50976562 C313.09828192 604.30382544 313.30374418 587.11158756 313.375 569.75 C313.38705475 568.11685349 313.38705475 568.11685349 313.39935303 566.45071411 C313.51606157 545.60645013 311.70139893 525.03803057 307.375 504.625 C307.12339111 503.43076416 306.87178223 502.23652832 306.61254883 501.00610352 C298.28182858 463.26349874 281.34405809 427.299755 256 398 C255.34128906 397.23042969 254.68257812 396.46085937 254.00390625 395.66796875 C246.74465297 387.39324337 238.82621062 379.73254395 231 372 C235.31028535 368.38519894 239.92124904 365.37682011 244.625 362.3125 C251.77898156 357.58667112 258.56431394 352.68358665 265 347 C265.51369141 346.55188965 266.02738281 346.1037793 266.55664062 345.64208984 C278.86366627 334.85701844 288.45836422 322.94721204 297 309 C294.50188869 311.45485398 292.13778757 313.95286392 289.875 316.625 C261.7493001 348.63416474 217.55805412 370.82660755 175 375 C142.58531408 376.941026 110.42356909 371.65212573 85 350 C72.38773084 338.79823624 62.2047962 325.53655744 60.76171875 308.125 C60.47221925 295.93554719 63.35830947 285.57852453 71 276 C71.62132812 275.21625 72.24265625 274.4325 72.8828125 273.625 C80.17841869 264.92749301 87.64759252 260.55682287 99 259 C107.11542975 258.76298394 113.93311814 259.98439911 121 264 C122.03125 264.5775 123.0625 265.155 124.125 265.75 C131.63837509 271.63003268 136.49321586 278.26942559 137.8125 287.875 C138.48702397 297.58227967 135.19626674 303.98593264 130 312 C129.67 312.66 129.34 313.32 129 314 C136.52698298 307.67555276 142.15968893 298.72810674 143.23828125 288.80859375 C143.58061706 277.87186563 139.3929421 268.0273627 132 260 C120.84120042 250.39648643 108.6521611 245.94642276 93.859375 246.62109375 C83.47947904 247.6401726 75.36410283 251.97625026 67 258 C66.36449219 258.44988281 65.72898437 258.89976562 65.07421875 259.36328125 C52.43898997 269.21004575 45.33572859 284.47638847 43 300 C41.11977232 319.8111795 48.47743434 337.7657584 60.6328125 353.1953125 C80.87981029 377.18432969 110.57244003 390.76783647 141.66015625 393.43359375 C151.8543537 394.16381348 161.82402808 393.91232852 172 393 C172 393.66 172 394.32 172 395 C150.04374747 405.90259889 129.03453138 413.97643772 105 419 C104.17999512 419.18079102 103.35999023 419.36158203 102.51513672 419.54785156 C77.15189605 424.96398829 46.2896691 424.57575334 21 419 C19.53602783 418.69400879 19.53602783 418.69400879 18.04248047 418.38183594 C-20.7563315 410.17405031 -56.48756789 393.06734088 -85.7421875 366.0703125 C-87.76475254 364.21571134 -89.83483984 362.44964839 -91.9375 360.6875 C-115.11322736 340.42046717 -127.72854497 312.04010912 -129.875 281.453125 C-129.91625 280.64359375 -129.9575 279.8340625 -130 279 C-130.04125 278.31421875 -130.0825 277.6284375 -130.125 276.921875 C-130.80417417 254.67892102 -124.03285339 230.73698252 -109 214 C-108.26007813 213.16726563 -107.52015625 212.33453125 -106.7578125 211.4765625 C-95.92244633 199.94884067 -83.42917381 193.73800718 -67.68359375 192.94140625 C-53.26368634 193.17077911 -40.42068201 198.6969486 -30.06640625 208.65234375 C-24.3773215 215.11574627 -22.88962586 222.5257189 -23 231 C-24.11773868 241.64431146 -29.36474141 249.71243078 -37 257 C-44.03558862 262.52126193 -51.2887519 264.34618498 -60.125 264.1875 C-60.81464844 264.18685547 -61.50429687 264.18621094 -62.21484375 264.18554688 C-65.92743505 264.15360297 -69.39033053 263.87783791 -73 263 C-71.58521865 263.64995297 -70.16808513 264.29478722 -68.75 264.9375 C-67.96109375 265.29714844 -67.1721875 265.65679688 -66.359375 266.02734375 C-57.1122774 269.83947505 -46.90319576 268.70588591 -37.71875 265.26171875 C-33.62009926 263.35961503 -30.3573311 260.99970235 -27 258 C-26.40703125 257.52175781 -25.8140625 257.04351563 -25.203125 256.55078125 C-16.51234713 248.91750954 -12.20774231 237.57550394 -11.08984375 226.30859375 C-10.78449607 215.06383345 -14.98277501 205.96844856 -21.1875 196.75 C-34.93771682 183.30534355 -52.5727019 175.39476142 -71.8449707 175.58227539 C-92.63892508 176.3739297 -110.1889269 186.51807422 -124.26953125 201.3984375 C-137.13364247 216.67298376 -144.33350114 234.00219174 -147.70825195 253.52612305 C-147.85093506 254.33992432 -147.99361816 255.15372559 -148.140625 255.9921875 C-148.31899902 257.08055908 -148.31899902 257.08055908 -148.50097656 258.19091797 C-149 260 -149 260 -151 262 C-166.16384166 202.18156941 -159.15741582 141.39451154 -128.015625 87.75 C-121.59024361 77.0920261 -114.12735049 67.40559575 -106 58 C-104.81277344 56.61748047 -104.81277344 56.61748047 -103.6015625 55.20703125 C-101.4450719 52.75859698 -99.24302964 50.36934359 -97 48 C-96.10023438 47.04738281 -95.20046875 46.09476563 -94.2734375 45.11328125 C-87.07254987 37.63149511 -79.31528397 31.20079975 -71 25 C-70.16130371 24.36215576 -70.16130371 24.36215576 -69.30566406 23.71142578 C-55.32295311 13.09582999 -39.88346471 4.92557157 -23.85107422 -2.15576172 C-22.16687655 -2.92389091 -20.51994712 -3.77244312 -18.87890625 -4.62890625 C-10.55260435 -8.58537595 -6.87588383 -5.22967355 0 0 Z M298 305 C299 307 299 307 299 307 Z " fill="#951BBD" transform="translate(280,628)"/>
<path d="M0 0 C17.18606654 6.88203107 27.84661075 21.6679404 35.20214844 38.09960938 C42.74569128 56.0674605 45.21688283 75.52509834 45.125 94.875 C45.12089111 95.9256665 45.11678223 96.97633301 45.11254883 98.05883789 C44.96975326 117.90742227 44.96975326 117.90742227 42.4375 124.25 C40.85656813 128.4325551 40.80587898 132.4075286 40.86328125 136.8203125 C40.86873962 137.57041595 40.874198 138.32051941 40.87982178 139.09335327 C40.95986376 146.61423662 41.29070424 154.11820292 41.75 161.625 C41.81435242 162.69299332 41.81435242 162.69299332 41.88000488 163.78256226 C45.22127057 218.23190558 53.43243242 272.21189367 71 324 C71.4036377 325.1972168 71.80727539 326.39443359 72.22314453 327.62792969 C78.05438939 344.78669239 84.62483957 361.35969557 92.78515625 377.54296875 C93.24792969 378.4750415 93.71070313 379.40711426 94.1875 380.36743164 C95.07406225 382.14543601 95.97782775 383.91501573 96.90234375 385.67358398 C99.80707201 391.49749477 100.89403589 396.49135977 100 403 C96.46883641 410.98350029 88.33865651 414.62234617 80.625 417.75 C70.56656283 421.39064083 60.62692083 422.35799206 50 423 C50.79664063 423.69222656 50.79664063 423.69222656 51.609375 424.3984375 C57.96381768 430.26586085 61.37494493 435.91026583 62.4375 444.5625 C60.7492908 457.82700085 52.16503227 467.40393471 42.0078125 475.609375 C37.41713483 479 37.41713483 479 35 479 C35 479.66 35 480.32 35 481 C35.58910156 481.268125 36.17820312 481.53625 36.78515625 481.8125 C43.93007908 485.64328755 48.29389935 492.54318933 51 500 C51.7035251 505.27643824 50.94922158 508.57616762 48 513 C44.12977354 516.91565166 39.75978889 520.18918812 35.375 523.5 C28.14858574 529.09424139 23.05716818 534.87390338 21.68359375 544.1328125 C20.86205358 559.76857701 27.93738219 573.99004223 34.5390625 587.6640625 C39.98943585 599.14820693 41.66496103 611.66068396 38 624 C35.04154123 632.09553154 30.02578285 637.95372129 24 644 C23.40703125 644.61617187 22.8140625 645.23234375 22.203125 645.8671875 C-6.34763216 673.28096761 -61.22727741 680.44967527 -99 680 C-98.96519531 681.27488281 -98.93039062 682.54976562 -98.89453125 683.86328125 C-98.06355642 728.51657828 -109.24774495 772.83061303 -122.875 815.0625 C-123.29894043 816.3864679 -123.29894043 816.3864679 -123.73144531 817.73718262 C-124.53602901 820.2362861 -125.35472532 822.73021494 -126.1796875 825.22265625 C-126.42000702 825.96779984 -126.66032654 826.71294342 -126.90792847 827.48066711 C-128.08119231 830.95910911 -129.02291633 833.71969228 -132 836 C-130.0432353 827.1449425 -128.07497185 818.29336526 -126.03515625 809.45703125 C-116.72823145 768.95722734 -110.75861874 728.18676888 -110.8125 686.5625 C-110.81310425 685.69181885 -110.8137085 684.8211377 -110.81433105 683.92407227 C-110.95408498 609.30910898 -136.91621021 548.72422544 -182.4921875 490.51953125 C-189.15576239 481.99993992 -194.9597175 473.58520554 -200 464 C-200.45246094 463.20851563 -200.90492187 462.41703125 -201.37109375 461.6015625 C-204.33789547 456.24284106 -204.61701808 451.93434569 -203.36425781 445.97660828 C-203.06358398 444.96040909 -202.76291016 443.9442099 -202.453125 442.8972168 C-201.93719536 441.12774437 -201.93719536 441.12774437 -201.4108429 439.32252502 C-201.02404749 438.03137732 -200.63709447 436.74027683 -200.25 435.44921875 C-199.84475898 434.07214046 -199.44037915 432.69480849 -199.03678894 431.31724548 C-198.16326783 428.34235142 -197.28382845 425.36929547 -196.39974976 422.39752197 C-194.97246225 417.59960554 -193.5582241 412.79790096 -192.14575195 407.99560547 C-190.39012133 402.02993189 -188.63121062 396.06524337 -186.86820316 390.10174561 C-183.59524199 379.03031258 -180.34454118 367.95248478 -177.10546875 356.87109375 C-176.86296513 356.04154112 -176.6204615 355.21198849 -176.37060928 354.3572979 C-175.38662068 350.99117309 -174.40271544 347.62502393 -173.41898918 344.25882244 C-170.90562557 335.65881521 -168.38791981 327.06008093 -165.86978531 318.46146965 C-164.59585597 314.11139081 -163.32209769 309.76126187 -162.04833984 305.41113281 C-161.796257 304.55023009 -161.54417416 303.68932737 -161.28445244 302.80233669 C-158.51834245 293.35541424 -155.75323387 283.90819874 -152.98828125 274.4609375 C-152.74113058 273.61647694 -152.49397991 272.77201637 -152.23933983 271.90196609 C-150.99187326 267.63962423 -149.74442246 263.37727775 -148.49697876 259.1149292 C-146.24813832 251.43096973 -143.99915787 243.74705125 -141.75018883 236.06312943 C-140.50012023 231.79208794 -139.25006056 227.52104384 -138 223.25 C-137.50000004 221.54166665 -137.00000004 219.83333332 -136.5 218.125 C-136.2525 217.279375 -136.005 216.43375 -135.75 215.5625 C-135 213 -134.25 210.4375 -133.5 207.875 C-133.25249339 207.0293514 -133.00498678 206.18370279 -132.74997997 205.31242847 C-132.25004896 203.60433291 -131.75011572 201.89623799 -131.25018024 200.18814373 C-129.99910649 195.91367792 -128.74807161 191.63920073 -127.49711609 187.36470032 C-125.25997819 179.72056435 -123.02259091 172.07650195 -120.78370571 164.43287754 C-119.5496181 160.21963204 -118.31576431 156.00631809 -117.08203125 151.79296875 C-116.83708231 150.95645468 -116.59213337 150.11994061 -116.33976173 149.25807762 C-112.87046954 137.40856177 -109.41235463 125.55582563 -105.96139526 113.70095825 C-104.01222185 107.00525966 -102.06020153 100.31039199 -100.10754204 93.6157093 C-98.51357284 88.14979738 -96.92343156 82.68279108 -95.33615398 77.21493244 C-94.35701162 73.84541417 -93.37420741 70.47697217 -92.3903904 67.10881615 C-91.93589835 65.55002931 -91.48293101 63.99079696 -91.03162193 62.43108559 C-90.41277171 60.29309485 -89.78846013 58.15677038 -89.1628418 56.02075195 C-88.64188179 54.22997978 -88.64188179 54.22997978 -88.11039734 52.4030304 C-84.67694052 41.88052868 -84.67694052 41.88052868 -81.05859375 39.26171875 C-80.48423584 38.83914795 -79.90987793 38.41657715 -79.31811523 37.98120117 C-78.69751221 37.55427979 -78.07690918 37.1273584 -77.4375 36.6875 C-76.78273682 36.22384033 -76.12797363 35.76018066 -75.45336914 35.2824707 C-56.61522194 22.24203825 -36.15100423 12.19038852 -13 11 C-12.97812622 11.8818396 -12.97812622 11.8818396 -12.95581055 12.78149414 C-12.16387236 41.47875955 -6.12816003 71.87183997 15 93 C14.14728516 91.67162109 14.14728516 91.67162109 13.27734375 90.31640625 C1.03483754 70.83969183 -5.12948077 51.43542281 -5.3125 28.375 C-5.34150391 27.18003906 -5.37050781 25.98507812 -5.40039062 24.75390625 C-5.46032252 16.24357706 -4.13213843 8.93411457 -1 1 C-0.67 0.67 -0.34 0.34 0 0 Z " fill="#A228CC" transform="translate(1255,382)"/>
<path d="M0 0 C1.22969513 -0.00705963 2.45939026 -0.01411926 3.72634888 -0.02139282 C7.67435483 -0.03891462 11.62227575 -0.04608503 15.5703125 -0.046875 C16.24364624 -0.04716957 16.91697998 -0.04746414 17.61071777 -0.04776764 C37.8043594 -0.04919493 57.67997645 0.23457658 77.6953125 3.203125 C79.05959731 3.39403913 80.42402447 3.58393808 81.78857422 3.77294922 C99.852037 6.30438367 117.56436803 9.90205596 135.2578125 14.328125 C136.10656952 14.53986359 136.95532654 14.75160217 137.82980347 14.96975708 C146.97551519 17.26941134 155.90373748 19.75167492 164.6953125 23.203125 C162.61952096 31.10814463 160.25735901 38.88864819 157.73046875 46.66015625 C157.34552246 47.85108887 156.96057617 49.04202148 156.56396484 50.26904297 C155.73273976 52.83953329 154.90063044 55.4097158 154.06692505 57.97940063 C152.72954319 62.10159156 151.39564671 66.22490534 150.06225586 70.34838867 C148.43239327 75.38800507 146.80175347 80.4273686 145.1700983 85.46640491 C142.32886802 94.24133372 139.49421512 103.01836753 136.6640625 111.796875 C136.4612007 112.42608541 136.25833889 113.05529583 136.04932976 113.70357323 C135.02791999 116.87172491 134.00660298 120.03990648 132.98532104 123.20809937 C130.91174713 129.64034469 128.83682783 136.07215604 126.76171875 142.50390625 C126.55442705 143.14640635 126.34713535 143.78890644 126.13356209 144.45087624 C120.93877272 160.55149513 115.7366006 176.64972827 110.53452301 192.74799347 C103.89527199 213.29381383 97.26078049 233.84116191 90.6328125 254.390625 C90.42741852 255.02743195 90.22202454 255.66423889 90.01040649 256.32034302 C88.14672962 262.09857312 86.28314347 267.87683249 84.41964722 273.65512085 C80.4708496 285.89945502 76.52116686 298.14350359 72.57135105 310.38750935 C71.11398516 314.90520831 69.65670573 319.42293517 68.19946289 323.94067383 C64.43179541 335.62108512 60.66380899 347.3013931 56.89427185 358.98120117 C55.41496824 363.56478776 53.93583904 368.14843062 52.4567728 372.73209381 C51.4145074 375.96209333 50.37217667 379.19207173 49.3296814 382.42199707 C44.91628055 396.09628059 40.50936838 409.77259802 36.12107086 423.45495987 C35.47992634 425.4538961 34.83859515 427.45277234 34.19720459 429.45162964 C33.7794138 430.75372149 33.36162811 432.05581498 32.94384766 433.35791016 C32.73998192 433.99329397 32.53611618 434.62867779 32.32607269 435.28331566 C30.93743916 439.61197203 29.55128303 443.94141774 28.16552734 448.27099609 C27.45286743 450.49318586 26.74014333 452.71535503 26.02734375 454.9375 C25.53982887 456.46387589 25.53982887 456.46387589 25.04246521 458.02108765 C24.59762535 459.40622055 24.59762535 459.40622055 24.14379883 460.81933594 C23.88657547 461.622724 23.62935211 462.42611206 23.36433411 463.25384521 C22.6953125 465.203125 22.6953125 465.203125 21.6953125 467.203125 C19.21894284 468.13288112 16.78670462 468.94514643 14.2578125 469.703125 C13.58298828 469.91582031 12.90816406 470.12851562 12.21289062 470.34765625 C2.14265881 473.43598699 -7.32494343 474.59103914 -17.8671875 474.578125 C-19.70869385 474.5778833 -19.70869385 474.5778833 -21.58740234 474.57763672 C-45.2254572 474.2823553 -45.2254572 474.2823553 -51.3046875 468.203125 C-51.91639935 465.57127115 -52.41766503 462.99386815 -52.85546875 460.33203125 C-52.99452133 459.52051605 -53.13357391 458.70900085 -53.27684021 457.87289429 C-53.73459746 455.17217584 -54.17752182 452.46934504 -54.6171875 449.765625 C-54.77086792 448.82921173 -54.92454834 447.89279846 -55.08288574 446.92800903 C-63.01099724 398.35162504 -66.55762224 349.73112609 -66.61431503 300.53393936 C-66.61712234 298.31708233 -66.62263481 296.10024356 -66.62832642 293.88339233 C-66.68006849 266.08686974 -65.43526602 238.35953714 -62.5546875 210.703125 C-62.47231842 209.89603088 -62.38994934 209.08893677 -62.30508423 208.25738525 C-56.21293174 148.98912906 -44.95113134 90.52934797 -27.18994141 33.63208008 C-26.83077637 32.4798999 -26.47161133 31.32771973 -26.1015625 30.140625 C-25.61574707 28.59761719 -25.61574707 28.59761719 -25.12011719 27.0234375 C-22.86937513 19.23883505 -23.33602922 13.01033832 -25.3046875 5.203125 C-25.63819967 3.86983639 -25.97156022 2.53650983 -26.3046875 1.203125 C-17.52374663 0.42108814 -8.81419454 0.03382068 0 0 Z " fill="#BD41EA" transform="translate(877.3046875,174.796875)"/>
<path d="M0 0 C0.27263672 1.18468872 0.27263672 1.18468872 0.55078125 2.39331055 C1.08236512 4.70041861 1.61500017 7.00728462 2.1484375 9.31396484 C2.67719639 11.60272682 3.20367113 13.89201931 3.7265625 16.18212891 C10.26349965 44.57021519 19.53975077 71.65419246 32 98 C32.43248047 98.92393555 32.86496094 99.84787109 33.31054688 100.79980469 C45.13152811 125.87272804 59.65524641 150.78144303 77.25390625 172.265625 C77.96297119 173.14444336 78.67203613 174.02326172 79.40258789 174.92871094 C80.72521687 176.55016693 82.0742483 178.15076225 83.45874023 179.71972656 C90.62061236 188.50208704 92.92688629 199.31435646 96 210 C96.76873691 212.61388162 97.53899379 215.22728346 98.31054688 217.84033203 C100.68375466 225.89834345 103.01641458 233.96786198 105.34387207 242.03918457 C106.2157226 245.05992364 107.09055113 248.0797965 107.96543884 251.09965706 C113.06623253 268.70850433 118.09974779 286.33409014 123 304 C117.08525875 303.28818482 111.65353847 301.34724949 106.03515625 299.45703125 C103.79070458 298.71170673 101.54615265 297.96668407 99.30151367 297.22192383 C97.53159561 296.63237411 97.53159561 296.63237411 95.72592163 296.03091431 C60.47303642 284.30618698 24.99030407 273.25393399 -11 264 C-9.88181885 264.40089844 -8.7636377 264.80179688 -7.61157227 265.21484375 C27.3420424 277.76373289 61.98244657 290.95593687 96.3125 305.125 C97.17322113 305.47907928 98.03394226 305.83315857 98.92074585 306.19796753 C103.62105856 308.13511586 108.30640814 310.10169593 112.97027588 312.12512207 C114.28167497 312.69037826 115.59687515 313.24693169 116.91644287 313.79284668 C118.61602306 314.49871909 120.29897897 315.24424312 121.98046875 315.9921875 C122.89078857 316.38519043 123.8011084 316.77819336 124.73901367 317.18310547 C128.02143453 319.82080939 128.84916071 323.0986087 130 327 C130.22293228 327.71435211 130.44586456 328.42870422 130.67555237 329.16470337 C131.37476967 331.44438926 132.04082115 333.73164426 132.69921875 336.0234375 C132.9391304 336.85082428 133.17904205 337.67821106 133.42622375 338.53067017 C133.92769321 340.2630043 134.42760881 341.99578895 134.92602539 343.72900391 C135.69171408 346.38964322 136.46368736 349.04840349 137.23632812 351.70703125 C137.72433118 353.39572563 138.21197445 355.08452404 138.69921875 356.7734375 C139.04601936 357.96711441 139.04601936 357.96711441 139.39982605 359.18490601 C141 364.76961374 141 364.76961374 141 367 C131.1779496 364.68956947 121.56159568 361.82694934 111.91796875 358.87890625 C110.25742326 358.37361363 108.59680234 357.86856882 106.93611145 357.36375427 C102.56588559 356.03449627 98.19677908 354.70159497 93.82788086 353.36798096 C90.3784012 352.31567437 86.92813782 351.26595286 83.47782612 350.21637821 C73.17855714 347.08334503 62.88221233 343.94080675 52.58786392 340.79164505 C50.85744889 340.26229941 49.12699772 339.73307189 47.39651108 339.20396042 C26.86353725 332.92547332 6.34144789 326.62631332 -14.0625 319.9375 C-15.0855423 319.60271637 -16.10858459 319.26793274 -17.16262817 318.92300415 C-113.06153716 287.48951912 -113.06153716 287.48951912 -131 263 C-133.47236 257.73103606 -134.04715684 253.06354257 -132.16015625 247.54296875 C-126.76018761 235.70667386 -117.29109942 229.57146113 -106 224 C-105.34 224 -104.68 224 -104 224 C-104.01571045 222.92443848 -104.0314209 221.84887695 -104.04760742 220.74072266 C-104.84163061 160.94066755 -93.64894318 106.63917905 -57 58 C-56.52530273 57.36835938 -56.05060547 56.73671875 -55.56152344 56.0859375 C-50.11549905 48.88980852 -44.40025381 42.05560246 -38.2578125 35.44140625 C-36.32656147 33.35311578 -34.4668194 31.22908466 -32.625 29.0625 C-25.39855653 20.75977772 -17.40061145 13.09987161 -9 6 C-8.34902344 5.42121094 -7.69804687 4.84242188 -7.02734375 4.24609375 C-6.39957031 3.69050781 -5.77179688 3.13492187 -5.125 2.5625 C-4.29355469 1.82193359 -4.29355469 1.82193359 -3.4453125 1.06640625 C-2 0 -2 0 0 0 Z " fill="#B237DD" transform="translate(400,333)"/>
<path d="M0 0 C1.46143433 -0.00700928 1.46143433 -0.00700928 2.95239258 -0.01416016 C20.38474188 0.02437092 20.38474188 0.02437092 26.3125 5.125 C30.10141384 9.31274688 30.80330578 12.4377024 30.70507812 17.85888672 C29.90566651 24.50971296 27.68851021 30.84948649 25.6986084 37.22531128 C24.2763037 41.80110814 22.91187429 46.39396448 21.55078125 50.98828125 C21.13449966 52.39316551 21.13449966 52.39316551 20.70980835 53.82643127 C5.25938299 106.42828004 -2.89962295 161.24442738 -7.48895264 215.7755127 C-7.67189 217.9402809 -7.86102666 220.10441902 -8.05126953 222.26855469 C-11.70799688 265.5716181 -11.64526499 310.85845505 -7.6875 354.125 C-7.5568289 355.62463423 -7.42664178 357.12431069 -7.296875 358.62402344 C-4.15891863 394.44220169 1.33660564 429.86420922 8.3125 465.125 C4.70557979 464.32790107 2.3741565 462.97077677 -0.6875 460.875 C-7.11903208 456.7068889 -14.0781222 452.68090486 -21.796875 451.75 C-25.25036534 451.32927021 -27.6179779 450.78997026 -30.6875 449.125 C-34.72894619 443.93354879 -37.15471748 438.16268884 -39.6875 432.125 C-40.09210449 431.19220215 -40.49670898 430.2594043 -40.91357422 429.29833984 C-60.73376839 383.37126938 -69.41116121 333.61159905 -74.6875 284.125 C-74.89802002 282.15732666 -74.89802002 282.15732666 -75.11279297 280.14990234 C-83.45001097 200.37004838 -81.40540975 118.86241272 -73.6875 39.125 C-73.61563477 38.35289185 -73.54376953 37.58078369 -73.46972656 36.78527832 C-73.27012463 34.71095891 -73.04672315 32.64097189 -72.8125 30.5703125 C-72.69132813 29.45414551 -72.57015625 28.33797852 -72.4453125 27.18798828 C-70.65818744 19.96464065 -65.73410959 15.88122717 -59.6875 12.125 C-48.47003489 6.09692296 -36.27311223 2.72344006 -23.6875 1.125 C-22.39585937 0.95677734 -22.39585937 0.95677734 -21.078125 0.78515625 C-14.06516262 0.04534953 -7.04455959 0.02342794 0 0 Z " fill="#BD42EA" transform="translate(804.6875,174.875)"/>
<path d="M0 0 C3.99301284 1.33100428 4.86228646 3.27239521 7.30859375 6.6796875 C13.16737081 14.5784268 20.02142817 21.29044136 27.0625 28.125 C35.22004228 36.06772808 43.02635851 43.96474664 50 53 C50.59643311 53.75780762 51.19286621 54.51561523 51.80737305 55.29638672 C61.09048247 67.20174621 68.96568247 79.64988302 76 93 C76.41620605 93.78842285 76.83241211 94.5768457 77.26123047 95.38916016 C89.65260992 119.25199109 98.45823098 146.950247 99 174 C99.03867188 175.01449219 99.07734375 176.02898437 99.1171875 177.07421875 C99.23315125 182.002678 99.26609493 184.46781013 97 189 C96.01 183.555 96.01 183.555 95 178 C93.329375 177.938125 91.65875 177.87625 89.9375 177.8125 C74.2122565 176.56744276 58.81514815 172.3498313 44.00610352 167.06005859 C42.71337524 166.61460693 42.71337524 166.61460693 41.39453125 166.16015625 C40.64018799 165.88824463 39.88584473 165.61633301 39.10864258 165.33618164 C36.39871992 164.9041377 35.28519535 165.55033295 33 167 C-13.72263986 204.14491512 -36.35040164 270.57568066 -43.45703125 327.8671875 C-44.64828488 338.57900741 -45.19478474 349.22295611 -45.1875 360 C-45.1862915 361.89032959 -45.1862915 361.89032959 -45.18505859 363.81884766 C-45.11497778 374.6401502 -44.35523248 385.26956024 -43 396 C-42.85594727 397.15798096 -42.85594727 397.15798096 -42.70898438 398.33935547 C-42.17724332 402.56524991 -41.60870558 406.78439006 -41 411 C-42.30130859 410.83564453 -42.30130859 410.83564453 -43.62890625 410.66796875 C-68.42826549 407.63885138 -93.02652198 405.5290723 -118 405 C-115.93169815 396.41758897 -113.58248149 387.94656596 -111.0703125 379.484375 C-110.68404178 378.17619396 -110.29802239 376.86793869 -109.91223145 375.55961609 C-109.08580902 372.75841861 -108.25798076 369.95764224 -107.42901611 367.15719604 C-105.40017737 360.30250899 -103.3794479 353.44542911 -101.35825729 346.58848381 C-100.88823146 344.99399294 -100.41812016 343.39952725 -99.94792557 341.80508614 C-95.02216507 325.10110311 -90.142431 308.38385387 -85.27321625 291.66331482 C-83.30022902 284.888563 -81.32619623 278.11411584 -79.3515625 271.33984375 C-79.13241306 270.58800938 -78.91326363 269.836175 -78.6874733 269.06155777 C-73.48063743 251.20115584 -68.24101311 233.35039645 -63 215.5 C-55.59208049 190.26883301 -48.21021978 165.03023639 -40.85429382 139.78386307 C-33.00415754 112.84168791 -25.11742346 85.91036535 -17.20793152 58.98555565 C-16.12271759 55.29123342 -15.03780554 51.59682262 -13.953125 47.90234375 C-13.74574707 47.19601177 -13.53836914 46.48967979 -13.32470703 45.76194382 C-8.85011617 30.51754465 -4.41918636 15.26054279 0 0 Z " fill="#8A11B1" transform="translate(1036,882)"/>
<path d="M0 0 C-0.19263428 1.11125244 -0.38526855 2.22250488 -0.58374023 3.36743164 C-2.71455853 16.0189987 -4.04446375 28.65245889 -5.0625 41.4375 C-5.14649048 42.48187225 -5.23048096 43.52624451 -5.3170166 44.6022644 C-5.91223512 52.06578393 -6.46881072 59.53166463 -7 67 C-7.06378845 67.88949341 -7.1275769 68.77898682 -7.19329834 69.69543457 C-11.1420159 125.64433912 -11.15395842 183.15277612 -6 239 C-5.91278687 239.95318115 -5.82557373 240.9063623 -5.73571777 241.88842773 C0.06969837 304.62446052 9.68459183 374.10609503 42.09082031 429.23803711 C43 431 43 431 43 433 C41.88882813 433.24234375 40.77765625 433.4846875 39.6328125 433.734375 C32.18318474 435.39887633 24.98667873 437.05547547 17.98046875 440.16796875 C16.00233744 440.999018 14.08299729 441.50262849 12 442 C4.08989303 417.87862478 -3.78721577 393.74778046 -11.5 369.5625 C-18.18507323 348.60378871 -24.95630559 327.67368352 -31.75 306.75 C-33.82439839 300.36073539 -35.89868496 293.97143451 -37.97265625 287.58203125 C-38.22837214 286.79425293 -38.48408802 286.00647461 -38.74755287 285.19482422 C-43.91257969 269.28163307 -49.05476698 253.36113328 -54.1875 237.4375 C-54.59093628 236.18594116 -54.99437256 234.93438232 -55.41003418 233.64489746 C-57.03777093 228.59515686 -58.66550024 223.54541387 -60.29312134 218.49563599 C-64.58106948 205.1938771 -68.87837035 191.89514339 -73.17614746 178.59655762 C-75.80621861 170.45822081 -78.43538779 162.31959253 -81.06466675 154.18099976 C-81.50160715 152.82851152 -81.93854766 151.47602332 -82.37548828 150.12353516 C-82.59172033 149.454214 -82.80795238 148.78489285 -83.03073692 148.09528923 C-84.34795125 144.01807355 -85.66535834 139.94092022 -86.98289776 135.86380959 C-91.84195966 120.82726144 -96.69659791 105.78931363 -101.5381012 90.74710083 C-103.79773594 83.72755911 -106.06393649 76.71018997 -108.33598328 69.69465637 C-109.68764782 65.51608353 -111.03324353 61.33557659 -112.37698364 57.15444946 C-112.99487755 55.23610607 -113.61533316 53.31858568 -114.23849487 51.40194702 C-115.07857155 48.81697387 -115.90960905 46.22927235 -116.73828125 43.640625 C-117.10999954 42.50809044 -117.10999954 42.50809044 -117.48922729 41.35267639 C-119.11413774 36.22827548 -119.11413774 36.22827548 -118 34 C-115.91671081 33.11906629 -113.7907506 32.33868812 -111.65234375 31.6015625 C-110.98640198 31.37075989 -110.32046021 31.13995728 -109.63433838 30.90216064 C-107.40510932 30.13385055 -105.17179083 29.37845544 -102.9375 28.625 C-102.16314606 28.36189026 -101.38879211 28.09878052 -100.5909729 27.82769775 C-74.61633355 19.01652438 -48.32051758 11.28420847 -21.8125 4.25 C-20.99268646 4.03100037 -20.17287292 3.81200073 -19.32821655 3.58636475 C-17.01886742 2.97199178 -14.70730702 2.36695375 -12.39453125 1.765625 C-11.71621246 1.58502533 -11.03789368 1.40442566 -10.33901978 1.21835327 C-6.8152922 0.31657731 -3.63864031 -0.19703671 0 0 Z " fill="#BF43EC" transform="translate(716,190)"/>
<path d="M0 0 C4.30465578 3.35310029 8.17158429 7.12076461 12 11 C12.66773438 11.66902344 13.33546875 12.33804688 14.0234375 13.02734375 C27.43303343 27.3774317 34.00895105 46.41581774 39 65 C40.08376145 46.81689129 36.08259069 26.99450555 26.8125 11.17578125 C25 8 25 8 25 6 C25.85722656 6.13277344 26.71445312 6.26554688 27.59765625 6.40234375 C29.31275391 6.66724609 29.31275391 6.66724609 31.0625 6.9375 C32.75052734 7.19853516 32.75052734 7.19853516 34.47265625 7.46484375 C35.63667969 7.64144531 36.80070313 7.81804688 38 8 C39.10988281 8.18175781 40.21976563 8.36351562 41.36328125 8.55078125 C56.36695185 10.40408106 71.19431543 8.49734439 86 6 C84.45377302 13.72442115 82.14525365 21.09262985 79.6953125 28.57421875 C79.25973857 29.91471284 78.82455296 31.25533317 78.38972473 32.59606934 C77.45952255 35.46166375 76.52679042 38.32641689 75.5920105 41.19052124 C74.10085199 45.75952618 72.61546933 50.33039577 71.13110352 54.90161133 C69.59601423 59.62829159 68.06065438 64.35488239 66.52339172 69.08085632 C62.04328969 82.85469688 57.59194148 96.63769551 53.15011597 110.42391968 C51.11929789 116.72694319 49.08708311 123.02951626 47.0546875 129.33203125 C46.85229147 129.9597172 46.64989544 130.58740314 46.4413662 131.23410988 C43.29441596 140.99326152 40.14205147 150.75065571 36.98689842 160.50715828 C36.2613183 162.75087773 35.53583385 164.99462809 34.81037903 167.23838806 C34.33200287 168.71792672 33.85362458 170.19746468 33.37524414 171.67700195 C33.14018064 172.40400897 32.90511713 173.13101599 32.66293049 173.88005352 C31.29010342 178.12566765 29.91657465 182.37105395 28.54249668 186.61626339 C27.69123073 189.2468245 26.84067191 191.87761395 25.99021339 194.5084362 C25.3896597 196.36519065 24.7880629 198.2216076 24.18644714 200.07801819 C22.54318921 205.16024532 20.91215525 210.24352802 19.36669922 215.35644531 C19.13417953 216.12292389 18.90165985 216.88940247 18.66209412 217.67910767 C18.08470147 219.59840142 17.51818693 221.52095925 16.95288086 223.44384766 C16 226 16 226 14 227 C12.81001879 226.1283774 11.62318786 225.25245401 10.4375 224.375 C9.77621094 223.88773438 9.11492187 223.40046875 8.43359375 222.8984375 C7.63050781 222.27195312 6.82742188 221.64546875 6 221 C5.20399384 220.47824692 5.20399384 220.47824692 4.39190674 219.94595337 C-1.87875295 215.39648691 -3.40591468 209.5720514 -5.57421875 202.375 C-5.97778804 201.09670392 -6.38347485 199.81907472 -6.79110718 198.54206848 C-7.66018183 195.80456673 -8.51471964 193.06310985 -9.35794067 190.3175354 C-10.7053811 185.93058657 -12.08449464 181.55399355 -13.46850586 177.1784668 C-15.14623045 171.86734693 -16.81653373 166.55400977 -18.4768877 161.23743343 C-21.3091469 152.16996158 -24.19249557 143.12008915 -27.1171875 134.08203125 C-27.32292767 133.44614452 -27.52866783 132.8102578 -27.74064255 132.15510178 C-28.77096763 128.97162801 -29.80229587 125.78848125 -30.83404541 122.60546875 C-32.68395519 116.89369882 -34.5256789 111.17929555 -36.36741257 105.46488571 C-37.39754238 102.26894383 -38.4282507 99.07318857 -39.45898438 95.87744141 C-39.66535711 95.23757608 -39.87172985 94.59771076 -40.08435631 93.93845558 C-42.31053912 87.03652479 -44.53834114 80.13511678 -46.76614571 73.23370934 C-48.12501991 69.02395911 -49.48365124 64.81413049 -50.8422842 60.60430241 C-51.91790302 57.27149458 -52.99367774 53.93873726 -54.06985474 50.60610962 C-54.4729184 49.35784393 -54.87598206 48.10957825 -55.29125977 46.82348633 C-55.68486191 45.60470291 -56.07846405 44.38591949 -56.48399353 43.13020325 C-57.24726486 40.76321614 -58.00891818 38.39570657 -58.76881409 36.02763367 C-60.53819336 30.51377753 -62.32553462 25.00766365 -64.16162109 19.515625 C-64.4959465 18.50238159 -64.83027191 17.48913818 -65.17472839 16.44519043 C-65.79593755 14.56350164 -66.42610287 12.68473513 -67.0670929 10.80969238 C-69.59185355 3.100531 -69.59185355 3.100531 -68 -1 C-50.50743276 -19.04451718 -18.2930279 -12.07651781 0 0 Z " fill="#A228CC" transform="translate(806,656)"/>
<path d="M0 0 C9.20217303 7.28717201 11.22249598 19.13741517 14.30859375 29.97265625 C14.74113984 31.47341268 15.17425634 32.97400481 15.60791016 34.47444153 C16.74311034 38.40796844 17.87055539 42.34367625 18.99633789 46.27990723 C20.13213439 50.24591492 21.27539359 54.20976914 22.41796875 58.17382812 C23.70854422 62.65422679 24.99820663 67.13488276 26.28369141 71.616745 C26.47953827 72.29944112 26.67538513 72.98213724 26.87716675 73.68552113 C27.25915294 75.02024822 27.63982178 76.35535314 28.01907349 77.69085979 C28.94852846 80.95953302 29.89990721 84.21873302 30.89550781 87.46792603 C31.2715918 88.71641327 31.64767578 89.96490051 32.03515625 91.2512207 C32.37627441 92.35851028 32.71739258 93.46579987 33.06884766 94.60664368 C33.66832056 97.420497 33.67799902 98.83736196 32.68359375 101.4921875 C-2.69067907 102.33389254 -2.69067907 102.33389254 -16.31640625 97.4921875 C-16.93596191 97.27256348 -17.55551758 97.05293945 -18.19384766 96.82666016 C-26.3936647 93.83663655 -33.48837378 89.90218181 -40.31640625 84.4921875 C-41.02410156 83.94820312 -41.73179687 83.40421875 -42.4609375 82.84375 C-55.69236224 72.06633712 -61.28558335 56.95341055 -63.31640625 40.4921875 C-63.98380563 28.13359025 -60.22230016 17.89107026 -52.5703125 8.3046875 C-39.49438076 -6.04893404 -16.64947635 -10.83760181 0 0 Z " fill="#9C22C5" transform="translate(556.31640625,768.5078125)"/>
<path d="M0 0 C12.23671434 12.06497099 20.71797397 27.6327833 28 43 C28.40992188 43.76441406 28.81984375 44.52882813 29.2421875 45.31640625 C30.24218365 47.53804718 29.80136908 48.75616657 29 51 C28.20335937 50.84015625 27.40671875 50.6803125 26.5859375 50.515625 C1.41564163 46.89636677 -23.02181294 54.15404954 -44.69921875 66.75 C-47 68 -47 68 -49 68 C-48.76490723 67.08645752 -48.52981445 66.17291504 -48.28759766 65.23168945 C-47.95410485 63.92155143 -47.6213248 62.61123188 -47.2890625 61.30078125 C-47.10775787 60.58827713 -46.92645325 59.87577301 -46.73965454 59.14167786 C-45.72953811 55.11339228 -44.79281012 51.08283652 -43.96386719 47.01318359 C-37.00037649 12.90263083 -37.00037649 12.90263083 -28.26977539 6.91560364 C-21.65544299 3.14127985 -14.42168998 1.38277277 -7 0 C-3.78167679 -1.0727744 -3.03350441 -1.27429739 0 0 Z " fill="#C145EE" transform="translate(1231,317)"/>
<path d="M0 0 C2.10486682 3.15730022 2.9189409 5.6722387 3.97680664 9.30493164 C4.25863643 10.26477919 4.25863643 10.26477919 4.54615974 11.2440176 C5.17238501 13.38133383 5.79123343 15.52071501 6.41015625 17.66015625 C6.85414018 19.18067604 7.29859319 20.70105893 7.7434845 22.22131348 C8.94080432 26.31733944 10.13186809 30.41516025 11.3217392 34.51335526 C12.5555459 38.7591953 13.79477899 43.00345026 15.03369141 47.24780273 C16.54376686 52.42229687 18.05329683 57.5969473 19.5602417 62.77235413 C22.56455119 73.08942446 25.58230393 83.40239949 28.61891747 93.71000862 C29.22902109 95.78106548 29.83873805 97.85223575 30.44831848 99.92344666 C32.71693628 107.63151409 32.71693628 107.63151409 34.98953247 115.33840942 C36.0137073 118.80952448 37.03459214 122.28159053 38.0546875 125.75390625 C38.35671585 126.7742395 38.6587442 127.79457275 38.96992493 128.8458252 C39.24007919 129.76754517 39.51023346 130.68926514 39.78857422 131.63891602 C40.02422089 132.4386232 40.25986755 133.23833038 40.50265503 134.06227112 C41 136 41 136 41 138 C40.34 138 39.68 138 39 138 C16.6117471 95.13979186 1.43641764 50.25345781 -3 2 C-2.01 1.34 -1.02 0.68 0 0 Z " fill="#BE43EB" transform="translate(427,311)"/>
<path d="M0 0 C3.7952131 1.49097658 5.61042731 3.75700849 8 7 C6.70990357 7.50403768 5.41786211 8.00309926 4.125 8.5 C3.40570312 8.7784375 2.68640625 9.056875 1.9453125 9.34375 C0 10 0 10 -2 10 C-1.54177532 6.53058454 -1.10868317 3.32604951 0 0 Z " fill="#C549F2" transform="translate(1208,295)"/>
<path d="" fill="#961CBF" transform="translate(0,0)"/>
</svg>
