<?xml version="1.0" encoding="UTF-8"?>
<svg version="1.1" xmlns="http://www.w3.org/2000/svg" width="1576" height="1576">
<path d="M0 0 C2.58665275 0.00564724 5.17329893 0.00846329 7.75995636 0.0110817 C31.91208428 0.04661766 55.93254054 0.32402429 79.95508575 3.06805801 C82.28207983 3.33061566 84.61036567 3.577613 86.93933868 3.82196426 C172.28663633 12.85884922 255.32961992 36.26739978 384.170784 98.31805801 C385.75101349 99.20992813 385.75101349 99.20992813 387.36316681 100.11981583 C400.14509173 107.35184163 412.79330935 114.71202698 425.00574493 122.87421036 C427.41008827 124.47764817 429.82522411 126.06407944 432.2410965 127.65008926 C443.77191734 135.24582222 455.06168039 143.11868177 466.170784 151.31805801 C466.73587677 151.7339418 467.30096954 152.14982559 467.88318634 152.57831192 C487.57929117 167.10243989 506.60196441 182.60718781 524.6942215 199.08758926 C526.76780216 200.95512011 528.86161372 202.79219289 530.967659 204.62274551 C541.62571203 213.93458347 551.77380701 223.83042426 561.795784 233.81805801 C562.52909943 234.54678116 563.26241486 235.2755043 564.01795197 236.02630997 C567.99914662 240.01891598 571.79705516 244.10968732 575.4779129 248.38006973 C578.2446614 251.54742618 581.15326189 254.57853525 584.045784 257.63055801 C588.85885119 262.74828179 593.44991094 267.95747541 597.8348465 273.45087051 C600.67719955 276.939645 603.64083458 280.31079004 606.608284 283.69305801 C611.90406037 289.76308405 616.92269705 295.97485328 621.74988556 302.42450333 C623.36803614 304.5809253 624.99981642 306.726715 626.6317215 308.87274551 C640.25655467 326.84392184 653.07720306 345.2833652 665.170784 364.31805801 C665.96500763 365.56425919 665.96500763 365.56425919 666.77527618 366.83563614 C681.22999394 389.59412793 694.0331254 413.25454852 706.170784 437.31805801 C706.93189484 438.82408585 706.93189484 438.82408585 707.70838165 440.36053848 C721.93655712 468.71844075 733.81769218 498.34242408 744.170784 528.31805801 C744.39338898 528.96053482 744.61599396 529.60301163 744.84534454 530.26495743 C771.34599792 606.94820308 785.46995123 688.47586293 712.52527618 1115.43719864 C711.61826849 1117.36630657 710.71530521 1119.29732097 709.81629181 1121.23016739 C703.14314465 1135.57575228 695.94521578 1149.53903992 688.170784 1163.31805801 C687.58780548 1164.3536586 687.00482697 1165.38925919 686.40418243 1166.45624161 C666.87813891 1201.02430109 645.00940524 1234.31852287 620.170784 1265.31805801 C619.46308868 1266.2088002 618.75539337 1267.09954239 618.02625275 1268.01727676 C616.08342312 1270.45826783 614.13023054 1272.89039031 612.170784 1275.31805801 C611.48758087 1276.16497208 610.80437775 1277.01188614 610.1004715 1277.88446426 C600.69814814 1289.46044302 590.96264557 1300.67435194 580.77845001 1311.56683731 C579.63934079 1312.80766198 578.51633081 1314.0633547 577.40491486 1315.32904434 C570.39927488 1323.2812331 562.90668192 1330.73342075 555.40491486 1338.21429825 C553.1063119 1340.5075255 550.81312369 1342.80607041 548.52039337 1345.10516739 C547.03829212 1346.58660802 545.5558808 1348.06773851 544.07312775 1349.54852676 C543.39894302 1350.22473572 542.7247583 1350.90094467 542.03014374 1351.59764481 C538.12429588 1355.48458195 534.11497319 1359.19478604 529.93784332 1362.78911209 C527.35080874 1365.02754061 524.86157067 1367.36132525 522.358284 1369.69305801 C517.71174272 1373.98557009 512.9297916 1378.05143833 507.998909 1382.01727676 C505.49226057 1384.05652528 503.03421418 1386.1425284 500.58655548 1388.2518959 C493.96153685 1393.94878645 487.0836 1399.22715577 480.061409 1404.42352676 C476.63608857 1406.95909932 473.27565961 1409.56507212 469.920784 1412.19305801 C438.83438359 1436.28038803 404.65415586 1456.54510984 370.170784 1475.31805801 C369.18207306 1475.85640274 368.19336212 1476.39474747 367.17469025 1476.94940567 C291.10774743 1518.06903589 206.70986962 1544.86278799 65.170784 1564.31805801 C63.85626251 1564.42102188 62.54174103 1564.52398575 61.18738556 1564.63006973 C-26.01928678 1571.30266879 -113.73169143 1562.57319009 -291.829216 1509.31805801 C-292.98711639 1508.84577774 -294.14501678 1508.37349747 -295.33800507 1507.88690567 C-331.41479186 1493.06910969 -366.39618274 1475.37674021 -399.829216 1455.31805801 C-400.71818573 1454.78599747 -401.60715546 1454.25393692 -402.52306366 1453.70575333 C-428.33475885 1438.18682814 -453.1113711 1420.87343667 -476.829216 1402.31805801 C-477.98005067 1401.42586386 -479.13109833 1400.53394438 -480.282341 1399.64227676 C-487.73888107 1393.84812105 -495.01630666 1387.87704297 -502.18175507 1381.7272377 C-503.8573039 1380.29403262 -505.54148574 1378.87156064 -507.2276535 1377.45087051 C-514.77920395 1371.06666835 -522.06926181 1364.44995649 -529.26280975 1357.66571426 C-532.30741768 1354.79568433 -535.40466242 1351.98996693 -538.516716 1349.19305801 C-544.20868748 1343.9896345 -549.68076588 1338.57515354 -555.141716 1333.13055801 C-555.99016083 1332.28670547 -556.83860565 1331.44285294 -557.71276093 1330.57342911 C-562.03161572 1326.24394407 -566.19681788 1321.84757342 -570.18248749 1317.20990372 C-572.92939195 1314.05411978 -575.826712 1311.04175681 -578.704216 1308.00555801 C-583.54226425 1302.86090882 -588.16339849 1297.62541981 -592.5714035 1292.10321426 C-594.68469781 1289.49633046 -596.85860855 1286.96202227 -599.063591 1284.43329239 C-605.84179419 1276.65058745 -612.117667 1268.54314792 -618.32579803 1260.30194473 C-619.686985 1258.50574381 -621.06278159 1256.72285095 -622.45030975 1254.94696426 C-645.58646115 1225.29567264 -665.68102068 1193.2179543 -683.829216 1160.31805801 C-684.3978537 1159.29051407 -684.96649139 1158.26297012 -685.55236053 1157.20428848 C-727.00486674 1082.062221 -754.67915634 1000.35033955 -776.079216 869.88055801 C-776.1564389 869.20965134 -776.2336618 868.53874466 -776.31322479 867.84750748 C-776.89942869 862.6776523 -777.38598838 857.5020303 -777.829216 852.31805801 C-777.9600206 850.79903885 -777.9600206 850.79903885 -778.09346771 849.24933243 C-779.84581822 828.16716639 -780.19351987 807.16963031 -780.14727402 786.02487564 C-780.14162898 783.40263177 -780.13881156 780.78039438 -780.13619232 778.1581459 C-780.10092416 753.86967051 -779.89187633 729.68564084 -777.08568573 705.53033829 C-776.81375343 703.18467954 -776.55300707 700.83792768 -776.29308319 698.49090958 C-766.85560668 614.25970388 -744.33529045 532.49806988 -675.829216 391.31805801 C-675.26686249 390.34900528 -674.70450897 389.37995255 -674.12511444 388.38153458 C-660.05432211 364.19366105 -644.61240137 340.71550881 -627.829216 318.31805801 C-627.30311737 317.61471329 -626.77701874 316.91136856 -626.23497772 316.18671036 C-618.81365022 306.2997664 -611.12950527 296.64284192 -603.282341 287.09149551 C-601.95764671 285.47479872 -600.6428864 283.84997513 -599.329216 282.22430801 C-595.01064779 276.88607786 -590.55785257 271.71510213 -585.93468475 266.63837051 C-584.10003915 264.61651617 -582.30152814 262.57127279 -580.516716 260.50555801 C-570.45728639 249.00410569 -559.79827868 238.12797255 -548.98253632 227.34100723 C-546.56567608 224.92954835 -544.1542631 222.51273363 -541.7432785 220.09540176 C-540.18370349 218.53648699 -538.6238186 216.97788215 -537.063591 215.41962051 C-536.35506989 214.70907516 -535.64654877 213.99852982 -534.91655731 213.26645279 C-530.92365964 209.292026 -526.83419168 205.48859669 -522.56324005 201.81396866 C-520.16420698 199.74436696 -517.8438562 197.59285782 -515.516716 195.44305801 C-510.63033602 190.99117146 -505.59386057 186.78502671 -500.44884491 182.63739395 C-498.63936792 181.16340938 -496.84887996 179.66815547 -495.05968475 178.16962051 C-484.26963586 169.152784 -473.15484414 160.64939802 -461.829216 152.31805801 C-461.08591034 151.76795059 -460.34260468 151.21784317 -459.5767746 150.65106583 C-423.17841013 123.74686023 -384.26512581 100.58302498 -343.829216 80.31805801 C-342.70402557 79.75344864 -341.57883514 79.18883926 -340.41954803 78.60712051 C-267.88081175 42.42798789 -189.02666116 18.85092931 -83.329216 4.06805801 C-82.66017242 3.99083511 -81.99112885 3.91361221 -81.30181122 3.83404922 C-76.15090158 3.24811988 -70.99434131 2.76049142 -65.829216 2.31805801 C-64.81494537 2.23085495 -63.80067474 2.14365189 -62.75566864 2.0538063 C-41.82869829 0.31870152 -20.98890549 -0.04656506 0 0 Z M-246.829216 79.31805801 C-247.87915741 79.69090927 -247.87915741 79.69090927 -248.95030975 80.07129288 C-268.30481874 86.96353657 -287.19735732 94.6364957 -305.829216 103.31805801 C-306.86030487 103.79710587 -307.89139374 104.27615372 -308.95372772 104.76971817 C-335.70831005 117.26138996 -361.67917945 130.84746339 -386.829216 146.31805801 C-387.79939667 146.91473282 -388.76957733 147.51140762 -389.76915741 148.12616348 C-411.65530189 161.6657369 -432.51758171 176.52827809 -452.829216 192.31805801 C-454.15078874 193.33894552 -455.4724 194.35978316 -456.79405975 195.38055801 C-463.59645349 200.65815067 -470.21699723 206.12009525 -476.7589035 211.71649551 C-479.50655645 214.06063502 -482.31721829 216.31689118 -485.141716 218.56805801 C-492.05316311 224.1917828 -498.43818027 230.3745112 -504.8995285 236.50165176 C-507.13284736 238.60386486 -509.39677165 240.66984534 -511.66710663 242.73187637 C-517.66614543 248.19065866 -523.45948781 253.84261528 -529.204216 259.56805801 C-529.95364471 260.31289444 -530.70307343 261.05773087 -531.4752121 261.82513809 C-535.52665805 265.8878757 -539.4006443 270.0422509 -543.14513397 274.3888588 C-545.90812274 277.55399902 -548.81457252 280.58152788 -551.704216 283.63055801 C-556.56274764 288.79735422 -561.20989533 294.05422182 -565.63780975 299.59930801 C-567.61644553 302.05408609 -569.64737988 304.45408322 -571.70446014 306.8432045 C-578.15058178 314.34479126 -584.16124377 322.14299386 -590.1080246 330.04364395 C-591.81966859 332.30544188 -593.55075081 334.55109073 -595.28624725 336.79462051 C-623.11042838 373.00187456 -646.30094648 412.60560075 -666.829216 453.31805801 C-667.3757785 454.40038712 -667.922341 455.48271622 -668.485466 456.59784317 C-702.96963475 525.34858225 -725.53283285 600.62200483 -705.49980927 1019.29913712 C-688.66703053 1069.97672473 -666.19645578 1118.48755621 -638.829216 1164.31805801 C-638.35661346 1165.11518204 -637.88401093 1165.91230606 -637.3970871 1166.73358536 C-619.05493843 1197.62527276 -598.07391017 1226.80336713 -575.282341 1254.54462051 C-573.95764671 1256.16131731 -572.6428864 1257.7861409 -571.329216 1259.41180801 C-567.01064779 1264.75003817 -562.55785257 1269.9210139 -557.93468475 1274.99774551 C-556.10003915 1277.01959985 -554.30152814 1279.06484324 -552.516716 1281.13055801 C-542.99277079 1292.02635355 -532.9368588 1302.37177501 -522.69152069 1312.58612442 C-520.56436816 1314.7078681 -518.4426804 1316.83497292 -516.3214035 1318.96258926 C-514.94412018 1320.33921242 -513.56652702 1321.71552567 -512.188591 1323.09149551 C-511.567565 1323.71454575 -510.946539 1324.33759598 -510.30669403 1324.97952652 C-506.52774403 1328.73866725 -502.63128075 1332.31088887 -498.59400177 1335.79138565 C-496.18691219 1337.8736991 -493.85445682 1340.03346541 -491.516716 1342.19305801 C-487.02422962 1346.29005729 -482.41014318 1350.17926227 -477.67687225 1353.99383926 C-475.23043902 1355.99058518 -472.8337432 1358.03305665 -470.44738007 1360.10077286 C-462.08004288 1367.32042443 -453.24114565 1373.88049447 -444.35509491 1380.4435463 C-442.00519076 1382.18746317 -439.67081003 1383.94986198 -437.34093475 1385.72040176 C-410.18414183 1406.23793458 -380.80690635 1424.25387842 -350.829216 1440.31805801 C-349.98278534 1440.77213028 -349.13635468 1441.22620255 -348.2642746 1441.69403458 C-270.55658239 1483.1923833 -186.28688296 1511.04249013 1.733284 1529.56805801 C2.41320656 1529.56849987 3.09312912 1529.56894173 3.7936554 1529.56939697 C28.0221383 1529.57762002 52.05914117 1528.8259977 76.170784 1526.31805801 C77.40493042 1526.19077316 77.40493042 1526.19077316 78.66400909 1526.0609169 C129.08483616 1520.80312686 178.89133733 1510.85581475 227.170784 1495.31805801 C229.01688263 1494.73072891 229.01688263 1494.73072891 230.90027618 1494.13153458 C275.89937979 1479.75730354 320.55166465 1461.15085314 361.67029572 1437.7404213 C364.21603705 1436.29231653 366.7724548 1434.86460054 369.33094025 1433.43915176 C402.20504441 1415.01720159 433.81382927 1393.96426177 463.170784 1370.31805801 C463.81257599 1369.80243301 464.45436798 1369.28680801 465.11560822 1368.75555801 C477.2388333 1359.00305787 489.21437623 1349.12425339 500.67469025 1338.59540176 C502.8945295 1336.57010241 505.14471916 1334.5920803 507.420784 1332.63055801 C510.56944672 1329.89787715 513.50016749 1327.00957838 516.420784 1324.03680801 C518.11199948 1322.37579281 519.86049041 1320.84744398 521.670784 1319.31805801 C530.60663958 1311.60629224 539.08626462 1303.02014218 546.702034 1294.00555801 C548.28341369 1292.18865369 549.95275596 1290.50594521 551.670784 1288.81805801 C555.38277856 1285.15522894 558.7792504 1281.27699647 562.170784 1277.31805801 C563.03445587 1276.32032364 563.89812775 1275.32258926 564.7879715 1274.29462051 C575.8272391 1261.51801942 586.70859493 1248.58165044 596.84851837 1235.07489395 C597.76198753 1233.86120782 598.68027194 1232.65113621 599.60242462 1231.44403458 C623.37889966 1200.29654706 644.4671639 1166.72633843 662.71375275 1132.07196426 C664.08689083 1129.47662285 665.48382831 1126.89586815 666.889534 1124.31805801 C680.82383074 1098.5646744 692.13276106 1071.51362593 702.47736359 1044.15155411 C703.12991216 1042.42612861 703.7862098 1040.70212233 704.44275665 1038.97821426 C729.39464342 973.0978309 743.45973697 902.51698072 748.170784 832.31805801 C748.24126953 831.30156174 748.24126953 831.30156174 748.31317902 830.26453018 C749.34777804 814.96154543 749.41273575 799.65092306 749.420784 784.31805801 C749.42137314 783.65189972 749.42196228 782.98574142 749.42256927 782.29939651 C749.43775341 757.87287856 748.58098586 733.6331403 746.170784 709.31805801 C746.09817352 708.57757217 746.02556305 707.83708633 745.95075226 707.07416153 C742.82313451 675.51246088 737.31649147 644.20929339 730.170784 613.31805801 C729.91748322 612.21574844 729.66418243 611.11343887 729.40320587 609.97772598 C713.31927457 540.81480588 686.41718842 473.28151411 650.70008087 411.94549942 C649.73476115 410.28701109 648.77443604 408.62559626 647.82117462 406.96014786 C633.40649153 381.77806723 616.87179337 357.30077667 599.170784 334.31805801 C598.3023587 333.18013809 598.3023587 333.18013809 597.41638947 332.01922989 C590.71484568 323.2427538 583.86928085 314.62557586 576.670784 306.25165176 C574.34453825 303.52194777 572.09652246 300.74497051 569.858284 297.94305801 C565.573277 292.66979715 560.97774387 287.72423862 556.30628204 282.7951088 C553.45047201 279.77948457 550.65232393 276.73798022 547.94641876 273.5866127 C544.23685378 269.33626301 540.32483539 265.32745109 536.33094025 261.34540176 C535.60515274 260.61865753 534.87936523 259.8919133 534.13158417 259.14314651 C532.60754844 257.61843505 531.0822683 256.09496651 529.55579376 254.57269669 C527.23945936 252.2617191 524.92851322 249.94545031 522.61804962 247.62860489 C521.12683365 246.13804981 519.63530747 244.64780501 518.14344025 243.15790176 C517.46298141 242.4754187 516.78252258 241.79293564 516.08144379 241.08977127 C512.15059018 237.17776259 508.1171193 233.44160061 503.91400909 229.82316971 C501.51257424 227.74975551 499.18859517 225.59578715 496.858284 223.44305801 C491.9774159 218.99619324 486.94702875 214.79376901 481.80799103 210.65057755 C479.94690332 209.13584198 478.10321193 207.60134016 476.26062775 206.06415176 C466.78167329 198.16703696 457.12128667 190.61033799 447.170784 183.31805801 C446.48999786 182.81484024 445.80921173 182.31162247 445.10779572 181.79315567 C418.98708957 162.49606589 391.56339454 145.06835427 363.170784 129.31805801 C362.14694611 128.74861465 361.12310822 128.1791713 360.06824493 127.59247208 C285.72694446 86.45561179 204.07452172 58.74875327 -246.829216 79.31805801 Z " fill="#FFFFFF" transform="translate(784.829216003418,1.6819419860839844)"/>
<path d="M0 0 C1.45901744 0.99041296 2.91573699 1.9850446 4.34472656 3.01831055 C27.42798943 19.5696268 55.96737016 30.44001495 82.34130859 40.69921875 C83.03693405 40.9710498 83.73255951 41.24288086 84.44926453 41.52294922 C86.36618039 42.26807489 88.28686278 43.00348979 90.20776367 43.73828125 C93 45 93 45 94 47 C93.4423999 47.12004395 92.8847998 47.24008789 92.31030273 47.36376953 C70.14639605 52.20408444 50.86339289 59.57863922 33 74 C32.19691406 74.63679687 31.39382813 75.27359375 30.56640625 75.9296875 C16.55467245 87.6344634 4.56906424 106.96357625 2.76513672 125.40039062 C1.40556549 145.44175812 6.30804008 161.21530771 19.1953125 176.625 C29.48003206 187.53638706 42.59772352 194.19984025 57.5625 195.25 C71.29047353 195.01376336 82.98941154 189.64328622 92.8046875 180.3203125 C99.32176548 173.43215535 102.98800675 165.04022481 103.375 155.5 C102.90703109 145.24068161 98.63425619 137.70429751 92 130 C91.01 129.34 90.02 128.68 89 128 C89.39832031 128.60585938 89.79664063 129.21171875 90.20703125 129.8359375 C96.22706619 139.35667402 99.49203041 147.69262393 97 159 C93.45501291 169.11107155 86.28688472 175.30114407 76.9453125 180.04296875 C67.51797539 183.83169102 55.85660277 183.36114134 46.5625 179.4609375 C41.7083799 176.69349708 37.86881383 172.99141708 34 169 C33.4121875 168.40960937 32.824375 167.81921875 32.21875 167.2109375 C23.10492352 157.3996243 20.37599361 145.39392631 20.69140625 132.35546875 C21.58733843 115.32532228 31.84309445 101.18392227 44 90 C68.95429861 68.43097446 101.03767685 63.23002331 133 65 C150.45699892 66.31198938 166.89549602 72.70169948 183.31292725 78.36605835 C192.45586266 81.51515802 201.63817345 84.54153972 210.82992554 87.54473877 C212.77332939 88.18049597 214.71606256 88.81830704 216.65811157 89.45819092 C227.28960884 92.96104321 237.93505288 96.32077375 248.71484375 99.33984375 C250.58171423 99.86976172 252.44857638 100.39970903 254.31542969 100.9296875 C257.81882808 101.92205697 261.33045149 102.86944197 264.85253906 103.79296875 C266.42684522 104.23420643 268.00076266 104.67683425 269.57421875 105.12109375 C270.64421364 105.38139626 270.64421364 105.38139626 271.73582458 105.6469574 C274.51053248 106.46089137 276.54890312 107.2444032 278.06602478 109.78561401 C278.85356402 111.83983498 279.45745999 113.86908352 280 116 C280.29414795 116.88461914 280.5882959 117.76923828 280.89135742 118.68066406 C281.66249619 121.20209011 282.42881484 123.72479607 283.1875 126.25 C283.59645508 127.57644531 283.59645508 127.57644531 284.01367188 128.9296875 C284.27083984 129.78304687 284.52800781 130.63640625 284.79296875 131.515625 C285.0252417 132.28165039 285.25751465 133.04767578 285.49682617 133.83691406 C286 136 286 136 286 140 C283.90788515 138.97062231 281.84665121 137.91471511 279.80859375 136.78125 C268.51243804 130.67723176 257.38363611 129.82818988 244.89453125 132.71875 C230.71980284 136.97300225 219.83839771 145.59184815 212 158 C203.35120696 174.29797683 203.64273628 191.86809669 208.7109375 209.296875 C212.351661 219.7556807 217.57590242 228.7686219 225 237 C225.59167969 237.68449219 226.18335938 238.36898437 226.79296875 239.07421875 C243.54226998 257.25203181 270.515638 265.84345864 294.61230469 267.140625 C302.54526852 267.37628676 310.39800606 267.16386933 318.30493164 266.48730469 C319.37465714 266.39632507 320.44438263 266.30534546 321.54652405 266.21160889 C322.35617111 266.14177795 323.16581818 266.07194702 324 266 C324.20392868 266.70455322 324.40785736 267.40910645 324.6179657 268.13500977 C334.52768878 302.36962407 344.45369693 336.59940752 354.4375 370.8125 C354.65351742 371.55276428 354.86953484 372.29302856 355.09209824 373.0557251 C357.07343311 379.84528672 359.05511755 386.63474628 361.03715515 393.42410278 C364.11084616 403.95288813 367.18298984 414.48212381 370.25390625 425.01171875 C370.57857533 426.12494475 370.57857533 426.12494475 370.90980339 427.26066017 C372.0027266 431.00810745 373.09562289 434.75556258 374.18850708 438.50302124 C376.15674758 445.25199579 378.12522694 452.00090067 380.09368706 458.74981117 C381.18746771 462.4998713 382.28123308 466.24993587 383.375 470 C383.81249993 471.50000002 384.24999993 473.00000002 384.6875 474.5 C385.5625 477.5 386.4375 480.5 387.3125 483.5 C387.52906219 484.24249874 387.74562437 484.98499748 387.96874905 485.74999619 C388.40625262 487.25000879 388.84375579 488.7500215 389.28125858 490.25003433 C390.37495077 493.99984246 391.46864973 497.74964861 392.56236267 501.49945068 C394.53181037 508.25173974 396.50121038 515.00404269 398.47035503 521.75642014 C399.56483835 525.50949827 400.6593617 529.26256472 401.75390625 533.015625 C401.97059023 533.75861092 402.18727421 534.50159683 402.41052437 535.26709747 C405.89393071 547.21098563 409.3804229 559.15397089 412.86820984 571.09658051 C415.2502929 579.25337923 417.63077091 587.41063969 420.00634766 595.56933594 C420.32552092 596.66543623 420.32552092 596.66543623 420.65114212 597.78367996 C421.51706694 600.75748873 422.3829868 603.73129892 423.24867249 606.70517731 C426.10977938 616.53289106 428.98297885 626.3569756 431.86762333 636.17780685 C433.95510677 643.28589693 436.0356227 650.39600412 438.11148739 657.50749588 C439.3609061 661.78646479 440.61388299 666.06431948 441.87545776 670.33972168 C443.05052002 674.32210554 444.21634193 678.30707602 445.37509346 682.29423523 C445.80334877 683.76154566 446.23506207 685.22785175 446.67042351 686.69306946 C447.26525889 688.69679355 447.84773153 690.70371462 448.42724609 692.71191406 C448.75695404 693.8359967 449.08666199 694.96007935 449.42636108 696.1182251 C449.98576084 698.92846711 450.14124039 700.39434508 449 703 C446.76049805 704.25756836 446.76049805 704.25756836 443.76171875 705.33984375 C442.64579346 705.75613037 441.52986816 706.17241699 440.38012695 706.60131836 C439.16156006 707.0422583 437.94299316 707.48319824 436.6875 707.9375 C434.10695548 708.90366754 431.53306472 709.8866633 428.9609375 710.875 C428.29945206 711.12865829 427.63796661 711.38231659 426.95643616 711.6436615 C416.52871061 715.68460422 406.46949765 720.56716851 396.38427734 725.38574219 C393.08153192 726.9611103 389.77050831 728.51766617 386.45703125 730.0703125 C372.68371472 736.55621577 359.25754473 743.51908504 346 751 C344.97261719 751.57621094 343.94523437 752.15242188 342.88671875 752.74609375 C328.05268906 761.08687224 313.62936188 769.8957014 299.47851562 779.34863281 C297.25985779 780.82686386 295.03180211 782.28872617 292.796875 783.7421875 C285.33124462 788.6185764 278.14980225 793.77923026 271.09985352 799.24291992 C266.20767404 803 266.20767404 803 264 803 C265.37312066 798.36953198 267.29670045 794.16165054 269.37548828 789.82128906 C298.35602538 729.01878387 319.9027537 657.22082442 320.203125 589.3671875 C320.21013931 588.2997934 320.21715363 587.23239929 320.22438049 586.13265991 C320.24176531 582.71339643 320.24823117 579.29430603 320.25 575.875 C320.25067474 574.70771362 320.25134949 573.54042725 320.25204468 572.33776855 C320.23673838 555.69882292 319.97620484 539.41599599 317 523 C316.83371094 522.02998047 316.66742187 521.05996094 316.49609375 520.06054688 C308.54474718 474.62007372 289.5056281 431.32612575 258.07421875 397.26171875 C256.19878414 395.21675333 254.40967467 393.12380525 252.625 391 C248.18933056 385.88272651 243.06896845 381.47315842 238 377 C240.2623032 374.56881429 242.63742663 372.82096887 245.4296875 371.03125 C246.30093262 370.46607666 247.17217773 369.90090332 248.06982422 369.31860352 C248.99553223 368.71846436 249.92124023 368.1183252 250.875 367.5 C259.45836719 361.84010119 267.4973015 356.02862689 275 349 C275.60005859 348.44231934 276.20011719 347.88463867 276.81835938 347.31005859 C287.51901717 337.26660226 297.70741729 326.42281441 304 313 C303.27296875 313.88300781 302.5459375 314.76601563 301.796875 315.67578125 C286.37534862 334.18576196 268.3845363 347.92586513 247 359 C246.35160156 359.3398291 245.70320313 359.6796582 245.03515625 360.02978516 C209.59682073 378.37175535 167.59949432 386.58699919 128.85961914 374.64160156 C105.20907484 366.93052329 84.53080857 353.07435384 72.75 330.6171875 C67.44591136 319.42400045 65.75828543 306.40445895 69.90234375 294.53125 C76.06113849 280.32876249 84.56347501 270.84982199 99 265 C108.39950146 261.97209736 118.31641396 263.83702877 127 268 C131.32509363 270.48292412 134.61513184 273.34790541 138 277 C138.70125 277.721875 139.4025 278.44375 140.125 279.1875 C144.51081117 285.76621675 145.58773602 292.55850978 144.578125 300.328125 C143.14104256 306.96977628 139.92678954 312.53054315 136 318 C143.37539217 312.73186273 148.39511068 304.98738021 150 296 C151.04488551 284.81022612 148.08147457 276.37957358 141.2265625 267.54296875 C132.32893524 257.38094183 120.71989605 252.68649679 107.453125 251.15234375 C91.36979424 250.44278504 79.10430841 257.7559412 67.51953125 268.24609375 C56.31777974 279.67920674 50.10974002 295.38003933 49.5625 311.25 C50.12126208 332.35401396 59.64005625 349.98172072 74 365 C74.75539063 365.79664063 75.51078125 366.59328125 76.2890625 367.4140625 C90.48103228 381.21587503 110.05466737 390.10597033 129 395 C130.13308594 395.30035156 131.26617187 395.60070312 132.43359375 395.91015625 C147.65613184 399.26004948 163.5011493 398.26738706 179 398 C161.00947619 417.0354364 121.88803925 422.83770352 97 426 C96.27087402 426.09571289 95.54174805 426.19142578 94.79052734 426.29003906 C40.5978544 432.60704585 -18.66841352 418.4658655 -62.0625 384.8125 C-64.0477058 383.21581301 -66.02739338 381.61222657 -68 380 C-68.8353125 379.36707031 -69.670625 378.73414063 -70.53125 378.08203125 C-97.94626864 356.88616036 -117.45738164 329.86195482 -122 295 C-125.19871455 268.6663965 -120.28571325 241.38185082 -103.6875 220.0625 C-93.41507052 208.36773413 -79.94881809 198.94204364 -64.046875 197.78515625 C-49.00144286 197.33949771 -35.44141328 202.04245602 -24 212 C-22.48828125 213.74609375 -22.48828125 213.74609375 -21.3125 215.4375 C-20.91675781 215.99308594 -20.52101562 216.54867187 -20.11328125 217.12109375 C-15.70936152 224.55367406 -15.05484032 233.31092698 -17.0625 241.625 C-20.28690075 251.70488343 -25.9223049 260.17547942 -35.37109375 265.28125 C-46.05106833 270.19158314 -56.71091227 270.06144752 -68 267 C-66.10667466 267.81832722 -64.21022267 268.62942268 -62.3125 269.4375 C-60.72888672 270.11619141 -60.72888672 270.11619141 -59.11328125 270.80859375 C-48.64519086 274.81457564 -39.22811705 273.07854108 -29 269 C-17.88786346 263.40138909 -10.25951275 253.55358033 -6 242 C-2.79235999 229.31137093 -4.16337485 219.25026594 -10.30859375 207.7890625 C-18.71831494 193.92176243 -33.61375436 185.8460878 -48.953125 181.7265625 C-67.52523884 177.88308879 -85.04610799 182.40749659 -101 192 C-121.59903483 206.13760609 -134.09289941 228.05616993 -140 252 C-140.58905427 255.50077191 -141.09451596 258.98995248 -141.5078125 262.515625 C-141.67023438 263.33546875 -141.83265625 264.1553125 -142 265 C-142.66 265.33 -143.32 265.66 -144 266 C-159.04133469 209.99629535 -153.25770242 148.8622245 -124.265625 98.10546875 C-108.36478527 71.2045789 -87.62052659 46.14051078 -62 28 C-61.41863281 27.58492187 -60.83726562 27.16984375 -60.23828125 26.7421875 C-13.20627824 -6.51688621 -13.20627824 -6.51688621 0 0 Z M306 308 C307 310 307 310 307 310 Z M305 310 C306 312 306 312 306 312 Z " fill="#FFFFFF" transform="translate(273,624)"/>
<path d="M0 0 C9.40596577 1.20328571 18.12975884 9.91843924 24 17 C40.71912796 39.90291501 46.25719515 66.98830916 46.125 94.9375 C46.12089111 95.99146973 46.11678223 97.04543945 46.11254883 98.13134766 C45.98079758 116.43202112 45.98079758 116.43202112 43.4375 123.75 C39.71055702 135.08009773 42.06187424 149.3605894 42.75 161.125 C42.81385391 162.2321788 42.81385391 162.2321788 42.8789978 163.36172485 C47.19807516 236.7140066 60.88570956 311.50663897 93.84765625 377.765625 C94.31228271 378.70776855 94.77690918 379.64991211 95.25561523 380.62060547 C96.13732426 382.39408403 97.03538836 384.15957263 97.95336914 385.91455078 C100.67636281 391.36053811 101.86662108 395.90138863 101 402 C98.340478 409.34534647 92.86534207 412.66290217 86 416 C74.72322876 420.54991678 63.04093404 422.05644143 51 423 C51.94359375 423.76441406 52.8871875 424.52882813 53.859375 425.31640625 C58.68633094 429.2267681 61.55077077 433.96154487 63 440 C63.86973233 448.69732334 60.96645809 455.66116361 55.8125 462.625 C50.45544972 469.12013607 44.16464315 474.59098883 37 479 C37.36351562 479.42410156 37.72703125 479.84820313 38.1015625 480.28515625 C39.16240984 481.52281148 40.2208224 482.7625561 41.27734375 484.00390625 C42.37648715 485.27751686 43.49224471 486.53710154 44.62890625 487.77734375 C48.95492098 492.55872845 51.61851293 496.94810346 52.4375 503.5 C51.56957078 510.44343375 48.53360543 513.78124428 43.25 518 C41.50053324 519.33403292 39.75054289 520.66737951 38 522 C30.90687469 527.84638144 24.02905489 533.70982804 22.67578125 543.296875 C22.07181677 557.04227346 26.75807081 569.25980436 33.03125 581.16015625 C39.31662461 593.17791338 43.28703067 606.85187734 39.90625 620.375 C33.24134688 639.68023661 19.59532934 650.28958431 1.92358398 659.16821289 C-28.49523426 673.85522182 -64.5492522 679.01903965 -98 680 C-97.96519531 681.19109375 -97.93039062 682.3821875 -97.89453125 683.609375 C-96.98856464 729.41817393 -108.7851658 774.77585028 -123 818 C-123.46913818 819.42820068 -123.46913818 819.42820068 -123.94775391 820.88525391 C-124.76382565 823.34518526 -125.59441797 825.79921107 -126.4375 828.25 C-126.67227051 828.94150146 -126.90704102 829.63300293 -127.14892578 830.34545898 C-128.75898787 834.87949394 -128.75898787 834.87949394 -131 836 C-129.0432353 827.1449425 -127.07497185 818.29336526 -125.03515625 809.45703125 C-115.68250805 768.75825843 -109.75997153 727.82433679 -109.8125 686 C-109.81310425 685.10369873 -109.8137085 684.20739746 -109.81433105 683.28393555 C-109.89760928 637.57840713 -118.29983117 597.23694091 -138 556 C-138.33547852 555.29488281 -138.67095703 554.58976563 -139.01660156 553.86328125 C-149.85985453 531.42896477 -165.25208951 511.12352641 -180.48046875 491.50390625 C-186.86978827 483.27086627 -192.92578727 475.13358292 -198 466 C-198.53753906 465.04480469 -199.07507812 464.08960938 -199.62890625 463.10546875 C-205.34047907 451.97801762 -201.38617241 441.96736373 -197.93359375 430.5 C-197.50720566 429.05934704 -197.08165183 427.61844694 -196.65686035 426.17732239 C-195.74168992 423.07863132 -194.82102118 419.98164905 -193.89596558 416.88589478 C-192.4086335 411.90796663 -190.93389659 406.926361 -189.46118164 401.9440918 C-187.90523262 396.68226577 -186.34849026 391.42068156 -184.7875824 386.1603241 C-179.6276235 368.7700412 -174.5287099 351.36210397 -169.43966675 333.95095825 C-167.92783033 328.77872925 -166.41435068 323.60698193 -164.90063477 318.43530273 C-158.16179459 295.40975573 -151.44158539 272.37880581 -144.7289238 249.34561539 C-137.39039193 224.16512158 -130.01888387 198.99442505 -122.6282959 173.8291626 C-117.47622297 156.28590344 -112.33613715 138.73928323 -107.2265625 121.18359375 C-106.74909704 119.5436263 -106.27161908 117.9036625 -105.79412842 116.26370239 C-103.05393424 106.85183203 -103.05393424 106.85183203 -100.31884766 97.43847656 C-98.12054143 89.86516643 -95.915321 82.29404337 -93.68503571 74.73007965 C-92.74407849 71.53775974 -91.80858539 68.34400947 -90.88549805 65.14648438 C-89.83561341 61.51931212 -88.76767544 57.89792357 -87.6953125 54.27734375 C-87.39049957 53.20862534 -87.08568665 52.13990692 -86.77163696 51.0388031 C-84.14533214 42.29266695 -81.1551162 38.41619489 -73 34 C-71.46443382 33.03492386 -69.93496458 32.06011025 -68.41015625 31.078125 C-51.3583633 20.25037759 -32.73301344 10.4215119 -12 11 C-11.9906543 11.5669458 -11.98130859 12.1338916 -11.97167969 12.71801758 C-11.3713312 41.96734902 -4.80482285 72.63250119 17 94 C16.69819824 93.53327881 16.39639648 93.06655762 16.08544922 92.58569336 C9.58568746 82.4569186 3.55337633 72.58094705 0 61 C-0.20737793 60.32517578 -0.41475586 59.65035156 -0.62841797 58.95507812 C-5.93429952 40.68439036 -7.50364253 17.821151 0 0 Z " fill="#FFFFFF" transform="translate(1254,383)"/>
<path d="M0 0 C-2.22262935 8.54344138 -4.84766954 16.93020016 -7.5859375 25.3203125 C-8.0396906 26.71724397 -8.49320052 28.11425446 -8.94648743 29.51133728 C-9.91423645 32.49249955 -10.88353534 35.47315141 -11.85409546 38.45339966 C-13.40123951 43.20431718 -14.94473482 47.95641507 -16.48754883 52.70874023 C-18.08464459 57.62788571 -19.68184793 62.54699574 -21.28016663 67.46574402 C-26.21712825 82.65980972 -31.13310569 97.86061211 -36.04207993 113.06373978 C-36.90769748 115.74441552 -37.77354012 118.42501855 -38.63937473 121.1056242 C-46.85847027 146.55210543 -55.06794583 172.00169133 -63.27561951 197.45185852 C-66.18207619 206.46411818 -69.08893143 215.47624919 -71.99609375 224.48828125 C-72.30564342 225.44786775 -72.30564342 225.44786775 -72.62144661 226.42683983 C-73.66395648 229.6585546 -74.70647317 232.89026717 -75.74899292 236.12197876 C-77.62438829 241.9355363 -79.49972321 247.74911334 -81.37506294 253.56268883 C-82.41670618 256.79179334 -83.45835328 260.02089661 -84.5 263.25 C-84.91666669 264.54166666 -85.33333335 265.83333333 -85.75 267.125 C-88.24999985 274.87499955 -88.24999985 274.87499955 -88.87500477 276.81251431 C-89.29165591 278.10413317 -89.70830668 279.39575215 -90.12495708 280.68737125 C-91.16685821 283.9172703 -92.20876579 287.14716726 -93.25068665 290.37705994 C-95.12289384 296.18081228 -96.99505681 301.98457887 -98.86697483 307.78842449 C-99.90477385 311.00609549 -100.94261123 314.22375412 -101.98046875 317.44140625 C-102.18611135 318.07895906 -102.39175396 318.71651188 -102.60362816 319.37338448 C-105.36014164 327.91914526 -108.1183374 336.46436119 -110.87808228 345.00907898 C-111.74205155 347.68414835 -112.60579763 350.35928963 -113.46932983 353.03450012 C-113.89882325 354.36504136 -114.32831747 355.69558233 -114.7578125 357.02612305 C-114.96971033 357.68258348 -115.18160816 358.3390439 -115.39992714 359.01539707 C-116.66347113 362.92921408 -117.92869129 366.84248451 -119.19516945 370.75535297 C-123.33997812 383.56330641 -127.44692424 396.38108615 -131.44921875 409.234375 C-132.47616855 412.51587517 -133.50385033 415.79714545 -134.53158569 419.07839966 C-135.4757561 422.10966481 -136.40477645 425.14529451 -137.33325195 428.18139648 C-137.89853014 429.98964617 -138.46448628 431.79768412 -139.03125 433.60546875 C-139.27513962 434.42098206 -139.51902924 435.23649536 -139.77030945 436.07672119 C-140.76169422 439.19498282 -141.59281058 441.58783157 -143.91674805 443.94018555 C-146.04629853 445.02355349 -147.98699276 445.7579955 -150.30078125 446.3515625 C-151.11353516 446.56296875 -151.92628906 446.774375 -152.76367188 446.9921875 C-153.60478516 447.20101563 -154.44589844 447.40984375 -155.3125 447.625 C-156.14201172 447.8415625 -156.97152344 448.058125 -157.82617188 448.28125 C-175.89509978 452.9018756 -195.17793781 452.57448064 -213 447 C-216 445 -216 445 -216.91967773 441.34936523 C-217.18804815 439.75469164 -217.44157374 438.15747864 -217.68359375 436.55859375 C-217.82396561 435.69695114 -217.96433746 434.83530853 -218.10896301 433.94755554 C-218.56600144 431.11292381 -219.0027248 428.27562579 -219.4375 425.4375 C-219.74745431 423.46529004 -220.05767787 421.49312238 -220.36816406 419.52099609 C-223.98130991 396.33907508 -226.76810078 373.13269989 -228.6875 349.75 C-228.74852905 349.0092926 -228.80955811 348.26858521 -228.87243652 347.50543213 C-229.2918403 342.33966497 -229.66336718 337.17180335 -230 332 C-230.0494577 331.25213226 -230.09891541 330.50426453 -230.14987183 329.73373413 C-231.17262513 313.62765587 -231.18752037 297.50772886 -231.18530273 281.3762207 C-231.18522211 278.35695319 -231.19207965 275.3378395 -231.20581055 272.31860352 C-231.33339992 243.7602138 -230.11153164 215.36413987 -227.25 186.9375 C-227.12644638 185.68892715 -227.12644638 185.68892715 -227.00039673 184.41513062 C-221.0429397 124.77853975 -210.30444813 63.87480414 -190.8137207 7.06762695 C-188.5845585 0.38808745 -187.21054227 -6.3468584 -188.875 -13.3125 C-189.05804687 -14.11300781 -189.24109375 -14.91351563 -189.4296875 -15.73828125 C-189.61789062 -16.48464844 -189.80609375 -17.23101562 -190 -18 C-190.18820312 -18.75667969 -190.37640625 -19.51335937 -190.5703125 -20.29296875 C-190.71210937 -20.85628906 -190.85390625 -21.41960937 -191 -22 C-134.64668738 -29.56889865 -52.38734392 -27.04863096 0 0 Z " fill="#FFFFFF" transform="translate(1042,199)"/>
<path d="M0 0 C0.66 0 1.32 0 2 0 C3.61914307 6.40929486 5.20153372 12.82542855 6.7265625 19.2578125 C12.66736136 44.04961573 20.39422153 67.77368025 31 91 C31.43119141 91.95664551 31.86238281 92.91329102 32.30664062 93.89892578 C45.55807139 123.12695638 62.61688644 150.0036569 81.7734375 175.6953125 C82.31194336 176.42524414 82.85044922 177.15517578 83.40527344 177.90722656 C84.41959693 179.23833204 85.47202318 180.54184389 86.57128906 181.80371094 C89.92369312 185.77653438 91.71030415 189.59310207 93.31762695 194.53955078 C93.52929725 195.19027054 93.74096754 195.8409903 93.95905209 196.51142883 C96.75485643 205.20400294 99.27829768 213.97963836 101.81640625 222.75 C102.35997315 224.62082942 102.903755 226.4915964 103.44773865 228.36230469 C104.57987437 232.25793202 105.71003225 236.15412549 106.83862305 240.05078125 C108.27316377 245.00350768 109.71176446 249.95504309 111.15174961 254.90618896 C112.27269905 258.76149835 113.39193531 262.61730342 114.51063347 266.4732666 C115.04000994 268.29752446 115.56978906 270.12166554 116.10000801 271.94567871 C119.1951205 282.59866789 122.19833774 293.26568705 125 304 C121.60637562 303.37629858 118.40099775 302.54915845 115.12939453 301.45629883 C114.17858505 301.14067993 113.22777557 300.82506104 112.24815369 300.49987793 C110.7060598 299.98366882 110.7060598 299.98366882 109.1328125 299.45703125 C106.88513804 298.71160854 104.63732937 297.96659044 102.3894043 297.22192383 C100.61332291 296.63237411 100.61332291 296.63237411 98.80136108 296.03091431 C63.51321033 284.3357661 28.01413449 273.26006134 -8 264 C-6.90800293 264.3904248 -5.81600586 264.78084961 -4.69091797 265.18310547 C36.13364164 279.80346037 76.69446484 295.15238786 116.45019531 312.49804688 C118.57282167 313.39614848 120.71920867 314.24449706 122.90136719 314.98632812 C126.21222519 316.15108609 128.33961525 316.93012652 130.22094727 319.97802734 C131.23708616 322.54375832 131.95442658 325.07332369 132.625 327.75 C132.89513916 328.70487305 133.16527832 329.65974609 133.44360352 330.64355469 C134.01890852 332.68415939 134.57944298 334.72897599 135.12646484 336.77734375 C136.02928211 340.10802792 136.99854115 343.41291272 137.98828125 346.71875 C139.24317596 350.91827408 140.49467305 355.11836027 141.71484375 359.328125 C142.08790649 360.61058105 142.08790649 360.61058105 142.46850586 361.91894531 C143 364 143 364 143 366 C136.47131649 365.32547525 130.42467827 363.47056955 124.16015625 361.5625 C122.99118805 361.21086792 121.82221985 360.85923584 120.61782837 360.49694824 C117.43049302 359.53697838 114.24459764 358.5724897 111.05935287 357.60562134 C107.68542478 356.58234973 104.31002153 355.56396517 100.93481445 354.54492188 C96.05113561 353.06986112 91.16816812 351.59247789 86.28589535 350.11277008 C79.19894231 347.96509285 72.10833396 345.8300712 65.01422119 343.70613098 C-48.75845028 309.64057431 -48.75845028 309.64057431 -93 289 C-93.79728516 288.63422852 -94.59457031 288.26845703 -95.41601562 287.89160156 C-108.58423402 281.82053983 -123.24252883 274.07420761 -129.9375 260.5 C-132.01511447 253.65609352 -131.54373612 249.13601054 -128.265625 242.95703125 C-125.19172623 238.20387297 -121.78765636 234.81723109 -117.25 231.4375 C-116.26515625 230.69371094 -115.2803125 229.94992187 -114.265625 229.18359375 C-110.61960491 226.74564491 -106.95536982 224.88779014 -103 223 C-102.98541748 221.95473145 -102.97083496 220.90946289 -102.95581055 219.83251953 C-101.998666 156.0892683 -89.1762466 101.12683809 -49 50 C-48.23042969 49.01644531 -47.46085937 48.03289062 -46.66796875 47.01953125 C-33.24970819 30.26483834 -17.97655235 14.15085041 -1 1 C-0.67 0.67 -0.34 0.34 0 0 Z " fill="#FFFFFF" transform="translate(398,334)"/>
<path d="M0 0 C1.04610443 -0.00564972 1.04610443 -0.00564972 2.11334229 -0.01141357 C20.29958883 -0.06126534 20.29958883 -0.06126534 25.30859375 3.96875 C25.76363281 4.5771875 26.21867188 5.185625 26.6875 5.8125 C27.16058594 6.4209375 27.63367188 7.029375 28.12109375 7.65625 C31.08812063 12.0092583 30.75995517 16.18917224 30.25 21.3125 C29.23152265 25.55530583 27.9148101 29.67898428 26.54827881 33.8215332 C7.55806007 91.7407535 -3.11314708 153.78979865 -7.47363281 214.5 C-7.65530546 217.00618374 -7.84959967 219.5114903 -8.05761719 222.015625 C-11.66335676 265.51199132 -11.7254525 310.85259401 -7.75 354.3125 C-7.6193289 355.81213423 -7.48914178 357.31181069 -7.359375 358.81152344 C-4.22141863 394.62970169 1.27410564 430.05170922 8.25 465.3125 C4.23474921 463.77631447 0.959344 461.88500243 -2.625 459.5 C-10.51958666 454.4345079 -18.93407369 451.82786801 -27.98828125 449.46875 C-36.55037666 445.88405376 -40.67016722 429.9723823 -43.98291016 421.90966797 C-76.82719895 340.05447082 -80.24950725 247.63617874 -70.4375 20.375 C-62.24919034 8.76248812 -43.05876081 4.35955723 -29.98168945 1.83398438 C-20.0424814 0.16183335 -10.05283355 0.03045364 0 0 Z " fill="#FFFFFF" transform="translate(804.75,175.6875)"/>
<path d="M0 0 C4.07135334 1.83147252 5.6672127 4.01651036 8.25 7.6875 C12.28593578 13.19654073 16.77130387 17.84021669 21.8125 22.4375 C33.75054192 33.34835743 44.31185613 45.05457259 54 58 C54.4237793 58.56154785 54.84755859 59.1230957 55.28417969 59.70166016 C79.76466265 92.32035133 97.69510052 132.81056419 99 174 C99.03996094 175.01835938 99.07992188 176.03671875 99.12109375 177.0859375 C99.23092749 182.00907337 99.26408885 184.47182229 97 189 C96.01 183.555 96.01 183.555 95 178 C94.06285156 177.92523437 93.12570312 177.85046875 92.16015625 177.7734375 C74.63501147 176.15188598 57.26096601 171.98197455 40.79296875 165.78515625 C37.88850876 164.96865771 36.72442314 164.80009449 34 166 C31.09890415 168.05467367 28.58380112 170.56384466 26 173 C25.16082031 173.77472656 24.32164062 174.54945313 23.45703125 175.34765625 C-22.58705329 219.39849038 -43.30977737 291.36359079 -45.28515625 353.3359375 C-45.56998903 368.78295584 -44.38175369 383.88799769 -42.36376953 399.19335938 C-41.854386 403.12347551 -41.42450893 407.05989774 -41 411 C-41.73371826 410.89453857 -42.46743652 410.78907715 -43.22338867 410.68041992 C-68.07174564 407.1805711 -92.95856745 405.46468756 -118 404 C-111.31240463 380.46817001 -104.5116246 356.97142667 -97.62561035 333.49694824 C-96.32631811 329.06659201 -95.02845287 324.63581775 -93.73046875 320.20507812 C-91.83448427 313.73339056 -89.93814284 307.26180782 -88.04130936 300.79036903 C-84.67337286 289.29980987 -81.30841743 277.8083804 -77.9453125 266.31640625 C-77.6993804 265.47604639 -77.4534483 264.63568653 -77.20006371 263.76986122 C-75.96168801 259.53822805 -74.72336649 255.30657902 -73.4850769 251.07492065 C-70.99422752 242.56288892 -68.50297545 234.05097503 -66.01171875 225.5390625 C-65.76450388 224.69438604 -65.51728901 223.84970959 -65.26258278 222.97943687 C-61.7288131 210.90541267 -58.19404007 198.83168255 -54.65868187 186.7581234 C-52.37640432 178.96381244 -50.09441076 171.16941834 -47.8125 163.375 C-47.56375751 162.52538067 -47.31501503 161.67576134 -47.05873489 160.80039597 C-39.44964421 134.80987954 -31.85946137 108.81390157 -24.28223419 82.81407928 C-16.23330776 55.19604757 -8.13717998 27.59217801 0 0 Z " fill="#FFFFFF" transform="translate(1036,883)"/>
<path d="M0 0 C-0.18175781 0.84957275 -0.18175781 0.84957275 -0.3671875 1.71630859 C-2.26591164 11.27748008 -3.10011794 20.9306634 -4 30.625 C-4.08682037 31.54740479 -4.17364075 32.46980957 -4.26309204 33.42016602 C-5.42075956 45.76897443 -6.44591544 58.11897822 -7.1875 70.5 C-7.25904297 71.69189941 -7.33058594 72.88379883 -7.40429688 74.11181641 C-7.58241608 77.30542465 -7.74516526 80.49922431 -7.89312744 83.69436646 C-7.96898652 85.33092538 -8.04732595 86.96737018 -8.12738037 88.60372925 C-9.10380211 108.92054226 -9.24354229 129.22681112 -9.25 149.5625 C-9.25058914 150.41644348 -9.25117828 151.27038696 -9.25178528 152.15020752 C-9.2658774 181.20035935 -8.56079864 210.04644305 -6 239 C-5.92738953 239.84496033 -5.85477905 240.68992065 -5.77996826 241.56048584 C-1.80801403 287.75238929 5.57938897 333.84162007 20 378 C20.3304834 379.02528809 20.6609668 380.05057617 21.00146484 381.10693359 C25.72716199 395.57181518 31.69128448 409.1939326 38.47900391 422.78466797 C39.35758057 424.54447998 39.35758057 424.54447998 40.25390625 426.33984375 C40.78314697 427.38519287 41.3123877 428.43054199 41.85766602 429.50756836 C43 432 43 432 43 434 C41.58460938 434.23783203 41.58460938 434.23783203 40.140625 434.48046875 C32.45364194 435.87740041 25.64503007 437.64749665 18.48828125 440.9140625 C16.30532705 441.86674895 14.30693683 442.45952638 12 443 C-9.23932062 377.36991548 -30.44754621 311.72986072 -51.61979675 246.07810974 C-54.72549858 236.44784222 -57.83135382 226.8176242 -60.9375 217.1875 C-61.1429607 216.5504929 -61.3484214 215.91348579 -61.56010818 215.25717545 C-67.54219853 196.71056649 -73.52957151 178.16567025 -79.52172947 159.62231159 C-81.0526123 154.88477412 -82.5831577 150.14712773 -84.11352539 145.40942383 C-84.98452847 142.71305038 -85.85554422 140.01668104 -86.7265625 137.3203125 C-86.94202414 136.65330259 -87.15748577 135.98629269 -87.37947655 135.29907036 C-90.0674736 126.97801332 -92.75743841 118.65759633 -95.44988632 110.33797836 C-97.27216002 104.70697527 -99.09306344 99.07553017 -100.91305923 93.44379044 C-101.9832318 90.13251668 -103.05405885 86.82145841 -104.12670898 83.51098633 C-109.2417293 67.71988985 -114.23502339 51.9004912 -119 36 C-113.63371824 33.54265475 -108.28532263 31.29724379 -102.6875 29.40625 C-102.01305344 29.17818665 -101.33860687 28.95012329 -100.64372253 28.71514893 C-98.43120689 27.97043897 -96.21603067 27.23418041 -94 26.5 C-92.83883163 26.11382507 -92.83883163 26.11382507 -91.65420532 25.71984863 C-66.39534752 17.34225208 -40.83031066 9.89603643 -15.0625 3.25 C-14.39898529 3.07883667 -13.73547058 2.90767334 -13.05184937 2.73132324 C-2.41130639 0 -2.41130639 0 0 0 Z " fill="#FFFFFF" transform="translate(716,190)"/>
<path d="M0 0 C17.38100744 -0.77536093 33.71293385 6.46091253 46.58374023 17.75390625 C63.65249213 33.55978944 72.62409286 54.96587073 78.1015625 77.15625 C79.00933717 55.9412197 73.40860282 37.12214316 64.1015625 18.15625 C68.28629248 18.59674789 72.45268767 19.06180266 76.6171875 19.66796875 C91.36363734 21.80711425 104.28728024 20.78045514 118.91015625 18.43164062 C121.1015625 18.15625 121.1015625 18.15625 125.1015625 18.15625 C123.72949842 24.82800692 121.90271446 31.193991 119.75 37.65234375 C119.4195166 38.65623138 119.0890332 39.66011902 118.74853516 40.69442749 C118.03521537 42.86032087 117.32004677 45.02560607 116.60321045 47.19033813 C114.65544193 53.0742156 112.7228307 58.96307189 110.7890625 64.8515625 C110.19404434 66.66201805 110.19404434 66.66201805 109.58700562 68.50904846 C105.82259451 79.97631655 102.14019618 91.46896481 98.4765625 102.96875 C93.82142617 117.57261094 89.13530078 132.16601619 84.40625 146.74609375 C84.03526341 147.88987865 84.03526341 147.88987865 83.65678215 149.05677032 C82.14148428 153.72806439 80.62563221 158.39917853 79.10967636 163.07025909 C70.99799986 188.06492481 62.92600857 213.06978437 55.1015625 238.15625 C51.40417203 238.15625 50.56695469 237.24203317 47.7265625 234.96875 C46.60121094 234.08123047 46.60121094 234.08123047 45.453125 233.17578125 C44.28910156 232.17611328 44.28910156 232.17611328 43.1015625 231.15625 C42.31225342 230.52509277 41.52294434 229.89393555 40.7097168 229.24365234 C36.80429489 225.28034535 35.64134615 219.92493253 34.01953125 214.73828125 C33.64885529 213.5954216 33.27817932 212.45256195 32.89627075 211.27507019 C31.88976497 208.16174467 30.89694678 205.04445578 29.91006851 201.92486572 C28.8596796 198.61623065 27.79151046 195.31334214 26.7253418 192.00976562 C24.77328045 185.95236256 22.83601779 179.89035593 20.90642452 173.8257618 C18.99297899 167.81210108 17.06786766 161.80221888 15.140625 155.79296875 C13.26645693 149.94548994 11.39450827 144.09732451 9.52978516 138.24682617 C2.06385011 114.83263925 -5.5385246 91.4625875 -13.13377285 68.09009933 C-14.34443389 64.3639836 -15.55345933 60.63735357 -16.75871277 56.90948486 C-18.80980929 50.56831348 -20.8666762 44.22992467 -22.97986126 37.90912056 C-23.64097997 35.92903296 -24.29728254 33.94741834 -24.95191956 31.96517944 C-25.75005096 29.55266094 -26.557225 27.14310769 -27.37510681 24.73721313 C-27.72448807 23.67457245 -28.07386932 22.61193176 -28.43383789 21.51708984 C-28.74253311 20.59697113 -29.05122833 19.67685242 -29.36927795 18.72885132 C-29.96622099 15.82670874 -29.76403701 13.97569193 -28.8984375 11.15625 C-21.46796736 3.81218068 -10.07847885 0.82950443 0 0 Z " fill="#FFFFFF" transform="translate(766.8984375,644.84375)"/>
<path d="M0 0 C9.74588211 7.66129672 11.8557769 20.99857239 15.1484375 32.40625 C15.65557299 34.14793863 16.16313338 35.88950359 16.6710968 37.63095093 C17.729842 41.26582841 18.78417191 44.90194779 19.83520508 48.5390625 C21.1792425 53.18917103 22.53321219 57.83631565 23.8903532 62.48261452 C24.93800431 66.07273003 25.98093756 69.66420252 27.02240944 73.25611496 C27.51985066 74.97002738 28.01861144 76.68355741 28.51874352 78.39668655 C29.21731545 80.79258419 29.90963897 83.19020266 30.6003418 85.58837891 C30.80552933 86.28778091 31.01071686 86.98718292 31.22212219 87.70777893 C32.44194013 91.97337423 33.22870873 96.10146874 33.76171875 100.4921875 C13.34736912 106.50207568 -11.59437567 100.32501922 -30.046875 91.0859375 C-36.5501994 87.43352442 -41.93436616 82.70402074 -47.23828125 77.4921875 C-48.10453125 76.64527344 -48.10453125 76.64527344 -48.98828125 75.78125 C-58.87151786 65.22883592 -63.67868967 49.06222955 -63.45703125 34.79296875 C-62.33518938 22.99359618 -57.97207609 12.56408661 -49.23828125 4.4921875 C-34.84679766 -6.39395743 -15.83496261 -10.66718249 0 0 Z " fill="#FFFFFF" transform="translate(556.23828125,769.5078125)"/>
<path d="M0 0 C13.58308084 13.17510845 25.42287555 31.21123726 32 49 C32 49.99 32 50.98 32 52 C31.18023682 51.97905273 30.36047363 51.95810547 29.51586914 51.93652344 C6.9395257 51.29994231 6.9395257 51.29994231 -15 56 C-15.62825684 56.21430664 -16.25651367 56.42861328 -16.90380859 56.64941406 C-25.07857872 59.50528341 -32.70628034 63.24273445 -40.25439453 67.45996094 C-44.81283537 70 -44.81283537 70 -47 70 C-46.65388672 68.63186157 -46.65388672 68.63186157 -46.30078125 67.23608398 C-45.97125906 65.92694451 -45.64184158 64.61777867 -45.3125 63.30859375 C-45.13243408 62.59650253 -44.95236816 61.88441132 -44.7668457 61.15074158 C-43.7508013 57.10416896 -42.77733218 53.0527345 -41.8671875 48.98095703 C-34.05518664 14.24503852 -34.05518664 14.24503852 -26.15234375 8.4765625 C-22.03650864 6.34095836 -17.85066282 5.17979075 -13.29052734 4.41210938 C-10.10366177 3.83873173 -7.23871668 2.6592781 -4.25 1.4375 C-2.83630209 0.94964413 -1.42102873 0.46607135 0 0 Z " fill="#FFFFFF" transform="translate(1229,316)"/>
<path d="M0 0 C0.66 0 1.32 0 2 0 C8.91012783 21.9871466 15.31906466 44.11627557 21.73034668 66.25268555 C23.38833771 71.97551508 25.04919693 77.69751292 26.70996666 83.41953659 C28.03977682 88.00176772 29.36839141 92.58433717 30.69400024 97.16778564 C32.89383324 104.77045839 35.10134622 112.36986821 37.37060547 119.95214844 C37.71010727 121.09199188 38.04960907 122.23183533 38.3993988 123.40621948 C39.00419533 125.43098715 39.61477929 127.45403992 40.2325592 129.47488403 C40.48702316 130.32863617 40.74148712 131.18238831 41.00366211 132.06201172 C41.22299911 132.78411835 41.44233612 133.50622498 41.6683197 134.25021362 C42 136 42 136 41 138 C17.9473691 102.48984324 5.70869245 58.12803055 -0.5 16.625 C-0.68457764 15.42399658 -0.86915527 14.22299316 -1.05932617 12.9855957 C-1.21506104 11.86886475 -1.3707959 10.75213379 -1.53125 9.6015625 C-1.67111328 8.61494629 -1.81097656 7.62833008 -1.95507812 6.61181641 C-2.00379371 3.77942893 -1.48276733 2.37678881 0 0 Z " fill="#FFFFFF" transform="translate(426,312)"/>
<path d="M0 0 C3.36179774 1.44077046 5.59156268 3.24750021 8 6 C8 6.66 8 7.32 8 8 C3.05 9.485 3.05 9.485 -2 11 C-1.125 3.375 -1.125 3.375 0 0 Z " fill="#FFFFFF" transform="translate(1208,295)"/>
<path d="" fill="#FFFFFF" transform="translate(0,0)"/>
</svg>
